<?xml version="1.0" encoding="UTF-8" standalone="no"?><svg xmlns="http://www.w3.org/2000/svg" xmlns:xlink="http://www.w3.org/1999/xlink" contentScriptType="application/ecmascript" contentStyleType="text/css" height="417px" preserveAspectRatio="none" style="width:1299px;height:417px;" version="1.1" viewBox="0 0 1299 417" width="1299px" zoomAndPan="magnify"><defs/><g><text fill="#000000" font-family="sans-serif" font-size="18" lengthAdjust="spacingAndGlyphs" textLength="131" x="586" y="16.708">Design pattern</text><!--cluster factory--><polygon fill="#FFFFFF" points="14,36.9531,76,36.9531,83,59.25,1277,59.25,1277,405.9531,14,405.9531,14,36.9531" style="stroke: #000000; stroke-width: 1.5;"/><line style="stroke: #000000; stroke-width: 1.5;" x1="14" x2="83" y1="59.25" y2="59.25"/><text fill="#000000" font-family="sans-serif" font-size="14" font-weight="bold" lengthAdjust="spacingAndGlyphs" textLength="56" x="18" y="51.9482">factory</text><!--class FactoryIF--><rect fill="#FEFECE" height="82.9219" id="FactoryIF" style="stroke: #A80036; stroke-width: 1.5;" width="248" x="629" y="63.9531"/><ellipse cx="706.75" cy="79.9531" fill="#B4A7E5" rx="11" ry="11" style="stroke: #A80036; stroke-width: 1.0;"/><path d="M702.6719,75.7188 L702.6719,73.5625 L710.0625,73.5625 L710.0625,75.7188 L707.5938,75.7188 L707.5938,83.7969 L710.0625,83.7969 L710.0625,85.9531 L702.6719,85.9531 L702.6719,83.7969 L705.1406,83.7969 L705.1406,75.7188 L702.6719,75.7188 Z "/><text fill="#FF0000" font-family="sans-serif" font-size="16" font-style="italic" font-weight="bold" lengthAdjust="spacingAndGlyphs" textLength="84" x="727.25" y="85.4922">FactoryIF</text><line style="stroke: #A80036; stroke-width: 1.5;" x1="630" x2="876" y1="95.9531" y2="95.9531"/><line style="stroke: #A80036; stroke-width: 1.5;" x1="630" x2="876" y1="103.9531" y2="103.9531"/><text fill="#000000" font-family="sans-serif" font-size="15" font-weight="bold" lengthAdjust="spacingAndGlyphs" textLength="236" x="635" y="121.8765">public Oracle createOracle();</text><text fill="#000000" font-family="sans-serif" font-size="15" font-weight="bold" lengthAdjust="spacingAndGlyphs" textLength="228" x="635" y="139.3374">public MySql createMySql();</text><!--class ConnectionIF--><rect fill="#FEFECE" height="65.4609" id="ConnectionIF" style="stroke: #A80036; stroke-width: 1.5;" width="228" x="962" y="72.9531"/><ellipse cx="1014.25" cy="88.9531" fill="#B4A7E5" rx="11" ry="11" style="stroke: #A80036; stroke-width: 1.0;"/><path d="M1010.1719,84.7188 L1010.1719,82.5625 L1017.5625,82.5625 L1017.5625,84.7188 L1015.0938,84.7188 L1015.0938,92.7969 L1017.5625,92.7969 L1017.5625,94.9531 L1010.1719,94.9531 L1010.1719,92.7969 L1012.6406,92.7969 L1012.6406,84.7188 L1010.1719,84.7188 Z "/><text fill="#FF0000" font-family="sans-serif" font-size="16" font-style="italic" font-weight="bold" lengthAdjust="spacingAndGlyphs" textLength="115" x="1034.75" y="94.4922">ConnectionIF</text><line style="stroke: #A80036; stroke-width: 1.5;" x1="963" x2="1189" y1="104.9531" y2="104.9531"/><line style="stroke: #A80036; stroke-width: 1.5;" x1="963" x2="1189" y1="112.9531" y2="112.9531"/><text fill="#000000" font-family="sans-serif" font-size="15" font-weight="bold" lengthAdjust="spacingAndGlyphs" textLength="216" x="968" y="130.8765">public String description();</text><!--class MySqlIF--><rect fill="#FEFECE" height="48" id="MySqlIF" style="stroke: #A80036; stroke-width: 1.5;" width="103" x="1024.5" y="224.4531"/><ellipse cx="1039.5" cy="240.4531" fill="#B4A7E5" rx="11" ry="11" style="stroke: #A80036; stroke-width: 1.0;"/><path d="M1035.4219,236.2188 L1035.4219,234.0625 L1042.8125,234.0625 L1042.8125,236.2188 L1040.3438,236.2188 L1040.3438,244.2969 L1042.8125,244.2969 L1042.8125,246.4531 L1035.4219,246.4531 L1035.4219,244.2969 L1037.8906,244.2969 L1037.8906,236.2188 L1035.4219,236.2188 Z "/><text fill="#FF0000" font-family="sans-serif" font-size="16" font-style="italic" font-weight="bold" lengthAdjust="spacingAndGlyphs" textLength="71" x="1053.5" y="245.9922">MySqlIF</text><line style="stroke: #A80036; stroke-width: 1.5;" x1="1025.5" x2="1126.5" y1="256.4531" y2="256.4531"/><line style="stroke: #A80036; stroke-width: 1.5;" x1="1025.5" x2="1126.5" y1="264.4531" y2="264.4531"/><!--class OracleIF--><rect fill="#FEFECE" height="48" id="OracleIF" style="stroke: #A80036; stroke-width: 1.5;" width="107" x="1162.5" y="224.4531"/><ellipse cx="1177.5" cy="240.4531" fill="#B4A7E5" rx="11" ry="11" style="stroke: #A80036; stroke-width: 1.0;"/><path d="M1173.4219,236.2188 L1173.4219,234.0625 L1180.8125,234.0625 L1180.8125,236.2188 L1178.3438,236.2188 L1178.3438,244.2969 L1180.8125,244.2969 L1180.8125,246.4531 L1173.4219,246.4531 L1173.4219,244.2969 L1175.8906,244.2969 L1175.8906,236.2188 L1173.4219,236.2188 Z "/><text fill="#FF0000" font-family="sans-serif" font-size="16" font-style="italic" font-weight="bold" lengthAdjust="spacingAndGlyphs" textLength="75" x="1191.5" y="245.9922">OracleIF</text><line style="stroke: #A80036; stroke-width: 1.5;" x1="1163.5" x2="1268.5" y1="256.4531" y2="256.4531"/><line style="stroke: #A80036; stroke-width: 1.5;" x1="1163.5" x2="1268.5" y1="264.4531" y2="264.4531"/><!--class MySqlLinux--><rect fill="#FEFECE" height="48" id="MySqlLinux" style="stroke: #A80036; stroke-width: 1.5;" width="130" x="658" y="349.9531"/><ellipse cx="673" cy="365.9531" fill="#ADD1B2" rx="11" ry="11" style="stroke: #A80036; stroke-width: 1.0;"/><path d="M675.9688,371.5938 Q675.3906,371.8906 674.75,372.0313 Q674.1094,372.1875 673.4063,372.1875 Q670.9063,372.1875 669.5781,370.5469 Q668.2656,368.8906 668.2656,365.7656 Q668.2656,362.6406 669.5781,360.9844 Q670.9063,359.3281 673.4063,359.3281 Q674.1094,359.3281 674.75,359.4844 Q675.4063,359.6406 675.9688,359.9375 L675.9688,362.6563 Q675.3438,362.0781 674.75,361.8125 Q674.1563,361.5313 673.5313,361.5313 Q672.1875,361.5313 671.5,362.6094 Q670.8125,363.6719 670.8125,365.7656 Q670.8125,367.8594 671.5,368.9375 Q672.1875,370 673.5313,370 Q674.1563,370 674.75,369.7344 Q675.3438,369.4531 675.9688,368.875 L675.9688,371.5938 Z "/><text fill="#FF0000" font-family="sans-serif" font-size="16" font-weight="bold" lengthAdjust="spacingAndGlyphs" textLength="98" x="687" y="371.4922">MySqlLinux</text><line style="stroke: #A80036; stroke-width: 1.5;" x1="659" x2="787" y1="381.9531" y2="381.9531"/><line style="stroke: #A80036; stroke-width: 1.5;" x1="659" x2="787" y1="389.9531" y2="389.9531"/><!--class MySqlWin--><rect fill="#FEFECE" height="48" id="MySqlWin" style="stroke: #A80036; stroke-width: 1.5;" width="117" x="823.5" y="349.9531"/><ellipse cx="838.5" cy="365.9531" fill="#ADD1B2" rx="11" ry="11" style="stroke: #A80036; stroke-width: 1.0;"/><path d="M841.4688,371.5938 Q840.8906,371.8906 840.25,372.0313 Q839.6094,372.1875 838.9063,372.1875 Q836.4063,372.1875 835.0781,370.5469 Q833.7656,368.8906 833.7656,365.7656 Q833.7656,362.6406 835.0781,360.9844 Q836.4063,359.3281 838.9063,359.3281 Q839.6094,359.3281 840.25,359.4844 Q840.9063,359.6406 841.4688,359.9375 L841.4688,362.6563 Q840.8438,362.0781 840.25,361.8125 Q839.6563,361.5313 839.0313,361.5313 Q837.6875,361.5313 837,362.6094 Q836.3125,363.6719 836.3125,365.7656 Q836.3125,367.8594 837,368.9375 Q837.6875,370 839.0313,370 Q839.6563,370 840.25,369.7344 Q840.8438,369.4531 841.4688,368.875 L841.4688,371.5938 Z "/><text fill="#FF0000" font-family="sans-serif" font-size="16" font-weight="bold" lengthAdjust="spacingAndGlyphs" textLength="85" x="852.5" y="371.4922">MySqlWin</text><line style="stroke: #A80036; stroke-width: 1.5;" x1="824.5" x2="939.5" y1="381.9531" y2="381.9531"/><line style="stroke: #A80036; stroke-width: 1.5;" x1="824.5" x2="939.5" y1="389.9531" y2="389.9531"/><!--class OracleWin--><rect fill="#FEFECE" height="48" id="OracleWin" style="stroke: #A80036; stroke-width: 1.5;" width="122" x="976" y="349.9531"/><ellipse cx="991" cy="365.9531" fill="#ADD1B2" rx="11" ry="11" style="stroke: #A80036; stroke-width: 1.0;"/><path d="M993.9688,371.5938 Q993.3906,371.8906 992.75,372.0313 Q992.1094,372.1875 991.4063,372.1875 Q988.9063,372.1875 987.5781,370.5469 Q986.2656,368.8906 986.2656,365.7656 Q986.2656,362.6406 987.5781,360.9844 Q988.9063,359.3281 991.4063,359.3281 Q992.1094,359.3281 992.75,359.4844 Q993.4063,359.6406 993.9688,359.9375 L993.9688,362.6563 Q993.3438,362.0781 992.75,361.8125 Q992.1563,361.5313 991.5313,361.5313 Q990.1875,361.5313 989.5,362.6094 Q988.8125,363.6719 988.8125,365.7656 Q988.8125,367.8594 989.5,368.9375 Q990.1875,370 991.5313,370 Q992.1563,370 992.75,369.7344 Q993.3438,369.4531 993.9688,368.875 L993.9688,371.5938 Z "/><text fill="#FF0000" font-family="sans-serif" font-size="16" font-weight="bold" lengthAdjust="spacingAndGlyphs" textLength="90" x="1005" y="371.4922">OracleWin</text><line style="stroke: #A80036; stroke-width: 1.5;" x1="977" x2="1097" y1="381.9531" y2="381.9531"/><line style="stroke: #A80036; stroke-width: 1.5;" x1="977" x2="1097" y1="389.9531" y2="389.9531"/><!--class OracleLinux--><rect fill="#FEFECE" height="48" id="OracleLinux" style="stroke: #A80036; stroke-width: 1.5;" width="135" x="1133.5" y="349.9531"/><ellipse cx="1148.5" cy="365.9531" fill="#ADD1B2" rx="11" ry="11" style="stroke: #A80036; stroke-width: 1.0;"/><path d="M1151.4688,371.5938 Q1150.8906,371.8906 1150.25,372.0313 Q1149.6094,372.1875 1148.9063,372.1875 Q1146.4063,372.1875 1145.0781,370.5469 Q1143.7656,368.8906 1143.7656,365.7656 Q1143.7656,362.6406 1145.0781,360.9844 Q1146.4063,359.3281 1148.9063,359.3281 Q1149.6094,359.3281 1150.25,359.4844 Q1150.9063,359.6406 1151.4688,359.9375 L1151.4688,362.6563 Q1150.8438,362.0781 1150.25,361.8125 Q1149.6563,361.5313 1149.0313,361.5313 Q1147.6875,361.5313 1147,362.6094 Q1146.3125,363.6719 1146.3125,365.7656 Q1146.3125,367.8594 1147,368.9375 Q1147.6875,370 1149.0313,370 Q1149.6563,370 1150.25,369.7344 Q1150.8438,369.4531 1151.4688,368.875 L1151.4688,371.5938 Z "/><text fill="#FF0000" font-family="sans-serif" font-size="16" font-weight="bold" lengthAdjust="spacingAndGlyphs" textLength="103" x="1162.5" y="371.4922">OracleLinux</text><line style="stroke: #A80036; stroke-width: 1.5;" x1="1134.5" x2="1267.5" y1="381.9531" y2="381.9531"/><line style="stroke: #A80036; stroke-width: 1.5;" x1="1134.5" x2="1267.5" y1="389.9531" y2="389.9531"/><!--class Win--><rect fill="#FEFECE" height="82.9219" id="Win" style="stroke: #A80036; stroke-width: 1.5;" width="459" x="22.5" y="206.9531"/><ellipse cx="231.25" cy="222.9531" fill="#ADD1B2" rx="11" ry="11" style="stroke: #A80036; stroke-width: 1.0;"/><path d="M234.2188,228.5938 Q233.6406,228.8906 233,229.0313 Q232.3594,229.1875 231.6563,229.1875 Q229.1563,229.1875 227.8281,227.5469 Q226.5156,225.8906 226.5156,222.7656 Q226.5156,219.6406 227.8281,217.9844 Q229.1563,216.3281 231.6563,216.3281 Q232.3594,216.3281 233,216.4844 Q233.6563,216.6406 234.2188,216.9375 L234.2188,219.6563 Q233.5938,219.0781 233,218.8125 Q232.4063,218.5313 231.7813,218.5313 Q230.4375,218.5313 229.75,219.6094 Q229.0625,220.6719 229.0625,222.7656 Q229.0625,224.8594 229.75,225.9375 Q230.4375,227 231.7813,227 Q232.4063,227 233,226.7344 Q233.5938,226.4531 234.2188,225.875 L234.2188,228.5938 Z "/><text fill="#FF0000" font-family="sans-serif" font-size="16" font-weight="bold" lengthAdjust="spacingAndGlyphs" textLength="33" x="251.75" y="228.4922">Win</text><line style="stroke: #A80036; stroke-width: 1.5;" x1="23.5" x2="480.5" y1="238.9531" y2="238.9531"/><line style="stroke: #A80036; stroke-width: 1.5;" x1="23.5" x2="480.5" y1="246.9531" y2="246.9531"/><text fill="#000000" font-family="sans-serif" font-size="15" font-weight="bold" lengthAdjust="spacingAndGlyphs" textLength="447" x="28.5" y="264.8765">public Oracle createOracle{ return new OracleWin(); }</text><text fill="#000000" font-family="sans-serif" font-size="15" font-weight="bold" lengthAdjust="spacingAndGlyphs" textLength="430" x="28.5" y="282.3374">public MySql createMySql{ return new MySqlWin();}</text><!--class Linux--><rect fill="#FEFECE" height="82.9219" id="Linux" style="stroke: #A80036; stroke-width: 1.5;" width="473" x="516.5" y="206.9531"/><ellipse cx="725.75" cy="222.9531" fill="#ADD1B2" rx="11" ry="11" style="stroke: #A80036; stroke-width: 1.0;"/><path d="M728.7188,228.5938 Q728.1406,228.8906 727.5,229.0313 Q726.8594,229.1875 726.1563,229.1875 Q723.6563,229.1875 722.3281,227.5469 Q721.0156,225.8906 721.0156,222.7656 Q721.0156,219.6406 722.3281,217.9844 Q723.6563,216.3281 726.1563,216.3281 Q726.8594,216.3281 727.5,216.4844 Q728.1563,216.6406 728.7188,216.9375 L728.7188,219.6563 Q728.0938,219.0781 727.5,218.8125 Q726.9063,218.5313 726.2813,218.5313 Q724.9375,218.5313 724.25,219.6094 Q723.5625,220.6719 723.5625,222.7656 Q723.5625,224.8594 724.25,225.9375 Q724.9375,227 726.2813,227 Q726.9063,227 727.5,226.7344 Q728.0938,226.4531 728.7188,225.875 L728.7188,228.5938 Z "/><text fill="#FF0000" font-family="sans-serif" font-size="16" font-weight="bold" lengthAdjust="spacingAndGlyphs" textLength="46" x="746.25" y="228.4922">Linux</text><line style="stroke: #A80036; stroke-width: 1.5;" x1="517.5" x2="988.5" y1="238.9531" y2="238.9531"/><line style="stroke: #A80036; stroke-width: 1.5;" x1="517.5" x2="988.5" y1="246.9531" y2="246.9531"/><text fill="#000000" font-family="sans-serif" font-size="15" font-weight="bold" lengthAdjust="spacingAndGlyphs" textLength="461" x="522.5" y="264.8765">public Oracle createOracle{ return new OracleLinux(); }</text><text fill="#000000" font-family="sans-serif" font-size="15" font-weight="bold" lengthAdjust="spacingAndGlyphs" textLength="444" x="522.5" y="282.3374">public MySql createMySql{ return new MySqlLinux();}</text><!--link ConnectionIF to OracleIF--><path d="M1122.4388,152.887 C1145.8564,176.8064 1173.2566,204.7937 1192.3289,224.2747 " fill="none" id="ConnectionIF-OracleIF" style="stroke: #0000FF; stroke-width: 1.0;"/><polygon fill="none" points="1117.1083,157.4485,1108.1188,138.2602,1127.1122,147.6545,1117.1083,157.4485" style="stroke: #0000FF; stroke-width: 1.0;"/><!--link OracleIF to OracleLinux--><path d="M1210.6981,292.8121 C1208.405,311.9982 1205.8111,333.7003 1203.8833,349.8297 " fill="none" id="OracleIF-OracleLinux" style="stroke: #0000FF; stroke-width: 1.0; stroke-dasharray: 7.0,7.0;"/><polygon fill="none" points="1203.7837,291.6786,1213.1078,272.6508,1217.6847,293.3402,1203.7837,291.6786" style="stroke: #0000FF; stroke-width: 1.0;"/><!--link OracleIF to OracleWin--><path d="M1164.8059,284.3461 C1134.8655,305.3379 1097.8756,331.2722 1071.407,349.8297 " fill="none" id="OracleIF-OracleWin" style="stroke: #0000FF; stroke-width: 1.0; stroke-dasharray: 7.0,7.0;"/><polygon fill="none" points="1161.0924,278.4007,1181.487,272.6508,1169.1295,289.8639,1161.0924,278.4007" style="stroke: #0000FF; stroke-width: 1.0;"/><!--link ConnectionIF to MySqlIF--><path d="M1076,158.3931 C1076,181.002 1076,206.271 1076,224.2747 " fill="none" id="ConnectionIF-MySqlIF" style="stroke: #0000FF; stroke-width: 1.0;"/><polygon fill="none" points="1069.0001,158.2602,1076,138.2602,1083.0001,158.2602,1069.0001,158.2602" style="stroke: #0000FF; stroke-width: 1.0;"/><!--link MySqlIF to MySqlLinux--><path d="M1022.0606,282.6303 C1017.053,285.2714 1011.986,287.7591 1007,289.9531 C996.7492,294.4637 868.8749,331.7514 788.2505,355.106 " fill="none" id="MySqlIF-MySqlLinux" style="stroke: #0000FF; stroke-width: 1.0; stroke-dasharray: 7.0,7.0;"/><polygon fill="none" points="1018.8343,276.4128,1039.6861,272.6439,1025.7358,288.5935,1018.8343,276.4128" style="stroke: #0000FF; stroke-width: 1.0;"/><!--link MySqlIF to MySqlWin--><path d="M1021.4237,283.7589 C988.8168,304.8525 948.245,331.0987 919.2903,349.8297 " fill="none" id="MySqlIF-MySqlWin" style="stroke: #0000FF; stroke-width: 1.0; stroke-dasharray: 7.0,7.0;"/><polygon fill="none" points="1018.0001,277.6366,1038.5948,272.6508,1025.6044,289.3914,1018.0001,277.6366" style="stroke: #0000FF; stroke-width: 1.0;"/><!--link FactoryIF to Win--><path d="M609.565,146.3936 C543.1932,165.3381 464.4695,187.8081 397.8076,206.8354 " fill="none" id="FactoryIF-Win" style="stroke: #0000FF; stroke-width: 1.0; stroke-dasharray: 7.0,7.0;"/><polygon fill="none" points="607.6823,139.6515,628.8356,140.8933,611.5249,153.1139,607.6823,139.6515" style="stroke: #0000FF; stroke-width: 1.0;"/><!--link FactoryIF to Linux--><path d="M753,167.4938 C753,180.8154 753,194.5829 753,206.9025 " fill="none" id="FactoryIF-Linux" style="stroke: #0000FF; stroke-width: 1.0; stroke-dasharray: 7.0,7.0;"/><polygon fill="none" points="746.0001,167.1991,753,147.199,760.0001,167.199,746.0001,167.1991" style="stroke: #0000FF; stroke-width: 1.0;"/><!--link FactoryIF to ConnectionIF--><path d="M877.2793,105.4531 C903.7204,105.4531 930.1615,105.4531 956.6026,105.4531 " fill="none" id="FactoryIF-ConnectionIF" style="stroke: #0000FF; stroke-width: 1.0; stroke-dasharray: 7.0,7.0;"/><polygon fill="#0000FF" points="961.8908,105.4531,952.8908,101.4531,956.8908,105.4531,952.8908,109.4531,961.8908,105.4531" style="stroke: #0000FF; stroke-width: 1.0;"/><!--
@startuml 

title Design pattern

skinparam classFontColor red
skinparam classFontStyle bold
skinparam classFontSize 16
skinparam classAttributeFontSize 15
skinparam classAttributeFontStyle bold
skinparam classArrowColor blue
skinparam shadowing false


package factory{

interface FactoryIF {
public Oracle createOracle();
public MySql createMySql();
}

interface ConnectionIF {
public String description();
}

interface MySqlIF {
}

interface OracleIF {
}

class  MySqlLinux {
} 

class  MySqlWin {
} 

class  OracleWin {
} 

class  OracleLinux {
} 

class  Win {
public Oracle createOracle{ return new OracleWin(); }
public MySql createMySql{ return new MySqlWin();}
} 

class  Linux {
public Oracle createOracle{ return new OracleLinux(); }
public MySql createMySql{ return new MySqlLinux();}

} 


ConnectionIF <|- - OracleIF
                  OracleIF <|.. OracleLinux
 				  OracleIF <|.. OracleWin
                       	
ConnectionIF <|- - MySqlIF
				  MySqlIF <|.. MySqlLinux
				  MySqlIF <|.. MySqlWin

FactoryIF <|.. Win
FactoryIF <|.. Linux

ConnectionIF <.right. FactoryIF

}




@enduml

PlantUML version 1.2018.10(Sat Aug 25 20:02:59 EEST 2018)
(GPL source distribution)
Java Runtime: OpenJDK Runtime Environment
JVM: OpenJDK 64-Bit Server VM
Java Version: 11.0.2+9-Debian-3
Operating System: Linux
OS Version: 4.19.0-kali1-amd64
Default Encoding: UTF-8
Language: en
Country: US
--></g></svg>