<?xml version="1.0" encoding="UTF-8" standalone="no"?><svg xmlns="http://www.w3.org/2000/svg" xmlns:xlink="http://www.w3.org/1999/xlink" contentScriptType="application/ecmascript" contentStyleType="text/css" height="383px" preserveAspectRatio="none" style="width:1133px;height:383px;" version="1.1" viewBox="0 0 1133 383" width="1133px" zoomAndPan="magnify"><defs/><g><text fill="#000000" font-family="sans-serif" font-size="18" lengthAdjust="spacingAndGlyphs" textLength="144" x="496.5" y="16.708">Abstract Factory</text><!--cluster absFactory--><polygon fill="#FFFFFF" points="14,36.9531,107,36.9531,114,59.25,1111,59.25,1111,371.9531,14,371.9531,14,36.9531" style="stroke: #000000; stroke-width: 1.5;"/><line style="stroke: #000000; stroke-width: 1.5;" x1="14" x2="114" y1="59.25" y2="59.25"/><text fill="#000000" font-family="sans-serif" font-size="14" font-weight="bold" lengthAdjust="spacingAndGlyphs" textLength="87" x="18" y="51.9482">absFactory</text><rect fill="#FEFECE" height="65.5469" style="stroke: #A80036; stroke-width: 1.5;" width="148" x="478" y="63.9531"/><text fill="#FF0000" font-family="sans-serif" font-size="16" font-weight="bold" lengthAdjust="spacingAndGlyphs" textLength="41" x="531.5" y="80.8047">Main</text><line style="stroke: #A80036; stroke-width: 1.5;" x1="479" x2="625" y1="86.5781" y2="86.5781"/><text fill="#000000" font-family="sans-serif" font-size="15" font-weight="bold" lengthAdjust="spacingAndGlyphs" textLength="119" x="484" y="104.5015">Factory1= win</text><text fill="#000000" font-family="sans-serif" font-size="15" font-weight="bold" lengthAdjust="spacingAndGlyphs" textLength="136" x="484" y="121.9624">Factory2= Linux</text><rect fill="#FEFECE" height="65.5469" style="stroke: #A80036; stroke-width: 1.5;" width="186" x="320" y="189.9531"/><text fill="#FF0000" font-family="sans-serif" font-size="16" font-weight="bold" lengthAdjust="spacingAndGlyphs" textLength="33" x="396.5" y="206.8047">Win</text><line style="stroke: #A80036; stroke-width: 1.5;" x1="321" x2="505" y1="212.5781" y2="212.5781"/><text fill="#000000" font-family="sans-serif" font-size="15" font-weight="bold" lengthAdjust="spacingAndGlyphs" textLength="174" x="326" y="230.5015">Oracle = OracleWin()</text><text fill="#000000" font-family="sans-serif" font-size="15" font-weight="bold" lengthAdjust="spacingAndGlyphs" textLength="166" x="326" y="247.9624">MySql = MySqlWin()</text><rect fill="#FEFECE" height="65.5469" style="stroke: #A80036; stroke-width: 1.5;" width="186" x="599" y="189.9531"/><text fill="#FF0000" font-family="sans-serif" font-size="16" font-weight="bold" lengthAdjust="spacingAndGlyphs" textLength="46" x="669" y="206.8047">Linux</text><line style="stroke: #A80036; stroke-width: 1.5;" x1="600" x2="784" y1="212.5781" y2="212.5781"/><text fill="#000000" font-family="sans-serif" font-size="15" font-weight="bold" lengthAdjust="spacingAndGlyphs" textLength="174" x="605" y="230.5015">Oracle = OracleLinux</text><text fill="#000000" font-family="sans-serif" font-size="15" font-weight="bold" lengthAdjust="spacingAndGlyphs" textLength="166" x="605" y="247.9624">MySql = MySqlLinux</text><rect fill="#FEFECE" height="48.0859" style="stroke: #A80036; stroke-width: 1.5;" width="239" x="21.5" y="315.9531"/><text fill="#FF0000" font-family="sans-serif" font-size="16" font-weight="bold" lengthAdjust="spacingAndGlyphs" textLength="90" x="96" y="332.8047">OracleWin</text><line style="stroke: #A80036; stroke-width: 1.5;" x1="22.5" x2="259.5" y1="338.5781" y2="338.5781"/><text fill="#000000" font-family="sans-serif" font-size="15" font-weight="bold" lengthAdjust="spacingAndGlyphs" textLength="227" x="27.5" y="356.5015">description() ="Oracle Win"</text><rect fill="#FEFECE" height="48.0859" style="stroke: #A80036; stroke-width: 1.5;" width="235" x="295.5" y="315.9531"/><text fill="#FF0000" font-family="sans-serif" font-size="16" font-weight="bold" lengthAdjust="spacingAndGlyphs" textLength="85" x="370.5" y="332.8047">MySqlWin</text><line style="stroke: #A80036; stroke-width: 1.5;" x1="296.5" x2="529.5" y1="338.5781" y2="338.5781"/><text fill="#000000" font-family="sans-serif" font-size="15" font-weight="bold" lengthAdjust="spacingAndGlyphs" textLength="223" x="301.5" y="356.5015">description() ="MySql Win"</text><rect fill="#FEFECE" height="48.0859" style="stroke: #A80036; stroke-width: 1.5;" width="253" x="565.5" y="315.9531"/><text fill="#FF0000" font-family="sans-serif" font-size="16" font-weight="bold" lengthAdjust="spacingAndGlyphs" textLength="103" x="640.5" y="332.8047">OracleLinux</text><line style="stroke: #A80036; stroke-width: 1.5;" x1="566.5" x2="817.5" y1="338.5781" y2="338.5781"/><text fill="#000000" font-family="sans-serif" font-size="15" font-weight="bold" lengthAdjust="spacingAndGlyphs" textLength="241" x="571.5" y="356.5015">description() ="Oracle Linux"</text><rect fill="#FEFECE" height="48.0859" style="stroke: #A80036; stroke-width: 1.5;" width="249" x="853.5" y="315.9531"/><text fill="#FF0000" font-family="sans-serif" font-size="16" font-weight="bold" lengthAdjust="spacingAndGlyphs" textLength="98" x="929" y="332.8047">MySqlLinux</text><line style="stroke: #A80036; stroke-width: 1.5;" x1="854.5" x2="1101.5" y1="338.5781" y2="338.5781"/><text fill="#000000" font-family="sans-serif" font-size="15" font-weight="bold" lengthAdjust="spacingAndGlyphs" textLength="237" x="859.5" y="356.5015">description() ="MySql Linux"</text><!--link Main to Win--><path d="M515.4794,130.0581 C496.4763,147.2839 473.191,168.3915 453.6213,186.1309 " fill="none" id="Main-Win" style="stroke: #0000FF; stroke-width: 1.0; stroke-dasharray: 7.0,7.0;"/><polygon fill="#0000FF" points="449.7593,189.6317,459.1139,186.5508,453.4638,186.2736,453.7409,180.6236,449.7593,189.6317" style="stroke: #0000FF; stroke-width: 1.0;"/><!--link Main to Linux--><path d="M588.7834,130.0581 C607.9231,147.2839 631.3759,168.3915 651.0864,186.1309 " fill="none" id="Main-Linux" style="stroke: #0000FF; stroke-width: 1.0; stroke-dasharray: 7.0,7.0;"/><polygon fill="#0000FF" points="654.9762,189.6317,650.9625,180.6378,651.2598,186.2869,645.6107,186.5841,654.9762,189.6317" style="stroke: #0000FF; stroke-width: 1.0;"/><!--link Win to OracleWin--><path d="M336.1464,256.0115 C293.5756,274.3231 241.4025,296.7653 201.7164,313.8361 " fill="none" id="Win-OracleWin" style="stroke: #0000FF; stroke-width: 1.0; stroke-dasharray: 7.0,7.0;"/><polygon fill="#0000FF" points="196.94,315.8907,206.7881,316.009,201.5331,313.915,203.627,308.66,196.94,315.8907" style="stroke: #0000FF; stroke-width: 1.0;"/><!--link Win to MySqlWin--><path d="M413,256.1676 C413,273.163 413,293.6841 413,310.1635 " fill="none" id="Win-MySqlWin" style="stroke: #0000FF; stroke-width: 1.0; stroke-dasharray: 7.0,7.0;"/><polygon fill="#0000FF" points="413,315.5863,417,306.5863,413,310.5863,409,306.5863,413,315.5863" style="stroke: #0000FF; stroke-width: 1.0;"/><!--link Linux to OracleLinux--><path d="M692,256.1676 C692,273.163 692,293.6841 692,310.1635 " fill="none" id="Linux-OracleLinux" style="stroke: #0000FF; stroke-width: 1.0; stroke-dasharray: 7.0,7.0;"/><polygon fill="#0000FF" points="692,315.5863,696,306.5863,692,310.5863,688,306.5863,692,315.5863" style="stroke: #0000FF; stroke-width: 1.0;"/><!--link Linux to MySqlLinux--><path d="M772.8093,256.0115 C817.6622,274.3604 872.6528,296.8565 914.4128,313.9402 " fill="none" id="Linux-MySqlLinux" style="stroke: #0000FF; stroke-width: 1.0; stroke-dasharray: 7.0,7.0;"/><polygon fill="#0000FF" points="919.1807,315.8907,912.3652,308.7809,914.5529,313.9976,909.3362,316.1853,919.1807,315.8907" style="stroke: #0000FF; stroke-width: 1.0;"/><!--
@startuml 


title Abstract Factory

skinparam objectFontColor red
skinparam objectFontStyle bold
skinparam objectFontSize 16
skinparam objectAttributeFontSize 15
skinparam objectAttributeFontStyle bold
skinparam objectArrowColor blue
skinparam shadowing false

package absFactory {

Main   ..> Win
Main   ..> Linux
Win   ..> OracleWin
Win   ..> MySqlWin
Linux ..> OracleLinux
Linux ..> MySqlLinux

Object Main{
Factory1= win
Factory2= Linux
}

object  Win {
Oracle = OracleWin() 
MySql = MySqlWin()
} 

object  Linux {
Oracle = OracleLinux 
MySql = MySqlLinux 
} 


object  MySqlLinux {
description() ="MySql Linux"
} 


object  MySqlWin {
description() ="MySql Win"
} 


object  OracleWin {
description() ="Oracle Win"

} 

object  OracleLinux {
description() ="Oracle Linux"

} 

}
@enduml

PlantUML version 1.2018.10(Sat Aug 25 20:02:59 EEST 2018)
(GPL source distribution)
Java Runtime: OpenJDK Runtime Environment
JVM: OpenJDK 64-Bit Server VM
Java Version: 11.0.2+9-Debian-3
Operating System: Linux
OS Version: 4.19.0-kali1-amd64
Default Encoding: UTF-8
Language: en
Country: US
--></g></svg>