<?xml version="1.0" encoding="UTF-8" standalone="no"?><svg xmlns="http://www.w3.org/2000/svg" xmlns:xlink="http://www.w3.org/1999/xlink" contentScriptType="application/ecmascript" contentStyleType="text/css" height="435px" preserveAspectRatio="none" style="width:549px;height:435px;" version="1.1" viewBox="0 0 549 435" width="549px" zoomAndPan="magnify"><defs><filter height="300%" id="f8f564cxouaf4" width="300%" x="-1" y="-1"><feGaussianBlur result="blurOut" stdDeviation="2.0"/><feColorMatrix in="blurOut" result="blurOut2" type="matrix" values="0 0 0 0 0 0 0 0 0 0 0 0 0 0 0 0 0 0 .4 0"/><feOffset dx="4.0" dy="4.0" in="blurOut2" result="blurOut3"/><feBlend in="SourceGraphic" in2="blurOut3" mode="normal"/></filter></defs><g><!--cluster scjp.exam.stuff--><polygon fill="#FFFFFF" filter="url(#f8f564cxouaf4)" points="148,124,275,124,282,146.2969,424,146.2969,424,315,148,315,148,124" style="stroke: #000000; stroke-width: 1.5;"/><line style="stroke: #000000; stroke-width: 1.5;" x1="148" x2="282" y1="146.2969" y2="146.2969"/><text fill="#000000" font-family="sans-serif" font-size="14" font-weight="bold" lengthAdjust="spacingAndGlyphs" textLength="121" x="152" y="138.9951">scjp.exam.stuff</text><!--cluster scjp--><polygon fill="#FFFFFF" filter="url(#f8f564cxouaf4)" points="159,16,197,16,204,38.2969,241,38.2969,241,99,159,99,159,16" style="stroke: #000000; stroke-width: 1.5;"/><line style="stroke: #000000; stroke-width: 1.5;" x1="159" x2="204" y1="38.2969" y2="38.2969"/><text fill="#000000" font-family="sans-serif" font-size="14" font-weight="bold" lengthAdjust="spacingAndGlyphs" textLength="32" x="163" y="30.9951">scjp</text><!--cluster scjp.cert--><polygon fill="#FFFFFF" filter="url(#f8f564cxouaf4)" points="14,232,89,232,96,254.2969,130,254.2969,130,423,14,423,14,232" style="stroke: #000000; stroke-width: 1.5;"/><line style="stroke: #000000; stroke-width: 1.5;" x1="14" x2="96" y1="254.2969" y2="254.2969"/><text fill="#000000" font-family="sans-serif" font-size="14" font-weight="bold" lengthAdjust="spacingAndGlyphs" textLength="69" x="18" y="246.9951">scjp.cert</text><!--cluster scjp.exam--><polygon fill="#FFFFFF" filter="url(#f8f564cxouaf4)" points="432,16,517,16,524,38.2969,527,38.2969,527,207,432,207,432,16" style="stroke: #000000; stroke-width: 1.5;"/><line style="stroke: #000000; stroke-width: 1.5;" x1="432" x2="524" y1="38.2969" y2="38.2969"/><text fill="#000000" font-family="sans-serif" font-size="14" font-weight="bold" lengthAdjust="spacingAndGlyphs" textLength="79" x="436" y="30.9951">scjp.exam</text><!--class scjp.exam.stuff.Car--><rect fill="#FEFECE" filter="url(#f8f564cxouaf4)" height="48" id="scjp.exam.stuff.Car" style="stroke: #A80036; stroke-width: 1.5;" width="53" x="362.5" y="259"/><ellipse cx="377.5" cy="275" fill="#A9DCDF" rx="11" ry="11" style="stroke: #A80036; stroke-width: 1.0;"/><path d="M377.6094,270.3438 L376.4531,275.4219 L378.7813,275.4219 L377.6094,270.3438 Z M376.125,268.1094 L379.1094,268.1094 L382.4688,280.5 L380.0156,280.5 L379.25,277.4375 L375.9688,277.4375 L375.2188,280.5 L372.7813,280.5 L376.125,268.1094 Z "/><text fill="#000000" font-family="sans-serif" font-size="12" font-style="italic" lengthAdjust="spacingAndGlyphs" textLength="21" x="391.5" y="279.1543">Car</text><line style="stroke: #A80036; stroke-width: 1.5;" x1="363.5" x2="414.5" y1="291" y2="291"/><line style="stroke: #A80036; stroke-width: 1.5;" x1="363.5" x2="414.5" y1="299" y2="299"/><!--class scjp.exam.stuff.SmallTea--><rect fill="#FEFECE" filter="url(#f8f564cxouaf4)" height="48" id="scjp.exam.stuff.SmallTea" style="stroke: #A80036; stroke-width: 1.5;" width="88" x="156" y="151"/><ellipse cx="171" cy="167" fill="#ADD1B2" rx="11" ry="11" style="stroke: #A80036; stroke-width: 1.0;"/><path d="M173.9688,172.6406 Q173.3906,172.9375 172.75,173.0781 Q172.1094,173.2344 171.4063,173.2344 Q168.9063,173.2344 167.5781,171.5938 Q166.2656,169.9375 166.2656,166.8125 Q166.2656,163.6875 167.5781,162.0313 Q168.9063,160.375 171.4063,160.375 Q172.1094,160.375 172.75,160.5313 Q173.4063,160.6875 173.9688,160.9844 L173.9688,163.7031 Q173.3438,163.125 172.75,162.8594 Q172.1563,162.5781 171.5313,162.5781 Q170.1875,162.5781 169.5,163.6563 Q168.8125,164.7188 168.8125,166.8125 Q168.8125,168.9063 169.5,169.9844 Q170.1875,171.0469 171.5313,171.0469 Q172.1563,171.0469 172.75,170.7813 Q173.3438,170.5 173.9688,169.9219 L173.9688,172.6406 Z "/><text fill="#000000" font-family="sans-serif" font-size="12" lengthAdjust="spacingAndGlyphs" textLength="56" x="185" y="171.1543">SmallTea</text><line style="stroke: #A80036; stroke-width: 1.5;" x1="157" x2="243" y1="183" y2="183"/><line style="stroke: #A80036; stroke-width: 1.5;" x1="157" x2="243" y1="191" y2="191"/><!--class scjp.exam.stuff.Tea--><rect fill="#FEFECE" filter="url(#f8f564cxouaf4)" height="48" id="scjp.exam.stuff.Tea" style="stroke: #A80036; stroke-width: 1.5;" width="55" x="156.5" y="259"/><ellipse cx="171.5" cy="275" fill="#ADD1B2" rx="11" ry="11" style="stroke: #A80036; stroke-width: 1.0;"/><path d="M174.4688,280.6406 Q173.8906,280.9375 173.25,281.0781 Q172.6094,281.2344 171.9063,281.2344 Q169.4063,281.2344 168.0781,279.5938 Q166.7656,277.9375 166.7656,274.8125 Q166.7656,271.6875 168.0781,270.0313 Q169.4063,268.375 171.9063,268.375 Q172.6094,268.375 173.25,268.5313 Q173.9063,268.6875 174.4688,268.9844 L174.4688,271.7031 Q173.8438,271.125 173.25,270.8594 Q172.6563,270.5781 172.0313,270.5781 Q170.6875,270.5781 170,271.6563 Q169.3125,272.7188 169.3125,274.8125 Q169.3125,276.9063 170,277.9844 Q170.6875,279.0469 172.0313,279.0469 Q172.6563,279.0469 173.25,278.7813 Q173.8438,278.5 174.4688,277.9219 L174.4688,280.6406 Z "/><text fill="#000000" font-family="sans-serif" font-size="12" lengthAdjust="spacingAndGlyphs" textLength="23" x="185.5" y="279.1543">Tea</text><line style="stroke: #A80036; stroke-width: 1.5;" x1="157.5" x2="210.5" y1="291" y2="291"/><line style="stroke: #A80036; stroke-width: 1.5;" x1="157.5" x2="210.5" y1="299" y2="299"/><!--class scjp.exam.stuff.Tea2--><rect fill="#FEFECE" filter="url(#f8f564cxouaf4)" height="48" id="scjp.exam.stuff.Tea2" style="stroke: #A80036; stroke-width: 1.5;" width="63" x="310.5" y="151"/><ellipse cx="325.5" cy="167" fill="#ADD1B2" rx="11" ry="11" style="stroke: #A80036; stroke-width: 1.0;"/><path d="M328.4688,172.6406 Q327.8906,172.9375 327.25,173.0781 Q326.6094,173.2344 325.9063,173.2344 Q323.4063,173.2344 322.0781,171.5938 Q320.7656,169.9375 320.7656,166.8125 Q320.7656,163.6875 322.0781,162.0313 Q323.4063,160.375 325.9063,160.375 Q326.6094,160.375 327.25,160.5313 Q327.9063,160.6875 328.4688,160.9844 L328.4688,163.7031 Q327.8438,163.125 327.25,162.8594 Q326.6563,162.5781 326.0313,162.5781 Q324.6875,162.5781 324,163.6563 Q323.3125,164.7188 323.3125,166.8125 Q323.3125,168.9063 324,169.9844 Q324.6875,171.0469 326.0313,171.0469 Q326.6563,171.0469 327.25,170.7813 Q327.8438,170.5 328.4688,169.9219 L328.4688,172.6406 Z "/><text fill="#000000" font-family="sans-serif" font-size="12" lengthAdjust="spacingAndGlyphs" textLength="31" x="339.5" y="171.1543">Tea2</text><line style="stroke: #A80036; stroke-width: 1.5;" x1="311.5" x2="372.5" y1="183" y2="183"/><line style="stroke: #A80036; stroke-width: 1.5;" x1="311.5" x2="372.5" y1="191" y2="191"/><!--class scjp.exam.stuff.Callable--><rect fill="#FEFECE" filter="url(#f8f564cxouaf4)" height="48" id="scjp.exam.stuff.Callable" style="stroke: #A80036; stroke-width: 1.5;" width="81" x="246.5" y="259"/><ellipse cx="261.5" cy="275" fill="#ADD1B2" rx="11" ry="11" style="stroke: #A80036; stroke-width: 1.0;"/><path d="M264.4688,280.6406 Q263.8906,280.9375 263.25,281.0781 Q262.6094,281.2344 261.9063,281.2344 Q259.4063,281.2344 258.0781,279.5938 Q256.7656,277.9375 256.7656,274.8125 Q256.7656,271.6875 258.0781,270.0313 Q259.4063,268.375 261.9063,268.375 Q262.6094,268.375 263.25,268.5313 Q263.9063,268.6875 264.4688,268.9844 L264.4688,271.7031 Q263.8438,271.125 263.25,270.8594 Q262.6563,270.5781 262.0313,270.5781 Q260.6875,270.5781 260,271.6563 Q259.3125,272.7188 259.3125,274.8125 Q259.3125,276.9063 260,277.9844 Q260.6875,279.0469 262.0313,279.0469 Q262.6563,279.0469 263.25,278.7813 Q263.8438,278.5 264.4688,277.9219 L264.4688,280.6406 Z "/><text fill="#000000" font-family="sans-serif" font-size="12" lengthAdjust="spacingAndGlyphs" textLength="49" x="275.5" y="279.1543">Callable</text><line style="stroke: #A80036; stroke-width: 1.5;" x1="247.5" x2="326.5" y1="291" y2="291"/><line style="stroke: #A80036; stroke-width: 1.5;" x1="247.5" x2="326.5" y1="299" y2="299"/><!--class scjp.Java1--><rect fill="#FEFECE" filter="url(#f8f564cxouaf4)" height="48" id="scjp.Java1" style="stroke: #A80036; stroke-width: 1.5;" width="65" x="167.5" y="43"/><ellipse cx="182.5" cy="59" fill="#ADD1B2" rx="11" ry="11" style="stroke: #A80036; stroke-width: 1.0;"/><path d="M185.4688,64.6406 Q184.8906,64.9375 184.25,65.0781 Q183.6094,65.2344 182.9063,65.2344 Q180.4063,65.2344 179.0781,63.5938 Q177.7656,61.9375 177.7656,58.8125 Q177.7656,55.6875 179.0781,54.0313 Q180.4063,52.375 182.9063,52.375 Q183.6094,52.375 184.25,52.5313 Q184.9063,52.6875 185.4688,52.9844 L185.4688,55.7031 Q184.8438,55.125 184.25,54.8594 Q183.6563,54.5781 183.0313,54.5781 Q181.6875,54.5781 181,55.6563 Q180.3125,56.7188 180.3125,58.8125 Q180.3125,60.9063 181,61.9844 Q181.6875,63.0469 183.0313,63.0469 Q183.6563,63.0469 184.25,62.7813 Q184.8438,62.5 185.4688,61.9219 L185.4688,64.6406 Z "/><text fill="#000000" font-family="sans-serif" font-size="12" lengthAdjust="spacingAndGlyphs" textLength="33" x="196.5" y="63.1543">Java1</text><line style="stroke: #A80036; stroke-width: 1.5;" x1="168.5" x2="231.5" y1="75" y2="75"/><line style="stroke: #A80036; stroke-width: 1.5;" x1="168.5" x2="231.5" y1="83" y2="83"/><!--class scjp.cert.Beverage--><rect fill="#FEFECE" filter="url(#f8f564cxouaf4)" height="48" id="scjp.cert.Beverage" style="stroke: #A80036; stroke-width: 1.5;" width="91" x="30.5" y="367"/><ellipse cx="45.5" cy="383" fill="#ADD1B2" rx="11" ry="11" style="stroke: #A80036; stroke-width: 1.0;"/><path d="M48.4688,388.6406 Q47.8906,388.9375 47.25,389.0781 Q46.6094,389.2344 45.9063,389.2344 Q43.4063,389.2344 42.0781,387.5938 Q40.7656,385.9375 40.7656,382.8125 Q40.7656,379.6875 42.0781,378.0313 Q43.4063,376.375 45.9063,376.375 Q46.6094,376.375 47.25,376.5313 Q47.9063,376.6875 48.4688,376.9844 L48.4688,379.7031 Q47.8438,379.125 47.25,378.8594 Q46.6563,378.5781 46.0313,378.5781 Q44.6875,378.5781 44,379.6563 Q43.3125,380.7188 43.3125,382.8125 Q43.3125,384.9063 44,385.9844 Q44.6875,387.0469 46.0313,387.0469 Q46.6563,387.0469 47.25,386.7813 Q47.8438,386.5 48.4688,385.9219 L48.4688,388.6406 Z "/><text fill="#000000" font-family="sans-serif" font-size="12" lengthAdjust="spacingAndGlyphs" textLength="59" x="59.5" y="387.1543">Beverage</text><line style="stroke: #A80036; stroke-width: 1.5;" x1="31.5" x2="120.5" y1="399" y2="399"/><line style="stroke: #A80036; stroke-width: 1.5;" x1="31.5" x2="120.5" y1="407" y2="407"/><!--class scjp.cert.TestMyAge--><rect fill="#FEFECE" filter="url(#f8f564cxouaf4)" height="48" id="scjp.cert.TestMyAge" style="stroke: #A80036; stroke-width: 1.5;" width="99" x="22.5" y="259"/><ellipse cx="37.5" cy="275" fill="#ADD1B2" rx="11" ry="11" style="stroke: #A80036; stroke-width: 1.0;"/><path d="M40.4688,280.6406 Q39.8906,280.9375 39.25,281.0781 Q38.6094,281.2344 37.9063,281.2344 Q35.4063,281.2344 34.0781,279.5938 Q32.7656,277.9375 32.7656,274.8125 Q32.7656,271.6875 34.0781,270.0313 Q35.4063,268.375 37.9063,268.375 Q38.6094,268.375 39.25,268.5313 Q39.9063,268.6875 40.4688,268.9844 L40.4688,271.7031 Q39.8438,271.125 39.25,270.8594 Q38.6563,270.5781 38.0313,270.5781 Q36.6875,270.5781 36,271.6563 Q35.3125,272.7188 35.3125,274.8125 Q35.3125,276.9063 36,277.9844 Q36.6875,279.0469 38.0313,279.0469 Q38.6563,279.0469 39.25,278.7813 Q39.8438,278.5 40.4688,277.9219 L40.4688,280.6406 Z "/><text fill="#000000" font-family="sans-serif" font-size="12" lengthAdjust="spacingAndGlyphs" textLength="67" x="51.5" y="279.1543">TestMyAge</text><line style="stroke: #A80036; stroke-width: 1.5;" x1="23.5" x2="120.5" y1="291" y2="291"/><line style="stroke: #A80036; stroke-width: 1.5;" x1="23.5" x2="120.5" y1="299" y2="299"/><!--class scjp.exam.Xcar--><rect fill="#FEFECE" filter="url(#f8f564cxouaf4)" height="48" id="scjp.exam.Xcar" style="stroke: #A80036; stroke-width: 1.5;" width="59" x="440.5" y="151"/><ellipse cx="455.5" cy="167" fill="#ADD1B2" rx="11" ry="11" style="stroke: #A80036; stroke-width: 1.0;"/><path d="M458.4688,172.6406 Q457.8906,172.9375 457.25,173.0781 Q456.6094,173.2344 455.9063,173.2344 Q453.4063,173.2344 452.0781,171.5938 Q450.7656,169.9375 450.7656,166.8125 Q450.7656,163.6875 452.0781,162.0313 Q453.4063,160.375 455.9063,160.375 Q456.6094,160.375 457.25,160.5313 Q457.9063,160.6875 458.4688,160.9844 L458.4688,163.7031 Q457.8438,163.125 457.25,162.8594 Q456.6563,162.5781 456.0313,162.5781 Q454.6875,162.5781 454,163.6563 Q453.3125,164.7188 453.3125,166.8125 Q453.3125,168.9063 454,169.9844 Q454.6875,171.0469 456.0313,171.0469 Q456.6563,171.0469 457.25,170.7813 Q457.8438,170.5 458.4688,169.9219 L458.4688,172.6406 Z "/><text fill="#000000" font-family="sans-serif" font-size="12" lengthAdjust="spacingAndGlyphs" textLength="27" x="469.5" y="171.1543">Xcar</text><line style="stroke: #A80036; stroke-width: 1.5;" x1="441.5" x2="498.5" y1="183" y2="183"/><line style="stroke: #A80036; stroke-width: 1.5;" x1="441.5" x2="498.5" y1="191" y2="191"/><!--class scjp.exam.YCar--><rect fill="#FEFECE" filter="url(#f8f564cxouaf4)" height="48" id="scjp.exam.YCar" style="stroke: #A80036; stroke-width: 1.5;" width="60" x="440" y="43"/><ellipse cx="455" cy="59" fill="#ADD1B2" rx="11" ry="11" style="stroke: #A80036; stroke-width: 1.0;"/><path d="M457.9688,64.6406 Q457.3906,64.9375 456.75,65.0781 Q456.1094,65.2344 455.4063,65.2344 Q452.9063,65.2344 451.5781,63.5938 Q450.2656,61.9375 450.2656,58.8125 Q450.2656,55.6875 451.5781,54.0313 Q452.9063,52.375 455.4063,52.375 Q456.1094,52.375 456.75,52.5313 Q457.4063,52.6875 457.9688,52.9844 L457.9688,55.7031 Q457.3438,55.125 456.75,54.8594 Q456.1563,54.5781 455.5313,54.5781 Q454.1875,54.5781 453.5,55.6563 Q452.8125,56.7188 452.8125,58.8125 Q452.8125,60.9063 453.5,61.9844 Q454.1875,63.0469 455.5313,63.0469 Q456.1563,63.0469 456.75,62.7813 Q457.3438,62.5 457.9688,61.9219 L457.9688,64.6406 Z "/><text fill="#000000" font-family="sans-serif" font-size="12" lengthAdjust="spacingAndGlyphs" textLength="28" x="469" y="63.1543">YCar</text><line style="stroke: #A80036; stroke-width: 1.5;" x1="441" x2="499" y1="75" y2="75"/><line style="stroke: #A80036; stroke-width: 1.5;" x1="441" x2="499" y1="83" y2="83"/><!--link scjp.Java1 to scjp.exam.stuff.SmallTea--><path d="M200,91.2373 C200,102.9099 200,117.2806 200,130.8027 " fill="none" id="scjp.Java1-scjp.exam.stuff.SmallTea" style="stroke: #A80036; stroke-width: 1.0;"/><polygon fill="none" points="207.0001,130.8436,200,150.8436,193.0001,130.8436,207.0001,130.8436" style="stroke: #A80036; stroke-width: 1.0;"/><!--link scjp.cert.Beverage to scjp.exam.stuff.Car--><path d="M121.5511,383.2332 C176.5152,372.7279 270.7875,351.0387 345,315 C345.0929,314.9549 345.1859,314.9095 345.2788,314.864 " fill="none" id="scjp.cert.Beverage-scjp.exam.stuff.Car" style="stroke: #A80036; stroke-width: 1.0;"/><polygon fill="none" points="341.7346,308.8273,362.4894,304.5566,348.9278,320.8381,341.7346,308.8273" style="stroke: #A80036; stroke-width: 1.0;"/><!--link scjp.cert.TestMyAge to scjp.cert.Beverage--><path d="M72.8977,307.2373 C73.33,318.9099 73.8622,333.2806 74.3631,346.8027 " fill="none" id="scjp.cert.TestMyAge-scjp.cert.Beverage" style="stroke: #A80036; stroke-width: 1.0;"/><polygon fill="none" points="81.3602,346.5982,75.1053,366.8436,67.3698,347.1164,81.3602,346.5982" style="stroke: #A80036; stroke-width: 1.0;"/><!--link scjp.exam.Xcar to scjp.exam.stuff.Car--><path d="M451.822,199.2373 C442.2339,212.0215 430.2183,228.0423 419.27,242.64 " fill="none" id="scjp.exam.Xcar-scjp.exam.stuff.Car" style="stroke: #A80036; stroke-width: 1.0;"/><polygon fill="none" points="424.7174,247.0436,407.1173,258.8436,413.5173,238.6436,424.7174,247.0436" style="stroke: #A80036; stroke-width: 1.0;"/><!--link scjp.exam.YCar to scjp.exam.Xcar--><path d="M470,91.2373 C470,102.9099 470,117.2806 470,130.8027 " fill="none" id="scjp.exam.YCar-scjp.exam.Xcar" style="stroke: #A80036; stroke-width: 1.0;"/><polygon fill="none" points="477.0001,130.8436,470,150.8436,463.0001,130.8436,477.0001,130.8436" style="stroke: #A80036; stroke-width: 1.0;"/><!--link scjp.exam.stuff.SmallTea to scjp.exam.stuff.Tea--><path d="M196.4093,199.2373 C194.68,210.9099 192.551,225.2806 190.5477,238.8027 " fill="none" id="scjp.exam.stuff.SmallTea-scjp.exam.stuff.Tea" style="stroke: #A80036; stroke-width: 1.0;"/><polygon fill="none" points="197.4342,240.0854,187.5787,258.8436,183.5854,238.0336,197.4342,240.0854" style="stroke: #A80036; stroke-width: 1.0;"/><!--link scjp.exam.stuff.Tea to scjp.cert.Beverage--><path d="M159.7627,307.2373 C146.4226,320.5774 129.5585,337.4415 114.4644,352.5356 " fill="none" id="scjp.exam.stuff.Tea-scjp.cert.Beverage" style="stroke: #A80036; stroke-width: 1.0;"/><polygon fill="none" points="119.2483,357.6512,100.1564,366.8436,109.3488,347.7517,119.2483,357.6512" style="stroke: #A80036; stroke-width: 1.0;"/><!--link scjp.exam.stuff.Tea2 to scjp.exam.stuff.Car--><path d="M352.5477,199.2373 C357.8089,211.3267 364.3296,226.3105 370.395,240.2481 " fill="none" id="scjp.exam.stuff.Tea2-scjp.exam.stuff.Car" style="stroke: #A80036; stroke-width: 1.0;"/><polygon fill="none" points="376.9252,237.7116,378.4875,258.8436,364.0881,243.2982,376.9252,237.7116" style="stroke: #A80036; stroke-width: 1.0;"/><!--link scjp.exam.stuff.Tea2 to scjp.exam.stuff.Callable--><path d="M329.6569,199.2373 C323.4295,211.4657 315.6941,226.6553 308.5273,240.7283 " fill="none" id="scjp.exam.stuff.Tea2-scjp.exam.stuff.Callable" style="stroke: #A80036; stroke-width: 1.0;"/><polygon fill="none" points="314.6157,244.1982,299.3019,258.8436,302.1403,237.8449,314.6157,244.1982" style="stroke: #A80036; stroke-width: 1.0;"/><!--
@startuml
 abstract class scjp.exam.stuff.Car
scjp.Java1 - -|> scjp.exam.stuff.SmallTea
scjp.cert.Beverage - -|> scjp.exam.stuff.Car
scjp.cert.TestMyAge - -|> scjp.cert.Beverage
scjp.exam.Xcar - -|> scjp.exam.stuff.Car
scjp.exam.YCar - -|> scjp.exam.Xcar
scjp.exam.stuff.SmallTea - -|> scjp.exam.stuff.Tea
scjp.exam.stuff.Tea - -|> scjp.cert.Beverage
scjp.exam.stuff.Tea2 - -|> scjp.exam.stuff.Car
scjp.exam.stuff.Tea2 - -|> scjp.exam.stuff.Callable
@enduml

PlantUML version 1.2018.10(Sat Aug 25 20:02:59 EEST 2018)
(GPL source distribution)
Java Runtime: OpenJDK Runtime Environment
JVM: OpenJDK 64-Bit Server VM
Java Version: 11.0.2+9-Debian-3
Operating System: Linux
OS Version: 4.19.0-kali1-amd64
Default Encoding: UTF-8
Language: en
Country: US
--></g></svg>