<?xml version="1.0" encoding="UTF-8" standalone="no"?><svg xmlns="http://www.w3.org/2000/svg" xmlns:xlink="http://www.w3.org/1999/xlink" contentScriptType="application/ecmascript" contentStyleType="text/css" height="220px" preserveAspectRatio="none" style="width:568px;height:220px;" version="1.1" viewBox="0 0 568 220" width="568px" zoomAndPan="magnify"><defs><filter height="300%" id="fu2zolrywxi87" width="300%" x="-1" y="-1"><feGaussianBlur result="blurOut" stdDeviation="2.0"/><feColorMatrix in="blurOut" result="blurOut2" type="matrix" values="0 0 0 0 0 0 0 0 0 0 0 0 0 0 0 0 0 0 .4 0"/><feOffset dx="4.0" dy="4.0" in="blurOut2" result="blurOut3"/><feBlend in="SourceGraphic" in2="blurOut3" mode="normal"/></filter></defs><g><!--MD5=[10791e4a4fa1a552707e3ba10d72d969]
cluster builder--><polygon fill="#FFFFFF" filter="url(#fu2zolrywxi87)" points="16,6,77,6,84,28.2969,551,28.2969,551,213,16,213,16,6" style="stroke: #000000; stroke-width: 1.5;"/><line style="stroke: #000000; stroke-width: 1.5;" x1="16" x2="84" y1="28.2969" y2="28.2969"/><text fill="#000000" font-family="sans-serif" font-size="14" font-weight="bold" lengthAdjust="spacingAndGlyphs" textLength="55" x="20" y="20.9951">builder</text><!--MD5=[abe4f7e648327d5965503a3371bedc76]
class builder.Director--><rect codeLine="1" fill="#FEFECE" filter="url(#fu2zolrywxi87)" height="48" id="builder.Director" style="stroke: #A80036; stroke-width: 1.5;" width="82" x="453" y="41"/><ellipse cx="468" cy="57" fill="#ADD1B2" rx="11" ry="11" style="stroke: #A80036; stroke-width: 1.0;"/><path d="M470.9688,62.6406 Q470.3906,62.9375 469.75,63.0781 Q469.1094,63.2344 468.4063,63.2344 Q465.9063,63.2344 464.5781,61.5938 Q463.2656,59.9375 463.2656,56.8125 Q463.2656,53.6875 464.5781,52.0313 Q465.9063,50.375 468.4063,50.375 Q469.1094,50.375 469.75,50.5313 Q470.4063,50.6875 470.9688,50.9844 L470.9688,53.7031 Q470.3438,53.125 469.75,52.8594 Q469.1563,52.5781 468.5313,52.5781 Q467.1875,52.5781 466.5,53.6563 Q465.8125,54.7188 465.8125,56.8125 Q465.8125,58.9063 466.5,59.9844 Q467.1875,61.0469 468.5313,61.0469 Q469.1563,61.0469 469.75,60.7813 Q470.3438,60.5 470.9688,59.9219 L470.9688,62.6406 Z "/><text fill="#000000" font-family="sans-serif" font-size="12" lengthAdjust="spacingAndGlyphs" textLength="50" x="482" y="61.1543">Director</text><line style="stroke: #A80036; stroke-width: 1.5;" x1="454" x2="534" y1="73" y2="73"/><line style="stroke: #A80036; stroke-width: 1.5;" x1="454" x2="534" y1="81" y2="81"/><!--MD5=[1e14e81bbb920d9bd0a804d54121b3f1]
class builder.FirstBuilder--><rect codeLine="2" fill="#FEFECE" filter="url(#fu2zolrywxi87)" height="48" id="builder.FirstBuilder" style="stroke: #A80036; stroke-width: 1.5;" width="102" x="316" y="41"/><ellipse cx="331" cy="57" fill="#ADD1B2" rx="11" ry="11" style="stroke: #A80036; stroke-width: 1.0;"/><path d="M333.9688,62.6406 Q333.3906,62.9375 332.75,63.0781 Q332.1094,63.2344 331.4063,63.2344 Q328.9063,63.2344 327.5781,61.5938 Q326.2656,59.9375 326.2656,56.8125 Q326.2656,53.6875 327.5781,52.0313 Q328.9063,50.375 331.4063,50.375 Q332.1094,50.375 332.75,50.5313 Q333.4063,50.6875 333.9688,50.9844 L333.9688,53.7031 Q333.3438,53.125 332.75,52.8594 Q332.1563,52.5781 331.5313,52.5781 Q330.1875,52.5781 329.5,53.6563 Q328.8125,54.7188 328.8125,56.8125 Q328.8125,58.9063 329.5,59.9844 Q330.1875,61.0469 331.5313,61.0469 Q332.1563,61.0469 332.75,60.7813 Q333.3438,60.5 333.9688,59.9219 L333.9688,62.6406 Z "/><text fill="#000000" font-family="sans-serif" font-size="12" lengthAdjust="spacingAndGlyphs" textLength="70" x="345" y="61.1543">FirstBuilder</text><line style="stroke: #A80036; stroke-width: 1.5;" x1="317" x2="417" y1="73" y2="73"/><line style="stroke: #A80036; stroke-width: 1.5;" x1="317" x2="417" y1="81" y2="81"/><!--MD5=[cd6fd7264a3cb285fcf2191a4475632c]
class builder.MainBuilder--><rect codeLine="3" fill="#FEFECE" filter="url(#fu2zolrywxi87)" height="48" id="builder.MainBuilder" style="stroke: #A80036; stroke-width: 1.5;" width="104" x="177" y="41"/><ellipse cx="192" cy="57" fill="#ADD1B2" rx="11" ry="11" style="stroke: #A80036; stroke-width: 1.0;"/><path d="M194.9688,62.6406 Q194.3906,62.9375 193.75,63.0781 Q193.1094,63.2344 192.4063,63.2344 Q189.9063,63.2344 188.5781,61.5938 Q187.2656,59.9375 187.2656,56.8125 Q187.2656,53.6875 188.5781,52.0313 Q189.9063,50.375 192.4063,50.375 Q193.1094,50.375 193.75,50.5313 Q194.4063,50.6875 194.9688,50.9844 L194.9688,53.7031 Q194.3438,53.125 193.75,52.8594 Q193.1563,52.5781 192.5313,52.5781 Q191.1875,52.5781 190.5,53.6563 Q189.8125,54.7188 189.8125,56.8125 Q189.8125,58.9063 190.5,59.9844 Q191.1875,61.0469 192.5313,61.0469 Q193.1563,61.0469 193.75,60.7813 Q194.3438,60.5 194.9688,59.9219 L194.9688,62.6406 Z "/><text fill="#000000" font-family="sans-serif" font-size="12" lengthAdjust="spacingAndGlyphs" textLength="72" x="206" y="61.1543">MainBuilder</text><line style="stroke: #A80036; stroke-width: 1.5;" x1="178" x2="280" y1="73" y2="73"/><line style="stroke: #A80036; stroke-width: 1.5;" x1="178" x2="280" y1="81" y2="81"/><!--MD5=[238824bfe747dedc266a56b3d5574bc5]
class builder.SimpleHome--><rect codeLine="4" fill="#FEFECE" filter="url(#fu2zolrywxi87)" height="48" id="builder.SimpleHome" style="stroke: #A80036; stroke-width: 1.5;" width="109" x="32.5" y="41"/><ellipse cx="47.5" cy="57" fill="#ADD1B2" rx="11" ry="11" style="stroke: #A80036; stroke-width: 1.0;"/><path d="M50.4688,62.6406 Q49.8906,62.9375 49.25,63.0781 Q48.6094,63.2344 47.9063,63.2344 Q45.4063,63.2344 44.0781,61.5938 Q42.7656,59.9375 42.7656,56.8125 Q42.7656,53.6875 44.0781,52.0313 Q45.4063,50.375 47.9063,50.375 Q48.6094,50.375 49.25,50.5313 Q49.9063,50.6875 50.4688,50.9844 L50.4688,53.7031 Q49.8438,53.125 49.25,52.8594 Q48.6563,52.5781 48.0313,52.5781 Q46.6875,52.5781 46,53.6563 Q45.3125,54.7188 45.3125,56.8125 Q45.3125,58.9063 46,59.9844 Q46.6875,61.0469 48.0313,61.0469 Q48.6563,61.0469 49.25,60.7813 Q49.8438,60.5 50.4688,59.9219 L50.4688,62.6406 Z "/><text fill="#000000" font-family="sans-serif" font-size="12" lengthAdjust="spacingAndGlyphs" textLength="77" x="61.5" y="61.1543">SimpleHome</text><line style="stroke: #A80036; stroke-width: 1.5;" x1="33.5" x2="140.5" y1="73" y2="73"/><line style="stroke: #A80036; stroke-width: 1.5;" x1="33.5" x2="140.5" y1="81" y2="81"/><!--MD5=[f42bdd8b08f4d1ad50b9351c72c905cd]
class builder.Builder--><rect codeLine="5" fill="#FEFECE" filter="url(#fu2zolrywxi87)" height="48" id="builder.Builder" style="stroke: #A80036; stroke-width: 1.5;" width="75" x="392.5" y="149"/><ellipse cx="407.5" cy="165" fill="#B4A7E5" rx="11" ry="11" style="stroke: #A80036; stroke-width: 1.0;"/><path d="M403.4219,160.7656 L403.4219,158.6094 L410.8125,158.6094 L410.8125,160.7656 L408.3438,160.7656 L408.3438,168.8438 L410.8125,168.8438 L410.8125,171 L403.4219,171 L403.4219,168.8438 L405.8906,168.8438 L405.8906,160.7656 L403.4219,160.7656 Z "/><text fill="#000000" font-family="sans-serif" font-size="12" font-style="italic" lengthAdjust="spacingAndGlyphs" textLength="43" x="421.5" y="169.1543">Builder</text><line style="stroke: #A80036; stroke-width: 1.5;" x1="393.5" x2="466.5" y1="181" y2="181"/><line style="stroke: #A80036; stroke-width: 1.5;" x1="393.5" x2="466.5" y1="189" y2="189"/><!--MD5=[07747d56078ce603731b2ed8e2ec9b9b]
class builder.Home--><rect codeLine="6" fill="#FEFECE" filter="url(#fu2zolrywxi87)" height="48" id="builder.Home" style="stroke: #A80036; stroke-width: 1.5;" width="68" x="171" y="149"/><ellipse cx="186" cy="165" fill="#B4A7E5" rx="11" ry="11" style="stroke: #A80036; stroke-width: 1.0;"/><path d="M181.9219,160.7656 L181.9219,158.6094 L189.3125,158.6094 L189.3125,160.7656 L186.8438,160.7656 L186.8438,168.8438 L189.3125,168.8438 L189.3125,171 L181.9219,171 L181.9219,168.8438 L184.3906,168.8438 L184.3906,160.7656 L181.9219,160.7656 Z "/><text fill="#000000" font-family="sans-serif" font-size="12" font-style="italic" lengthAdjust="spacingAndGlyphs" textLength="36" x="200" y="169.1543">Home</text><line style="stroke: #A80036; stroke-width: 1.5;" x1="172" x2="238" y1="181" y2="181"/><line style="stroke: #A80036; stroke-width: 1.5;" x1="172" x2="238" y1="189" y2="189"/><!--MD5=[293be6cee8afeb266290be84678c0441]
link builder.FirstBuilder to builder.Builder--><path codeLine="7" d="M380.67,89 C387.97,101.28 397.17,116.76 405.64,131.01 " fill="none" id="builder.FirstBuilder-to-builder.Builder" style="stroke: #A80036; stroke-width: 1.0;"/><polygon fill="none" points="411.94,127.91,416.14,148.68,399.9,135.06,411.94,127.91" style="stroke: #A80036; stroke-width: 1.0;"/><!--MD5=[5557e0600b90f6ee8b2fb9f2da257141]
link builder.SimpleHome to builder.Home--><path codeLine="8" d="M112.6,89 C127.65,102.52 147.03,119.92 164.14,135.3 " fill="none" id="builder.SimpleHome-to-builder.Home" style="stroke: #A80036; stroke-width: 1.0;"/><polygon fill="none" points="168.84,130.11,179.04,148.68,159.48,140.52,168.84,130.11" style="stroke: #A80036; stroke-width: 1.0;"/><!--MD5=[1a00191b940de2ba9e27bfe30275c39e]
link builder.Director to builder.Builder--><path codeLine="9" d="M480.11,89 C470.37,105.14 457.28,126.82 446.92,143.97 " fill="none" id="builder.Director-to-builder.Builder" style="stroke: #A80036; stroke-width: 1.0;"/><polygon fill="#A80036" points="444.08,148.68,452.1626,143.0522,446.6693,144.4027,445.3189,138.9094,444.08,148.68" style="stroke: #A80036; stroke-width: 1.0;"/><!--MD5=[6bf1b0eff73030a2975a79a59b6d9da9]
link builder.FirstBuilder to builder.Home--><path codeLine="10" d="M331.85,89 C305.79,106.05 270.29,129.28 243.48,146.82 " fill="none" id="builder.FirstBuilder-to-builder.Home" style="stroke: #A80036; stroke-width: 1.0;"/><polygon fill="#A80036" points="239.25,149.59,248.9739,148.0261,243.4386,146.8595,244.6051,141.3243,239.25,149.59" style="stroke: #A80036; stroke-width: 1.0;"/><!--MD5=[e5b9c1b5a316ec17293164dc51243794]
@startuml
class builder.Director
class builder.FirstBuilder
class builder.MainBuilder
class builder.SimpleHome
interface builder.Builder
interface builder.Home
builder.FirstBuilder - -|> builder.Builder
builder.SimpleHome - -|> builder.Home
builder.Director - -> builder.Builder
builder.FirstBuilder - -> builder.Home
@enduml

PlantUML version 1.2020.18(Wed Sep 30 22:40:44 EEST 2020)
(GPL source distribution)
Java Runtime: OpenJDK Runtime Environment
JVM: OpenJDK 64-Bit Server VM
Default Encoding: UTF-8
Language: en
Country: US
--></g></svg>