<?xml version="1.0" encoding="UTF-8" standalone="yes"?><svg xmlns="http://www.w3.org/2000/svg" xmlns:xlink="http://www.w3.org/1999/xlink" height="693pt" style="width:1217px;height:693px;" version="1.1" viewBox="0 0 1217 693" width="1217pt"><defs/><g><text fill="#000000" font-size="18" lengthAdjust="spacingAndGlyphs" textLength="206" x="514" y="18">compound pattern objects</text><ellipse cx="361" cy="49.6406" fill="#000000" rx="10" ry="10" style="stroke: none; stroke-width: 1.0;"/><rect fill="#FEFECE" height="37.6094" rx="12.5" ry="12.5" style="stroke: #A80036; stroke-width: 1.5;" width="187" x="267.75" y="108.6406"/><text fill="#000000" font-size="14" font-weight="bold" lengthAdjust="spacingAndGlyphs" textLength="167" x="277.75" y="132.6406">CountingDuckFactory20</text><rect fill="#FEFECE" height="37.6094" rx="12.5" ry="12.5" style="stroke: #A80036; stroke-width: 1.5;" width="137" x="301.75" y="186.6406"/><text fill="#000000" font-size="14" font-weight="bold" lengthAdjust="spacingAndGlyphs" textLength="117" x="311.75" y="210.6406">QuackCounter23</text><rect fill="#FEFECE" height="37.6094" rx="12.5" ry="12.5" style="stroke: #A80036; stroke-width: 1.5;" width="134" x="214" y="264.6406"/><text fill="#000000" font-size="14" font-weight="bold" lengthAdjust="spacingAndGlyphs" textLength="114" x="224" y="288.6406">RedheadDuck29</text><rect fill="#FEFECE" height="37.6094" rx="12.5" ry="12.5" style="stroke: #A80036; stroke-width: 1.5;" width="118" x="222" y="342.6406"/><text fill="#000000" font-size="14" font-weight="bold" lengthAdjust="spacingAndGlyphs" textLength="98" x="232" y="366.6406">Observable31</text><rect fill="#FEFECE" height="37.6094" rx="12.5" ry="12.5" style="stroke: #A80036; stroke-width: 1.5;" width="97" x="289.75" y="498.6406"/><text fill="#000000" font-size="14" font-weight="bold" lengthAdjust="spacingAndGlyphs" textLength="77" x="299.75" y="522.6406">ArrayList33</text><rect fill="#FEFECE" height="37.6094" rx="12.5" ry="12.5" style="stroke: #A80036; stroke-width: 1.5;" width="128" x="536" y="654.6406"/><text fill="#000000" font-size="14" font-weight="bold" lengthAdjust="spacingAndGlyphs" textLength="108" x="546" y="678.6406">Quackologist91</text><rect fill="#FEFECE" height="37.6094" rx="12.5" ry="12.5" style="stroke: #A80036; stroke-width: 1.5;" width="137" x="144.75" y="186.6406"/><text fill="#000000" font-size="14" font-weight="bold" lengthAdjust="spacingAndGlyphs" textLength="117" x="154.75" y="210.6406">QuackCounter27</text><rect fill="#FEFECE" height="37.6094" rx="12.5" ry="12.5" style="stroke: #A80036; stroke-width: 1.5;" width="97" x="96.75" y="264.6406"/><text fill="#000000" font-size="14" font-weight="bold" lengthAdjust="spacingAndGlyphs" textLength="77" x="106.75" y="288.6406">DuckCall46</text><rect fill="#FEFECE" height="37.6094" rx="12.5" ry="12.5" style="stroke: #A80036; stroke-width: 1.5;" width="118" x="6" y="186.6406"/><text fill="#000000" font-size="14" font-weight="bold" lengthAdjust="spacingAndGlyphs" textLength="98" x="16" y="210.6406">Observable48</text><rect fill="#FEFECE" height="37.6094" rx="12.5" ry="12.5" style="stroke: #A80036; stroke-width: 1.5;" width="97" x="136.75" y="576.6406"/><text fill="#000000" font-size="14" font-weight="bold" lengthAdjust="spacingAndGlyphs" textLength="77" x="146.75" y="600.6406">ArrayList49</text><rect fill="#FEFECE" height="37.6094" rx="12.5" ry="12.5" style="stroke: #A80036; stroke-width: 1.5;" width="137" x="458.75" y="186.6406"/><text fill="#000000" font-size="14" font-weight="bold" lengthAdjust="spacingAndGlyphs" textLength="117" x="468.75" y="210.6406">QuackCounter28</text><rect fill="#FEFECE" height="37.6094" rx="12.5" ry="12.5" style="stroke: #A80036; stroke-width: 1.5;" width="123" x="368.75" y="264.6406"/><text fill="#000000" font-size="14" font-weight="bold" lengthAdjust="spacingAndGlyphs" textLength="103" x="378.75" y="288.6406">RubberDuck51</text><rect fill="#FEFECE" height="37.6094" rx="12.5" ry="12.5" style="stroke: #A80036; stroke-width: 1.5;" width="126" x="367" y="342.6406"/><text fill="#000000" font-size="14" font-weight="bold" lengthAdjust="spacingAndGlyphs" textLength="106" x="377" y="366.6406">Observable109</text><rect fill="#FEFECE" height="37.6094" rx="12.5" ry="12.5" style="stroke: #A80036; stroke-width: 1.5;" width="105" x="350.75" y="420.6406"/><text fill="#000000" font-size="14" font-weight="bold" lengthAdjust="spacingAndGlyphs" textLength="85" x="360.75" y="444.6406">ArrayList112</text><rect fill="#FEFECE" height="37.6094" rx="12.5" ry="12.5" style="stroke: #A80036; stroke-width: 1.5;" width="137" x="615.75" y="186.6406"/><text fill="#000000" font-size="14" font-weight="bold" lengthAdjust="spacingAndGlyphs" textLength="117" x="625.75" y="210.6406">GooseAdapter53</text><rect fill="#FEFECE" height="37.6094" rx="12.5" ry="12.5" style="stroke: #A80036; stroke-width: 1.5;" width="90" x="512" y="264.6406"/><text fill="#000000" font-size="14" font-weight="bold" lengthAdjust="spacingAndGlyphs" textLength="70" x="522" y="288.6406">Goose121</text><rect fill="#FEFECE" height="37.6094" rx="12.5" ry="12.5" style="stroke: #A80036; stroke-width: 1.5;" width="126" x="622" y="264.6406"/><text fill="#000000" font-size="14" font-weight="bold" lengthAdjust="spacingAndGlyphs" textLength="106" x="632" y="288.6406">Observable123</text><rect fill="#FEFECE" height="37.6094" rx="12.5" ry="12.5" style="stroke: #A80036; stroke-width: 1.5;" width="105" x="475.75" y="420.6406"/><text fill="#000000" font-size="14" font-weight="bold" lengthAdjust="spacingAndGlyphs" textLength="85" x="485.75" y="444.6406">ArrayList124</text><rect fill="#FEFECE" height="37.6094" rx="12.5" ry="12.5" style="stroke: #A80036; stroke-width: 1.5;" width="74" x="490" y="30.6406"/><text fill="#000000" font-size="14" font-weight="bold" lengthAdjust="spacingAndGlyphs" textLength="54" x="500" y="54.6406">Flock98</text><rect fill="#FEFECE" height="37.6094" rx="12.5" ry="12.5" style="stroke: #A80036; stroke-width: 1.5;" width="105" x="474.75" y="108.6406"/><text fill="#000000" font-size="14" font-weight="bold" lengthAdjust="spacingAndGlyphs" textLength="85" x="484.75" y="132.6406">ArrayList130</text><rect fill="#FEFECE" height="37.6094" rx="12.5" ry="12.5" style="stroke: #A80036; stroke-width: 1.5;" width="82" x="776" y="186.6406"/><text fill="#000000" font-size="14" font-weight="bold" lengthAdjust="spacingAndGlyphs" textLength="62" x="786" y="210.6406">Flock100</text><rect fill="#FEFECE" height="37.6094" rx="12.5" ry="12.5" style="stroke: #A80036; stroke-width: 1.5;" width="105" x="768.75" y="264.6406"/><text fill="#000000" font-size="14" font-weight="bold" lengthAdjust="spacingAndGlyphs" textLength="85" x="778.75" y="288.6406">ArrayList190</text><rect fill="#FEFECE" height="37.6094" rx="12.5" ry="12.5" style="stroke: #A80036; stroke-width: 1.5;" width="145" x="576.75" y="342.6406"/><text fill="#000000" font-size="14" font-weight="bold" lengthAdjust="spacingAndGlyphs" textLength="125" x="586.75" y="366.6406">QuackCounter101</text><rect fill="#FEFECE" height="37.6094" rx="12.5" ry="12.5" style="stroke: #A80036; stroke-width: 1.5;" width="145" x="741.75" y="342.6406"/><text fill="#000000" font-size="14" font-weight="bold" lengthAdjust="spacingAndGlyphs" textLength="125" x="751.75" y="366.6406">QuackCounter102</text><rect fill="#FEFECE" height="37.6094" rx="12.5" ry="12.5" style="stroke: #A80036; stroke-width: 1.5;" width="145" x="906.75" y="342.6406"/><text fill="#000000" font-size="14" font-weight="bold" lengthAdjust="spacingAndGlyphs" textLength="125" x="916.75" y="366.6406">QuackCounter139</text><rect fill="#FEFECE" height="37.6094" rx="12.5" ry="12.5" style="stroke: #A80036; stroke-width: 1.5;" width="145" x="1071.75" y="342.6406"/><text fill="#000000" font-size="14" font-weight="bold" lengthAdjust="spacingAndGlyphs" textLength="125" x="1081.75" y="366.6406">QuackCounter141</text><rect fill="#FEFECE" height="37.6094" rx="12.5" ry="12.5" style="stroke: #A80036; stroke-width: 1.5;" width="131" x="600.75" y="420.6406"/><text fill="#000000" font-size="14" font-weight="bold" lengthAdjust="spacingAndGlyphs" textLength="111" x="610.75" y="444.6406">MallardDuck194</text><rect fill="#FEFECE" height="37.6094" rx="12.5" ry="12.5" style="stroke: #A80036; stroke-width: 1.5;" width="126" x="603" y="498.6406"/><text fill="#000000" font-size="14" font-weight="bold" lengthAdjust="spacingAndGlyphs" textLength="106" x="613" y="522.6406">Observable198</text><rect fill="#FEFECE" height="37.6094" rx="12.5" ry="12.5" style="stroke: #A80036; stroke-width: 1.5;" width="131" x="751.75" y="420.6406"/><text fill="#000000" font-size="14" font-weight="bold" lengthAdjust="spacingAndGlyphs" textLength="111" x="761.75" y="444.6406">MallardDuck211</text><rect fill="#FEFECE" height="37.6094" rx="12.5" ry="12.5" style="stroke: #A80036; stroke-width: 1.5;" width="126" x="754" y="498.6406"/><text fill="#000000" font-size="14" font-weight="bold" lengthAdjust="spacingAndGlyphs" textLength="106" x="764" y="522.6406">Observable214</text><rect fill="#FEFECE" height="37.6094" rx="12.5" ry="12.5" style="stroke: #A80036; stroke-width: 1.5;" width="105" x="743.75" y="576.6406"/><text fill="#000000" font-size="14" font-weight="bold" lengthAdjust="spacingAndGlyphs" textLength="85" x="753.75" y="600.6406">ArrayList215</text><rect fill="#FEFECE" height="37.6094" rx="12.5" ry="12.5" style="stroke: #A80036; stroke-width: 1.5;" width="131" x="909.75" y="420.6406"/><text fill="#000000" font-size="14" font-weight="bold" lengthAdjust="spacingAndGlyphs" textLength="111" x="919.75" y="444.6406">MallardDuck224</text><rect fill="#FEFECE" height="37.6094" rx="12.5" ry="12.5" style="stroke: #A80036; stroke-width: 1.5;" width="126" x="912" y="498.6406"/><text fill="#000000" font-size="14" font-weight="bold" lengthAdjust="spacingAndGlyphs" textLength="106" x="922" y="522.6406">Observable226</text><rect fill="#FEFECE" height="37.6094" rx="12.5" ry="12.5" style="stroke: #A80036; stroke-width: 1.5;" width="105" x="895.75" y="576.6406"/><text fill="#000000" font-size="14" font-weight="bold" lengthAdjust="spacingAndGlyphs" textLength="85" x="905.75" y="600.6406">ArrayList227</text><rect fill="#FEFECE" height="37.6094" rx="12.5" ry="12.5" style="stroke: #A80036; stroke-width: 1.5;" width="131" x="1070.75" y="420.6406"/><text fill="#000000" font-size="14" font-weight="bold" lengthAdjust="spacingAndGlyphs" textLength="111" x="1080.75" y="444.6406">MallardDuck234</text><rect fill="#FEFECE" height="37.6094" rx="12.5" ry="12.5" style="stroke: #A80036; stroke-width: 1.5;" width="126" x="1073" y="498.6406"/><text fill="#000000" font-size="14" font-weight="bold" lengthAdjust="spacingAndGlyphs" textLength="106" x="1083" y="522.6406">Observable237</text><rect fill="#FEFECE" height="37.6094" rx="12.5" ry="12.5" style="stroke: #A80036; stroke-width: 1.5;" width="105" x="1051.75" y="576.6406"/><text fill="#000000" font-size="14" font-weight="bold" lengthAdjust="spacingAndGlyphs" textLength="85" x="1061.75" y="600.6406">ArrayList238</text><rect fill="#FEFECE" height="37.6094" rx="12.5" ry="12.5" style="stroke: #A80036; stroke-width: 1.5;" width="105" x="597.75" y="576.6406"/><text fill="#000000" font-size="14" font-weight="bold" lengthAdjust="spacingAndGlyphs" textLength="85" x="607.75" y="600.6406">ArrayList200</text><path d="M361,59.6576 C361,70.3026 361,88.4206 361,103.1306 " fill="none" style="stroke: #0000FF; stroke-width: 1.0;"/><polygon fill="#0000FF" points="361,108.3766,365,99.3766,361,103.3766,357,99.3766,361,108.3766" style="stroke: #0000FF; stroke-width: 1.0;"/><path d="M348.908,224.6516 C336.144,235.5516 319.788,249.5186 306.326,261.0136 " fill="none" style="stroke: #0000FF; stroke-width: 1.0;"/><polygon fill="#0000FF" points="302.249,264.4956,311.6908,261.6934,306.0514,261.2488,306.4959,255.6095,302.249,264.4956" style="stroke: #0000FF; stroke-width: 1.0;"/><path d="M274.511,302.6516 C273.346,313.0816 273.188,326.3196 274.036,337.5136 " fill="none" style="stroke: #0000FF; stroke-width: 1.0;"/><polygon fill="#0000FF" points="274.496,342.4956,277.6512,333.1659,274.0361,337.5168,269.6852,333.9017,274.496,342.4956" style="stroke: #0000FF; stroke-width: 1.0;"/><path d="M287.504,342.4956 C288.65,332.1356 288.807,319.0386 287.976,307.9266 " fill="none" style="stroke: #0000FF; stroke-width: 1.0;"/><polygon fill="#0000FF" points="287.489,302.6516,284.334,311.9815,287.949,307.6304,292.3001,311.2454,287.489,302.6516" style="stroke: #0000FF; stroke-width: 1.0;"/><path d="M287.762,380.9116 C298.176,409.0446 318.121,462.9316 329.497,493.6676 " fill="none" style="stroke: #0000FF; stroke-width: 1.0;"/><polygon fill="#0000FF" points="331.246,498.3936,331.8736,488.5648,329.5106,493.7045,324.3709,491.3414,331.246,498.3936" style="stroke: #0000FF; stroke-width: 1.0;"/><path d="M356.5,536.9106 C378.487,557.8556 416.999,592.1806 455,614.6406 C481.038,630.0305 511.918,643.0214 538.475,652.7816 " fill="none" style="stroke: #0000FF; stroke-width: 1.0;"/><polygon fill="#0000FF" points="543.381,654.5663,536.2898,647.7315,538.682,652.8577,533.5559,655.2499,543.381,654.5663" style="stroke: #0000FF; stroke-width: 1.0;"/><path d="M196.885,224.6516 C187.217,235.4576 174.851,249.2776 164.617,260.7156 " fill="none" style="stroke: #0000FF; stroke-width: 1.0;"/><polygon fill="#0000FF" points="161.235,264.4956,170.2176,260.4566,164.5694,260.7698,164.2562,255.1216,161.235,264.4956" style="stroke: #0000FF; stroke-width: 1.0;"/><path d="M132.404,264.4956 C122.112,253.5706 107.517,239.6016 94.4481,228.1266 " fill="none" style="stroke: #0000FF; stroke-width: 1.0;"/><polygon fill="#0000FF" points="90.4477,224.6516,94.6185,233.5738,94.2222,227.9308,99.8652,227.5346,90.4477,224.6516" style="stroke: #0000FF; stroke-width: 1.0;"/><path d="M77.4701,224.6516 C87.7261,235.5516 102.3099,249.5186 115.391,261.0136 " fill="none" style="stroke: #0000FF; stroke-width: 1.0;"/><polygon fill="#0000FF" points="119.396,264.4956,115.2283,255.5721,115.6226,261.2152,109.9795,261.6095,119.396,264.4956" style="stroke: #0000FF; stroke-width: 1.0;"/><path d="M65,224.6596 C65,253.4116 65,311.4466 65,360.6406 C65,360.6406 65,360.6406 65,440.6406 C65,498.1276 117.672,547.0376 153.224,573.5026 " fill="none" style="stroke: #0000FF; stroke-width: 1.0;"/><polygon fill="#0000FF" points="157.47,576.6176,152.5789,568.0691,153.4383,573.6603,147.8472,574.5198,157.47,576.6176" style="stroke: #0000FF; stroke-width: 1.0;"/><path d="M233.418,605.5075 C306.896,618.9637 446.886,644.6004 530.999,660.0043 " fill="none" style="stroke: #0000FF; stroke-width: 1.0;"/><polygon fill="#0000FF" points="535.959,660.9125,527.8276,655.3555,531.0409,660.0111,526.3853,663.2244,535.959,660.9125" style="stroke: #0000FF; stroke-width: 1.0;"/><path d="M504.012,224.6516 C489.981,235.6456 471.967,249.7596 457.224,261.3106 " fill="none" style="stroke: #0000FF; stroke-width: 1.0;"/><polygon fill="#0000FF" points="453.159,264.4956,462.7102,262.0926,457.0945,261.4115,457.7756,255.7958,453.159,264.4956" style="stroke: #0000FF; stroke-width: 1.0;"/><path d="M423.511,302.6516 C422.346,313.0816 422.188,326.3196 423.036,337.5136 " fill="none" style="stroke: #0000FF; stroke-width: 1.0;"/><polygon fill="#0000FF" points="423.496,342.4956,426.6512,333.1659,423.0361,337.5168,418.6852,333.9017,423.496,342.4956" style="stroke: #0000FF; stroke-width: 1.0;"/><path d="M436.504,342.4956 C437.65,332.1356 437.807,319.0386 436.976,307.9266 " fill="none" style="stroke: #0000FF; stroke-width: 1.0;"/><polygon fill="#0000FF" points="436.489,302.6516,433.334,311.9815,436.949,307.6304,441.3001,311.2454,436.489,302.6516" style="stroke: #0000FF; stroke-width: 1.0;"/><path d="M423.601,380.6516 C419.896,391.0816 415.193,404.3196 411.216,415.5136 " fill="none" style="stroke: #0000FF; stroke-width: 1.0;"/><polygon fill="#0000FF" points="409.446,420.4956,416.2268,413.3528,411.119,415.7838,408.6879,410.676,409.446,420.4956" style="stroke: #0000FF; stroke-width: 1.0;"/><path d="M418.458,458.8456 C454.206,500.9436 542.483,604.9054 581.242,650.5503 " fill="none" style="stroke: #0000FF; stroke-width: 1.0;"/><polygon fill="#0000FF" points="584.614,654.5205,581.8377,645.0711,581.3777,650.7092,575.7395,650.2492,584.614,654.5205" style="stroke: #0000FF; stroke-width: 1.0;"/><path d="M653.903,224.6516 C635.218,235.8326 611.139,250.2426 591.658,261.9006 " fill="none" style="stroke: #0000FF; stroke-width: 1.0;"/><polygon fill="#0000FF" points="587.321,264.4956,597.0978,263.3066,591.6115,261.9282,592.9899,256.4419,587.321,264.4956" style="stroke: #0000FF; stroke-width: 1.0;"/><path d="M677.748,224.6516 C676.721,235.0816 676.736,248.3196 677.732,259.5136 " fill="none" style="stroke: #0000FF; stroke-width: 1.0;"/><polygon fill="#0000FF" points="678.258,264.4956,681.2923,255.1258,677.7338,259.5232,673.3364,255.9646,678.258,264.4956" style="stroke: #0000FF; stroke-width: 1.0;"/><path d="M691.265,264.4956 C692.284,254.0416 692.259,240.8006 691.256,229.6236 " fill="none" style="stroke: #0000FF; stroke-width: 1.0;"/><polygon fill="#0000FF" points="690.726,224.6516,687.7023,234.0249,691.2559,229.6235,695.6573,233.177,690.726,224.6516" style="stroke: #0000FF; stroke-width: 1.0;"/><path d="M628.227,302.6776 C606.775,311.8256 583.57,324.8516 567,342.6406 C547.816,363.2366 537.514,394.5146 532.403,415.7256 " fill="none" style="stroke: #0000FF; stroke-width: 1.0;"/><polygon fill="#0000FF" points="531.272,420.6226,537.1957,412.7543,532.3978,415.751,529.4011,410.9531,531.272,420.6226" style="stroke: #0000FF; stroke-width: 1.0;"/><path d="M533.65,458.8456 C546.636,500.6896 578.59,603.6526 592.886,649.7174 " fill="none" style="stroke: #0000FF; stroke-width: 1.0;"/><polygon fill="#0000FF" points="594.377,654.5205,595.5299,644.7394,592.8951,649.7452,587.8893,647.1104,594.377,654.5205" style="stroke: #0000FF; stroke-width: 1.0;"/><path d="M527,68.6516 C527,78.9876 527,92.0816 527,103.2106 " fill="none" style="stroke: #0000FF; stroke-width: 1.0;"/><polygon fill="#0000FF" points="527,108.4956,531,99.4956,527,103.4956,523,99.4956,527,108.4956" style="stroke: #0000FF; stroke-width: 1.0;"/><path d="M489.793,146.6516 C466.415,157.9686 436.207,172.5916 411.974,184.3216 " fill="none" style="stroke: #0000FF; stroke-width: 1.0;"/><polygon fill="#0000FF" points="407.211,186.6276,417.0546,186.3062,411.7113,184.4489,413.5686,179.1056,407.211,186.6276" style="stroke: #0000FF; stroke-width: 1.0;"/><path d="M474.46,143.8696 C470.926,144.8266 467.414,145.7586 464,146.6406 C461.786,147.2126 359.925,170.7336 286.662,187.6426 " fill="none" style="stroke: #0000FF; stroke-width: 1.0;"/><polygon fill="#0000FF" points="281.439,188.8486,291.108,190.7222,286.3109,187.7242,289.309,182.9272,281.439,188.8486" style="stroke: #0000FF; stroke-width: 1.0;"/><path d="M527,146.6516 C527,156.9876 527,170.0816 527,181.2106 " fill="none" style="stroke: #0000FF; stroke-width: 1.0;"/><polygon fill="#0000FF" points="527,186.4956,531,177.4956,527,181.4956,523,177.4956,527,186.4956" style="stroke: #0000FF; stroke-width: 1.0;"/><path d="M564.207,146.6516 C587.585,157.9686 617.793,172.5916 642.026,184.3216 " fill="none" style="stroke: #0000FF; stroke-width: 1.0;"/><polygon fill="#0000FF" points="646.789,186.6276,640.4314,179.1056,642.2887,184.4489,636.9454,186.3062,646.789,186.6276" style="stroke: #0000FF; stroke-width: 1.0;"/><path d="M579.563,140.4346 C627.385,151.4436 699.79,168.8106 762,186.6406 C764.979,187.4946 768.038,188.4036 771.116,189.3426 " fill="none" style="stroke: #0000FF; stroke-width: 1.0;"/><polygon fill="#0000FF" points="775.957,190.8396,768.5385,184.3615,771.1797,189.3639,766.1773,192.0051,775.957,190.8396" style="stroke: #0000FF; stroke-width: 1.0;"/><path d="M817.948,224.6516 C818.492,234.9876 819.181,248.0816 819.767,259.2106 " fill="none" style="stroke: #0000FF; stroke-width: 1.0;"/><polygon fill="#0000FF" points="820.045,264.4956,823.5663,255.2978,819.7821,259.5025,815.5774,255.7184,820.045,264.4956" style="stroke: #0000FF; stroke-width: 1.0;"/><path d="M780.238,302.6516 C754.52,314.0156 721.257,328.7136 694.653,340.4686 " fill="none" style="stroke: #0000FF; stroke-width: 1.0;"/><polygon fill="#0000FF" points="689.767,342.6276,699.6158,342.6511,694.3409,340.6078,696.3841,335.3329,689.767,342.6276" style="stroke: #0000FF; stroke-width: 1.0;"/><path d="M819.341,302.6516 C818.38,313.0816 817.161,326.3196 816.13,337.5136 " fill="none" style="stroke: #0000FF; stroke-width: 1.0;"/><polygon fill="#0000FF" points="815.671,342.4956,820.4794,333.9003,816.1295,337.5167,812.5131,333.1668,815.671,342.4956" style="stroke: #0000FF; stroke-width: 1.0;"/><path d="M858.444,302.6516 C881.971,313.9686 912.371,328.5916 936.758,340.3216 " fill="none" style="stroke: #0000FF; stroke-width: 1.0;"/><polygon fill="#0000FF" points="941.552,342.6276,935.1752,335.1219,937.0461,340.4604,931.7076,342.3313,941.552,342.6276" style="stroke: #0000FF; stroke-width: 1.0;"/><path d="M873.255,296.9356 C925.614,309.2556 1006.82,328.3616 1066.64,342.4386 " fill="none" style="stroke: #0000FF; stroke-width: 1.0;"/><polygon fill="#0000FF" points="1071.64,343.6136,1063.7927,337.6622,1066.7724,342.4707,1061.9639,345.4504,1071.64,343.6136" style="stroke: #0000FF; stroke-width: 1.0;"/><path d="M659.511,458.6516 C658.346,469.0816 658.188,482.3196 659.036,493.5136 " fill="none" style="stroke: #0000FF; stroke-width: 1.0;"/><polygon fill="#0000FF" points="659.496,498.4956,662.6512,489.1659,659.0361,493.5168,654.6852,489.9017,659.496,498.4956" style="stroke: #0000FF; stroke-width: 1.0;"/><path d="M810.511,458.6516 C809.346,469.0816 809.188,482.3196 810.036,493.5136 " fill="none" style="stroke: #0000FF; stroke-width: 1.0;"/><polygon fill="#0000FF" points="810.496,498.4956,813.6512,489.1659,810.0361,493.5168,805.6852,489.9017,810.496,498.4956" style="stroke: #0000FF; stroke-width: 1.0;"/><path d="M823.504,498.4956 C824.65,488.1356 824.807,475.0386 823.976,463.9266 " fill="none" style="stroke: #0000FF; stroke-width: 1.0;"/><polygon fill="#0000FF" points="823.489,458.6516,820.334,467.9815,823.949,463.6304,828.3001,467.2454,823.489,458.6516" style="stroke: #0000FF; stroke-width: 1.0;"/><path d="M812.023,536.6516 C809.141,547.0816 805.483,560.3196 802.39,571.5136 " fill="none" style="stroke: #0000FF; stroke-width: 1.0;"/><polygon fill="#0000FF" points="801.014,576.4956,807.2686,568.8877,802.347,571.6766,799.5581,566.755,801.014,576.4956" style="stroke: #0000FF; stroke-width: 1.0;"/><path d="M968.511,458.6516 C967.346,469.0816 967.188,482.3196 968.036,493.5136 " fill="none" style="stroke: #0000FF; stroke-width: 1.0;"/><polygon fill="#0000FF" points="968.496,498.4956,971.6512,489.1659,968.0361,493.5168,963.6852,489.9017,968.496,498.4956" style="stroke: #0000FF; stroke-width: 1.0;"/><path d="M981.504,498.4956 C982.65,488.1356 982.807,475.0386 981.976,463.9266 " fill="none" style="stroke: #0000FF; stroke-width: 1.0;"/><polygon fill="#0000FF" points="981.489,458.6516,978.334,467.9815,981.949,463.6304,986.3001,467.2454,981.489,458.6516" style="stroke: #0000FF; stroke-width: 1.0;"/><path d="M968.601,536.6516 C964.896,547.0816 960.193,560.3196 956.216,571.5136 " fill="none" style="stroke: #0000FF; stroke-width: 1.0;"/><polygon fill="#0000FF" points="954.446,576.4956,961.2268,569.3528,956.119,571.7838,953.6879,566.676,954.446,576.4956" style="stroke: #0000FF; stroke-width: 1.0;"/><path d="M1129.51,458.6516 C1128.35,469.0816 1128.19,482.3196 1129.04,493.5136 " fill="none" style="stroke: #0000FF; stroke-width: 1.0;"/><polygon fill="#0000FF" points="1129.5,498.4956,1132.6562,489.1662,1129.0406,493.5168,1124.6901,489.9012,1129.5,498.4956" style="stroke: #0000FF; stroke-width: 1.0;"/><path d="M1142.5,498.4956 C1143.65,488.1356 1143.81,475.0386 1142.98,463.9266 " fill="none" style="stroke: #0000FF; stroke-width: 1.0;"/><polygon fill="#0000FF" points="1142.49,458.6516,1139.3362,467.9819,1142.9507,463.6304,1147.3022,467.2448,1142.49,458.6516" style="stroke: #0000FF; stroke-width: 1.0;"/><path d="M1128.42,536.6516 C1123.99,547.1756 1118.35,560.5586 1113.61,571.8156 " fill="none" style="stroke: #0000FF; stroke-width: 1.0;"/><polygon fill="#0000FF" points="1111.64,576.4956,1118.823,569.7573,1113.583,571.8886,1111.4517,566.6486,1111.64,576.4956" style="stroke: #0000FF; stroke-width: 1.0;"/><path d="M1051.38,607.1842 C1037.91,609.754 1023.44,612.4045 1010,614.6406 C890.648,634.4979 751.016,653.3144 669.357,663.8758 " fill="none" style="stroke: #0000FF; stroke-width: 1.0;"/><polygon fill="#0000FF" points="664.063,664.5594,673.501,667.3745,669.0219,663.9194,672.477,659.4403,664.063,664.5594" style="stroke: #0000FF; stroke-width: 1.0;"/><path d="M653.029,380.6516 C655.362,391.0816 658.323,404.3196 660.827,415.5136 " fill="none" style="stroke: #0000FF; stroke-width: 1.0;"/><polygon fill="#0000FF" points="661.941,420.4956,663.8802,410.8396,660.8497,415.6162,656.0731,412.5857,661.941,420.4956" style="stroke: #0000FF; stroke-width: 1.0;"/><path d="M672.504,498.4956 C673.65,488.1356 673.807,475.0386 672.976,463.9266 " fill="none" style="stroke: #0000FF; stroke-width: 1.0;"/><polygon fill="#0000FF" points="672.489,458.6516,669.334,467.9815,672.949,463.6304,677.3001,467.2454,672.489,458.6516" style="stroke: #0000FF; stroke-width: 1.0;"/><path d="M662.208,536.6516 C660.012,547.0816 657.225,560.3196 654.869,571.5136 " fill="none" style="stroke: #0000FF; stroke-width: 1.0;"/><polygon fill="#0000FF" points="653.82,576.4956,659.5882,568.5126,654.85,571.6029,651.7598,566.8647,653.82,576.4956" style="stroke: #0000FF; stroke-width: 1.0;"/><path d="M638.151,614.6515 C631.165,625.2693 622.265,638.7978 614.818,650.1168 " fill="none" style="stroke: #0000FF; stroke-width: 1.0;"/><polygon fill="#0000FF" points="611.938,654.4956,620.2262,649.1754,614.6861,650.3185,613.5429,644.7784,611.938,654.4956" style="stroke: #0000FF; stroke-width: 1.0;"/><path d="M814.711,380.6516 C815.119,390.9876 815.636,404.0816 816.075,415.2106 " fill="none" style="stroke: #0000FF; stroke-width: 1.0;"/><polygon fill="#0000FF" points="816.284,420.4956,819.926,411.3449,816.0868,415.4995,811.9322,411.6604,816.284,420.4956" style="stroke: #0000FF; stroke-width: 1.0;"/><path d="M749.551,614.6515 C720.001,626.1097 681.709,640.9575 651.27,652.7603 " fill="none" style="stroke: #0000FF; stroke-width: 1.0;"/><polygon fill="#0000FF" points="646.455,654.6274,656.2924,655.1013,651.1165,652.8189,653.3989,647.643,646.455,654.6274" style="stroke: #0000FF; stroke-width: 1.0;"/><path d="M978.052,380.6516 C977.508,390.9876 976.819,404.0816 976.233,415.2106 " fill="none" style="stroke: #0000FF; stroke-width: 1.0;"/><polygon fill="#0000FF" points="975.955,420.4956,980.4226,411.7184,976.2179,415.5025,972.4337,411.2978,975.955,420.4956" style="stroke: #0000FF; stroke-width: 1.0;"/><path d="M895.524,608.1009 C835.196,621.276 735.939,642.9527 669.3,657.5061 " fill="none" style="stroke: #0000FF; stroke-width: 1.0;"/><polygon fill="#0000FF" points="664.16,658.6287,673.8063,660.6158,669.0448,657.5616,672.099,652.8001,664.16,658.6287" style="stroke: #0000FF; stroke-width: 1.0;"/><path d="M1142.1,380.6516 C1141.01,391.0816 1139.61,404.3196 1138.43,415.5136 " fill="none" style="stroke: #0000FF; stroke-width: 1.0;"/><polygon fill="#0000FF" points="1137.91,420.4956,1142.8318,411.9648,1138.4344,415.5232,1134.876,411.1257,1137.91,420.4956" style="stroke: #0000FF; stroke-width: 1.0;"/></g></svg>