<?xml version="1.0" encoding="UTF-8" standalone="no"?><svg xmlns="http://www.w3.org/2000/svg" xmlns:xlink="http://www.w3.org/1999/xlink" contentScriptType="application/ecmascript" contentStyleType="text/css" height="659px" preserveAspectRatio="none" style="width:1196px;height:659px;" version="1.1" viewBox="0 0 1196 659" width="1196px" zoomAndPan="magnify"><defs/><g><text fill="#000000" font-family="sans-serif" font-size="18" lengthAdjust="spacingAndGlyphs" textLength="231" x="476.25" y="16.708">compound pattern objects</text><ellipse cx="259.5" cy="44.9531" fill="#000000" rx="10" ry="10" style="stroke: none; stroke-width: 1.0;"/><rect fill="#FEFECE" height="33.9688" rx="12.5" ry="12.5" style="stroke: #A80036; stroke-width: 1.5;" width="187" x="166" y="101.9531"/><text fill="#000000" font-family="sans-serif" font-size="12" font-weight="bold" lengthAdjust="spacingAndGlyphs" textLength="167" x="176" y="123.0918">CountingDuckFactory20</text><path d="M373,106.4531 L373,114.9531 L353.02,118.9531 L373,122.9531 L373,131.5859 A0,0 0 0 0 373,131.5859 L450,131.5859 A0,0 0 0 0 450,131.5859 L450,116.4531 L440,106.4531 L373,106.4531 A0,0 0 0 0 373,106.4531 " fill="#FBFB77" style="stroke: #A80036; stroke-width: 1.0;"/><path d="M440,106.4531 L440,116.4531 L450,116.4531 L440,106.4531 " fill="#FBFB77" style="stroke: #A80036; stroke-width: 1.0;"/><text fill="#000000" font-family="sans-serif" font-size="13" lengthAdjust="spacingAndGlyphs" textLength="56" x="379" y="123.52">YAHOOO</text><rect fill="#FEFECE" height="33.9688" rx="12.5" ry="12.5" style="stroke: #A80036; stroke-width: 1.5;" width="136" x="300.5" y="175.9531"/><text fill="#000000" font-family="sans-serif" font-size="12" font-weight="bold" lengthAdjust="spacingAndGlyphs" textLength="116" x="310.5" y="197.0918">QuackCounter23</text><rect fill="#FEFECE" height="33.9688" rx="12.5" ry="12.5" style="stroke: #A80036; stroke-width: 1.5;" width="133" x="216" y="249.9531"/><text fill="#000000" font-family="sans-serif" font-size="12" font-weight="bold" lengthAdjust="spacingAndGlyphs" textLength="113" x="226" y="271.0918">RedheadDuck29</text><rect fill="#FEFECE" height="33.9688" rx="12.5" ry="12.5" style="stroke: #A80036; stroke-width: 1.5;" width="117" x="224" y="323.9531"/><text fill="#000000" font-family="sans-serif" font-size="12" font-weight="bold" lengthAdjust="spacingAndGlyphs" textLength="97" x="234" y="345.0918">Observable31</text><rect fill="#FEFECE" height="33.9688" rx="12.5" ry="12.5" style="stroke: #A80036; stroke-width: 1.5;" width="100" x="268.5" y="471.9531"/><text fill="#000000" font-family="sans-serif" font-size="12" font-weight="bold" lengthAdjust="spacingAndGlyphs" textLength="80" x="278.5" y="493.0918">ArrayList33</text><rect fill="#FEFECE" height="33.9688" rx="12.5" ry="12.5" style="stroke: #A80036; stroke-width: 1.5;" width="128" x="521.5" y="619.9531"/><text fill="#000000" font-family="sans-serif" font-size="12" font-weight="bold" lengthAdjust="spacingAndGlyphs" textLength="108" x="531.5" y="641.0918">Quackologist91</text><rect fill="#FEFECE" height="33.9688" rx="12.5" ry="12.5" style="stroke: #A80036; stroke-width: 1.5;" width="136" x="144.5" y="175.9531"/><text fill="#000000" font-family="sans-serif" font-size="12" font-weight="bold" lengthAdjust="spacingAndGlyphs" textLength="116" x="154.5" y="197.0918">QuackCounter27</text><rect fill="#FEFECE" height="33.9688" rx="12.5" ry="12.5" style="stroke: #A80036; stroke-width: 1.5;" width="96" x="96.5" y="249.9531"/><text fill="#000000" font-family="sans-serif" font-size="12" font-weight="bold" lengthAdjust="spacingAndGlyphs" textLength="76" x="106.5" y="271.0918">DuckCall46</text><rect fill="#FEFECE" height="33.9688" rx="12.5" ry="12.5" style="stroke: #A80036; stroke-width: 1.5;" width="117" x="7" y="175.9531"/><text fill="#000000" font-family="sans-serif" font-size="12" font-weight="bold" lengthAdjust="spacingAndGlyphs" textLength="97" x="17" y="197.0918">Observable48</text><rect fill="#FEFECE" height="33.9688" rx="12.5" ry="12.5" style="stroke: #A80036; stroke-width: 1.5;" width="100" x="67.5" y="471.9531"/><text fill="#000000" font-family="sans-serif" font-size="12" font-weight="bold" lengthAdjust="spacingAndGlyphs" textLength="80" x="77.5" y="493.0918">ArrayList49</text><rect fill="#FEFECE" height="33.9688" rx="12.5" ry="12.5" style="stroke: #A80036; stroke-width: 1.5;" width="136" x="456.5" y="175.9531"/><text fill="#000000" font-family="sans-serif" font-size="12" font-weight="bold" lengthAdjust="spacingAndGlyphs" textLength="116" x="466.5" y="197.0918">QuackCounter28</text><rect fill="#FEFECE" height="33.9688" rx="12.5" ry="12.5" style="stroke: #A80036; stroke-width: 1.5;" width="121" x="369" y="249.9531"/><text fill="#000000" font-family="sans-serif" font-size="12" font-weight="bold" lengthAdjust="spacingAndGlyphs" textLength="101" x="379" y="271.0918">RubberDuck51</text><rect fill="#FEFECE" height="33.9688" rx="12.5" ry="12.5" style="stroke: #A80036; stroke-width: 1.5;" width="125" x="367" y="323.9531"/><text fill="#000000" font-family="sans-serif" font-size="12" font-weight="bold" lengthAdjust="spacingAndGlyphs" textLength="105" x="377" y="345.0918">Observable109</text><rect fill="#FEFECE" height="33.9688" rx="12.5" ry="12.5" style="stroke: #A80036; stroke-width: 1.5;" width="108" x="376.5" y="397.9531"/><text fill="#000000" font-family="sans-serif" font-size="12" font-weight="bold" lengthAdjust="spacingAndGlyphs" textLength="88" x="386.5" y="419.0918">ArrayList112</text><rect fill="#FEFECE" height="33.9688" rx="12.5" ry="12.5" style="stroke: #A80036; stroke-width: 1.5;" width="138" x="612.5" y="175.9531"/><text fill="#000000" font-family="sans-serif" font-size="12" font-weight="bold" lengthAdjust="spacingAndGlyphs" textLength="118" x="622.5" y="197.0918">GooseAdapter53</text><rect fill="#FEFECE" height="33.9688" rx="12.5" ry="12.5" style="stroke: #A80036; stroke-width: 1.5;" width="89" x="510" y="249.9531"/><text fill="#000000" font-family="sans-serif" font-size="12" font-weight="bold" lengthAdjust="spacingAndGlyphs" textLength="69" x="520" y="271.0918">Goose121</text><rect fill="#FEFECE" height="33.9688" rx="12.5" ry="12.5" style="stroke: #A80036; stroke-width: 1.5;" width="125" x="619" y="249.9531"/><text fill="#000000" font-family="sans-serif" font-size="12" font-weight="bold" lengthAdjust="spacingAndGlyphs" textLength="105" x="629" y="271.0918">Observable123</text><rect fill="#FEFECE" height="33.9688" rx="12.5" ry="12.5" style="stroke: #A80036; stroke-width: 1.5;" width="108" x="467.5" y="545.9531"/><text fill="#000000" font-family="sans-serif" font-size="12" font-weight="bold" lengthAdjust="spacingAndGlyphs" textLength="88" x="477.5" y="567.0918">ArrayList124</text><rect fill="#FEFECE" height="33.9688" rx="12.5" ry="12.5" style="stroke: #A80036; stroke-width: 1.5;" width="72" x="488.5" y="27.9531"/><text fill="#000000" font-family="sans-serif" font-size="12" font-weight="bold" lengthAdjust="spacingAndGlyphs" textLength="52" x="498.5" y="49.0918">Flock98</text><rect fill="#FEFECE" height="33.9688" rx="12.5" ry="12.5" style="stroke: #A80036; stroke-width: 1.5;" width="108" x="470.5" y="101.9531"/><text fill="#000000" font-family="sans-serif" font-size="12" font-weight="bold" lengthAdjust="spacingAndGlyphs" textLength="88" x="480.5" y="123.0918">ArrayList130</text><rect fill="#FEFECE" height="33.9688" rx="12.5" ry="12.5" style="stroke: #A80036; stroke-width: 1.5;" width="80" x="774.5" y="175.9531"/><text fill="#000000" font-family="sans-serif" font-size="12" font-weight="bold" lengthAdjust="spacingAndGlyphs" textLength="60" x="784.5" y="197.0918">Flock100</text><rect fill="#FEFECE" height="33.9688" rx="12.5" ry="12.5" style="stroke: #A80036; stroke-width: 1.5;" width="108" x="764.5" y="249.9531"/><text fill="#000000" font-family="sans-serif" font-size="12" font-weight="bold" lengthAdjust="spacingAndGlyphs" textLength="88" x="774.5" y="271.0918">ArrayList190</text><rect fill="#FEFECE" height="33.9688" rx="12.5" ry="12.5" style="stroke: #A80036; stroke-width: 1.5;" width="144" x="554.5" y="323.9531"/><text fill="#000000" font-family="sans-serif" font-size="12" font-weight="bold" lengthAdjust="spacingAndGlyphs" textLength="124" x="564.5" y="345.0918">QuackCounter101</text><rect fill="#FEFECE" height="33.9688" rx="12.5" ry="12.5" style="stroke: #A80036; stroke-width: 1.5;" width="144" x="718.5" y="323.9531"/><text fill="#000000" font-family="sans-serif" font-size="12" font-weight="bold" lengthAdjust="spacingAndGlyphs" textLength="124" x="728.5" y="345.0918">QuackCounter102</text><rect fill="#FEFECE" height="33.9688" rx="12.5" ry="12.5" style="stroke: #A80036; stroke-width: 1.5;" width="144" x="882.5" y="323.9531"/><text fill="#000000" font-family="sans-serif" font-size="12" font-weight="bold" lengthAdjust="spacingAndGlyphs" textLength="124" x="892.5" y="345.0918">QuackCounter139</text><rect fill="#FEFECE" height="33.9688" rx="12.5" ry="12.5" style="stroke: #A80036; stroke-width: 1.5;" width="144" x="1046.5" y="323.9531"/><text fill="#000000" font-family="sans-serif" font-size="12" font-weight="bold" lengthAdjust="spacingAndGlyphs" textLength="124" x="1056.5" y="345.0918">QuackCounter141</text><rect fill="#FEFECE" height="33.9688" rx="12.5" ry="12.5" style="stroke: #A80036; stroke-width: 1.5;" width="131" x="566" y="397.9531"/><text fill="#000000" font-family="sans-serif" font-size="12" font-weight="bold" lengthAdjust="spacingAndGlyphs" textLength="111" x="576" y="419.0918">MallardDuck194</text><rect fill="#FEFECE" height="33.9688" rx="12.5" ry="12.5" style="stroke: #A80036; stroke-width: 1.5;" width="125" x="569" y="471.9531"/><text fill="#000000" font-family="sans-serif" font-size="12" font-weight="bold" lengthAdjust="spacingAndGlyphs" textLength="105" x="579" y="493.0918">Observable198</text><rect fill="#FEFECE" height="33.9688" rx="12.5" ry="12.5" style="stroke: #A80036; stroke-width: 1.5;" width="131" x="723" y="397.9531"/><text fill="#000000" font-family="sans-serif" font-size="12" font-weight="bold" lengthAdjust="spacingAndGlyphs" textLength="111" x="733" y="419.0918">MallardDuck211</text><rect fill="#FEFECE" height="33.9688" rx="12.5" ry="12.5" style="stroke: #A80036; stroke-width: 1.5;" width="125" x="726" y="471.9531"/><text fill="#000000" font-family="sans-serif" font-size="12" font-weight="bold" lengthAdjust="spacingAndGlyphs" textLength="105" x="736" y="493.0918">Observable214</text><rect fill="#FEFECE" height="33.9688" rx="12.5" ry="12.5" style="stroke: #A80036; stroke-width: 1.5;" width="108" x="731.5" y="545.9531"/><text fill="#000000" font-family="sans-serif" font-size="12" font-weight="bold" lengthAdjust="spacingAndGlyphs" textLength="88" x="741.5" y="567.0918">ArrayList215</text><rect fill="#FEFECE" height="33.9688" rx="12.5" ry="12.5" style="stroke: #A80036; stroke-width: 1.5;" width="131" x="880" y="397.9531"/><text fill="#000000" font-family="sans-serif" font-size="12" font-weight="bold" lengthAdjust="spacingAndGlyphs" textLength="111" x="890" y="419.0918">MallardDuck224</text><rect fill="#FEFECE" height="33.9688" rx="12.5" ry="12.5" style="stroke: #A80036; stroke-width: 1.5;" width="125" x="883" y="471.9531"/><text fill="#000000" font-family="sans-serif" font-size="12" font-weight="bold" lengthAdjust="spacingAndGlyphs" textLength="105" x="893" y="493.0918">Observable226</text><rect fill="#FEFECE" height="33.9688" rx="12.5" ry="12.5" style="stroke: #A80036; stroke-width: 1.5;" width="108" x="877.5" y="545.9531"/><text fill="#000000" font-family="sans-serif" font-size="12" font-weight="bold" lengthAdjust="spacingAndGlyphs" textLength="88" x="887.5" y="567.0918">ArrayList227</text><rect fill="#FEFECE" height="33.9688" rx="12.5" ry="12.5" style="stroke: #A80036; stroke-width: 1.5;" width="131" x="1041" y="397.9531"/><text fill="#000000" font-family="sans-serif" font-size="12" font-weight="bold" lengthAdjust="spacingAndGlyphs" textLength="111" x="1051" y="419.0918">MallardDuck234</text><rect fill="#FEFECE" height="33.9688" rx="12.5" ry="12.5" style="stroke: #A80036; stroke-width: 1.5;" width="125" x="1044" y="471.9531"/><text fill="#000000" font-family="sans-serif" font-size="12" font-weight="bold" lengthAdjust="spacingAndGlyphs" textLength="105" x="1054" y="493.0918">Observable237</text><rect fill="#FEFECE" height="33.9688" rx="12.5" ry="12.5" style="stroke: #A80036; stroke-width: 1.5;" width="108" x="1031.5" y="545.9531"/><text fill="#000000" font-family="sans-serif" font-size="12" font-weight="bold" lengthAdjust="spacingAndGlyphs" textLength="88" x="1041.5" y="567.0918">ArrayList238</text><rect fill="#FEFECE" height="33.9688" rx="12.5" ry="12.5" style="stroke: #A80036; stroke-width: 1.5;" width="108" x="595.5" y="545.9531"/><text fill="#000000" font-family="sans-serif" font-size="12" font-weight="bold" lengthAdjust="spacingAndGlyphs" textLength="88" x="605.5" y="567.0918">ArrayList200</text><!--MD5=[783bcc2304ceeb9ea261e14e6b26205b]
link start to CountingDuckFactory20--><path d="M259.5,55.0731 C259.5,65.4231 259.5,82.6831 259.5,96.4931 " fill="none" id="start-to-CountingDuckFactory20" style="stroke: #0000FF; stroke-width: 1.0;"/><polygon fill="#0000FF" points="259.5,101.7931,263.5,92.7931,259.5,96.7931,255.5,92.7931,259.5,101.7931" style="stroke: #0000FF; stroke-width: 1.0;"/><!--MD5=[8a4b985f264b381cc44330295da585ae]
link QuackCounter23 to RedheadDuck29--><path d="M348.99,210.2931 C336.14,221.0431 319.26,235.1731 305.73,246.5031 " fill="none" id="QuackCounter23-to-RedheadDuck29" style="stroke: #0000FF; stroke-width: 1.0;"/><polygon fill="#0000FF" points="301.64,249.9231,311.1098,247.2171,305.4753,246.7152,305.9771,241.0806,301.64,249.9231" style="stroke: #0000FF; stroke-width: 1.0;"/><!--MD5=[84f67b5d4c50a1efc2ed02830e161135]
link RedheadDuck29 to Observable31--><path d="M276.1,284.2931 C274.84,294.4131 274.66,307.5331 275.57,318.4931 " fill="none" id="RedheadDuck29-to-Observable31" style="stroke: #0000FF; stroke-width: 1.0;"/><polygon fill="#0000FF" points="276.11,323.6831,279.1654,314.3202,275.597,318.7095,271.2076,315.1411,276.11,323.6831" style="stroke: #0000FF; stroke-width: 1.0;"/><!--MD5=[b35c09ba2e62c4a80753bcb4bc5a4c58]
link Observable31 to RedheadDuck29--><path d="M288.89,323.6831 C290.16,313.5631 290.34,300.4431 289.43,289.4831 " fill="none" id="Observable31-to-RedheadDuck29" style="stroke: #0000FF; stroke-width: 1.0;"/><polygon fill="#0000FF" points="288.9,284.2931,285.8473,293.6569,289.4145,289.2666,293.8049,292.8338,288.9,284.2931" style="stroke: #0000FF; stroke-width: 1.0;"/><!--MD5=[e2e0203933715881659d3934fa696af7]
link Observable31 to ArrayList33--><path d="M286.49,358.1331 C293.03,384.6631 306.03,437.3931 313.29,466.8331 " fill="none" id="Observable31-to-ArrayList33" style="stroke: #0000FF; stroke-width: 1.0;"/><polygon fill="#0000FF" points="314.49,471.7031,316.208,462.0053,313.2874,466.8499,308.4428,463.9294,314.49,471.7031" style="stroke: #0000FF; stroke-width: 1.0;"/><!--MD5=[a9a91c64ce859e0a2b2409e5673c85d9]
link ArrayList33 to Quackologist91--><path d="M332.17,506.1631 C349.78,526.1131 382.25,559.8231 416.5,579.9531 C447.23,598.0131 484.57,611.1731 516.33,620.1731 " fill="none" id="ArrayList33-to-Quackologist91" style="stroke: #0000FF; stroke-width: 1.0;"/><polygon fill="#0000FF" points="521.38,621.5831,513.7856,615.3121,516.5638,620.2397,511.6362,623.018,521.38,621.5831" style="stroke: #0000FF; stroke-width: 1.0;"/><!--MD5=[5e22577b98665dcb1fbe3eee126cb08c]
link QuackCounter27 to DuckCall46--><path d="M197.07,210.2931 C187.07,220.8731 173.98,234.7331 163.37,245.9731 " fill="none" id="QuackCounter27-to-DuckCall46" style="stroke: #0000FF; stroke-width: 1.0;"/><polygon fill="#0000FF" points="159.87,249.6831,168.9585,245.8886,163.304,246.0489,163.1437,240.3943,159.87,249.6831" style="stroke: #0000FF; stroke-width: 1.0;"/><!--MD5=[a850d08ba312a1a82dfdeb90cf99d98e]
link DuckCall46 to Observable48--><path d="M133.04,249.6831 C122.67,239.0131 107.43,225.0031 93.95,213.7031 " fill="none" id="DuckCall46-to-Observable48" style="stroke: #0000FF; stroke-width: 1.0;"/><polygon fill="#0000FF" points="89.83,210.2931,94.222,219.1085,93.6851,213.4772,99.3164,212.9403,89.83,210.2931" style="stroke: #0000FF; stroke-width: 1.0;"/><!--MD5=[bce351dae80f6770c1e3c423ba8dfc36]
link Observable48 to DuckCall46--><path d="M77.03,210.2931 C87.48,221.0431 102.87,235.1731 116.42,246.5031 " fill="none" id="Observable48-to-DuckCall46" style="stroke: #0000FF; stroke-width: 1.0;"/><polygon fill="#0000FF" points="120.56,249.9231,116.168,241.1078,116.7049,246.7391,111.0736,247.2759,120.56,249.9231" style="stroke: #0000FF; stroke-width: 1.0;"/><!--MD5=[d75f2e0a226d2d19615ae39b43610a30]
link Observable48 to ArrayList49--><path d="M68.37,210.1831 C77.18,259.9731 103.82,410.6231 113.73,466.6531 " fill="none" id="Observable48-to-ArrayList49" style="stroke: #0000FF; stroke-width: 1.0;"/><polygon fill="#0000FF" points="114.64,471.7731,117.0119,462.2141,113.7694,466.8495,109.1341,463.607,114.64,471.7731" style="stroke: #0000FF; stroke-width: 1.0;"/><!--MD5=[0a58b8ce59daeac37005198a392eed98]
link ArrayList49 to Quackologist91--><path d="M158.85,506.1031 C208.29,525.0931 293.72,556.9531 368.5,579.9531 C417.56,595.0431 473.68,609.4531 516.55,619.8731 " fill="none" id="ArrayList49-to-Quackologist91" style="stroke: #0000FF; stroke-width: 1.0;"/><polygon fill="#0000FF" points="521.45,621.0631,513.6387,615.0645,516.5894,619.8909,511.763,622.8415,521.45,621.0631" style="stroke: #0000FF; stroke-width: 1.0;"/><!--MD5=[92d0b0989df2ad6f2ea5303f2dbe9794]
link QuackCounter28 to RubberDuck51--><path d="M502.94,210.2931 C488.63,221.1331 469.79,235.4231 454.77,246.8031 " fill="none" id="QuackCounter28-to-RubberDuck51" style="stroke: #0000FF; stroke-width: 1.0;"/><polygon fill="#0000FF" points="450.64,249.9231,460.226,247.6629,454.6211,246.8981,455.3859,241.2932,450.64,249.9231" style="stroke: #0000FF; stroke-width: 1.0;"/><!--MD5=[2a5f04cd7212267c8ca1e35c31a7b940]
link RubberDuck51 to Observable109--><path d="M423.1,284.2931 C421.84,294.4131 421.66,307.5331 422.57,318.4931 " fill="none" id="RubberDuck51-to-Observable109" style="stroke: #0000FF; stroke-width: 1.0;"/><polygon fill="#0000FF" points="423.11,323.6831,426.1654,314.3202,422.597,318.7095,418.2076,315.1411,423.11,323.6831" style="stroke: #0000FF; stroke-width: 1.0;"/><!--MD5=[7f76f8a0ac41f33f896bd69a1521e544]
link Observable109 to RubberDuck51--><path d="M435.89,323.6831 C437.16,313.5631 437.34,300.4431 436.43,289.4831 " fill="none" id="Observable109-to-RubberDuck51" style="stroke: #0000FF; stroke-width: 1.0;"/><polygon fill="#0000FF" points="435.9,284.2931,432.8473,293.6569,436.4145,289.2666,440.8049,292.8338,435.9,284.2931" style="stroke: #0000FF; stroke-width: 1.0;"/><!--MD5=[5ffbb6517caf058efee37a502625640f]
link Observable109 to ArrayList112--><path d="M429.73,358.2931 C429.87,368.4131 430.05,381.5331 430.2,392.4931 " fill="none" id="Observable109-to-ArrayList112" style="stroke: #0000FF; stroke-width: 1.0;"/><polygon fill="#0000FF" points="430.27,397.6831,434.141,388.6269,430.1986,392.6836,426.1418,388.7412,430.27,397.6831" style="stroke: #0000FF; stroke-width: 1.0;"/><!--MD5=[4253ba4149576d2d4d922720d8c893c6]
link ArrayList112 to Quackologist91--><path d="M428.44,432.3731 C425.35,464.3631 423.14,535.7531 457.5,579.9531 C472.17,598.8231 494.51,611.4631 516.45,619.8731 " fill="none" id="ArrayList112-to-Quackologist91" style="stroke: #0000FF; stroke-width: 1.0;"/><polygon fill="#0000FF" points="521.42,621.7131,514.3539,614.8524,516.7273,619.9872,511.5925,622.3607,521.42,621.7131" style="stroke: #0000FF; stroke-width: 1.0;"/><!--MD5=[e0ce5d60c488d27f6e9a9e15c9f70c27]
link GooseAdapter53 to Goose121--><path d="M653,210.1131 C633.55,221.1331 607.74,235.7731 587.42,247.2931 " fill="none" id="GooseAdapter53-to-Goose121" style="stroke: #0000FF; stroke-width: 1.0;"/><polygon fill="#0000FF" points="582.91,249.8531,592.7105,248.8782,587.2556,247.3801,588.7537,241.9253,582.91,249.8531" style="stroke: #0000FF; stroke-width: 1.0;"/><!--MD5=[2c755e4a88fbbec083f22c54ac5c7d19]
link GooseAdapter53 to Observable123--><path d="M675.1,210.2931 C673.84,220.4131 673.66,233.5331 674.57,244.4931 " fill="none" id="GooseAdapter53-to-Observable123" style="stroke: #0000FF; stroke-width: 1.0;"/><polygon fill="#0000FF" points="675.11,249.6831,678.1654,240.3202,674.597,244.7095,670.2076,241.1411,675.11,249.6831" style="stroke: #0000FF; stroke-width: 1.0;"/><!--MD5=[612f7378228bb3d1d44cee9630dd39cb]
link Observable123 to GooseAdapter53--><path d="M687.89,249.6831 C689.16,239.5631 689.34,226.4431 688.43,215.4831 " fill="none" id="Observable123-to-GooseAdapter53" style="stroke: #0000FF; stroke-width: 1.0;"/><polygon fill="#0000FF" points="687.9,210.2931,684.8473,219.6569,688.4145,215.2666,692.8049,218.8338,687.9,210.2931" style="stroke: #0000FF; stroke-width: 1.0;"/><!--MD5=[f1ecfe72920f9fca43545e330088ec9c]
link Observable123 to ArrayList124--><path d="M626.66,283.9731 C593.22,294.8931 554.97,309.8831 544.5,323.9531 C495.57,389.7231 508.44,495.6431 516.89,540.6331 " fill="none" id="Observable123-to-ArrayList124" style="stroke: #0000FF; stroke-width: 1.0;"/><polygon fill="#0000FF" points="517.89,545.8131,520.1225,536.2206,516.9479,540.9027,512.2658,537.728,517.89,545.8131" style="stroke: #0000FF; stroke-width: 1.0;"/><!--MD5=[626a699c522268df80e65f3c29b48809]
link ArrayList124 to Quackologist91--><path d="M536.02,580.2931 C545.35,590.7831 557.54,604.4931 567.48,615.6831 " fill="none" id="ArrayList124-to-Quackologist91" style="stroke: #0000FF; stroke-width: 1.0;"/><polygon fill="#0000FF" points="571.03,619.6831,568.0404,610.299,567.7082,615.9461,562.0611,615.6139,571.03,619.6831" style="stroke: #0000FF; stroke-width: 1.0;"/><!--MD5=[5893df5f20fcc1d7edcaf5e68beab3f9]
link Flock98 to ArrayList130--><path d="M524.5,62.2931 C524.5,72.4131 524.5,85.5331 524.5,96.4931 " fill="none" id="Flock98-to-ArrayList130" style="stroke: #0000FF; stroke-width: 1.0;"/><polygon fill="#0000FF" points="524.5,101.6831,528.5,92.6831,524.5,96.6831,520.5,92.6831,524.5,101.6831" style="stroke: #0000FF; stroke-width: 1.0;"/><!--MD5=[8cfbd9de670d7f679827532725f0ee4b]
link ArrayList130 to QuackCounter23--><path d="M489.49,136.1131 C465.3,147.2731 433.1,162.1431 407.99,173.7231 " fill="none" id="ArrayList130-to-QuackCounter23" style="stroke: #0000FF; stroke-width: 1.0;"/><polygon fill="#0000FF" points="403.39,175.8531,413.2378,175.7075,407.9285,173.7551,409.881,168.4459,403.39,175.8531" style="stroke: #0000FF; stroke-width: 1.0;"/><!--MD5=[87f25ba593c2687f20836aa8e9ccd6f9]
link ArrayList130 to QuackCounter27--><path d="M470.4,133.5731 C467.05,134.3831 463.73,135.1831 460.5,135.9531 C401.86,149.9031 335.21,164.9031 285.78,175.8631 " fill="none" id="ArrayList130-to-QuackCounter27" style="stroke: #0000FF; stroke-width: 1.0;"/><polygon fill="#0000FF" points="280.75,176.9831,290.3979,178.9624,285.6339,175.9121,288.6843,171.1481,280.75,176.9831" style="stroke: #0000FF; stroke-width: 1.0;"/><!--MD5=[cd3721bb2cd4b4c3225464cbf38f6be6]
link ArrayList130 to QuackCounter28--><path d="M524.5,136.2931 C524.5,146.4131 524.5,159.5331 524.5,170.4931 " fill="none" id="ArrayList130-to-QuackCounter28" style="stroke: #0000FF; stroke-width: 1.0;"/><polygon fill="#0000FF" points="524.5,175.6831,528.5,166.6831,524.5,170.6831,520.5,166.6831,524.5,175.6831" style="stroke: #0000FF; stroke-width: 1.0;"/><!--MD5=[2dc89f73c448663e0f33eb85363160b3]
link ArrayList130 to GooseAdapter53--><path d="M559.73,136.1131 C584.08,147.2731 616.49,162.1431 641.75,173.7231 " fill="none" id="ArrayList130-to-GooseAdapter53" style="stroke: #0000FF; stroke-width: 1.0;"/><polygon fill="#0000FF" points="646.38,175.8531,639.8698,168.4627,641.836,173.7669,636.5319,175.7331,646.38,175.8531" style="stroke: #0000FF; stroke-width: 1.0;"/><!--MD5=[71adfa8f149365b115c47ae8c9ac8d16]
link ArrayList130 to Flock100--><path d="M578.61,131.9031 C626.58,142.7031 698.45,159.4131 760.5,175.9531 C763.48,176.7431 766.54,177.5831 769.62,178.4531 " fill="none" id="ArrayList130-to-Flock100" style="stroke: #0000FF; stroke-width: 1.0;"/><polygon fill="#0000FF" points="774.46,179.8231,766.8829,173.5313,769.6476,178.4665,764.7123,181.2312,774.46,179.8231" style="stroke: #0000FF; stroke-width: 1.0;"/><!--MD5=[66a3a792ef23fc0dae1c2e4227b85a2d]
link Flock100 to ArrayList190--><path d="M815.41,210.2931 C815.97,220.4131 816.7,233.5331 817.31,244.4931 " fill="none" id="Flock100-to-ArrayList190" style="stroke: #0000FF; stroke-width: 1.0;"/><polygon fill="#0000FF" points="817.6,249.6831,821.1063,240.4795,817.329,244.6905,813.118,240.9132,817.6,249.6831" style="stroke: #0000FF; stroke-width: 1.0;"/><!--MD5=[22eeba0d377f240f87fb0e6348de4a24]
link ArrayList190 to QuackCounter101--><path d="M775.41,284.1131 C745.4,295.3631 705.35,310.3831 674.34,322.0131 " fill="none" id="ArrayList190-to-QuackCounter101" style="stroke: #0000FF; stroke-width: 1.0;"/><polygon fill="#0000FF" points="669.44,323.8531,679.2715,324.4383,674.1216,322.0975,676.4625,316.9477,669.44,323.8531" style="stroke: #0000FF; stroke-width: 1.0;"/><!--MD5=[7be950d61cd6b44092b83a88c338b93f]
link ArrayList190 to QuackCounter102--><path d="M812.15,284.2931 C808.17,294.5131 803.01,307.7731 798.73,318.7931 " fill="none" id="ArrayList190-to-QuackCounter102" style="stroke: #0000FF; stroke-width: 1.0;"/><polygon fill="#0000FF" points="796.83,323.6831,803.8241,316.749,798.645,319.0242,796.3698,313.845,796.83,323.6831" style="stroke: #0000FF; stroke-width: 1.0;"/><!--MD5=[5aa2e6b128f36e4cb924f5d1090c9207]
link ArrayList190 to QuackCounter139--><path d="M849.02,284.1131 C869.93,295.1831 897.72,309.8931 919.52,321.4331 " fill="none" id="ArrayList190-to-QuackCounter139" style="stroke: #0000FF; stroke-width: 1.0;"/><polygon fill="#0000FF" points="924.08,323.8531,918.0055,316.1007,919.6635,321.5091,914.2551,323.1671,924.08,323.8531" style="stroke: #0000FF; stroke-width: 1.0;"/><!--MD5=[a5cdda4d00daf0a721058fc6ce126fb7]
link ArrayList190 to QuackCounter141--><path d="M872.83,280.9931 C921.49,292.6731 993.21,309.8831 1046.61,322.7031 " fill="none" id="ArrayList190-to-QuackCounter141" style="stroke: #0000FF; stroke-width: 1.0;"/><polygon fill="#0000FF" points="1051.72,323.9231,1043.9047,317.9298,1046.8586,322.7541,1042.0342,325.708,1051.72,323.9231" style="stroke: #0000FF; stroke-width: 1.0;"/><!--MD5=[0a0eea02d2b0d702840ca343a59f4cb9]
link MallardDuck194 to Observable198--><path d="M625.1,432.2931 C623.84,442.4131 623.66,455.5331 624.57,466.4931 " fill="none" id="MallardDuck194-to-Observable198" style="stroke: #0000FF; stroke-width: 1.0;"/><polygon fill="#0000FF" points="625.11,471.6831,628.1654,462.3202,624.597,466.7095,620.2076,463.1411,625.11,471.6831" style="stroke: #0000FF; stroke-width: 1.0;"/><!--MD5=[42f008042545497da015f360345f25a7]
link Observable198 to MallardDuck194--><path d="M637.89,471.6831 C639.16,461.5631 639.34,448.4431 638.43,437.4831 " fill="none" id="Observable198-to-MallardDuck194" style="stroke: #0000FF; stroke-width: 1.0;"/><polygon fill="#0000FF" points="637.9,432.2931,634.8473,441.6569,638.4145,437.2666,642.8049,440.8338,637.9,432.2931" style="stroke: #0000FF; stroke-width: 1.0;"/><!--MD5=[5dc2adc82de81a2b849d22aa9ccc60ac]
link MallardDuck211 to Observable214--><path d="M782.1,432.2931 C780.84,442.4131 780.66,455.5331 781.57,466.4931 " fill="none" id="MallardDuck211-to-Observable214" style="stroke: #0000FF; stroke-width: 1.0;"/><polygon fill="#0000FF" points="782.11,471.6831,785.1654,462.3202,781.597,466.7095,777.2076,463.1411,782.11,471.6831" style="stroke: #0000FF; stroke-width: 1.0;"/><!--MD5=[070258b035bc409cd58f94d9d33bbb4f]
link Observable214 to MallardDuck211--><path d="M794.89,471.6831 C796.16,461.5631 796.34,448.4431 795.43,437.4831 " fill="none" id="Observable214-to-MallardDuck211" style="stroke: #0000FF; stroke-width: 1.0;"/><polygon fill="#0000FF" points="794.9,432.2931,791.8473,441.6569,795.4145,437.2666,799.8049,440.8338,794.9,432.2931" style="stroke: #0000FF; stroke-width: 1.0;"/><!--MD5=[f84f3417a7f3eee08b9192427a824c4a]
link Observable214 to ArrayList215--><path d="M787.82,506.2931 C787.4,516.4131 786.85,529.5331 786.39,540.4931 " fill="none" id="Observable214-to-ArrayList215" style="stroke: #0000FF; stroke-width: 1.0;"/><polygon fill="#0000FF" points="786.18,545.6831,790.5375,536.8507,786.3804,540.6871,782.544,536.53,786.18,545.6831" style="stroke: #0000FF; stroke-width: 1.0;"/><!--MD5=[3a6fab7004a8fed173eab5684f8057ce]
link MallardDuck224 to Observable226--><path d="M939.1,432.2931 C937.84,442.4131 937.66,455.5331 938.57,466.4931 " fill="none" id="MallardDuck224-to-Observable226" style="stroke: #0000FF; stroke-width: 1.0;"/><polygon fill="#0000FF" points="939.11,471.6831,942.1654,462.3202,938.597,466.7095,934.2076,463.1411,939.11,471.6831" style="stroke: #0000FF; stroke-width: 1.0;"/><!--MD5=[505544e328f93711ddd5dc32d5e88c60]
link Observable226 to MallardDuck224--><path d="M951.89,471.6831 C953.16,461.5631 953.34,448.4431 952.43,437.4831 " fill="none" id="Observable226-to-MallardDuck224" style="stroke: #0000FF; stroke-width: 1.0;"/><polygon fill="#0000FF" points="951.9,432.2931,948.8473,441.6569,952.4145,437.2666,956.8049,440.8338,951.9,432.2931" style="stroke: #0000FF; stroke-width: 1.0;"/><!--MD5=[bca97ed8ab301566948699e6a0ff82af]
link Observable226 to ArrayList227--><path d="M942.32,506.2931 C940.35,516.4131 937.8,529.5331 935.67,540.4931 " fill="none" id="Observable226-to-ArrayList227" style="stroke: #0000FF; stroke-width: 1.0;"/><polygon fill="#0000FF" points="934.66,545.6831,940.3068,537.6138,935.6159,540.7753,932.4544,536.0844,934.66,545.6831" style="stroke: #0000FF; stroke-width: 1.0;"/><!--MD5=[48fee350dad88a1193f37e744a308570]
link MallardDuck234 to Observable237--><path d="M1100.1,432.2931 C1098.84,442.4131 1098.66,455.5331 1099.57,466.4931 " fill="none" id="MallardDuck234-to-Observable237" style="stroke: #0000FF; stroke-width: 1.0;"/><polygon fill="#0000FF" points="1100.11,471.6831,1103.1654,462.3202,1099.597,466.7095,1095.2076,463.1411,1100.11,471.6831" style="stroke: #0000FF; stroke-width: 1.0;"/><!--MD5=[b98e0d28bfe46a75e2004bbc84702144]
link Observable237 to MallardDuck234--><path d="M1112.89,471.6831 C1114.16,461.5631 1114.34,448.4431 1113.43,437.4831 " fill="none" id="Observable237-to-MallardDuck234" style="stroke: #0000FF; stroke-width: 1.0;"/><polygon fill="#0000FF" points="1112.9,432.2931,1109.8473,441.6569,1113.4145,437.2666,1117.8049,440.8338,1112.9,432.2931" style="stroke: #0000FF; stroke-width: 1.0;"/><!--MD5=[fdfa2bc584e1f351424ed880975eca5a]
link Observable237 to ArrayList238--><path d="M1101.73,506.2931 C1098.75,516.5131 1094.88,529.7731 1091.67,540.7931 " fill="none" id="Observable237-to-ArrayList238" style="stroke: #0000FF; stroke-width: 1.0;"/><polygon fill="#0000FF" points="1090.25,545.6831,1096.61,538.1631,1091.65,540.8831,1088.93,535.9231,1090.25,545.6831" style="stroke: #0000FF; stroke-width: 1.0;"/><!--MD5=[38d644e2936225dc0f397db37c73a5ef]
link ArrayList238 to Quackologist91--><path d="M1031.3,573.9531 C1019.52,576.0231 1007.1,578.1331 995.5,579.9531 C876.05,598.7231 736.45,617.0131 654.82,627.3431 " fill="none" id="ArrayList238-to-Quackologist91" style="stroke: #0000FF; stroke-width: 1.0;"/><polygon fill="#0000FF" points="649.53,628.0131,658.9617,630.8492,654.4903,627.3842,657.9553,622.9128,649.53,628.0131" style="stroke: #0000FF; stroke-width: 1.0;"/><!--MD5=[f6b4ef24377f2248627dfd24a32d158d]
link QuackCounter101 to MallardDuck194--><path d="M627.63,358.2931 C628.34,368.4131 629.25,381.5331 630.01,392.4931 " fill="none" id="QuackCounter101-to-MallardDuck194" style="stroke: #0000FF; stroke-width: 1.0;"/><polygon fill="#0000FF" points="630.37,397.6831,633.7431,388.4299,630.027,392.6949,625.762,388.9788,630.37,397.6831" style="stroke: #0000FF; stroke-width: 1.0;"/><!--MD5=[8abdf95277380df20a13ccbfc06d5697]
link Observable198 to ArrayList200--><path d="M635.58,506.2931 C638.14,516.5131 641.46,529.7731 644.21,540.7931 " fill="none" id="Observable198-to-ArrayList200" style="stroke: #0000FF; stroke-width: 1.0;"/><polygon fill="#0000FF" points="645.43,545.6831,647.1277,535.9817,644.2173,540.8324,639.3666,537.922,645.43,545.6831" style="stroke: #0000FF; stroke-width: 1.0;"/><!--MD5=[02495a22263df686177922c6fc15f85c]
link ArrayList200 to Quackologist91--><path d="M634.98,580.2931 C625.65,590.7831 613.46,604.4931 603.52,615.6831 " fill="none" id="ArrayList200-to-Quackologist91" style="stroke: #0000FF; stroke-width: 1.0;"/><polygon fill="#0000FF" points="599.97,619.6831,608.9389,615.6139,603.2918,615.9461,602.9596,610.299,599.97,619.6831" style="stroke: #0000FF; stroke-width: 1.0;"/><!--MD5=[84e1c1433846ba90b870c1bbeb46acb6]
link QuackCounter102 to MallardDuck211--><path d="M790.05,358.2931 C789.76,368.4131 789.4,381.5331 789.1,392.4931 " fill="none" id="QuackCounter102-to-MallardDuck211" style="stroke: #0000FF; stroke-width: 1.0;"/><polygon fill="#0000FF" points="788.95,397.6831,793.2054,388.801,789.0928,392.6852,785.2087,388.5726,788.95,397.6831" style="stroke: #0000FF; stroke-width: 1.0;"/><!--MD5=[6119871e09aaa74e53cd441f93811cbc]
link ArrayList215 to Quackologist91--><path d="M740.62,580.1131 C709.35,591.3631 667.63,606.3831 635.33,618.0131 " fill="none" id="ArrayList215-to-Quackologist91" style="stroke: #0000FF; stroke-width: 1.0;"/><polygon fill="#0000FF" points="630.23,619.8531,640.052,620.5798,634.9364,618.1651,637.3512,613.0495,630.23,619.8531" style="stroke: #0000FF; stroke-width: 1.0;"/><!--MD5=[3da991570e034c3c5b866e1b8b3fef44]
link QuackCounter139 to MallardDuck224--><path d="M952.46,358.2931 C951.19,368.4131 949.55,381.5331 948.18,392.4931 " fill="none" id="QuackCounter139-to-MallardDuck224" style="stroke: #0000FF; stroke-width: 1.0;"/><polygon fill="#0000FF" points="947.53,397.6831,952.6064,389.2434,948.1449,392.7211,944.6672,388.2595,947.53,397.6831" style="stroke: #0000FF; stroke-width: 1.0;"/><!--MD5=[433234c6ebf839fdbdc081cc7dd2cfc2]
link ArrayList227 to Quackologist91--><path d="M877.44,575.2031 C817.42,587.6931 720.39,607.8831 654.83,621.5231 " fill="none" id="ArrayList227-to-Quackologist91" style="stroke: #0000FF; stroke-width: 1.0;"/><polygon fill="#0000FF" points="649.77,622.5831,659.394,624.6758,654.6662,621.5696,657.7724,616.8419,649.77,622.5831" style="stroke: #0000FF; stroke-width: 1.0;"/><!--MD5=[4fe03d1c7fabea90fe9752e47eaf03ef]
link QuackCounter141 to MallardDuck234--><path d="M1115.78,358.2931 C1114.09,368.4131 1111.9,381.5331 1110.08,392.4931 " fill="none" id="QuackCounter141-to-MallardDuck234" style="stroke: #0000FF; stroke-width: 1.0;"/><polygon fill="#0000FF" points="1109.21,397.6831,1114.6236,389.4555,1110.025,392.75,1106.7306,388.1515,1109.21,397.6831" style="stroke: #0000FF; stroke-width: 1.0;"/><!--MD5=[708f8055601c80acea0e5c35f995ef6f]
@startuml compundPatternObjectOnly
'scale 3.0

title compound pattern objects

skinparam activityArrowColor blue
skinparam activityFontStyle bold

skinparam shadowing false
' left to right direction
'  hide fields
' show MallaredDuck members





(*)- -> CountingDuckFactory20	
note right: YAHOOO

'DuckSimulator19 - -> CountingDuckFactory20	
'DuckSimulator19 - -> QuackCounter23	
'DuckSimulator19 - -> QuackCounter27	
'DuckSimulator19 - -> GooseAdapter53	
'DuckSimulator19 - -> QuackCounter28	
'DuckSimulator19 - -> Flock98	
'DuckSimulator19 - -> Flock100	
'DuckSimulator19 - -> QuackCounter101	
'DuckSimulator19 - -> QuackCounter102	
'DuckSimulator19 - -> QuackCounter139	
'DuckSimulator19 - -> QuackCounter141	
'DuckSimulator19 - -> Quackologist91	

'CountingDuckFactory20 ..> QuackCounter23	
'CountingDuckFactory20 ..> QuackCounter27	
'CountingDuckFactory20 ..> GooseAdapter53	
'CountingDuckFactory20 ..> QuackCounter28	
'CountingDuckFactory20 ..> QuackCounter101	
'CountingDuckFactory20 ..> QuackCounter102	
'CountingDuckFactory20 ..> QuackCounter139	
'CountingDuckFactory20 ..> QuackCounter141	



QuackCounter23 - -> RedheadDuck29
RedheadDuck29- -> Observable31
Observable31- -> RedheadDuck29
Observable31- -> ArrayList33
ArrayList33- -> Quackologist91
QuackCounter27 - -> DuckCall46
DuckCall46- ->Observable48
Observable48- -> DuckCall46
Observable48- -> ArrayList49
ArrayList49- -> Quackologist91
QuackCounter28- ->RubberDuck51
RubberDuck51- ->Observable109
Observable109- ->RubberDuck51
Observable109- ->ArrayList112
ArrayList112- ->Quackologist91
GooseAdapter53- ->Goose121
GooseAdapter53- ->Observable123
Observable123- ->GooseAdapter53
Observable123- ->ArrayList124
ArrayList124- ->Quackologist91
Flock98- ->ArrayList130
ArrayList130- ->QuackCounter23
ArrayList130- ->QuackCounter27
ArrayList130- ->QuackCounter28
ArrayList130- ->GooseAdapter53
ArrayList130- ->Flock100
Flock100 - -> ArrayList190
ArrayList190 - -> QuackCounter101
ArrayList190 - -> QuackCounter102
ArrayList190 - -> QuackCounter139
ArrayList190 - -> QuackCounter141
MallardDuck194 - -> Observable198
MallardDuck211 - -> Observable214
Observable214- ->MallardDuck211
Observable214- ->ArrayList215
MallardDuck224- ->Observable226
Observable226- ->MallardDuck224
Observable226- ->ArrayList227
MallardDuck234- ->Observable237
Observable237- ->MallardDuck234
Observable237- ->ArrayList238
ArrayList238- ->Quackologist91
QuackCounter101- ->MallardDuck194
Observable198- ->MallardDuck194
Observable198- ->ArrayList200
ArrayList200- ->Quackologist91
QuackCounter102- -> MallardDuck211
ArrayList215- ->Quackologist91
QuackCounter139- ->MallardDuck224
ArrayList227- -> Quackologist91
QuackCounter141- -> MallardDuck234



@enduml

@startuml compundPatternObjectOnly

title compound pattern objects

skinparam activityArrowColor blue
skinparam activityFontStyle bold

skinparam shadowing false





(*)- -> CountingDuckFactory20	
note right: YAHOOO





QuackCounter23 - -> RedheadDuck29
RedheadDuck29- -> Observable31
Observable31- -> RedheadDuck29
Observable31- -> ArrayList33
ArrayList33- -> Quackologist91
QuackCounter27 - -> DuckCall46
DuckCall46- ->Observable48
Observable48- -> DuckCall46
Observable48- -> ArrayList49
ArrayList49- -> Quackologist91
QuackCounter28- ->RubberDuck51
RubberDuck51- ->Observable109
Observable109- ->RubberDuck51
Observable109- ->ArrayList112
ArrayList112- ->Quackologist91
GooseAdapter53- ->Goose121
GooseAdapter53- ->Observable123
Observable123- ->GooseAdapter53
Observable123- ->ArrayList124
ArrayList124- ->Quackologist91
Flock98- ->ArrayList130
ArrayList130- ->QuackCounter23
ArrayList130- ->QuackCounter27
ArrayList130- ->QuackCounter28
ArrayList130- ->GooseAdapter53
ArrayList130- ->Flock100
Flock100 - -> ArrayList190
ArrayList190 - -> QuackCounter101
ArrayList190 - -> QuackCounter102
ArrayList190 - -> QuackCounter139
ArrayList190 - -> QuackCounter141
MallardDuck194 - -> Observable198
MallardDuck211 - -> Observable214
Observable214- ->MallardDuck211
Observable214- ->ArrayList215
MallardDuck224- ->Observable226
Observable226- ->MallardDuck224
Observable226- ->ArrayList227
MallardDuck234- ->Observable237
Observable237- ->MallardDuck234
Observable237- ->ArrayList238
ArrayList238- ->Quackologist91
QuackCounter101- ->MallardDuck194
Observable198- ->MallardDuck194
Observable198- ->ArrayList200
ArrayList200- ->Quackologist91
QuackCounter102- -> MallardDuck211
ArrayList215- ->Quackologist91
QuackCounter139- ->MallardDuck224
ArrayList227- -> Quackologist91
QuackCounter141- -> MallardDuck234



@enduml

PlantUML version 1.2020.18(Wed Sep 30 22:40:44 EEST 2020)
(GPL source distribution)
Java Runtime: OpenJDK Runtime Environment
JVM: OpenJDK 64-Bit Server VM
Default Encoding: UTF-8
Language: en
Country: US
--></g></svg>