<?xml version="1.0" encoding="UTF-8" standalone="no"?><svg xmlns="http://www.w3.org/2000/svg" xmlns:xlink="http://www.w3.org/1999/xlink" contentScriptType="application/ecmascript" contentStyleType="text/css" height="220px" preserveAspectRatio="none" style="width:377px;height:220px;" version="1.1" viewBox="0 0 377 220" width="377px" zoomAndPan="magnify"><defs><filter height="300%" id="ffmyxakehoh5x" width="300%" x="-1" y="-1"><feGaussianBlur result="blurOut" stdDeviation="2.0"/><feColorMatrix in="blurOut" result="blurOut2" type="matrix" values="0 0 0 0 0 0 0 0 0 0 0 0 0 0 0 0 0 0 .4 0"/><feOffset dx="4.0" dy="4.0" in="blurOut2" result="blurOut3"/><feBlend in="SourceGraphic" in2="blurOut3" mode="normal"/></filter></defs><g><!--MD5=[5acef978eac5f1cd44944dabf3909ca6]
cluster com.company.template--><polygon fill="#FFFFFF" filter="url(#ffmyxakehoh5x)" points="16,6,205,6,212,28.2969,360,28.2969,360,213,16,213,16,6" style="stroke: #000000; stroke-width: 1.5;"/><line style="stroke: #000000; stroke-width: 1.5;" x1="16" x2="212" y1="28.2969" y2="28.2969"/><text fill="#000000" font-family="sans-serif" font-size="14" font-weight="bold" lengthAdjust="spacingAndGlyphs" textLength="183" x="20" y="20.9951">com.company.template</text><!--MD5=[fe8eb24b83226d456549b8845b2da8fe]
class com.company.template.VehicleTemplate--><rect codeLine="1" fill="#FEFECE" filter="url(#ffmyxakehoh5x)" height="48" id="com.company.template.VehicleTemplate" style="stroke: #A80036; stroke-width: 1.5;" width="135" x="70.5" y="149"/><ellipse cx="85.5" cy="165" fill="#A9DCDF" rx="11" ry="11" style="stroke: #A80036; stroke-width: 1.0;"/><path d="M85.6094,160.3438 L84.4531,165.4219 L86.7813,165.4219 L85.6094,160.3438 Z M84.125,158.1094 L87.1094,158.1094 L90.4688,170.5 L88.0156,170.5 L87.25,167.4375 L83.9688,167.4375 L83.2188,170.5 L80.7813,170.5 L84.125,158.1094 Z "/><text fill="#000000" font-family="sans-serif" font-size="12" font-style="italic" lengthAdjust="spacingAndGlyphs" textLength="103" x="99.5" y="169.1543">VehicleTemplate</text><line style="stroke: #A80036; stroke-width: 1.5;" x1="71.5" x2="204.5" y1="181" y2="181"/><line style="stroke: #A80036; stroke-width: 1.5;" x1="71.5" x2="204.5" y1="189" y2="189"/><!--MD5=[1a694126df3f57b69d88ab8b42928ec0]
class com.company.template.Executor--><rect codeLine="2" fill="#FEFECE" filter="url(#ffmyxakehoh5x)" height="48" id="com.company.template.Executor" style="stroke: #A80036; stroke-width: 1.5;" width="87" x="256.5" y="41"/><ellipse cx="271.5" cy="57" fill="#ADD1B2" rx="11" ry="11" style="stroke: #A80036; stroke-width: 1.0;"/><path d="M274.4688,62.6406 Q273.8906,62.9375 273.25,63.0781 Q272.6094,63.2344 271.9063,63.2344 Q269.4063,63.2344 268.0781,61.5938 Q266.7656,59.9375 266.7656,56.8125 Q266.7656,53.6875 268.0781,52.0313 Q269.4063,50.375 271.9063,50.375 Q272.6094,50.375 273.25,50.5313 Q273.9063,50.6875 274.4688,50.9844 L274.4688,53.7031 Q273.8438,53.125 273.25,52.8594 Q272.6563,52.5781 272.0313,52.5781 Q270.6875,52.5781 270,53.6563 Q269.3125,54.7188 269.3125,56.8125 Q269.3125,58.9063 270,59.9844 Q270.6875,61.0469 272.0313,61.0469 Q272.6563,61.0469 273.25,60.7813 Q273.8438,60.5 274.4688,59.9219 L274.4688,62.6406 Z "/><text fill="#000000" font-family="sans-serif" font-size="12" lengthAdjust="spacingAndGlyphs" textLength="55" x="285.5" y="61.1543">Executor</text><line style="stroke: #A80036; stroke-width: 1.5;" x1="257.5" x2="342.5" y1="73" y2="73"/><line style="stroke: #A80036; stroke-width: 1.5;" x1="257.5" x2="342.5" y1="81" y2="81"/><!--MD5=[04831f62aee29d77686e0e930206a4b1]
class com.company.template.SalonCar--><rect codeLine="3" fill="#FEFECE" filter="url(#ffmyxakehoh5x)" height="48" id="com.company.template.SalonCar" style="stroke: #A80036; stroke-width: 1.5;" width="88" x="133" y="41"/><ellipse cx="148" cy="57" fill="#ADD1B2" rx="11" ry="11" style="stroke: #A80036; stroke-width: 1.0;"/><path d="M150.9688,62.6406 Q150.3906,62.9375 149.75,63.0781 Q149.1094,63.2344 148.4063,63.2344 Q145.9063,63.2344 144.5781,61.5938 Q143.2656,59.9375 143.2656,56.8125 Q143.2656,53.6875 144.5781,52.0313 Q145.9063,50.375 148.4063,50.375 Q149.1094,50.375 149.75,50.5313 Q150.4063,50.6875 150.9688,50.9844 L150.9688,53.7031 Q150.3438,53.125 149.75,52.8594 Q149.1563,52.5781 148.5313,52.5781 Q147.1875,52.5781 146.5,53.6563 Q145.8125,54.7188 145.8125,56.8125 Q145.8125,58.9063 146.5,59.9844 Q147.1875,61.0469 148.5313,61.0469 Q149.1563,61.0469 149.75,60.7813 Q150.3438,60.5 150.9688,59.9219 L150.9688,62.6406 Z "/><text fill="#000000" font-family="sans-serif" font-size="12" lengthAdjust="spacingAndGlyphs" textLength="56" x="162" y="61.1543">SalonCar</text><line style="stroke: #A80036; stroke-width: 1.5;" x1="134" x2="220" y1="73" y2="73"/><line style="stroke: #A80036; stroke-width: 1.5;" x1="134" x2="220" y1="81" y2="81"/><!--MD5=[e871876386db73b619085a00075f1fa1]
class com.company.template.Truck--><rect codeLine="4" fill="#FEFECE" filter="url(#ffmyxakehoh5x)" height="48" id="com.company.template.Truck" style="stroke: #A80036; stroke-width: 1.5;" width="66" x="32" y="41"/><ellipse cx="47" cy="57" fill="#ADD1B2" rx="11" ry="11" style="stroke: #A80036; stroke-width: 1.0;"/><path d="M49.9688,62.6406 Q49.3906,62.9375 48.75,63.0781 Q48.1094,63.2344 47.4063,63.2344 Q44.9063,63.2344 43.5781,61.5938 Q42.2656,59.9375 42.2656,56.8125 Q42.2656,53.6875 43.5781,52.0313 Q44.9063,50.375 47.4063,50.375 Q48.1094,50.375 48.75,50.5313 Q49.4063,50.6875 49.9688,50.9844 L49.9688,53.7031 Q49.3438,53.125 48.75,52.8594 Q48.1563,52.5781 47.5313,52.5781 Q46.1875,52.5781 45.5,53.6563 Q44.8125,54.7188 44.8125,56.8125 Q44.8125,58.9063 45.5,59.9844 Q46.1875,61.0469 47.5313,61.0469 Q48.1563,61.0469 48.75,60.7813 Q49.3438,60.5 49.9688,59.9219 L49.9688,62.6406 Z "/><text fill="#000000" font-family="sans-serif" font-size="12" lengthAdjust="spacingAndGlyphs" textLength="34" x="61" y="61.1543">Truck</text><line style="stroke: #A80036; stroke-width: 1.5;" x1="33" x2="97" y1="73" y2="73"/><line style="stroke: #A80036; stroke-width: 1.5;" x1="33" x2="97" y1="81" y2="81"/><!--MD5=[32be1f86fb4b310517afb39121ad6c7b]
link com.company.template.SalonCar to com.company.template.VehicleTemplate--><path codeLine="5" d="M168.54,89 C164.17,100.86 158.71,115.72 153.61,129.57 " fill="none" id="com.company.template.SalonCar-to-com.company.template.VehicleTemplate" style="stroke: #A80036; stroke-width: 1.0;"/><polygon fill="none" points="160.06,132.33,146.58,148.68,146.92,127.49,160.06,132.33" style="stroke: #A80036; stroke-width: 1.0;"/><!--MD5=[d8f60b97e22dc45eb6601f700671eacf]
link com.company.template.Truck to com.company.template.VehicleTemplate--><path codeLine="6" d="M80.84,89 C89.49,101.55 100.44,117.46 110.43,131.97 " fill="none" id="com.company.template.Truck-to-com.company.template.VehicleTemplate" style="stroke: #A80036; stroke-width: 1.0;"/><polygon fill="none" points="116.36,128.24,121.94,148.68,104.83,136.18,116.36,128.24" style="stroke: #A80036; stroke-width: 1.0;"/><!--MD5=[8a81f8d48be182cb0a3a23b6ede7b4e3]
@startuml
abstract class com.company.template.VehicleTemplate
class com.company.template.Executor
class com.company.template.SalonCar
class com.company.template.Truck
com.company.template.SalonCar - -|> com.company.template.VehicleTemplate
com.company.template.Truck - -|> com.company.template.VehicleTemplate
@enduml

PlantUML version 1.2020.18(Wed Sep 30 22:40:44 EEST 2020)
(GPL source distribution)
Java Runtime: OpenJDK Runtime Environment
JVM: OpenJDK 64-Bit Server VM
Default Encoding: UTF-8
Language: en
Country: US
--></g></svg>