<?xml version="1.0" encoding="UTF-8" standalone="no"?><svg xmlns="http://www.w3.org/2000/svg" xmlns:xlink="http://www.w3.org/1999/xlink" contentScriptType="application/ecmascript" contentStyleType="text/css" height="328px" preserveAspectRatio="none" style="width:378px;height:328px;" version="1.1" viewBox="0 0 378 328" width="378px" zoomAndPan="magnify"><defs><filter height="300%" id="f1ee4rm5cdcwt1" width="300%" x="-1" y="-1"><feGaussianBlur result="blurOut" stdDeviation="2.0"/><feColorMatrix in="blurOut" result="blurOut2" type="matrix" values="0 0 0 0 0 0 0 0 0 0 0 0 0 0 0 0 0 0 .4 0"/><feOffset dx="4.0" dy="4.0" in="blurOut2" result="blurOut3"/><feBlend in="SourceGraphic" in2="blurOut3" mode="normal"/></filter></defs><g><!--MD5=[541bfccce1b0429c94b47c98c6636bb8]
cluster com.company.decorator--><polygon fill="#FFFFFF" filter="url(#f1ee4rm5cdcwt1)" points="16,6,214,6,221,28.2969,361,28.2969,361,321,16,321,16,6" style="stroke: #000000; stroke-width: 1.5;"/><line style="stroke: #000000; stroke-width: 1.5;" x1="16" x2="221" y1="28.2969" y2="28.2969"/><text fill="#000000" font-family="sans-serif" font-size="14" font-weight="bold" lengthAdjust="spacingAndGlyphs" textLength="192" x="20" y="20.9951">com.company.decorator</text><!--MD5=[5f42a18c95d4890cd9fc5a3fc789968e]
class com.company.decorator.BasicSandwich--><rect codeLine="1" fill="#FEFECE" filter="url(#f1ee4rm5cdcwt1)" height="48" id="com.company.decorator.BasicSandwich" style="stroke: #A80036; stroke-width: 1.5;" width="124" x="221" y="149"/><ellipse cx="236" cy="165" fill="#ADD1B2" rx="11" ry="11" style="stroke: #A80036; stroke-width: 1.0;"/><path d="M238.9688,170.6406 Q238.3906,170.9375 237.75,171.0781 Q237.1094,171.2344 236.4063,171.2344 Q233.9063,171.2344 232.5781,169.5938 Q231.2656,167.9375 231.2656,164.8125 Q231.2656,161.6875 232.5781,160.0313 Q233.9063,158.375 236.4063,158.375 Q237.1094,158.375 237.75,158.5313 Q238.4063,158.6875 238.9688,158.9844 L238.9688,161.7031 Q238.3438,161.125 237.75,160.8594 Q237.1563,160.5781 236.5313,160.5781 Q235.1875,160.5781 234.5,161.6563 Q233.8125,162.7188 233.8125,164.8125 Q233.8125,166.9063 234.5,167.9844 Q235.1875,169.0469 236.5313,169.0469 Q237.1563,169.0469 237.75,168.7813 Q238.3438,168.5 238.9688,167.9219 L238.9688,170.6406 Z "/><text fill="#000000" font-family="sans-serif" font-size="12" lengthAdjust="spacingAndGlyphs" textLength="92" x="250" y="169.1543">BasicSandwich</text><line style="stroke: #A80036; stroke-width: 1.5;" x1="222" x2="344" y1="181" y2="181"/><line style="stroke: #A80036; stroke-width: 1.5;" x1="222" x2="344" y1="189" y2="189"/><!--MD5=[38d7b456a87f5cc23b8da516c7147b3b]
class com.company.decorator.Beef--><rect codeLine="2" fill="#FEFECE" filter="url(#f1ee4rm5cdcwt1)" height="48" id="com.company.decorator.Beef" style="stroke: #A80036; stroke-width: 1.5;" width="60" x="269" y="41"/><ellipse cx="284" cy="57" fill="#ADD1B2" rx="11" ry="11" style="stroke: #A80036; stroke-width: 1.0;"/><path d="M286.9688,62.6406 Q286.3906,62.9375 285.75,63.0781 Q285.1094,63.2344 284.4063,63.2344 Q281.9063,63.2344 280.5781,61.5938 Q279.2656,59.9375 279.2656,56.8125 Q279.2656,53.6875 280.5781,52.0313 Q281.9063,50.375 284.4063,50.375 Q285.1094,50.375 285.75,50.5313 Q286.4063,50.6875 286.9688,50.9844 L286.9688,53.7031 Q286.3438,53.125 285.75,52.8594 Q285.1563,52.5781 284.5313,52.5781 Q283.1875,52.5781 282.5,53.6563 Q281.8125,54.7188 281.8125,56.8125 Q281.8125,58.9063 282.5,59.9844 Q283.1875,61.0469 284.5313,61.0469 Q285.1563,61.0469 285.75,60.7813 Q286.3438,60.5 286.9688,59.9219 L286.9688,62.6406 Z "/><text fill="#000000" font-family="sans-serif" font-size="12" lengthAdjust="spacingAndGlyphs" textLength="28" x="298" y="61.1543">Beef</text><line style="stroke: #A80036; stroke-width: 1.5;" x1="270" x2="328" y1="73" y2="73"/><line style="stroke: #A80036; stroke-width: 1.5;" x1="270" x2="328" y1="81" y2="81"/><!--MD5=[38d3a250046f74b24fe4fc38405ceb95]
class com.company.decorator.Cheese--><rect codeLine="3" fill="#FEFECE" filter="url(#f1ee4rm5cdcwt1)" height="48" id="com.company.decorator.Cheese" style="stroke: #A80036; stroke-width: 1.5;" width="79" x="154.5" y="41"/><ellipse cx="169.5" cy="57" fill="#ADD1B2" rx="11" ry="11" style="stroke: #A80036; stroke-width: 1.0;"/><path d="M172.4688,62.6406 Q171.8906,62.9375 171.25,63.0781 Q170.6094,63.2344 169.9063,63.2344 Q167.4063,63.2344 166.0781,61.5938 Q164.7656,59.9375 164.7656,56.8125 Q164.7656,53.6875 166.0781,52.0313 Q167.4063,50.375 169.9063,50.375 Q170.6094,50.375 171.25,50.5313 Q171.9063,50.6875 172.4688,50.9844 L172.4688,53.7031 Q171.8438,53.125 171.25,52.8594 Q170.6563,52.5781 170.0313,52.5781 Q168.6875,52.5781 168,53.6563 Q167.3125,54.7188 167.3125,56.8125 Q167.3125,58.9063 168,59.9844 Q168.6875,61.0469 170.0313,61.0469 Q170.6563,61.0469 171.25,60.7813 Q171.8438,60.5 172.4688,59.9219 L172.4688,62.6406 Z "/><text fill="#000000" font-family="sans-serif" font-size="12" lengthAdjust="spacingAndGlyphs" textLength="47" x="183.5" y="61.1543">Cheese</text><line style="stroke: #A80036; stroke-width: 1.5;" x1="155.5" x2="232.5" y1="73" y2="73"/><line style="stroke: #A80036; stroke-width: 1.5;" x1="155.5" x2="232.5" y1="81" y2="81"/><!--MD5=[46753a24f53231d113a7ea6fd8c77cfa]
class com.company.decorator.Executor--><rect codeLine="4" fill="#FEFECE" filter="url(#f1ee4rm5cdcwt1)" height="48" id="com.company.decorator.Executor" style="stroke: #A80036; stroke-width: 1.5;" width="87" x="32.5" y="41"/><ellipse cx="47.5" cy="57" fill="#ADD1B2" rx="11" ry="11" style="stroke: #A80036; stroke-width: 1.0;"/><path d="M50.4688,62.6406 Q49.8906,62.9375 49.25,63.0781 Q48.6094,63.2344 47.9063,63.2344 Q45.4063,63.2344 44.0781,61.5938 Q42.7656,59.9375 42.7656,56.8125 Q42.7656,53.6875 44.0781,52.0313 Q45.4063,50.375 47.9063,50.375 Q48.6094,50.375 49.25,50.5313 Q49.9063,50.6875 50.4688,50.9844 L50.4688,53.7031 Q49.8438,53.125 49.25,52.8594 Q48.6563,52.5781 48.0313,52.5781 Q46.6875,52.5781 46,53.6563 Q45.3125,54.7188 45.3125,56.8125 Q45.3125,58.9063 46,59.9844 Q46.6875,61.0469 48.0313,61.0469 Q48.6563,61.0469 49.25,60.7813 Q49.8438,60.5 50.4688,59.9219 L50.4688,62.6406 Z "/><text fill="#000000" font-family="sans-serif" font-size="12" lengthAdjust="spacingAndGlyphs" textLength="55" x="61.5" y="61.1543">Executor</text><line style="stroke: #A80036; stroke-width: 1.5;" x1="33.5" x2="118.5" y1="73" y2="73"/><line style="stroke: #A80036; stroke-width: 1.5;" x1="33.5" x2="118.5" y1="81" y2="81"/><!--MD5=[372c7a706d61b9aafd1da9ebd977e7d1]
class com.company.decorator.SandwichDecorator--><rect codeLine="5" fill="#FEFECE" filter="url(#f1ee4rm5cdcwt1)" height="48" id="com.company.decorator.SandwichDecorator" style="stroke: #A80036; stroke-width: 1.5;" width="154" x="32" y="149"/><ellipse cx="47" cy="165" fill="#ADD1B2" rx="11" ry="11" style="stroke: #A80036; stroke-width: 1.0;"/><path d="M49.9688,170.6406 Q49.3906,170.9375 48.75,171.0781 Q48.1094,171.2344 47.4063,171.2344 Q44.9063,171.2344 43.5781,169.5938 Q42.2656,167.9375 42.2656,164.8125 Q42.2656,161.6875 43.5781,160.0313 Q44.9063,158.375 47.4063,158.375 Q48.1094,158.375 48.75,158.5313 Q49.4063,158.6875 49.9688,158.9844 L49.9688,161.7031 Q49.3438,161.125 48.75,160.8594 Q48.1563,160.5781 47.5313,160.5781 Q46.1875,160.5781 45.5,161.6563 Q44.8125,162.7188 44.8125,164.8125 Q44.8125,166.9063 45.5,167.9844 Q46.1875,169.0469 47.5313,169.0469 Q48.1563,169.0469 48.75,168.7813 Q49.3438,168.5 49.9688,167.9219 L49.9688,170.6406 Z "/><text fill="#000000" font-family="sans-serif" font-size="12" lengthAdjust="spacingAndGlyphs" textLength="122" x="61" y="169.1543">SandwichDecorator</text><line style="stroke: #A80036; stroke-width: 1.5;" x1="33" x2="185" y1="181" y2="181"/><line style="stroke: #A80036; stroke-width: 1.5;" x1="33" x2="185" y1="189" y2="189"/><!--MD5=[0b5987236357a6a4a08b8186315f43a2]
class com.company.decorator.Sandwich--><rect codeLine="6" fill="#FEFECE" filter="url(#f1ee4rm5cdcwt1)" height="48" id="com.company.decorator.Sandwich" style="stroke: #A80036; stroke-width: 1.5;" width="92" x="150" y="257"/><ellipse cx="165" cy="273" fill="#B4A7E5" rx="11" ry="11" style="stroke: #A80036; stroke-width: 1.0;"/><path d="M160.9219,268.7656 L160.9219,266.6094 L168.3125,266.6094 L168.3125,268.7656 L165.8438,268.7656 L165.8438,276.8438 L168.3125,276.8438 L168.3125,279 L160.9219,279 L160.9219,276.8438 L163.3906,276.8438 L163.3906,268.7656 L160.9219,268.7656 Z "/><text fill="#000000" font-family="sans-serif" font-size="12" font-style="italic" lengthAdjust="spacingAndGlyphs" textLength="60" x="179" y="277.1543">Sandwich</text><line style="stroke: #A80036; stroke-width: 1.5;" x1="151" x2="241" y1="289" y2="289"/><line style="stroke: #A80036; stroke-width: 1.5;" x1="151" x2="241" y1="297" y2="297"/><!--MD5=[550df5c37e895274b41d5b56d93a5f17]
link com.company.decorator.BasicSandwich to com.company.decorator.Sandwich--><path codeLine="7" d="M264.12,197 C253.59,209.83 240.19,226.16 228.07,240.93 " fill="none" id="com.company.decorator.BasicSandwich-to-com.company.decorator.Sandwich" style="stroke: #A80036; stroke-width: 1.0;"/><polygon fill="none" points="233.24,245.66,215.14,256.68,222.42,236.78,233.24,245.66" style="stroke: #A80036; stroke-width: 1.0;"/><!--MD5=[2f00dea8fd859f15a55958e6f2c98362]
link com.company.decorator.Beef to com.company.decorator.SandwichDecorator--><path codeLine="8" d="M268.89,82.8 C241.88,97.87 201.45,120.42 168,139.08 " fill="none" id="com.company.decorator.Beef-to-com.company.decorator.SandwichDecorator" style="stroke: #A80036; stroke-width: 1.0;"/><polygon fill="none" points="171.15,145.34,150.27,148.97,164.33,133.12,171.15,145.34" style="stroke: #A80036; stroke-width: 1.0;"/><!--MD5=[bc7d7b4f72124d56bd91bf1000d1b8aa]
link com.company.decorator.Cheese to com.company.decorator.SandwichDecorator--><path codeLine="9" d="M175.56,89 C165.27,101.83 152.18,118.16 140.33,132.93 " fill="none" id="com.company.decorator.Cheese-to-com.company.decorator.SandwichDecorator" style="stroke: #A80036; stroke-width: 1.0;"/><polygon fill="none" points="145.67,137.45,127.7,148.68,134.75,128.7,145.67,137.45" style="stroke: #A80036; stroke-width: 1.0;"/><!--MD5=[19fa8fbe0d30c736dc3fce455ae5efe7]
link com.company.decorator.SandwichDecorator to com.company.decorator.Sandwich--><path codeLine="10" d="M127.88,197 C138.41,209.83 151.81,226.16 163.93,240.93 " fill="none" id="com.company.decorator.SandwichDecorator-to-com.company.decorator.Sandwich" style="stroke: #A80036; stroke-width: 1.0;"/><polygon fill="none" points="169.58,236.78,176.86,256.68,158.76,245.66,169.58,236.78" style="stroke: #A80036; stroke-width: 1.0;"/><!--MD5=[c5bd96ce3965dca33bbeac02ad88b75d]
@startuml
class com.company.decorator.BasicSandwich
class com.company.decorator.Beef
class com.company.decorator.Cheese
class com.company.decorator.Executor
class com.company.decorator.SandwichDecorator
interface com.company.decorator.Sandwich
com.company.decorator.BasicSandwich - -|> com.company.decorator.Sandwich
com.company.decorator.Beef - -|> com.company.decorator.SandwichDecorator
com.company.decorator.Cheese - -|> com.company.decorator.SandwichDecorator
com.company.decorator.SandwichDecorator - -|> com.company.decorator.Sandwich
@enduml

PlantUML version 1.2020.18(Wed Sep 30 22:40:44 EEST 2020)
(GPL source distribution)
Java Runtime: OpenJDK Runtime Environment
JVM: OpenJDK 64-Bit Server VM
Default Encoding: UTF-8
Language: en
Country: US
--></g></svg>