<?xml version="1.0" encoding="UTF-8" standalone="no"?><svg xmlns="http://www.w3.org/2000/svg" xmlns:xlink="http://www.w3.org/1999/xlink" contentScriptType="application/ecmascript" contentStyleType="text/css" height="328px" preserveAspectRatio="none" style="width:574px;height:328px;" version="1.1" viewBox="0 0 574 328" width="574px" zoomAndPan="magnify"><defs><filter height="300%" id="f1tzqe7zqbwv3a" width="300%" x="-1" y="-1"><feGaussianBlur result="blurOut" stdDeviation="2.0"/><feColorMatrix in="blurOut" result="blurOut2" type="matrix" values="0 0 0 0 0 0 0 0 0 0 0 0 0 0 0 0 0 0 .4 0"/><feOffset dx="4.0" dy="4.0" in="blurOut2" result="blurOut3"/><feBlend in="SourceGraphic" in2="blurOut3" mode="normal"/></filter></defs><g><!--MD5=[52e3162d6a4490a59c8742abd4daaf16]
cluster decorator3--><polygon fill="#FFFFFF" filter="url(#f1tzqe7zqbwv3a)" points="16,6,110,6,117,28.2969,557,28.2969,557,321,16,321,16,6" style="stroke: #000000; stroke-width: 1.5;"/><line style="stroke: #000000; stroke-width: 1.5;" x1="16" x2="117" y1="28.2969" y2="28.2969"/><text fill="#000000" font-family="sans-serif" font-size="14" font-weight="bold" lengthAdjust="spacingAndGlyphs" textLength="88" x="20" y="20.9951">decorator3</text><!--MD5=[e411921d22b794bec613635946dca8d7]
class decorator3.Computer--><rect codeLine="1" fill="#FEFECE" filter="url(#f1tzqe7zqbwv3a)" height="48" id="decorator3.Computer" style="stroke: #A80036; stroke-width: 1.5;" width="93" x="201.5" y="257"/><ellipse cx="216.5" cy="273" fill="#A9DCDF" rx="11" ry="11" style="stroke: #A80036; stroke-width: 1.0;"/><path d="M216.6094,268.3438 L215.4531,273.4219 L217.7813,273.4219 L216.6094,268.3438 Z M215.125,266.1094 L218.1094,266.1094 L221.4688,278.5 L219.0156,278.5 L218.25,275.4375 L214.9688,275.4375 L214.2188,278.5 L211.7813,278.5 L215.125,266.1094 Z "/><text fill="#000000" font-family="sans-serif" font-size="12" font-style="italic" lengthAdjust="spacingAndGlyphs" textLength="61" x="230.5" y="277.1543">Computer</text><line style="stroke: #A80036; stroke-width: 1.5;" x1="202.5" x2="293.5" y1="289" y2="289"/><line style="stroke: #A80036; stroke-width: 1.5;" x1="202.5" x2="293.5" y1="297" y2="297"/><!--MD5=[b15d48399d207b0a6e1efc2f4b60ebd1]
class decorator3.Decorator--><rect codeLine="2" fill="#FEFECE" filter="url(#f1tzqe7zqbwv3a)" height="48" id="decorator3.Decorator" style="stroke: #A80036; stroke-width: 1.5;" width="95" x="69.5" y="149"/><ellipse cx="84.5" cy="165" fill="#A9DCDF" rx="11" ry="11" style="stroke: #A80036; stroke-width: 1.0;"/><path d="M84.6094,160.3438 L83.4531,165.4219 L85.7813,165.4219 L84.6094,160.3438 Z M83.125,158.1094 L86.1094,158.1094 L89.4688,170.5 L87.0156,170.5 L86.25,167.4375 L82.9688,167.4375 L82.2188,170.5 L79.7813,170.5 L83.125,158.1094 Z "/><text fill="#000000" font-family="sans-serif" font-size="12" font-style="italic" lengthAdjust="spacingAndGlyphs" textLength="63" x="98.5" y="169.1543">Decorator</text><line style="stroke: #A80036; stroke-width: 1.5;" x1="70.5" x2="163.5" y1="181" y2="181"/><line style="stroke: #A80036; stroke-width: 1.5;" x1="70.5" x2="163.5" y1="189" y2="189"/><!--MD5=[561eccb350fad4022c983deeae73530b]
class decorator3.CD--><rect codeLine="3" fill="#FEFECE" filter="url(#f1tzqe7zqbwv3a)" height="48" id="decorator3.CD" style="stroke: #A80036; stroke-width: 1.5;" width="49" x="440.5" y="41"/><ellipse cx="455.5" cy="57" fill="#ADD1B2" rx="11" ry="11" style="stroke: #A80036; stroke-width: 1.0;"/><path d="M458.4688,62.6406 Q457.8906,62.9375 457.25,63.0781 Q456.6094,63.2344 455.9063,63.2344 Q453.4063,63.2344 452.0781,61.5938 Q450.7656,59.9375 450.7656,56.8125 Q450.7656,53.6875 452.0781,52.0313 Q453.4063,50.375 455.9063,50.375 Q456.6094,50.375 457.25,50.5313 Q457.9063,50.6875 458.4688,50.9844 L458.4688,53.7031 Q457.8438,53.125 457.25,52.8594 Q456.6563,52.5781 456.0313,52.5781 Q454.6875,52.5781 454,53.6563 Q453.3125,54.7188 453.3125,56.8125 Q453.3125,58.9063 454,59.9844 Q454.6875,61.0469 456.0313,61.0469 Q456.6563,61.0469 457.25,60.7813 Q457.8438,60.5 458.4688,59.9219 L458.4688,62.6406 Z "/><text fill="#000000" font-family="sans-serif" font-size="12" lengthAdjust="spacingAndGlyphs" textLength="17" x="469.5" y="61.1543">CD</text><line style="stroke: #A80036; stroke-width: 1.5;" x1="441.5" x2="488.5" y1="73" y2="73"/><line style="stroke: #A80036; stroke-width: 1.5;" x1="441.5" x2="488.5" y1="81" y2="81"/><!--MD5=[16889e098cf492a685a10772b9643eea]
class decorator3.ComputerIBM--><rect codeLine="4" fill="#FEFECE" filter="url(#f1tzqe7zqbwv3a)" height="48" id="decorator3.ComputerIBM" style="stroke: #A80036; stroke-width: 1.5;" width="114" x="390" y="149"/><ellipse cx="405" cy="165" fill="#ADD1B2" rx="11" ry="11" style="stroke: #A80036; stroke-width: 1.0;"/><path d="M407.9688,170.6406 Q407.3906,170.9375 406.75,171.0781 Q406.1094,171.2344 405.4063,171.2344 Q402.9063,171.2344 401.5781,169.5938 Q400.2656,167.9375 400.2656,164.8125 Q400.2656,161.6875 401.5781,160.0313 Q402.9063,158.375 405.4063,158.375 Q406.1094,158.375 406.75,158.5313 Q407.4063,158.6875 407.9688,158.9844 L407.9688,161.7031 Q407.3438,161.125 406.75,160.8594 Q406.1563,160.5781 405.5313,160.5781 Q404.1875,160.5781 403.5,161.6563 Q402.8125,162.7188 402.8125,164.8125 Q402.8125,166.9063 403.5,167.9844 Q404.1875,169.0469 405.5313,169.0469 Q406.1563,169.0469 406.75,168.7813 Q407.3438,168.5 407.9688,167.9219 L407.9688,170.6406 Z "/><text fill="#000000" font-family="sans-serif" font-size="12" lengthAdjust="spacingAndGlyphs" textLength="82" x="419" y="169.1543">ComputerIBM</text><line style="stroke: #A80036; stroke-width: 1.5;" x1="391" x2="503" y1="181" y2="181"/><line style="stroke: #A80036; stroke-width: 1.5;" x1="391" x2="503" y1="189" y2="189"/><!--MD5=[e98611bb0ae1f5376d3afd979f42558f]
class decorator3.ComputerMac--><rect codeLine="5" fill="#FEFECE" filter="url(#f1tzqe7zqbwv3a)" height="48" id="decorator3.ComputerMac" style="stroke: #A80036; stroke-width: 1.5;" width="118" x="237" y="149"/><ellipse cx="252" cy="165" fill="#ADD1B2" rx="11" ry="11" style="stroke: #A80036; stroke-width: 1.0;"/><path d="M254.9688,170.6406 Q254.3906,170.9375 253.75,171.0781 Q253.1094,171.2344 252.4063,171.2344 Q249.9063,171.2344 248.5781,169.5938 Q247.2656,167.9375 247.2656,164.8125 Q247.2656,161.6875 248.5781,160.0313 Q249.9063,158.375 252.4063,158.375 Q253.1094,158.375 253.75,158.5313 Q254.4063,158.6875 254.9688,158.9844 L254.9688,161.7031 Q254.3438,161.125 253.75,160.8594 Q253.1563,160.5781 252.5313,160.5781 Q251.1875,160.5781 250.5,161.6563 Q249.8125,162.7188 249.8125,164.8125 Q249.8125,166.9063 250.5,167.9844 Q251.1875,169.0469 252.5313,169.0469 Q253.1563,169.0469 253.75,168.7813 Q254.3438,168.5 254.9688,167.9219 L254.9688,170.6406 Z "/><text fill="#000000" font-family="sans-serif" font-size="12" lengthAdjust="spacingAndGlyphs" textLength="86" x="266" y="169.1543">ComputerMac</text><line style="stroke: #A80036; stroke-width: 1.5;" x1="238" x2="354" y1="181" y2="181"/><line style="stroke: #A80036; stroke-width: 1.5;" x1="238" x2="354" y1="189" y2="189"/><!--MD5=[2a5cf1c8cd26d09b35bbbe5577c0e3a9]
class decorator3.HD--><rect codeLine="6" fill="#FEFECE" filter="url(#f1tzqe7zqbwv3a)" height="48" id="decorator3.HD" style="stroke: #A80036; stroke-width: 1.5;" width="50" x="305" y="41"/><ellipse cx="320" cy="57" fill="#ADD1B2" rx="11" ry="11" style="stroke: #A80036; stroke-width: 1.0;"/><path d="M322.9688,62.6406 Q322.3906,62.9375 321.75,63.0781 Q321.1094,63.2344 320.4063,63.2344 Q317.9063,63.2344 316.5781,61.5938 Q315.2656,59.9375 315.2656,56.8125 Q315.2656,53.6875 316.5781,52.0313 Q317.9063,50.375 320.4063,50.375 Q321.1094,50.375 321.75,50.5313 Q322.4063,50.6875 322.9688,50.9844 L322.9688,53.7031 Q322.3438,53.125 321.75,52.8594 Q321.1563,52.5781 320.5313,52.5781 Q319.1875,52.5781 318.5,53.6563 Q317.8125,54.7188 317.8125,56.8125 Q317.8125,58.9063 318.5,59.9844 Q319.1875,61.0469 320.5313,61.0469 Q321.1563,61.0469 321.75,60.7813 Q322.3438,60.5 322.9688,59.9219 L322.9688,62.6406 Z "/><text fill="#000000" font-family="sans-serif" font-size="12" lengthAdjust="spacingAndGlyphs" textLength="18" x="334" y="61.1543">HD</text><line style="stroke: #A80036; stroke-width: 1.5;" x1="306" x2="354" y1="73" y2="73"/><line style="stroke: #A80036; stroke-width: 1.5;" x1="306" x2="354" y1="81" y2="81"/><!--MD5=[9e3cc2c3a3d4fec7ca9c19d3b022cb6f]
class decorator3.MainDecorator--><rect codeLine="7" fill="#FEFECE" filter="url(#f1tzqe7zqbwv3a)" height="48" id="decorator3.MainDecorator" style="stroke: #A80036; stroke-width: 1.5;" width="124" x="146" y="41"/><ellipse cx="161" cy="57" fill="#ADD1B2" rx="11" ry="11" style="stroke: #A80036; stroke-width: 1.0;"/><path d="M163.9688,62.6406 Q163.3906,62.9375 162.75,63.0781 Q162.1094,63.2344 161.4063,63.2344 Q158.9063,63.2344 157.5781,61.5938 Q156.2656,59.9375 156.2656,56.8125 Q156.2656,53.6875 157.5781,52.0313 Q158.9063,50.375 161.4063,50.375 Q162.1094,50.375 162.75,50.5313 Q163.4063,50.6875 163.9688,50.9844 L163.9688,53.7031 Q163.3438,53.125 162.75,52.8594 Q162.1563,52.5781 161.5313,52.5781 Q160.1875,52.5781 159.5,53.6563 Q158.8125,54.7188 158.8125,56.8125 Q158.8125,58.9063 159.5,59.9844 Q160.1875,61.0469 161.5313,61.0469 Q162.1563,61.0469 162.75,60.7813 Q163.3438,60.5 163.9688,59.9219 L163.9688,62.6406 Z "/><text fill="#000000" font-family="sans-serif" font-size="12" lengthAdjust="spacingAndGlyphs" textLength="92" x="175" y="61.1543">MainDecorator</text><line style="stroke: #A80036; stroke-width: 1.5;" x1="147" x2="269" y1="73" y2="73"/><line style="stroke: #A80036; stroke-width: 1.5;" x1="147" x2="269" y1="81" y2="81"/><!--MD5=[e54e3be89533898400157b66ba9dab39]
class decorator3.Monitor--><rect codeLine="8" fill="#FEFECE" filter="url(#f1tzqe7zqbwv3a)" height="48" id="decorator3.Monitor" style="stroke: #A80036; stroke-width: 1.5;" width="79" x="31.5" y="41"/><ellipse cx="46.5" cy="57" fill="#ADD1B2" rx="11" ry="11" style="stroke: #A80036; stroke-width: 1.0;"/><path d="M49.4688,62.6406 Q48.8906,62.9375 48.25,63.0781 Q47.6094,63.2344 46.9063,63.2344 Q44.4063,63.2344 43.0781,61.5938 Q41.7656,59.9375 41.7656,56.8125 Q41.7656,53.6875 43.0781,52.0313 Q44.4063,50.375 46.9063,50.375 Q47.6094,50.375 48.25,50.5313 Q48.9063,50.6875 49.4688,50.9844 L49.4688,53.7031 Q48.8438,53.125 48.25,52.8594 Q47.6563,52.5781 47.0313,52.5781 Q45.6875,52.5781 45,53.6563 Q44.3125,54.7188 44.3125,56.8125 Q44.3125,58.9063 45,59.9844 Q45.6875,61.0469 47.0313,61.0469 Q47.6563,61.0469 48.25,60.7813 Q48.8438,60.5 49.4688,59.9219 L49.4688,62.6406 Z "/><text fill="#000000" font-family="sans-serif" font-size="12" lengthAdjust="spacingAndGlyphs" textLength="47" x="60.5" y="61.1543">Monitor</text><line style="stroke: #A80036; stroke-width: 1.5;" x1="32.5" x2="109.5" y1="73" y2="73"/><line style="stroke: #A80036; stroke-width: 1.5;" x1="32.5" x2="109.5" y1="81" y2="81"/><!--MD5=[f062c8b405c5c7de598cb7de6ef7c114]
link decorator3.Decorator to decorator3.Computer--><path codeLine="9" d="M145.43,197 C162.39,210.73 184.3,228.46 203.51,244 " fill="none" id="decorator3.Decorator-to-decorator3.Computer" style="stroke: #A80036; stroke-width: 1.0;"/><polygon fill="none" points="208.03,238.66,219.18,256.68,199.23,249.54,208.03,238.66" style="stroke: #A80036; stroke-width: 1.0;"/><!--MD5=[94594fc01e776be89ae68a9cb7c861d1]
link decorator3.ComputerIBM to decorator3.Computer--><path codeLine="10" d="M403.82,197 C376.14,211.74 339.8,231.1 309.17,247.42 " fill="none" id="decorator3.ComputerIBM-to-decorator3.Computer" style="stroke: #A80036; stroke-width: 1.0;"/><polygon fill="none" points="312.38,253.64,291.44,256.86,305.8,241.28,312.38,253.64" style="stroke: #A80036; stroke-width: 1.0;"/><!--MD5=[94e0e92714f45ecac5869c6be62fcd7e]
link decorator3.ComputerMac to decorator3.Computer--><path codeLine="11" d="M285.58,197 C280.15,209 273.33,224.06 267,238.05 " fill="none" id="decorator3.ComputerMac-to-decorator3.Computer" style="stroke: #A80036; stroke-width: 1.0;"/><polygon fill="none" points="273.19,241.35,258.56,256.68,260.43,235.57,273.19,241.35" style="stroke: #A80036; stroke-width: 1.0;"/><!--MD5=[c5302c1ba3bdec72dab8faff9354f1ff]
link decorator3.CD to decorator3.Decorator--><path codeLine="12" d="M440.25,73.54 C387.4,89.64 261.96,127.85 183.8,151.65 " fill="none" id="decorator3.CD-to-decorator3.Decorator" style="stroke: #A80036; stroke-width: 1.0;"/><polygon fill="none" points="185.72,158.39,164.54,157.52,181.64,144.99,185.72,158.39" style="stroke: #A80036; stroke-width: 1.0;"/><!--MD5=[04ac952515e398d92dbb112202da1f15]
link decorator3.CD to decorator3.Computer--><path codeLine="13" d="M488.93,89.44 C514.14,117.03 546.98,163.34 522,197 C495.43,232.81 371.48,259.2 299.73,271.78 " fill="none" id="decorator3.CD-to-decorator3.Computer" style="stroke: #A80036; stroke-width: 1.0;"/><polygon fill="#A80036" points="294.65,272.66,304.2023,275.0588,299.5761,271.8033,302.8315,267.1771,294.65,272.66" style="stroke: #A80036; stroke-width: 1.0;"/><!--MD5=[ec8dfac9d904f748f625081e12f1e6e2]
link decorator3.HD to decorator3.Decorator--><path codeLine="14" d="M304.79,80.07 C299.28,83.07 293.47,86.18 288,89 C253.72,106.69 215.09,125.53 183.23,140.79 " fill="none" id="decorator3.HD-to-decorator3.Decorator" style="stroke: #A80036; stroke-width: 1.0;"/><polygon fill="none" points="185.92,147.26,164.86,149.55,179.9,134.62,185.92,147.26" style="stroke: #A80036; stroke-width: 1.0;"/><!--MD5=[9bf1252947922ad55e72a93c4c5e0c08]
link decorator3.HD to decorator3.Computer--><path codeLine="15" d="M304.95,81.16 C275.41,99.63 229.15,130.64 220,149 C203.53,182.06 218.27,224.52 231.84,251.99 " fill="none" id="decorator3.HD-to-decorator3.Computer" style="stroke: #A80036; stroke-width: 1.0;"/><polygon fill="#A80036" points="234.17,256.6,233.6725,246.7637,231.9111,252.1394,226.5354,250.378,234.17,256.6" style="stroke: #A80036; stroke-width: 1.0;"/><!--MD5=[457368f3da39b58abaffbd3433d40824]
link decorator3.Monitor to decorator3.Decorator--><path codeLine="16" d="M80.98,89 C86.19,101 92.73,116.06 98.8,130.05 " fill="none" id="decorator3.Monitor-to-decorator3.Decorator" style="stroke: #A80036; stroke-width: 1.0;"/><polygon fill="none" points="105.34,127.54,106.88,148.68,92.5,133.12,105.34,127.54" style="stroke: #A80036; stroke-width: 1.0;"/><!--MD5=[7319a8322e8ce9e8d9ce6b2395c33d90]
link decorator3.Monitor to decorator3.Computer--><path codeLine="17" d="M58.7,89.39 C45.88,117.35 30.42,164.43 52,197 C83.8,245 149.51,265.32 196.06,273.87 " fill="none" id="decorator3.Monitor-to-decorator3.Computer" style="stroke: #A80036; stroke-width: 1.0;"/><polygon fill="#A80036" points="201.07,274.76,192.9039,269.2541,196.1464,273.8894,191.511,277.1319,201.07,274.76" style="stroke: #A80036; stroke-width: 1.0;"/><!--MD5=[41e9dbe7e7611261da900168dc97c907]
@startuml
abstract class decorator3.Computer
abstract class decorator3.Decorator
class decorator3.CD
class decorator3.ComputerIBM
class decorator3.ComputerMac
class decorator3.HD
class decorator3.MainDecorator
class decorator3.Monitor
decorator3.Decorator - -|> decorator3.Computer
decorator3.ComputerIBM - -|> decorator3.Computer
decorator3.ComputerMac - -|> decorator3.Computer
decorator3.CD - -|> decorator3.Decorator
decorator3.CD - -> decorator3.Computer
decorator3.HD - -|> decorator3.Decorator
decorator3.HD - -> decorator3.Computer
decorator3.Monitor - -|> decorator3.Decorator
decorator3.Monitor - -> decorator3.Computer
@enduml

PlantUML version 1.2020.18(Wed Sep 30 22:40:44 EEST 2020)
(GPL source distribution)
Java Runtime: OpenJDK Runtime Environment
JVM: OpenJDK 64-Bit Server VM
Default Encoding: UTF-8
Language: en
Country: US
--></g></svg>