<?xml version="1.0" encoding="UTF-8" standalone="no"?><svg xmlns="http://www.w3.org/2000/svg" xmlns:xlink="http://www.w3.org/1999/xlink" contentScriptType="application/ecmascript" contentStyleType="text/css" height="220px" preserveAspectRatio="none" style="width:524px;height:220px;" version="1.1" viewBox="0 0 524 220" width="524px" zoomAndPan="magnify"><defs><filter height="300%" id="fi6nd73rqrmse" width="300%" x="-1" y="-1"><feGaussianBlur result="blurOut" stdDeviation="2.0"/><feColorMatrix in="blurOut" result="blurOut2" type="matrix" values="0 0 0 0 0 0 0 0 0 0 0 0 0 0 0 0 0 0 .4 0"/><feOffset dx="4.0" dy="4.0" in="blurOut2" result="blurOut3"/><feBlend in="SourceGraphic" in2="blurOut3" mode="normal"/></filter></defs><g><!--MD5=[5ba48d1e32b0e468db5c6b12c88d2436]
cluster com.company.state--><polygon fill="#FFFFFF" filter="url(#fi6nd73rqrmse)" points="16,6,176,6,183,28.2969,507,28.2969,507,213,16,213,16,6" style="stroke: #000000; stroke-width: 1.5;"/><line style="stroke: #000000; stroke-width: 1.5;" x1="16" x2="183" y1="28.2969" y2="28.2969"/><text fill="#000000" font-family="sans-serif" font-size="14" font-weight="bold" lengthAdjust="spacingAndGlyphs" textLength="154" x="20" y="20.9951">com.company.state</text><!--MD5=[351e0f678abd6623afe12bdb87de67ca]
class com.company.state.Executor--><rect codeLine="1" fill="#FEFECE" filter="url(#fi6nd73rqrmse)" height="48" id="com.company.state.Executor" style="stroke: #A80036; stroke-width: 1.5;" width="87" x="403.5" y="41"/><ellipse cx="418.5" cy="57" fill="#ADD1B2" rx="11" ry="11" style="stroke: #A80036; stroke-width: 1.0;"/><path d="M421.4688,62.6406 Q420.8906,62.9375 420.25,63.0781 Q419.6094,63.2344 418.9063,63.2344 Q416.4063,63.2344 415.0781,61.5938 Q413.7656,59.9375 413.7656,56.8125 Q413.7656,53.6875 415.0781,52.0313 Q416.4063,50.375 418.9063,50.375 Q419.6094,50.375 420.25,50.5313 Q420.9063,50.6875 421.4688,50.9844 L421.4688,53.7031 Q420.8438,53.125 420.25,52.8594 Q419.6563,52.5781 419.0313,52.5781 Q417.6875,52.5781 417,53.6563 Q416.3125,54.7188 416.3125,56.8125 Q416.3125,58.9063 417,59.9844 Q417.6875,61.0469 419.0313,61.0469 Q419.6563,61.0469 420.25,60.7813 Q420.8438,60.5 421.4688,59.9219 L421.4688,62.6406 Z "/><text fill="#000000" font-family="sans-serif" font-size="12" lengthAdjust="spacingAndGlyphs" textLength="55" x="432.5" y="61.1543">Executor</text><line style="stroke: #A80036; stroke-width: 1.5;" x1="404.5" x2="489.5" y1="73" y2="73"/><line style="stroke: #A80036; stroke-width: 1.5;" x1="404.5" x2="489.5" y1="81" y2="81"/><!--MD5=[efb757fdcc5f8ef5804f02bf903a0788]
class com.company.state.MobileContext--><rect codeLine="2" fill="#FEFECE" filter="url(#fi6nd73rqrmse)" height="48" id="com.company.state.MobileContext" style="stroke: #A80036; stroke-width: 1.5;" width="120" x="248" y="41"/><ellipse cx="263" cy="57" fill="#ADD1B2" rx="11" ry="11" style="stroke: #A80036; stroke-width: 1.0;"/><path d="M265.9688,62.6406 Q265.3906,62.9375 264.75,63.0781 Q264.1094,63.2344 263.4063,63.2344 Q260.9063,63.2344 259.5781,61.5938 Q258.2656,59.9375 258.2656,56.8125 Q258.2656,53.6875 259.5781,52.0313 Q260.9063,50.375 263.4063,50.375 Q264.1094,50.375 264.75,50.5313 Q265.4063,50.6875 265.9688,50.9844 L265.9688,53.7031 Q265.3438,53.125 264.75,52.8594 Q264.1563,52.5781 263.5313,52.5781 Q262.1875,52.5781 261.5,53.6563 Q260.8125,54.7188 260.8125,56.8125 Q260.8125,58.9063 261.5,59.9844 Q262.1875,61.0469 263.5313,61.0469 Q264.1563,61.0469 264.75,60.7813 Q265.3438,60.5 265.9688,59.9219 L265.9688,62.6406 Z "/><text fill="#000000" font-family="sans-serif" font-size="12" lengthAdjust="spacingAndGlyphs" textLength="88" x="277" y="61.1543">MobileContext</text><line style="stroke: #A80036; stroke-width: 1.5;" x1="249" x2="367" y1="73" y2="73"/><line style="stroke: #A80036; stroke-width: 1.5;" x1="249" x2="367" y1="81" y2="81"/><!--MD5=[263f284b0b66972815da1bf2eb091efb]
class com.company.state.Ringing--><rect codeLine="3" fill="#FEFECE" filter="url(#fi6nd73rqrmse)" height="48" id="com.company.state.Ringing" style="stroke: #A80036; stroke-width: 1.5;" width="78" x="135" y="41"/><ellipse cx="150" cy="57" fill="#ADD1B2" rx="11" ry="11" style="stroke: #A80036; stroke-width: 1.0;"/><path d="M152.9688,62.6406 Q152.3906,62.9375 151.75,63.0781 Q151.1094,63.2344 150.4063,63.2344 Q147.9063,63.2344 146.5781,61.5938 Q145.2656,59.9375 145.2656,56.8125 Q145.2656,53.6875 146.5781,52.0313 Q147.9063,50.375 150.4063,50.375 Q151.1094,50.375 151.75,50.5313 Q152.4063,50.6875 152.9688,50.9844 L152.9688,53.7031 Q152.3438,53.125 151.75,52.8594 Q151.1563,52.5781 150.5313,52.5781 Q149.1875,52.5781 148.5,53.6563 Q147.8125,54.7188 147.8125,56.8125 Q147.8125,58.9063 148.5,59.9844 Q149.1875,61.0469 150.5313,61.0469 Q151.1563,61.0469 151.75,60.7813 Q152.3438,60.5 152.9688,59.9219 L152.9688,62.6406 Z "/><text fill="#000000" font-family="sans-serif" font-size="12" lengthAdjust="spacingAndGlyphs" textLength="46" x="164" y="61.1543">Ringing</text><line style="stroke: #A80036; stroke-width: 1.5;" x1="136" x2="212" y1="73" y2="73"/><line style="stroke: #A80036; stroke-width: 1.5;" x1="136" x2="212" y1="81" y2="81"/><!--MD5=[fab81e30e82f9aa693da29bcc8ecc42f]
class com.company.state.Silent--><rect codeLine="4" fill="#FEFECE" filter="url(#fi6nd73rqrmse)" height="48" id="com.company.state.Silent" style="stroke: #A80036; stroke-width: 1.5;" width="67" x="32.5" y="41"/><ellipse cx="47.5" cy="57" fill="#ADD1B2" rx="11" ry="11" style="stroke: #A80036; stroke-width: 1.0;"/><path d="M50.4688,62.6406 Q49.8906,62.9375 49.25,63.0781 Q48.6094,63.2344 47.9063,63.2344 Q45.4063,63.2344 44.0781,61.5938 Q42.7656,59.9375 42.7656,56.8125 Q42.7656,53.6875 44.0781,52.0313 Q45.4063,50.375 47.9063,50.375 Q48.6094,50.375 49.25,50.5313 Q49.9063,50.6875 50.4688,50.9844 L50.4688,53.7031 Q49.8438,53.125 49.25,52.8594 Q48.6563,52.5781 48.0313,52.5781 Q46.6875,52.5781 46,53.6563 Q45.3125,54.7188 45.3125,56.8125 Q45.3125,58.9063 46,59.9844 Q46.6875,61.0469 48.0313,61.0469 Q48.6563,61.0469 49.25,60.7813 Q49.8438,60.5 50.4688,59.9219 L50.4688,62.6406 Z "/><text fill="#000000" font-family="sans-serif" font-size="12" lengthAdjust="spacingAndGlyphs" textLength="35" x="61.5" y="61.1543">Silent</text><line style="stroke: #A80036; stroke-width: 1.5;" x1="33.5" x2="98.5" y1="73" y2="73"/><line style="stroke: #A80036; stroke-width: 1.5;" x1="33.5" x2="98.5" y1="81" y2="81"/><!--MD5=[23c2961767e2e8bd2f3923a8f9ffaf64]
class com.company.state.MobileAlertState--><rect codeLine="5" fill="#FEFECE" filter="url(#fi6nd73rqrmse)" height="48" id="com.company.state.MobileAlertState" style="stroke: #A80036; stroke-width: 1.5;" width="135" x="69.5" y="149"/><ellipse cx="84.5" cy="165" fill="#B4A7E5" rx="11" ry="11" style="stroke: #A80036; stroke-width: 1.0;"/><path d="M80.4219,160.7656 L80.4219,158.6094 L87.8125,158.6094 L87.8125,160.7656 L85.3438,160.7656 L85.3438,168.8438 L87.8125,168.8438 L87.8125,171 L80.4219,171 L80.4219,168.8438 L82.8906,168.8438 L82.8906,160.7656 L80.4219,160.7656 Z "/><text fill="#000000" font-family="sans-serif" font-size="12" font-style="italic" lengthAdjust="spacingAndGlyphs" textLength="103" x="98.5" y="169.1543">MobileAlertState</text><line style="stroke: #A80036; stroke-width: 1.5;" x1="70.5" x2="203.5" y1="181" y2="181"/><line style="stroke: #A80036; stroke-width: 1.5;" x1="70.5" x2="203.5" y1="189" y2="189"/><!--MD5=[19d2b89cba2d902cdb1278590cc88050]
link com.company.state.Ringing to com.company.state.MobileAlertState--><path codeLine="6" d="M165.97,89 C161.83,100.86 156.65,115.72 151.81,129.57 " fill="none" id="com.company.state.Ringing-to-com.company.state.MobileAlertState" style="stroke: #A80036; stroke-width: 1.0;"/><polygon fill="none" points="158.34,132.1,145.14,148.68,145.12,127.49,158.34,132.1" style="stroke: #A80036; stroke-width: 1.0;"/><!--MD5=[35951882f4a6f7edccfcdf7a653f141d]
link com.company.state.Silent to com.company.state.MobileAlertState--><path codeLine="7" d="M81.41,89 C89.81,101.55 100.47,117.46 110.19,131.97 " fill="none" id="com.company.state.Silent-to-com.company.state.MobileAlertState" style="stroke: #A80036; stroke-width: 1.0;"/><polygon fill="none" points="116.06,128.17,121.38,148.68,104.43,135.96,116.06,128.17" style="stroke: #A80036; stroke-width: 1.0;"/><!--MD5=[3f700204e74c3792dba258ca5450b1d4]
@startuml
class com.company.state.Executor
class com.company.state.MobileContext
class com.company.state.Ringing
class com.company.state.Silent
interface com.company.state.MobileAlertState
com.company.state.Ringing - -|> com.company.state.MobileAlertState
com.company.state.Silent - -|> com.company.state.MobileAlertState
@enduml

PlantUML version 1.2020.18(Wed Sep 30 22:40:44 EEST 2020)
(GPL source distribution)
Java Runtime: OpenJDK Runtime Environment
JVM: OpenJDK 64-Bit Server VM
Default Encoding: UTF-8
Language: en
Country: US
--></g></svg>