<?xml version="1.0" encoding="UTF-8" standalone="no"?><svg xmlns="http://www.w3.org/2000/svg" xmlns:xlink="http://www.w3.org/1999/xlink" contentScriptType="application/ecmascript" contentStyleType="text/css" height="220px" preserveAspectRatio="none" style="width:614px;height:220px;" version="1.1" viewBox="0 0 614 220" width="614px" zoomAndPan="magnify"><defs><filter height="300%" id="fvsmqov08u22d" width="300%" x="-1" y="-1"><feGaussianBlur result="blurOut" stdDeviation="2.0"/><feColorMatrix in="blurOut" result="blurOut2" type="matrix" values="0 0 0 0 0 0 0 0 0 0 0 0 0 0 0 0 0 0 .4 0"/><feOffset dx="4.0" dy="4.0" in="blurOut2" result="blurOut3"/><feBlend in="SourceGraphic" in2="blurOut3" mode="normal"/></filter></defs><g><!--MD5=[d01dc6df42b9bd7c9eae224414363025]
cluster com.company.proxy--><polygon fill="#FFFFFF" filter="url(#fvsmqov08u22d)" points="16,6,181,6,188,28.2969,381,28.2969,381,213,16,213,16,6" style="stroke: #000000; stroke-width: 1.5;"/><line style="stroke: #000000; stroke-width: 1.5;" x1="16" x2="188" y1="28.2969" y2="28.2969"/><text fill="#000000" font-family="sans-serif" font-size="14" font-weight="bold" lengthAdjust="spacingAndGlyphs" textLength="159" x="20" y="20.9951">com.company.proxy</text><!--MD5=[7db3c59d38ae5b37b484eb2df9368145]
cluster java.util--><polygon fill="#FFFFFF" filter="url(#fvsmqov08u22d)" points="405,114,471,114,478,136.2969,597,136.2969,597,213,405,213,405,114" style="stroke: #000000; stroke-width: 1.5;"/><line style="stroke: #000000; stroke-width: 1.5;" x1="405" x2="478" y1="136.2969" y2="136.2969"/><text fill="#000000" font-family="sans-serif" font-size="14" font-weight="bold" lengthAdjust="spacingAndGlyphs" textLength="60" x="409" y="128.9951">java.util</text><!--MD5=[1586b212dce4d03fec7e02607597ed1e]
class com.company.proxy.Executor--><rect codeLine="1" fill="#FEFECE" filter="url(#fvsmqov08u22d)" height="48" id="com.company.proxy.Executor" style="stroke: #A80036; stroke-width: 1.5;" width="87" x="277.5" y="41"/><ellipse cx="292.5" cy="57" fill="#ADD1B2" rx="11" ry="11" style="stroke: #A80036; stroke-width: 1.0;"/><path d="M295.4688,62.6406 Q294.8906,62.9375 294.25,63.0781 Q293.6094,63.2344 292.9063,63.2344 Q290.4063,63.2344 289.0781,61.5938 Q287.7656,59.9375 287.7656,56.8125 Q287.7656,53.6875 289.0781,52.0313 Q290.4063,50.375 292.9063,50.375 Q293.6094,50.375 294.25,50.5313 Q294.9063,50.6875 295.4688,50.9844 L295.4688,53.7031 Q294.8438,53.125 294.25,52.8594 Q293.6563,52.5781 293.0313,52.5781 Q291.6875,52.5781 291,53.6563 Q290.3125,54.7188 290.3125,56.8125 Q290.3125,58.9063 291,59.9844 Q291.6875,61.0469 293.0313,61.0469 Q293.6563,61.0469 294.25,60.7813 Q294.8438,60.5 295.4688,59.9219 L295.4688,62.6406 Z "/><text fill="#000000" font-family="sans-serif" font-size="12" lengthAdjust="spacingAndGlyphs" textLength="55" x="306.5" y="61.1543">Executor</text><line style="stroke: #A80036; stroke-width: 1.5;" x1="278.5" x2="363.5" y1="73" y2="73"/><line style="stroke: #A80036; stroke-width: 1.5;" x1="278.5" x2="363.5" y1="81" y2="81"/><!--MD5=[b726fc152995dfa28c242d1c010cf7be]
class com.company.proxy.InternetProxy--><rect codeLine="2" fill="#FEFECE" filter="url(#fvsmqov08u22d)" height="48" id="com.company.proxy.InternetProxy" style="stroke: #A80036; stroke-width: 1.5;" width="115" x="127.5" y="41"/><ellipse cx="142.5" cy="57" fill="#ADD1B2" rx="11" ry="11" style="stroke: #A80036; stroke-width: 1.0;"/><path d="M145.4688,62.6406 Q144.8906,62.9375 144.25,63.0781 Q143.6094,63.2344 142.9063,63.2344 Q140.4063,63.2344 139.0781,61.5938 Q137.7656,59.9375 137.7656,56.8125 Q137.7656,53.6875 139.0781,52.0313 Q140.4063,50.375 142.9063,50.375 Q143.6094,50.375 144.25,50.5313 Q144.9063,50.6875 145.4688,50.9844 L145.4688,53.7031 Q144.8438,53.125 144.25,52.8594 Q143.6563,52.5781 143.0313,52.5781 Q141.6875,52.5781 141,53.6563 Q140.3125,54.7188 140.3125,56.8125 Q140.3125,58.9063 141,59.9844 Q141.6875,61.0469 143.0313,61.0469 Q143.6563,61.0469 144.25,60.7813 Q144.8438,60.5 145.4688,59.9219 L145.4688,62.6406 Z "/><text fill="#000000" font-family="sans-serif" font-size="12" lengthAdjust="spacingAndGlyphs" textLength="83" x="156.5" y="61.1543">InternetProxy</text><line style="stroke: #A80036; stroke-width: 1.5;" x1="128.5" x2="241.5" y1="73" y2="73"/><line style="stroke: #A80036; stroke-width: 1.5;" x1="128.5" x2="241.5" y1="81" y2="81"/><!--MD5=[9c86c8de50b33c20c16367be4a35a8e7]
class com.company.proxy.Zain--><rect codeLine="3" fill="#FEFECE" filter="url(#fvsmqov08u22d)" height="48" id="com.company.proxy.Zain" style="stroke: #A80036; stroke-width: 1.5;" width="60" x="32" y="41"/><ellipse cx="47" cy="57" fill="#ADD1B2" rx="11" ry="11" style="stroke: #A80036; stroke-width: 1.0;"/><path d="M49.9688,62.6406 Q49.3906,62.9375 48.75,63.0781 Q48.1094,63.2344 47.4063,63.2344 Q44.9063,63.2344 43.5781,61.5938 Q42.2656,59.9375 42.2656,56.8125 Q42.2656,53.6875 43.5781,52.0313 Q44.9063,50.375 47.4063,50.375 Q48.1094,50.375 48.75,50.5313 Q49.4063,50.6875 49.9688,50.9844 L49.9688,53.7031 Q49.3438,53.125 48.75,52.8594 Q48.1563,52.5781 47.5313,52.5781 Q46.1875,52.5781 45.5,53.6563 Q44.8125,54.7188 44.8125,56.8125 Q44.8125,58.9063 45.5,59.9844 Q46.1875,61.0469 47.5313,61.0469 Q48.1563,61.0469 48.75,60.7813 Q49.3438,60.5 49.9688,59.9219 L49.9688,62.6406 Z "/><text fill="#000000" font-family="sans-serif" font-size="12" lengthAdjust="spacingAndGlyphs" textLength="28" x="61" y="61.1543">Zain</text><line style="stroke: #A80036; stroke-width: 1.5;" x1="33" x2="91" y1="73" y2="73"/><line style="stroke: #A80036; stroke-width: 1.5;" x1="33" x2="91" y1="81" y2="81"/><!--MD5=[4d5905338fda73780e7d14f6b0fa1b72]
class com.company.proxy.InternetServiceProvider--><rect codeLine="6" fill="#FEFECE" filter="url(#fvsmqov08u22d)" height="48" id="com.company.proxy.InternetServiceProvider" style="stroke: #A80036; stroke-width: 1.5;" width="178" x="64" y="149"/><ellipse cx="79" cy="165" fill="#B4A7E5" rx="11" ry="11" style="stroke: #A80036; stroke-width: 1.0;"/><path d="M74.9219,160.7656 L74.9219,158.6094 L82.3125,158.6094 L82.3125,160.7656 L79.8438,160.7656 L79.8438,168.8438 L82.3125,168.8438 L82.3125,171 L74.9219,171 L74.9219,168.8438 L77.3906,168.8438 L77.3906,160.7656 L74.9219,160.7656 Z "/><text fill="#000000" font-family="sans-serif" font-size="12" font-style="italic" lengthAdjust="spacingAndGlyphs" textLength="146" x="93" y="169.1543">InternetServiceProvider</text><line style="stroke: #A80036; stroke-width: 1.5;" x1="65" x2="241" y1="181" y2="181"/><line style="stroke: #A80036; stroke-width: 1.5;" x1="65" x2="241" y1="189" y2="189"/><!--MD5=[bcf2fe05997e7549c3ee1a51188c70a5]
class java.util.Arrays--><rect codeLine="4" fill="#FEFECE" filter="url(#fvsmqov08u22d)" height="48" id="java.util.Arrays" style="stroke: #A80036; stroke-width: 1.5;" width="71" x="509.5" y="149"/><ellipse cx="524.5" cy="165" fill="#ADD1B2" rx="11" ry="11" style="stroke: #A80036; stroke-width: 1.0;"/><path d="M527.4688,170.6406 Q526.8906,170.9375 526.25,171.0781 Q525.6094,171.2344 524.9063,171.2344 Q522.4063,171.2344 521.0781,169.5938 Q519.7656,167.9375 519.7656,164.8125 Q519.7656,161.6875 521.0781,160.0313 Q522.4063,158.375 524.9063,158.375 Q525.6094,158.375 526.25,158.5313 Q526.9063,158.6875 527.4688,158.9844 L527.4688,161.7031 Q526.8438,161.125 526.25,160.8594 Q525.6563,160.5781 525.0313,160.5781 Q523.6875,160.5781 523,161.6563 Q522.3125,162.7188 522.3125,164.8125 Q522.3125,166.9063 523,167.9844 Q523.6875,169.0469 525.0313,169.0469 Q525.6563,169.0469 526.25,168.7813 Q526.8438,168.5 527.4688,167.9219 L527.4688,170.6406 Z "/><text fill="#000000" font-family="sans-serif" font-size="12" lengthAdjust="spacingAndGlyphs" textLength="39" x="538.5" y="169.1543">Arrays</text><line style="stroke: #A80036; stroke-width: 1.5;" x1="510.5" x2="579.5" y1="181" y2="181"/><line style="stroke: #A80036; stroke-width: 1.5;" x1="510.5" x2="579.5" y1="189" y2="189"/><!--MD5=[6b7a9fc05e2cf62df8c1411c2048df3f]
class java.util.List--><rect codeLine="5" fill="#FEFECE" filter="url(#fvsmqov08u22d)" height="48" id="java.util.List" style="stroke: #A80036; stroke-width: 1.5;" width="53" x="421.5" y="149"/><ellipse cx="436.5" cy="165" fill="#ADD1B2" rx="11" ry="11" style="stroke: #A80036; stroke-width: 1.0;"/><path d="M439.4688,170.6406 Q438.8906,170.9375 438.25,171.0781 Q437.6094,171.2344 436.9063,171.2344 Q434.4063,171.2344 433.0781,169.5938 Q431.7656,167.9375 431.7656,164.8125 Q431.7656,161.6875 433.0781,160.0313 Q434.4063,158.375 436.9063,158.375 Q437.6094,158.375 438.25,158.5313 Q438.9063,158.6875 439.4688,158.9844 L439.4688,161.7031 Q438.8438,161.125 438.25,160.8594 Q437.6563,160.5781 437.0313,160.5781 Q435.6875,160.5781 435,161.6563 Q434.3125,162.7188 434.3125,164.8125 Q434.3125,166.9063 435,167.9844 Q435.6875,169.0469 437.0313,169.0469 Q437.6563,169.0469 438.25,168.7813 Q438.8438,168.5 439.4688,167.9219 L439.4688,170.6406 Z "/><text fill="#000000" font-family="sans-serif" font-size="12" lengthAdjust="spacingAndGlyphs" textLength="21" x="450.5" y="169.1543">List</text><line style="stroke: #A80036; stroke-width: 1.5;" x1="422.5" x2="473.5" y1="181" y2="181"/><line style="stroke: #A80036; stroke-width: 1.5;" x1="422.5" x2="473.5" y1="189" y2="189"/><!--MD5=[91162bea47c7651db4a382bc2695547b]
link com.company.proxy.Executor to java.util.Arrays--><path codeLine="7" d="M364.77,68.36 C401.24,72.09 453.3,81.63 492,106 C507.08,115.5 519.77,130.81 528.95,144.3 " fill="none" id="com.company.proxy.Executor-to-java.util.Arrays" style="stroke: #A80036; stroke-width: 1.0; stroke-dasharray: 7.0,7.0;"/><polygon fill="#A80036" points="531.92,148.79,530.2713,139.0801,529.1531,144.6254,523.6078,143.5072,531.92,148.79" style="stroke: #A80036; stroke-width: 1.0;"/><!--MD5=[774c1ff82f24ac67e2f8718236e2e8fc]
link com.company.proxy.Executor to java.util.List--><path codeLine="8" d="M357.96,89.04 C365.77,94.34 373.81,100.15 381,106 C395.69,117.95 410.83,132.62 422.99,145.1 " fill="none" id="com.company.proxy.Executor-to-java.util.List" style="stroke: #A80036; stroke-width: 1.0; stroke-dasharray: 7.0,7.0;"/><polygon fill="#A80036" points="426.66,148.89,423.2732,139.6418,423.1819,145.2979,417.5258,145.2067,426.66,148.89" style="stroke: #A80036; stroke-width: 1.0;"/><!--MD5=[bcbff4dc22b357cd9b55892cc6e7594f]
link com.company.proxy.InternetProxy to java.util.Arrays--><path codeLine="9" d="M242.82,85.14 C248.58,86.62 254.38,87.95 260,89 C310.81,98.53 446.24,81.96 492,106 C508.27,114.55 521.29,130.49 530.36,144.57 " fill="none" id="com.company.proxy.InternetProxy-to-java.util.Arrays" style="stroke: #A80036; stroke-width: 1.0; stroke-dasharray: 7.0,7.0;"/><polygon fill="#A80036" points="533.04,148.87,531.6532,139.1193,530.3862,144.6324,524.873,143.3654,533.04,148.87" style="stroke: #A80036; stroke-width: 1.0;"/><!--MD5=[40d2967919935a6c40a0ca7bfb1170ad]
link com.company.proxy.InternetProxy to java.util.List--><path codeLine="10" d="M242.9,84.75 C248.65,86.31 254.42,87.76 260,89 C313.01,100.78 332.31,81.95 381,106 C399.33,115.05 415.76,131.04 427.76,145.02 " fill="none" id="com.company.proxy.InternetProxy-to-java.util.List" style="stroke: #A80036; stroke-width: 1.0; stroke-dasharray: 7.0,7.0;"/><polygon fill="#A80036" points="431.03,148.9,428.2859,139.4411,427.8067,145.0777,422.1702,144.5984,431.03,148.9" style="stroke: #A80036; stroke-width: 1.0;"/><!--MD5=[953a63dd596c8404428636785c389c5f]
link com.company.proxy.InternetProxy to com.company.proxy.InternetServiceProvider--><path codeLine="11" d="M178.06,89 C174.52,100.73 170.09,115.37 165.96,129.09 " fill="none" id="com.company.proxy.InternetProxy-to-com.company.proxy.InternetServiceProvider" style="stroke: #A80036; stroke-width: 1.0;"/><polygon fill="none" points="172.52,131.55,160.04,148.68,159.12,127.51,172.52,131.55" style="stroke: #A80036; stroke-width: 1.0;"/><!--MD5=[73640b225a79d74045139023e8402925]
link com.company.proxy.Zain to com.company.proxy.InternetServiceProvider--><path codeLine="12" d="M81.75,89 C92.88,101.97 107.08,118.51 119.87,133.41 " fill="none" id="com.company.proxy.Zain-to-com.company.proxy.InternetServiceProvider" style="stroke: #A80036; stroke-width: 1.0;"/><polygon fill="none" points="125.26,128.94,132.98,148.68,114.64,138.06,125.26,128.94" style="stroke: #A80036; stroke-width: 1.0;"/><!--MD5=[a7c84e45574554370f7bfa344449fa20]
@startuml
class com.company.proxy.Executor
class com.company.proxy.InternetProxy
class com.company.proxy.Zain
class java.util.Arrays
class java.util.List
interface com.company.proxy.InternetServiceProvider
com.company.proxy.Executor ..> java.util.Arrays
com.company.proxy.Executor ..> java.util.List
com.company.proxy.InternetProxy ..> java.util.Arrays
com.company.proxy.InternetProxy ..> java.util.List
com.company.proxy.InternetProxy - -|> com.company.proxy.InternetServiceProvider
com.company.proxy.Zain - -|> com.company.proxy.InternetServiceProvider
@enduml

PlantUML version 1.2020.18(Wed Sep 30 22:40:44 EEST 2020)
(GPL source distribution)
Java Runtime: OpenJDK Runtime Environment
JVM: OpenJDK 64-Bit Server VM
Default Encoding: UTF-8
Language: en
Country: US
--></g></svg>