<?xml version="1.0" encoding="UTF-8" standalone="no"?><svg xmlns="http://www.w3.org/2000/svg" xmlns:xlink="http://www.w3.org/1999/xlink" contentScriptType="application/ecmascript" contentStyleType="text/css" height="417px" preserveAspectRatio="none" style="width:464px;height:417px;" version="1.1" viewBox="0 0 464 417" width="464px" zoomAndPan="magnify"><defs/><g><text fill="#000000" font-family="sans-serif" font-size="18" lengthAdjust="spacingAndGlyphs" textLength="131" x="168.5" y="16.708">Design pattern</text><!--cluster myDecorator--><polygon fill="#FFFFFF" points="14,36.9531,122,36.9531,129,59.25,442,59.25,442,405.9531,14,405.9531,14,36.9531" style="stroke: #000000; stroke-width: 1.5;"/><line style="stroke: #000000; stroke-width: 1.5;" x1="14" x2="129" y1="59.25" y2="59.25"/><text fill="#000000" font-family="sans-serif" font-size="14" font-weight="bold" lengthAdjust="spacingAndGlyphs" textLength="102" x="18" y="51.9482">myDecorator</text><!--class Computer--><rect fill="#FEFECE" height="82.9219" id="Computer" style="stroke: #A80036; stroke-width: 1.5;" width="411" x="22.5" y="63.9531"/><ellipse cx="179.75" cy="79.9531" fill="#ADD1B2" rx="11" ry="11" style="stroke: #A80036; stroke-width: 1.0;"/><path d="M182.7188,85.5938 Q182.1406,85.8906 181.5,86.0313 Q180.8594,86.1875 180.1563,86.1875 Q177.6563,86.1875 176.3281,84.5469 Q175.0156,82.8906 175.0156,79.7656 Q175.0156,76.6406 176.3281,74.9844 Q177.6563,73.3281 180.1563,73.3281 Q180.8594,73.3281 181.5,73.4844 Q182.1563,73.6406 182.7188,73.9375 L182.7188,76.6563 Q182.0938,76.0781 181.5,75.8125 Q180.9063,75.5313 180.2813,75.5313 Q178.9375,75.5313 178.25,76.6094 Q177.5625,77.6719 177.5625,79.7656 Q177.5625,81.8594 178.25,82.9375 Q178.9375,84 180.2813,84 Q180.9063,84 181.5,83.7344 Q182.0938,83.4531 182.7188,82.875 L182.7188,85.5938 Z "/><text fill="#FF0000" font-family="sans-serif" font-size="16" font-weight="bold" lengthAdjust="spacingAndGlyphs" textLength="88" x="200.25" y="85.4922">Computer</text><line style="stroke: #A80036; stroke-width: 1.5;" x1="23.5" x2="432.5" y1="95.9531" y2="95.9531"/><line style="stroke: #A80036; stroke-width: 1.5;" x1="23.5" x2="432.5" y1="103.9531" y2="103.9531"/><text fill="#000000" font-family="sans-serif" font-size="15" font-weight="bold" lengthAdjust="spacingAndGlyphs" textLength="399" x="28.5" y="121.8765">public String description( ){ return "computer";}</text><text fill="#000000" font-family="sans-serif" font-size="15" font-weight="bold" lengthAdjust="spacingAndGlyphs" textLength="261" x="28.5" y="139.3374">public int account( ){ return 1;}</text><!--class Decorator--><rect fill="#FEFECE" height="82.9219" id="Decorator" style="stroke: #A80036; stroke-width: 1.5;" width="233" x="111.5" y="206.9531"/><ellipse cx="179.75" cy="222.9531" fill="#A9DCDF" rx="11" ry="11" style="stroke: #A80036; stroke-width: 1.0;"/><path d="M179.8594,218.2969 L178.7031,223.375 L181.0313,223.375 L179.8594,218.2969 Z M178.375,216.0625 L181.3594,216.0625 L184.7188,228.4531 L182.2656,228.4531 L181.5,225.3906 L178.2188,225.3906 L177.4688,228.4531 L175.0313,228.4531 L178.375,216.0625 Z "/><text fill="#FF0000" font-family="sans-serif" font-size="16" font-style="italic" font-weight="bold" lengthAdjust="spacingAndGlyphs" textLength="88" x="200.25" y="228.4922">Decorator</text><line style="stroke: #A80036; stroke-width: 1.5;" x1="112.5" x2="343.5" y1="238.9531" y2="238.9531"/><line style="stroke: #A80036; stroke-width: 1.5;" x1="112.5" x2="343.5" y1="246.9531" y2="246.9531"/><text fill="#000000" font-family="sans-serif" font-size="15" font-weight="bold" lengthAdjust="spacingAndGlyphs" textLength="221" x="117.5" y="264.8765">public String description( );</text><text fill="#000000" font-family="sans-serif" font-size="15" font-weight="bold" lengthAdjust="spacingAndGlyphs" textLength="168" x="117.5" y="282.3374">public int account( );</text><!--class CD--><rect fill="#FEFECE" height="48" id="CD" style="stroke: #A80036; stroke-width: 1.5;" width="57" x="22.5" y="349.9531"/><ellipse cx="37.5" cy="365.9531" fill="#ADD1B2" rx="11" ry="11" style="stroke: #A80036; stroke-width: 1.0;"/><path d="M40.4688,371.5938 Q39.8906,371.8906 39.25,372.0313 Q38.6094,372.1875 37.9063,372.1875 Q35.4063,372.1875 34.0781,370.5469 Q32.7656,368.8906 32.7656,365.7656 Q32.7656,362.6406 34.0781,360.9844 Q35.4063,359.3281 37.9063,359.3281 Q38.6094,359.3281 39.25,359.4844 Q39.9063,359.6406 40.4688,359.9375 L40.4688,362.6563 Q39.8438,362.0781 39.25,361.8125 Q38.6563,361.5313 38.0313,361.5313 Q36.6875,361.5313 36,362.6094 Q35.3125,363.6719 35.3125,365.7656 Q35.3125,367.8594 36,368.9375 Q36.6875,370 38.0313,370 Q38.6563,370 39.25,369.7344 Q39.8438,369.4531 40.4688,368.875 L40.4688,371.5938 Z "/><text fill="#FF0000" font-family="sans-serif" font-size="16" font-weight="bold" lengthAdjust="spacingAndGlyphs" textLength="25" x="51.5" y="371.4922">CD</text><line style="stroke: #A80036; stroke-width: 1.5;" x1="23.5" x2="78.5" y1="381.9531" y2="381.9531"/><line style="stroke: #A80036; stroke-width: 1.5;" x1="23.5" x2="78.5" y1="389.9531" y2="389.9531"/><!--class HD--><rect fill="#FEFECE" height="48" id="HD" style="stroke: #A80036; stroke-width: 1.5;" width="57" x="114.5" y="349.9531"/><ellipse cx="129.5" cy="365.9531" fill="#ADD1B2" rx="11" ry="11" style="stroke: #A80036; stroke-width: 1.0;"/><path d="M132.4688,371.5938 Q131.8906,371.8906 131.25,372.0313 Q130.6094,372.1875 129.9063,372.1875 Q127.4063,372.1875 126.0781,370.5469 Q124.7656,368.8906 124.7656,365.7656 Q124.7656,362.6406 126.0781,360.9844 Q127.4063,359.3281 129.9063,359.3281 Q130.6094,359.3281 131.25,359.4844 Q131.9063,359.6406 132.4688,359.9375 L132.4688,362.6563 Q131.8438,362.0781 131.25,361.8125 Q130.6563,361.5313 130.0313,361.5313 Q128.6875,361.5313 128,362.6094 Q127.3125,363.6719 127.3125,365.7656 Q127.3125,367.8594 128,368.9375 Q128.6875,370 130.0313,370 Q130.6563,370 131.25,369.7344 Q131.8438,369.4531 132.4688,368.875 L132.4688,371.5938 Z "/><text fill="#FF0000" font-family="sans-serif" font-size="16" font-weight="bold" lengthAdjust="spacingAndGlyphs" textLength="25" x="143.5" y="371.4922">HD</text><line style="stroke: #A80036; stroke-width: 1.5;" x1="115.5" x2="170.5" y1="381.9531" y2="381.9531"/><line style="stroke: #A80036; stroke-width: 1.5;" x1="115.5" x2="170.5" y1="389.9531" y2="389.9531"/><!--class Monitor--><rect fill="#FEFECE" height="48" id="Monitor" style="stroke: #A80036; stroke-width: 1.5;" width="101" x="206.5" y="349.9531"/><ellipse cx="221.5" cy="365.9531" fill="#ADD1B2" rx="11" ry="11" style="stroke: #A80036; stroke-width: 1.0;"/><path d="M224.4688,371.5938 Q223.8906,371.8906 223.25,372.0313 Q222.6094,372.1875 221.9063,372.1875 Q219.4063,372.1875 218.0781,370.5469 Q216.7656,368.8906 216.7656,365.7656 Q216.7656,362.6406 218.0781,360.9844 Q219.4063,359.3281 221.9063,359.3281 Q222.6094,359.3281 223.25,359.4844 Q223.9063,359.6406 224.4688,359.9375 L224.4688,362.6563 Q223.8438,362.0781 223.25,361.8125 Q222.6563,361.5313 222.0313,361.5313 Q220.6875,361.5313 220,362.6094 Q219.3125,363.6719 219.3125,365.7656 Q219.3125,367.8594 220,368.9375 Q220.6875,370 222.0313,370 Q222.6563,370 223.25,369.7344 Q223.8438,369.4531 224.4688,368.875 L224.4688,371.5938 Z "/><text fill="#FF0000" font-family="sans-serif" font-size="16" font-weight="bold" lengthAdjust="spacingAndGlyphs" textLength="69" x="235.5" y="371.4922">Monitor</text><line style="stroke: #A80036; stroke-width: 1.5;" x1="207.5" x2="306.5" y1="381.9531" y2="381.9531"/><line style="stroke: #A80036; stroke-width: 1.5;" x1="207.5" x2="306.5" y1="389.9531" y2="389.9531"/><!--class Mouse--><rect fill="#FEFECE" height="48" id="Mouse" style="stroke: #A80036; stroke-width: 1.5;" width="91" x="342.5" y="349.9531"/><ellipse cx="357.5" cy="365.9531" fill="#ADD1B2" rx="11" ry="11" style="stroke: #A80036; stroke-width: 1.0;"/><path d="M360.4688,371.5938 Q359.8906,371.8906 359.25,372.0313 Q358.6094,372.1875 357.9063,372.1875 Q355.4063,372.1875 354.0781,370.5469 Q352.7656,368.8906 352.7656,365.7656 Q352.7656,362.6406 354.0781,360.9844 Q355.4063,359.3281 357.9063,359.3281 Q358.6094,359.3281 359.25,359.4844 Q359.9063,359.6406 360.4688,359.9375 L360.4688,362.6563 Q359.8438,362.0781 359.25,361.8125 Q358.6563,361.5313 358.0313,361.5313 Q356.6875,361.5313 356,362.6094 Q355.3125,363.6719 355.3125,365.7656 Q355.3125,367.8594 356,368.9375 Q356.6875,370 358.0313,370 Q358.6563,370 359.25,369.7344 Q359.8438,369.4531 360.4688,368.875 L360.4688,371.5938 Z "/><text fill="#FF0000" font-family="sans-serif" font-size="16" font-weight="bold" lengthAdjust="spacingAndGlyphs" textLength="59" x="371.5" y="371.4922">Mouse</text><line style="stroke: #A80036; stroke-width: 1.5;" x1="343.5" x2="432.5" y1="381.9531" y2="381.9531"/><line style="stroke: #A80036; stroke-width: 1.5;" x1="343.5" x2="432.5" y1="389.9531" y2="389.9531"/><!--link Computer to Decorator--><path d="M228,167.4938 C228,180.8154 228,194.5829 228,206.9025 " fill="none" id="Computer-Decorator" style="stroke: #0000FF; stroke-width: 1.0;"/><polygon fill="none" points="221.0001,167.1991,228,147.199,235.0001,167.199,221.0001,167.1991" style="stroke: #0000FF; stroke-width: 1.0;"/><!--link Computer to CD--><path d="M136.0763,149.8927 C113.4807,164.9988 91.6075,183.9978 77,206.9531 C48.8024,251.2649 47.3258,315.2569 48.9886,349.7432 " fill="none" id="Computer-CD" style="stroke: #0000FF; stroke-width: 1.0;"/><polygon fill="#0000FF" points="140.3022,147.1172,130.5837,148.7145,136.123,149.862,134.9754,155.4013,140.3022,147.1172" style="stroke: #0000FF; stroke-width: 1.0;"/><!--link Computer to HD--><path d="M144.4878,150.1738 C124.2734,165.3337 105.2643,184.2898 94,206.9531 C77.5813,239.9867 84.3727,254.3426 94,289.9531 C99.9043,311.7925 113.0529,333.7837 124.2442,349.784 " fill="none" id="Computer-HD" style="stroke: #0000FF; stroke-width: 1.0;"/><polygon fill="#0000FF" points="148.5448,147.1925,138.9238,149.2989,144.5158,150.1534,143.6612,155.7454,148.5448,147.1925" style="stroke: #0000FF; stroke-width: 1.0;"/><!--link Computer to Monitor--><path d="M311.5122,150.1738 C331.7266,165.3337 350.7357,184.2898 362,206.9531 C378.4187,239.9867 377.9799,256.705 362,289.9531 C349.7131,315.5175 325.4375,335.7371 303.3207,349.9267 " fill="none" id="Computer-Monitor" style="stroke: #0000FF; stroke-width: 1.0;"/><polygon fill="#0000FF" points="307.4552,147.1925,312.3388,155.7454,311.4842,150.1534,317.0762,149.2989,307.4552,147.1925" style="stroke: #0000FF; stroke-width: 1.0;"/><!--link Computer to Mouse--><path d="M321.0774,149.9799 C343.012,164.976 363.8214,183.8979 377,206.9531 C402.7383,251.9808 397.9317,315.4079 392.6626,349.6843 " fill="none" id="Computer-Mouse" style="stroke: #0000FF; stroke-width: 1.0;"/><polygon fill="#0000FF" points="316.6774,147.033,321.9292,155.3648,320.8317,149.8155,326.3811,148.718,316.6774,147.033" style="stroke: #0000FF; stroke-width: 1.0;"/><!--link Decorator to CD--><path d="M152.5052,301.9819 C126.8419,320.1782 99.687,339.4321 79.9277,353.4422 " fill="none" id="Decorator-CD" style="stroke: #0000FF; stroke-width: 1.0;"/><polygon fill="none" points="148.6977,296.1006,169.0616,290.2428,156.7953,307.5211,148.6977,296.1006" style="stroke: #0000FF; stroke-width: 1.0;"/><!--link Decorator to HD--><path d="M188.3323,307.0213 C178.0702,322.173 167.5868,337.6514 159.2899,349.9016 " fill="none" id="Decorator-HD" style="stroke: #0000FF; stroke-width: 1.0;"/><polygon fill="none" points="182.6849,302.8767,199.6962,290.2428,194.2765,310.7276,182.6849,302.8767" style="stroke: #0000FF; stroke-width: 1.0;"/><!--link Decorator to Monitor--><path d="M242.2121,309.957 C245.4933,324.1568 248.7942,338.4417 251.4423,349.9016 " fill="none" id="Decorator-Monitor" style="stroke: #0000FF; stroke-width: 1.0;"/><polygon fill="none" points="235.3392,311.3053,237.6566,290.2428,248.9798,308.1533,235.3392,311.3053" style="stroke: #0000FF; stroke-width: 1.0;"/><!--link Decorator to Mouse--><path d="M297.0763,302.6348 C318.1277,319.147 340.2075,336.4658 357.3367,349.9016 " fill="none" id="Decorator-Mouse" style="stroke: #0000FF; stroke-width: 1.0;"/><polygon fill="none" points="292.6941,308.094,281.2777,290.2428,301.3345,297.0784,292.6941,308.094" style="stroke: #0000FF; stroke-width: 1.0;"/><!--
@startuml 

title Design pattern

skinparam classFontColor red
skinparam classFontStyle bold
skinparam classFontSize 16
skinparam classAttributeFontSize 15
skinparam classAttributeFontStyle bold
skinparam classArrowColor blue
skinparam shadowing false



package myDecorator{


class  Computer {
public String description( ){ return "computer";}
public int account( ){ return 1;}
} 

abstract class  Decorator {
public String description( );
public int account( );
} 

Computer <|- - Decorator
Computer <- - CD
Computer <- - HD
Computer <- - Monitor
Computer <- - Mouse
Decorator <|- - CD
Decorator <|- - HD
Decorator <|- - Monitor
Decorator <|- - Mouse

}
@enduml

PlantUML version 1.2018.10(Sat Aug 25 20:02:59 EEST 2018)
(GPL source distribution)
Java Runtime: OpenJDK Runtime Environment
JVM: OpenJDK 64-Bit Server VM
Java Version: 11.0.2+9-Debian-3
Operating System: Linux
OS Version: 4.19.0-kali1-amd64
Default Encoding: UTF-8
Language: en
Country: US
--></g></svg>