<?xml version="1.0" encoding="UTF-8" standalone="no"?><svg xmlns="http://www.w3.org/2000/svg" xmlns:xlink="http://www.w3.org/1999/xlink" contentScriptType="application/ecmascript" contentStyleType="text/css" height="220px" preserveAspectRatio="none" style="width:873px;height:220px;" version="1.1" viewBox="0 0 873 220" width="873px" zoomAndPan="magnify"><defs><filter height="300%" id="f1ov22huoxciwx" width="300%" x="-1" y="-1"><feGaussianBlur result="blurOut" stdDeviation="2.0"/><feColorMatrix in="blurOut" result="blurOut2" type="matrix" values="0 0 0 0 0 0 0 0 0 0 0 0 0 0 0 0 0 0 .4 0"/><feOffset dx="4.0" dy="4.0" in="blurOut2" result="blurOut3"/><feBlend in="SourceGraphic" in2="blurOut3" mode="normal"/></filter></defs><g><!--MD5=[53ec424fa3b6f942aaa911173e79fce1]
cluster adapter_03--><polygon fill="#FFFFFF" filter="url(#f1ov22huoxciwx)" points="16,6,110,6,117,28.2969,672,28.2969,672,213,16,213,16,6" style="stroke: #000000; stroke-width: 1.5;"/><line style="stroke: #000000; stroke-width: 1.5;" x1="16" x2="117" y1="28.2969" y2="28.2969"/><text fill="#000000" font-family="sans-serif" font-size="14" font-weight="bold" lengthAdjust="spacingAndGlyphs" textLength="88" x="20" y="20.9951">adapter_03</text><!--MD5=[7db3c59d38ae5b37b484eb2df9368145]
cluster java.util--><polygon fill="#FFFFFF" filter="url(#f1ov22huoxciwx)" points="696,114,762,114,769,136.2969,856,136.2969,856,213,696,213,696,114" style="stroke: #000000; stroke-width: 1.5;"/><line style="stroke: #000000; stroke-width: 1.5;" x1="696" x2="769" y1="136.2969" y2="136.2969"/><text fill="#000000" font-family="sans-serif" font-size="14" font-weight="bold" lengthAdjust="spacingAndGlyphs" textLength="60" x="700" y="128.9951">java.util</text><!--MD5=[9fadb66692a54f397a774b9a9c4c68f5]
class adapter_03.AdapterFullToSeparated--><rect codeLine="1" fill="#FEFECE" filter="url(#f1ov22huoxciwx)" height="48" id="adapter_03.AdapterFullToSeparated" style="stroke: #A80036; stroke-width: 1.5;" width="184" x="472" y="41"/><ellipse cx="487" cy="57" fill="#ADD1B2" rx="11" ry="11" style="stroke: #A80036; stroke-width: 1.0;"/><path d="M489.9688,62.6406 Q489.3906,62.9375 488.75,63.0781 Q488.1094,63.2344 487.4063,63.2344 Q484.9063,63.2344 483.5781,61.5938 Q482.2656,59.9375 482.2656,56.8125 Q482.2656,53.6875 483.5781,52.0313 Q484.9063,50.375 487.4063,50.375 Q488.1094,50.375 488.75,50.5313 Q489.4063,50.6875 489.9688,50.9844 L489.9688,53.7031 Q489.3438,53.125 488.75,52.8594 Q488.1563,52.5781 487.5313,52.5781 Q486.1875,52.5781 485.5,53.6563 Q484.8125,54.7188 484.8125,56.8125 Q484.8125,58.9063 485.5,59.9844 Q486.1875,61.0469 487.5313,61.0469 Q488.1563,61.0469 488.75,60.7813 Q489.3438,60.5 489.9688,59.9219 L489.9688,62.6406 Z "/><text fill="#000000" font-family="sans-serif" font-size="12" lengthAdjust="spacingAndGlyphs" textLength="152" x="501" y="61.1543">AdapterFullToSeparated</text><line style="stroke: #A80036; stroke-width: 1.5;" x1="473" x2="655" y1="73" y2="73"/><line style="stroke: #A80036; stroke-width: 1.5;" x1="473" x2="655" y1="81" y2="81"/><!--MD5=[c0927c4cc87914f4c897849584e53641]
class adapter_03.FullName--><rect codeLine="2" fill="#FEFECE" filter="url(#f1ov22huoxciwx)" height="48" id="adapter_03.FullName" style="stroke: #A80036; stroke-width: 1.5;" width="89" x="347.5" y="41"/><ellipse cx="362.5" cy="57" fill="#ADD1B2" rx="11" ry="11" style="stroke: #A80036; stroke-width: 1.0;"/><path d="M365.4688,62.6406 Q364.8906,62.9375 364.25,63.0781 Q363.6094,63.2344 362.9063,63.2344 Q360.4063,63.2344 359.0781,61.5938 Q357.7656,59.9375 357.7656,56.8125 Q357.7656,53.6875 359.0781,52.0313 Q360.4063,50.375 362.9063,50.375 Q363.6094,50.375 364.25,50.5313 Q364.9063,50.6875 365.4688,50.9844 L365.4688,53.7031 Q364.8438,53.125 364.25,52.8594 Q363.6563,52.5781 363.0313,52.5781 Q361.6875,52.5781 361,53.6563 Q360.3125,54.7188 360.3125,56.8125 Q360.3125,58.9063 361,59.9844 Q361.6875,61.0469 363.0313,61.0469 Q363.6563,61.0469 364.25,60.7813 Q364.8438,60.5 365.4688,59.9219 L365.4688,62.6406 Z "/><text fill="#000000" font-family="sans-serif" font-size="12" lengthAdjust="spacingAndGlyphs" textLength="57" x="376.5" y="61.1543">FullName</text><line style="stroke: #A80036; stroke-width: 1.5;" x1="348.5" x2="435.5" y1="73" y2="73"/><line style="stroke: #A80036; stroke-width: 1.5;" x1="348.5" x2="435.5" y1="81" y2="81"/><!--MD5=[877c223dd73069f3a21d9d5575dab55b]
class adapter_03.MainAdapter--><rect codeLine="3" fill="#FEFECE" filter="url(#f1ov22huoxciwx)" height="48" id="adapter_03.MainAdapter" style="stroke: #A80036; stroke-width: 1.5;" width="111" x="201.5" y="41"/><ellipse cx="216.5" cy="57" fill="#ADD1B2" rx="11" ry="11" style="stroke: #A80036; stroke-width: 1.0;"/><path d="M219.4688,62.6406 Q218.8906,62.9375 218.25,63.0781 Q217.6094,63.2344 216.9063,63.2344 Q214.4063,63.2344 213.0781,61.5938 Q211.7656,59.9375 211.7656,56.8125 Q211.7656,53.6875 213.0781,52.0313 Q214.4063,50.375 216.9063,50.375 Q217.6094,50.375 218.25,50.5313 Q218.9063,50.6875 219.4688,50.9844 L219.4688,53.7031 Q218.8438,53.125 218.25,52.8594 Q217.6563,52.5781 217.0313,52.5781 Q215.6875,52.5781 215,53.6563 Q214.3125,54.7188 214.3125,56.8125 Q214.3125,58.9063 215,59.9844 Q215.6875,61.0469 217.0313,61.0469 Q217.6563,61.0469 218.25,60.7813 Q218.8438,60.5 219.4688,59.9219 L219.4688,62.6406 Z "/><text fill="#000000" font-family="sans-serif" font-size="12" lengthAdjust="spacingAndGlyphs" textLength="79" x="230.5" y="61.1543">MainAdapter</text><line style="stroke: #A80036; stroke-width: 1.5;" x1="202.5" x2="311.5" y1="73" y2="73"/><line style="stroke: #A80036; stroke-width: 1.5;" x1="202.5" x2="311.5" y1="81" y2="81"/><!--MD5=[ccc26c3db8eb526a70ca1e30c1b05661]
class adapter_03.SeparatedName--><rect codeLine="4" fill="#FEFECE" filter="url(#f1ov22huoxciwx)" height="48" id="adapter_03.SeparatedName" style="stroke: #A80036; stroke-width: 1.5;" width="134" x="32" y="41"/><ellipse cx="47" cy="57" fill="#ADD1B2" rx="11" ry="11" style="stroke: #A80036; stroke-width: 1.0;"/><path d="M49.9688,62.6406 Q49.3906,62.9375 48.75,63.0781 Q48.1094,63.2344 47.4063,63.2344 Q44.9063,63.2344 43.5781,61.5938 Q42.2656,59.9375 42.2656,56.8125 Q42.2656,53.6875 43.5781,52.0313 Q44.9063,50.375 47.4063,50.375 Q48.1094,50.375 48.75,50.5313 Q49.4063,50.6875 49.9688,50.9844 L49.9688,53.7031 Q49.3438,53.125 48.75,52.8594 Q48.1563,52.5781 47.5313,52.5781 Q46.1875,52.5781 45.5,53.6563 Q44.8125,54.7188 44.8125,56.8125 Q44.8125,58.9063 45.5,59.9844 Q46.1875,61.0469 47.5313,61.0469 Q48.1563,61.0469 48.75,60.7813 Q49.3438,60.5 49.9688,59.9219 L49.9688,62.6406 Z "/><text fill="#000000" font-family="sans-serif" font-size="12" lengthAdjust="spacingAndGlyphs" textLength="102" x="61" y="61.1543">SeparatedName</text><line style="stroke: #A80036; stroke-width: 1.5;" x1="33" x2="165" y1="73" y2="73"/><line style="stroke: #A80036; stroke-width: 1.5;" x1="33" x2="165" y1="81" y2="81"/><!--MD5=[91ee66b4d7e98cfd409f373760ad4d09]
class adapter_03.FullNameIF--><rect codeLine="6" fill="#FEFECE" filter="url(#f1ov22huoxciwx)" height="48" id="adapter_03.FullNameIF" style="stroke: #A80036; stroke-width: 1.5;" width="100" x="428" y="149"/><ellipse cx="443" cy="165" fill="#B4A7E5" rx="11" ry="11" style="stroke: #A80036; stroke-width: 1.0;"/><path d="M438.9219,160.7656 L438.9219,158.6094 L446.3125,158.6094 L446.3125,160.7656 L443.8438,160.7656 L443.8438,168.8438 L446.3125,168.8438 L446.3125,171 L438.9219,171 L438.9219,168.8438 L441.3906,168.8438 L441.3906,160.7656 L438.9219,160.7656 Z "/><text fill="#000000" font-family="sans-serif" font-size="12" font-style="italic" lengthAdjust="spacingAndGlyphs" textLength="68" x="457" y="169.1543">FullNameIF</text><line style="stroke: #A80036; stroke-width: 1.5;" x1="429" x2="527" y1="181" y2="181"/><line style="stroke: #A80036; stroke-width: 1.5;" x1="429" x2="527" y1="189" y2="189"/><!--MD5=[8f3bf394d8771d32b73020f1c2622941]
class adapter_03.SeparatedNameIF--><rect codeLine="7" fill="#FEFECE" filter="url(#f1ov22huoxciwx)" height="48" id="adapter_03.SeparatedNameIF" style="stroke: #A80036; stroke-width: 1.5;" width="145" x="32.5" y="149"/><ellipse cx="47.5" cy="165" fill="#B4A7E5" rx="11" ry="11" style="stroke: #A80036; stroke-width: 1.0;"/><path d="M43.4219,160.7656 L43.4219,158.6094 L50.8125,158.6094 L50.8125,160.7656 L48.3438,160.7656 L48.3438,168.8438 L50.8125,168.8438 L50.8125,171 L43.4219,171 L43.4219,168.8438 L45.8906,168.8438 L45.8906,160.7656 L43.4219,160.7656 Z "/><text fill="#000000" font-family="sans-serif" font-size="12" font-style="italic" lengthAdjust="spacingAndGlyphs" textLength="113" x="61.5" y="169.1543">SeparatedNameIF</text><line style="stroke: #A80036; stroke-width: 1.5;" x1="33.5" x2="176.5" y1="181" y2="181"/><line style="stroke: #A80036; stroke-width: 1.5;" x1="33.5" x2="176.5" y1="189" y2="189"/><!--MD5=[e2aeba5c740e2e2326beff2bf0c68437]
class java.util.StringTokenizer--><rect codeLine="5" fill="#FEFECE" filter="url(#f1ov22huoxciwx)" height="48" id="java.util.StringTokenizer" style="stroke: #A80036; stroke-width: 1.5;" width="128" x="712" y="149"/><ellipse cx="727" cy="165" fill="#ADD1B2" rx="11" ry="11" style="stroke: #A80036; stroke-width: 1.0;"/><path d="M729.9688,170.6406 Q729.3906,170.9375 728.75,171.0781 Q728.1094,171.2344 727.4063,171.2344 Q724.9063,171.2344 723.5781,169.5938 Q722.2656,167.9375 722.2656,164.8125 Q722.2656,161.6875 723.5781,160.0313 Q724.9063,158.375 727.4063,158.375 Q728.1094,158.375 728.75,158.5313 Q729.4063,158.6875 729.9688,158.9844 L729.9688,161.7031 Q729.3438,161.125 728.75,160.8594 Q728.1563,160.5781 727.5313,160.5781 Q726.1875,160.5781 725.5,161.6563 Q724.8125,162.7188 724.8125,164.8125 Q724.8125,166.9063 725.5,167.9844 Q726.1875,169.0469 727.5313,169.0469 Q728.1563,169.0469 728.75,168.7813 Q729.3438,168.5 729.9688,167.9219 L729.9688,170.6406 Z "/><text fill="#000000" font-family="sans-serif" font-size="12" lengthAdjust="spacingAndGlyphs" textLength="96" x="741" y="169.1543">StringTokenizer</text><line style="stroke: #A80036; stroke-width: 1.5;" x1="713" x2="839" y1="181" y2="181"/><line style="stroke: #A80036; stroke-width: 1.5;" x1="713" x2="839" y1="189" y2="189"/><!--MD5=[12f69d1805cbb55e5abc75854c72283b]
link adapter_03.AdapterFullToSeparated to java.util.StringTokenizer--><path codeLine="8" d="M632.9,89.04 C646.09,94.14 659.64,99.87 672,106 C695.16,117.48 719.63,132.83 739.01,145.84 " fill="none" id="adapter_03.AdapterFullToSeparated-to-java.util.StringTokenizer" style="stroke: #A80036; stroke-width: 1.0; stroke-dasharray: 7.0,7.0;"/><polygon fill="#A80036" points="743.32,148.74,738.1032,140.3863,739.1774,145.9402,733.6235,147.0144,743.32,148.74" style="stroke: #A80036; stroke-width: 1.0;"/><!--MD5=[7670211dd3577c38e0066c5026dc034e]
link adapter_03.AdapterFullToSeparated to adapter_03.FullNameIF--><path codeLine="9" d="M545.34,89 C534.93,101.83 521.68,118.16 509.7,132.93 " fill="none" id="adapter_03.AdapterFullToSeparated-to-adapter_03.FullNameIF" style="stroke: #A80036; stroke-width: 1.0;"/><polygon fill="none" points="514.96,137.56,496.92,148.68,504.09,128.74,514.96,137.56" style="stroke: #A80036; stroke-width: 1.0;"/><!--MD5=[e44983f41d433b6769bb621ebb97f313]
link adapter_03.FullName to adapter_03.FullNameIF--><path codeLine="10" d="M410.66,89 C421.07,101.83 434.32,118.16 446.3,132.93 " fill="none" id="adapter_03.FullName-to-adapter_03.FullNameIF" style="stroke: #A80036; stroke-width: 1.0;"/><polygon fill="none" points="451.91,128.74,459.08,148.68,441.04,137.56,451.91,128.74" style="stroke: #A80036; stroke-width: 1.0;"/><!--MD5=[8611bdce339f780b27a878b2bb23afff]
link adapter_03.SeparatedName to adapter_03.SeparatedNameIF--><path codeLine="11" d="M100.3,89 C100.96,100.59 101.78,115.03 102.54,128.6 " fill="none" id="adapter_03.SeparatedName-to-adapter_03.SeparatedNameIF" style="stroke: #A80036; stroke-width: 1.0;"/><polygon fill="none" points="109.54,128.31,103.68,148.68,95.56,129.11,109.54,128.31" style="stroke: #A80036; stroke-width: 1.0;"/><!--MD5=[de4a1ee500968be6ed0b6013cd291d81]
@startuml
class adapter_03.AdapterFullToSeparated
class adapter_03.FullName
class adapter_03.MainAdapter
class adapter_03.SeparatedName
class java.util.StringTokenizer
interface adapter_03.FullNameIF
interface adapter_03.SeparatedNameIF
adapter_03.AdapterFullToSeparated ..> java.util.StringTokenizer
adapter_03.AdapterFullToSeparated - -|> adapter_03.FullNameIF
adapter_03.FullName - -|> adapter_03.FullNameIF
adapter_03.SeparatedName - -|> adapter_03.SeparatedNameIF
@enduml

PlantUML version 1.2020.18(Wed Sep 30 22:40:44 EEST 2020)
(GPL source distribution)
Java Runtime: OpenJDK Runtime Environment
JVM: OpenJDK 64-Bit Server VM
Default Encoding: UTF-8
Language: en
Country: US
--></g></svg>