<?xml version="1.0" encoding="UTF-8" standalone="no"?><svg xmlns="http://www.w3.org/2000/svg" xmlns:xlink="http://www.w3.org/1999/xlink" contentScriptType="application/ecmascript" contentStyleType="text/css" height="328px" preserveAspectRatio="none" style="width:2153px;height:328px;" version="1.1" viewBox="0 0 2153 328" width="2153px" zoomAndPan="magnify"><defs><filter height="300%" id="f1vbse3463kvpu" width="300%" x="-1" y="-1"><feGaussianBlur result="blurOut" stdDeviation="2.0"/><feColorMatrix in="blurOut" result="blurOut2" type="matrix" values="0 0 0 0 0 0 0 0 0 0 0 0 0 0 0 0 0 0 .4 0"/><feOffset dx="4.0" dy="4.0" in="blurOut2" result="blurOut3"/><feBlend in="SourceGraphic" in2="blurOut3" mode="normal"/></filter></defs><g><!--MD5=[2dbb8e9b3d87c952dbe17aa354056d16]
cluster headfirst.combining.observer--><polygon fill="#FFFFFF" filter="url(#f1vbse3463kvpu)" points="16,6,256,6,263,28.2969,1881,28.2969,1881,321,16,321,16,6" style="stroke: #000000; stroke-width: 1.5;"/><line style="stroke: #000000; stroke-width: 1.5;" x1="16" x2="263" y1="28.2969" y2="28.2969"/><text fill="#000000" font-family="sans-serif" font-size="14" font-weight="bold" lengthAdjust="spacingAndGlyphs" textLength="234" x="20" y="20.9951">headfirst.combining.observer</text><!--MD5=[7db3c59d38ae5b37b484eb2df9368145]
cluster java.util--><polygon fill="#FFFFFF" filter="url(#f1vbse3463kvpu)" points="1905,222,1971,222,1978,244.2969,2136,244.2969,2136,321,1905,321,1905,222" style="stroke: #000000; stroke-width: 1.5;"/><line style="stroke: #000000; stroke-width: 1.5;" x1="1905" x2="1978" y1="244.2969" y2="244.2969"/><text fill="#000000" font-family="sans-serif" font-size="14" font-weight="bold" lengthAdjust="spacingAndGlyphs" textLength="60" x="1909" y="236.9951">java.util</text><!--MD5=[627232fb8ad05e16b7439dbbf72df408]
class headfirst.combining.observer.AbstractDuckFactory--><rect codeLine="1" fill="#FEFECE" filter="url(#f1vbse3463kvpu)" height="48" id="headfirst.combining.observer.AbstractDuckFactory" style="stroke: #A80036; stroke-width: 1.5;" width="162" x="1602" y="149"/><ellipse cx="1617" cy="165" fill="#A9DCDF" rx="11" ry="11" style="stroke: #A80036; stroke-width: 1.0;"/><path d="M1617.1094,160.3438 L1615.9531,165.4219 L1618.2813,165.4219 L1617.1094,160.3438 Z M1615.625,158.1094 L1618.6094,158.1094 L1621.9688,170.5 L1619.5156,170.5 L1618.75,167.4375 L1615.4688,167.4375 L1614.7188,170.5 L1612.2813,170.5 L1615.625,158.1094 Z "/><text fill="#000000" font-family="sans-serif" font-size="12" font-style="italic" lengthAdjust="spacingAndGlyphs" textLength="130" x="1631" y="169.1543">AbstractDuckFactory</text><line style="stroke: #A80036; stroke-width: 1.5;" x1="1603" x2="1763" y1="181" y2="181"/><line style="stroke: #A80036; stroke-width: 1.5;" x1="1603" x2="1763" y1="189" y2="189"/><!--MD5=[2d7a7a691f562783e91fb665588950c1]
class headfirst.combining.observer.CountingDuckFactory--><rect codeLine="2" fill="#FEFECE" filter="url(#f1vbse3463kvpu)" height="48" id="headfirst.combining.observer.CountingDuckFactory" style="stroke: #A80036; stroke-width: 1.5;" width="165" x="1600.5" y="41"/><ellipse cx="1615.5" cy="57" fill="#ADD1B2" rx="11" ry="11" style="stroke: #A80036; stroke-width: 1.0;"/><path d="M1618.4688,62.6406 Q1617.8906,62.9375 1617.25,63.0781 Q1616.6094,63.2344 1615.9063,63.2344 Q1613.4063,63.2344 1612.0781,61.5938 Q1610.7656,59.9375 1610.7656,56.8125 Q1610.7656,53.6875 1612.0781,52.0313 Q1613.4063,50.375 1615.9063,50.375 Q1616.6094,50.375 1617.25,50.5313 Q1617.9063,50.6875 1618.4688,50.9844 L1618.4688,53.7031 Q1617.8438,53.125 1617.25,52.8594 Q1616.6563,52.5781 1616.0313,52.5781 Q1614.6875,52.5781 1614,53.6563 Q1613.3125,54.7188 1613.3125,56.8125 Q1613.3125,58.9063 1614,59.9844 Q1614.6875,61.0469 1616.0313,61.0469 Q1616.6563,61.0469 1617.25,60.7813 Q1617.8438,60.5 1618.4688,59.9219 L1618.4688,62.6406 Z "/><text fill="#000000" font-family="sans-serif" font-size="12" lengthAdjust="spacingAndGlyphs" textLength="133" x="1629.5" y="61.1543">CountingDuckFactory</text><line style="stroke: #A80036; stroke-width: 1.5;" x1="1601.5" x2="1764.5" y1="73" y2="73"/><line style="stroke: #A80036; stroke-width: 1.5;" x1="1601.5" x2="1764.5" y1="81" y2="81"/><!--MD5=[a5c29bbc893b5cd6396b605af81b6b75]
class headfirst.combining.observer.DecoyDuck--><rect codeLine="3" fill="#FEFECE" filter="url(#f1vbse3463kvpu)" height="48" id="headfirst.combining.observer.DecoyDuck" style="stroke: #A80036; stroke-width: 1.5;" width="101" x="444.5" y="41"/><ellipse cx="459.5" cy="57" fill="#ADD1B2" rx="11" ry="11" style="stroke: #A80036; stroke-width: 1.0;"/><path d="M462.4688,62.6406 Q461.8906,62.9375 461.25,63.0781 Q460.6094,63.2344 459.9063,63.2344 Q457.4063,63.2344 456.0781,61.5938 Q454.7656,59.9375 454.7656,56.8125 Q454.7656,53.6875 456.0781,52.0313 Q457.4063,50.375 459.9063,50.375 Q460.6094,50.375 461.25,50.5313 Q461.9063,50.6875 462.4688,50.9844 L462.4688,53.7031 Q461.8438,53.125 461.25,52.8594 Q460.6563,52.5781 460.0313,52.5781 Q458.6875,52.5781 458,53.6563 Q457.3125,54.7188 457.3125,56.8125 Q457.3125,58.9063 458,59.9844 Q458.6875,61.0469 460.0313,61.0469 Q460.6563,61.0469 461.25,60.7813 Q461.8438,60.5 462.4688,59.9219 L462.4688,62.6406 Z "/><text fill="#000000" font-family="sans-serif" font-size="12" lengthAdjust="spacingAndGlyphs" textLength="69" x="473.5" y="61.1543">DecoyDuck</text><line style="stroke: #A80036; stroke-width: 1.5;" x1="445.5" x2="544.5" y1="73" y2="73"/><line style="stroke: #A80036; stroke-width: 1.5;" x1="445.5" x2="544.5" y1="81" y2="81"/><!--MD5=[1fe83c8cf2a7e14a80e2bf850c074caa]
class headfirst.combining.observer.DuckCall--><rect codeLine="4" fill="#FEFECE" filter="url(#f1vbse3463kvpu)" height="48" id="headfirst.combining.observer.DuckCall" style="stroke: #A80036; stroke-width: 1.5;" width="85" x="324.5" y="41"/><ellipse cx="339.5" cy="57" fill="#ADD1B2" rx="11" ry="11" style="stroke: #A80036; stroke-width: 1.0;"/><path d="M342.4688,62.6406 Q341.8906,62.9375 341.25,63.0781 Q340.6094,63.2344 339.9063,63.2344 Q337.4063,63.2344 336.0781,61.5938 Q334.7656,59.9375 334.7656,56.8125 Q334.7656,53.6875 336.0781,52.0313 Q337.4063,50.375 339.9063,50.375 Q340.6094,50.375 341.25,50.5313 Q341.9063,50.6875 342.4688,50.9844 L342.4688,53.7031 Q341.8438,53.125 341.25,52.8594 Q340.6563,52.5781 340.0313,52.5781 Q338.6875,52.5781 338,53.6563 Q337.3125,54.7188 337.3125,56.8125 Q337.3125,58.9063 338,59.9844 Q338.6875,61.0469 340.0313,61.0469 Q340.6563,61.0469 341.25,60.7813 Q341.8438,60.5 342.4688,59.9219 L342.4688,62.6406 Z "/><text fill="#000000" font-family="sans-serif" font-size="12" lengthAdjust="spacingAndGlyphs" textLength="53" x="353.5" y="61.1543">DuckCall</text><line style="stroke: #A80036; stroke-width: 1.5;" x1="325.5" x2="408.5" y1="73" y2="73"/><line style="stroke: #A80036; stroke-width: 1.5;" x1="325.5" x2="408.5" y1="81" y2="81"/><!--MD5=[5d9ac02390e5febeedc664e68959e7a4]
class headfirst.combining.observer.DuckFactory--><rect codeLine="5" fill="#FEFECE" filter="url(#f1vbse3463kvpu)" height="48" id="headfirst.combining.observer.DuckFactory" style="stroke: #A80036; stroke-width: 1.5;" width="109" x="1456.5" y="41"/><ellipse cx="1471.5" cy="57" fill="#ADD1B2" rx="11" ry="11" style="stroke: #A80036; stroke-width: 1.0;"/><path d="M1474.4688,62.6406 Q1473.8906,62.9375 1473.25,63.0781 Q1472.6094,63.2344 1471.9063,63.2344 Q1469.4063,63.2344 1468.0781,61.5938 Q1466.7656,59.9375 1466.7656,56.8125 Q1466.7656,53.6875 1468.0781,52.0313 Q1469.4063,50.375 1471.9063,50.375 Q1472.6094,50.375 1473.25,50.5313 Q1473.9063,50.6875 1474.4688,50.9844 L1474.4688,53.7031 Q1473.8438,53.125 1473.25,52.8594 Q1472.6563,52.5781 1472.0313,52.5781 Q1470.6875,52.5781 1470,53.6563 Q1469.3125,54.7188 1469.3125,56.8125 Q1469.3125,58.9063 1470,59.9844 Q1470.6875,61.0469 1472.0313,61.0469 Q1472.6563,61.0469 1473.25,60.7813 Q1473.8438,60.5 1474.4688,59.9219 L1474.4688,62.6406 Z "/><text fill="#000000" font-family="sans-serif" font-size="12" lengthAdjust="spacingAndGlyphs" textLength="77" x="1485.5" y="61.1543">DuckFactory</text><line style="stroke: #A80036; stroke-width: 1.5;" x1="1457.5" x2="1564.5" y1="73" y2="73"/><line style="stroke: #A80036; stroke-width: 1.5;" x1="1457.5" x2="1564.5" y1="81" y2="81"/><!--MD5=[a4a03296b88206395a32b91ce9858f14]
class headfirst.combining.observer.DuckSimulator--><rect codeLine="6" fill="#FEFECE" filter="url(#f1vbse3463kvpu)" height="48" id="headfirst.combining.observer.DuckSimulator" style="stroke: #A80036; stroke-width: 1.5;" width="122" x="1156" y="41"/><ellipse cx="1171" cy="57" fill="#ADD1B2" rx="11" ry="11" style="stroke: #A80036; stroke-width: 1.0;"/><path d="M1173.9688,62.6406 Q1173.3906,62.9375 1172.75,63.0781 Q1172.1094,63.2344 1171.4063,63.2344 Q1168.9063,63.2344 1167.5781,61.5938 Q1166.2656,59.9375 1166.2656,56.8125 Q1166.2656,53.6875 1167.5781,52.0313 Q1168.9063,50.375 1171.4063,50.375 Q1172.1094,50.375 1172.75,50.5313 Q1173.4063,50.6875 1173.9688,50.9844 L1173.9688,53.7031 Q1173.3438,53.125 1172.75,52.8594 Q1172.1563,52.5781 1171.5313,52.5781 Q1170.1875,52.5781 1169.5,53.6563 Q1168.8125,54.7188 1168.8125,56.8125 Q1168.8125,58.9063 1169.5,59.9844 Q1170.1875,61.0469 1171.5313,61.0469 Q1172.1563,61.0469 1172.75,60.7813 Q1173.3438,60.5 1173.9688,59.9219 L1173.9688,62.6406 Z "/><text fill="#000000" font-family="sans-serif" font-size="12" lengthAdjust="spacingAndGlyphs" textLength="90" x="1185" y="61.1543">DuckSimulator</text><line style="stroke: #A80036; stroke-width: 1.5;" x1="1157" x2="1277" y1="73" y2="73"/><line style="stroke: #A80036; stroke-width: 1.5;" x1="1157" x2="1277" y1="81" y2="81"/><!--MD5=[51d0f6d483b23ad00ed0f0c898c1b8e3]
class headfirst.combining.observer.Flock--><rect codeLine="7" fill="#FEFECE" filter="url(#f1vbse3463kvpu)" height="48" id="headfirst.combining.observer.Flock" style="stroke: #A80036; stroke-width: 1.5;" width="64" x="1801" y="41"/><ellipse cx="1816" cy="57" fill="#ADD1B2" rx="11" ry="11" style="stroke: #A80036; stroke-width: 1.0;"/><path d="M1818.9688,62.6406 Q1818.3906,62.9375 1817.75,63.0781 Q1817.1094,63.2344 1816.4063,63.2344 Q1813.9063,63.2344 1812.5781,61.5938 Q1811.2656,59.9375 1811.2656,56.8125 Q1811.2656,53.6875 1812.5781,52.0313 Q1813.9063,50.375 1816.4063,50.375 Q1817.1094,50.375 1817.75,50.5313 Q1818.4063,50.6875 1818.9688,50.9844 L1818.9688,53.7031 Q1818.3438,53.125 1817.75,52.8594 Q1817.1563,52.5781 1816.5313,52.5781 Q1815.1875,52.5781 1814.5,53.6563 Q1813.8125,54.7188 1813.8125,56.8125 Q1813.8125,58.9063 1814.5,59.9844 Q1815.1875,61.0469 1816.5313,61.0469 Q1817.1563,61.0469 1817.75,60.7813 Q1818.3438,60.5 1818.9688,59.9219 L1818.9688,62.6406 Z "/><text fill="#000000" font-family="sans-serif" font-size="12" lengthAdjust="spacingAndGlyphs" textLength="32" x="1830" y="61.1543">Flock</text><line style="stroke: #A80036; stroke-width: 1.5;" x1="1802" x2="1864" y1="73" y2="73"/><line style="stroke: #A80036; stroke-width: 1.5;" x1="1802" x2="1864" y1="81" y2="81"/><!--MD5=[5a1e03e7de63f41184456d75cc9b6106]
class headfirst.combining.observer.Goose--><rect codeLine="8" fill="#FEFECE" filter="url(#f1vbse3463kvpu)" height="48" id="headfirst.combining.observer.Goose" style="stroke: #A80036; stroke-width: 1.5;" width="72" x="892" y="41"/><ellipse cx="907" cy="57" fill="#ADD1B2" rx="11" ry="11" style="stroke: #A80036; stroke-width: 1.0;"/><path d="M909.9688,62.6406 Q909.3906,62.9375 908.75,63.0781 Q908.1094,63.2344 907.4063,63.2344 Q904.9063,63.2344 903.5781,61.5938 Q902.2656,59.9375 902.2656,56.8125 Q902.2656,53.6875 903.5781,52.0313 Q904.9063,50.375 907.4063,50.375 Q908.1094,50.375 908.75,50.5313 Q909.4063,50.6875 909.9688,50.9844 L909.9688,53.7031 Q909.3438,53.125 908.75,52.8594 Q908.1563,52.5781 907.5313,52.5781 Q906.1875,52.5781 905.5,53.6563 Q904.8125,54.7188 904.8125,56.8125 Q904.8125,58.9063 905.5,59.9844 Q906.1875,61.0469 907.5313,61.0469 Q908.1563,61.0469 908.75,60.7813 Q909.3438,60.5 909.9688,59.9219 L909.9688,62.6406 Z "/><text fill="#000000" font-family="sans-serif" font-size="12" lengthAdjust="spacingAndGlyphs" textLength="40" x="921" y="61.1543">Goose</text><line style="stroke: #A80036; stroke-width: 1.5;" x1="893" x2="963" y1="73" y2="73"/><line style="stroke: #A80036; stroke-width: 1.5;" x1="893" x2="963" y1="81" y2="81"/><!--MD5=[5194d1ccb3ed2d451c2b544f9c9af03c]
class headfirst.combining.observer.GooseAdapter--><rect codeLine="9" fill="#FEFECE" filter="url(#f1vbse3463kvpu)" height="48" id="headfirst.combining.observer.GooseAdapter" style="stroke: #A80036; stroke-width: 1.5;" width="122" x="735" y="41"/><ellipse cx="750" cy="57" fill="#ADD1B2" rx="11" ry="11" style="stroke: #A80036; stroke-width: 1.0;"/><path d="M752.9688,62.6406 Q752.3906,62.9375 751.75,63.0781 Q751.1094,63.2344 750.4063,63.2344 Q747.9063,63.2344 746.5781,61.5938 Q745.2656,59.9375 745.2656,56.8125 Q745.2656,53.6875 746.5781,52.0313 Q747.9063,50.375 750.4063,50.375 Q751.1094,50.375 751.75,50.5313 Q752.4063,50.6875 752.9688,50.9844 L752.9688,53.7031 Q752.3438,53.125 751.75,52.8594 Q751.1563,52.5781 750.5313,52.5781 Q749.1875,52.5781 748.5,53.6563 Q747.8125,54.7188 747.8125,56.8125 Q747.8125,58.9063 748.5,59.9844 Q749.1875,61.0469 750.5313,61.0469 Q751.1563,61.0469 751.75,60.7813 Q752.3438,60.5 752.9688,59.9219 L752.9688,62.6406 Z "/><text fill="#000000" font-family="sans-serif" font-size="12" lengthAdjust="spacingAndGlyphs" textLength="90" x="764" y="61.1543">GooseAdapter</text><line style="stroke: #A80036; stroke-width: 1.5;" x1="736" x2="856" y1="73" y2="73"/><line style="stroke: #A80036; stroke-width: 1.5;" x1="736" x2="856" y1="81" y2="81"/><!--MD5=[0a3c9c6fc3797fea046e14f1f4e5c675]
class headfirst.combining.observer.MallardDuck--><rect codeLine="10" fill="#FEFECE" filter="url(#f1vbse3463kvpu)" height="48" id="headfirst.combining.observer.MallardDuck" style="stroke: #A80036; stroke-width: 1.5;" width="108" x="1313" y="41"/><ellipse cx="1328" cy="57" fill="#ADD1B2" rx="11" ry="11" style="stroke: #A80036; stroke-width: 1.0;"/><path d="M1330.9688,62.6406 Q1330.3906,62.9375 1329.75,63.0781 Q1329.1094,63.2344 1328.4063,63.2344 Q1325.9063,63.2344 1324.5781,61.5938 Q1323.2656,59.9375 1323.2656,56.8125 Q1323.2656,53.6875 1324.5781,52.0313 Q1325.9063,50.375 1328.4063,50.375 Q1329.1094,50.375 1329.75,50.5313 Q1330.4063,50.6875 1330.9688,50.9844 L1330.9688,53.7031 Q1330.3438,53.125 1329.75,52.8594 Q1329.1563,52.5781 1328.5313,52.5781 Q1327.1875,52.5781 1326.5,53.6563 Q1325.8125,54.7188 1325.8125,56.8125 Q1325.8125,58.9063 1326.5,59.9844 Q1327.1875,61.0469 1328.5313,61.0469 Q1329.1563,61.0469 1329.75,60.7813 Q1330.3438,60.5 1330.9688,59.9219 L1330.9688,62.6406 Z "/><text fill="#000000" font-family="sans-serif" font-size="12" lengthAdjust="spacingAndGlyphs" textLength="76" x="1342" y="61.1543">MallardDuck</text><line style="stroke: #A80036; stroke-width: 1.5;" x1="1314" x2="1420" y1="73" y2="73"/><line style="stroke: #A80036; stroke-width: 1.5;" x1="1314" x2="1420" y1="81" y2="81"/><!--MD5=[8e047e2e8cfa3ee7a719a9cdc56d39a7]
class headfirst.combining.observer.Observable--><rect codeLine="11" fill="#FEFECE" filter="url(#f1vbse3463kvpu)" height="48" id="headfirst.combining.observer.Observable" style="stroke: #A80036; stroke-width: 1.5;" width="102" x="1465" y="149"/><ellipse cx="1480" cy="165" fill="#ADD1B2" rx="11" ry="11" style="stroke: #A80036; stroke-width: 1.0;"/><path d="M1482.9688,170.6406 Q1482.3906,170.9375 1481.75,171.0781 Q1481.1094,171.2344 1480.4063,171.2344 Q1477.9063,171.2344 1476.5781,169.5938 Q1475.2656,167.9375 1475.2656,164.8125 Q1475.2656,161.6875 1476.5781,160.0313 Q1477.9063,158.375 1480.4063,158.375 Q1481.1094,158.375 1481.75,158.5313 Q1482.4063,158.6875 1482.9688,158.9844 L1482.9688,161.7031 Q1482.3438,161.125 1481.75,160.8594 Q1481.1563,160.5781 1480.5313,160.5781 Q1479.1875,160.5781 1478.5,161.6563 Q1477.8125,162.7188 1477.8125,164.8125 Q1477.8125,166.9063 1478.5,167.9844 Q1479.1875,169.0469 1480.5313,169.0469 Q1481.1563,169.0469 1481.75,168.7813 Q1482.3438,168.5 1482.9688,167.9219 L1482.9688,170.6406 Z "/><text fill="#000000" font-family="sans-serif" font-size="12" lengthAdjust="spacingAndGlyphs" textLength="70" x="1494" y="169.1543">Observable</text><line style="stroke: #A80036; stroke-width: 1.5;" x1="1466" x2="1566" y1="181" y2="181"/><line style="stroke: #A80036; stroke-width: 1.5;" x1="1466" x2="1566" y1="189" y2="189"/><!--MD5=[3da3f7dc7ce5e32ef430863c0c0efdd7]
class headfirst.combining.observer.QuackCounter--><rect codeLine="12" fill="#FEFECE" filter="url(#f1vbse3463kvpu)" height="48" id="headfirst.combining.observer.QuackCounter" style="stroke: #A80036; stroke-width: 1.5;" width="121" x="999.5" y="41"/><ellipse cx="1014.5" cy="57" fill="#ADD1B2" rx="11" ry="11" style="stroke: #A80036; stroke-width: 1.0;"/><path d="M1017.4688,62.6406 Q1016.8906,62.9375 1016.25,63.0781 Q1015.6094,63.2344 1014.9063,63.2344 Q1012.4063,63.2344 1011.0781,61.5938 Q1009.7656,59.9375 1009.7656,56.8125 Q1009.7656,53.6875 1011.0781,52.0313 Q1012.4063,50.375 1014.9063,50.375 Q1015.6094,50.375 1016.25,50.5313 Q1016.9063,50.6875 1017.4688,50.9844 L1017.4688,53.7031 Q1016.8438,53.125 1016.25,52.8594 Q1015.6563,52.5781 1015.0313,52.5781 Q1013.6875,52.5781 1013,53.6563 Q1012.3125,54.7188 1012.3125,56.8125 Q1012.3125,58.9063 1013,59.9844 Q1013.6875,61.0469 1015.0313,61.0469 Q1015.6563,61.0469 1016.25,60.7813 Q1016.8438,60.5 1017.4688,59.9219 L1017.4688,62.6406 Z "/><text fill="#000000" font-family="sans-serif" font-size="12" lengthAdjust="spacingAndGlyphs" textLength="89" x="1028.5" y="61.1543">QuackCounter</text><line style="stroke: #A80036; stroke-width: 1.5;" x1="1000.5" x2="1119.5" y1="73" y2="73"/><line style="stroke: #A80036; stroke-width: 1.5;" x1="1000.5" x2="1119.5" y1="81" y2="81"/><!--MD5=[961995dd66e80e25106c97369803faf7]
class headfirst.combining.observer.Quackologist--><rect codeLine="13" fill="#FEFECE" filter="url(#f1vbse3463kvpu)" height="48" id="headfirst.combining.observer.Quackologist" style="stroke: #A80036; stroke-width: 1.5;" width="113" x="32.5" y="41"/><ellipse cx="47.5" cy="57" fill="#ADD1B2" rx="11" ry="11" style="stroke: #A80036; stroke-width: 1.0;"/><path d="M50.4688,62.6406 Q49.8906,62.9375 49.25,63.0781 Q48.6094,63.2344 47.9063,63.2344 Q45.4063,63.2344 44.0781,61.5938 Q42.7656,59.9375 42.7656,56.8125 Q42.7656,53.6875 44.0781,52.0313 Q45.4063,50.375 47.9063,50.375 Q48.6094,50.375 49.25,50.5313 Q49.9063,50.6875 50.4688,50.9844 L50.4688,53.7031 Q49.8438,53.125 49.25,52.8594 Q48.6563,52.5781 48.0313,52.5781 Q46.6875,52.5781 46,53.6563 Q45.3125,54.7188 45.3125,56.8125 Q45.3125,58.9063 46,59.9844 Q46.6875,61.0469 48.0313,61.0469 Q48.6563,61.0469 49.25,60.7813 Q49.8438,60.5 50.4688,59.9219 L50.4688,62.6406 Z "/><text fill="#000000" font-family="sans-serif" font-size="12" lengthAdjust="spacingAndGlyphs" textLength="81" x="61.5" y="61.1543">Quackologist</text><line style="stroke: #A80036; stroke-width: 1.5;" x1="33.5" x2="144.5" y1="73" y2="73"/><line style="stroke: #A80036; stroke-width: 1.5;" x1="33.5" x2="144.5" y1="81" y2="81"/><!--MD5=[178cfcf7095bbbe14d8c777b2672a3fd]
class headfirst.combining.observer.RedheadDuck--><rect codeLine="14" fill="#FEFECE" filter="url(#f1vbse3463kvpu)" height="48" id="headfirst.combining.observer.RedheadDuck" style="stroke: #A80036; stroke-width: 1.5;" width="119" x="580.5" y="41"/><ellipse cx="595.5" cy="57" fill="#ADD1B2" rx="11" ry="11" style="stroke: #A80036; stroke-width: 1.0;"/><path d="M598.4688,62.6406 Q597.8906,62.9375 597.25,63.0781 Q596.6094,63.2344 595.9063,63.2344 Q593.4063,63.2344 592.0781,61.5938 Q590.7656,59.9375 590.7656,56.8125 Q590.7656,53.6875 592.0781,52.0313 Q593.4063,50.375 595.9063,50.375 Q596.6094,50.375 597.25,50.5313 Q597.9063,50.6875 598.4688,50.9844 L598.4688,53.7031 Q597.8438,53.125 597.25,52.8594 Q596.6563,52.5781 596.0313,52.5781 Q594.6875,52.5781 594,53.6563 Q593.3125,54.7188 593.3125,56.8125 Q593.3125,58.9063 594,59.9844 Q594.6875,61.0469 596.0313,61.0469 Q596.6563,61.0469 597.25,60.7813 Q597.8438,60.5 598.4688,59.9219 L598.4688,62.6406 Z "/><text fill="#000000" font-family="sans-serif" font-size="12" lengthAdjust="spacingAndGlyphs" textLength="87" x="609.5" y="61.1543">RedheadDuck</text><line style="stroke: #A80036; stroke-width: 1.5;" x1="581.5" x2="698.5" y1="73" y2="73"/><line style="stroke: #A80036; stroke-width: 1.5;" x1="581.5" x2="698.5" y1="81" y2="81"/><!--MD5=[d0f53e2c1d30e0a516be4f2d7b17f55f]
class headfirst.combining.observer.RubberDuck--><rect codeLine="15" fill="#FEFECE" filter="url(#f1vbse3463kvpu)" height="48" id="headfirst.combining.observer.RubberDuck" style="stroke: #A80036; stroke-width: 1.5;" width="108" x="181" y="41"/><ellipse cx="196" cy="57" fill="#ADD1B2" rx="11" ry="11" style="stroke: #A80036; stroke-width: 1.0;"/><path d="M198.9688,62.6406 Q198.3906,62.9375 197.75,63.0781 Q197.1094,63.2344 196.4063,63.2344 Q193.9063,63.2344 192.5781,61.5938 Q191.2656,59.9375 191.2656,56.8125 Q191.2656,53.6875 192.5781,52.0313 Q193.9063,50.375 196.4063,50.375 Q197.1094,50.375 197.75,50.5313 Q198.4063,50.6875 198.9688,50.9844 L198.9688,53.7031 Q198.3438,53.125 197.75,52.8594 Q197.1563,52.5781 196.5313,52.5781 Q195.1875,52.5781 194.5,53.6563 Q193.8125,54.7188 193.8125,56.8125 Q193.8125,58.9063 194.5,59.9844 Q195.1875,61.0469 196.5313,61.0469 Q197.1563,61.0469 197.75,60.7813 Q198.3438,60.5 198.9688,59.9219 L198.9688,62.6406 Z "/><text fill="#000000" font-family="sans-serif" font-size="12" lengthAdjust="spacingAndGlyphs" textLength="76" x="210" y="61.1543">RubberDuck</text><line style="stroke: #A80036; stroke-width: 1.5;" x1="182" x2="288" y1="73" y2="73"/><line style="stroke: #A80036; stroke-width: 1.5;" x1="182" x2="288" y1="81" y2="81"/><!--MD5=[087472dcd8ba62eee95a74e8b4cc86cb]
class headfirst.combining.observer.Observer--><rect codeLine="18" fill="#FEFECE" filter="url(#f1vbse3463kvpu)" height="48" id="headfirst.combining.observer.Observer" style="stroke: #A80036; stroke-width: 1.5;" width="86" x="46" y="149"/><ellipse cx="61" cy="165" fill="#B4A7E5" rx="11" ry="11" style="stroke: #A80036; stroke-width: 1.0;"/><path d="M56.9219,160.7656 L56.9219,158.6094 L64.3125,158.6094 L64.3125,160.7656 L61.8438,160.7656 L61.8438,168.8438 L64.3125,168.8438 L64.3125,171 L56.9219,171 L56.9219,168.8438 L59.3906,168.8438 L59.3906,160.7656 L56.9219,160.7656 Z "/><text fill="#000000" font-family="sans-serif" font-size="12" font-style="italic" lengthAdjust="spacingAndGlyphs" textLength="54" x="75" y="169.1543">Observer</text><line style="stroke: #A80036; stroke-width: 1.5;" x1="47" x2="131" y1="181" y2="181"/><line style="stroke: #A80036; stroke-width: 1.5;" x1="47" x2="131" y1="189" y2="189"/><!--MD5=[d1030f47658bef0026f7039d9daa0e73]
class headfirst.combining.observer.QuackObservable--><rect codeLine="19" fill="#FEFECE" filter="url(#f1vbse3463kvpu)" height="48" id="headfirst.combining.observer.QuackObservable" style="stroke: #A80036; stroke-width: 1.5;" width="138" x="1087" y="257"/><ellipse cx="1102" cy="273" fill="#B4A7E5" rx="11" ry="11" style="stroke: #A80036; stroke-width: 1.0;"/><path d="M1097.9219,268.7656 L1097.9219,266.6094 L1105.3125,266.6094 L1105.3125,268.7656 L1102.8438,268.7656 L1102.8438,276.8438 L1105.3125,276.8438 L1105.3125,279 L1097.9219,279 L1097.9219,276.8438 L1100.3906,276.8438 L1100.3906,268.7656 L1097.9219,268.7656 Z "/><text fill="#000000" font-family="sans-serif" font-size="12" font-style="italic" lengthAdjust="spacingAndGlyphs" textLength="106" x="1116" y="277.1543">QuackObservable</text><line style="stroke: #A80036; stroke-width: 1.5;" x1="1088" x2="1224" y1="289" y2="289"/><line style="stroke: #A80036; stroke-width: 1.5;" x1="1088" x2="1224" y1="297" y2="297"/><!--MD5=[abe8d8eea2db6b60c2b3d9409a82b5c8]
class headfirst.combining.observer.Quackable--><rect codeLine="20" fill="#FEFECE" filter="url(#f1vbse3463kvpu)" height="48" id="headfirst.combining.observer.Quackable" style="stroke: #A80036; stroke-width: 1.5;" width="97" x="747.5" y="149"/><ellipse cx="762.5" cy="165" fill="#B4A7E5" rx="11" ry="11" style="stroke: #A80036; stroke-width: 1.0;"/><path d="M758.4219,160.7656 L758.4219,158.6094 L765.8125,158.6094 L765.8125,160.7656 L763.3438,160.7656 L763.3438,168.8438 L765.8125,168.8438 L765.8125,171 L758.4219,171 L758.4219,168.8438 L760.8906,168.8438 L760.8906,160.7656 L758.4219,160.7656 Z "/><text fill="#000000" font-family="sans-serif" font-size="12" font-style="italic" lengthAdjust="spacingAndGlyphs" textLength="65" x="776.5" y="169.1543">Quackable</text><line style="stroke: #A80036; stroke-width: 1.5;" x1="748.5" x2="843.5" y1="181" y2="181"/><line style="stroke: #A80036; stroke-width: 1.5;" x1="748.5" x2="843.5" y1="189" y2="189"/><!--MD5=[8479184e23c2bec09445fccfd361f5d2]
class java.util.ArrayList--><rect codeLine="16" fill="#FEFECE" filter="url(#f1vbse3463kvpu)" height="48" id="java.util.ArrayList" style="stroke: #A80036; stroke-width: 1.5;" width="85" x="1921.5" y="257"/><ellipse cx="1936.5" cy="273" fill="#ADD1B2" rx="11" ry="11" style="stroke: #A80036; stroke-width: 1.0;"/><path d="M1939.4688,278.6406 Q1938.8906,278.9375 1938.25,279.0781 Q1937.6094,279.2344 1936.9063,279.2344 Q1934.4063,279.2344 1933.0781,277.5938 Q1931.7656,275.9375 1931.7656,272.8125 Q1931.7656,269.6875 1933.0781,268.0313 Q1934.4063,266.375 1936.9063,266.375 Q1937.6094,266.375 1938.25,266.5313 Q1938.9063,266.6875 1939.4688,266.9844 L1939.4688,269.7031 Q1938.8438,269.125 1938.25,268.8594 Q1937.6563,268.5781 1937.0313,268.5781 Q1935.6875,268.5781 1935,269.6563 Q1934.3125,270.7188 1934.3125,272.8125 Q1934.3125,274.9063 1935,275.9844 Q1935.6875,277.0469 1937.0313,277.0469 Q1937.6563,277.0469 1938.25,276.7813 Q1938.8438,276.5 1939.4688,275.9219 L1939.4688,278.6406 Z "/><text fill="#000000" font-family="sans-serif" font-size="12" lengthAdjust="spacingAndGlyphs" textLength="53" x="1950.5" y="277.1543">ArrayList</text><line style="stroke: #A80036; stroke-width: 1.5;" x1="1922.5" x2="2005.5" y1="289" y2="289"/><line style="stroke: #A80036; stroke-width: 1.5;" x1="1922.5" x2="2005.5" y1="297" y2="297"/><!--MD5=[af67028c7c879a354eef1ccc049398d0]
class java.util.Iterator--><rect codeLine="17" fill="#FEFECE" filter="url(#f1vbse3463kvpu)" height="48" id="java.util.Iterator" style="stroke: #A80036; stroke-width: 1.5;" width="79" x="2041.5" y="257"/><ellipse cx="2056.5" cy="273" fill="#ADD1B2" rx="11" ry="11" style="stroke: #A80036; stroke-width: 1.0;"/><path d="M2059.4688,278.6406 Q2058.8906,278.9375 2058.25,279.0781 Q2057.6094,279.2344 2056.9063,279.2344 Q2054.4063,279.2344 2053.0781,277.5938 Q2051.7656,275.9375 2051.7656,272.8125 Q2051.7656,269.6875 2053.0781,268.0313 Q2054.4063,266.375 2056.9063,266.375 Q2057.6094,266.375 2058.25,266.5313 Q2058.9063,266.6875 2059.4688,266.9844 L2059.4688,269.7031 Q2058.8438,269.125 2058.25,268.8594 Q2057.6563,268.5781 2057.0313,268.5781 Q2055.6875,268.5781 2055,269.6563 Q2054.3125,270.7188 2054.3125,272.8125 Q2054.3125,274.9063 2055,275.9844 Q2055.6875,277.0469 2057.0313,277.0469 Q2057.6563,277.0469 2058.25,276.7813 Q2058.8438,276.5 2059.4688,275.9219 L2059.4688,278.6406 Z "/><text fill="#000000" font-family="sans-serif" font-size="12" lengthAdjust="spacingAndGlyphs" textLength="47" x="2070.5" y="277.1543">Iterator</text><line style="stroke: #A80036; stroke-width: 1.5;" x1="2042.5" x2="2119.5" y1="289" y2="289"/><line style="stroke: #A80036; stroke-width: 1.5;" x1="2042.5" x2="2119.5" y1="297" y2="297"/><!--MD5=[113b4e2e78c9f8d9592a37a882182329]
link headfirst.combining.observer.CountingDuckFactory to headfirst.combining.observer.AbstractDuckFactory--><path codeLine="21" d="M1683,89 C1683,100.59 1683,115.03 1683,128.6 " fill="none" id="headfirst.combining.observer.CountingDuckFactory-to-headfirst.combining.observer.AbstractDuckFactory" style="stroke: #A80036; stroke-width: 1.0;"/><polygon fill="none" points="1690,128.68,1683,148.68,1676,128.68,1690,128.68" style="stroke: #A80036; stroke-width: 1.0;"/><!--MD5=[31a9f3e6a65f1ef3b3409cb5a5b0c66b]
link headfirst.combining.observer.DecoyDuck to headfirst.combining.observer.Quackable--><path codeLine="22" d="M545.72,83.86 C595.82,101.5 672.76,128.6 728.11,148.09 " fill="none" id="headfirst.combining.observer.DecoyDuck-to-headfirst.combining.observer.Quackable" style="stroke: #A80036; stroke-width: 1.0;"/><polygon fill="none" points="730.53,141.52,747.07,154.77,725.88,154.73,730.53,141.52" style="stroke: #A80036; stroke-width: 1.0;"/><!--MD5=[bea07afbe41a36d56e834f30653a9bb8]
link headfirst.combining.observer.DuckCall to headfirst.combining.observer.Quackable--><path codeLine="23" d="M409.67,83.22 C415.45,85.3 421.34,87.29 427,89 C530.27,120.23 652.98,145.56 727.63,159.7 " fill="none" id="headfirst.combining.observer.DuckCall-to-headfirst.combining.observer.Quackable" style="stroke: #A80036; stroke-width: 1.0;"/><polygon fill="none" points="728.99,152.83,747.36,163.39,726.42,166.59,728.99,152.83" style="stroke: #A80036; stroke-width: 1.0;"/><!--MD5=[6c4583c3374465dc58969cef267b3f8b]
link headfirst.combining.observer.DuckFactory to headfirst.combining.observer.AbstractDuckFactory--><path codeLine="24" d="M1548.32,89 C1571.68,103.4 1602.19,122.2 1628.26,138.26 " fill="none" id="headfirst.combining.observer.DuckFactory-to-headfirst.combining.observer.AbstractDuckFactory" style="stroke: #A80036; stroke-width: 1.0;"/><polygon fill="none" points="1632.1,132.41,1645.45,148.86,1624.76,144.33,1632.1,132.41" style="stroke: #A80036; stroke-width: 1.0;"/><!--MD5=[abb709039b356b26824879e8fb543315]
link headfirst.combining.observer.Flock to java.util.ArrayList--><path codeLine="25" d="M1847.27,89.31 C1871.58,129.03 1920.93,209.65 1947,252.22 " fill="none" id="headfirst.combining.observer.Flock-to-java.util.ArrayList" style="stroke: #A80036; stroke-width: 1.0; stroke-dasharray: 7.0,7.0;"/><polygon fill="#A80036" points="1949.75,256.72,1948.4489,246.9575,1947.1335,252.4593,1941.6317,251.1439,1949.75,256.72" style="stroke: #A80036; stroke-width: 1.0;"/><!--MD5=[15947796f770c5a1c3c8c3a1dc2edc93]
link headfirst.combining.observer.Flock to java.util.Iterator--><path codeLine="26" d="M1865.32,88.03 C1904.61,115.48 1972.1,164.79 2024,214 C2036.54,225.89 2049.22,240.29 2059.43,252.6 " fill="none" id="headfirst.combining.observer.Flock-to-java.util.Iterator" style="stroke: #A80036; stroke-width: 1.0; stroke-dasharray: 7.0,7.0;"/><polygon fill="#A80036" points="2062.79,256.69,2060.1638,247.1977,2059.6145,252.8279,2053.9843,252.2786,2062.79,256.69" style="stroke: #A80036; stroke-width: 1.0;"/><!--MD5=[8761bb237136e063d5eaff4cf1313b61]
link headfirst.combining.observer.Flock to headfirst.combining.observer.Quackable--><path codeLine="27" d="M1800.79,82.78 C1795,85.23 1788.91,87.44 1783,89 C1608.81,134.88 1058.68,161.25 864.6,169.32 " fill="none" id="headfirst.combining.observer.Flock-to-headfirst.combining.observer.Quackable" style="stroke: #A80036; stroke-width: 1.0;"/><polygon fill="none" points="864.85,176.32,844.58,170.14,864.28,162.33,864.85,176.32" style="stroke: #A80036; stroke-width: 1.0;"/><!--MD5=[b7ccf299f7a17e4f67ef7c40fe2807e0]
link headfirst.combining.observer.GooseAdapter to headfirst.combining.observer.Quackable--><path codeLine="28" d="M796,89 C796,100.59 796,115.03 796,128.6 " fill="none" id="headfirst.combining.observer.GooseAdapter-to-headfirst.combining.observer.Quackable" style="stroke: #A80036; stroke-width: 1.0;"/><polygon fill="none" points="803,128.68,796,148.68,789,128.68,803,128.68" style="stroke: #A80036; stroke-width: 1.0;"/><!--MD5=[b9be9a7370e3f5aaf83a4e59843640ff]
link headfirst.combining.observer.MallardDuck to headfirst.combining.observer.Quackable--><path codeLine="29" d="M1312.97,84.42 C1307.27,86.09 1301.54,87.65 1296,89 C1143.87,126.05 961.65,151.7 864.68,163.89 " fill="none" id="headfirst.combining.observer.MallardDuck-to-headfirst.combining.observer.Quackable" style="stroke: #A80036; stroke-width: 1.0;"/><polygon fill="none" points="865.46,170.85,844.75,166.36,863.74,156.95,865.46,170.85" style="stroke: #A80036; stroke-width: 1.0;"/><!--MD5=[b74a5f5e9e9d18398ce2f27468013642]
link headfirst.combining.observer.Observable to java.util.ArrayList--><path codeLine="30" d="M1567.22,192.72 C1573.16,194.4 1579.17,195.88 1585,197 C1649.71,209.41 1819.44,190.51 1881,214 C1903.04,222.41 1923.81,238.94 1939.06,253.35 " fill="none" id="headfirst.combining.observer.Observable-to-java.util.ArrayList" style="stroke: #A80036; stroke-width: 1.0; stroke-dasharray: 7.0,7.0;"/><polygon fill="#A80036" points="1942.82,256.96,1939.0999,247.8407,1939.2139,253.4965,1933.5582,253.6105,1942.82,256.96" style="stroke: #A80036; stroke-width: 1.0;"/><!--MD5=[e93eabdf5af78445a929f043bd71029f]
link headfirst.combining.observer.Observable to java.util.Iterator--><path codeLine="31" d="M1567.2,192.83 C1573.14,194.49 1579.16,195.94 1585,197 C1633.02,205.75 1980.01,192.83 2024,214 C2041.18,222.27 2055.26,238.38 2065.12,252.62 " fill="none" id="headfirst.combining.observer.Observable-to-java.util.Iterator" style="stroke: #A80036; stroke-width: 1.0; stroke-dasharray: 7.0,7.0;"/><polygon fill="#A80036" points="2068.05,256.96,2066.3628,247.2567,2065.2666,252.8063,2059.717,251.7101,2068.05,256.96" style="stroke: #A80036; stroke-width: 1.0;"/><!--MD5=[e48e0b422a4889640553994b44be1591]
link headfirst.combining.observer.Observable to headfirst.combining.observer.QuackObservable--><path codeLine="32" d="M1464.8,189.07 C1407.52,205.94 1313.7,233.56 1244.48,253.95 " fill="none" id="headfirst.combining.observer.Observable-to-headfirst.combining.observer.QuackObservable" style="stroke: #A80036; stroke-width: 1.0;"/><polygon fill="none" points="1246.38,260.69,1225.21,259.62,1242.42,247.26,1246.38,260.69" style="stroke: #A80036; stroke-width: 1.0;"/><!--MD5=[603edfee3ab2457adf00d30bc96b26f8]
link headfirst.combining.observer.QuackCounter to headfirst.combining.observer.Quackable--><path codeLine="33" d="M1002.72,89 C961.82,105.42 906.65,127.57 863.59,144.86 " fill="none" id="headfirst.combining.observer.QuackCounter-to-headfirst.combining.observer.Quackable" style="stroke: #A80036; stroke-width: 1.0;"/><polygon fill="none" points="865.92,151.47,844.76,152.42,860.71,138.48,865.92,151.47" style="stroke: #A80036; stroke-width: 1.0;"/><!--MD5=[9f07074314a7abe61ddab49ec31c552c]
link headfirst.combining.observer.Quackologist to headfirst.combining.observer.Observer--><path codeLine="34" d="M89,89 C89,100.59 89,115.03 89,128.6 " fill="none" id="headfirst.combining.observer.Quackologist-to-headfirst.combining.observer.Observer" style="stroke: #A80036; stroke-width: 1.0;"/><polygon fill="none" points="96,128.68,89,148.68,82,128.68,96,128.68" style="stroke: #A80036; stroke-width: 1.0;"/><!--MD5=[a2498ab27e23c69f4063c18b9a95af95]
link headfirst.combining.observer.RedheadDuck to headfirst.combining.observer.Quackable--><path codeLine="35" d="M673.85,89 C694.73,103.19 721.91,121.66 745.32,137.57 " fill="none" id="headfirst.combining.observer.RedheadDuck-to-headfirst.combining.observer.Quackable" style="stroke: #A80036; stroke-width: 1.0;"/><polygon fill="none" points="749.34,131.83,761.95,148.86,741.47,143.41,749.34,131.83" style="stroke: #A80036; stroke-width: 1.0;"/><!--MD5=[da23cc5f69bde9135627e913cbfc7b4d]
link headfirst.combining.observer.RubberDuck to headfirst.combining.observer.Quackable--><path codeLine="36" d="M289.02,84.16 C295.05,85.92 301.13,87.57 307,89 C455.14,125.04 632.28,150.93 727.44,163.47 " fill="none" id="headfirst.combining.observer.RubberDuck-to-headfirst.combining.observer.Quackable" style="stroke: #A80036; stroke-width: 1.0;"/><polygon fill="none" points="728.37,156.53,747.3,166.05,726.57,170.42,728.37,156.53" style="stroke: #A80036; stroke-width: 1.0;"/><!--MD5=[dde5eb738bdf74d0497d6028f04d6d2f]
link headfirst.combining.observer.Quackable to headfirst.combining.observer.QuackObservable--><path codeLine="37" d="M844.55,188.3 C901.53,205.07 997.15,233.23 1067.44,253.92 " fill="none" id="headfirst.combining.observer.Quackable-to-headfirst.combining.observer.QuackObservable" style="stroke: #A80036; stroke-width: 1.0;"/><polygon fill="none" points="1069.79,247.32,1087,259.68,1065.84,260.75,1069.79,247.32" style="stroke: #A80036; stroke-width: 1.0;"/><!--MD5=[50b6b1b3daffd837df78553b079f97f2]
@startuml
abstract class headfirst.combining.observer.AbstractDuckFactory
class headfirst.combining.observer.CountingDuckFactory
class headfirst.combining.observer.DecoyDuck
class headfirst.combining.observer.DuckCall
class headfirst.combining.observer.DuckFactory
class headfirst.combining.observer.DuckSimulator
class headfirst.combining.observer.Flock
class headfirst.combining.observer.Goose
class headfirst.combining.observer.GooseAdapter
class headfirst.combining.observer.MallardDuck
class headfirst.combining.observer.Observable
class headfirst.combining.observer.QuackCounter
class headfirst.combining.observer.Quackologist
class headfirst.combining.observer.RedheadDuck
class headfirst.combining.observer.RubberDuck
class java.util.ArrayList
class java.util.Iterator
interface headfirst.combining.observer.Observer
interface headfirst.combining.observer.QuackObservable
interface headfirst.combining.observer.Quackable
headfirst.combining.observer.CountingDuckFactory - -|> headfirst.combining.observer.AbstractDuckFactory
headfirst.combining.observer.DecoyDuck - -|> headfirst.combining.observer.Quackable
headfirst.combining.observer.DuckCall - -|> headfirst.combining.observer.Quackable
headfirst.combining.observer.DuckFactory - -|> headfirst.combining.observer.AbstractDuckFactory
headfirst.combining.observer.Flock ..> java.util.ArrayList
headfirst.combining.observer.Flock ..> java.util.Iterator
headfirst.combining.observer.Flock - -|> headfirst.combining.observer.Quackable
headfirst.combining.observer.GooseAdapter - -|> headfirst.combining.observer.Quackable
headfirst.combining.observer.MallardDuck - -|> headfirst.combining.observer.Quackable
headfirst.combining.observer.Observable ..> java.util.ArrayList
headfirst.combining.observer.Observable ..> java.util.Iterator
headfirst.combining.observer.Observable - -|> headfirst.combining.observer.QuackObservable
headfirst.combining.observer.QuackCounter - -|> headfirst.combining.observer.Quackable
headfirst.combining.observer.Quackologist - -|> headfirst.combining.observer.Observer
headfirst.combining.observer.RedheadDuck - -|> headfirst.combining.observer.Quackable
headfirst.combining.observer.RubberDuck - -|> headfirst.combining.observer.Quackable
headfirst.combining.observer.Quackable - -|> headfirst.combining.observer.QuackObservable
@enduml

PlantUML version 1.2020.18(Wed Sep 30 22:40:44 EEST 2020)
(GPL source distribution)
Java Runtime: OpenJDK Runtime Environment
JVM: OpenJDK 64-Bit Server VM
Default Encoding: UTF-8
Language: en
Country: US
--></g></svg>