<?xml version="1.0" encoding="UTF-8" standalone="no"?><svg xmlns="http://www.w3.org/2000/svg" xmlns:xlink="http://www.w3.org/1999/xlink" contentScriptType="application/ecmascript" contentStyleType="text/css" height="219px" preserveAspectRatio="none" style="width:1062px;height:219px;" version="1.1" viewBox="0 0 1062 219" width="1062px" zoomAndPan="magnify"><defs><filter height="300%" id="f1jk0o5u1nyxv6" width="300%" x="-1" y="-1"><feGaussianBlur result="blurOut" stdDeviation="2.0"/><feColorMatrix in="blurOut" result="blurOut2" type="matrix" values="0 0 0 0 0 0 0 0 0 0 0 0 0 0 0 0 0 0 .4 0"/><feOffset dx="4.0" dy="4.0" in="blurOut2" result="blurOut3"/><feBlend in="SourceGraphic" in2="blurOut3" mode="normal"/></filter></defs><g><!--cluster ch2--><polygon fill="#FFFFFF" filter="url(#f1jk0o5u1nyxv6)" points="14,16,49,16,56,38.2969,267,38.2969,267,207,14,207,14,16" style="stroke: #000000; stroke-width: 1.5;"/><line style="stroke: #000000; stroke-width: 1.5;" x1="14" x2="56" y1="38.2969" y2="38.2969"/><text fill="#000000" font-family="sans-serif" font-size="14" font-weight="bold" lengthAdjust="spacingAndGlyphs" textLength="29" x="18" y="30.9951">ch2</text><!--cluster java.util--><polygon fill="#FFFFFF" filter="url(#f1jk0o5u1nyxv6)" points="275,124,341,124,348,146.2969,1040,146.2969,1040,207,275,207,275,124" style="stroke: #000000; stroke-width: 1.5;"/><line style="stroke: #000000; stroke-width: 1.5;" x1="275" x2="348" y1="146.2969" y2="146.2969"/><text fill="#000000" font-family="sans-serif" font-size="14" font-weight="bold" lengthAdjust="spacingAndGlyphs" textLength="60" x="279" y="138.9951">java.util</text><!--class ch2.Animal--><rect fill="#FEFECE" filter="url(#f1jk0o5u1nyxv6)" height="48" id="ch2.Animal" style="stroke: #A80036; stroke-width: 1.5;" width="73" x="108.5" y="151"/><ellipse cx="123.5" cy="167" fill="#ADD1B2" rx="11" ry="11" style="stroke: #A80036; stroke-width: 1.0;"/><path d="M126.4688,172.6406 Q125.8906,172.9375 125.25,173.0781 Q124.6094,173.2344 123.9063,173.2344 Q121.4063,173.2344 120.0781,171.5938 Q118.7656,169.9375 118.7656,166.8125 Q118.7656,163.6875 120.0781,162.0313 Q121.4063,160.375 123.9063,160.375 Q124.6094,160.375 125.25,160.5313 Q125.9063,160.6875 126.4688,160.9844 L126.4688,163.7031 Q125.8438,163.125 125.25,162.8594 Q124.6563,162.5781 124.0313,162.5781 Q122.6875,162.5781 122,163.6563 Q121.3125,164.7188 121.3125,166.8125 Q121.3125,168.9063 122,169.9844 Q122.6875,171.0469 124.0313,171.0469 Q124.6563,171.0469 125.25,170.7813 Q125.8438,170.5 126.4688,169.9219 L126.4688,172.6406 Z "/><text fill="#000000" font-family="sans-serif" font-size="12" lengthAdjust="spacingAndGlyphs" textLength="41" x="137.5" y="171.1543">Animal</text><line style="stroke: #A80036; stroke-width: 1.5;" x1="109.5" x2="180.5" y1="183" y2="183"/><line style="stroke: #A80036; stroke-width: 1.5;" x1="109.5" x2="180.5" y1="191" y2="191"/><!--class ch2.Dog--><rect fill="#FEFECE" filter="url(#f1jk0o5u1nyxv6)" height="48" id="ch2.Dog" style="stroke: #A80036; stroke-width: 1.5;" width="57" x="116.5" y="43"/><ellipse cx="131.5" cy="59" fill="#ADD1B2" rx="11" ry="11" style="stroke: #A80036; stroke-width: 1.0;"/><path d="M134.4688,64.6406 Q133.8906,64.9375 133.25,65.0781 Q132.6094,65.2344 131.9063,65.2344 Q129.4063,65.2344 128.0781,63.5938 Q126.7656,61.9375 126.7656,58.8125 Q126.7656,55.6875 128.0781,54.0313 Q129.4063,52.375 131.9063,52.375 Q132.6094,52.375 133.25,52.5313 Q133.9063,52.6875 134.4688,52.9844 L134.4688,55.7031 Q133.8438,55.125 133.25,54.8594 Q132.6563,54.5781 132.0313,54.5781 Q130.6875,54.5781 130,55.6563 Q129.3125,56.7188 129.3125,58.8125 Q129.3125,60.9063 130,61.9844 Q130.6875,63.0469 132.0313,63.0469 Q132.6563,63.0469 133.25,62.7813 Q133.8438,62.5 134.4688,61.9219 L134.4688,64.6406 Z "/><text fill="#000000" font-family="sans-serif" font-size="12" lengthAdjust="spacingAndGlyphs" textLength="25" x="145.5" y="63.1543">Dog</text><line style="stroke: #A80036; stroke-width: 1.5;" x1="117.5" x2="172.5" y1="75" y2="75"/><line style="stroke: #A80036; stroke-width: 1.5;" x1="117.5" x2="172.5" y1="83" y2="83"/><!--class ch2.Fib--><rect fill="#FEFECE" filter="url(#f1jk0o5u1nyxv6)" height="48" id="ch2.Fib" style="stroke: #A80036; stroke-width: 1.5;" width="50" x="209" y="43"/><ellipse cx="224" cy="59" fill="#ADD1B2" rx="11" ry="11" style="stroke: #A80036; stroke-width: 1.0;"/><path d="M226.9688,64.6406 Q226.3906,64.9375 225.75,65.0781 Q225.1094,65.2344 224.4063,65.2344 Q221.9063,65.2344 220.5781,63.5938 Q219.2656,61.9375 219.2656,58.8125 Q219.2656,55.6875 220.5781,54.0313 Q221.9063,52.375 224.4063,52.375 Q225.1094,52.375 225.75,52.5313 Q226.4063,52.6875 226.9688,52.9844 L226.9688,55.7031 Q226.3438,55.125 225.75,54.8594 Q225.1563,54.5781 224.5313,54.5781 Q223.1875,54.5781 222.5,55.6563 Q221.8125,56.7188 221.8125,58.8125 Q221.8125,60.9063 222.5,61.9844 Q223.1875,63.0469 224.5313,63.0469 Q225.1563,63.0469 225.75,62.7813 Q226.3438,62.5 226.9688,61.9219 L226.9688,64.6406 Z "/><text fill="#000000" font-family="sans-serif" font-size="12" lengthAdjust="spacingAndGlyphs" textLength="18" x="238" y="63.1543">Fib</text><line style="stroke: #A80036; stroke-width: 1.5;" x1="210" x2="258" y1="75" y2="75"/><line style="stroke: #A80036; stroke-width: 1.5;" x1="210" x2="258" y1="83" y2="83"/><!--class ch2.Test--><rect fill="#FEFECE" filter="url(#f1jk0o5u1nyxv6)" height="48" id="ch2.Test" style="stroke: #A80036; stroke-width: 1.5;" width="59" x="22.5" y="43"/><ellipse cx="37.5" cy="59" fill="#ADD1B2" rx="11" ry="11" style="stroke: #A80036; stroke-width: 1.0;"/><path d="M40.4688,64.6406 Q39.8906,64.9375 39.25,65.0781 Q38.6094,65.2344 37.9063,65.2344 Q35.4063,65.2344 34.0781,63.5938 Q32.7656,61.9375 32.7656,58.8125 Q32.7656,55.6875 34.0781,54.0313 Q35.4063,52.375 37.9063,52.375 Q38.6094,52.375 39.25,52.5313 Q39.9063,52.6875 40.4688,52.9844 L40.4688,55.7031 Q39.8438,55.125 39.25,54.8594 Q38.6563,54.5781 38.0313,54.5781 Q36.6875,54.5781 36,55.6563 Q35.3125,56.7188 35.3125,58.8125 Q35.3125,60.9063 36,61.9844 Q36.6875,63.0469 38.0313,63.0469 Q38.6563,63.0469 39.25,62.7813 Q39.8438,62.5 40.4688,61.9219 L40.4688,64.6406 Z "/><text fill="#000000" font-family="sans-serif" font-size="12" lengthAdjust="spacingAndGlyphs" textLength="27" x="51.5" y="63.1543">Test</text><line style="stroke: #A80036; stroke-width: 1.5;" x1="23.5" x2="80.5" y1="75" y2="75"/><line style="stroke: #A80036; stroke-width: 1.5;" x1="23.5" x2="80.5" y1="83" y2="83"/><!--class java.util.Arrays--><rect fill="#FEFECE" filter="url(#f1jk0o5u1nyxv6)" height="48" id="java.util.Arrays" style="stroke: #A80036; stroke-width: 1.5;" width="71" x="960.5" y="151"/><ellipse cx="975.5" cy="167" fill="#ADD1B2" rx="11" ry="11" style="stroke: #A80036; stroke-width: 1.0;"/><path d="M978.4688,172.6406 Q977.8906,172.9375 977.25,173.0781 Q976.6094,173.2344 975.9063,173.2344 Q973.4063,173.2344 972.0781,171.5938 Q970.7656,169.9375 970.7656,166.8125 Q970.7656,163.6875 972.0781,162.0313 Q973.4063,160.375 975.9063,160.375 Q976.6094,160.375 977.25,160.5313 Q977.9063,160.6875 978.4688,160.9844 L978.4688,163.7031 Q977.8438,163.125 977.25,162.8594 Q976.6563,162.5781 976.0313,162.5781 Q974.6875,162.5781 974,163.6563 Q973.3125,164.7188 973.3125,166.8125 Q973.3125,168.9063 974,169.9844 Q974.6875,171.0469 976.0313,171.0469 Q976.6563,171.0469 977.25,170.7813 Q977.8438,170.5 978.4688,169.9219 L978.4688,172.6406 Z "/><text fill="#000000" font-family="sans-serif" font-size="12" lengthAdjust="spacingAndGlyphs" textLength="39" x="989.5" y="171.1543">Arrays</text><line style="stroke: #A80036; stroke-width: 1.5;" x1="961.5" x2="1030.5" y1="183" y2="183"/><line style="stroke: #A80036; stroke-width: 1.5;" x1="961.5" x2="1030.5" y1="191" y2="191"/><!--class java.util.Collections--><rect fill="#FEFECE" filter="url(#f1jk0o5u1nyxv6)" height="48" id="java.util.Collections" style="stroke: #A80036; stroke-width: 1.5;" width="100" x="825" y="151"/><ellipse cx="840" cy="167" fill="#ADD1B2" rx="11" ry="11" style="stroke: #A80036; stroke-width: 1.0;"/><path d="M842.9688,172.6406 Q842.3906,172.9375 841.75,173.0781 Q841.1094,173.2344 840.4063,173.2344 Q837.9063,173.2344 836.5781,171.5938 Q835.2656,169.9375 835.2656,166.8125 Q835.2656,163.6875 836.5781,162.0313 Q837.9063,160.375 840.4063,160.375 Q841.1094,160.375 841.75,160.5313 Q842.4063,160.6875 842.9688,160.9844 L842.9688,163.7031 Q842.3438,163.125 841.75,162.8594 Q841.1563,162.5781 840.5313,162.5781 Q839.1875,162.5781 838.5,163.6563 Q837.8125,164.7188 837.8125,166.8125 Q837.8125,168.9063 838.5,169.9844 Q839.1875,171.0469 840.5313,171.0469 Q841.1563,171.0469 841.75,170.7813 Q842.3438,170.5 842.9688,169.9219 L842.9688,172.6406 Z "/><text fill="#000000" font-family="sans-serif" font-size="12" lengthAdjust="spacingAndGlyphs" textLength="68" x="854" y="171.1543">Collections</text><line style="stroke: #A80036; stroke-width: 1.5;" x1="826" x2="924" y1="183" y2="183"/><line style="stroke: #A80036; stroke-width: 1.5;" x1="826" x2="924" y1="191" y2="191"/><!--class java.util.Enumeration--><rect fill="#FEFECE" filter="url(#f1jk0o5u1nyxv6)" height="48" id="java.util.Enumeration" style="stroke: #A80036; stroke-width: 1.5;" width="112" x="678" y="151"/><ellipse cx="693" cy="167" fill="#ADD1B2" rx="11" ry="11" style="stroke: #A80036; stroke-width: 1.0;"/><path d="M695.9688,172.6406 Q695.3906,172.9375 694.75,173.0781 Q694.1094,173.2344 693.4063,173.2344 Q690.9063,173.2344 689.5781,171.5938 Q688.2656,169.9375 688.2656,166.8125 Q688.2656,163.6875 689.5781,162.0313 Q690.9063,160.375 693.4063,160.375 Q694.1094,160.375 694.75,160.5313 Q695.4063,160.6875 695.9688,160.9844 L695.9688,163.7031 Q695.3438,163.125 694.75,162.8594 Q694.1563,162.5781 693.5313,162.5781 Q692.1875,162.5781 691.5,163.6563 Q690.8125,164.7188 690.8125,166.8125 Q690.8125,168.9063 691.5,169.9844 Q692.1875,171.0469 693.5313,171.0469 Q694.1563,171.0469 694.75,170.7813 Q695.3438,170.5 695.9688,169.9219 L695.9688,172.6406 Z "/><text fill="#000000" font-family="sans-serif" font-size="12" lengthAdjust="spacingAndGlyphs" textLength="80" x="707" y="171.1543">Enumeration</text><line style="stroke: #A80036; stroke-width: 1.5;" x1="679" x2="789" y1="183" y2="183"/><line style="stroke: #A80036; stroke-width: 1.5;" x1="679" x2="789" y1="191" y2="191"/><!--class java.util.Hashtable--><rect fill="#FEFECE" filter="url(#f1jk0o5u1nyxv6)" height="48" id="java.util.Hashtable" style="stroke: #A80036; stroke-width: 1.5;" width="96" x="547" y="151"/><ellipse cx="562" cy="167" fill="#ADD1B2" rx="11" ry="11" style="stroke: #A80036; stroke-width: 1.0;"/><path d="M564.9688,172.6406 Q564.3906,172.9375 563.75,173.0781 Q563.1094,173.2344 562.4063,173.2344 Q559.9063,173.2344 558.5781,171.5938 Q557.2656,169.9375 557.2656,166.8125 Q557.2656,163.6875 558.5781,162.0313 Q559.9063,160.375 562.4063,160.375 Q563.1094,160.375 563.75,160.5313 Q564.4063,160.6875 564.9688,160.9844 L564.9688,163.7031 Q564.3438,163.125 563.75,162.8594 Q563.1563,162.5781 562.5313,162.5781 Q561.1875,162.5781 560.5,163.6563 Q559.8125,164.7188 559.8125,166.8125 Q559.8125,168.9063 560.5,169.9844 Q561.1875,171.0469 562.5313,171.0469 Q563.1563,171.0469 563.75,170.7813 Q564.3438,170.5 564.9688,169.9219 L564.9688,172.6406 Z "/><text fill="#000000" font-family="sans-serif" font-size="12" lengthAdjust="spacingAndGlyphs" textLength="64" x="576" y="171.1543">Hashtable</text><line style="stroke: #A80036; stroke-width: 1.5;" x1="548" x2="642" y1="183" y2="183"/><line style="stroke: #A80036; stroke-width: 1.5;" x1="548" x2="642" y1="191" y2="191"/><!--class java.util.LinkedList--><rect fill="#FEFECE" filter="url(#f1jk0o5u1nyxv6)" height="48" id="java.util.LinkedList" style="stroke: #A80036; stroke-width: 1.5;" width="93" x="418.5" y="151"/><ellipse cx="433.5" cy="167" fill="#ADD1B2" rx="11" ry="11" style="stroke: #A80036; stroke-width: 1.0;"/><path d="M436.4688,172.6406 Q435.8906,172.9375 435.25,173.0781 Q434.6094,173.2344 433.9063,173.2344 Q431.4063,173.2344 430.0781,171.5938 Q428.7656,169.9375 428.7656,166.8125 Q428.7656,163.6875 430.0781,162.0313 Q431.4063,160.375 433.9063,160.375 Q434.6094,160.375 435.25,160.5313 Q435.9063,160.6875 436.4688,160.9844 L436.4688,163.7031 Q435.8438,163.125 435.25,162.8594 Q434.6563,162.5781 434.0313,162.5781 Q432.6875,162.5781 432,163.6563 Q431.3125,164.7188 431.3125,166.8125 Q431.3125,168.9063 432,169.9844 Q432.6875,171.0469 434.0313,171.0469 Q434.6563,171.0469 435.25,170.7813 Q435.8438,170.5 436.4688,169.9219 L436.4688,172.6406 Z "/><text fill="#000000" font-family="sans-serif" font-size="12" lengthAdjust="spacingAndGlyphs" textLength="61" x="447.5" y="171.1543">LinkedList</text><line style="stroke: #A80036; stroke-width: 1.5;" x1="419.5" x2="510.5" y1="183" y2="183"/><line style="stroke: #A80036; stroke-width: 1.5;" x1="419.5" x2="510.5" y1="191" y2="191"/><!--class java.util.ListIterator--><rect fill="#FEFECE" filter="url(#f1jk0o5u1nyxv6)" height="48" id="java.util.ListIterator" style="stroke: #A80036; stroke-width: 1.5;" width="100" x="283" y="151"/><ellipse cx="298" cy="167" fill="#ADD1B2" rx="11" ry="11" style="stroke: #A80036; stroke-width: 1.0;"/><path d="M300.9688,172.6406 Q300.3906,172.9375 299.75,173.0781 Q299.1094,173.2344 298.4063,173.2344 Q295.9063,173.2344 294.5781,171.5938 Q293.2656,169.9375 293.2656,166.8125 Q293.2656,163.6875 294.5781,162.0313 Q295.9063,160.375 298.4063,160.375 Q299.1094,160.375 299.75,160.5313 Q300.4063,160.6875 300.9688,160.9844 L300.9688,163.7031 Q300.3438,163.125 299.75,162.8594 Q299.1563,162.5781 298.5313,162.5781 Q297.1875,162.5781 296.5,163.6563 Q295.8125,164.7188 295.8125,166.8125 Q295.8125,168.9063 296.5,169.9844 Q297.1875,171.0469 298.5313,171.0469 Q299.1563,171.0469 299.75,170.7813 Q300.3438,170.5 300.9688,169.9219 L300.9688,172.6406 Z "/><text fill="#000000" font-family="sans-serif" font-size="12" lengthAdjust="spacingAndGlyphs" textLength="68" x="312" y="171.1543">ListIterator</text><line style="stroke: #A80036; stroke-width: 1.5;" x1="284" x2="382" y1="183" y2="183"/><line style="stroke: #A80036; stroke-width: 1.5;" x1="284" x2="382" y1="191" y2="191"/><!--link ch2.Dog to ch2.Animal--><path d="M145,91.2373 C145,102.9099 145,117.2806 145,130.8027 " fill="none" id="ch2.Dog-ch2.Animal" style="stroke: #A80036; stroke-width: 1.0;"/><polygon fill="none" points="152.0001,130.8436,145,150.8436,138.0001,130.8436,152.0001,130.8436" style="stroke: #A80036; stroke-width: 1.0;"/><!--link ch2.Fib to java.util.Arrays--><path d="M259.0907,68.017 C377.7527,72.9606 879.5254,95.4103 943,124 C954.6139,129.2311 965.2239,138.1287 973.8491,147.0413 " fill="none" id="ch2.Fib-java.util.Arrays" style="stroke: #A80036; stroke-width: 1.0; stroke-dasharray: 7.0,7.0;"/><polygon fill="#A80036" points="977.4212,150.8513,974.1835,141.5498,974.0014,147.2037,968.3474,147.0216,977.4212,150.8513" style="stroke: #A80036; stroke-width: 1.0;"/><!--link ch2.Fib to java.util.Collections--><path d="M259.1091,67.682 C356.0511,70.5918 705.6064,83.7185 808,124 C821.8119,129.4336 835.2069,138.5793 846.3431,147.638 " fill="none" id="ch2.Fib-java.util.Collections" style="stroke: #A80036; stroke-width: 1.0; stroke-dasharray: 7.0,7.0;"/><polygon fill="#A80036" points="850.3404,150.9644,845.9813,142.1327,846.4972,147.766,840.8639,148.2819,850.3404,150.9644" style="stroke: #A80036; stroke-width: 1.0;"/><!--link ch2.Fib to java.util.Enumeration--><path d="M259.2468,68.7965 C339.306,74.7378 586.6013,95.036 661,124 C675.6264,129.6942 690.1327,138.8929 702.3139,147.921 " fill="none" id="ch2.Fib-java.util.Enumeration" style="stroke: #A80036; stroke-width: 1.0; stroke-dasharray: 7.0,7.0;"/><polygon fill="#A80036" points="706.3526,150.9708,701.5811,142.355,702.3625,147.9576,696.7599,148.7391,706.3526,150.9708" style="stroke: #A80036; stroke-width: 1.0;"/><!--link ch2.Fib to java.util.Hashtable--><path d="M259.2624,67.9664 C311.7733,70.7984 435.5928,81.7954 529,124 C542.0456,129.8945 554.858,138.8419 565.6718,147.6053 " fill="none" id="ch2.Fib-java.util.Hashtable" style="stroke: #A80036; stroke-width: 1.0; stroke-dasharray: 7.0,7.0;"/><polygon fill="#A80036" points="569.5621,150.8196,565.1717,142.0035,565.7075,147.6349,560.0761,148.1708,569.5621,150.8196" style="stroke: #A80036; stroke-width: 1.0;"/><!--link ch2.Fib to java.util.LinkedList--><path d="M259.1642,72.7054 C292.8546,80.9746 353.8393,98.1824 401,124 C412.882,130.5047 424.7908,139.2384 435.0583,147.6385 " fill="none" id="ch2.Fib-java.util.LinkedList" style="stroke: #A80036; stroke-width: 1.0; stroke-dasharray: 7.0,7.0;"/><polygon fill="#A80036" points="439.0564,150.96,434.6898,142.1321,435.2105,147.7649,429.5776,148.2856,439.0564,150.96" style="stroke: #A80036; stroke-width: 1.0;"/><!--link ch2.Fib to java.util.ListIterator--><path d="M256.2175,91.2373 C271.3756,107.7734 291.4975,129.7246 307.3396,147.0069 " fill="none" id="ch2.Fib-java.util.ListIterator" style="stroke: #A80036; stroke-width: 1.0; stroke-dasharray: 7.0,7.0;"/><polygon fill="#A80036" points="310.8566,150.8436,307.7239,141.5063,307.478,147.1578,301.8265,146.9119,310.8566,150.8436" style="stroke: #A80036; stroke-width: 1.0;"/><!--
@startuml
class ch2.Animal
class ch2.Dog
class ch2.Fib
class ch2.Test
class java.util.Arrays
class java.util.Collections
class java.util.Enumeration
class java.util.Hashtable
class java.util.LinkedList
class java.util.ListIterator
ch2.Dog - -|> ch2.Animal
ch2.Fib ..> java.util.Arrays
ch2.Fib ..> java.util.Collections
ch2.Fib ..> java.util.Enumeration
ch2.Fib ..> java.util.Hashtable
ch2.Fib ..> java.util.LinkedList
ch2.Fib ..> java.util.ListIterator
@enduml

PlantUML version 1.2018.10(Sat Aug 25 20:02:59 EEST 2018)
(GPL source distribution)
Java Runtime: OpenJDK Runtime Environment
JVM: OpenJDK 64-Bit Server VM
Java Version: 11.0.2+9-Debian-3
Operating System: Linux
OS Version: 4.19.0-kali1-amd64
Default Encoding: UTF-8
Language: en
Country: US
--></g></svg>