<?xml version="1.0" encoding="UTF-8" standalone="no"?><svg xmlns="http://www.w3.org/2000/svg" xmlns:xlink="http://www.w3.org/1999/xlink" contentScriptType="application/ecmascript" contentStyleType="text/css" height="592px" preserveAspectRatio="none" style="width:680px;height:592px;background:#87CEFA;" version="1.1" viewBox="0 0 680 592" width="680px" zoomAndPan="magnify"><defs/><g><text fill="#000000" font-family="sans-serif" font-size="18" lengthAdjust="spacingAndGlyphs" textLength="142" x="272.5" y="16.708">Composite Tree</text><rect fill="#FEFECE" height="65.5469" style="stroke: #A80036; stroke-width: 1.5;" width="324" x="155" y="28.9531"/><text fill="#FF0000" font-family="sans-serif" font-size="16" font-weight="bold" lengthAdjust="spacingAndGlyphs" textLength="49" x="292.5" y="45.8047">trunk</text><line style="stroke: #A80036; stroke-width: 1.5;" x1="156" x2="478" y1="51.5781" y2="51.5781"/><text fill="#000000" font-family="sans-serif" font-size="15" font-weight="bold" lengthAdjust="spacingAndGlyphs" textLength="119" x="161" y="69.5015">name="trunk"</text><text fill="#000000" font-family="sans-serif" font-size="15" font-weight="bold" lengthAdjust="spacingAndGlyphs" textLength="312" x="161" y="86.9624">children=ArrayList{branch1,branch2}</text><rect fill="#FEFECE" height="65.5469" style="stroke: #A80036; stroke-width: 1.5;" width="274" x="31" y="154.9531"/><text fill="#FF0000" font-family="sans-serif" font-size="16" font-weight="bold" lengthAdjust="spacingAndGlyphs" textLength="72" x="132" y="171.8047">branch1</text><line style="stroke: #A80036; stroke-width: 1.5;" x1="32" x2="304" y1="177.5781" y2="177.5781"/><text fill="#000000" font-family="sans-serif" font-size="15" font-weight="bold" lengthAdjust="spacingAndGlyphs" textLength="141" x="37" y="195.5015">name="branch1"</text><text fill="#000000" font-family="sans-serif" font-size="15" font-weight="bold" lengthAdjust="spacingAndGlyphs" textLength="262" x="37" y="212.9624">children=ArrayList{leaf1,leaf2}</text><rect fill="#FEFECE" height="65.5469" style="stroke: #A80036; stroke-width: 1.5;" width="252" x="340" y="154.9531"/><text fill="#FF0000" font-family="sans-serif" font-size="16" font-weight="bold" lengthAdjust="spacingAndGlyphs" textLength="72" x="430" y="171.8047">branch2</text><line style="stroke: #A80036; stroke-width: 1.5;" x1="341" x2="591" y1="177.5781" y2="177.5781"/><text fill="#000000" font-family="sans-serif" font-size="15" font-weight="bold" lengthAdjust="spacingAndGlyphs" textLength="141" x="346" y="195.5015">name="branch2"</text><text fill="#000000" font-family="sans-serif" font-size="15" font-weight="bold" lengthAdjust="spacingAndGlyphs" textLength="240" x="346" y="212.9624">children=ArrayList{branch4}</text><rect fill="#FEFECE" height="65.5469" style="stroke: #A80036; stroke-width: 1.5;" width="252" x="340" y="280.9531"/><text fill="#FF0000" font-family="sans-serif" font-size="16" font-weight="bold" lengthAdjust="spacingAndGlyphs" textLength="72" x="430" y="297.8047">branch4</text><line style="stroke: #A80036; stroke-width: 1.5;" x1="341" x2="591" y1="303.5781" y2="303.5781"/><text fill="#000000" font-family="sans-serif" font-size="15" font-weight="bold" lengthAdjust="spacingAndGlyphs" textLength="141" x="346" y="321.5015">name="branch4"</text><text fill="#000000" font-family="sans-serif" font-size="15" font-weight="bold" lengthAdjust="spacingAndGlyphs" textLength="240" x="346" y="338.9624">children=ArrayList{branch3}</text><rect fill="#FEFECE" height="65.5469" style="stroke: #A80036; stroke-width: 1.5;" width="321" x="305.5" y="406.9531"/><text fill="#FF0000" font-family="sans-serif" font-size="16" font-weight="bold" lengthAdjust="spacingAndGlyphs" textLength="72" x="430" y="423.8047">branch3</text><line style="stroke: #A80036; stroke-width: 1.5;" x1="306.5" x2="625.5" y1="429.5781" y2="429.5781"/><text fill="#000000" font-family="sans-serif" font-size="15" font-weight="bold" lengthAdjust="spacingAndGlyphs" textLength="141" x="311.5" y="447.5015">name="branch3"</text><text fill="#000000" font-family="sans-serif" font-size="15" font-weight="bold" lengthAdjust="spacingAndGlyphs" textLength="309" x="311.5" y="464.9624">children=ArrayList{leaf4,leaf5,leaf6}</text><rect fill="#FEFECE" height="48.0859" style="stroke: #A80036; stroke-width: 1.5;" width="112" x="6" y="289.9531"/><text fill="#FF0000" font-family="sans-serif" font-size="16" font-weight="bold" lengthAdjust="spacingAndGlyphs" textLength="43" x="40.5" y="306.8047">leaf1</text><line style="stroke: #A80036; stroke-width: 1.5;" x1="7" x2="117" y1="312.5781" y2="312.5781"/><text fill="#000000" font-family="sans-serif" font-size="15" font-weight="bold" lengthAdjust="spacingAndGlyphs" textLength="100" x="12" y="330.5015">name=leaf1</text><rect fill="#FEFECE" height="48.0859" style="stroke: #A80036; stroke-width: 1.5;" width="112" x="153" y="289.9531"/><text fill="#FF0000" font-family="sans-serif" font-size="16" font-weight="bold" lengthAdjust="spacingAndGlyphs" textLength="43" x="187.5" y="306.8047">leaf2</text><line style="stroke: #A80036; stroke-width: 1.5;" x1="154" x2="264" y1="312.5781" y2="312.5781"/><text fill="#000000" font-family="sans-serif" font-size="15" font-weight="bold" lengthAdjust="spacingAndGlyphs" textLength="100" x="159" y="330.5015">name=leaf2</text><rect fill="#FEFECE" height="48.0859" style="stroke: #A80036; stroke-width: 1.5;" width="112" x="263" y="532.9531"/><text fill="#FF0000" font-family="sans-serif" font-size="16" font-weight="bold" lengthAdjust="spacingAndGlyphs" textLength="43" x="297.5" y="549.8047">leaf4</text><line style="stroke: #A80036; stroke-width: 1.5;" x1="264" x2="374" y1="555.5781" y2="555.5781"/><text fill="#000000" font-family="sans-serif" font-size="15" font-weight="bold" lengthAdjust="spacingAndGlyphs" textLength="100" x="269" y="573.5015">name=leaf4</text><rect fill="#FEFECE" height="48.0859" style="stroke: #A80036; stroke-width: 1.5;" width="112" x="410" y="532.9531"/><text fill="#FF0000" font-family="sans-serif" font-size="16" font-weight="bold" lengthAdjust="spacingAndGlyphs" textLength="43" x="444.5" y="549.8047">leaf5</text><line style="stroke: #A80036; stroke-width: 1.5;" x1="411" x2="521" y1="555.5781" y2="555.5781"/><text fill="#000000" font-family="sans-serif" font-size="15" font-weight="bold" lengthAdjust="spacingAndGlyphs" textLength="100" x="416" y="573.5015">name=leaf5</text><rect fill="#FEFECE" height="48.0859" style="stroke: #A80036; stroke-width: 1.5;" width="112" x="557" y="532.9531"/><text fill="#FF0000" font-family="sans-serif" font-size="16" font-weight="bold" lengthAdjust="spacingAndGlyphs" textLength="43" x="591.5" y="549.8047">leaf6</text><line style="stroke: #A80036; stroke-width: 1.5;" x1="558" x2="668" y1="555.5781" y2="555.5781"/><text fill="#000000" font-family="sans-serif" font-size="15" font-weight="bold" lengthAdjust="spacingAndGlyphs" textLength="100" x="563" y="573.5015">name=leaf6</text><!--link trunk to branch1--><path d="M278.24,95.2131 C257.46,112.5031 231.82,133.8431 210.49,151.5931 " fill="none" id="trunk-branch1" style="stroke: #0000FF; stroke-width: 1.0;"/><polygon fill="#0000FF" points="206.56,154.8631,216.0357,152.1778,210.4023,151.6636,210.9165,146.0302,206.56,154.8631" style="stroke: #0000FF; stroke-width: 1.0;"/><!--link trunk to branch2--><path d="M355.76,95.2131 C376.54,112.5031 402.18,133.8431 423.51,151.5931 " fill="none" id="trunk-branch2" style="stroke: #0000FF; stroke-width: 1.0;"/><polygon fill="#0000FF" points="427.44,154.8631,423.0835,146.0302,423.5977,151.6636,417.9643,152.1778,427.44,154.8631" style="stroke: #0000FF; stroke-width: 1.0;"/><!--link branch2 to branch4--><path d="M466,221.2131 C466,237.8531 466,258.2531 466,275.5831 " fill="none" id="branch2-branch4" style="stroke: #0000FF; stroke-width: 1.0;"/><polygon fill="#0000FF" points="466,280.8631,470,271.8631,466,275.8631,462,271.8631,466,280.8631" style="stroke: #0000FF; stroke-width: 1.0;"/><!--link branch4 to branch3--><path d="M466,347.2131 C466,363.8531 466,384.2531 466,401.5831 " fill="none" id="branch4-branch3" style="stroke: #0000FF; stroke-width: 1.0;"/><polygon fill="#0000FF" points="466,406.8631,470,397.8631,466,401.8631,462,397.8631,466,406.8631" style="stroke: #0000FF; stroke-width: 1.0;"/><!--link branch1 to leaf1--><path d="M140.43,221.2131 C123.32,241.2231 101.58,266.6531 85.33,285.6631 " fill="none" id="branch1-leaf1" style="stroke: #0000FF; stroke-width: 1.0;"/><polygon fill="#0000FF" points="81.74,289.8631,90.6341,285.633,84.994,286.0668,84.5601,280.4267,81.74,289.8631" style="stroke: #0000FF; stroke-width: 1.0;"/><!--link branch1 to leaf2--><path d="M178.67,221.2131 C185.17,240.8831 193.41,265.8031 199.66,284.7031 " fill="none" id="branch1-leaf2" style="stroke: #0000FF; stroke-width: 1.0;"/><polygon fill="#0000FF" points="201.37,289.8631,202.3452,280.0627,199.8017,285.1154,194.7489,282.5719,201.37,289.8631" style="stroke: #0000FF; stroke-width: 1.0;"/><!--link branch3 to leaf4--><path d="M425.05,472.9831 C402.18,490.8831 374.04,512.8931 352.49,529.7531 " fill="none" id="branch3-leaf4" style="stroke: #0000FF; stroke-width: 1.0;"/><polygon fill="#0000FF" points="348.55,532.8431,358.104,530.4511,352.489,529.7635,353.1766,524.1486,348.55,532.8431" style="stroke: #0000FF; stroke-width: 1.0;"/><!--link branch3 to leaf5--><path d="M466,472.9831 C466,490.0631 466,510.8931 466,527.4131 " fill="none" id="branch3-leaf5" style="stroke: #0000FF; stroke-width: 1.0;"/><polygon fill="#0000FF" points="466,532.8431,470,523.8431,466,527.8431,462,523.8431,466,532.8431" style="stroke: #0000FF; stroke-width: 1.0;"/><!--link branch3 to leaf6--><path d="M506.95,472.9831 C529.82,490.8831 557.96,512.8931 579.51,529.7531 " fill="none" id="branch3-leaf6" style="stroke: #0000FF; stroke-width: 1.0;"/><polygon fill="#0000FF" points="583.45,532.8431,578.8234,524.1486,579.511,529.7635,573.896,530.4511,583.45,532.8431" style="stroke: #0000FF; stroke-width: 1.0;"/><!--
@startuml

title Composite Tree


skinparam backGroundColor LightSkyBlue
skinparam ObjectFontColor red
skinparam ObjectFontStyle bold
skinparam objectFontSize 16
skinparam objectAttributeFontSize 15
skinparam objectAttributeFontStyle bold
skinparam objectArrowColor blue
skinparam shadowing false


        trunk- ->branch1
	 	trunk- ->branch2
	 	branch2 - -> branch4
	 	branch4- -> branch3
      	branch1 - -> leaf1
	 	branch1 - -> leaf2
	 	branch3- -> leaf4
	 	branch3- -> leaf5
	 	branch3- -> leaf6

Object leaf1{
name=leaf1
}

Object leaf2{
name=leaf2
}

Object leaf4{
name=leaf4
}

Object leaf5{
name=leaf5
}

Object leaf6{
name=leaf6
}



Object trunk{
name="trunk"
children=ArrayList{branch1,branch2}

}


Object branch1{
name="branch1"
children=ArrayList{leaf1,leaf2}

}


Object branch2{
name="branch2"
children=ArrayList{branch4}

}

Object branch4{
name="branch4"
children=ArrayList{branch3}

}

Object branch3{
name="branch3"
children=ArrayList{leaf4,leaf5,leaf6}

}


@enduml

PlantUML version 1.2018.10(Sat Aug 25 13:02:59 EDT 2018)
(GPL source distribution)
Java Runtime: OpenJDK Runtime Environment
JVM: OpenJDK 64-Bit Server VM
Java Version: 11.0.8+10-post-Debian-1
Operating System: Linux
OS Version: 5.6.0-kali2-amd64
Default Encoding: UTF-8
Language: en
Country: US
--></g></svg>