<?xml version="1.0" encoding="UTF-8" standalone="no"?><svg xmlns="http://www.w3.org/2000/svg" xmlns:xlink="http://www.w3.org/1999/xlink" contentScriptType="application/ecmascript" contentStyleType="text/css" height="220px" preserveAspectRatio="none" style="width:885px;height:220px;" version="1.1" viewBox="0 0 885 220" width="885px" zoomAndPan="magnify"><defs><filter height="300%" id="fi7avx1p30818" width="300%" x="-1" y="-1"><feGaussianBlur result="blurOut" stdDeviation="2.0"/><feColorMatrix in="blurOut" result="blurOut2" type="matrix" values="0 0 0 0 0 0 0 0 0 0 0 0 0 0 0 0 0 0 .4 0"/><feOffset dx="4.0" dy="4.0" in="blurOut2" result="blurOut3"/><feBlend in="SourceGraphic" in2="blurOut3" mode="normal"/></filter></defs><g><!--MD5=[eac3ee5910557df68ebf513dc4f88f65]
cluster headfirst.combining.ducks--><polygon fill="#FFFFFF" filter="url(#fi7avx1p30818)" points="16,6,231,6,238,28.2969,868,28.2969,868,213,16,213,16,6" style="stroke: #000000; stroke-width: 1.5;"/><line style="stroke: #000000; stroke-width: 1.5;" x1="16" x2="238" y1="28.2969" y2="28.2969"/><text fill="#000000" font-family="sans-serif" font-size="14" font-weight="bold" lengthAdjust="spacingAndGlyphs" textLength="209" x="20" y="20.9951">headfirst.combining.ducks</text><!--MD5=[afda1f405db0343f4f27215c158a8c34]
class headfirst.combining.ducks.DecoyDuck--><rect codeLine="1" fill="#FEFECE" filter="url(#fi7avx1p30818)" height="48" id="headfirst.combining.ducks.DecoyDuck" style="stroke: #A80036; stroke-width: 1.5;" width="101" x="750.5" y="41"/><ellipse cx="765.5" cy="57" fill="#ADD1B2" rx="11" ry="11" style="stroke: #A80036; stroke-width: 1.0;"/><path d="M768.4688,62.6406 Q767.8906,62.9375 767.25,63.0781 Q766.6094,63.2344 765.9063,63.2344 Q763.4063,63.2344 762.0781,61.5938 Q760.7656,59.9375 760.7656,56.8125 Q760.7656,53.6875 762.0781,52.0313 Q763.4063,50.375 765.9063,50.375 Q766.6094,50.375 767.25,50.5313 Q767.9063,50.6875 768.4688,50.9844 L768.4688,53.7031 Q767.8438,53.125 767.25,52.8594 Q766.6563,52.5781 766.0313,52.5781 Q764.6875,52.5781 764,53.6563 Q763.3125,54.7188 763.3125,56.8125 Q763.3125,58.9063 764,59.9844 Q764.6875,61.0469 766.0313,61.0469 Q766.6563,61.0469 767.25,60.7813 Q767.8438,60.5 768.4688,59.9219 L768.4688,62.6406 Z "/><text fill="#000000" font-family="sans-serif" font-size="12" lengthAdjust="spacingAndGlyphs" textLength="69" x="779.5" y="61.1543">DecoyDuck</text><line style="stroke: #A80036; stroke-width: 1.5;" x1="751.5" x2="850.5" y1="73" y2="73"/><line style="stroke: #A80036; stroke-width: 1.5;" x1="751.5" x2="850.5" y1="81" y2="81"/><!--MD5=[856cfc63b56746872450f05ca506dc96]
class headfirst.combining.ducks.DuckCall--><rect codeLine="2" fill="#FEFECE" filter="url(#fi7avx1p30818)" height="48" id="headfirst.combining.ducks.DuckCall" style="stroke: #A80036; stroke-width: 1.5;" width="85" x="630.5" y="41"/><ellipse cx="645.5" cy="57" fill="#ADD1B2" rx="11" ry="11" style="stroke: #A80036; stroke-width: 1.0;"/><path d="M648.4688,62.6406 Q647.8906,62.9375 647.25,63.0781 Q646.6094,63.2344 645.9063,63.2344 Q643.4063,63.2344 642.0781,61.5938 Q640.7656,59.9375 640.7656,56.8125 Q640.7656,53.6875 642.0781,52.0313 Q643.4063,50.375 645.9063,50.375 Q646.6094,50.375 647.25,50.5313 Q647.9063,50.6875 648.4688,50.9844 L648.4688,53.7031 Q647.8438,53.125 647.25,52.8594 Q646.6563,52.5781 646.0313,52.5781 Q644.6875,52.5781 644,53.6563 Q643.3125,54.7188 643.3125,56.8125 Q643.3125,58.9063 644,59.9844 Q644.6875,61.0469 646.0313,61.0469 Q646.6563,61.0469 647.25,60.7813 Q647.8438,60.5 648.4688,59.9219 L648.4688,62.6406 Z "/><text fill="#000000" font-family="sans-serif" font-size="12" lengthAdjust="spacingAndGlyphs" textLength="53" x="659.5" y="61.1543">DuckCall</text><line style="stroke: #A80036; stroke-width: 1.5;" x1="631.5" x2="714.5" y1="73" y2="73"/><line style="stroke: #A80036; stroke-width: 1.5;" x1="631.5" x2="714.5" y1="81" y2="81"/><!--MD5=[ff881c4fbf5d5357d9248f18c634368d]
class headfirst.combining.ducks.DuckSimulator--><rect codeLine="3" fill="#FEFECE" filter="url(#fi7avx1p30818)" height="48" id="headfirst.combining.ducks.DuckSimulator" style="stroke: #A80036; stroke-width: 1.5;" width="122" x="473" y="41"/><ellipse cx="488" cy="57" fill="#ADD1B2" rx="11" ry="11" style="stroke: #A80036; stroke-width: 1.0;"/><path d="M490.9688,62.6406 Q490.3906,62.9375 489.75,63.0781 Q489.1094,63.2344 488.4063,63.2344 Q485.9063,63.2344 484.5781,61.5938 Q483.2656,59.9375 483.2656,56.8125 Q483.2656,53.6875 484.5781,52.0313 Q485.9063,50.375 488.4063,50.375 Q489.1094,50.375 489.75,50.5313 Q490.4063,50.6875 490.9688,50.9844 L490.9688,53.7031 Q490.3438,53.125 489.75,52.8594 Q489.1563,52.5781 488.5313,52.5781 Q487.1875,52.5781 486.5,53.6563 Q485.8125,54.7188 485.8125,56.8125 Q485.8125,58.9063 486.5,59.9844 Q487.1875,61.0469 488.5313,61.0469 Q489.1563,61.0469 489.75,60.7813 Q490.3438,60.5 490.9688,59.9219 L490.9688,62.6406 Z "/><text fill="#000000" font-family="sans-serif" font-size="12" lengthAdjust="spacingAndGlyphs" textLength="90" x="502" y="61.1543">DuckSimulator</text><line style="stroke: #A80036; stroke-width: 1.5;" x1="474" x2="594" y1="73" y2="73"/><line style="stroke: #A80036; stroke-width: 1.5;" x1="474" x2="594" y1="81" y2="81"/><!--MD5=[12705dfeb16f2e7f5525a22f892b29fd]
class headfirst.combining.ducks.MallardDuck--><rect codeLine="4" fill="#FEFECE" filter="url(#fi7avx1p30818)" height="48" id="headfirst.combining.ducks.MallardDuck" style="stroke: #A80036; stroke-width: 1.5;" width="108" x="330" y="41"/><ellipse cx="345" cy="57" fill="#ADD1B2" rx="11" ry="11" style="stroke: #A80036; stroke-width: 1.0;"/><path d="M347.9688,62.6406 Q347.3906,62.9375 346.75,63.0781 Q346.1094,63.2344 345.4063,63.2344 Q342.9063,63.2344 341.5781,61.5938 Q340.2656,59.9375 340.2656,56.8125 Q340.2656,53.6875 341.5781,52.0313 Q342.9063,50.375 345.4063,50.375 Q346.1094,50.375 346.75,50.5313 Q347.4063,50.6875 347.9688,50.9844 L347.9688,53.7031 Q347.3438,53.125 346.75,52.8594 Q346.1563,52.5781 345.5313,52.5781 Q344.1875,52.5781 343.5,53.6563 Q342.8125,54.7188 342.8125,56.8125 Q342.8125,58.9063 343.5,59.9844 Q344.1875,61.0469 345.5313,61.0469 Q346.1563,61.0469 346.75,60.7813 Q347.3438,60.5 347.9688,59.9219 L347.9688,62.6406 Z "/><text fill="#000000" font-family="sans-serif" font-size="12" lengthAdjust="spacingAndGlyphs" textLength="76" x="359" y="61.1543">MallardDuck</text><line style="stroke: #A80036; stroke-width: 1.5;" x1="331" x2="437" y1="73" y2="73"/><line style="stroke: #A80036; stroke-width: 1.5;" x1="331" x2="437" y1="81" y2="81"/><!--MD5=[8496e1e8bdcd9869ff6e89d3babca5c7]
class headfirst.combining.ducks.RedheadDuck--><rect codeLine="5" fill="#FEFECE" filter="url(#fi7avx1p30818)" height="48" id="headfirst.combining.ducks.RedheadDuck" style="stroke: #A80036; stroke-width: 1.5;" width="119" x="175.5" y="41"/><ellipse cx="190.5" cy="57" fill="#ADD1B2" rx="11" ry="11" style="stroke: #A80036; stroke-width: 1.0;"/><path d="M193.4688,62.6406 Q192.8906,62.9375 192.25,63.0781 Q191.6094,63.2344 190.9063,63.2344 Q188.4063,63.2344 187.0781,61.5938 Q185.7656,59.9375 185.7656,56.8125 Q185.7656,53.6875 187.0781,52.0313 Q188.4063,50.375 190.9063,50.375 Q191.6094,50.375 192.25,50.5313 Q192.9063,50.6875 193.4688,50.9844 L193.4688,53.7031 Q192.8438,53.125 192.25,52.8594 Q191.6563,52.5781 191.0313,52.5781 Q189.6875,52.5781 189,53.6563 Q188.3125,54.7188 188.3125,56.8125 Q188.3125,58.9063 189,59.9844 Q189.6875,61.0469 191.0313,61.0469 Q191.6563,61.0469 192.25,60.7813 Q192.8438,60.5 193.4688,59.9219 L193.4688,62.6406 Z "/><text fill="#000000" font-family="sans-serif" font-size="12" lengthAdjust="spacingAndGlyphs" textLength="87" x="204.5" y="61.1543">RedheadDuck</text><line style="stroke: #A80036; stroke-width: 1.5;" x1="176.5" x2="293.5" y1="73" y2="73"/><line style="stroke: #A80036; stroke-width: 1.5;" x1="176.5" x2="293.5" y1="81" y2="81"/><!--MD5=[e60f2c56afc7809f537650f7fb34ee8b]
class headfirst.combining.ducks.RubberDuck--><rect codeLine="6" fill="#FEFECE" filter="url(#fi7avx1p30818)" height="48" id="headfirst.combining.ducks.RubberDuck" style="stroke: #A80036; stroke-width: 1.5;" width="108" x="32" y="41"/><ellipse cx="47" cy="57" fill="#ADD1B2" rx="11" ry="11" style="stroke: #A80036; stroke-width: 1.0;"/><path d="M49.9688,62.6406 Q49.3906,62.9375 48.75,63.0781 Q48.1094,63.2344 47.4063,63.2344 Q44.9063,63.2344 43.5781,61.5938 Q42.2656,59.9375 42.2656,56.8125 Q42.2656,53.6875 43.5781,52.0313 Q44.9063,50.375 47.4063,50.375 Q48.1094,50.375 48.75,50.5313 Q49.4063,50.6875 49.9688,50.9844 L49.9688,53.7031 Q49.3438,53.125 48.75,52.8594 Q48.1563,52.5781 47.5313,52.5781 Q46.1875,52.5781 45.5,53.6563 Q44.8125,54.7188 44.8125,56.8125 Q44.8125,58.9063 45.5,59.9844 Q46.1875,61.0469 47.5313,61.0469 Q48.1563,61.0469 48.75,60.7813 Q49.3438,60.5 49.9688,59.9219 L49.9688,62.6406 Z "/><text fill="#000000" font-family="sans-serif" font-size="12" lengthAdjust="spacingAndGlyphs" textLength="76" x="61" y="61.1543">RubberDuck</text><line style="stroke: #A80036; stroke-width: 1.5;" x1="33" x2="139" y1="73" y2="73"/><line style="stroke: #A80036; stroke-width: 1.5;" x1="33" x2="139" y1="81" y2="81"/><!--MD5=[0e00dd7c1e76792eed3e10439ff9c0f6]
class headfirst.combining.ducks.Quackable--><rect codeLine="7" fill="#FEFECE" filter="url(#fi7avx1p30818)" height="48" id="headfirst.combining.ducks.Quackable" style="stroke: #A80036; stroke-width: 1.5;" width="97" x="335.5" y="149"/><ellipse cx="350.5" cy="165" fill="#B4A7E5" rx="11" ry="11" style="stroke: #A80036; stroke-width: 1.0;"/><path d="M346.4219,160.7656 L346.4219,158.6094 L353.8125,158.6094 L353.8125,160.7656 L351.3438,160.7656 L351.3438,168.8438 L353.8125,168.8438 L353.8125,171 L346.4219,171 L346.4219,168.8438 L348.8906,168.8438 L348.8906,160.7656 L346.4219,160.7656 Z "/><text fill="#000000" font-family="sans-serif" font-size="12" font-style="italic" lengthAdjust="spacingAndGlyphs" textLength="65" x="364.5" y="169.1543">Quackable</text><line style="stroke: #A80036; stroke-width: 1.5;" x1="336.5" x2="431.5" y1="181" y2="181"/><line style="stroke: #A80036; stroke-width: 1.5;" x1="336.5" x2="431.5" y1="189" y2="189"/><!--MD5=[ffcdad139e47279e45b51bdd11aac8c5]
link headfirst.combining.ducks.DecoyDuck to headfirst.combining.ducks.Quackable--><path codeLine="8" d="M750.29,83.72 C744.48,85.58 738.63,87.38 733,89 C636.43,116.75 522.98,142.49 452.27,157.73 " fill="none" id="headfirst.combining.ducks.DecoyDuck-to-headfirst.combining.ducks.Quackable" style="stroke: #A80036; stroke-width: 1.0;"/><polygon fill="none" points="453.66,164.59,432.64,161.92,450.73,150.9,453.66,164.59" style="stroke: #A80036; stroke-width: 1.0;"/><!--MD5=[258b5f103af6b2b509318e1aa9b6b5a2]
link headfirst.combining.ducks.DuckCall to headfirst.combining.ducks.Quackable--><path codeLine="9" d="M630.43,82.43 C624.58,84.66 618.64,86.9 613,89 C558.86,109.19 497.28,131.47 451.62,147.86 " fill="none" id="headfirst.combining.ducks.DuckCall-to-headfirst.combining.ducks.Quackable" style="stroke: #A80036; stroke-width: 1.0;"/><polygon fill="none" points="453.98,154.45,432.79,154.61,449.25,141.27,453.98,154.45" style="stroke: #A80036; stroke-width: 1.0;"/><!--MD5=[4d351d254f75f6d1b178b44478939ab2]
link headfirst.combining.ducks.MallardDuck to headfirst.combining.ducks.Quackable--><path codeLine="10" d="M384,89 C384,100.59 384,115.03 384,128.6 " fill="none" id="headfirst.combining.ducks.MallardDuck-to-headfirst.combining.ducks.Quackable" style="stroke: #A80036; stroke-width: 1.0;"/><polygon fill="none" points="391,128.68,384,148.68,377,128.68,391,128.68" style="stroke: #A80036; stroke-width: 1.0;"/><!--MD5=[f1b94333573da778934bbe73bf0c04db]
link headfirst.combining.ducks.RedheadDuck to headfirst.combining.ducks.Quackable--><path codeLine="11" d="M267.33,89 C287.08,103.05 312.73,121.3 334.94,137.1 " fill="none" id="headfirst.combining.ducks.RedheadDuck-to-headfirst.combining.ducks.Quackable" style="stroke: #A80036; stroke-width: 1.0;"/><polygon fill="none" points="339.24,131.56,351.48,148.86,331.12,142.97,339.24,131.56" style="stroke: #A80036; stroke-width: 1.0;"/><!--MD5=[1f7feb7ceec88f1e658f608ea06317d0]
link headfirst.combining.ducks.RubberDuck to headfirst.combining.ducks.Quackable--><path codeLine="12" d="M140.31,85.32 C189.84,102.94 263.21,129.03 316.49,147.99 " fill="none" id="headfirst.combining.ducks.RubberDuck-to-headfirst.combining.ducks.Quackable" style="stroke: #A80036; stroke-width: 1.0;"/><polygon fill="none" points="318.99,141.45,335.49,154.74,314.3,154.64,318.99,141.45" style="stroke: #A80036; stroke-width: 1.0;"/><!--MD5=[5190256d809a7ffc618d30308226b6c2]
@startuml
class headfirst.combining.ducks.DecoyDuck
class headfirst.combining.ducks.DuckCall
class headfirst.combining.ducks.DuckSimulator
class headfirst.combining.ducks.MallardDuck
class headfirst.combining.ducks.RedheadDuck
class headfirst.combining.ducks.RubberDuck
interface headfirst.combining.ducks.Quackable
headfirst.combining.ducks.DecoyDuck - -|> headfirst.combining.ducks.Quackable
headfirst.combining.ducks.DuckCall - -|> headfirst.combining.ducks.Quackable
headfirst.combining.ducks.MallardDuck - -|> headfirst.combining.ducks.Quackable
headfirst.combining.ducks.RedheadDuck - -|> headfirst.combining.ducks.Quackable
headfirst.combining.ducks.RubberDuck - -|> headfirst.combining.ducks.Quackable
@enduml

PlantUML version 1.2020.18(Wed Sep 30 22:40:44 EEST 2020)
(GPL source distribution)
Java Runtime: OpenJDK Runtime Environment
JVM: OpenJDK 64-Bit Server VM
Default Encoding: UTF-8
Language: en
Country: US
--></g></svg>