<?xml version="1.0" encoding="UTF-8" standalone="no"?><svg xmlns="http://www.w3.org/2000/svg" xmlns:xlink="http://www.w3.org/1999/xlink" contentScriptType="application/ecmascript" contentStyleType="text/css" height="220px" preserveAspectRatio="none" style="width:771px;height:220px;" version="1.1" viewBox="0 0 771 220" width="771px" zoomAndPan="magnify"><defs><filter height="300%" id="f1v5w79bl4vw9l" width="300%" x="-1" y="-1"><feGaussianBlur result="blurOut" stdDeviation="2.0"/><feColorMatrix in="blurOut" result="blurOut2" type="matrix" values="0 0 0 0 0 0 0 0 0 0 0 0 0 0 0 0 0 0 .4 0"/><feOffset dx="4.0" dy="4.0" in="blurOut2" result="blurOut3"/><feBlend in="SourceGraphic" in2="blurOut3" mode="normal"/></filter></defs><g><!--MD5=[a759d71d59fe1bdf3028ac7a49b379dd]
cluster com.company.factory--><polygon fill="#FFFFFF" filter="url(#f1v5w79bl4vw9l)" points="16,6,192,6,199,28.2969,754,28.2969,754,213,16,213,16,6" style="stroke: #000000; stroke-width: 1.5;"/><line style="stroke: #000000; stroke-width: 1.5;" x1="16" x2="199" y1="28.2969" y2="28.2969"/><text fill="#000000" font-family="sans-serif" font-size="14" font-weight="bold" lengthAdjust="spacingAndGlyphs" textLength="170" x="20" y="20.9951">com.company.factory</text><!--MD5=[ce620c1f30016a33393b3bc355dfcdaa]
class com.company.factory.CheeseBurger--><rect codeLine="1" fill="#FEFECE" filter="url(#f1v5w79bl4vw9l)" height="48" id="com.company.factory.CheeseBurger" style="stroke: #A80036; stroke-width: 1.5;" width="121" x="616.5" y="41"/><ellipse cx="631.5" cy="57" fill="#ADD1B2" rx="11" ry="11" style="stroke: #A80036; stroke-width: 1.0;"/><path d="M634.4688,62.6406 Q633.8906,62.9375 633.25,63.0781 Q632.6094,63.2344 631.9063,63.2344 Q629.4063,63.2344 628.0781,61.5938 Q626.7656,59.9375 626.7656,56.8125 Q626.7656,53.6875 628.0781,52.0313 Q629.4063,50.375 631.9063,50.375 Q632.6094,50.375 633.25,50.5313 Q633.9063,50.6875 634.4688,50.9844 L634.4688,53.7031 Q633.8438,53.125 633.25,52.8594 Q632.6563,52.5781 632.0313,52.5781 Q630.6875,52.5781 630,53.6563 Q629.3125,54.7188 629.3125,56.8125 Q629.3125,58.9063 630,59.9844 Q630.6875,61.0469 632.0313,61.0469 Q632.6563,61.0469 633.25,60.7813 Q633.8438,60.5 634.4688,59.9219 L634.4688,62.6406 Z "/><text fill="#000000" font-family="sans-serif" font-size="12" lengthAdjust="spacingAndGlyphs" textLength="89" x="645.5" y="61.1543">CheeseBurger</text><line style="stroke: #A80036; stroke-width: 1.5;" x1="617.5" x2="736.5" y1="73" y2="73"/><line style="stroke: #A80036; stroke-width: 1.5;" x1="617.5" x2="736.5" y1="81" y2="81"/><!--MD5=[68d9d06d9a2a182c43537657c4a1ebe5]
class com.company.factory.ChickenBurger--><rect codeLine="2" fill="#FEFECE" filter="url(#f1v5w79bl4vw9l)" height="48" id="com.company.factory.ChickenBurger" style="stroke: #A80036; stroke-width: 1.5;" width="123" x="458.5" y="41"/><ellipse cx="473.5" cy="57" fill="#ADD1B2" rx="11" ry="11" style="stroke: #A80036; stroke-width: 1.0;"/><path d="M476.4688,62.6406 Q475.8906,62.9375 475.25,63.0781 Q474.6094,63.2344 473.9063,63.2344 Q471.4063,63.2344 470.0781,61.5938 Q468.7656,59.9375 468.7656,56.8125 Q468.7656,53.6875 470.0781,52.0313 Q471.4063,50.375 473.9063,50.375 Q474.6094,50.375 475.25,50.5313 Q475.9063,50.6875 476.4688,50.9844 L476.4688,53.7031 Q475.8438,53.125 475.25,52.8594 Q474.6563,52.5781 474.0313,52.5781 Q472.6875,52.5781 472,53.6563 Q471.3125,54.7188 471.3125,56.8125 Q471.3125,58.9063 472,59.9844 Q472.6875,61.0469 474.0313,61.0469 Q474.6563,61.0469 475.25,60.7813 Q475.8438,60.5 476.4688,59.9219 L476.4688,62.6406 Z "/><text fill="#000000" font-family="sans-serif" font-size="12" lengthAdjust="spacingAndGlyphs" textLength="91" x="487.5" y="61.1543">ChickenBurger</text><line style="stroke: #A80036; stroke-width: 1.5;" x1="459.5" x2="580.5" y1="73" y2="73"/><line style="stroke: #A80036; stroke-width: 1.5;" x1="459.5" x2="580.5" y1="81" y2="81"/><!--MD5=[b4d8d4b9e6ef29fa01cab5b6f9a206bc]
class com.company.factory.Executor--><rect codeLine="3" fill="#FEFECE" filter="url(#f1v5w79bl4vw9l)" height="48" id="com.company.factory.Executor" style="stroke: #A80036; stroke-width: 1.5;" width="87" x="336.5" y="41"/><ellipse cx="351.5" cy="57" fill="#ADD1B2" rx="11" ry="11" style="stroke: #A80036; stroke-width: 1.0;"/><path d="M354.4688,62.6406 Q353.8906,62.9375 353.25,63.0781 Q352.6094,63.2344 351.9063,63.2344 Q349.4063,63.2344 348.0781,61.5938 Q346.7656,59.9375 346.7656,56.8125 Q346.7656,53.6875 348.0781,52.0313 Q349.4063,50.375 351.9063,50.375 Q352.6094,50.375 353.25,50.5313 Q353.9063,50.6875 354.4688,50.9844 L354.4688,53.7031 Q353.8438,53.125 353.25,52.8594 Q352.6563,52.5781 352.0313,52.5781 Q350.6875,52.5781 350,53.6563 Q349.3125,54.7188 349.3125,56.8125 Q349.3125,58.9063 350,59.9844 Q350.6875,61.0469 352.0313,61.0469 Q352.6563,61.0469 353.25,60.7813 Q353.8438,60.5 354.4688,59.9219 L354.4688,62.6406 Z "/><text fill="#000000" font-family="sans-serif" font-size="12" lengthAdjust="spacingAndGlyphs" textLength="55" x="365.5" y="61.1543">Executor</text><line style="stroke: #A80036; stroke-width: 1.5;" x1="337.5" x2="422.5" y1="73" y2="73"/><line style="stroke: #A80036; stroke-width: 1.5;" x1="337.5" x2="422.5" y1="81" y2="81"/><!--MD5=[2b4b7d5ae08bb9d165001f7c019aa467]
class com.company.factory.NullBurger--><rect codeLine="4" fill="#FEFECE" filter="url(#f1v5w79bl4vw9l)" height="48" id="com.company.factory.NullBurger" style="stroke: #A80036; stroke-width: 1.5;" width="97" x="204.5" y="41"/><ellipse cx="219.5" cy="57" fill="#ADD1B2" rx="11" ry="11" style="stroke: #A80036; stroke-width: 1.0;"/><path d="M222.4688,62.6406 Q221.8906,62.9375 221.25,63.0781 Q220.6094,63.2344 219.9063,63.2344 Q217.4063,63.2344 216.0781,61.5938 Q214.7656,59.9375 214.7656,56.8125 Q214.7656,53.6875 216.0781,52.0313 Q217.4063,50.375 219.9063,50.375 Q220.6094,50.375 221.25,50.5313 Q221.9063,50.6875 222.4688,50.9844 L222.4688,53.7031 Q221.8438,53.125 221.25,52.8594 Q220.6563,52.5781 220.0313,52.5781 Q218.6875,52.5781 218,53.6563 Q217.3125,54.7188 217.3125,56.8125 Q217.3125,58.9063 218,59.9844 Q218.6875,61.0469 220.0313,61.0469 Q220.6563,61.0469 221.25,60.7813 Q221.8438,60.5 222.4688,59.9219 L222.4688,62.6406 Z "/><text fill="#000000" font-family="sans-serif" font-size="12" lengthAdjust="spacingAndGlyphs" textLength="65" x="233.5" y="61.1543">NullBurger</text><line style="stroke: #A80036; stroke-width: 1.5;" x1="205.5" x2="300.5" y1="73" y2="73"/><line style="stroke: #A80036; stroke-width: 1.5;" x1="205.5" x2="300.5" y1="81" y2="81"/><!--MD5=[02c2e8a04dd513dfafab1f1eb53bebb9]
class com.company.factory.Sandwich--><rect codeLine="5" fill="#FEFECE" filter="url(#f1v5w79bl4vw9l)" height="48" id="com.company.factory.Sandwich" style="stroke: #A80036; stroke-width: 1.5;" width="91" x="474.5" y="149"/><ellipse cx="489.5" cy="165" fill="#ADD1B2" rx="11" ry="11" style="stroke: #A80036; stroke-width: 1.0;"/><path d="M492.4688,170.6406 Q491.8906,170.9375 491.25,171.0781 Q490.6094,171.2344 489.9063,171.2344 Q487.4063,171.2344 486.0781,169.5938 Q484.7656,167.9375 484.7656,164.8125 Q484.7656,161.6875 486.0781,160.0313 Q487.4063,158.375 489.9063,158.375 Q490.6094,158.375 491.25,158.5313 Q491.9063,158.6875 492.4688,158.9844 L492.4688,161.7031 Q491.8438,161.125 491.25,160.8594 Q490.6563,160.5781 490.0313,160.5781 Q488.6875,160.5781 488,161.6563 Q487.3125,162.7188 487.3125,164.8125 Q487.3125,166.9063 488,167.9844 Q488.6875,169.0469 490.0313,169.0469 Q490.6563,169.0469 491.25,168.7813 Q491.8438,168.5 492.4688,167.9219 L492.4688,170.6406 Z "/><text fill="#000000" font-family="sans-serif" font-size="12" lengthAdjust="spacingAndGlyphs" textLength="59" x="503.5" y="169.1543">Sandwich</text><line style="stroke: #A80036; stroke-width: 1.5;" x1="475.5" x2="564.5" y1="181" y2="181"/><line style="stroke: #A80036; stroke-width: 1.5;" x1="475.5" x2="564.5" y1="189" y2="189"/><!--MD5=[c5e0b9f6b9c8539b355d823b42ffe499]
class com.company.factory.SandwichFactory--><rect codeLine="6" fill="#FEFECE" filter="url(#f1v5w79bl4vw9l)" height="48" id="com.company.factory.SandwichFactory" style="stroke: #A80036; stroke-width: 1.5;" width="137" x="32.5" y="41"/><ellipse cx="47.5" cy="57" fill="#ADD1B2" rx="11" ry="11" style="stroke: #A80036; stroke-width: 1.0;"/><path d="M50.4688,62.6406 Q49.8906,62.9375 49.25,63.0781 Q48.6094,63.2344 47.9063,63.2344 Q45.4063,63.2344 44.0781,61.5938 Q42.7656,59.9375 42.7656,56.8125 Q42.7656,53.6875 44.0781,52.0313 Q45.4063,50.375 47.9063,50.375 Q48.6094,50.375 49.25,50.5313 Q49.9063,50.6875 50.4688,50.9844 L50.4688,53.7031 Q49.8438,53.125 49.25,52.8594 Q48.6563,52.5781 48.0313,52.5781 Q46.6875,52.5781 46,53.6563 Q45.3125,54.7188 45.3125,56.8125 Q45.3125,58.9063 46,59.9844 Q46.6875,61.0469 48.0313,61.0469 Q48.6563,61.0469 49.25,60.7813 Q49.8438,60.5 50.4688,59.9219 L50.4688,62.6406 Z "/><text fill="#000000" font-family="sans-serif" font-size="12" lengthAdjust="spacingAndGlyphs" textLength="105" x="61.5" y="61.1543">SandwichFactory</text><line style="stroke: #A80036; stroke-width: 1.5;" x1="33.5" x2="168.5" y1="73" y2="73"/><line style="stroke: #A80036; stroke-width: 1.5;" x1="33.5" x2="168.5" y1="81" y2="81"/><!--MD5=[d86ea42328abfe000d4f0521b75c6e56]
class com.company.factory.AbstractFactory--><rect codeLine="7" fill="#FEFECE" filter="url(#f1v5w79bl4vw9l)" height="48" id="com.company.factory.AbstractFactory" style="stroke: #A80036; stroke-width: 1.5;" width="131" x="35.5" y="149"/><ellipse cx="50.5" cy="165" fill="#B4A7E5" rx="11" ry="11" style="stroke: #A80036; stroke-width: 1.0;"/><path d="M46.4219,160.7656 L46.4219,158.6094 L53.8125,158.6094 L53.8125,160.7656 L51.3438,160.7656 L51.3438,168.8438 L53.8125,168.8438 L53.8125,171 L46.4219,171 L46.4219,168.8438 L48.8906,168.8438 L48.8906,160.7656 L46.4219,160.7656 Z "/><text fill="#000000" font-family="sans-serif" font-size="12" font-style="italic" lengthAdjust="spacingAndGlyphs" textLength="99" x="64.5" y="169.1543">AbstractFactory</text><line style="stroke: #A80036; stroke-width: 1.5;" x1="36.5" x2="165.5" y1="181" y2="181"/><line style="stroke: #A80036; stroke-width: 1.5;" x1="36.5" x2="165.5" y1="189" y2="189"/><!--MD5=[4ab404746d6a934a1b594c0744bd3969]
link com.company.factory.CheeseBurger to com.company.factory.Sandwich--><path codeLine="8" d="M642.93,89 C621.92,103.19 594.57,121.66 571,137.57 " fill="none" id="com.company.factory.CheeseBurger-to-com.company.factory.Sandwich" style="stroke: #A80036; stroke-width: 1.0;"/><polygon fill="none" points="574.76,143.47,554.27,148.86,566.93,131.87,574.76,143.47" style="stroke: #A80036; stroke-width: 1.0;"/><!--MD5=[a64f585b23ab4c046d37ba5eb68ea310]
link com.company.factory.ChickenBurger to com.company.factory.Sandwich--><path codeLine="9" d="M520,89 C520,100.59 520,115.03 520,128.6 " fill="none" id="com.company.factory.ChickenBurger-to-com.company.factory.Sandwich" style="stroke: #A80036; stroke-width: 1.0;"/><polygon fill="none" points="527,128.68,520,148.68,513,128.68,527,128.68" style="stroke: #A80036; stroke-width: 1.0;"/><!--MD5=[d073babbdabaf00a87773fceb27f397d]
link com.company.factory.NullBurger to com.company.factory.Sandwich--><path codeLine="10" d="M301.66,85.32 C344.79,102.44 408.1,127.58 455.46,146.38 " fill="none" id="com.company.factory.NullBurger-to-com.company.factory.Sandwich" style="stroke: #A80036; stroke-width: 1.0;"/><polygon fill="none" points="458.34,139.99,474.35,153.88,453.18,153,458.34,139.99" style="stroke: #A80036; stroke-width: 1.0;"/><!--MD5=[08d4248ede8f6ee0c182d3ddb62bc04b]
link com.company.factory.SandwichFactory to com.company.factory.AbstractFactory--><path codeLine="11" d="M101,89 C101,100.59 101,115.03 101,128.6 " fill="none" id="com.company.factory.SandwichFactory-to-com.company.factory.AbstractFactory" style="stroke: #A80036; stroke-width: 1.0;"/><polygon fill="none" points="108,128.68,101,148.68,94,128.68,108,128.68" style="stroke: #A80036; stroke-width: 1.0;"/><!--MD5=[112d262c7ea09ba3925d62d9cfab729e]
@startuml
class com.company.factory.CheeseBurger
class com.company.factory.ChickenBurger
class com.company.factory.Executor
class com.company.factory.NullBurger
class com.company.factory.Sandwich
class com.company.factory.SandwichFactory
interface com.company.factory.AbstractFactory
com.company.factory.CheeseBurger - -|> com.company.factory.Sandwich
com.company.factory.ChickenBurger - -|> com.company.factory.Sandwich
com.company.factory.NullBurger - -|> com.company.factory.Sandwich
com.company.factory.SandwichFactory - -|> com.company.factory.AbstractFactory
@enduml

PlantUML version 1.2020.18(Wed Sep 30 22:40:44 EEST 2020)
(GPL source distribution)
Java Runtime: OpenJDK Runtime Environment
JVM: OpenJDK 64-Bit Server VM
Default Encoding: UTF-8
Language: en
Country: US
--></g></svg>