<?xml version="1.0" encoding="UTF-8" standalone="no"?><svg xmlns="http://www.w3.org/2000/svg" xmlns:xlink="http://www.w3.org/1999/xlink" contentScriptType="application/ecmascript" contentStyleType="text/css" height="220px" preserveAspectRatio="none" style="width:1291px;height:220px;" version="1.1" viewBox="0 0 1291 220" width="1291px" zoomAndPan="magnify"><defs><filter height="300%" id="f1lcop2ynmgfyc" width="300%" x="-1" y="-1"><feGaussianBlur result="blurOut" stdDeviation="2.0"/><feColorMatrix in="blurOut" result="blurOut2" type="matrix" values="0 0 0 0 0 0 0 0 0 0 0 0 0 0 0 0 0 0 .4 0"/><feOffset dx="4.0" dy="4.0" in="blurOut2" result="blurOut3"/><feBlend in="SourceGraphic" in2="blurOut3" mode="normal"/></filter></defs><g><!--MD5=[aa8f7b917213fcc1c2766e2d59b49067]
cluster java.lang--><polygon fill="#FFFFFF" filter="url(#f1lcop2ynmgfyc)" points="1158,114,1233,114,1240,136.2969,1274,136.2969,1274,213,1158,213,1158,114" style="stroke: #000000; stroke-width: 1.5;"/><line style="stroke: #000000; stroke-width: 1.5;" x1="1158" x2="1240" y1="136.2969" y2="136.2969"/><text fill="#000000" font-family="sans-serif" font-size="14" font-weight="bold" lengthAdjust="spacingAndGlyphs" textLength="69" x="1162" y="128.9951">java.lang</text><!--MD5=[22238981d4678d24a4b690f00fa36180]
cluster factory--><polygon fill="#FFFFFF" filter="url(#f1lcop2ynmgfyc)" points="16,6,78,6,85,28.2969,1134,28.2969,1134,213,16,213,16,6" style="stroke: #000000; stroke-width: 1.5;"/><line style="stroke: #000000; stroke-width: 1.5;" x1="16" x2="85" y1="28.2969" y2="28.2969"/><text fill="#000000" font-family="sans-serif" font-size="14" font-weight="bold" lengthAdjust="spacingAndGlyphs" textLength="56" x="20" y="20.9951">factory</text><!--MD5=[3c78a2fa643d9223b1f8ad930e883961]
class java.lang.Override--><rect codeLine="1" fill="#FEFECE" filter="url(#f1lcop2ynmgfyc)" height="48" id="java.lang.Override" style="stroke: #A80036; stroke-width: 1.5;" width="84" x="1174" y="149"/><ellipse cx="1189" cy="165" fill="#E3664A" rx="11" ry="11" style="stroke: #A80036; stroke-width: 1.0;"/><path d="M1191.0781,165.4688 Q1191.0781,164.5313 1190.6563,164 Q1190.2344,163.4688 1189.4844,163.4688 Q1188.75,163.4688 1188.3281,164 Q1187.9219,164.5313 1187.9219,165.4688 Q1187.9219,166.4219 1188.3281,166.9531 Q1188.75,167.4844 1189.4844,167.4844 Q1190.2344,167.4844 1190.6563,166.9531 Q1191.0781,166.4219 1191.0781,165.4688 Z M1192.625,168.875 L1191,168.875 L1191,168.2031 Q1190.6719,168.6406 1190.25,168.8438 Q1189.8281,169.0469 1189.2188,169.0469 Q1187.8594,169.0469 1187.0313,168.0781 Q1186.2031,167.0938 1186.2031,165.4688 Q1186.2031,163.875 1187.0313,162.9063 Q1187.8594,161.9219 1189.2188,161.9219 Q1189.8125,161.9219 1190.2656,162.125 Q1190.7188,162.3281 1191,162.7188 L1191,162.375 Q1191,161.25 1190.375,160.6406 Q1189.75,160.0156 1188.6094,160.0156 Q1186.8906,160.0156 1185.7969,161.5469 Q1184.7031,163.0625 1184.7031,165.5 Q1184.7031,168.0469 1185.9531,169.5469 Q1187.2188,171.0469 1189.3281,171.0469 Q1189.9844,171.0469 1190.6094,170.8594 Q1191.2344,170.6719 1191.8125,170.2813 L1192.5781,171.7344 Q1191.9063,172.1875 1191.1094,172.4063 Q1190.3125,172.6406 1189.4063,172.6406 Q1186.5,172.6406 1184.7656,170.7031 Q1183.0469,168.7813 1183.0469,165.5 Q1183.0469,162.2813 1184.5938,160.3594 Q1186.1563,158.4219 1188.7188,158.4219 Q1190.5156,158.4219 1191.5625,159.5156 Q1192.625,160.6094 1192.625,162.4844 L1192.625,168.875 Z "/><text fill="#000000" font-family="sans-serif" font-size="12" lengthAdjust="spacingAndGlyphs" textLength="52" x="1203" y="169.1543">Override</text><line style="stroke: #A80036; stroke-width: 1.5;" x1="1175" x2="1257" y1="181" y2="181"/><line style="stroke: #A80036; stroke-width: 1.5;" x1="1175" x2="1257" y1="189" y2="189"/><!--MD5=[3f8f91e5d41f5125a58d9c967f121bcf]
class factory.CheeseBurger--><rect codeLine="2" fill="#FEFECE" filter="url(#f1lcop2ynmgfyc)" height="48" id="factory.CheeseBurger" style="stroke: #A80036; stroke-width: 1.5;" width="121" x="706.5" y="41"/><ellipse cx="721.5" cy="57" fill="#ADD1B2" rx="11" ry="11" style="stroke: #A80036; stroke-width: 1.0;"/><path d="M724.4688,62.6406 Q723.8906,62.9375 723.25,63.0781 Q722.6094,63.2344 721.9063,63.2344 Q719.4063,63.2344 718.0781,61.5938 Q716.7656,59.9375 716.7656,56.8125 Q716.7656,53.6875 718.0781,52.0313 Q719.4063,50.375 721.9063,50.375 Q722.6094,50.375 723.25,50.5313 Q723.9063,50.6875 724.4688,50.9844 L724.4688,53.7031 Q723.8438,53.125 723.25,52.8594 Q722.6563,52.5781 722.0313,52.5781 Q720.6875,52.5781 720,53.6563 Q719.3125,54.7188 719.3125,56.8125 Q719.3125,58.9063 720,59.9844 Q720.6875,61.0469 722.0313,61.0469 Q722.6563,61.0469 723.25,60.7813 Q723.8438,60.5 724.4688,59.9219 L724.4688,62.6406 Z "/><text fill="#000000" font-family="sans-serif" font-size="12" lengthAdjust="spacingAndGlyphs" textLength="89" x="735.5" y="61.1543">CheeseBurger</text><line style="stroke: #A80036; stroke-width: 1.5;" x1="707.5" x2="826.5" y1="73" y2="73"/><line style="stroke: #A80036; stroke-width: 1.5;" x1="707.5" x2="826.5" y1="81" y2="81"/><!--MD5=[52189e6fac1621ba5813b3fa9cc5b90a]
class factory.ChessePizza--><rect codeLine="3" fill="#FEFECE" filter="url(#f1lcop2ynmgfyc)" height="48" id="factory.ChessePizza" style="stroke: #A80036; stroke-width: 1.5;" width="107" x="176.5" y="41"/><ellipse cx="191.5" cy="57" fill="#ADD1B2" rx="11" ry="11" style="stroke: #A80036; stroke-width: 1.0;"/><path d="M194.4688,62.6406 Q193.8906,62.9375 193.25,63.0781 Q192.6094,63.2344 191.9063,63.2344 Q189.4063,63.2344 188.0781,61.5938 Q186.7656,59.9375 186.7656,56.8125 Q186.7656,53.6875 188.0781,52.0313 Q189.4063,50.375 191.9063,50.375 Q192.6094,50.375 193.25,50.5313 Q193.9063,50.6875 194.4688,50.9844 L194.4688,53.7031 Q193.8438,53.125 193.25,52.8594 Q192.6563,52.5781 192.0313,52.5781 Q190.6875,52.5781 190,53.6563 Q189.3125,54.7188 189.3125,56.8125 Q189.3125,58.9063 190,59.9844 Q190.6875,61.0469 192.0313,61.0469 Q192.6563,61.0469 193.25,60.7813 Q193.8438,60.5 194.4688,59.9219 L194.4688,62.6406 Z "/><text fill="#000000" font-family="sans-serif" font-size="12" lengthAdjust="spacingAndGlyphs" textLength="75" x="205.5" y="61.1543">ChessePizza</text><line style="stroke: #A80036; stroke-width: 1.5;" x1="177.5" x2="282.5" y1="73" y2="73"/><line style="stroke: #A80036; stroke-width: 1.5;" x1="177.5" x2="282.5" y1="81" y2="81"/><!--MD5=[75e6490efeea305340c04a5c5ac49f9b]
class factory.ChickenBurger--><rect codeLine="4" fill="#FEFECE" filter="url(#f1lcop2ynmgfyc)" height="48" id="factory.ChickenBurger" style="stroke: #A80036; stroke-width: 1.5;" width="123" x="994.5" y="41"/><ellipse cx="1009.5" cy="57" fill="#ADD1B2" rx="11" ry="11" style="stroke: #A80036; stroke-width: 1.0;"/><path d="M1012.4688,62.6406 Q1011.8906,62.9375 1011.25,63.0781 Q1010.6094,63.2344 1009.9063,63.2344 Q1007.4063,63.2344 1006.0781,61.5938 Q1004.7656,59.9375 1004.7656,56.8125 Q1004.7656,53.6875 1006.0781,52.0313 Q1007.4063,50.375 1009.9063,50.375 Q1010.6094,50.375 1011.25,50.5313 Q1011.9063,50.6875 1012.4688,50.9844 L1012.4688,53.7031 Q1011.8438,53.125 1011.25,52.8594 Q1010.6563,52.5781 1010.0313,52.5781 Q1008.6875,52.5781 1008,53.6563 Q1007.3125,54.7188 1007.3125,56.8125 Q1007.3125,58.9063 1008,59.9844 Q1008.6875,61.0469 1010.0313,61.0469 Q1010.6563,61.0469 1011.25,60.7813 Q1011.8438,60.5 1012.4688,59.9219 L1012.4688,62.6406 Z "/><text fill="#000000" font-family="sans-serif" font-size="12" lengthAdjust="spacingAndGlyphs" textLength="91" x="1023.5" y="61.1543">ChickenBurger</text><line style="stroke: #A80036; stroke-width: 1.5;" x1="995.5" x2="1116.5" y1="73" y2="73"/><line style="stroke: #A80036; stroke-width: 1.5;" x1="995.5" x2="1116.5" y1="81" y2="81"/><!--MD5=[f47b102349edea28dc311dd2a644017f]
class factory.ClamPizza--><rect codeLine="5" fill="#FEFECE" filter="url(#f1lcop2ynmgfyc)" height="48" id="factory.ClamPizza" style="stroke: #A80036; stroke-width: 1.5;" width="91" x="580.5" y="41"/><ellipse cx="595.5" cy="57" fill="#ADD1B2" rx="11" ry="11" style="stroke: #A80036; stroke-width: 1.0;"/><path d="M598.4688,62.6406 Q597.8906,62.9375 597.25,63.0781 Q596.6094,63.2344 595.9063,63.2344 Q593.4063,63.2344 592.0781,61.5938 Q590.7656,59.9375 590.7656,56.8125 Q590.7656,53.6875 592.0781,52.0313 Q593.4063,50.375 595.9063,50.375 Q596.6094,50.375 597.25,50.5313 Q597.9063,50.6875 598.4688,50.9844 L598.4688,53.7031 Q597.8438,53.125 597.25,52.8594 Q596.6563,52.5781 596.0313,52.5781 Q594.6875,52.5781 594,53.6563 Q593.3125,54.7188 593.3125,56.8125 Q593.3125,58.9063 594,59.9844 Q594.6875,61.0469 596.0313,61.0469 Q596.6563,61.0469 597.25,60.7813 Q597.8438,60.5 598.4688,59.9219 L598.4688,62.6406 Z "/><text fill="#000000" font-family="sans-serif" font-size="12" lengthAdjust="spacingAndGlyphs" textLength="59" x="609.5" y="61.1543">ClamPizza</text><line style="stroke: #A80036; stroke-width: 1.5;" x1="581.5" x2="670.5" y1="73" y2="73"/><line style="stroke: #A80036; stroke-width: 1.5;" x1="581.5" x2="670.5" y1="81" y2="81"/><!--MD5=[cf3e51fc597b56b37d84b86a225226d3]
class factory.FoodFactory--><rect codeLine="6" fill="#FEFECE" filter="url(#f1lcop2ynmgfyc)" height="48" id="factory.FoodFactory" style="stroke: #A80036; stroke-width: 1.5;" width="109" x="32.5" y="41"/><ellipse cx="47.5" cy="57" fill="#ADD1B2" rx="11" ry="11" style="stroke: #A80036; stroke-width: 1.0;"/><path d="M50.4688,62.6406 Q49.8906,62.9375 49.25,63.0781 Q48.6094,63.2344 47.9063,63.2344 Q45.4063,63.2344 44.0781,61.5938 Q42.7656,59.9375 42.7656,56.8125 Q42.7656,53.6875 44.0781,52.0313 Q45.4063,50.375 47.9063,50.375 Q48.6094,50.375 49.25,50.5313 Q49.9063,50.6875 50.4688,50.9844 L50.4688,53.7031 Q49.8438,53.125 49.25,52.8594 Q48.6563,52.5781 48.0313,52.5781 Q46.6875,52.5781 46,53.6563 Q45.3125,54.7188 45.3125,56.8125 Q45.3125,58.9063 46,59.9844 Q46.6875,61.0469 48.0313,61.0469 Q48.6563,61.0469 49.25,60.7813 Q49.8438,60.5 50.4688,59.9219 L50.4688,62.6406 Z "/><text fill="#000000" font-family="sans-serif" font-size="12" lengthAdjust="spacingAndGlyphs" textLength="77" x="61.5" y="61.1543">FoodFactory</text><line style="stroke: #A80036; stroke-width: 1.5;" x1="33.5" x2="140.5" y1="73" y2="73"/><line style="stroke: #A80036; stroke-width: 1.5;" x1="33.5" x2="140.5" y1="81" y2="81"/><!--MD5=[066635b8d777d7328f95a877df813e7a]
class factory.MainFactory--><rect codeLine="7" fill="#FEFECE" filter="url(#f1lcop2ynmgfyc)" height="48" id="factory.MainFactory" style="stroke: #A80036; stroke-width: 1.5;" width="107" x="318.5" y="41"/><ellipse cx="333.5" cy="57" fill="#ADD1B2" rx="11" ry="11" style="stroke: #A80036; stroke-width: 1.0;"/><path d="M336.4688,62.6406 Q335.8906,62.9375 335.25,63.0781 Q334.6094,63.2344 333.9063,63.2344 Q331.4063,63.2344 330.0781,61.5938 Q328.7656,59.9375 328.7656,56.8125 Q328.7656,53.6875 330.0781,52.0313 Q331.4063,50.375 333.9063,50.375 Q334.6094,50.375 335.25,50.5313 Q335.9063,50.6875 336.4688,50.9844 L336.4688,53.7031 Q335.8438,53.125 335.25,52.8594 Q334.6563,52.5781 334.0313,52.5781 Q332.6875,52.5781 332,53.6563 Q331.3125,54.7188 331.3125,56.8125 Q331.3125,58.9063 332,59.9844 Q332.6875,61.0469 334.0313,61.0469 Q334.6563,61.0469 335.25,60.7813 Q335.8438,60.5 336.4688,59.9219 L336.4688,62.6406 Z "/><text fill="#000000" font-family="sans-serif" font-size="12" lengthAdjust="spacingAndGlyphs" textLength="75" x="347.5" y="61.1543">MainFactory</text><line style="stroke: #A80036; stroke-width: 1.5;" x1="319.5" x2="424.5" y1="73" y2="73"/><line style="stroke: #A80036; stroke-width: 1.5;" x1="319.5" x2="424.5" y1="81" y2="81"/><!--MD5=[051fc994dc74d976a472690beaef8360]
class factory.NullBurger--><rect codeLine="8" fill="#FEFECE" filter="url(#f1lcop2ynmgfyc)" height="48" id="factory.NullBurger" style="stroke: #A80036; stroke-width: 1.5;" width="97" x="862.5" y="41"/><ellipse cx="877.5" cy="57" fill="#ADD1B2" rx="11" ry="11" style="stroke: #A80036; stroke-width: 1.0;"/><path d="M880.4688,62.6406 Q879.8906,62.9375 879.25,63.0781 Q878.6094,63.2344 877.9063,63.2344 Q875.4063,63.2344 874.0781,61.5938 Q872.7656,59.9375 872.7656,56.8125 Q872.7656,53.6875 874.0781,52.0313 Q875.4063,50.375 877.9063,50.375 Q878.6094,50.375 879.25,50.5313 Q879.9063,50.6875 880.4688,50.9844 L880.4688,53.7031 Q879.8438,53.125 879.25,52.8594 Q878.6563,52.5781 878.0313,52.5781 Q876.6875,52.5781 876,53.6563 Q875.3125,54.7188 875.3125,56.8125 Q875.3125,58.9063 876,59.9844 Q876.6875,61.0469 878.0313,61.0469 Q878.6563,61.0469 879.25,60.7813 Q879.8438,60.5 880.4688,59.9219 L880.4688,62.6406 Z "/><text fill="#000000" font-family="sans-serif" font-size="12" lengthAdjust="spacingAndGlyphs" textLength="65" x="891.5" y="61.1543">NullBurger</text><line style="stroke: #A80036; stroke-width: 1.5;" x1="863.5" x2="958.5" y1="73" y2="73"/><line style="stroke: #A80036; stroke-width: 1.5;" x1="863.5" x2="958.5" y1="81" y2="81"/><!--MD5=[272f237f8189d62d0b32d87ccc5d2428]
class factory.NullPizza--><rect codeLine="9" fill="#FEFECE" filter="url(#f1lcop2ynmgfyc)" height="48" id="factory.NullPizza" style="stroke: #A80036; stroke-width: 1.5;" width="84" x="461" y="41"/><ellipse cx="476" cy="57" fill="#ADD1B2" rx="11" ry="11" style="stroke: #A80036; stroke-width: 1.0;"/><path d="M478.9688,62.6406 Q478.3906,62.9375 477.75,63.0781 Q477.1094,63.2344 476.4063,63.2344 Q473.9063,63.2344 472.5781,61.5938 Q471.2656,59.9375 471.2656,56.8125 Q471.2656,53.6875 472.5781,52.0313 Q473.9063,50.375 476.4063,50.375 Q477.1094,50.375 477.75,50.5313 Q478.4063,50.6875 478.9688,50.9844 L478.9688,53.7031 Q478.3438,53.125 477.75,52.8594 Q477.1563,52.5781 476.5313,52.5781 Q475.1875,52.5781 474.5,53.6563 Q473.8125,54.7188 473.8125,56.8125 Q473.8125,58.9063 474.5,59.9844 Q475.1875,61.0469 476.5313,61.0469 Q477.1563,61.0469 477.75,60.7813 Q478.3438,60.5 478.9688,59.9219 L478.9688,62.6406 Z "/><text fill="#000000" font-family="sans-serif" font-size="12" lengthAdjust="spacingAndGlyphs" textLength="52" x="490" y="61.1543">NullPizza</text><line style="stroke: #A80036; stroke-width: 1.5;" x1="462" x2="544" y1="73" y2="73"/><line style="stroke: #A80036; stroke-width: 1.5;" x1="462" x2="544" y1="81" y2="81"/><!--MD5=[e4a1adbeb96919e293e41677cc297831]
class factory.AbstractFactory--><rect codeLine="10" fill="#FEFECE" filter="url(#f1lcop2ynmgfyc)" height="48" id="factory.AbstractFactory" style="stroke: #A80036; stroke-width: 1.5;" width="131" x="32.5" y="149"/><ellipse cx="47.5" cy="165" fill="#B4A7E5" rx="11" ry="11" style="stroke: #A80036; stroke-width: 1.0;"/><path d="M43.4219,160.7656 L43.4219,158.6094 L50.8125,158.6094 L50.8125,160.7656 L48.3438,160.7656 L48.3438,168.8438 L50.8125,168.8438 L50.8125,171 L43.4219,171 L43.4219,168.8438 L45.8906,168.8438 L45.8906,160.7656 L43.4219,160.7656 Z "/><text fill="#000000" font-family="sans-serif" font-size="12" font-style="italic" lengthAdjust="spacingAndGlyphs" textLength="99" x="61.5" y="169.1543">AbstractFactory</text><line style="stroke: #A80036; stroke-width: 1.5;" x1="33.5" x2="162.5" y1="181" y2="181"/><line style="stroke: #A80036; stroke-width: 1.5;" x1="33.5" x2="162.5" y1="189" y2="189"/><!--MD5=[88c959ce1af4a59d68de3a57f5cdd54c]
class factory.Pizza--><rect codeLine="11" fill="#FEFECE" filter="url(#f1lcop2ynmgfyc)" height="48" id="factory.Pizza" style="stroke: #A80036; stroke-width: 1.5;" width="62" x="472" y="149"/><ellipse cx="487" cy="165" fill="#B4A7E5" rx="11" ry="11" style="stroke: #A80036; stroke-width: 1.0;"/><path d="M482.9219,160.7656 L482.9219,158.6094 L490.3125,158.6094 L490.3125,160.7656 L487.8438,160.7656 L487.8438,168.8438 L490.3125,168.8438 L490.3125,171 L482.9219,171 L482.9219,168.8438 L485.3906,168.8438 L485.3906,160.7656 L482.9219,160.7656 Z "/><text fill="#000000" font-family="sans-serif" font-size="12" font-style="italic" lengthAdjust="spacingAndGlyphs" textLength="30" x="501" y="169.1543">Pizza</text><line style="stroke: #A80036; stroke-width: 1.5;" x1="473" x2="533" y1="181" y2="181"/><line style="stroke: #A80036; stroke-width: 1.5;" x1="473" x2="533" y1="189" y2="189"/><!--MD5=[a5b133d08ccad9164b59f516e6409612]
class factory.Sandwich--><rect codeLine="12" fill="#FEFECE" filter="url(#f1lcop2ynmgfyc)" height="48" id="factory.Sandwich" style="stroke: #A80036; stroke-width: 1.5;" width="92" x="865" y="149"/><ellipse cx="880" cy="165" fill="#B4A7E5" rx="11" ry="11" style="stroke: #A80036; stroke-width: 1.0;"/><path d="M875.9219,160.7656 L875.9219,158.6094 L883.3125,158.6094 L883.3125,160.7656 L880.8438,160.7656 L880.8438,168.8438 L883.3125,168.8438 L883.3125,171 L875.9219,171 L875.9219,168.8438 L878.3906,168.8438 L878.3906,160.7656 L875.9219,160.7656 Z "/><text fill="#000000" font-family="sans-serif" font-size="12" font-style="italic" lengthAdjust="spacingAndGlyphs" textLength="60" x="894" y="169.1543">Sandwich</text><line style="stroke: #A80036; stroke-width: 1.5;" x1="866" x2="956" y1="181" y2="181"/><line style="stroke: #A80036; stroke-width: 1.5;" x1="866" x2="956" y1="189" y2="189"/><!--MD5=[cf7ce80eef4c665aa8562a98bffb785d]
link factory.CheeseBurger to java.lang.Override--><path codeLine="13" d="M827.57,85.31 C833.42,86.74 839.3,88.01 845,89 C908.38,100.06 1073.98,82.84 1134,106 C1155.85,114.43 1176.37,130.96 1191.42,145.36 " fill="none" id="factory.CheeseBurger-to-java.lang.Override" style="stroke: #A80036; stroke-width: 1.0; stroke-dasharray: 7.0,7.0;"/><polygon fill="#A80036" points="1195.12,148.97,1191.4548,139.8285,1191.5348,145.4848,1185.8785,145.5648,1195.12,148.97" style="stroke: #A80036; stroke-width: 1.0;"/><!--MD5=[5b9827514669e2045a50ab661552531d]
link factory.CheeseBurger to factory.Sandwich--><path codeLine="14" d="M798.25,89 C817.17,102.93 841.71,120.99 863.05,136.7 " fill="none" id="factory.CheeseBurger-to-factory.Sandwich" style="stroke: #A80036; stroke-width: 1.0;"/><polygon fill="none" points="867.36,131.18,879.32,148.68,859.06,142.46,867.36,131.18" style="stroke: #A80036; stroke-width: 1.0;"/><!--MD5=[bff47a8a8ead15febd621ea50385190a]
link factory.ChessePizza to java.lang.Override--><path codeLine="15" d="M283.86,85.25 C289.59,86.75 295.38,88.05 301,89 C392.29,104.37 1047.01,74.34 1134,106 C1156.01,114.01 1176.53,130.54 1191.54,145.05 " fill="none" id="factory.ChessePizza-to-java.lang.Override" style="stroke: #A80036; stroke-width: 1.0; stroke-dasharray: 7.0,7.0;"/><polygon fill="#A80036" points="1195.23,148.69,1191.6205,139.5264,1191.6661,145.1831,1186.0094,145.2287,1195.23,148.69" style="stroke: #A80036; stroke-width: 1.0;"/><!--MD5=[6267036328e409214e7884bf7fbf7ba7]
link factory.ChessePizza to factory.Pizza--><path codeLine="16" d="M283.61,86.82 C332.66,105.86 404.69,133.83 452.68,152.46 " fill="none" id="factory.ChessePizza-to-factory.Pizza" style="stroke: #A80036; stroke-width: 1.0;"/><polygon fill="none" points="455.53,146.06,471.64,159.82,450.46,159.11,455.53,146.06" style="stroke: #A80036; stroke-width: 1.0;"/><!--MD5=[61492f738e953490904397f23435f353]
link factory.ChickenBurger to java.lang.Override--><path codeLine="17" d="M1104.72,89.04 C1114.62,94.26 1124.81,100.03 1134,106 C1152.07,117.73 1170.89,132.66 1185.94,145.35 " fill="none" id="factory.ChickenBurger-to-java.lang.Override" style="stroke: #A80036; stroke-width: 1.0; stroke-dasharray: 7.0,7.0;"/><polygon fill="#A80036" points="1190.08,148.86,1185.7948,139.9923,1186.2636,145.6296,1180.6262,146.0985,1190.08,148.86" style="stroke: #A80036; stroke-width: 1.0;"/><!--MD5=[8a1d503a652dcf1308f1152d170783e9]
link factory.ChickenBurger to factory.Sandwich--><path codeLine="18" d="M1024.54,89 C1005.41,102.98 980.61,121.12 959.06,136.87 " fill="none" id="factory.ChickenBurger-to-factory.Sandwich" style="stroke: #A80036; stroke-width: 1.0;"/><polygon fill="none" points="962.93,142.71,942.65,148.86,954.67,131.41,962.93,142.71" style="stroke: #A80036; stroke-width: 1.0;"/><!--MD5=[e75937a760858a333742323d41c1b000]
link factory.ClamPizza to java.lang.Override--><path codeLine="19" d="M671.63,84.53 C677.4,86.32 683.29,87.88 689,89 C786.1,108.09 1041.31,71.33 1134,106 C1155.93,114.2 1176.45,130.73 1191.48,145.19 " fill="none" id="factory.ClamPizza-to-java.lang.Override" style="stroke: #A80036; stroke-width: 1.0; stroke-dasharray: 7.0,7.0;"/><polygon fill="#A80036" points="1195.18,148.82,1191.5518,139.6638,1191.6089,145.3204,1185.9524,145.3775,1195.18,148.82" style="stroke: #A80036; stroke-width: 1.0;"/><!--MD5=[fd1ecc4986d0e1e1587e0e3fcb731da8]
link factory.ClamPizza to factory.Pizza--><path codeLine="20" d="M599.31,89 C583.54,102.59 563.22,120.1 545.32,135.53 " fill="none" id="factory.ClamPizza-to-factory.Pizza" style="stroke: #A80036; stroke-width: 1.0;"/><polygon fill="none" points="549.78,140.92,530.06,148.68,540.64,130.32,549.78,140.92" style="stroke: #A80036; stroke-width: 1.0;"/><!--MD5=[ef49947cee6278b48aa5538997f0082a]
link factory.FoodFactory to java.lang.Override--><path codeLine="21" d="M141.63,85.26 C147.44,86.77 153.3,88.06 159,89 C265.91,106.62 1032.13,69.09 1134,106 C1156.18,114.03 1176.83,130.74 1191.87,145.34 " fill="none" id="factory.FoodFactory-to-java.lang.Override" style="stroke: #A80036; stroke-width: 1.0; stroke-dasharray: 7.0,7.0;"/><polygon fill="#A80036" points="1195.57,148.99,1191.9788,139.8192,1192.0131,145.476,1186.3564,145.5102,1195.57,148.99" style="stroke: #A80036; stroke-width: 1.0;"/><!--MD5=[c1a3aaa3a75a7cbd027f67a9e3dc6cd0]
link factory.FoodFactory to factory.AbstractFactory--><path codeLine="22" d="M89.39,89 C90.59,100.59 92.09,115.03 93.5,128.6 " fill="none" id="factory.FoodFactory-to-factory.AbstractFactory" style="stroke: #A80036; stroke-width: 1.0;"/><polygon fill="none" points="100.48,128.06,95.58,148.68,86.55,129.51,100.48,128.06" style="stroke: #A80036; stroke-width: 1.0;"/><!--MD5=[6dc3e7f3f98f3a3036a4aed3b0ca6b86]
link factory.NullBurger to java.lang.Override--><path codeLine="23" d="M959.66,84.34 C965.45,86.11 971.32,87.72 977,89 C1045.47,104.43 1069.16,79.14 1134,106 C1155.32,114.83 1175.56,131.02 1190.6,145.14 " fill="none" id="factory.NullBurger-to-java.lang.Override" style="stroke: #A80036; stroke-width: 1.0; stroke-dasharray: 7.0,7.0;"/><polygon fill="#A80036" points="1194.31,148.69,1190.5523,139.5862,1190.6897,145.2414,1185.0345,145.3787,1194.31,148.69" style="stroke: #A80036; stroke-width: 1.0;"/><!--MD5=[031d1763961fc47e75305a33c32b7e80]
link factory.NullBurger to factory.Sandwich--><path codeLine="24" d="M911,89 C911,100.59 911,115.03 911,128.6 " fill="none" id="factory.NullBurger-to-factory.Sandwich" style="stroke: #A80036; stroke-width: 1.0;"/><polygon fill="none" points="918,128.68,911,148.68,904,128.68,918,128.68" style="stroke: #A80036; stroke-width: 1.0;"/><!--MD5=[82f7796ee58a8b7c0a73950e86183131]
link factory.NullPizza to java.lang.Override--><path codeLine="25" d="M545.08,84.15 C551.01,86.11 557.09,87.82 563,89 C625.23,101.48 1074.46,84.01 1134,106 C1155.97,114.11 1176.49,130.64 1191.51,145.12 " fill="none" id="factory.NullPizza-to-java.lang.Override" style="stroke: #A80036; stroke-width: 1.0; stroke-dasharray: 7.0,7.0;"/><polygon fill="#A80036" points="1195.2,148.76,1191.5718,139.6038,1191.6289,145.2604,1185.9724,145.3175,1195.2,148.76" style="stroke: #A80036; stroke-width: 1.0;"/><!--MD5=[ae650d0c7c01473e3800f916a83dbc5a]
link factory.NullPizza to factory.Pizza--><path codeLine="26" d="M503,89 C503,100.59 503,115.03 503,128.6 " fill="none" id="factory.NullPizza-to-factory.Pizza" style="stroke: #A80036; stroke-width: 1.0;"/><polygon fill="none" points="510,128.68,503,148.68,496,128.68,510,128.68" style="stroke: #A80036; stroke-width: 1.0;"/><!--MD5=[16dbfe859baea0773d063d1935f62a9a]
@startuml
annotation java.lang.Override
class factory.CheeseBurger
class factory.ChessePizza
class factory.ChickenBurger
class factory.ClamPizza
class factory.FoodFactory
class factory.MainFactory
class factory.NullBurger
class factory.NullPizza
interface factory.AbstractFactory
interface factory.Pizza
interface factory.Sandwich
factory.CheeseBurger ..> java.lang.Override
factory.CheeseBurger - -|> factory.Sandwich
factory.ChessePizza ..> java.lang.Override
factory.ChessePizza - -|> factory.Pizza
factory.ChickenBurger ..> java.lang.Override
factory.ChickenBurger - -|> factory.Sandwich
factory.ClamPizza ..> java.lang.Override
factory.ClamPizza - -|> factory.Pizza
factory.FoodFactory ..> java.lang.Override
factory.FoodFactory - -|> factory.AbstractFactory
factory.NullBurger ..> java.lang.Override
factory.NullBurger - -|> factory.Sandwich
factory.NullPizza ..> java.lang.Override
factory.NullPizza - -|> factory.Pizza
@enduml

PlantUML version 1.2020.18(Wed Sep 30 22:40:44 EEST 2020)
(GPL source distribution)
Java Runtime: OpenJDK Runtime Environment
JVM: OpenJDK 64-Bit Server VM
Default Encoding: UTF-8
Language: en
Country: US
--></g></svg>