<?xml version="1.0" encoding="UTF-8" standalone="no"?><svg xmlns="http://www.w3.org/2000/svg" xmlns:xlink="http://www.w3.org/1999/xlink" contentScriptType="application/ecmascript" contentStyleType="text/css" height="447px" preserveAspectRatio="none" style="width:1504px;height:447px;background:#87CEFA;" version="1.1" viewBox="0 0 1504 447" width="1504.5px" zoomAndPan="magnify"><defs/><g><text fill="#000000" font-family="sans-serif" font-size="27" lengthAdjust="spacingAndGlyphs" textLength="196.5" x="663" y="25.062">Design pattern</text><!--cluster strategy--><polygon fill="#87CEFA" points="33,67.4297,141,67.4297,151.5,100.875,1471.5,100.875,1471.5,430.4297,33,430.4297,33,67.4297" style="stroke: #000000; stroke-width: 2.25;"/><line style="stroke: #000000; stroke-width: 2.25;" x1="33" x2="151.5" y1="100.875" y2="100.875"/><text fill="#000000" font-family="sans-serif" font-size="21" font-weight="bold" lengthAdjust="spacingAndGlyphs" textLength="99" x="39" y="89.9224">strategy</text><!--class GoAlgorithm--><rect fill="#FEFECE" height="98.1914" id="GoAlgorithm" style="stroke: #A80036; stroke-width: 2.25;" width="244.5" x="1202.25" y="133.4297"/><ellipse cx="1238.925" cy="157.4297" fill="#B4A7E5" rx="16.5" ry="16.5" style="stroke: #A80036; stroke-width: 1.5;"/><path d="M1232.8078,151.0781 L1232.8078,147.8438 L1243.8938,147.8438 L1243.8938,151.0781 L1240.1906,151.0781 L1240.1906,163.1953 L1243.8938,163.1953 L1243.8938,166.4297 L1232.8078,166.4297 L1232.8078,163.1953 L1236.5109,163.1953 L1236.5109,151.0781 L1232.8078,151.0781 Z "/><text fill="#FF0000" font-family="sans-serif" font-size="24" font-style="italic" font-weight="bold" lengthAdjust="spacingAndGlyphs" textLength="165" x="1263.075" y="165.7383">GoAlgorithm</text><line style="stroke: #A80036; stroke-width: 2.25;" x1="1203.75" x2="1445.25" y1="181.4297" y2="181.4297"/><line style="stroke: #A80036; stroke-width: 2.25;" x1="1203.75" x2="1445.25" y1="193.4297" y2="193.4297"/><text fill="#000000" font-family="sans-serif" font-size="22.5" font-weight="bold" lengthAdjust="spacingAndGlyphs" textLength="226.5" x="1211.25" y="220.3147">public String go( );</text><!--class Vehicle--><rect fill="#FEFECE" height="124.3828" id="Vehicle" style="stroke: #A80036; stroke-width: 2.25;" width="1092" x="57" y="119.9297"/><ellipse cx="549.375" cy="143.9297" fill="#ADD1B2" rx="16.5" ry="16.5" style="stroke: #A80036; stroke-width: 1.5;"/><path d="M553.8281,152.3906 Q552.9609,152.8359 552,153.0469 Q551.0391,153.2813 549.9844,153.2813 Q546.2344,153.2813 544.2422,150.8203 Q542.2734,148.3359 542.2734,143.6484 Q542.2734,138.9609 544.2422,136.4766 Q546.2344,133.9922 549.9844,133.9922 Q551.0391,133.9922 552,134.2266 Q552.9844,134.4609 553.8281,134.9063 L553.8281,138.9844 Q552.8906,138.1172 552,137.7188 Q551.1094,137.2969 550.1719,137.2969 Q548.1563,137.2969 547.125,138.9141 Q546.0938,140.5078 546.0938,143.6484 Q546.0938,146.7891 547.125,148.4063 Q548.1563,150 550.1719,150 Q551.1094,150 552,149.6016 Q552.8906,149.1797 553.8281,148.3125 L553.8281,152.3906 Z "/><text fill="#FF0000" font-family="sans-serif" font-size="24" font-weight="bold" lengthAdjust="spacingAndGlyphs" textLength="94.5" x="580.125" y="152.2383">Vehicle</text><line style="stroke: #A80036; stroke-width: 2.25;" x1="58.5" x2="1147.5" y1="167.9297" y2="167.9297"/><line style="stroke: #A80036; stroke-width: 2.25;" x1="58.5" x2="1147.5" y1="179.9297" y2="179.9297"/><text fill="#000000" font-family="sans-serif" font-size="22.5" font-weight="bold" lengthAdjust="spacingAndGlyphs" textLength="1074" x="66" y="206.8147">public void setGoAlgorithm(GoAlgorithm goAlgorithm){ this.goAlgorithm=goAlgorithm;}</text><text fill="#000000" font-family="sans-serif" font-size="22.5" font-weight="bold" lengthAdjust="spacingAndGlyphs" textLength="529.5" x="66" y="233.0061">public String go( ){ this.goAlgorithm.go();}</text><!--class Car--><rect fill="#FEFECE" height="72" id="Car" style="stroke: #A80036; stroke-width: 2.25;" width="93" x="366" y="334.4297"/><ellipse cx="388.5" cy="358.4297" fill="#ADD1B2" rx="16.5" ry="16.5" style="stroke: #A80036; stroke-width: 1.5;"/><path d="M392.9531,366.8906 Q392.0859,367.3359 391.125,367.5469 Q390.1641,367.7813 389.1094,367.7813 Q385.3594,367.7813 383.3672,365.3203 Q381.3984,362.8359 381.3984,358.1484 Q381.3984,353.4609 383.3672,350.9766 Q385.3594,348.4922 389.1094,348.4922 Q390.1641,348.4922 391.125,348.7266 Q392.1094,348.9609 392.9531,349.4063 L392.9531,353.4844 Q392.0156,352.6172 391.125,352.2188 Q390.2344,351.7969 389.2969,351.7969 Q387.2813,351.7969 386.25,353.4141 Q385.2188,355.0078 385.2188,358.1484 Q385.2188,361.2891 386.25,362.9063 Q387.2813,364.5 389.2969,364.5 Q390.2344,364.5 391.125,364.1016 Q392.0156,363.6797 392.9531,362.8125 L392.9531,366.8906 Z "/><text fill="#FF0000" font-family="sans-serif" font-size="24" font-weight="bold" lengthAdjust="spacingAndGlyphs" textLength="45" x="409.5" y="366.7383">Car</text><line style="stroke: #A80036; stroke-width: 2.25;" x1="367.5" x2="457.5" y1="382.4297" y2="382.4297"/><line style="stroke: #A80036; stroke-width: 2.25;" x1="367.5" x2="457.5" y1="394.4297" y2="394.4297"/><!--class Helicopter--><rect fill="#FEFECE" height="72" id="Helicopter" style="stroke: #A80036; stroke-width: 2.25;" width="183" x="511.5" y="334.4297"/><ellipse cx="534" cy="358.4297" fill="#ADD1B2" rx="16.5" ry="16.5" style="stroke: #A80036; stroke-width: 1.5;"/><path d="M538.4531,366.8906 Q537.5859,367.3359 536.625,367.5469 Q535.6641,367.7813 534.6094,367.7813 Q530.8594,367.7813 528.8672,365.3203 Q526.8984,362.8359 526.8984,358.1484 Q526.8984,353.4609 528.8672,350.9766 Q530.8594,348.4922 534.6094,348.4922 Q535.6641,348.4922 536.625,348.7266 Q537.6094,348.9609 538.4531,349.4063 L538.4531,353.4844 Q537.5156,352.6172 536.625,352.2188 Q535.7344,351.7969 534.7969,351.7969 Q532.7813,351.7969 531.75,353.4141 Q530.7188,355.0078 530.7188,358.1484 Q530.7188,361.2891 531.75,362.9063 Q532.7813,364.5 534.7969,364.5 Q535.7344,364.5 536.625,364.1016 Q537.5156,363.6797 538.4531,362.8125 L538.4531,366.8906 Z "/><text fill="#FF0000" font-family="sans-serif" font-size="24" font-weight="bold" lengthAdjust="spacingAndGlyphs" textLength="135" x="555" y="366.7383">Helicopter</text><line style="stroke: #A80036; stroke-width: 2.25;" x1="513" x2="693" y1="382.4297" y2="382.4297"/><line style="stroke: #A80036; stroke-width: 2.25;" x1="513" x2="693" y1="394.4297" y2="394.4297"/><!--class Fan--><rect fill="#FEFECE" height="72" id="Fan" style="stroke: #A80036; stroke-width: 2.25;" width="94.5" x="747.75" y="334.4297"/><ellipse cx="770.25" cy="358.4297" fill="#ADD1B2" rx="16.5" ry="16.5" style="stroke: #A80036; stroke-width: 1.5;"/><path d="M774.7031,366.8906 Q773.8359,367.3359 772.875,367.5469 Q771.9141,367.7813 770.8594,367.7813 Q767.1094,367.7813 765.1172,365.3203 Q763.1484,362.8359 763.1484,358.1484 Q763.1484,353.4609 765.1172,350.9766 Q767.1094,348.4922 770.8594,348.4922 Q771.9141,348.4922 772.875,348.7266 Q773.8594,348.9609 774.7031,349.4063 L774.7031,353.4844 Q773.7656,352.6172 772.875,352.2188 Q771.9844,351.7969 771.0469,351.7969 Q769.0313,351.7969 768,353.4141 Q766.9688,355.0078 766.9688,358.1484 Q766.9688,361.2891 768,362.9063 Q769.0313,364.5 771.0469,364.5 Q771.9844,364.5 772.875,364.1016 Q773.7656,363.6797 774.7031,362.8125 L774.7031,366.8906 Z "/><text fill="#FF0000" font-family="sans-serif" font-size="24" font-weight="bold" lengthAdjust="spacingAndGlyphs" textLength="46.5" x="791.25" y="366.7383">Fan</text><line style="stroke: #A80036; stroke-width: 2.25;" x1="749.25" x2="840.75" y1="382.4297" y2="382.4297"/><line style="stroke: #A80036; stroke-width: 2.25;" x1="749.25" x2="840.75" y1="394.4297" y2="394.4297"/><!--class Driving--><rect fill="#FEFECE" height="72" id="Driving" style="stroke: #A80036; stroke-width: 2.25;" width="139.5" x="1281.75" y="334.4297"/><ellipse cx="1304.25" cy="358.4297" fill="#ADD1B2" rx="16.5" ry="16.5" style="stroke: #A80036; stroke-width: 1.5;"/><path d="M1308.7031,366.8906 Q1307.8359,367.3359 1306.875,367.5469 Q1305.9141,367.7813 1304.8594,367.7813 Q1301.1094,367.7813 1299.1172,365.3203 Q1297.1484,362.8359 1297.1484,358.1484 Q1297.1484,353.4609 1299.1172,350.9766 Q1301.1094,348.4922 1304.8594,348.4922 Q1305.9141,348.4922 1306.875,348.7266 Q1307.8594,348.9609 1308.7031,349.4063 L1308.7031,353.4844 Q1307.7656,352.6172 1306.875,352.2188 Q1305.9844,351.7969 1305.0469,351.7969 Q1303.0313,351.7969 1302,353.4141 Q1300.9688,355.0078 1300.9688,358.1484 Q1300.9688,361.2891 1302,362.9063 Q1303.0313,364.5 1305.0469,364.5 Q1305.9844,364.5 1306.875,364.1016 Q1307.7656,363.6797 1308.7031,362.8125 L1308.7031,366.8906 Z "/><text fill="#FF0000" font-family="sans-serif" font-size="24" font-weight="bold" lengthAdjust="spacingAndGlyphs" textLength="91.5" x="1325.25" y="366.7383">Driving</text><line style="stroke: #A80036; stroke-width: 2.25;" x1="1283.25" x2="1419.75" y1="382.4297" y2="382.4297"/><line style="stroke: #A80036; stroke-width: 2.25;" x1="1283.25" x2="1419.75" y1="394.4297" y2="394.4297"/><!--class Flying--><rect fill="#FEFECE" height="72" id="Flying" style="stroke: #A80036; stroke-width: 2.25;" width="123" x="1105.5" y="334.4297"/><ellipse cx="1128" cy="358.4297" fill="#ADD1B2" rx="16.5" ry="16.5" style="stroke: #A80036; stroke-width: 1.5;"/><path d="M1132.4531,366.8906 Q1131.5859,367.3359 1130.625,367.5469 Q1129.6641,367.7813 1128.6094,367.7813 Q1124.8594,367.7813 1122.8672,365.3203 Q1120.8984,362.8359 1120.8984,358.1484 Q1120.8984,353.4609 1122.8672,350.9766 Q1124.8594,348.4922 1128.6094,348.4922 Q1129.6641,348.4922 1130.625,348.7266 Q1131.6094,348.9609 1132.4531,349.4063 L1132.4531,353.4844 Q1131.5156,352.6172 1130.625,352.2188 Q1129.7344,351.7969 1128.7969,351.7969 Q1126.7813,351.7969 1125.75,353.4141 Q1124.7188,355.0078 1124.7188,358.1484 Q1124.7188,361.2891 1125.75,362.9063 Q1126.7813,364.5 1128.7969,364.5 Q1129.7344,364.5 1130.625,364.1016 Q1131.5156,363.6797 1132.4531,362.8125 L1132.4531,366.8906 Z "/><text fill="#FF0000" font-family="sans-serif" font-size="24" font-weight="bold" lengthAdjust="spacingAndGlyphs" textLength="75" x="1149" y="366.7383">Flying</text><line style="stroke: #A80036; stroke-width: 2.25;" x1="1107" x2="1227" y1="382.4297" y2="382.4297"/><line style="stroke: #A80036; stroke-width: 2.25;" x1="1107" x2="1227" y1="394.4297" y2="394.4297"/><!--link Vehicle to Car--><path d="M518.34,265.9997 C493.635,290.0297 467.985,314.9747 448.11,334.2947 " fill="none" id="Vehicle-Car" style="stroke: #0000FF; stroke-width: 1.5;"/><polygon fill="none" points="511.26,258.2447,540.09,244.8497,525.915,273.2897,511.26,258.2447" style="stroke: #0000FF; stroke-width: 1.5;"/><!--link Vehicle to Helicopter--><path d="M603,275.1797 C603,296.2697 603,317.4347 603,334.2947 " fill="none" id="Vehicle-Helicopter" style="stroke: #0000FF; stroke-width: 1.5;"/><polygon fill="none" points="592.5,274.8497,603,244.8497,613.5,274.8497,592.5,274.8497" style="stroke: #0000FF; stroke-width: 1.5;"/><!--link Vehicle to Fan--><path d="M688.32,265.9997 C713.22,290.0297 739.08,314.9747 759.105,334.2947 " fill="none" id="Vehicle-Fan" style="stroke: #0000FF; stroke-width: 1.5;"/><polygon fill="none" points="680.7,273.2447,666.405,244.8497,695.28,258.1247,680.7,273.2447" style="stroke: #0000FF; stroke-width: 1.5;"/><!--link GoAlgorithm to Driving--><path d="M1335.795,261.1247 C1339.5,286.5947 1343.445,313.6247 1346.445,334.2497 " fill="none" id="GoAlgorithm-Driving" style="stroke: #0000FF; stroke-width: 1.5; stroke-dasharray: 7.0,7.0;"/><polygon fill="none" points="1325.385,262.5797,1331.46,231.3797,1346.175,259.5647,1325.385,262.5797" style="stroke: #0000FF; stroke-width: 1.5;"/><!--link GoAlgorithm to Flying--><path d="M1264.32,254.4497 C1241.085,281.7947 1215.555,311.8097 1196.475,334.2497 " fill="none" id="GoAlgorithm-Flying" style="stroke: #0000FF; stroke-width: 1.5; stroke-dasharray: 7.0,7.0;"/><polygon fill="none" points="1256.505,247.4447,1283.94,231.3797,1272.51,261.0497,1256.505,247.4447" style="stroke: #0000FF; stroke-width: 1.5;"/><!--link Vehicle to GoAlgorithm--><path d="M1149.06,182.1797 C1164.03,182.1797 1179.015,182.1797 1194,182.1797 " fill="none" id="Vehicle-GoAlgorithm" style="stroke: #0000FF; stroke-width: 1.5;"/><polygon fill="#0000FF" points="1201.83,182.1797,1188.33,176.1797,1194.33,182.1797,1188.33,188.1797,1201.83,182.1797" style="stroke: #0000FF; stroke-width: 1.5;"/><!--
@startuml
scale 1.5

title Design pattern

skinparam BackgroundColor  LightSkyBlue
skinparam classFontColor red
skinparam classFontStyle bold
skinparam classFontSize 16
skinparam classAttributeFontSize 15
skinparam classAttributeFontStyle bold
skinparam classArrowColor blue
skinparam shadowing false


package strategy {


interface GoAlgorithm {
public String go( );
}

class  Vehicle {
public void setGoAlgorithm(GoAlgorithm goAlgorithm){ this.goAlgorithm=goAlgorithm;}
public String go( ){ this.goAlgorithm.go();}
} 

Vehicle <|- - Car
Vehicle <|- - Helicopter
Vehicle <|- - Fan
GoAlgorithm <|.. Driving
GoAlgorithm <|.. Flying
GoAlgorithm <-right- Vehicle

}



@enduml

PlantUML version 1.2018.10(Sat Aug 25 13:02:59 EDT 2018)
(GPL source distribution)
Java Runtime: OpenJDK Runtime Environment
JVM: OpenJDK 64-Bit Server VM
Java Version: 11.0.8+10-post-Debian-1
Operating System: Linux
OS Version: 5.6.0-kali2-amd64
Default Encoding: UTF-8
Language: en
Country: US
--></g></svg>