<?xml version="1.0" encoding="UTF-8" standalone="no"?><svg xmlns="http://www.w3.org/2000/svg" xmlns:xlink="http://www.w3.org/1999/xlink" contentScriptType="application/ecmascript" contentStyleType="text/css" height="1892px" preserveAspectRatio="none" style="width:1689px;height:1892px;" version="1.1" viewBox="0 0 1689 1892" width="1689px" zoomAndPan="magnify"><defs/><g><!--MD5=[433e2fa3696dd3adfccc65d496dc6abd]
cluster javax.persistence--><polygon fill="#FFFFFF" points="1506,223,1651,223,1658,245.2969,1672,245.2969,1672,737,1506,737,1506,223" style="stroke: #000000; stroke-width: 1.5;"/><line style="stroke: #000000; stroke-width: 1.5;" x1="1506" x2="1658" y1="245.2969" y2="245.2969"/><text fill="#000000" font-family="sans-serif" font-size="14" font-weight="bold" lengthAdjust="spacingAndGlyphs" textLength="139" x="1510" y="237.9951">javax.persistence</text><!--MD5=[1c2bc4e95c40d4844d842419d2f32a8c]
cluster org.junit.jupiter.api--><polygon fill="#FFFFFF" points="376.5,252,532.5,252,539.5,274.2969,542.5,274.2969,542.5,351,376.5,351,376.5,252" style="stroke: #000000; stroke-width: 1.5;"/><line style="stroke: #000000; stroke-width: 1.5;" x1="376.5" x2="539.5" y1="274.2969" y2="274.2969"/><text fill="#000000" font-family="sans-serif" font-size="14" font-weight="bold" lengthAdjust="spacingAndGlyphs" textLength="150" x="380.5" y="266.9951">org.junit.jupiter.api</text><!--MD5=[b1d1fc1c8f541dccba72eb447c749eb3]
cluster org.springframework.beans.factory.annotation--><polygon fill="#FFFFFF" points="682.5,1118,1059.5,1118,1066.5,1140.2969,1069.5,1140.2969,1069.5,1217,682.5,1217,682.5,1118" style="stroke: #000000; stroke-width: 1.5;"/><line style="stroke: #000000; stroke-width: 1.5;" x1="682.5" x2="1066.5" y1="1140.2969" y2="1140.2969"/><text fill="#000000" font-family="sans-serif" font-size="14" font-weight="bold" lengthAdjust="spacingAndGlyphs" textLength="371" x="686.5" y="1132.9951">org.springframework.beans.factory.annotation</text><!--MD5=[31102a1617503ecac1370331bfab512a]
cluster org.springframework.boot.autoconfigure--><polygon fill="#FFFFFF" points="289,6,620,6,627,28.2969,630,28.2969,630,105,289,105,289,6" style="stroke: #000000; stroke-width: 1.5;"/><line style="stroke: #000000; stroke-width: 1.5;" x1="289" x2="627" y1="28.2969" y2="28.2969"/><text fill="#000000" font-family="sans-serif" font-size="14" font-weight="bold" lengthAdjust="spacingAndGlyphs" textLength="325" x="293" y="20.9951">org.springframework.boot.autoconfigure</text><!--MD5=[47bedfdb0f78edf71b664e3aa78f0827]
cluster org.springframework.boot.test.context--><polygon fill="#FFFFFF" points="296,375,612,375,619,397.2969,622,397.2969,622,474,296,474,296,375" style="stroke: #000000; stroke-width: 1.5;"/><line style="stroke: #000000; stroke-width: 1.5;" x1="296" x2="619" y1="397.2969" y2="397.2969"/><text fill="#000000" font-family="sans-serif" font-size="14" font-weight="bold" lengthAdjust="spacingAndGlyphs" textLength="310" x="300" y="389.9951">org.springframework.boot.test.context</text><!--MD5=[cd09a31e374d3ba35fd45e1567298dba]
cluster org.springframework.data.jpa.repository--><polygon fill="#FFFFFF" points="1128,759,1456,759,1463,781.2969,1466,781.2969,1466,941,1128,941,1128,759" style="stroke: #000000; stroke-width: 1.5;"/><line style="stroke: #000000; stroke-width: 1.5;" x1="1128" x2="1463" y1="781.2969" y2="781.2969"/><text fill="#000000" font-family="sans-serif" font-size="14" font-weight="bold" lengthAdjust="spacingAndGlyphs" textLength="322" x="1132" y="773.9951">org.springframework.data.jpa.repository</text><!--MD5=[6ad9281f7b15eec2d80507cee5474074]
cluster org.springframework.data.repository.query--><polygon fill="#FFFFFF" points="1117,965,1468,965,1475,987.2969,1478,987.2969,1478,1064,1117,1064,1117,965" style="stroke: #000000; stroke-width: 1.5;"/><line style="stroke: #000000; stroke-width: 1.5;" x1="1117" x2="1475" y1="987.2969" y2="987.2969"/><text fill="#000000" font-family="sans-serif" font-size="14" font-weight="bold" lengthAdjust="spacingAndGlyphs" textLength="345" x="1121" y="979.9951">org.springframework.data.repository.query</text><!--MD5=[a561aa8b29e114c490144253e43bdad2]
cluster org.springframework.stereotype--><polygon fill="#FFFFFF" points="1159,553,1425,553,1432,575.2969,1435,575.2969,1435,735,1159,735,1159,553" style="stroke: #000000; stroke-width: 1.5;"/><line style="stroke: #000000; stroke-width: 1.5;" x1="1159" x2="1432" y1="575.2969" y2="575.2969"/><text fill="#000000" font-family="sans-serif" font-size="14" font-weight="bold" lengthAdjust="spacingAndGlyphs" textLength="260" x="1163" y="567.9951">org.springframework.stereotype</text><!--MD5=[cf70aa109cf380275638e708f48c4039]
cluster org.springframework.web.bind.annotation--><polygon fill="#FFFFFF" points="284,1288,625,1288,632,1310.2969,635,1310.2969,635,1885,284,1885,284,1288" style="stroke: #000000; stroke-width: 1.5;"/><line style="stroke: #000000; stroke-width: 1.5;" x1="284" x2="632" y1="1310.2969" y2="1310.2969"/><text fill="#000000" font-family="sans-serif" font-size="14" font-weight="bold" lengthAdjust="spacingAndGlyphs" textLength="335" x="288" y="1302.9951">org.springframework.web.bind.annotation</text><!--MD5=[05ef09548c6be9f74b0f46d2677bd71a]
cluster com.example.demo3--><polygon fill="#FFFFFF" points="34,149,203,149,210,171.2969,237,171.2969,237,331,34,331,34,149" style="stroke: #000000; stroke-width: 1.5;"/><line style="stroke: #000000; stroke-width: 1.5;" x1="34" x2="210" y1="171.2969" y2="171.2969"/><text fill="#000000" font-family="sans-serif" font-size="14" font-weight="bold" lengthAdjust="spacingAndGlyphs" textLength="163" x="38" y="163.9951">com.example.demo3</text><!--MD5=[e2a054b72a7d66caee6e34ed290be4a5]
cluster com.example.demo3.control--><polygon fill="#FFFFFF" points="16,1371,246,1371,253,1393.2969,256,1393.2969,256,1470,16,1470,16,1371" style="stroke: #000000; stroke-width: 1.5;"/><line style="stroke: #000000; stroke-width: 1.5;" x1="16" x2="253" y1="1393.2969" y2="1393.2969"/><text fill="#000000" font-family="sans-serif" font-size="14" font-weight="bold" lengthAdjust="spacingAndGlyphs" textLength="224" x="20" y="1385.9951">com.example.demo3.control</text><!--MD5=[8a776625cb4a0e74d64e26e8cc898d0b]
cluster com.example.demo3.model--><polygon fill="#FFFFFF" points="1181,430,1403,430,1410,452.2969,1413,452.2969,1413,529,1181,529,1181,430" style="stroke: #000000; stroke-width: 1.5;"/><line style="stroke: #000000; stroke-width: 1.5;" x1="1181" x2="1410" y1="452.2969" y2="452.2969"/><text fill="#000000" font-family="sans-serif" font-size="14" font-weight="bold" lengthAdjust="spacingAndGlyphs" textLength="216" x="1185" y="444.9951">com.example.demo3.model</text><!--MD5=[20ae963291fa220fe6b4c813a36d21c6]
cluster com.example.demo3.services--><polygon fill="#FFFFFF" points="333.5,933,574.5,933,581.5,955.2969,584.5,955.2969,584.5,1032,333.5,1032,333.5,933" style="stroke: #000000; stroke-width: 1.5;"/><line style="stroke: #000000; stroke-width: 1.5;" x1="333.5" x2="581.5" y1="955.2969" y2="955.2969"/><text fill="#000000" font-family="sans-serif" font-size="14" font-weight="bold" lengthAdjust="spacingAndGlyphs" textLength="235" x="337.5" y="947.9951">com.example.demo3.services</text><!--MD5=[7db3c59d38ae5b37b484eb2df9368145]
cluster java.util--><polygon fill="#FFFFFF" points="1232.5,1135,1298.5,1135,1305.5,1157.2969,1361.5,1157.2969,1361.5,1317,1232.5,1317,1232.5,1135" style="stroke: #000000; stroke-width: 1.5;"/><line style="stroke: #000000; stroke-width: 1.5;" x1="1232.5" x2="1305.5" y1="1157.2969" y2="1157.2969"/><text fill="#000000" font-family="sans-serif" font-size="14" font-weight="bold" lengthAdjust="spacingAndGlyphs" textLength="60" x="1236.5" y="1149.9951">java.util</text><!--MD5=[4993f36ec853620c161b1b70903c4553]
cluster org.springframework.boot--><polygon fill="#FFFFFF" points="346.5,129,561.5,129,568.5,151.2969,571.5,151.2969,571.5,228,346.5,228,346.5,129" style="stroke: #000000; stroke-width: 1.5;"/><line style="stroke: #000000; stroke-width: 1.5;" x1="346.5" x2="568.5" y1="151.2969" y2="151.2969"/><text fill="#000000" font-family="sans-serif" font-size="14" font-weight="bold" lengthAdjust="spacingAndGlyphs" textLength="209" x="350.5" y="143.9951">org.springframework.boot</text><!--MD5=[8d2ab5c98099302f2ff711ca57a18c2f]
cluster com.example.demo3.Repository--><polygon fill="#FFFFFF" points="741,842,1000,842,1007,864.2969,1010,864.2969,1010,941,741,941,741,842" style="stroke: #000000; stroke-width: 1.5;"/><line style="stroke: #000000; stroke-width: 1.5;" x1="741" x2="1007" y1="864.2969" y2="864.2969"/><text fill="#000000" font-family="sans-serif" font-size="14" font-weight="bold" lengthAdjust="spacingAndGlyphs" textLength="253" x="745" y="856.9951">com.example.demo3.Repository</text><!--MD5=[3c78a2fa643d9223b1f8ad930e883961]
class java.lang.Override--><!--MD5=[994492c0239362406ec1ceac2d0cce9d]
class javax.persistence.Column--><rect codeLine="12" fill="#FEFECE" height="48" id="javax.persistence.Column" style="stroke: #A80036; stroke-width: 1.5;" width="78" x="1550" y="424"/><ellipse cx="1565" cy="440" fill="#E3664A" rx="11" ry="11" style="stroke: #A80036; stroke-width: 1.0;"/><path d="M1567.0781,440.4688 Q1567.0781,439.5313 1566.6563,439 Q1566.2344,438.4688 1565.4844,438.4688 Q1564.75,438.4688 1564.3281,439 Q1563.9219,439.5313 1563.9219,440.4688 Q1563.9219,441.4219 1564.3281,441.9531 Q1564.75,442.4844 1565.4844,442.4844 Q1566.2344,442.4844 1566.6563,441.9531 Q1567.0781,441.4219 1567.0781,440.4688 Z M1568.625,443.875 L1567,443.875 L1567,443.2031 Q1566.6719,443.6406 1566.25,443.8438 Q1565.8281,444.0469 1565.2188,444.0469 Q1563.8594,444.0469 1563.0313,443.0781 Q1562.2031,442.0938 1562.2031,440.4688 Q1562.2031,438.875 1563.0313,437.9063 Q1563.8594,436.9219 1565.2188,436.9219 Q1565.8125,436.9219 1566.2656,437.125 Q1566.7188,437.3281 1567,437.7188 L1567,437.375 Q1567,436.25 1566.375,435.6406 Q1565.75,435.0156 1564.6094,435.0156 Q1562.8906,435.0156 1561.7969,436.5469 Q1560.7031,438.0625 1560.7031,440.5 Q1560.7031,443.0469 1561.9531,444.5469 Q1563.2188,446.0469 1565.3281,446.0469 Q1565.9844,446.0469 1566.6094,445.8594 Q1567.2344,445.6719 1567.8125,445.2813 L1568.5781,446.7344 Q1567.9063,447.1875 1567.1094,447.4063 Q1566.3125,447.6406 1565.4063,447.6406 Q1562.5,447.6406 1560.7656,445.7031 Q1559.0469,443.7813 1559.0469,440.5 Q1559.0469,437.2813 1560.5938,435.3594 Q1562.1563,433.4219 1564.7188,433.4219 Q1566.5156,433.4219 1567.5625,434.5156 Q1568.625,435.6094 1568.625,437.4844 L1568.625,443.875 Z "/><text fill="#000000" font-family="sans-serif" font-size="12" lengthAdjust="spacingAndGlyphs" textLength="46" x="1579" y="444.1543">Column</text><line style="stroke: #A80036; stroke-width: 1.5;" x1="1551" x2="1627" y1="456" y2="456"/><line style="stroke: #A80036; stroke-width: 1.5;" x1="1551" x2="1627" y1="464" y2="464"/><!--MD5=[34e32c72011841c4c0ea11eda9a07114]
class javax.persistence.Entity--><rect codeLine="13" fill="#FEFECE" height="48" id="javax.persistence.Entity" style="stroke: #A80036; stroke-width: 1.5;" width="67" x="1555.5" y="507"/><ellipse cx="1570.5" cy="523" fill="#E3664A" rx="11" ry="11" style="stroke: #A80036; stroke-width: 1.0;"/><path d="M1572.5781,523.4688 Q1572.5781,522.5313 1572.1563,522 Q1571.7344,521.4688 1570.9844,521.4688 Q1570.25,521.4688 1569.8281,522 Q1569.4219,522.5313 1569.4219,523.4688 Q1569.4219,524.4219 1569.8281,524.9531 Q1570.25,525.4844 1570.9844,525.4844 Q1571.7344,525.4844 1572.1563,524.9531 Q1572.5781,524.4219 1572.5781,523.4688 Z M1574.125,526.875 L1572.5,526.875 L1572.5,526.2031 Q1572.1719,526.6406 1571.75,526.8438 Q1571.3281,527.0469 1570.7188,527.0469 Q1569.3594,527.0469 1568.5313,526.0781 Q1567.7031,525.0938 1567.7031,523.4688 Q1567.7031,521.875 1568.5313,520.9063 Q1569.3594,519.9219 1570.7188,519.9219 Q1571.3125,519.9219 1571.7656,520.125 Q1572.2188,520.3281 1572.5,520.7188 L1572.5,520.375 Q1572.5,519.25 1571.875,518.6406 Q1571.25,518.0156 1570.1094,518.0156 Q1568.3906,518.0156 1567.2969,519.5469 Q1566.2031,521.0625 1566.2031,523.5 Q1566.2031,526.0469 1567.4531,527.5469 Q1568.7188,529.0469 1570.8281,529.0469 Q1571.4844,529.0469 1572.1094,528.8594 Q1572.7344,528.6719 1573.3125,528.2813 L1574.0781,529.7344 Q1573.4063,530.1875 1572.6094,530.4063 Q1571.8125,530.6406 1570.9063,530.6406 Q1568,530.6406 1566.2656,528.7031 Q1564.5469,526.7813 1564.5469,523.5 Q1564.5469,520.2813 1566.0938,518.3594 Q1567.6563,516.4219 1570.2188,516.4219 Q1572.0156,516.4219 1573.0625,517.5156 Q1574.125,518.6094 1574.125,520.4844 L1574.125,526.875 Z "/><text fill="#000000" font-family="sans-serif" font-size="12" lengthAdjust="spacingAndGlyphs" textLength="35" x="1584.5" y="527.1543">Entity</text><line style="stroke: #A80036; stroke-width: 1.5;" x1="1556.5" x2="1621.5" y1="539" y2="539"/><line style="stroke: #A80036; stroke-width: 1.5;" x1="1556.5" x2="1621.5" y1="547" y2="547"/><!--MD5=[324f4f9871cd4442fecefcb6f888c0df]
class javax.persistence.GeneratedValue--><rect codeLine="14" fill="#FEFECE" height="48" id="javax.persistence.GeneratedValue" style="stroke: #A80036; stroke-width: 1.5;" width="134" x="1522" y="590"/><ellipse cx="1537" cy="606" fill="#E3664A" rx="11" ry="11" style="stroke: #A80036; stroke-width: 1.0;"/><path d="M1539.0781,606.4688 Q1539.0781,605.5313 1538.6563,605 Q1538.2344,604.4688 1537.4844,604.4688 Q1536.75,604.4688 1536.3281,605 Q1535.9219,605.5313 1535.9219,606.4688 Q1535.9219,607.4219 1536.3281,607.9531 Q1536.75,608.4844 1537.4844,608.4844 Q1538.2344,608.4844 1538.6563,607.9531 Q1539.0781,607.4219 1539.0781,606.4688 Z M1540.625,609.875 L1539,609.875 L1539,609.2031 Q1538.6719,609.6406 1538.25,609.8438 Q1537.8281,610.0469 1537.2188,610.0469 Q1535.8594,610.0469 1535.0313,609.0781 Q1534.2031,608.0938 1534.2031,606.4688 Q1534.2031,604.875 1535.0313,603.9063 Q1535.8594,602.9219 1537.2188,602.9219 Q1537.8125,602.9219 1538.2656,603.125 Q1538.7188,603.3281 1539,603.7188 L1539,603.375 Q1539,602.25 1538.375,601.6406 Q1537.75,601.0156 1536.6094,601.0156 Q1534.8906,601.0156 1533.7969,602.5469 Q1532.7031,604.0625 1532.7031,606.5 Q1532.7031,609.0469 1533.9531,610.5469 Q1535.2188,612.0469 1537.3281,612.0469 Q1537.9844,612.0469 1538.6094,611.8594 Q1539.2344,611.6719 1539.8125,611.2813 L1540.5781,612.7344 Q1539.9063,613.1875 1539.1094,613.4063 Q1538.3125,613.6406 1537.4063,613.6406 Q1534.5,613.6406 1532.7656,611.7031 Q1531.0469,609.7813 1531.0469,606.5 Q1531.0469,603.2813 1532.5938,601.3594 Q1534.1563,599.4219 1536.7188,599.4219 Q1538.5156,599.4219 1539.5625,600.5156 Q1540.625,601.6094 1540.625,603.4844 L1540.625,609.875 Z "/><text fill="#000000" font-family="sans-serif" font-size="12" lengthAdjust="spacingAndGlyphs" textLength="102" x="1551" y="610.1543">GeneratedValue</text><line style="stroke: #A80036; stroke-width: 1.5;" x1="1523" x2="1655" y1="622" y2="622"/><line style="stroke: #A80036; stroke-width: 1.5;" x1="1523" x2="1655" y1="630" y2="630"/><!--MD5=[3bb0592487f488fa5a6136ef9dedb7c0]
class javax.persistence.Id--><rect codeLine="15" fill="#FEFECE" height="48" id="javax.persistence.Id" style="stroke: #A80036; stroke-width: 1.5;" width="43" x="1567.5" y="673"/><ellipse cx="1582.5" cy="689" fill="#E3664A" rx="11" ry="11" style="stroke: #A80036; stroke-width: 1.0;"/><path d="M1584.5781,689.4688 Q1584.5781,688.5313 1584.1563,688 Q1583.7344,687.4688 1582.9844,687.4688 Q1582.25,687.4688 1581.8281,688 Q1581.4219,688.5313 1581.4219,689.4688 Q1581.4219,690.4219 1581.8281,690.9531 Q1582.25,691.4844 1582.9844,691.4844 Q1583.7344,691.4844 1584.1563,690.9531 Q1584.5781,690.4219 1584.5781,689.4688 Z M1586.125,692.875 L1584.5,692.875 L1584.5,692.2031 Q1584.1719,692.6406 1583.75,692.8438 Q1583.3281,693.0469 1582.7188,693.0469 Q1581.3594,693.0469 1580.5313,692.0781 Q1579.7031,691.0938 1579.7031,689.4688 Q1579.7031,687.875 1580.5313,686.9063 Q1581.3594,685.9219 1582.7188,685.9219 Q1583.3125,685.9219 1583.7656,686.125 Q1584.2188,686.3281 1584.5,686.7188 L1584.5,686.375 Q1584.5,685.25 1583.875,684.6406 Q1583.25,684.0156 1582.1094,684.0156 Q1580.3906,684.0156 1579.2969,685.5469 Q1578.2031,687.0625 1578.2031,689.5 Q1578.2031,692.0469 1579.4531,693.5469 Q1580.7188,695.0469 1582.8281,695.0469 Q1583.4844,695.0469 1584.1094,694.8594 Q1584.7344,694.6719 1585.3125,694.2813 L1586.0781,695.7344 Q1585.4063,696.1875 1584.6094,696.4063 Q1583.8125,696.6406 1582.9063,696.6406 Q1580,696.6406 1578.2656,694.7031 Q1576.5469,692.7813 1576.5469,689.5 Q1576.5469,686.2813 1578.0938,684.3594 Q1579.6563,682.4219 1582.2188,682.4219 Q1584.0156,682.4219 1585.0625,683.5156 Q1586.125,684.6094 1586.125,686.4844 L1586.125,692.875 Z "/><text fill="#000000" font-family="sans-serif" font-size="12" lengthAdjust="spacingAndGlyphs" textLength="11" x="1596.5" y="693.1543">Id</text><line style="stroke: #A80036; stroke-width: 1.5;" x1="1568.5" x2="1609.5" y1="705" y2="705"/><line style="stroke: #A80036; stroke-width: 1.5;" x1="1568.5" x2="1609.5" y1="713" y2="713"/><!--MD5=[fa41ba584bb7fd7af2996210f1ba98c5]
class javax.persistence.Table--><rect codeLine="16" fill="#FEFECE" height="48" id="javax.persistence.Table" style="stroke: #A80036; stroke-width: 1.5;" width="66" x="1556" y="258"/><ellipse cx="1571" cy="274" fill="#E3664A" rx="11" ry="11" style="stroke: #A80036; stroke-width: 1.0;"/><path d="M1573.0781,274.4688 Q1573.0781,273.5313 1572.6563,273 Q1572.2344,272.4688 1571.4844,272.4688 Q1570.75,272.4688 1570.3281,273 Q1569.9219,273.5313 1569.9219,274.4688 Q1569.9219,275.4219 1570.3281,275.9531 Q1570.75,276.4844 1571.4844,276.4844 Q1572.2344,276.4844 1572.6563,275.9531 Q1573.0781,275.4219 1573.0781,274.4688 Z M1574.625,277.875 L1573,277.875 L1573,277.2031 Q1572.6719,277.6406 1572.25,277.8438 Q1571.8281,278.0469 1571.2188,278.0469 Q1569.8594,278.0469 1569.0313,277.0781 Q1568.2031,276.0938 1568.2031,274.4688 Q1568.2031,272.875 1569.0313,271.9063 Q1569.8594,270.9219 1571.2188,270.9219 Q1571.8125,270.9219 1572.2656,271.125 Q1572.7188,271.3281 1573,271.7188 L1573,271.375 Q1573,270.25 1572.375,269.6406 Q1571.75,269.0156 1570.6094,269.0156 Q1568.8906,269.0156 1567.7969,270.5469 Q1566.7031,272.0625 1566.7031,274.5 Q1566.7031,277.0469 1567.9531,278.5469 Q1569.2188,280.0469 1571.3281,280.0469 Q1571.9844,280.0469 1572.6094,279.8594 Q1573.2344,279.6719 1573.8125,279.2813 L1574.5781,280.7344 Q1573.9063,281.1875 1573.1094,281.4063 Q1572.3125,281.6406 1571.4063,281.6406 Q1568.5,281.6406 1566.7656,279.7031 Q1565.0469,277.7813 1565.0469,274.5 Q1565.0469,271.2813 1566.5938,269.3594 Q1568.1563,267.4219 1570.7188,267.4219 Q1572.5156,267.4219 1573.5625,268.5156 Q1574.625,269.6094 1574.625,271.4844 L1574.625,277.875 Z "/><text fill="#000000" font-family="sans-serif" font-size="12" lengthAdjust="spacingAndGlyphs" textLength="34" x="1585" y="278.1543">Table</text><line style="stroke: #A80036; stroke-width: 1.5;" x1="1557" x2="1621" y1="290" y2="290"/><line style="stroke: #A80036; stroke-width: 1.5;" x1="1557" x2="1621" y1="298" y2="298"/><!--MD5=[e162b6c43b958156475d0409ccda137a]
class javax.persistence.GenerationType--><rect codeLine="40" fill="#FEFECE" height="48" id="javax.persistence.GenerationType" style="stroke: #A80036; stroke-width: 1.5;" width="131" x="1523.5" y="341"/><ellipse cx="1538.5" cy="357" fill="#ADD1B2" rx="11" ry="11" style="stroke: #A80036; stroke-width: 1.0;"/><path d="M1541.4688,362.6406 Q1540.8906,362.9375 1540.25,363.0781 Q1539.6094,363.2344 1538.9063,363.2344 Q1536.4063,363.2344 1535.0781,361.5938 Q1533.7656,359.9375 1533.7656,356.8125 Q1533.7656,353.6875 1535.0781,352.0313 Q1536.4063,350.375 1538.9063,350.375 Q1539.6094,350.375 1540.25,350.5313 Q1540.9063,350.6875 1541.4688,350.9844 L1541.4688,353.7031 Q1540.8438,353.125 1540.25,352.8594 Q1539.6563,352.5781 1539.0313,352.5781 Q1537.6875,352.5781 1537,353.6563 Q1536.3125,354.7188 1536.3125,356.8125 Q1536.3125,358.9063 1537,359.9844 Q1537.6875,361.0469 1539.0313,361.0469 Q1539.6563,361.0469 1540.25,360.7813 Q1540.8438,360.5 1541.4688,359.9219 L1541.4688,362.6406 Z "/><text fill="#000000" font-family="sans-serif" font-size="12" lengthAdjust="spacingAndGlyphs" textLength="99" x="1552.5" y="361.1543">GenerationType</text><line style="stroke: #A80036; stroke-width: 1.5;" x1="1524.5" x2="1653.5" y1="373" y2="373"/><line style="stroke: #A80036; stroke-width: 1.5;" x1="1524.5" x2="1653.5" y1="381" y2="381"/><!--MD5=[4218b5a449d728a8f9529b55d0a356bc]
class org.junit.jupiter.api.Test--><rect codeLine="17" fill="#FEFECE" height="48" id="org.junit.jupiter.api.Test" style="stroke: #A80036; stroke-width: 1.5;" width="59" x="429.5" y="287"/><ellipse cx="444.5" cy="303" fill="#E3664A" rx="11" ry="11" style="stroke: #A80036; stroke-width: 1.0;"/><path d="M446.5781,303.4688 Q446.5781,302.5313 446.1563,302 Q445.7344,301.4688 444.9844,301.4688 Q444.25,301.4688 443.8281,302 Q443.4219,302.5313 443.4219,303.4688 Q443.4219,304.4219 443.8281,304.9531 Q444.25,305.4844 444.9844,305.4844 Q445.7344,305.4844 446.1563,304.9531 Q446.5781,304.4219 446.5781,303.4688 Z M448.125,306.875 L446.5,306.875 L446.5,306.2031 Q446.1719,306.6406 445.75,306.8438 Q445.3281,307.0469 444.7188,307.0469 Q443.3594,307.0469 442.5313,306.0781 Q441.7031,305.0938 441.7031,303.4688 Q441.7031,301.875 442.5313,300.9063 Q443.3594,299.9219 444.7188,299.9219 Q445.3125,299.9219 445.7656,300.125 Q446.2188,300.3281 446.5,300.7188 L446.5,300.375 Q446.5,299.25 445.875,298.6406 Q445.25,298.0156 444.1094,298.0156 Q442.3906,298.0156 441.2969,299.5469 Q440.2031,301.0625 440.2031,303.5 Q440.2031,306.0469 441.4531,307.5469 Q442.7188,309.0469 444.8281,309.0469 Q445.4844,309.0469 446.1094,308.8594 Q446.7344,308.6719 447.3125,308.2813 L448.0781,309.7344 Q447.4063,310.1875 446.6094,310.4063 Q445.8125,310.6406 444.9063,310.6406 Q442,310.6406 440.2656,308.7031 Q438.5469,306.7813 438.5469,303.5 Q438.5469,300.2813 440.0938,298.3594 Q441.6563,296.4219 444.2188,296.4219 Q446.0156,296.4219 447.0625,297.5156 Q448.125,298.6094 448.125,300.4844 L448.125,306.875 Z "/><text fill="#000000" font-family="sans-serif" font-size="12" lengthAdjust="spacingAndGlyphs" textLength="27" x="458.5" y="307.1543">Test</text><line style="stroke: #A80036; stroke-width: 1.5;" x1="430.5" x2="487.5" y1="319" y2="319"/><line style="stroke: #A80036; stroke-width: 1.5;" x1="430.5" x2="487.5" y1="327" y2="327"/><!--MD5=[38bbb84edccd9809dd15ae37fb870f1d]
class org.springframework.beans.factory.annotation.Autowired--><rect codeLine="18" fill="#FEFECE" height="48" id="org.springframework.beans.factory.annotation.Autowired" style="stroke: #A80036; stroke-width: 1.5;" width="94" x="828.5" y="1153"/><ellipse cx="843.5" cy="1169" fill="#E3664A" rx="11" ry="11" style="stroke: #A80036; stroke-width: 1.0;"/><path d="M845.5781,1169.4688 Q845.5781,1168.5313 845.1563,1168 Q844.7344,1167.4688 843.9844,1167.4688 Q843.25,1167.4688 842.8281,1168 Q842.4219,1168.5313 842.4219,1169.4688 Q842.4219,1170.4219 842.8281,1170.9531 Q843.25,1171.4844 843.9844,1171.4844 Q844.7344,1171.4844 845.1563,1170.9531 Q845.5781,1170.4219 845.5781,1169.4688 Z M847.125,1172.875 L845.5,1172.875 L845.5,1172.2031 Q845.1719,1172.6406 844.75,1172.8438 Q844.3281,1173.0469 843.7188,1173.0469 Q842.3594,1173.0469 841.5313,1172.0781 Q840.7031,1171.0938 840.7031,1169.4688 Q840.7031,1167.875 841.5313,1166.9063 Q842.3594,1165.9219 843.7188,1165.9219 Q844.3125,1165.9219 844.7656,1166.125 Q845.2188,1166.3281 845.5,1166.7188 L845.5,1166.375 Q845.5,1165.25 844.875,1164.6406 Q844.25,1164.0156 843.1094,1164.0156 Q841.3906,1164.0156 840.2969,1165.5469 Q839.2031,1167.0625 839.2031,1169.5 Q839.2031,1172.0469 840.4531,1173.5469 Q841.7188,1175.0469 843.8281,1175.0469 Q844.4844,1175.0469 845.1094,1174.8594 Q845.7344,1174.6719 846.3125,1174.2813 L847.0781,1175.7344 Q846.4063,1176.1875 845.6094,1176.4063 Q844.8125,1176.6406 843.9063,1176.6406 Q841,1176.6406 839.2656,1174.7031 Q837.5469,1172.7813 837.5469,1169.5 Q837.5469,1166.2813 839.0938,1164.3594 Q840.6563,1162.4219 843.2188,1162.4219 Q845.0156,1162.4219 846.0625,1163.5156 Q847.125,1164.6094 847.125,1166.4844 L847.125,1172.875 Z "/><text fill="#000000" font-family="sans-serif" font-size="12" lengthAdjust="spacingAndGlyphs" textLength="62" x="857.5" y="1173.1543">Autowired</text><line style="stroke: #A80036; stroke-width: 1.5;" x1="829.5" x2="921.5" y1="1185" y2="1185"/><line style="stroke: #A80036; stroke-width: 1.5;" x1="829.5" x2="921.5" y1="1193" y2="1193"/><!--MD5=[414995799a7df34fee966cfa09ba8f01]
class org.springframework.boot.autoconfigure.SpringBootApplication--><rect codeLine="19" fill="#FEFECE" height="48" id="org.springframework.boot.autoconfigure.SpringBootApplication" style="stroke: #A80036; stroke-width: 1.5;" width="170" x="374" y="41"/><ellipse cx="389" cy="57" fill="#E3664A" rx="11" ry="11" style="stroke: #A80036; stroke-width: 1.0;"/><path d="M391.0781,57.4688 Q391.0781,56.5313 390.6563,56 Q390.2344,55.4688 389.4844,55.4688 Q388.75,55.4688 388.3281,56 Q387.9219,56.5313 387.9219,57.4688 Q387.9219,58.4219 388.3281,58.9531 Q388.75,59.4844 389.4844,59.4844 Q390.2344,59.4844 390.6563,58.9531 Q391.0781,58.4219 391.0781,57.4688 Z M392.625,60.875 L391,60.875 L391,60.2031 Q390.6719,60.6406 390.25,60.8438 Q389.8281,61.0469 389.2188,61.0469 Q387.8594,61.0469 387.0313,60.0781 Q386.2031,59.0938 386.2031,57.4688 Q386.2031,55.875 387.0313,54.9063 Q387.8594,53.9219 389.2188,53.9219 Q389.8125,53.9219 390.2656,54.125 Q390.7188,54.3281 391,54.7188 L391,54.375 Q391,53.25 390.375,52.6406 Q389.75,52.0156 388.6094,52.0156 Q386.8906,52.0156 385.7969,53.5469 Q384.7031,55.0625 384.7031,57.5 Q384.7031,60.0469 385.9531,61.5469 Q387.2188,63.0469 389.3281,63.0469 Q389.9844,63.0469 390.6094,62.8594 Q391.2344,62.6719 391.8125,62.2813 L392.5781,63.7344 Q391.9063,64.1875 391.1094,64.4063 Q390.3125,64.6406 389.4063,64.6406 Q386.5,64.6406 384.7656,62.7031 Q383.0469,60.7813 383.0469,57.5 Q383.0469,54.2813 384.5938,52.3594 Q386.1563,50.4219 388.7188,50.4219 Q390.5156,50.4219 391.5625,51.5156 Q392.625,52.6094 392.625,54.4844 L392.625,60.875 Z "/><text fill="#000000" font-family="sans-serif" font-size="12" lengthAdjust="spacingAndGlyphs" textLength="138" x="403" y="61.1543">SpringBootApplication</text><line style="stroke: #A80036; stroke-width: 1.5;" x1="375" x2="543" y1="73" y2="73"/><line style="stroke: #A80036; stroke-width: 1.5;" x1="375" x2="543" y1="81" y2="81"/><!--MD5=[d07b8783d7d09762ac1b05eaefc83f6d]
class org.springframework.boot.test.context.SpringBootTest--><rect codeLine="20" fill="#FEFECE" height="48" id="org.springframework.boot.test.context.SpringBootTest" style="stroke: #A80036; stroke-width: 1.5;" width="128" x="395" y="410"/><ellipse cx="410" cy="426" fill="#E3664A" rx="11" ry="11" style="stroke: #A80036; stroke-width: 1.0;"/><path d="M412.0781,426.4688 Q412.0781,425.5313 411.6563,425 Q411.2344,424.4688 410.4844,424.4688 Q409.75,424.4688 409.3281,425 Q408.9219,425.5313 408.9219,426.4688 Q408.9219,427.4219 409.3281,427.9531 Q409.75,428.4844 410.4844,428.4844 Q411.2344,428.4844 411.6563,427.9531 Q412.0781,427.4219 412.0781,426.4688 Z M413.625,429.875 L412,429.875 L412,429.2031 Q411.6719,429.6406 411.25,429.8438 Q410.8281,430.0469 410.2188,430.0469 Q408.8594,430.0469 408.0313,429.0781 Q407.2031,428.0938 407.2031,426.4688 Q407.2031,424.875 408.0313,423.9063 Q408.8594,422.9219 410.2188,422.9219 Q410.8125,422.9219 411.2656,423.125 Q411.7188,423.3281 412,423.7188 L412,423.375 Q412,422.25 411.375,421.6406 Q410.75,421.0156 409.6094,421.0156 Q407.8906,421.0156 406.7969,422.5469 Q405.7031,424.0625 405.7031,426.5 Q405.7031,429.0469 406.9531,430.5469 Q408.2188,432.0469 410.3281,432.0469 Q410.9844,432.0469 411.6094,431.8594 Q412.2344,431.6719 412.8125,431.2813 L413.5781,432.7344 Q412.9063,433.1875 412.1094,433.4063 Q411.3125,433.6406 410.4063,433.6406 Q407.5,433.6406 405.7656,431.7031 Q404.0469,429.7813 404.0469,426.5 Q404.0469,423.2813 405.5938,421.3594 Q407.1563,419.4219 409.7188,419.4219 Q411.5156,419.4219 412.5625,420.5156 Q413.625,421.6094 413.625,423.4844 L413.625,429.875 Z "/><text fill="#000000" font-family="sans-serif" font-size="12" lengthAdjust="spacingAndGlyphs" textLength="96" x="424" y="430.1543">SpringBootTest</text><line style="stroke: #A80036; stroke-width: 1.5;" x1="396" x2="522" y1="442" y2="442"/><line style="stroke: #A80036; stroke-width: 1.5;" x1="396" x2="522" y1="450" y2="450"/><!--MD5=[f0dd48f3c760612bc42726f6f1639dc6]
class org.springframework.data.jpa.repository.Query--><rect codeLine="21" fill="#FEFECE" height="48" id="org.springframework.data.jpa.repository.Query" style="stroke: #A80036; stroke-width: 1.5;" width="68" x="1263" y="794"/><ellipse cx="1278" cy="810" fill="#E3664A" rx="11" ry="11" style="stroke: #A80036; stroke-width: 1.0;"/><path d="M1280.0781,810.4688 Q1280.0781,809.5313 1279.6563,809 Q1279.2344,808.4688 1278.4844,808.4688 Q1277.75,808.4688 1277.3281,809 Q1276.9219,809.5313 1276.9219,810.4688 Q1276.9219,811.4219 1277.3281,811.9531 Q1277.75,812.4844 1278.4844,812.4844 Q1279.2344,812.4844 1279.6563,811.9531 Q1280.0781,811.4219 1280.0781,810.4688 Z M1281.625,813.875 L1280,813.875 L1280,813.2031 Q1279.6719,813.6406 1279.25,813.8438 Q1278.8281,814.0469 1278.2188,814.0469 Q1276.8594,814.0469 1276.0313,813.0781 Q1275.2031,812.0938 1275.2031,810.4688 Q1275.2031,808.875 1276.0313,807.9063 Q1276.8594,806.9219 1278.2188,806.9219 Q1278.8125,806.9219 1279.2656,807.125 Q1279.7188,807.3281 1280,807.7188 L1280,807.375 Q1280,806.25 1279.375,805.6406 Q1278.75,805.0156 1277.6094,805.0156 Q1275.8906,805.0156 1274.7969,806.5469 Q1273.7031,808.0625 1273.7031,810.5 Q1273.7031,813.0469 1274.9531,814.5469 Q1276.2188,816.0469 1278.3281,816.0469 Q1278.9844,816.0469 1279.6094,815.8594 Q1280.2344,815.6719 1280.8125,815.2813 L1281.5781,816.7344 Q1280.9063,817.1875 1280.1094,817.4063 Q1279.3125,817.6406 1278.4063,817.6406 Q1275.5,817.6406 1273.7656,815.7031 Q1272.0469,813.7813 1272.0469,810.5 Q1272.0469,807.2813 1273.5938,805.3594 Q1275.1563,803.4219 1277.7188,803.4219 Q1279.5156,803.4219 1280.5625,804.5156 Q1281.625,805.6094 1281.625,807.4844 L1281.625,813.875 Z "/><text fill="#000000" font-family="sans-serif" font-size="12" lengthAdjust="spacingAndGlyphs" textLength="36" x="1292" y="814.1543">Query</text><line style="stroke: #A80036; stroke-width: 1.5;" x1="1264" x2="1330" y1="826" y2="826"/><line style="stroke: #A80036; stroke-width: 1.5;" x1="1264" x2="1330" y1="834" y2="834"/><!--MD5=[9066e956ebe5b62a90d194ed6cf4a894]
class org.springframework.data.jpa.repository.JpaRepository--><rect codeLine="43" fill="#FEFECE" height="48" id="org.springframework.data.jpa.repository.JpaRepository" style="stroke: #A80036; stroke-width: 1.5;" width="118" x="1238" y="877"/><ellipse cx="1253" cy="893" fill="#B4A7E5" rx="11" ry="11" style="stroke: #A80036; stroke-width: 1.0;"/><path d="M1248.9219,888.7656 L1248.9219,886.6094 L1256.3125,886.6094 L1256.3125,888.7656 L1253.8438,888.7656 L1253.8438,896.8438 L1256.3125,896.8438 L1256.3125,899 L1248.9219,899 L1248.9219,896.8438 L1251.3906,896.8438 L1251.3906,888.7656 L1248.9219,888.7656 Z "/><text fill="#000000" font-family="sans-serif" font-size="12" font-style="italic" lengthAdjust="spacingAndGlyphs" textLength="86" x="1267" y="897.1543">JpaRepository</text><line style="stroke: #A80036; stroke-width: 1.5;" x1="1239" x2="1355" y1="909" y2="909"/><line style="stroke: #A80036; stroke-width: 1.5;" x1="1239" x2="1355" y1="917" y2="917"/><!--MD5=[afc50bff66066f188362a3cb7911eafe]
class org.springframework.data.repository.query.Param--><rect codeLine="22" fill="#FEFECE" height="48" id="org.springframework.data.repository.query.Param" style="stroke: #A80036; stroke-width: 1.5;" width="72" x="1261" y="1000"/><ellipse cx="1276" cy="1016" fill="#E3664A" rx="11" ry="11" style="stroke: #A80036; stroke-width: 1.0;"/><path d="M1278.0781,1016.4688 Q1278.0781,1015.5313 1277.6563,1015 Q1277.2344,1014.4688 1276.4844,1014.4688 Q1275.75,1014.4688 1275.3281,1015 Q1274.9219,1015.5313 1274.9219,1016.4688 Q1274.9219,1017.4219 1275.3281,1017.9531 Q1275.75,1018.4844 1276.4844,1018.4844 Q1277.2344,1018.4844 1277.6563,1017.9531 Q1278.0781,1017.4219 1278.0781,1016.4688 Z M1279.625,1019.875 L1278,1019.875 L1278,1019.2031 Q1277.6719,1019.6406 1277.25,1019.8438 Q1276.8281,1020.0469 1276.2188,1020.0469 Q1274.8594,1020.0469 1274.0313,1019.0781 Q1273.2031,1018.0938 1273.2031,1016.4688 Q1273.2031,1014.875 1274.0313,1013.9063 Q1274.8594,1012.9219 1276.2188,1012.9219 Q1276.8125,1012.9219 1277.2656,1013.125 Q1277.7188,1013.3281 1278,1013.7188 L1278,1013.375 Q1278,1012.25 1277.375,1011.6406 Q1276.75,1011.0156 1275.6094,1011.0156 Q1273.8906,1011.0156 1272.7969,1012.5469 Q1271.7031,1014.0625 1271.7031,1016.5 Q1271.7031,1019.0469 1272.9531,1020.5469 Q1274.2188,1022.0469 1276.3281,1022.0469 Q1276.9844,1022.0469 1277.6094,1021.8594 Q1278.2344,1021.6719 1278.8125,1021.2813 L1279.5781,1022.7344 Q1278.9063,1023.1875 1278.1094,1023.4063 Q1277.3125,1023.6406 1276.4063,1023.6406 Q1273.5,1023.6406 1271.7656,1021.7031 Q1270.0469,1019.7813 1270.0469,1016.5 Q1270.0469,1013.2813 1271.5938,1011.3594 Q1273.1563,1009.4219 1275.7188,1009.4219 Q1277.5156,1009.4219 1278.5625,1010.5156 Q1279.625,1011.6094 1279.625,1013.4844 L1279.625,1019.875 Z "/><text fill="#000000" font-family="sans-serif" font-size="12" lengthAdjust="spacingAndGlyphs" textLength="40" x="1290" y="1020.1543">Param</text><line style="stroke: #A80036; stroke-width: 1.5;" x1="1262" x2="1332" y1="1032" y2="1032"/><line style="stroke: #A80036; stroke-width: 1.5;" x1="1262" x2="1332" y1="1040" y2="1040"/><!--MD5=[4ed4fa110645716a946b025508d0d321]
class org.springframework.stereotype.Repository--><rect codeLine="23" fill="#FEFECE" height="48" id="org.springframework.stereotype.Repository" style="stroke: #A80036; stroke-width: 1.5;" width="98" x="1248" y="671"/><ellipse cx="1263" cy="687" fill="#E3664A" rx="11" ry="11" style="stroke: #A80036; stroke-width: 1.0;"/><path d="M1265.0781,687.4688 Q1265.0781,686.5313 1264.6563,686 Q1264.2344,685.4688 1263.4844,685.4688 Q1262.75,685.4688 1262.3281,686 Q1261.9219,686.5313 1261.9219,687.4688 Q1261.9219,688.4219 1262.3281,688.9531 Q1262.75,689.4844 1263.4844,689.4844 Q1264.2344,689.4844 1264.6563,688.9531 Q1265.0781,688.4219 1265.0781,687.4688 Z M1266.625,690.875 L1265,690.875 L1265,690.2031 Q1264.6719,690.6406 1264.25,690.8438 Q1263.8281,691.0469 1263.2188,691.0469 Q1261.8594,691.0469 1261.0313,690.0781 Q1260.2031,689.0938 1260.2031,687.4688 Q1260.2031,685.875 1261.0313,684.9063 Q1261.8594,683.9219 1263.2188,683.9219 Q1263.8125,683.9219 1264.2656,684.125 Q1264.7188,684.3281 1265,684.7188 L1265,684.375 Q1265,683.25 1264.375,682.6406 Q1263.75,682.0156 1262.6094,682.0156 Q1260.8906,682.0156 1259.7969,683.5469 Q1258.7031,685.0625 1258.7031,687.5 Q1258.7031,690.0469 1259.9531,691.5469 Q1261.2188,693.0469 1263.3281,693.0469 Q1263.9844,693.0469 1264.6094,692.8594 Q1265.2344,692.6719 1265.8125,692.2813 L1266.5781,693.7344 Q1265.9063,694.1875 1265.1094,694.4063 Q1264.3125,694.6406 1263.4063,694.6406 Q1260.5,694.6406 1258.7656,692.7031 Q1257.0469,690.7813 1257.0469,687.5 Q1257.0469,684.2813 1258.5938,682.3594 Q1260.1563,680.4219 1262.7188,680.4219 Q1264.5156,680.4219 1265.5625,681.5156 Q1266.625,682.6094 1266.625,684.4844 L1266.625,690.875 Z "/><text fill="#000000" font-family="sans-serif" font-size="12" lengthAdjust="spacingAndGlyphs" textLength="66" x="1277" y="691.1543">Repository</text><line style="stroke: #A80036; stroke-width: 1.5;" x1="1249" x2="1345" y1="703" y2="703"/><line style="stroke: #A80036; stroke-width: 1.5;" x1="1249" x2="1345" y1="711" y2="711"/><!--MD5=[a604c581b06c0940447cc0f0f36eafb7]
class org.springframework.stereotype.Service--><rect codeLine="24" fill="#FEFECE" height="48" id="org.springframework.stereotype.Service" style="stroke: #A80036; stroke-width: 1.5;" width="77" x="1258.5" y="588"/><ellipse cx="1273.5" cy="604" fill="#E3664A" rx="11" ry="11" style="stroke: #A80036; stroke-width: 1.0;"/><path d="M1275.5781,604.4688 Q1275.5781,603.5313 1275.1563,603 Q1274.7344,602.4688 1273.9844,602.4688 Q1273.25,602.4688 1272.8281,603 Q1272.4219,603.5313 1272.4219,604.4688 Q1272.4219,605.4219 1272.8281,605.9531 Q1273.25,606.4844 1273.9844,606.4844 Q1274.7344,606.4844 1275.1563,605.9531 Q1275.5781,605.4219 1275.5781,604.4688 Z M1277.125,607.875 L1275.5,607.875 L1275.5,607.2031 Q1275.1719,607.6406 1274.75,607.8438 Q1274.3281,608.0469 1273.7188,608.0469 Q1272.3594,608.0469 1271.5313,607.0781 Q1270.7031,606.0938 1270.7031,604.4688 Q1270.7031,602.875 1271.5313,601.9063 Q1272.3594,600.9219 1273.7188,600.9219 Q1274.3125,600.9219 1274.7656,601.125 Q1275.2188,601.3281 1275.5,601.7188 L1275.5,601.375 Q1275.5,600.25 1274.875,599.6406 Q1274.25,599.0156 1273.1094,599.0156 Q1271.3906,599.0156 1270.2969,600.5469 Q1269.2031,602.0625 1269.2031,604.5 Q1269.2031,607.0469 1270.4531,608.5469 Q1271.7188,610.0469 1273.8281,610.0469 Q1274.4844,610.0469 1275.1094,609.8594 Q1275.7344,609.6719 1276.3125,609.2813 L1277.0781,610.7344 Q1276.4063,611.1875 1275.6094,611.4063 Q1274.8125,611.6406 1273.9063,611.6406 Q1271,611.6406 1269.2656,609.7031 Q1267.5469,607.7813 1267.5469,604.5 Q1267.5469,601.2813 1269.0938,599.3594 Q1270.6563,597.4219 1273.2188,597.4219 Q1275.0156,597.4219 1276.0625,598.5156 Q1277.125,599.6094 1277.125,601.4844 L1277.125,607.875 Z "/><text fill="#000000" font-family="sans-serif" font-size="12" lengthAdjust="spacingAndGlyphs" textLength="45" x="1287.5" y="608.1543">Service</text><line style="stroke: #A80036; stroke-width: 1.5;" x1="1259.5" x2="1334.5" y1="620" y2="620"/><line style="stroke: #A80036; stroke-width: 1.5;" x1="1259.5" x2="1334.5" y1="628" y2="628"/><!--MD5=[82ca470850b0363b22beef998d8a5450]
class org.springframework.web.bind.annotation.GetMapping--><rect codeLine="25" fill="#FEFECE" height="48" id="org.springframework.web.bind.annotation.GetMapping" style="stroke: #A80036; stroke-width: 1.5;" width="107" x="405.5" y="1489"/><ellipse cx="420.5" cy="1505" fill="#E3664A" rx="11" ry="11" style="stroke: #A80036; stroke-width: 1.0;"/><path d="M422.5781,1505.4688 Q422.5781,1504.5313 422.1563,1504 Q421.7344,1503.4688 420.9844,1503.4688 Q420.25,1503.4688 419.8281,1504 Q419.4219,1504.5313 419.4219,1505.4688 Q419.4219,1506.4219 419.8281,1506.9531 Q420.25,1507.4844 420.9844,1507.4844 Q421.7344,1507.4844 422.1563,1506.9531 Q422.5781,1506.4219 422.5781,1505.4688 Z M424.125,1508.875 L422.5,1508.875 L422.5,1508.2031 Q422.1719,1508.6406 421.75,1508.8438 Q421.3281,1509.0469 420.7188,1509.0469 Q419.3594,1509.0469 418.5313,1508.0781 Q417.7031,1507.0938 417.7031,1505.4688 Q417.7031,1503.875 418.5313,1502.9063 Q419.3594,1501.9219 420.7188,1501.9219 Q421.3125,1501.9219 421.7656,1502.125 Q422.2188,1502.3281 422.5,1502.7188 L422.5,1502.375 Q422.5,1501.25 421.875,1500.6406 Q421.25,1500.0156 420.1094,1500.0156 Q418.3906,1500.0156 417.2969,1501.5469 Q416.2031,1503.0625 416.2031,1505.5 Q416.2031,1508.0469 417.4531,1509.5469 Q418.7188,1511.0469 420.8281,1511.0469 Q421.4844,1511.0469 422.1094,1510.8594 Q422.7344,1510.6719 423.3125,1510.2813 L424.0781,1511.7344 Q423.4063,1512.1875 422.6094,1512.4063 Q421.8125,1512.6406 420.9063,1512.6406 Q418,1512.6406 416.2656,1510.7031 Q414.5469,1508.7813 414.5469,1505.5 Q414.5469,1502.2813 416.0938,1500.3594 Q417.6563,1498.4219 420.2188,1498.4219 Q422.0156,1498.4219 423.0625,1499.5156 Q424.125,1500.6094 424.125,1502.4844 L424.125,1508.875 Z "/><text fill="#000000" font-family="sans-serif" font-size="12" lengthAdjust="spacingAndGlyphs" textLength="75" x="434.5" y="1509.1543">GetMapping</text><line style="stroke: #A80036; stroke-width: 1.5;" x1="406.5" x2="511.5" y1="1521" y2="1521"/><line style="stroke: #A80036; stroke-width: 1.5;" x1="406.5" x2="511.5" y1="1529" y2="1529"/><!--MD5=[26242ad1f9c0879df904bfcb25b82ae1]
class org.springframework.web.bind.annotation.PathVariable--><rect codeLine="26" fill="#FEFECE" height="48" id="org.springframework.web.bind.annotation.PathVariable" style="stroke: #A80036; stroke-width: 1.5;" width="112" x="403" y="1572"/><ellipse cx="418" cy="1588" fill="#E3664A" rx="11" ry="11" style="stroke: #A80036; stroke-width: 1.0;"/><path d="M420.0781,1588.4688 Q420.0781,1587.5313 419.6563,1587 Q419.2344,1586.4688 418.4844,1586.4688 Q417.75,1586.4688 417.3281,1587 Q416.9219,1587.5313 416.9219,1588.4688 Q416.9219,1589.4219 417.3281,1589.9531 Q417.75,1590.4844 418.4844,1590.4844 Q419.2344,1590.4844 419.6563,1589.9531 Q420.0781,1589.4219 420.0781,1588.4688 Z M421.625,1591.875 L420,1591.875 L420,1591.2031 Q419.6719,1591.6406 419.25,1591.8438 Q418.8281,1592.0469 418.2188,1592.0469 Q416.8594,1592.0469 416.0313,1591.0781 Q415.2031,1590.0938 415.2031,1588.4688 Q415.2031,1586.875 416.0313,1585.9063 Q416.8594,1584.9219 418.2188,1584.9219 Q418.8125,1584.9219 419.2656,1585.125 Q419.7188,1585.3281 420,1585.7188 L420,1585.375 Q420,1584.25 419.375,1583.6406 Q418.75,1583.0156 417.6094,1583.0156 Q415.8906,1583.0156 414.7969,1584.5469 Q413.7031,1586.0625 413.7031,1588.5 Q413.7031,1591.0469 414.9531,1592.5469 Q416.2188,1594.0469 418.3281,1594.0469 Q418.9844,1594.0469 419.6094,1593.8594 Q420.2344,1593.6719 420.8125,1593.2813 L421.5781,1594.7344 Q420.9063,1595.1875 420.1094,1595.4063 Q419.3125,1595.6406 418.4063,1595.6406 Q415.5,1595.6406 413.7656,1593.7031 Q412.0469,1591.7813 412.0469,1588.5 Q412.0469,1585.2813 413.5938,1583.3594 Q415.1563,1581.4219 417.7188,1581.4219 Q419.5156,1581.4219 420.5625,1582.5156 Q421.625,1583.6094 421.625,1585.4844 L421.625,1591.875 Z "/><text fill="#000000" font-family="sans-serif" font-size="12" lengthAdjust="spacingAndGlyphs" textLength="80" x="432" y="1592.1543">PathVariable</text><line style="stroke: #A80036; stroke-width: 1.5;" x1="404" x2="514" y1="1604" y2="1604"/><line style="stroke: #A80036; stroke-width: 1.5;" x1="404" x2="514" y1="1612" y2="1612"/><!--MD5=[026ce3ce780930040f72eb0919bbbeda]
class org.springframework.web.bind.annotation.PostMapping--><rect codeLine="27" fill="#FEFECE" height="48" id="org.springframework.web.bind.annotation.PostMapping" style="stroke: #A80036; stroke-width: 1.5;" width="113" x="402.5" y="1655"/><ellipse cx="417.5" cy="1671" fill="#E3664A" rx="11" ry="11" style="stroke: #A80036; stroke-width: 1.0;"/><path d="M419.5781,1671.4688 Q419.5781,1670.5313 419.1563,1670 Q418.7344,1669.4688 417.9844,1669.4688 Q417.25,1669.4688 416.8281,1670 Q416.4219,1670.5313 416.4219,1671.4688 Q416.4219,1672.4219 416.8281,1672.9531 Q417.25,1673.4844 417.9844,1673.4844 Q418.7344,1673.4844 419.1563,1672.9531 Q419.5781,1672.4219 419.5781,1671.4688 Z M421.125,1674.875 L419.5,1674.875 L419.5,1674.2031 Q419.1719,1674.6406 418.75,1674.8438 Q418.3281,1675.0469 417.7188,1675.0469 Q416.3594,1675.0469 415.5313,1674.0781 Q414.7031,1673.0938 414.7031,1671.4688 Q414.7031,1669.875 415.5313,1668.9063 Q416.3594,1667.9219 417.7188,1667.9219 Q418.3125,1667.9219 418.7656,1668.125 Q419.2188,1668.3281 419.5,1668.7188 L419.5,1668.375 Q419.5,1667.25 418.875,1666.6406 Q418.25,1666.0156 417.1094,1666.0156 Q415.3906,1666.0156 414.2969,1667.5469 Q413.2031,1669.0625 413.2031,1671.5 Q413.2031,1674.0469 414.4531,1675.5469 Q415.7188,1677.0469 417.8281,1677.0469 Q418.4844,1677.0469 419.1094,1676.8594 Q419.7344,1676.6719 420.3125,1676.2813 L421.0781,1677.7344 Q420.4063,1678.1875 419.6094,1678.4063 Q418.8125,1678.6406 417.9063,1678.6406 Q415,1678.6406 413.2656,1676.7031 Q411.5469,1674.7813 411.5469,1671.5 Q411.5469,1668.2813 413.0938,1666.3594 Q414.6563,1664.4219 417.2188,1664.4219 Q419.0156,1664.4219 420.0625,1665.5156 Q421.125,1666.6094 421.125,1668.4844 L421.125,1674.875 Z "/><text fill="#000000" font-family="sans-serif" font-size="12" lengthAdjust="spacingAndGlyphs" textLength="81" x="431.5" y="1675.1543">PostMapping</text><line style="stroke: #A80036; stroke-width: 1.5;" x1="403.5" x2="514.5" y1="1687" y2="1687"/><line style="stroke: #A80036; stroke-width: 1.5;" x1="403.5" x2="514.5" y1="1695" y2="1695"/><!--MD5=[5bba63f870a1849c45e2af4336616e7f]
class org.springframework.web.bind.annotation.PutMapping--><rect codeLine="28" fill="#FEFECE" height="48" id="org.springframework.web.bind.annotation.PutMapping" style="stroke: #A80036; stroke-width: 1.5;" width="106" x="406" y="1738"/><ellipse cx="421" cy="1754" fill="#E3664A" rx="11" ry="11" style="stroke: #A80036; stroke-width: 1.0;"/><path d="M423.0781,1754.4688 Q423.0781,1753.5313 422.6563,1753 Q422.2344,1752.4688 421.4844,1752.4688 Q420.75,1752.4688 420.3281,1753 Q419.9219,1753.5313 419.9219,1754.4688 Q419.9219,1755.4219 420.3281,1755.9531 Q420.75,1756.4844 421.4844,1756.4844 Q422.2344,1756.4844 422.6563,1755.9531 Q423.0781,1755.4219 423.0781,1754.4688 Z M424.625,1757.875 L423,1757.875 L423,1757.2031 Q422.6719,1757.6406 422.25,1757.8438 Q421.8281,1758.0469 421.2188,1758.0469 Q419.8594,1758.0469 419.0313,1757.0781 Q418.2031,1756.0938 418.2031,1754.4688 Q418.2031,1752.875 419.0313,1751.9063 Q419.8594,1750.9219 421.2188,1750.9219 Q421.8125,1750.9219 422.2656,1751.125 Q422.7188,1751.3281 423,1751.7188 L423,1751.375 Q423,1750.25 422.375,1749.6406 Q421.75,1749.0156 420.6094,1749.0156 Q418.8906,1749.0156 417.7969,1750.5469 Q416.7031,1752.0625 416.7031,1754.5 Q416.7031,1757.0469 417.9531,1758.5469 Q419.2188,1760.0469 421.3281,1760.0469 Q421.9844,1760.0469 422.6094,1759.8594 Q423.2344,1759.6719 423.8125,1759.2813 L424.5781,1760.7344 Q423.9063,1761.1875 423.1094,1761.4063 Q422.3125,1761.6406 421.4063,1761.6406 Q418.5,1761.6406 416.7656,1759.7031 Q415.0469,1757.7813 415.0469,1754.5 Q415.0469,1751.2813 416.5938,1749.3594 Q418.1563,1747.4219 420.7188,1747.4219 Q422.5156,1747.4219 423.5625,1748.5156 Q424.625,1749.6094 424.625,1751.4844 L424.625,1757.875 Z "/><text fill="#000000" font-family="sans-serif" font-size="12" lengthAdjust="spacingAndGlyphs" textLength="74" x="435" y="1758.1543">PutMapping</text><line style="stroke: #A80036; stroke-width: 1.5;" x1="407" x2="511" y1="1770" y2="1770"/><line style="stroke: #A80036; stroke-width: 1.5;" x1="407" x2="511" y1="1778" y2="1778"/><!--MD5=[ae36cda7092e9dcd399287546c68f7ee]
class org.springframework.web.bind.annotation.RequestBody--><rect codeLine="29" fill="#FEFECE" height="48" id="org.springframework.web.bind.annotation.RequestBody" style="stroke: #A80036; stroke-width: 1.5;" width="114" x="402" y="1821"/><ellipse cx="417" cy="1837" fill="#E3664A" rx="11" ry="11" style="stroke: #A80036; stroke-width: 1.0;"/><path d="M419.0781,1837.4688 Q419.0781,1836.5313 418.6563,1836 Q418.2344,1835.4688 417.4844,1835.4688 Q416.75,1835.4688 416.3281,1836 Q415.9219,1836.5313 415.9219,1837.4688 Q415.9219,1838.4219 416.3281,1838.9531 Q416.75,1839.4844 417.4844,1839.4844 Q418.2344,1839.4844 418.6563,1838.9531 Q419.0781,1838.4219 419.0781,1837.4688 Z M420.625,1840.875 L419,1840.875 L419,1840.2031 Q418.6719,1840.6406 418.25,1840.8438 Q417.8281,1841.0469 417.2188,1841.0469 Q415.8594,1841.0469 415.0313,1840.0781 Q414.2031,1839.0938 414.2031,1837.4688 Q414.2031,1835.875 415.0313,1834.9063 Q415.8594,1833.9219 417.2188,1833.9219 Q417.8125,1833.9219 418.2656,1834.125 Q418.7188,1834.3281 419,1834.7188 L419,1834.375 Q419,1833.25 418.375,1832.6406 Q417.75,1832.0156 416.6094,1832.0156 Q414.8906,1832.0156 413.7969,1833.5469 Q412.7031,1835.0625 412.7031,1837.5 Q412.7031,1840.0469 413.9531,1841.5469 Q415.2188,1843.0469 417.3281,1843.0469 Q417.9844,1843.0469 418.6094,1842.8594 Q419.2344,1842.6719 419.8125,1842.2813 L420.5781,1843.7344 Q419.9063,1844.1875 419.1094,1844.4063 Q418.3125,1844.6406 417.4063,1844.6406 Q414.5,1844.6406 412.7656,1842.7031 Q411.0469,1840.7813 411.0469,1837.5 Q411.0469,1834.2813 412.5938,1832.3594 Q414.1563,1830.4219 416.7188,1830.4219 Q418.5156,1830.4219 419.5625,1831.5156 Q420.625,1832.6094 420.625,1834.4844 L420.625,1840.875 Z "/><text fill="#000000" font-family="sans-serif" font-size="12" lengthAdjust="spacingAndGlyphs" textLength="82" x="431" y="1841.1543">RequestBody</text><line style="stroke: #A80036; stroke-width: 1.5;" x1="403" x2="515" y1="1853" y2="1853"/><line style="stroke: #A80036; stroke-width: 1.5;" x1="403" x2="515" y1="1861" y2="1861"/><!--MD5=[23590a71fec6fcf4644bdff8934719c6]
class org.springframework.web.bind.annotation.RequestParam--><rect codeLine="30" fill="#FEFECE" height="48" id="org.springframework.web.bind.annotation.RequestParam" style="stroke: #A80036; stroke-width: 1.5;" width="124" x="397" y="1323"/><ellipse cx="412" cy="1339" fill="#E3664A" rx="11" ry="11" style="stroke: #A80036; stroke-width: 1.0;"/><path d="M414.0781,1339.4688 Q414.0781,1338.5313 413.6563,1338 Q413.2344,1337.4688 412.4844,1337.4688 Q411.75,1337.4688 411.3281,1338 Q410.9219,1338.5313 410.9219,1339.4688 Q410.9219,1340.4219 411.3281,1340.9531 Q411.75,1341.4844 412.4844,1341.4844 Q413.2344,1341.4844 413.6563,1340.9531 Q414.0781,1340.4219 414.0781,1339.4688 Z M415.625,1342.875 L414,1342.875 L414,1342.2031 Q413.6719,1342.6406 413.25,1342.8438 Q412.8281,1343.0469 412.2188,1343.0469 Q410.8594,1343.0469 410.0313,1342.0781 Q409.2031,1341.0938 409.2031,1339.4688 Q409.2031,1337.875 410.0313,1336.9063 Q410.8594,1335.9219 412.2188,1335.9219 Q412.8125,1335.9219 413.2656,1336.125 Q413.7188,1336.3281 414,1336.7188 L414,1336.375 Q414,1335.25 413.375,1334.6406 Q412.75,1334.0156 411.6094,1334.0156 Q409.8906,1334.0156 408.7969,1335.5469 Q407.7031,1337.0625 407.7031,1339.5 Q407.7031,1342.0469 408.9531,1343.5469 Q410.2188,1345.0469 412.3281,1345.0469 Q412.9844,1345.0469 413.6094,1344.8594 Q414.2344,1344.6719 414.8125,1344.2813 L415.5781,1345.7344 Q414.9063,1346.1875 414.1094,1346.4063 Q413.3125,1346.6406 412.4063,1346.6406 Q409.5,1346.6406 407.7656,1344.7031 Q406.0469,1342.7813 406.0469,1339.5 Q406.0469,1336.2813 407.5938,1334.3594 Q409.1563,1332.4219 411.7188,1332.4219 Q413.5156,1332.4219 414.5625,1333.5156 Q415.625,1334.6094 415.625,1336.4844 L415.625,1342.875 Z "/><text fill="#000000" font-family="sans-serif" font-size="12" lengthAdjust="spacingAndGlyphs" textLength="92" x="426" y="1343.1543">RequestParam</text><line style="stroke: #A80036; stroke-width: 1.5;" x1="398" x2="520" y1="1355" y2="1355"/><line style="stroke: #A80036; stroke-width: 1.5;" x1="398" x2="520" y1="1363" y2="1363"/><!--MD5=[6fc97cf5924decc2c12a75ce81cc7e68]
class org.springframework.web.bind.annotation.RestController--><rect codeLine="31" fill="#FEFECE" height="48" id="org.springframework.web.bind.annotation.RestController" style="stroke: #A80036; stroke-width: 1.5;" width="121" x="398.5" y="1406"/><ellipse cx="413.5" cy="1422" fill="#E3664A" rx="11" ry="11" style="stroke: #A80036; stroke-width: 1.0;"/><path d="M415.5781,1422.4688 Q415.5781,1421.5313 415.1563,1421 Q414.7344,1420.4688 413.9844,1420.4688 Q413.25,1420.4688 412.8281,1421 Q412.4219,1421.5313 412.4219,1422.4688 Q412.4219,1423.4219 412.8281,1423.9531 Q413.25,1424.4844 413.9844,1424.4844 Q414.7344,1424.4844 415.1563,1423.9531 Q415.5781,1423.4219 415.5781,1422.4688 Z M417.125,1425.875 L415.5,1425.875 L415.5,1425.2031 Q415.1719,1425.6406 414.75,1425.8438 Q414.3281,1426.0469 413.7188,1426.0469 Q412.3594,1426.0469 411.5313,1425.0781 Q410.7031,1424.0938 410.7031,1422.4688 Q410.7031,1420.875 411.5313,1419.9063 Q412.3594,1418.9219 413.7188,1418.9219 Q414.3125,1418.9219 414.7656,1419.125 Q415.2188,1419.3281 415.5,1419.7188 L415.5,1419.375 Q415.5,1418.25 414.875,1417.6406 Q414.25,1417.0156 413.1094,1417.0156 Q411.3906,1417.0156 410.2969,1418.5469 Q409.2031,1420.0625 409.2031,1422.5 Q409.2031,1425.0469 410.4531,1426.5469 Q411.7188,1428.0469 413.8281,1428.0469 Q414.4844,1428.0469 415.1094,1427.8594 Q415.7344,1427.6719 416.3125,1427.2813 L417.0781,1428.7344 Q416.4063,1429.1875 415.6094,1429.4063 Q414.8125,1429.6406 413.9063,1429.6406 Q411,1429.6406 409.2656,1427.7031 Q407.5469,1425.7813 407.5469,1422.5 Q407.5469,1419.2813 409.0938,1417.3594 Q410.6563,1415.4219 413.2188,1415.4219 Q415.0156,1415.4219 416.0625,1416.5156 Q417.125,1417.6094 417.125,1419.4844 L417.125,1425.875 Z "/><text fill="#000000" font-family="sans-serif" font-size="12" lengthAdjust="spacingAndGlyphs" textLength="89" x="427.5" y="1426.1543">RestController</text><line style="stroke: #A80036; stroke-width: 1.5;" x1="399.5" x2="518.5" y1="1438" y2="1438"/><line style="stroke: #A80036; stroke-width: 1.5;" x1="399.5" x2="518.5" y1="1446" y2="1446"/><!--MD5=[62584c6882f208e6c66fe3846e6682f0]
class com.example.demo3.DemoApplication--><rect codeLine="33" fill="#FEFECE" height="48" id="com.example.demo3.DemoApplication" style="stroke: #A80036; stroke-width: 1.5;" width="137" x="67" y="184"/><ellipse cx="82" cy="200" fill="#ADD1B2" rx="11" ry="11" style="stroke: #A80036; stroke-width: 1.0;"/><path d="M84.9688,205.6406 Q84.3906,205.9375 83.75,206.0781 Q83.1094,206.2344 82.4063,206.2344 Q79.9063,206.2344 78.5781,204.5938 Q77.2656,202.9375 77.2656,199.8125 Q77.2656,196.6875 78.5781,195.0313 Q79.9063,193.375 82.4063,193.375 Q83.1094,193.375 83.75,193.5313 Q84.4063,193.6875 84.9688,193.9844 L84.9688,196.7031 Q84.3438,196.125 83.75,195.8594 Q83.1563,195.5781 82.5313,195.5781 Q81.1875,195.5781 80.5,196.6563 Q79.8125,197.7188 79.8125,199.8125 Q79.8125,201.9063 80.5,202.9844 Q81.1875,204.0469 82.5313,204.0469 Q83.1563,204.0469 83.75,203.7813 Q84.3438,203.5 84.9688,202.9219 L84.9688,205.6406 Z "/><text fill="#000000" font-family="sans-serif" font-size="12" lengthAdjust="spacingAndGlyphs" textLength="105" x="96" y="204.1543">DemoApplication</text><line style="stroke: #A80036; stroke-width: 1.5;" x1="68" x2="203" y1="216" y2="216"/><line style="stroke: #A80036; stroke-width: 1.5;" x1="68" x2="203" y1="224" y2="224"/><!--MD5=[db291d29d0047075597250ea348d7af2]
class com.example.demo3.DemoApplicationTests--><rect codeLine="34" fill="#FEFECE" height="48" id="com.example.demo3.DemoApplicationTests" style="stroke: #A80036; stroke-width: 1.5;" width="171" x="50" y="267"/><ellipse cx="65" cy="283" fill="#ADD1B2" rx="11" ry="11" style="stroke: #A80036; stroke-width: 1.0;"/><path d="M67.9688,288.6406 Q67.3906,288.9375 66.75,289.0781 Q66.1094,289.2344 65.4063,289.2344 Q62.9063,289.2344 61.5781,287.5938 Q60.2656,285.9375 60.2656,282.8125 Q60.2656,279.6875 61.5781,278.0313 Q62.9063,276.375 65.4063,276.375 Q66.1094,276.375 66.75,276.5313 Q67.4063,276.6875 67.9688,276.9844 L67.9688,279.7031 Q67.3438,279.125 66.75,278.8594 Q66.1563,278.5781 65.5313,278.5781 Q64.1875,278.5781 63.5,279.6563 Q62.8125,280.7188 62.8125,282.8125 Q62.8125,284.9063 63.5,285.9844 Q64.1875,287.0469 65.5313,287.0469 Q66.1563,287.0469 66.75,286.7813 Q67.3438,286.5 67.9688,285.9219 L67.9688,288.6406 Z "/><text fill="#000000" font-family="sans-serif" font-size="12" lengthAdjust="spacingAndGlyphs" textLength="139" x="79" y="287.1543">DemoApplicationTests</text><line style="stroke: #A80036; stroke-width: 1.5;" x1="51" x2="220" y1="299" y2="299"/><line style="stroke: #A80036; stroke-width: 1.5;" x1="51" x2="220" y1="307" y2="307"/><!--MD5=[3251c3390adf628c6e9d2777e6793572]
class com.example.demo3.control.EmployeeController--><rect codeLine="35" fill="#FEFECE" height="48" id="com.example.demo3.control.EmployeeController" style="stroke: #A80036; stroke-width: 1.5;" width="153" x="59" y="1406"/><ellipse cx="74" cy="1422" fill="#ADD1B2" rx="11" ry="11" style="stroke: #A80036; stroke-width: 1.0;"/><path d="M76.9688,1427.6406 Q76.3906,1427.9375 75.75,1428.0781 Q75.1094,1428.2344 74.4063,1428.2344 Q71.9063,1428.2344 70.5781,1426.5938 Q69.2656,1424.9375 69.2656,1421.8125 Q69.2656,1418.6875 70.5781,1417.0313 Q71.9063,1415.375 74.4063,1415.375 Q75.1094,1415.375 75.75,1415.5313 Q76.4063,1415.6875 76.9688,1415.9844 L76.9688,1418.7031 Q76.3438,1418.125 75.75,1417.8594 Q75.1563,1417.5781 74.5313,1417.5781 Q73.1875,1417.5781 72.5,1418.6563 Q71.8125,1419.7188 71.8125,1421.8125 Q71.8125,1423.9063 72.5,1424.9844 Q73.1875,1426.0469 74.5313,1426.0469 Q75.1563,1426.0469 75.75,1425.7813 Q76.3438,1425.5 76.9688,1424.9219 L76.9688,1427.6406 Z "/><text fill="#000000" font-family="sans-serif" font-size="12" lengthAdjust="spacingAndGlyphs" textLength="121" x="88" y="1426.1543">EmployeeController</text><line style="stroke: #A80036; stroke-width: 1.5;" x1="60" x2="211" y1="1438" y2="1438"/><line style="stroke: #A80036; stroke-width: 1.5;" x1="60" x2="211" y1="1446" y2="1446"/><!--MD5=[4649c4180253105c74043a88615db313]
class com.example.demo3.model.Employee--><rect codeLine="36" fill="#FEFECE" height="48" id="com.example.demo3.model.Employee" style="stroke: #A80036; stroke-width: 1.5;" width="92" x="1251" y="465"/><ellipse cx="1266" cy="481" fill="#ADD1B2" rx="11" ry="11" style="stroke: #A80036; stroke-width: 1.0;"/><path d="M1268.9688,486.6406 Q1268.3906,486.9375 1267.75,487.0781 Q1267.1094,487.2344 1266.4063,487.2344 Q1263.9063,487.2344 1262.5781,485.5938 Q1261.2656,483.9375 1261.2656,480.8125 Q1261.2656,477.6875 1262.5781,476.0313 Q1263.9063,474.375 1266.4063,474.375 Q1267.1094,474.375 1267.75,474.5313 Q1268.4063,474.6875 1268.9688,474.9844 L1268.9688,477.7031 Q1268.3438,477.125 1267.75,476.8594 Q1267.1563,476.5781 1266.5313,476.5781 Q1265.1875,476.5781 1264.5,477.6563 Q1263.8125,478.7188 1263.8125,480.8125 Q1263.8125,482.9063 1264.5,483.9844 Q1265.1875,485.0469 1266.5313,485.0469 Q1267.1563,485.0469 1267.75,484.7813 Q1268.3438,484.5 1268.9688,483.9219 L1268.9688,486.6406 Z "/><text fill="#000000" font-family="sans-serif" font-size="12" lengthAdjust="spacingAndGlyphs" textLength="60" x="1280" y="485.1543">Employee</text><line style="stroke: #A80036; stroke-width: 1.5;" x1="1252" x2="1342" y1="497" y2="497"/><line style="stroke: #A80036; stroke-width: 1.5;" x1="1252" x2="1342" y1="505" y2="505"/><!--MD5=[3fb186bc970d3c8d5fe2f9e24e5193b9]
class com.example.demo3.services.EmployeeService--><rect codeLine="37" fill="#FEFECE" height="48" id="com.example.demo3.services.EmployeeService" style="stroke: #A80036; stroke-width: 1.5;" width="137" x="390.5" y="968"/><ellipse cx="405.5" cy="984" fill="#ADD1B2" rx="11" ry="11" style="stroke: #A80036; stroke-width: 1.0;"/><path d="M408.4688,989.6406 Q407.8906,989.9375 407.25,990.0781 Q406.6094,990.2344 405.9063,990.2344 Q403.4063,990.2344 402.0781,988.5938 Q400.7656,986.9375 400.7656,983.8125 Q400.7656,980.6875 402.0781,979.0313 Q403.4063,977.375 405.9063,977.375 Q406.6094,977.375 407.25,977.5313 Q407.9063,977.6875 408.4688,977.9844 L408.4688,980.7031 Q407.8438,980.125 407.25,979.8594 Q406.6563,979.5781 406.0313,979.5781 Q404.6875,979.5781 404,980.6563 Q403.3125,981.7188 403.3125,983.8125 Q403.3125,985.9063 404,986.9844 Q404.6875,988.0469 406.0313,988.0469 Q406.6563,988.0469 407.25,987.7813 Q407.8438,987.5 408.4688,986.9219 L408.4688,989.6406 Z "/><text fill="#000000" font-family="sans-serif" font-size="12" lengthAdjust="spacingAndGlyphs" textLength="105" x="419.5" y="988.1543">EmployeeService</text><line style="stroke: #A80036; stroke-width: 1.5;" x1="391.5" x2="526.5" y1="1000" y2="1000"/><line style="stroke: #A80036; stroke-width: 1.5;" x1="391.5" x2="526.5" y1="1008" y2="1008"/><!--MD5=[6b7a9fc05e2cf62df8c1411c2048df3f]
class java.util.List--><rect codeLine="38" fill="#FEFECE" height="48" id="java.util.List" style="stroke: #A80036; stroke-width: 1.5;" width="53" x="1270.5" y="1253"/><ellipse cx="1285.5" cy="1269" fill="#ADD1B2" rx="11" ry="11" style="stroke: #A80036; stroke-width: 1.0;"/><path d="M1288.4688,1274.6406 Q1287.8906,1274.9375 1287.25,1275.0781 Q1286.6094,1275.2344 1285.9063,1275.2344 Q1283.4063,1275.2344 1282.0781,1273.5938 Q1280.7656,1271.9375 1280.7656,1268.8125 Q1280.7656,1265.6875 1282.0781,1264.0313 Q1283.4063,1262.375 1285.9063,1262.375 Q1286.6094,1262.375 1287.25,1262.5313 Q1287.9063,1262.6875 1288.4688,1262.9844 L1288.4688,1265.7031 Q1287.8438,1265.125 1287.25,1264.8594 Q1286.6563,1264.5781 1286.0313,1264.5781 Q1284.6875,1264.5781 1284,1265.6563 Q1283.3125,1266.7188 1283.3125,1268.8125 Q1283.3125,1270.9063 1284,1271.9844 Q1284.6875,1273.0469 1286.0313,1273.0469 Q1286.6563,1273.0469 1287.25,1272.7813 Q1287.8438,1272.5 1288.4688,1271.9219 L1288.4688,1274.6406 Z "/><text fill="#000000" font-family="sans-serif" font-size="12" lengthAdjust="spacingAndGlyphs" textLength="21" x="1299.5" y="1273.1543">List</text><line style="stroke: #A80036; stroke-width: 1.5;" x1="1271.5" x2="1322.5" y1="1285" y2="1285"/><line style="stroke: #A80036; stroke-width: 1.5;" x1="1271.5" x2="1322.5" y1="1293" y2="1293"/><!--MD5=[3e5da536a98d1ce88349162a207d5656]
class java.util.Properties--><rect codeLine="39" fill="#FEFECE" height="48" id="java.util.Properties" style="stroke: #A80036; stroke-width: 1.5;" width="97" x="1248.5" y="1170"/><ellipse cx="1263.5" cy="1186" fill="#ADD1B2" rx="11" ry="11" style="stroke: #A80036; stroke-width: 1.0;"/><path d="M1266.4688,1191.6406 Q1265.8906,1191.9375 1265.25,1192.0781 Q1264.6094,1192.2344 1263.9063,1192.2344 Q1261.4063,1192.2344 1260.0781,1190.5938 Q1258.7656,1188.9375 1258.7656,1185.8125 Q1258.7656,1182.6875 1260.0781,1181.0313 Q1261.4063,1179.375 1263.9063,1179.375 Q1264.6094,1179.375 1265.25,1179.5313 Q1265.9063,1179.6875 1266.4688,1179.9844 L1266.4688,1182.7031 Q1265.8438,1182.125 1265.25,1181.8594 Q1264.6563,1181.5781 1264.0313,1181.5781 Q1262.6875,1181.5781 1262,1182.6563 Q1261.3125,1183.7188 1261.3125,1185.8125 Q1261.3125,1187.9063 1262,1188.9844 Q1262.6875,1190.0469 1264.0313,1190.0469 Q1264.6563,1190.0469 1265.25,1189.7813 Q1265.8438,1189.5 1266.4688,1188.9219 L1266.4688,1191.6406 Z "/><text fill="#000000" font-family="sans-serif" font-size="12" lengthAdjust="spacingAndGlyphs" textLength="65" x="1277.5" y="1190.1543">Properties</text><line style="stroke: #A80036; stroke-width: 1.5;" x1="1249.5" x2="1344.5" y1="1202" y2="1202"/><line style="stroke: #A80036; stroke-width: 1.5;" x1="1249.5" x2="1344.5" y1="1210" y2="1210"/><!--MD5=[7bed2f1eef7fd6c9ddee7368191d9b9a]
class org.springframework.boot.SpringApplication--><rect codeLine="41" fill="#FEFECE" height="48" id="org.springframework.boot.SpringApplication" style="stroke: #A80036; stroke-width: 1.5;" width="141" x="388.5" y="164"/><ellipse cx="403.5" cy="180" fill="#ADD1B2" rx="11" ry="11" style="stroke: #A80036; stroke-width: 1.0;"/><path d="M406.4688,185.6406 Q405.8906,185.9375 405.25,186.0781 Q404.6094,186.2344 403.9063,186.2344 Q401.4063,186.2344 400.0781,184.5938 Q398.7656,182.9375 398.7656,179.8125 Q398.7656,176.6875 400.0781,175.0313 Q401.4063,173.375 403.9063,173.375 Q404.6094,173.375 405.25,173.5313 Q405.9063,173.6875 406.4688,173.9844 L406.4688,176.7031 Q405.8438,176.125 405.25,175.8594 Q404.6563,175.5781 404.0313,175.5781 Q402.6875,175.5781 402,176.6563 Q401.3125,177.7188 401.3125,179.8125 Q401.3125,181.9063 402,182.9844 Q402.6875,184.0469 404.0313,184.0469 Q404.6563,184.0469 405.25,183.7813 Q405.8438,183.5 406.4688,182.9219 L406.4688,185.6406 Z "/><text fill="#000000" font-family="sans-serif" font-size="12" lengthAdjust="spacingAndGlyphs" textLength="109" x="417.5" y="184.1543">SpringApplication</text><line style="stroke: #A80036; stroke-width: 1.5;" x1="389.5" x2="528.5" y1="196" y2="196"/><line style="stroke: #A80036; stroke-width: 1.5;" x1="389.5" x2="528.5" y1="204" y2="204"/><!--MD5=[379a24197aff23dfd3655a333f11f2c1]
class com.example.demo3.Repository.EmployeeRepository--><rect codeLine="42" fill="#FEFECE" height="48" id="com.example.demo3.Repository.EmployeeRepository" style="stroke: #A80036; stroke-width: 1.5;" width="159" x="796" y="877"/><ellipse cx="811" cy="893" fill="#B4A7E5" rx="11" ry="11" style="stroke: #A80036; stroke-width: 1.0;"/><path d="M806.9219,888.7656 L806.9219,886.6094 L814.3125,886.6094 L814.3125,888.7656 L811.8438,888.7656 L811.8438,896.8438 L814.3125,896.8438 L814.3125,899 L806.9219,899 L806.9219,896.8438 L809.3906,896.8438 L809.3906,888.7656 L806.9219,888.7656 Z "/><text fill="#000000" font-family="sans-serif" font-size="12" font-style="italic" lengthAdjust="spacingAndGlyphs" textLength="127" x="825" y="897.1543">EmployeeRepository</text><line style="stroke: #A80036; stroke-width: 1.5;" x1="797" x2="954" y1="909" y2="909"/><line style="stroke: #A80036; stroke-width: 1.5;" x1="797" x2="954" y1="917" y2="917"/><!--MD5=[5ed18e97a26641bd100729b357c5bccf]
class MavenWrapperDownloader--><rect codeLine="32" fill="#FEFECE" height="48" id="MavenWrapperDownloader" style="stroke: #A80036; stroke-width: 1.5;" width="199" x="776" y="983"/><ellipse cx="791" cy="999" fill="#ADD1B2" rx="11" ry="11" style="stroke: #A80036; stroke-width: 1.0;"/><path d="M793.9688,1004.6406 Q793.3906,1004.9375 792.75,1005.0781 Q792.1094,1005.2344 791.4063,1005.2344 Q788.9063,1005.2344 787.5781,1003.5938 Q786.2656,1001.9375 786.2656,998.8125 Q786.2656,995.6875 787.5781,994.0313 Q788.9063,992.375 791.4063,992.375 Q792.1094,992.375 792.75,992.5313 Q793.4063,992.6875 793.9688,992.9844 L793.9688,995.7031 Q793.3438,995.125 792.75,994.8594 Q792.1563,994.5781 791.5313,994.5781 Q790.1875,994.5781 789.5,995.6563 Q788.8125,996.7188 788.8125,998.8125 Q788.8125,1000.9063 789.5,1001.9844 Q790.1875,1003.0469 791.5313,1003.0469 Q792.1563,1003.0469 792.75,1002.7813 Q793.3438,1002.5 793.9688,1001.9219 L793.9688,1004.6406 Z "/><text fill="#000000" font-family="sans-serif" font-size="12" lengthAdjust="spacingAndGlyphs" textLength="167" x="805" y="1003.1543">MavenWrapperDownloader</text><line style="stroke: #A80036; stroke-width: 1.5;" x1="777" x2="974" y1="1015" y2="1015"/><line style="stroke: #A80036; stroke-width: 1.5;" x1="777" x2="974" y1="1023" y2="1023"/><!--MD5=[bfd5c77bb9fd2880e7618492153fc219]
link MavenWrapperDownloader to java.lang.Override--><!--MD5=[fffe4e2842e7a50bb916f58aaa2eaac0]
link MavenWrapperDownloader to java.util.Properties--><path codeLine="45" d="M971.11,1031.01 C1023.25,1044.23 1077.5,1058 1077.5,1058 C1077.5,1058 1109,1127 1109,1127 C1109,1127 1188.08,1155.33 1243.39,1175.15 " fill="none" id="MavenWrapperDownloader-to-java.util.Properties" style="stroke: #A80036; stroke-width: 1.0; stroke-dasharray: 7.0,7.0;"/><polygon fill="#A80036" points="1248.33,1176.92,1241.2088,1170.1164,1243.6236,1175.232,1238.508,1177.6467,1248.33,1176.92" style="stroke: #A80036; stroke-width: 1.0;"/><!--MD5=[bcc95d484ae2db8c02e259cf95a99ef2]
link com.example.demo3.DemoApplication to org.springframework.boot.autoconfigure.SpringBootApplication--><path codeLine="46" d="M190.67,183.9 C248.49,158.19 339.79,117.58 399.29,91.11 " fill="none" id="com.example.demo3.DemoApplication-to-org.springframework.boot.autoconfigure.SpringBootApplication" style="stroke: #A80036; stroke-width: 1.0; stroke-dasharray: 7.0,7.0;"/><polygon fill="#A80036" points="403.87,89.08,394.0211,89.0743,399.2998,91.108,397.266,96.3867,403.87,89.08" style="stroke: #A80036; stroke-width: 1.0;"/><!--MD5=[df3ee0f5ec5204716d7488264541465c]
link com.example.demo3.DemoApplication to org.springframework.boot.SpringApplication--><path codeLine="47" d="M204.29,203.78 C256.67,200.52 329.12,196.02 383.19,192.65 " fill="none" id="com.example.demo3.DemoApplication-to-org.springframework.boot.SpringApplication" style="stroke: #A80036; stroke-width: 1.0; stroke-dasharray: 7.0,7.0;"/><polygon fill="#A80036" points="388.36,192.33,379.1262,188.9041,383.3699,192.6446,379.6295,196.8883,388.36,192.33" style="stroke: #A80036; stroke-width: 1.0;"/><!--MD5=[0e4a45c2548fb7fddd8ad896df69f0db]
link com.example.demo3.DemoApplicationTests to org.junit.jupiter.api.Test--><path codeLine="48" d="M221.39,296.28 C287.8,300.41 376.63,305.94 424.33,308.91 " fill="none" id="com.example.demo3.DemoApplicationTests-to-org.junit.jupiter.api.Test" style="stroke: #A80036; stroke-width: 1.0; stroke-dasharray: 7.0,7.0;"/><polygon fill="#A80036" points="429.38,309.22,420.6487,304.6633,424.3898,308.9063,420.1468,312.6475,429.38,309.22" style="stroke: #A80036; stroke-width: 1.0;"/><!--MD5=[28480d818075f350439467947f02f92d]
link com.example.demo3.DemoApplicationTests to org.springframework.boot.test.context.SpringBootTest--><path codeLine="49" d="M190.67,315.1 C248.49,340.81 339.79,381.42 399.29,407.89 " fill="none" id="com.example.demo3.DemoApplicationTests-to-org.springframework.boot.test.context.SpringBootTest" style="stroke: #A80036; stroke-width: 1.0; stroke-dasharray: 7.0,7.0;"/><polygon fill="#A80036" points="403.87,409.92,397.266,402.6133,399.2998,407.892,394.0211,409.9257,403.87,409.92" style="stroke: #A80036; stroke-width: 1.0;"/><!--MD5=[17257f3ff0f0562a93b738b9cd37ca14]
link com.example.demo3.control.EmployeeController to org.springframework.beans.factory.annotation.Autowired--><path codeLine="50" d="M153.33,1405.63 C190.43,1351.91 276,1228 276,1228 C276,1228 677.83,1193.76 822.98,1181.39 " fill="none" id="com.example.demo3.control.EmployeeController-to-org.springframework.beans.factory.annotation.Autowired" style="stroke: #A80036; stroke-width: 1.0; stroke-dasharray: 7.0,7.0;"/><polygon fill="#A80036" points="828.03,1180.96,818.7205,1177.7455,823.0484,1181.3882,819.4056,1185.7161,828.03,1180.96" style="stroke: #A80036; stroke-width: 1.0;"/><!--MD5=[25899d56a351a136dba6f5c6b57dd71f]
link com.example.demo3.control.EmployeeController to org.springframework.web.bind.annotation.GetMapping--><path codeLine="51" d="M212.37,1452.84 C245.09,1462.69 276,1472 276,1472 C276,1472 346.95,1487.98 400.26,1499.99 " fill="none" id="com.example.demo3.control.EmployeeController-to-org.springframework.web.bind.annotation.GetMapping" style="stroke: #A80036; stroke-width: 1.0; stroke-dasharray: 7.0,7.0;"/><polygon fill="#A80036" points="405.36,1501.14,397.442,1495.2829,400.4791,1500.0553,395.7066,1503.0924,405.36,1501.14" style="stroke: #A80036; stroke-width: 1.0;"/><!--MD5=[034413515f12e1fed8ecb421ec3ebc62]
link com.example.demo3.control.EmployeeController to org.springframework.web.bind.annotation.PathVariable--><path codeLine="52" d="M163.4,1454.1 C203.93,1490.42 276,1555 276,1555 C276,1555 344.82,1570.5 397.82,1582.44 " fill="none" id="com.example.demo3.control.EmployeeController-to-org.springframework.web.bind.annotation.PathVariable" style="stroke: #A80036; stroke-width: 1.0; stroke-dasharray: 7.0,7.0;"/><polygon fill="#A80036" points="402.9,1583.59,394.9984,1577.7109,398.0221,1582.4918,393.2412,1585.5155,402.9,1583.59" style="stroke: #A80036; stroke-width: 1.0;"/><!--MD5=[4e979377dfe8860b33d447ca29a5dc5e]
link com.example.demo3.control.EmployeeController to org.springframework.web.bind.annotation.PostMapping--><path codeLine="53" d="M152.78,1454.27 C189.57,1509.14 276,1638 276,1638 C276,1638 344.4,1653.41 397.33,1665.33 " fill="none" id="com.example.demo3.control.EmployeeController-to-org.springframework.web.bind.annotation.PostMapping" style="stroke: #A80036; stroke-width: 1.0; stroke-dasharray: 7.0,7.0;"/><polygon fill="#A80036" points="402.41,1666.48,394.5121,1660.5959,397.5328,1665.3787,392.75,1668.3994,402.41,1666.48" style="stroke: #A80036; stroke-width: 1.0;"/><!--MD5=[95d9d241c6eb1baec64bf25311118f62]
link com.example.demo3.control.EmployeeController to org.springframework.web.bind.annotation.PutMapping--><path codeLine="54" d="M148.15,1454.31 C181.68,1524.25 276,1721 276,1721 C276,1721 347.39,1737.08 400.74,1749.1 " fill="none" id="com.example.demo3.control.EmployeeController-to-org.springframework.web.bind.annotation.PutMapping" style="stroke: #A80036; stroke-width: 1.0; stroke-dasharray: 7.0,7.0;"/><polygon fill="#A80036" points="405.85,1750.25,397.9484,1744.3709,400.9721,1749.1518,396.1912,1752.1755,405.85,1750.25" style="stroke: #A80036; stroke-width: 1.0;"/><!--MD5=[86ac2a356a899112d19409763813b390]
link com.example.demo3.control.EmployeeController to org.springframework.web.bind.annotation.RequestBody--><path codeLine="55" d="M145.55,1454.25 C176.46,1537.13 276,1804 276,1804 C276,1804 343.98,1819.31 396.84,1831.22 " fill="none" id="com.example.demo3.control.EmployeeController-to-org.springframework.web.bind.annotation.RequestBody" style="stroke: #A80036; stroke-width: 1.0; stroke-dasharray: 7.0,7.0;"/><polygon fill="#A80036" points="401.91,1832.36,394.0121,1826.4759,397.0328,1831.2587,392.25,1834.2794,401.91,1832.36" style="stroke: #A80036; stroke-width: 1.0;"/><!--MD5=[e2c2cd3782429ae0c94ea74be260b0e9]
link com.example.demo3.control.EmployeeController to org.springframework.web.bind.annotation.RequestParam--><path codeLine="56" d="M212.37,1407.16 C245.09,1397.31 276,1388 276,1388 C276,1388 339.83,1373.62 391.89,1361.89 " fill="none" id="com.example.demo3.control.EmployeeController-to-org.springframework.web.bind.annotation.RequestParam" style="stroke: #A80036; stroke-width: 1.0; stroke-dasharray: 7.0,7.0;"/><polygon fill="#A80036" points="396.89,1360.77,387.23,1358.8506,392.0128,1361.8713,388.9921,1366.6541,396.89,1360.77" style="stroke: #A80036; stroke-width: 1.0;"/><!--MD5=[cfa99760104e676fe36f5030d2838a48]
link com.example.demo3.control.EmployeeController to org.springframework.web.bind.annotation.RestController--><path codeLine="57" d="M212.28,1430 C267.2,1430 340.69,1430 392.96,1430 " fill="none" id="com.example.demo3.control.EmployeeController-to-org.springframework.web.bind.annotation.RestController" style="stroke: #A80036; stroke-width: 1.0; stroke-dasharray: 7.0,7.0;"/><polygon fill="#A80036" points="398.27,1430,389.27,1426,393.27,1430,389.27,1434,398.27,1430" style="stroke: #A80036; stroke-width: 1.0;"/><!--MD5=[fd6b65a51941f13936b4ec44c4ca7cae]
link com.example.demo3.control.EmployeeController to com.example.demo3.model.Employee--><path codeLine="58" d="M143.51,1405.97 C171.8,1309.04 276,952 276,952 C276,952 674.5,633 674.5,633 C674.5,633 1097.69,534.95 1245.66,500.66 " fill="none" id="com.example.demo3.control.EmployeeController-to-com.example.demo3.model.Employee" style="stroke: #A80036; stroke-width: 1.0; stroke-dasharray: 7.0,7.0;"/><polygon fill="#A80036" points="1250.8,499.47,1241.1294,497.6045,1245.929,500.5985,1242.935,505.398,1250.8,499.47" style="stroke: #A80036; stroke-width: 1.0;"/><!--MD5=[1a35e6d7d61f7ebefb7949cd44115c21]
link com.example.demo3.control.EmployeeController to com.example.demo3.services.EmployeeService--><path codeLine="59" d="M148.64,1405.99 C182.58,1338.84 276,1154 276,1154 C276,1154 374.77,1066.09 426.79,1019.78 " fill="none" id="com.example.demo3.control.EmployeeController-to-com.example.demo3.services.EmployeeService" style="stroke: #A80036; stroke-width: 1.0; stroke-dasharray: 7.0,7.0;"/><polygon fill="#A80036" points="430.75,1016.25,421.3723,1019.2597,427.0201,1019.5798,426.6999,1025.2276,430.75,1016.25" style="stroke: #A80036; stroke-width: 1.0;"/><!--MD5=[f1e85a0d9798d59af96c1eaf5cb007c9]
link com.example.demo3.control.EmployeeController to java.util.List--><path codeLine="60" d="M163.73,1405.99 C204.33,1370.2 276,1307 276,1307 C276,1307 1094.86,1282.92 1265.19,1277.91 " fill="none" id="com.example.demo3.control.EmployeeController-to-java.util.List" style="stroke: #A80036; stroke-width: 1.0; stroke-dasharray: 7.0,7.0;"/><polygon fill="#A80036" points="1270.28,1277.76,1261.1694,1274.0187,1265.282,1277.9028,1261.3979,1282.0154,1270.28,1277.76" style="stroke: #A80036; stroke-width: 1.0;"/><!--MD5=[d63dda5076ccabc1f5180696f40e1369]
link com.example.demo3.model.Employee to java.lang.Override--><!--MD5=[746df579421a74e8d62d7f9f688e05f4]
link com.example.demo3.model.Employee to javax.persistence.Column--><path codeLine="62" d="M1343.31,482.59 C1398.41,474.8 1490.71,461.75 1544.82,454.1 " fill="none" id="com.example.demo3.model.Employee-to-javax.persistence.Column" style="stroke: #A80036; stroke-width: 1.0; stroke-dasharray: 7.0,7.0;"/><polygon fill="#A80036" points="1549.94,453.38,1540.468,450.6815,1544.9894,454.0811,1541.5898,458.6025,1549.94,453.38" style="stroke: #A80036; stroke-width: 1.0;"/><!--MD5=[2e4cbde88a9013a8c5644c022ee19f70]
link com.example.demo3.model.Employee to javax.persistence.Entity--><path codeLine="63" d="M1343.31,495.56 C1400.26,503.81 1496.96,517.82 1550.15,525.52 " fill="none" id="com.example.demo3.model.Employee-to-javax.persistence.Entity" style="stroke: #A80036; stroke-width: 1.0; stroke-dasharray: 7.0,7.0;"/><polygon fill="#A80036" points="1555.16,526.24,1546.8225,520.9973,1550.2111,525.5269,1545.6815,528.9155,1555.16,526.24" style="stroke: #A80036; stroke-width: 1.0;"/><!--MD5=[1c18af1b051b7786ab1b22e79bb5f206]
link com.example.demo3.model.Employee to javax.persistence.GeneratedValue--><path codeLine="64" d="M1343.31,508.53 C1392.8,529.86 1472.3,564.13 1527.18,587.79 " fill="none" id="com.example.demo3.model.Employee-to-javax.persistence.GeneratedValue" style="stroke: #A80036; stroke-width: 1.0; stroke-dasharray: 7.0,7.0;"/><polygon fill="#A80036" points="1532.09,589.9,1525.4123,582.6606,1527.4995,587.9184,1522.2417,590.0055,1532.09,589.9" style="stroke: #A80036; stroke-width: 1.0;"/><!--MD5=[22e70ed43a22b21ba3afe508eee68b31]
link com.example.demo3.model.Employee to javax.persistence.Id--><path codeLine="65" d="M1343.03,508.88 C1398.65,533.44 1486,572 1486,572 C1486,572 1498,655 1498,655 C1498,655 1535.7,672.59 1562.3,685.01 " fill="none" id="com.example.demo3.model.Employee-to-javax.persistence.Id" style="stroke: #A80036; stroke-width: 1.0; stroke-dasharray: 7.0,7.0;"/><polygon fill="#A80036" points="1567.13,687.26,1560.6864,679.8115,1562.6049,685.1331,1557.2833,687.0516,1567.13,687.26" style="stroke: #A80036; stroke-width: 1.0;"/><!--MD5=[4db4d007b3838577091e0296dbeceba3]
link com.example.demo3.model.Employee to javax.persistence.Table--><path codeLine="66" d="M1327.08,464.86 C1382.55,418.82 1498,323 1498,323 C1498,323 1526.3,310.11 1551.17,298.78 " fill="none" id="com.example.demo3.model.Employee-to-javax.persistence.Table" style="stroke: #A80036; stroke-width: 1.0; stroke-dasharray: 7.0,7.0;"/><polygon fill="#A80036" points="1555.76,296.69,1545.9116,296.7844,1551.2106,298.7644,1549.2306,304.0634,1555.76,296.69" style="stroke: #A80036; stroke-width: 1.0;"/><!--MD5=[e9265e8fe206a9d75fd79bf0ad11414c]
link com.example.demo3.model.Employee to javax.persistence.GenerationType--><path codeLine="67" d="M1343.31,469.62 C1392.72,448.5 1472.05,414.58 1526.93,391.11 " fill="none" id="com.example.demo3.model.Employee-to-javax.persistence.GenerationType" style="stroke: #A80036; stroke-width: 1.0; stroke-dasharray: 7.0,7.0;"/><polygon fill="#A80036" points="1531.83,389.02,1521.9819,388.8998,1527.2365,390.9948,1525.1415,396.2494,1531.83,389.02" style="stroke: #A80036; stroke-width: 1.0;"/><!--MD5=[7a4feadb1c0ac7ee3ecc09591f25ae5e]
link com.example.demo3.services.EmployeeService to org.springframework.beans.factory.annotation.Autowired--><path codeLine="68" d="M503.67,1016.02 C566.38,1050.52 674.5,1110 674.5,1110 C674.5,1110 764.19,1140.04 823.44,1159.9 " fill="none" id="com.example.demo3.services.EmployeeService-to-org.springframework.beans.factory.annotation.Autowired" style="stroke: #A80036; stroke-width: 1.0; stroke-dasharray: 7.0,7.0;"/><polygon fill="#A80036" points="828.36,1161.54,821.0928,1154.8926,823.618,1159.9546,818.5561,1162.4798,828.36,1161.54" style="stroke: #A80036; stroke-width: 1.0;"/><!--MD5=[7602bc34936200cb5a66070f1f0b4dd8]
link com.example.demo3.services.EmployeeService to org.springframework.stereotype.Service--><path codeLine="69" d="M499.34,967.97 C561.27,930.15 674.5,861 674.5,861 C674.5,861 1109,653 1109,653 C1109,653 1198.06,633.47 1253.26,621.37 " fill="none" id="com.example.demo3.services.EmployeeService-to-org.springframework.stereotype.Service" style="stroke: #A80036; stroke-width: 1.0; stroke-dasharray: 7.0,7.0;"/><polygon fill="#A80036" points="1258.16,620.3,1248.5121,618.3207,1253.2761,621.371,1250.2257,626.135,1258.16,620.3" style="stroke: #A80036; stroke-width: 1.0;"/><!--MD5=[6a983f780fcc6f3aa585ccc37e68215d]
link com.example.demo3.services.EmployeeService to com.example.demo3.model.Employee--><path codeLine="70" d="M480.57,967.84 C534.25,904.76 674.5,740 674.5,740 C674.5,740 1098.53,568.75 1246.09,509.16 " fill="none" id="com.example.demo3.services.EmployeeService-to-com.example.demo3.model.Employee" style="stroke: #A80036; stroke-width: 1.0; stroke-dasharray: 7.0,7.0;"/><polygon fill="#A80036" points="1250.8,507.25,1240.9572,506.9047,1246.1626,509.1192,1243.948,514.3246,1250.8,507.25" style="stroke: #A80036; stroke-width: 1.0;"/><!--MD5=[c29b3af75a53cedb9bed17fe593eda46]
link com.example.demo3.services.EmployeeService to java.util.List--><path codeLine="71" d="M527.57,1009.64 C590.45,1026.06 674.5,1048 674.5,1048 C674.5,1048 1077.5,1137 1077.5,1137 C1077.5,1137 1109,1235 1109,1235 C1109,1235 1212.4,1258.22 1265.42,1270.13 " fill="none" id="com.example.demo3.services.EmployeeService-to-java.util.List" style="stroke: #A80036; stroke-width: 1.0; stroke-dasharray: 7.0,7.0;"/><polygon fill="#A80036" points="1270.39,1271.25,1262.4884,1265.3709,1265.5121,1270.1518,1260.7312,1273.1755,1270.39,1271.25" style="stroke: #A80036; stroke-width: 1.0;"/><!--MD5=[bb6df1ee9ef00bb3ebad1bcf3919217d]
link com.example.demo3.services.EmployeeService to com.example.demo3.Repository.EmployeeRepository--><path codeLine="72" d="M527.52,977.18 C599.35,961.41 713.1,936.43 790.63,919.41 " fill="none" id="com.example.demo3.services.EmployeeService-to-com.example.demo3.Repository.EmployeeRepository" style="stroke: #A80036; stroke-width: 1.0; stroke-dasharray: 7.0,7.0;"/><polygon fill="#A80036" points="795.68,918.3,786.0321,916.3207,790.7961,919.371,787.7457,924.135,795.68,918.3" style="stroke: #A80036; stroke-width: 1.0;"/><!--MD5=[a42922dc99f4b456c846cad848d652d3]
link com.example.demo3.Repository.EmployeeRepository to org.springframework.data.jpa.repository.Query--><path codeLine="73" d="M955.4,885.39 C1045.62,867.54 1189.6,839.05 1257.79,825.56 " fill="none" id="com.example.demo3.Repository.EmployeeRepository-to-org.springframework.data.jpa.repository.Query" style="stroke: #A80036; stroke-width: 1.0; stroke-dasharray: 7.0,7.0;"/><polygon fill="#A80036" points="1262.97,824.54,1253.364,822.3666,1258.0655,825.5123,1254.9197,830.2138,1262.97,824.54" style="stroke: #A80036; stroke-width: 1.0;"/><!--MD5=[53b2ebb3a1fba9c6c1fd69899b7f8665]
link com.example.demo3.Repository.EmployeeRepository to org.springframework.data.repository.query.Param--><path codeLine="74" d="M955.4,924.14 C1044.87,950.37 1187.22,992.1 1256.09,1012.3 " fill="none" id="com.example.demo3.Repository.EmployeeRepository-to-org.springframework.data.repository.query.Param" style="stroke: #A80036; stroke-width: 1.0; stroke-dasharray: 7.0,7.0;"/><polygon fill="#A80036" points="1260.92,1013.71,1253.4,1007.35,1256.12,1012.31,1251.16,1015.03,1260.92,1013.71" style="stroke: #A80036; stroke-width: 1.0;"/><!--MD5=[ea3efdec392efe485938533044f2cd53]
link com.example.demo3.Repository.EmployeeRepository to org.springframework.stereotype.Repository--><path codeLine="75" d="M930.1,877 C989.64,850.34 1077.5,811 1077.5,811 C1077.5,811 1109,778 1109,778 C1109,778 1187.94,742.96 1243.24,718.42 " fill="none" id="com.example.demo3.Repository.EmployeeRepository-to-org.springframework.stereotype.Repository" style="stroke: #A80036; stroke-width: 1.0; stroke-dasharray: 7.0,7.0;"/><polygon fill="#A80036" points="1247.84,716.37,1237.9911,716.3643,1243.2698,718.398,1241.236,723.6767,1247.84,716.37" style="stroke: #A80036; stroke-width: 1.0;"/><!--MD5=[68cb587eaed5b632d116a312ddd30978]
link com.example.demo3.Repository.EmployeeRepository to com.example.demo3.model.Employee--><path codeLine="76" d="M896.14,876.67 C946.72,814.02 1077.5,652 1077.5,652 C1077.5,652 1109,572 1109,572 C1109,572 1190.73,535.72 1246.13,511.14 " fill="none" id="com.example.demo3.Repository.EmployeeRepository-to-com.example.demo3.model.Employee" style="stroke: #A80036; stroke-width: 1.0; stroke-dasharray: 7.0,7.0;"/><polygon fill="#A80036" points="1250.73,509.09,1240.8811,509.0843,1246.1598,511.118,1244.126,516.3967,1250.73,509.09" style="stroke: #A80036; stroke-width: 1.0;"/><!--MD5=[c51ef280cb9ba89b7e42e836fdee469e]
link com.example.demo3.Repository.EmployeeRepository to java.util.List--><path codeLine="77" d="M951.92,925.01 C1008.95,943.17 1077.5,965 1077.5,965 C1077.5,965 1109,1235 1109,1235 C1109,1235 1212.4,1258.22 1265.42,1270.13 " fill="none" id="com.example.demo3.Repository.EmployeeRepository-to-java.util.List" style="stroke: #A80036; stroke-width: 1.0; stroke-dasharray: 7.0,7.0;"/><polygon fill="#A80036" points="1270.39,1271.25,1262.4884,1265.3709,1265.5121,1270.1518,1260.7312,1273.1755,1270.39,1271.25" style="stroke: #A80036; stroke-width: 1.0;"/><!--MD5=[e42baa4ddbaa7a5816c23fb83d0f21d5]
link com.example.demo3.Repository.EmployeeRepository to org.springframework.data.jpa.repository.JpaRepository--><path codeLine="78" d="M955.4,901 C1030.47,901 1142.75,901 1217.64,901 " fill="none" id="com.example.demo3.Repository.EmployeeRepository-to-org.springframework.data.jpa.repository.JpaRepository" style="stroke: #A80036; stroke-width: 1.0;"/><polygon fill="none" points="1217.7,894,1237.7,901,1217.7,908,1217.7,894" style="stroke: #A80036; stroke-width: 1.0;"/><!--MD5=[35e9773c8d78898dd9087f432e80e6e7]
@startuml
left to right direction
skinparam shadowing false

'skinparam linetype ortho
skinparam linetype polyline

'hide org.springframework.*
'hide java.util.*
hide java.lang.*

annotation java.lang.Override
annotation javax.persistence.Column
annotation javax.persistence.Entity
annotation javax.persistence.GeneratedValue
annotation javax.persistence.Id
annotation javax.persistence.Table
annotation org.junit.jupiter.api.Test
annotation org.springframework.beans.factory.annotation.Autowired
annotation org.springframework.boot.autoconfigure.SpringBootApplication
annotation org.springframework.boot.test.context.SpringBootTest
annotation org.springframework.data.jpa.repository.Query
annotation org.springframework.data.repository.query.Param
annotation org.springframework.stereotype.Repository
annotation org.springframework.stereotype.Service
annotation org.springframework.web.bind.annotation.GetMapping
annotation org.springframework.web.bind.annotation.PathVariable
annotation org.springframework.web.bind.annotation.PostMapping
annotation org.springframework.web.bind.annotation.PutMapping
annotation org.springframework.web.bind.annotation.RequestBody
annotation org.springframework.web.bind.annotation.RequestParam
annotation org.springframework.web.bind.annotation.RestController
class MavenWrapperDownloader
class com.example.demo3.DemoApplication
class com.example.demo3.DemoApplicationTests
class com.example.demo3.control.EmployeeController
class com.example.demo3.model.Employee
class com.example.demo3.services.EmployeeService
class java.util.List
class java.util.Properties
class javax.persistence.GenerationType
class org.springframework.boot.SpringApplication
interface com.example.demo3.Repository.EmployeeRepository
interface org.springframework.data.jpa.repository.JpaRepository
MavenWrapperDownloader ..> java.lang.Override
MavenWrapperDownloader ..> java.util.Properties
com.example.demo3.DemoApplication ..> org.springframework.boot.autoconfigure.SpringBootApplication
com.example.demo3.DemoApplication ..> org.springframework.boot.SpringApplication
com.example.demo3.DemoApplicationTests ..> org.junit.jupiter.api.Test
com.example.demo3.DemoApplicationTests ..> org.springframework.boot.test.context.SpringBootTest
com.example.demo3.control.EmployeeController ..> org.springframework.beans.factory.annotation.Autowired
com.example.demo3.control.EmployeeController ..> org.springframework.web.bind.annotation.GetMapping
com.example.demo3.control.EmployeeController ..> org.springframework.web.bind.annotation.PathVariable
com.example.demo3.control.EmployeeController ..> org.springframework.web.bind.annotation.PostMapping
com.example.demo3.control.EmployeeController ..> org.springframework.web.bind.annotation.PutMapping
com.example.demo3.control.EmployeeController ..> org.springframework.web.bind.annotation.RequestBody
com.example.demo3.control.EmployeeController ..> org.springframework.web.bind.annotation.RequestParam
com.example.demo3.control.EmployeeController ..> org.springframework.web.bind.annotation.RestController
com.example.demo3.control.EmployeeController ..> com.example.demo3.model.Employee
com.example.demo3.control.EmployeeController ..> com.example.demo3.services.EmployeeService
com.example.demo3.control.EmployeeController ..> java.util.List
com.example.demo3.model.Employee ..> java.lang.Override
com.example.demo3.model.Employee ..> javax.persistence.Column
com.example.demo3.model.Employee ..> javax.persistence.Entity
com.example.demo3.model.Employee ..> javax.persistence.GeneratedValue
com.example.demo3.model.Employee ..> javax.persistence.Id
com.example.demo3.model.Employee ..> javax.persistence.Table
com.example.demo3.model.Employee ..> javax.persistence.GenerationType
com.example.demo3.services.EmployeeService ..> org.springframework.beans.factory.annotation.Autowired
com.example.demo3.services.EmployeeService ..> org.springframework.stereotype.Service
com.example.demo3.services.EmployeeService ..> com.example.demo3.model.Employee
com.example.demo3.services.EmployeeService ..> java.util.List
com.example.demo3.services.EmployeeService ..> com.example.demo3.Repository.EmployeeRepository
com.example.demo3.Repository.EmployeeRepository ..> org.springframework.data.jpa.repository.Query
com.example.demo3.Repository.EmployeeRepository ..> org.springframework.data.repository.query.Param
com.example.demo3.Repository.EmployeeRepository ..> org.springframework.stereotype.Repository
com.example.demo3.Repository.EmployeeRepository ..> com.example.demo3.model.Employee
com.example.demo3.Repository.EmployeeRepository ..> java.util.List
com.example.demo3.Repository.EmployeeRepository - -|> org.springframework.data.jpa.repository.JpaRepository
@enduml

@startuml
left to right direction
skinparam shadowing false

skinparam linetype polyline

hide java.lang.*

annotation java.lang.Override
annotation javax.persistence.Column
annotation javax.persistence.Entity
annotation javax.persistence.GeneratedValue
annotation javax.persistence.Id
annotation javax.persistence.Table
annotation org.junit.jupiter.api.Test
annotation org.springframework.beans.factory.annotation.Autowired
annotation org.springframework.boot.autoconfigure.SpringBootApplication
annotation org.springframework.boot.test.context.SpringBootTest
annotation org.springframework.data.jpa.repository.Query
annotation org.springframework.data.repository.query.Param
annotation org.springframework.stereotype.Repository
annotation org.springframework.stereotype.Service
annotation org.springframework.web.bind.annotation.GetMapping
annotation org.springframework.web.bind.annotation.PathVariable
annotation org.springframework.web.bind.annotation.PostMapping
annotation org.springframework.web.bind.annotation.PutMapping
annotation org.springframework.web.bind.annotation.RequestBody
annotation org.springframework.web.bind.annotation.RequestParam
annotation org.springframework.web.bind.annotation.RestController
class MavenWrapperDownloader
class com.example.demo3.DemoApplication
class com.example.demo3.DemoApplicationTests
class com.example.demo3.control.EmployeeController
class com.example.demo3.model.Employee
class com.example.demo3.services.EmployeeService
class java.util.List
class java.util.Properties
class javax.persistence.GenerationType
class org.springframework.boot.SpringApplication
interface com.example.demo3.Repository.EmployeeRepository
interface org.springframework.data.jpa.repository.JpaRepository
MavenWrapperDownloader ..> java.lang.Override
MavenWrapperDownloader ..> java.util.Properties
com.example.demo3.DemoApplication ..> org.springframework.boot.autoconfigure.SpringBootApplication
com.example.demo3.DemoApplication ..> org.springframework.boot.SpringApplication
com.example.demo3.DemoApplicationTests ..> org.junit.jupiter.api.Test
com.example.demo3.DemoApplicationTests ..> org.springframework.boot.test.context.SpringBootTest
com.example.demo3.control.EmployeeController ..> org.springframework.beans.factory.annotation.Autowired
com.example.demo3.control.EmployeeController ..> org.springframework.web.bind.annotation.GetMapping
com.example.demo3.control.EmployeeController ..> org.springframework.web.bind.annotation.PathVariable
com.example.demo3.control.EmployeeController ..> org.springframework.web.bind.annotation.PostMapping
com.example.demo3.control.EmployeeController ..> org.springframework.web.bind.annotation.PutMapping
com.example.demo3.control.EmployeeController ..> org.springframework.web.bind.annotation.RequestBody
com.example.demo3.control.EmployeeController ..> org.springframework.web.bind.annotation.RequestParam
com.example.demo3.control.EmployeeController ..> org.springframework.web.bind.annotation.RestController
com.example.demo3.control.EmployeeController ..> com.example.demo3.model.Employee
com.example.demo3.control.EmployeeController ..> com.example.demo3.services.EmployeeService
com.example.demo3.control.EmployeeController ..> java.util.List
com.example.demo3.model.Employee ..> java.lang.Override
com.example.demo3.model.Employee ..> javax.persistence.Column
com.example.demo3.model.Employee ..> javax.persistence.Entity
com.example.demo3.model.Employee ..> javax.persistence.GeneratedValue
com.example.demo3.model.Employee ..> javax.persistence.Id
com.example.demo3.model.Employee ..> javax.persistence.Table
com.example.demo3.model.Employee ..> javax.persistence.GenerationType
com.example.demo3.services.EmployeeService ..> org.springframework.beans.factory.annotation.Autowired
com.example.demo3.services.EmployeeService ..> org.springframework.stereotype.Service
com.example.demo3.services.EmployeeService ..> com.example.demo3.model.Employee
com.example.demo3.services.EmployeeService ..> java.util.List
com.example.demo3.services.EmployeeService ..> com.example.demo3.Repository.EmployeeRepository
com.example.demo3.Repository.EmployeeRepository ..> org.springframework.data.jpa.repository.Query
com.example.demo3.Repository.EmployeeRepository ..> org.springframework.data.repository.query.Param
com.example.demo3.Repository.EmployeeRepository ..> org.springframework.stereotype.Repository
com.example.demo3.Repository.EmployeeRepository ..> com.example.demo3.model.Employee
com.example.demo3.Repository.EmployeeRepository ..> java.util.List
com.example.demo3.Repository.EmployeeRepository - -|> org.springframework.data.jpa.repository.JpaRepository
@enduml

PlantUML version 1.2020.18(Wed Sep 30 22:40:44 EEST 2020)
(GPL source distribution)
Java Runtime: OpenJDK Runtime Environment
JVM: OpenJDK 64-Bit Server VM
Default Encoding: UTF-8
Language: en
Country: US
--></g></svg>