<?xml version="1.0" encoding="UTF-8" standalone="no"?><svg xmlns="http://www.w3.org/2000/svg" xmlns:xlink="http://www.w3.org/1999/xlink" contentScriptType="application/ecmascript" contentStyleType="text/css" height="588px" preserveAspectRatio="none" style="width:320px;height:588px;" version="1.1" viewBox="0 0 320 588" width="320px" zoomAndPan="magnify"><defs><filter height="300%" id="f1dog0jd6cfmhc" width="300%" x="-1" y="-1"><feGaussianBlur result="blurOut" stdDeviation="2.0"/><feColorMatrix in="blurOut" result="blurOut2" type="matrix" values="0 0 0 0 0 0 0 0 0 0 0 0 0 0 0 0 0 0 .4 0"/><feOffset dx="4.0" dy="4.0" in="blurOut2" result="blurOut3"/><feBlend in="SourceGraphic" in2="blurOut3" mode="normal"/></filter></defs><g><text fill="#000000" font-family="sans-serif" font-size="18" lengthAdjust="spacingAndGlyphs" textLength="57" x="133.5" y="16.708">facade</text><!--cluster myFacade--><polygon fill="#FFFFFF" filter="url(#f1dog0jd6cfmhc)" points="14,36.9531,99,36.9531,106,59.25,298,59.25,298,576.9531,14,576.9531,14,36.9531" style="stroke: #000000; stroke-width: 1.5;"/><line style="stroke: #000000; stroke-width: 1.5;" x1="14" x2="106" y1="59.25" y2="59.25"/><text fill="#000000" font-family="sans-serif" font-size="14" font-weight="bold" lengthAdjust="spacingAndGlyphs" textLength="79" x="18" y="51.9482">myFacade</text><!--class Difficult--><rect fill="#FEFECE" filter="url(#f1dog0jd6cfmhc)" height="297.2266" id="Difficult" style="stroke: #A80036; stroke-width: 1.5;" width="258" x="27" y="271.9531"/><ellipse cx="102.75" cy="291.5039" fill="#ADD1B2" rx="11" ry="11" style="stroke: #A80036; stroke-width: 1.0;"/><path d="M105.7188,297.1445 Q105.1406,297.4414 104.5,297.582 Q103.8594,297.7383 103.1563,297.7383 Q100.6563,297.7383 99.3281,296.0977 Q98.0156,294.4414 98.0156,291.3164 Q98.0156,288.1914 99.3281,286.5352 Q100.6563,284.8789 103.1563,284.8789 Q103.8594,284.8789 104.5,285.0352 Q105.1563,285.1914 105.7188,285.4883 L105.7188,288.207 Q105.0938,287.6289 104.5,287.3633 Q103.9063,287.082 103.2813,287.082 Q101.9375,287.082 101.25,288.1602 Q100.5625,289.2227 100.5625,291.3164 Q100.5625,293.4102 101.25,294.4883 Q101.9375,295.5508 103.2813,295.5508 Q103.9063,295.5508 104.5,295.2852 Q105.0938,295.0039 105.7188,294.4258 L105.7188,297.1445 Z "/><text fill="#FF0000" font-family="sans-serif" font-size="25" lengthAdjust="spacingAndGlyphs" textLength="98" x="123.25" y="300.1587">Difficult</text><line style="stroke: #A80036; stroke-width: 1.5;" x1="28" x2="284" y1="311.0547" y2="311.0547"/><rect fill="none" height="6" style="stroke: #C82930; stroke-width: 1.0;" width="6" x="35" y="322.8672"/><text fill="#000000" font-family="sans-serif" font-size="16" font-weight="bold" lengthAdjust="spacingAndGlyphs" textLength="148" x="47" y="329.9063">char[] charName</text><line style="stroke: #A80036; stroke-width: 1.5;" x1="28" x2="284" y1="337.6797" y2="337.6797"/><ellipse cx="38" cy="352.4922" fill="#84BE84" rx="3" ry="3" style="stroke: #038048; stroke-width: 1.0;"/><text fill="#000000" font-family="sans-serif" font-size="16" font-weight="bold" lengthAdjust="spacingAndGlyphs" textLength="82" x="47" y="356.5313">Difficult()</text><ellipse cx="38" cy="371.1172" fill="#84BE84" rx="3" ry="3" style="stroke: #038048; stroke-width: 1.0;"/><text fill="#000000" font-family="sans-serif" font-size="16" font-weight="bold" lengthAdjust="spacingAndGlyphs" textLength="221" x="47" y="375.1563">void setChar1(char char)</text><ellipse cx="38" cy="389.7422" fill="#84BE84" rx="3" ry="3" style="stroke: #038048; stroke-width: 1.0;"/><text fill="#000000" font-family="sans-serif" font-size="16" font-weight="bold" lengthAdjust="spacingAndGlyphs" textLength="221" x="47" y="393.7813">void setChar2(char char)</text><ellipse cx="38" cy="408.3672" fill="#84BE84" rx="3" ry="3" style="stroke: #038048; stroke-width: 1.0;"/><text fill="#000000" font-family="sans-serif" font-size="16" font-weight="bold" lengthAdjust="spacingAndGlyphs" textLength="221" x="47" y="412.4063">void setChar3(char char)</text><ellipse cx="38" cy="426.9922" fill="#84BE84" rx="3" ry="3" style="stroke: #038048; stroke-width: 1.0;"/><text fill="#000000" font-family="sans-serif" font-size="16" font-weight="bold" lengthAdjust="spacingAndGlyphs" textLength="221" x="47" y="431.0313">void setChar4(char char)</text><ellipse cx="38" cy="445.6172" fill="#84BE84" rx="3" ry="3" style="stroke: #038048; stroke-width: 1.0;"/><text fill="#000000" font-family="sans-serif" font-size="16" font-weight="bold" lengthAdjust="spacingAndGlyphs" textLength="221" x="47" y="449.6563">void setChar5(char char)</text><ellipse cx="38" cy="464.2422" fill="#84BE84" rx="3" ry="3" style="stroke: #038048; stroke-width: 1.0;"/><text fill="#000000" font-family="sans-serif" font-size="16" font-weight="bold" lengthAdjust="spacingAndGlyphs" textLength="221" x="47" y="468.2813">void setChar6(char char)</text><ellipse cx="38" cy="482.8672" fill="#84BE84" rx="3" ry="3" style="stroke: #038048; stroke-width: 1.0;"/><text fill="#000000" font-family="sans-serif" font-size="16" font-weight="bold" lengthAdjust="spacingAndGlyphs" textLength="221" x="47" y="486.9063">void setChar7(char char)</text><ellipse cx="38" cy="501.4922" fill="#84BE84" rx="3" ry="3" style="stroke: #038048; stroke-width: 1.0;"/><text fill="#000000" font-family="sans-serif" font-size="16" font-weight="bold" lengthAdjust="spacingAndGlyphs" textLength="221" x="47" y="505.5313">void setChar8(char char)</text><ellipse cx="38" cy="520.1172" fill="#84BE84" rx="3" ry="3" style="stroke: #038048; stroke-width: 1.0;"/><text fill="#000000" font-family="sans-serif" font-size="16" font-weight="bold" lengthAdjust="spacingAndGlyphs" textLength="221" x="47" y="524.1563">void setChar9(char char)</text><ellipse cx="38" cy="538.7422" fill="#84BE84" rx="3" ry="3" style="stroke: #038048; stroke-width: 1.0;"/><text fill="#000000" font-family="sans-serif" font-size="16" font-weight="bold" lengthAdjust="spacingAndGlyphs" textLength="232" x="47" y="542.7813">void setChar10(char char)</text><ellipse cx="38" cy="557.3672" fill="#84BE84" rx="3" ry="3" style="stroke: #038048; stroke-width: 1.0;"/><text fill="#000000" font-family="sans-serif" font-size="16" font-weight="bold" lengthAdjust="spacingAndGlyphs" textLength="153" x="47" y="561.4063">String getName()</text><!--class Facade--><rect fill="#FEFECE" filter="url(#f1dog0jd6cfmhc)" height="148.2266" id="Facade" style="stroke: #A80036; stroke-width: 1.5;" width="268" x="22" y="63.9531"/><ellipse cx="107.25" cy="83.5039" fill="#ADD1B2" rx="11" ry="11" style="stroke: #A80036; stroke-width: 1.0;"/><path d="M110.2188,89.1445 Q109.6406,89.4414 109,89.582 Q108.3594,89.7383 107.6563,89.7383 Q105.1563,89.7383 103.8281,88.0977 Q102.5156,86.4414 102.5156,83.3164 Q102.5156,80.1914 103.8281,78.5352 Q105.1563,76.8789 107.6563,76.8789 Q108.3594,76.8789 109,77.0352 Q109.6563,77.1914 110.2188,77.4883 L110.2188,80.207 Q109.5938,79.6289 109,79.3633 Q108.4063,79.082 107.7813,79.082 Q106.4375,79.082 105.75,80.1602 Q105.0625,81.2227 105.0625,83.3164 Q105.0625,85.4102 105.75,86.4883 Q106.4375,87.5508 107.7813,87.5508 Q108.4063,87.5508 109,87.2852 Q109.5938,87.0039 110.2188,86.4258 L110.2188,89.1445 Z "/><text fill="#FF0000" font-family="sans-serif" font-size="25" lengthAdjust="spacingAndGlyphs" textLength="89" x="127.75" y="92.1587">Facade</text><line style="stroke: #A80036; stroke-width: 1.5;" x1="23" x2="289" y1="103.0547" y2="103.0547"/><polygon fill="none" points="33,113.8672,29,119.8672,37,119.8672" style="stroke: #1963A0; stroke-width: 1.0;"/><text fill="#000000" font-family="sans-serif" font-size="16" font-weight="bold" lengthAdjust="spacingAndGlyphs" textLength="140" x="42" y="121.9063">Difficult difficult</text><rect fill="none" height="6" style="stroke: #C82930; stroke-width: 1.0;" width="6" x="30" y="133.4922"/><text fill="#000000" font-family="sans-serif" font-size="16" font-weight="bold" lengthAdjust="spacingAndGlyphs" textLength="148" x="42" y="140.5313">char[] charName</text><line style="stroke: #A80036; stroke-width: 1.5;" x1="23" x2="289" y1="148.3047" y2="148.3047"/><ellipse cx="33" cy="163.1172" fill="#84BE84" rx="3" ry="3" style="stroke: #038048; stroke-width: 1.0;"/><text fill="#000000" font-family="sans-serif" font-size="16" font-weight="bold" lengthAdjust="spacingAndGlyphs" textLength="76" x="42" y="167.1563">Facade()</text><ellipse cx="33" cy="181.7422" fill="#84BE84" rx="3" ry="3" style="stroke: #038048; stroke-width: 1.0;"/><text fill="#000000" font-family="sans-serif" font-size="16" font-weight="bold" lengthAdjust="spacingAndGlyphs" textLength="242" x="42" y="185.7813">void setName(String name)</text><ellipse cx="33" cy="200.3672" fill="#84BE84" rx="3" ry="3" style="stroke: #038048; stroke-width: 1.0;"/><text fill="#000000" font-family="sans-serif" font-size="16" font-weight="bold" lengthAdjust="spacingAndGlyphs" textLength="153" x="42" y="204.4063">String getName()</text><!--link Facade to Difficult--><path d="M156,212.1766 C156,229.062 156,247.6109 156,266.4649 " fill="none" id="Facade-Difficult" style="stroke: #A80036; stroke-width: 1.0;"/><polygon fill="#A80036" points="156,271.7897,160,262.7897,156,266.7897,152,262.7897,156,271.7897" style="stroke: #A80036; stroke-width: 1.0;"/><!--
@startuml

title facade

skinparam classFontColor red
skinparam classFontSize 25
skinparam classAttributeFontSize 16
skinparam classAttributeFontStyle bold

package myFacade{

class Difficult {
	-char[] charName
	+Difficult()
	+void setChar1(char char)
	+void setChar2(char char)
	+void setChar3(char char)
	+void setChar4(char char)
	+void setChar5(char char)
	+void setChar6(char char)
	+void setChar7(char char)
	+void setChar8(char char)
	+void setChar9(char char)
	+void setChar10(char char)
	+String getName()
}

class Facade {
	~Difficult difficult
	-char[] charName
	+Facade()
	+void setName(String name)
	+String getName()
}

Facade - -> Difficult

}
@enduml

PlantUML version 1.2018.10(Sat Aug 25 20:02:59 EEST 2018)
(GPL source distribution)
Java Runtime: OpenJDK Runtime Environment
JVM: OpenJDK 64-Bit Server VM
Java Version: 11.0.2+9-Debian-3
Operating System: Linux
OS Version: 4.19.0-kali1-amd64
Default Encoding: UTF-8
Language: en
Country: US
--></g></svg>