<?xml version="1.0" encoding="UTF-8" standalone="no"?><svg xmlns="http://www.w3.org/2000/svg" xmlns:xlink="http://www.w3.org/1999/xlink" contentScriptType="application/ecmascript" contentStyleType="text/css" height="343px" preserveAspectRatio="none" style="width:2354px;height:343px;" version="1.1" viewBox="0 0 2354 343" width="2354px" zoomAndPan="magnify"><defs><filter height="300%" id="f89gleq1eddy2" width="300%" x="-1" y="-1"><feGaussianBlur result="blurOut" stdDeviation="2.0"/><feColorMatrix in="blurOut" result="blurOut2" type="matrix" values="0 0 0 0 0 0 0 0 0 0 0 0 0 0 0 0 0 0 .4 0"/><feOffset dx="4.0" dy="4.0" in="blurOut2" result="blurOut3"/><feBlend in="SourceGraphic" in2="blurOut3" mode="normal"/></filter></defs><g><!--MD5=[6e99c182d3aa6af6bb4a25ea5a7f7003]
cluster headfirst.factory.pizzafm--><polygon fill="#FFFFFF" filter="url(#f89gleq1eddy2)" points="16,6,220,6,227,28.2969,2337,28.2969,2337,213,16,213,16,6" style="stroke: #000000; stroke-width: 1.5;"/><line style="stroke: #000000; stroke-width: 1.5;" x1="16" x2="227" y1="28.2969" y2="28.2969"/><text fill="#000000" font-family="sans-serif" font-size="14" font-weight="bold" lengthAdjust="spacingAndGlyphs" textLength="198" x="20" y="20.9951">headfirst.factory.pizzafm</text><!--MD5=[7db3c59d38ae5b37b484eb2df9368145]
cluster java.util--><polygon fill="#FFFFFF" filter="url(#f89gleq1eddy2)" points="965,237,1031,237,1038,259.2969,1083,259.2969,1083,336,965,336,965,237" style="stroke: #000000; stroke-width: 1.5;"/><line style="stroke: #000000; stroke-width: 1.5;" x1="965" x2="1038" y1="259.2969" y2="259.2969"/><text fill="#000000" font-family="sans-serif" font-size="14" font-weight="bold" lengthAdjust="spacingAndGlyphs" textLength="60" x="969" y="251.9951">java.util</text><!--MD5=[52ad14f53698ec226efdde0515187d19]
class headfirst.factory.pizzafm.Pizza--><rect codeLine="1" fill="#FEFECE" filter="url(#f89gleq1eddy2)" height="48" id="headfirst.factory.pizzafm.Pizza" style="stroke: #A80036; stroke-width: 1.5;" width="62" x="993" y="149"/><ellipse cx="1008" cy="165" fill="#A9DCDF" rx="11" ry="11" style="stroke: #A80036; stroke-width: 1.0;"/><path d="M1008.1094,160.3438 L1006.9531,165.4219 L1009.2813,165.4219 L1008.1094,160.3438 Z M1006.625,158.1094 L1009.6094,158.1094 L1012.9688,170.5 L1010.5156,170.5 L1009.75,167.4375 L1006.4688,167.4375 L1005.7188,170.5 L1003.2813,170.5 L1006.625,158.1094 Z "/><text fill="#000000" font-family="sans-serif" font-size="12" font-style="italic" lengthAdjust="spacingAndGlyphs" textLength="30" x="1022" y="169.1543">Pizza</text><line style="stroke: #A80036; stroke-width: 1.5;" x1="994" x2="1054" y1="181" y2="181"/><line style="stroke: #A80036; stroke-width: 1.5;" x1="994" x2="1054" y1="189" y2="189"/><!--MD5=[8acd424b6d755547abd05736cb1bed28]
class headfirst.factory.pizzafm.PizzaStore--><rect codeLine="2" fill="#FEFECE" filter="url(#f89gleq1eddy2)" height="48" id="headfirst.factory.pizzafm.PizzaStore" style="stroke: #A80036; stroke-width: 1.5;" width="96" x="2118" y="149"/><ellipse cx="2133" cy="165" fill="#A9DCDF" rx="11" ry="11" style="stroke: #A80036; stroke-width: 1.0;"/><path d="M2133.1094,160.3438 L2131.9531,165.4219 L2134.2813,165.4219 L2133.1094,160.3438 Z M2131.625,158.1094 L2134.6094,158.1094 L2137.9688,170.5 L2135.5156,170.5 L2134.75,167.4375 L2131.4688,167.4375 L2130.7188,170.5 L2128.2813,170.5 L2131.625,158.1094 Z "/><text fill="#000000" font-family="sans-serif" font-size="12" font-style="italic" lengthAdjust="spacingAndGlyphs" textLength="64" x="2147" y="169.1543">PizzaStore</text><line style="stroke: #A80036; stroke-width: 1.5;" x1="2119" x2="2213" y1="181" y2="181"/><line style="stroke: #A80036; stroke-width: 1.5;" x1="2119" x2="2213" y1="189" y2="189"/><!--MD5=[2e64ba889eac0f5eac1093d70471cd6d]
class headfirst.factory.pizzafm.ChicagoPizzaStore--><rect codeLine="3" fill="#FEFECE" filter="url(#f89gleq1eddy2)" height="48" id="headfirst.factory.pizzafm.ChicagoPizzaStore" style="stroke: #A80036; stroke-width: 1.5;" width="145" x="2175.5" y="41"/><ellipse cx="2190.5" cy="57" fill="#ADD1B2" rx="11" ry="11" style="stroke: #A80036; stroke-width: 1.0;"/><path d="M2193.4688,62.6406 Q2192.8906,62.9375 2192.25,63.0781 Q2191.6094,63.2344 2190.9063,63.2344 Q2188.4063,63.2344 2187.0781,61.5938 Q2185.7656,59.9375 2185.7656,56.8125 Q2185.7656,53.6875 2187.0781,52.0313 Q2188.4063,50.375 2190.9063,50.375 Q2191.6094,50.375 2192.25,50.5313 Q2192.9063,50.6875 2193.4688,50.9844 L2193.4688,53.7031 Q2192.8438,53.125 2192.25,52.8594 Q2191.6563,52.5781 2191.0313,52.5781 Q2189.6875,52.5781 2189,53.6563 Q2188.3125,54.7188 2188.3125,56.8125 Q2188.3125,58.9063 2189,59.9844 Q2189.6875,61.0469 2191.0313,61.0469 Q2191.6563,61.0469 2192.25,60.7813 Q2192.8438,60.5 2193.4688,59.9219 L2193.4688,62.6406 Z "/><text fill="#000000" font-family="sans-serif" font-size="12" lengthAdjust="spacingAndGlyphs" textLength="113" x="2204.5" y="61.1543">ChicagoPizzaStore</text><line style="stroke: #A80036; stroke-width: 1.5;" x1="2176.5" x2="2319.5" y1="73" y2="73"/><line style="stroke: #A80036; stroke-width: 1.5;" x1="2176.5" x2="2319.5" y1="81" y2="81"/><!--MD5=[c17087c4f1db151cf233386581fffd81]
class headfirst.factory.pizzafm.ChicagoStyleCheesePizza--><rect codeLine="4" fill="#FEFECE" filter="url(#f89gleq1eddy2)" height="48" id="headfirst.factory.pizzafm.ChicagoStyleCheesePizza" style="stroke: #A80036; stroke-width: 1.5;" width="188" x="1038" y="41"/><ellipse cx="1053" cy="57" fill="#ADD1B2" rx="11" ry="11" style="stroke: #A80036; stroke-width: 1.0;"/><path d="M1055.9688,62.6406 Q1055.3906,62.9375 1054.75,63.0781 Q1054.1094,63.2344 1053.4063,63.2344 Q1050.9063,63.2344 1049.5781,61.5938 Q1048.2656,59.9375 1048.2656,56.8125 Q1048.2656,53.6875 1049.5781,52.0313 Q1050.9063,50.375 1053.4063,50.375 Q1054.1094,50.375 1054.75,50.5313 Q1055.4063,50.6875 1055.9688,50.9844 L1055.9688,53.7031 Q1055.3438,53.125 1054.75,52.8594 Q1054.1563,52.5781 1053.5313,52.5781 Q1052.1875,52.5781 1051.5,53.6563 Q1050.8125,54.7188 1050.8125,56.8125 Q1050.8125,58.9063 1051.5,59.9844 Q1052.1875,61.0469 1053.5313,61.0469 Q1054.1563,61.0469 1054.75,60.7813 Q1055.3438,60.5 1055.9688,59.9219 L1055.9688,62.6406 Z "/><text fill="#000000" font-family="sans-serif" font-size="12" lengthAdjust="spacingAndGlyphs" textLength="156" x="1067" y="61.1543">ChicagoStyleCheesePizza</text><line style="stroke: #A80036; stroke-width: 1.5;" x1="1039" x2="1225" y1="73" y2="73"/><line style="stroke: #A80036; stroke-width: 1.5;" x1="1039" x2="1225" y1="81" y2="81"/><!--MD5=[6d973bc8d8673c0b0a076f218f493cc8]
class headfirst.factory.pizzafm.ChicagoStyleClamPizza--><rect codeLine="5" fill="#FEFECE" filter="url(#f89gleq1eddy2)" height="48" id="headfirst.factory.pizzafm.ChicagoStyleClamPizza" style="stroke: #A80036; stroke-width: 1.5;" width="171" x="831.5" y="41"/><ellipse cx="846.5" cy="57" fill="#ADD1B2" rx="11" ry="11" style="stroke: #A80036; stroke-width: 1.0;"/><path d="M849.4688,62.6406 Q848.8906,62.9375 848.25,63.0781 Q847.6094,63.2344 846.9063,63.2344 Q844.4063,63.2344 843.0781,61.5938 Q841.7656,59.9375 841.7656,56.8125 Q841.7656,53.6875 843.0781,52.0313 Q844.4063,50.375 846.9063,50.375 Q847.6094,50.375 848.25,50.5313 Q848.9063,50.6875 849.4688,50.9844 L849.4688,53.7031 Q848.8438,53.125 848.25,52.8594 Q847.6563,52.5781 847.0313,52.5781 Q845.6875,52.5781 845,53.6563 Q844.3125,54.7188 844.3125,56.8125 Q844.3125,58.9063 845,59.9844 Q845.6875,61.0469 847.0313,61.0469 Q847.6563,61.0469 848.25,60.7813 Q848.8438,60.5 849.4688,59.9219 L849.4688,62.6406 Z "/><text fill="#000000" font-family="sans-serif" font-size="12" lengthAdjust="spacingAndGlyphs" textLength="139" x="860.5" y="61.1543">ChicagoStyleClamPizza</text><line style="stroke: #A80036; stroke-width: 1.5;" x1="832.5" x2="1001.5" y1="73" y2="73"/><line style="stroke: #A80036; stroke-width: 1.5;" x1="832.5" x2="1001.5" y1="81" y2="81"/><!--MD5=[bd3b3cb855528c2b4b2ec3050aea7635]
class headfirst.factory.pizzafm.ChicagoStylePepperoniPizza--><rect codeLine="6" fill="#FEFECE" filter="url(#f89gleq1eddy2)" height="48" id="headfirst.factory.pizzafm.ChicagoStylePepperoniPizza" style="stroke: #A80036; stroke-width: 1.5;" width="205" x="591.5" y="41"/><ellipse cx="606.5" cy="57" fill="#ADD1B2" rx="11" ry="11" style="stroke: #A80036; stroke-width: 1.0;"/><path d="M609.4688,62.6406 Q608.8906,62.9375 608.25,63.0781 Q607.6094,63.2344 606.9063,63.2344 Q604.4063,63.2344 603.0781,61.5938 Q601.7656,59.9375 601.7656,56.8125 Q601.7656,53.6875 603.0781,52.0313 Q604.4063,50.375 606.9063,50.375 Q607.6094,50.375 608.25,50.5313 Q608.9063,50.6875 609.4688,50.9844 L609.4688,53.7031 Q608.8438,53.125 608.25,52.8594 Q607.6563,52.5781 607.0313,52.5781 Q605.6875,52.5781 605,53.6563 Q604.3125,54.7188 604.3125,56.8125 Q604.3125,58.9063 605,59.9844 Q605.6875,61.0469 607.0313,61.0469 Q607.6563,61.0469 608.25,60.7813 Q608.8438,60.5 609.4688,59.9219 L609.4688,62.6406 Z "/><text fill="#000000" font-family="sans-serif" font-size="12" lengthAdjust="spacingAndGlyphs" textLength="173" x="620.5" y="61.1543">ChicagoStylePepperoniPizza</text><line style="stroke: #A80036; stroke-width: 1.5;" x1="592.5" x2="795.5" y1="73" y2="73"/><line style="stroke: #A80036; stroke-width: 1.5;" x1="592.5" x2="795.5" y1="81" y2="81"/><!--MD5=[f69f44a854f6ccb5bbb0b76dce7b127f]
class headfirst.factory.pizzafm.ChicagoStyleVeggiePizza--><rect codeLine="7" fill="#FEFECE" filter="url(#f89gleq1eddy2)" height="48" id="headfirst.factory.pizzafm.ChicagoStyleVeggiePizza" style="stroke: #A80036; stroke-width: 1.5;" width="184" x="372" y="41"/><ellipse cx="387" cy="57" fill="#ADD1B2" rx="11" ry="11" style="stroke: #A80036; stroke-width: 1.0;"/><path d="M389.9688,62.6406 Q389.3906,62.9375 388.75,63.0781 Q388.1094,63.2344 387.4063,63.2344 Q384.9063,63.2344 383.5781,61.5938 Q382.2656,59.9375 382.2656,56.8125 Q382.2656,53.6875 383.5781,52.0313 Q384.9063,50.375 387.4063,50.375 Q388.1094,50.375 388.75,50.5313 Q389.4063,50.6875 389.9688,50.9844 L389.9688,53.7031 Q389.3438,53.125 388.75,52.8594 Q388.1563,52.5781 387.5313,52.5781 Q386.1875,52.5781 385.5,53.6563 Q384.8125,54.7188 384.8125,56.8125 Q384.8125,58.9063 385.5,59.9844 Q386.1875,61.0469 387.5313,61.0469 Q388.1563,61.0469 388.75,60.7813 Q389.3438,60.5 389.9688,59.9219 L389.9688,62.6406 Z "/><text fill="#000000" font-family="sans-serif" font-size="12" lengthAdjust="spacingAndGlyphs" textLength="152" x="401" y="61.1543">ChicagoStyleVeggiePizza</text><line style="stroke: #A80036; stroke-width: 1.5;" x1="373" x2="555" y1="73" y2="73"/><line style="stroke: #A80036; stroke-width: 1.5;" x1="373" x2="555" y1="81" y2="81"/><!--MD5=[e37a44f93f7a624ab1649f257b66a9a1]
class headfirst.factory.pizzafm.DependentPizzaStore--><rect codeLine="8" fill="#FEFECE" filter="url(#f89gleq1eddy2)" height="48" id="headfirst.factory.pizzafm.DependentPizzaStore" style="stroke: #A80036; stroke-width: 1.5;" width="165" x="1261.5" y="41"/><ellipse cx="1276.5" cy="57" fill="#ADD1B2" rx="11" ry="11" style="stroke: #A80036; stroke-width: 1.0;"/><path d="M1279.4688,62.6406 Q1278.8906,62.9375 1278.25,63.0781 Q1277.6094,63.2344 1276.9063,63.2344 Q1274.4063,63.2344 1273.0781,61.5938 Q1271.7656,59.9375 1271.7656,56.8125 Q1271.7656,53.6875 1273.0781,52.0313 Q1274.4063,50.375 1276.9063,50.375 Q1277.6094,50.375 1278.25,50.5313 Q1278.9063,50.6875 1279.4688,50.9844 L1279.4688,53.7031 Q1278.8438,53.125 1278.25,52.8594 Q1277.6563,52.5781 1277.0313,52.5781 Q1275.6875,52.5781 1275,53.6563 Q1274.3125,54.7188 1274.3125,56.8125 Q1274.3125,58.9063 1275,59.9844 Q1275.6875,61.0469 1277.0313,61.0469 Q1277.6563,61.0469 1278.25,60.7813 Q1278.8438,60.5 1279.4688,59.9219 L1279.4688,62.6406 Z "/><text fill="#000000" font-family="sans-serif" font-size="12" lengthAdjust="spacingAndGlyphs" textLength="133" x="1290.5" y="61.1543">DependentPizzaStore</text><line style="stroke: #A80036; stroke-width: 1.5;" x1="1262.5" x2="1425.5" y1="73" y2="73"/><line style="stroke: #A80036; stroke-width: 1.5;" x1="1262.5" x2="1425.5" y1="81" y2="81"/><!--MD5=[79846bea19c5487ccc1f69cfa69e58f8]
class headfirst.factory.pizzafm.NYPizzaStore--><rect codeLine="9" fill="#FEFECE" filter="url(#f89gleq1eddy2)" height="48" id="headfirst.factory.pizzafm.NYPizzaStore" style="stroke: #A80036; stroke-width: 1.5;" width="111" x="2029.5" y="41"/><ellipse cx="2044.5" cy="57" fill="#ADD1B2" rx="11" ry="11" style="stroke: #A80036; stroke-width: 1.0;"/><path d="M2047.4688,62.6406 Q2046.8906,62.9375 2046.25,63.0781 Q2045.6094,63.2344 2044.9063,63.2344 Q2042.4063,63.2344 2041.0781,61.5938 Q2039.7656,59.9375 2039.7656,56.8125 Q2039.7656,53.6875 2041.0781,52.0313 Q2042.4063,50.375 2044.9063,50.375 Q2045.6094,50.375 2046.25,50.5313 Q2046.9063,50.6875 2047.4688,50.9844 L2047.4688,53.7031 Q2046.8438,53.125 2046.25,52.8594 Q2045.6563,52.5781 2045.0313,52.5781 Q2043.6875,52.5781 2043,53.6563 Q2042.3125,54.7188 2042.3125,56.8125 Q2042.3125,58.9063 2043,59.9844 Q2043.6875,61.0469 2045.0313,61.0469 Q2045.6563,61.0469 2046.25,60.7813 Q2046.8438,60.5 2047.4688,59.9219 L2047.4688,62.6406 Z "/><text fill="#000000" font-family="sans-serif" font-size="12" lengthAdjust="spacingAndGlyphs" textLength="79" x="2058.5" y="61.1543">NYPizzaStore</text><line style="stroke: #A80036; stroke-width: 1.5;" x1="2030.5" x2="2139.5" y1="73" y2="73"/><line style="stroke: #A80036; stroke-width: 1.5;" x1="2030.5" x2="2139.5" y1="81" y2="81"/><!--MD5=[3a97ca0922b60d3c4e09490b26ef7e68]
class headfirst.factory.pizzafm.NYStyleCheesePizza--><rect codeLine="10" fill="#FEFECE" filter="url(#f89gleq1eddy2)" height="48" id="headfirst.factory.pizzafm.NYStyleCheesePizza" style="stroke: #A80036; stroke-width: 1.5;" width="154" x="1840" y="41"/><ellipse cx="1855" cy="57" fill="#ADD1B2" rx="11" ry="11" style="stroke: #A80036; stroke-width: 1.0;"/><path d="M1857.9688,62.6406 Q1857.3906,62.9375 1856.75,63.0781 Q1856.1094,63.2344 1855.4063,63.2344 Q1852.9063,63.2344 1851.5781,61.5938 Q1850.2656,59.9375 1850.2656,56.8125 Q1850.2656,53.6875 1851.5781,52.0313 Q1852.9063,50.375 1855.4063,50.375 Q1856.1094,50.375 1856.75,50.5313 Q1857.4063,50.6875 1857.9688,50.9844 L1857.9688,53.7031 Q1857.3438,53.125 1856.75,52.8594 Q1856.1563,52.5781 1855.5313,52.5781 Q1854.1875,52.5781 1853.5,53.6563 Q1852.8125,54.7188 1852.8125,56.8125 Q1852.8125,58.9063 1853.5,59.9844 Q1854.1875,61.0469 1855.5313,61.0469 Q1856.1563,61.0469 1856.75,60.7813 Q1857.3438,60.5 1857.9688,59.9219 L1857.9688,62.6406 Z "/><text fill="#000000" font-family="sans-serif" font-size="12" lengthAdjust="spacingAndGlyphs" textLength="122" x="1869" y="61.1543">NYStyleCheesePizza</text><line style="stroke: #A80036; stroke-width: 1.5;" x1="1841" x2="1993" y1="73" y2="73"/><line style="stroke: #A80036; stroke-width: 1.5;" x1="1841" x2="1993" y1="81" y2="81"/><!--MD5=[9b346682528faea82499b8b6539b78dd]
class headfirst.factory.pizzafm.NYStyleClamPizza--><rect codeLine="11" fill="#FEFECE" filter="url(#f89gleq1eddy2)" height="48" id="headfirst.factory.pizzafm.NYStyleClamPizza" style="stroke: #A80036; stroke-width: 1.5;" width="137" x="1667.5" y="41"/><ellipse cx="1682.5" cy="57" fill="#ADD1B2" rx="11" ry="11" style="stroke: #A80036; stroke-width: 1.0;"/><path d="M1685.4688,62.6406 Q1684.8906,62.9375 1684.25,63.0781 Q1683.6094,63.2344 1682.9063,63.2344 Q1680.4063,63.2344 1679.0781,61.5938 Q1677.7656,59.9375 1677.7656,56.8125 Q1677.7656,53.6875 1679.0781,52.0313 Q1680.4063,50.375 1682.9063,50.375 Q1683.6094,50.375 1684.25,50.5313 Q1684.9063,50.6875 1685.4688,50.9844 L1685.4688,53.7031 Q1684.8438,53.125 1684.25,52.8594 Q1683.6563,52.5781 1683.0313,52.5781 Q1681.6875,52.5781 1681,53.6563 Q1680.3125,54.7188 1680.3125,56.8125 Q1680.3125,58.9063 1681,59.9844 Q1681.6875,61.0469 1683.0313,61.0469 Q1683.6563,61.0469 1684.25,60.7813 Q1684.8438,60.5 1685.4688,59.9219 L1685.4688,62.6406 Z "/><text fill="#000000" font-family="sans-serif" font-size="12" lengthAdjust="spacingAndGlyphs" textLength="105" x="1696.5" y="61.1543">NYStyleClamPizza</text><line style="stroke: #A80036; stroke-width: 1.5;" x1="1668.5" x2="1803.5" y1="73" y2="73"/><line style="stroke: #A80036; stroke-width: 1.5;" x1="1668.5" x2="1803.5" y1="81" y2="81"/><!--MD5=[c09aeebf90f791b8a29a04e8687fb032]
class headfirst.factory.pizzafm.NYStylePepperoniPizza--><rect codeLine="12" fill="#FEFECE" filter="url(#f89gleq1eddy2)" height="48" id="headfirst.factory.pizzafm.NYStylePepperoniPizza" style="stroke: #A80036; stroke-width: 1.5;" width="171" x="1461.5" y="41"/><ellipse cx="1476.5" cy="57" fill="#ADD1B2" rx="11" ry="11" style="stroke: #A80036; stroke-width: 1.0;"/><path d="M1479.4688,62.6406 Q1478.8906,62.9375 1478.25,63.0781 Q1477.6094,63.2344 1476.9063,63.2344 Q1474.4063,63.2344 1473.0781,61.5938 Q1471.7656,59.9375 1471.7656,56.8125 Q1471.7656,53.6875 1473.0781,52.0313 Q1474.4063,50.375 1476.9063,50.375 Q1477.6094,50.375 1478.25,50.5313 Q1478.9063,50.6875 1479.4688,50.9844 L1479.4688,53.7031 Q1478.8438,53.125 1478.25,52.8594 Q1477.6563,52.5781 1477.0313,52.5781 Q1475.6875,52.5781 1475,53.6563 Q1474.3125,54.7188 1474.3125,56.8125 Q1474.3125,58.9063 1475,59.9844 Q1475.6875,61.0469 1477.0313,61.0469 Q1477.6563,61.0469 1478.25,60.7813 Q1478.8438,60.5 1479.4688,59.9219 L1479.4688,62.6406 Z "/><text fill="#000000" font-family="sans-serif" font-size="12" lengthAdjust="spacingAndGlyphs" textLength="139" x="1490.5" y="61.1543">NYStylePepperoniPizza</text><line style="stroke: #A80036; stroke-width: 1.5;" x1="1462.5" x2="1631.5" y1="73" y2="73"/><line style="stroke: #A80036; stroke-width: 1.5;" x1="1462.5" x2="1631.5" y1="81" y2="81"/><!--MD5=[4c00836aa8ccf7165aa50e7ace5c3efa]
class headfirst.factory.pizzafm.NYStyleVeggiePizza--><rect codeLine="13" fill="#FEFECE" filter="url(#f89gleq1eddy2)" height="48" id="headfirst.factory.pizzafm.NYStyleVeggiePizza" style="stroke: #A80036; stroke-width: 1.5;" width="150" x="187" y="41"/><ellipse cx="202" cy="57" fill="#ADD1B2" rx="11" ry="11" style="stroke: #A80036; stroke-width: 1.0;"/><path d="M204.9688,62.6406 Q204.3906,62.9375 203.75,63.0781 Q203.1094,63.2344 202.4063,63.2344 Q199.9063,63.2344 198.5781,61.5938 Q197.2656,59.9375 197.2656,56.8125 Q197.2656,53.6875 198.5781,52.0313 Q199.9063,50.375 202.4063,50.375 Q203.1094,50.375 203.75,50.5313 Q204.4063,50.6875 204.9688,50.9844 L204.9688,53.7031 Q204.3438,53.125 203.75,52.8594 Q203.1563,52.5781 202.5313,52.5781 Q201.1875,52.5781 200.5,53.6563 Q199.8125,54.7188 199.8125,56.8125 Q199.8125,58.9063 200.5,59.9844 Q201.1875,61.0469 202.5313,61.0469 Q203.1563,61.0469 203.75,60.7813 Q204.3438,60.5 204.9688,59.9219 L204.9688,62.6406 Z "/><text fill="#000000" font-family="sans-serif" font-size="12" lengthAdjust="spacingAndGlyphs" textLength="118" x="216" y="61.1543">NYStyleVeggiePizza</text><line style="stroke: #A80036; stroke-width: 1.5;" x1="188" x2="336" y1="73" y2="73"/><line style="stroke: #A80036; stroke-width: 1.5;" x1="188" x2="336" y1="81" y2="81"/><!--MD5=[4ec1b3d72726f21bb731b0ccbebcaa45]
class headfirst.factory.pizzafm.PizzaTestDrive--><rect codeLine="14" fill="#FEFECE" filter="url(#f89gleq1eddy2)" height="48" id="headfirst.factory.pizzafm.PizzaTestDrive" style="stroke: #A80036; stroke-width: 1.5;" width="119" x="32.5" y="41"/><ellipse cx="47.5" cy="57" fill="#ADD1B2" rx="11" ry="11" style="stroke: #A80036; stroke-width: 1.0;"/><path d="M50.4688,62.6406 Q49.8906,62.9375 49.25,63.0781 Q48.6094,63.2344 47.9063,63.2344 Q45.4063,63.2344 44.0781,61.5938 Q42.7656,59.9375 42.7656,56.8125 Q42.7656,53.6875 44.0781,52.0313 Q45.4063,50.375 47.9063,50.375 Q48.6094,50.375 49.25,50.5313 Q49.9063,50.6875 50.4688,50.9844 L50.4688,53.7031 Q49.8438,53.125 49.25,52.8594 Q48.6563,52.5781 48.0313,52.5781 Q46.6875,52.5781 46,53.6563 Q45.3125,54.7188 45.3125,56.8125 Q45.3125,58.9063 46,59.9844 Q46.6875,61.0469 48.0313,61.0469 Q48.6563,61.0469 49.25,60.7813 Q49.8438,60.5 50.4688,59.9219 L50.4688,62.6406 Z "/><text fill="#000000" font-family="sans-serif" font-size="12" lengthAdjust="spacingAndGlyphs" textLength="87" x="61.5" y="61.1543">PizzaTestDrive</text><line style="stroke: #A80036; stroke-width: 1.5;" x1="33.5" x2="150.5" y1="73" y2="73"/><line style="stroke: #A80036; stroke-width: 1.5;" x1="33.5" x2="150.5" y1="81" y2="81"/><!--MD5=[8479184e23c2bec09445fccfd361f5d2]
class java.util.ArrayList--><rect codeLine="15" fill="#FEFECE" filter="url(#f89gleq1eddy2)" height="48" id="java.util.ArrayList" style="stroke: #A80036; stroke-width: 1.5;" width="85" x="981.5" y="272"/><ellipse cx="996.5" cy="288" fill="#ADD1B2" rx="11" ry="11" style="stroke: #A80036; stroke-width: 1.0;"/><path d="M999.4688,293.6406 Q998.8906,293.9375 998.25,294.0781 Q997.6094,294.2344 996.9063,294.2344 Q994.4063,294.2344 993.0781,292.5938 Q991.7656,290.9375 991.7656,287.8125 Q991.7656,284.6875 993.0781,283.0313 Q994.4063,281.375 996.9063,281.375 Q997.6094,281.375 998.25,281.5313 Q998.9063,281.6875 999.4688,281.9844 L999.4688,284.7031 Q998.8438,284.125 998.25,283.8594 Q997.6563,283.5781 997.0313,283.5781 Q995.6875,283.5781 995,284.6563 Q994.3125,285.7188 994.3125,287.8125 Q994.3125,289.9063 995,290.9844 Q995.6875,292.0469 997.0313,292.0469 Q997.6563,292.0469 998.25,291.7813 Q998.8438,291.5 999.4688,290.9219 L999.4688,293.6406 Z "/><text fill="#000000" font-family="sans-serif" font-size="12" lengthAdjust="spacingAndGlyphs" textLength="53" x="1010.5" y="292.1543">ArrayList</text><line style="stroke: #A80036; stroke-width: 1.5;" x1="982.5" x2="1065.5" y1="304" y2="304"/><line style="stroke: #A80036; stroke-width: 1.5;" x1="982.5" x2="1065.5" y1="312" y2="312"/><!--MD5=[784ef8b814fc9d265f89543f30c49184]
link headfirst.factory.pizzafm.Pizza to java.util.ArrayList--><path codeLine="16" d="M1024,197.04 C1024,216.77 1024,245.24 1024,266.41 " fill="none" id="headfirst.factory.pizzafm.Pizza-to-java.util.ArrayList" style="stroke: #A80036; stroke-width: 1.0; stroke-dasharray: 7.0,7.0;"/><polygon fill="#A80036" points="1024,271.63,1028,262.63,1024,266.63,1020,262.63,1024,271.63" style="stroke: #A80036; stroke-width: 1.0;"/><!--MD5=[40baec2dd406c00b874fbd5e82741e74]
link headfirst.factory.pizzafm.ChicagoPizzaStore to headfirst.factory.pizzafm.PizzaStore--><path codeLine="17" d="M2230.21,89 C2220.39,101.69 2207.92,117.81 2196.59,132.45 " fill="none" id="headfirst.factory.pizzafm.ChicagoPizzaStore-to-headfirst.factory.pizzafm.PizzaStore" style="stroke: #A80036; stroke-width: 1.0;"/><polygon fill="none" points="2201.82,137.14,2184.04,148.68,2190.74,128.58,2201.82,137.14" style="stroke: #A80036; stroke-width: 1.0;"/><!--MD5=[143cce3013bdf8f3b5c4feb9a88efff4]
link headfirst.factory.pizzafm.ChicagoStyleCheesePizza to headfirst.factory.pizzafm.Pizza--><path codeLine="18" d="M1108.57,89 C1095.07,102.24 1077.78,119.21 1062.36,134.35 " fill="none" id="headfirst.factory.pizzafm.ChicagoStyleCheesePizza-to-headfirst.factory.pizzafm.Pizza" style="stroke: #A80036; stroke-width: 1.0;"/><polygon fill="none" points="1066.94,139.66,1047.76,148.68,1057.13,129.67,1066.94,139.66" style="stroke: #A80036; stroke-width: 1.0;"/><!--MD5=[7031224bab75f9d79b85fbd8147d4a9e]
link headfirst.factory.pizzafm.ChicagoStyleClamPizza to headfirst.factory.pizzafm.Pizza--><path codeLine="19" d="M940.22,89 C953.59,102.24 970.72,119.21 986,134.35 " fill="none" id="headfirst.factory.pizzafm.ChicagoStyleClamPizza-to-headfirst.factory.pizzafm.Pizza" style="stroke: #A80036; stroke-width: 1.0;"/><polygon fill="none" points="991.18,129.63,1000.46,148.68,981.32,139.58,991.18,129.63" style="stroke: #A80036; stroke-width: 1.0;"/><!--MD5=[6469dc2a2032c95efa2c58eb19fb3b53]
link headfirst.factory.pizzafm.ChicagoStylePepperoniPizza to headfirst.factory.pizzafm.Pizza--><path codeLine="20" d="M765.61,89 C828.44,109.18 918.22,138.02 973.72,155.85 " fill="none" id="headfirst.factory.pizzafm.ChicagoStylePepperoniPizza-to-headfirst.factory.pizzafm.Pizza" style="stroke: #A80036; stroke-width: 1.0;"/><polygon fill="none" points="975.94,149.21,992.84,161.99,971.66,162.54,975.94,149.21" style="stroke: #A80036; stroke-width: 1.0;"/><!--MD5=[08f2cea16f2d6dbaa4cd921e4e0e50db]
link headfirst.factory.pizzafm.ChicagoStyleVeggiePizza to headfirst.factory.pizzafm.Pizza--><path codeLine="21" d="M556.1,85.42 C562.15,86.65 568.16,87.85 574,89 C718.49,117.43 889.67,148.2 973.13,163.02 " fill="none" id="headfirst.factory.pizzafm.ChicagoStyleVeggiePizza-to-headfirst.factory.pizzafm.Pizza" style="stroke: #A80036; stroke-width: 1.0;"/><polygon fill="none" points="974.38,156.14,992.85,166.52,971.94,169.92,974.38,156.14" style="stroke: #A80036; stroke-width: 1.0;"/><!--MD5=[47f7a6377d07024ff1ab33d91ca3e8d2]
link headfirst.factory.pizzafm.NYPizzaStore to headfirst.factory.pizzafm.PizzaStore--><path codeLine="22" d="M2102.58,89 C2112.27,101.69 2124.59,117.81 2135.78,132.45 " fill="none" id="headfirst.factory.pizzafm.NYPizzaStore-to-headfirst.factory.pizzafm.PizzaStore" style="stroke: #A80036; stroke-width: 1.0;"/><polygon fill="none" points="2141.6,128.54,2148.18,148.68,2130.47,137.04,2141.6,128.54" style="stroke: #A80036; stroke-width: 1.0;"/><!--MD5=[ce1697c4f842729c21ad529a85e9fea4]
link headfirst.factory.pizzafm.NYStyleCheesePizza to headfirst.factory.pizzafm.Pizza--><path codeLine="23" d="M1839.93,85.57 C1833.88,86.83 1827.85,87.99 1822,89 C1542.33,137.18 1202.37,161.24 1075.22,169.06 " fill="none" id="headfirst.factory.pizzafm.NYStyleCheesePizza-to-headfirst.factory.pizzafm.Pizza" style="stroke: #A80036; stroke-width: 1.0;"/><polygon fill="none" points="1075.4,176.06,1055.01,170.27,1074.56,162.09,1075.4,176.06" style="stroke: #A80036; stroke-width: 1.0;"/><!--MD5=[cca01417e13988e482e7d4bda8553ee9]
link headfirst.factory.pizzafm.NYStyleClamPizza to headfirst.factory.pizzafm.Pizza--><path codeLine="24" d="M1667.18,85.25 C1661.39,86.61 1655.61,87.88 1650,89 C1438.51,131.12 1182.45,157.51 1075.16,167.48 " fill="none" id="headfirst.factory.pizzafm.NYStyleClamPizza-to-headfirst.factory.pizzafm.Pizza" style="stroke: #A80036; stroke-width: 1.0;"/><polygon fill="none" points="1075.73,174.46,1055.17,169.31,1074.45,160.52,1075.73,174.46" style="stroke: #A80036; stroke-width: 1.0;"/><!--MD5=[6f75161612b9bb772fae3f4b02e73ae3]
link headfirst.factory.pizzafm.NYStylePepperoniPizza to headfirst.factory.pizzafm.Pizza--><path codeLine="25" d="M1461.33,85.3 C1455.47,86.57 1449.65,87.81 1444,89 C1311.08,116.97 1153.91,147.3 1074.84,162.37 " fill="none" id="headfirst.factory.pizzafm.NYStylePepperoniPizza-to-headfirst.factory.pizzafm.Pizza" style="stroke: #A80036; stroke-width: 1.0;"/><polygon fill="none" points="1076.1,169.26,1055.14,166.12,1073.48,155.5,1076.1,169.26" style="stroke: #A80036; stroke-width: 1.0;"/><!--MD5=[f109ad49425bf17092821e757d34ea06]
link headfirst.factory.pizzafm.NYStyleVeggiePizza to headfirst.factory.pizzafm.Pizza--><path codeLine="26" d="M337.21,85.41 C343.21,86.71 349.19,87.93 355,89 C583.46,131.27 859.89,157.89 972.51,167.72 " fill="none" id="headfirst.factory.pizzafm.NYStyleVeggiePizza-to-headfirst.factory.pizzafm.Pizza" style="stroke: #A80036; stroke-width: 1.0;"/><polygon fill="none" points="973.46,160.77,992.79,169.46,972.26,174.72,973.46,160.77" style="stroke: #A80036; stroke-width: 1.0;"/><!--MD5=[ab8d95de309ad9d29a5a7db3c406c8cf]
@startuml
abstract class headfirst.factory.pizzafm.Pizza
abstract class headfirst.factory.pizzafm.PizzaStore
class headfirst.factory.pizzafm.ChicagoPizzaStore
class headfirst.factory.pizzafm.ChicagoStyleCheesePizza
class headfirst.factory.pizzafm.ChicagoStyleClamPizza
class headfirst.factory.pizzafm.ChicagoStylePepperoniPizza
class headfirst.factory.pizzafm.ChicagoStyleVeggiePizza
class headfirst.factory.pizzafm.DependentPizzaStore
class headfirst.factory.pizzafm.NYPizzaStore
class headfirst.factory.pizzafm.NYStyleCheesePizza
class headfirst.factory.pizzafm.NYStyleClamPizza
class headfirst.factory.pizzafm.NYStylePepperoniPizza
class headfirst.factory.pizzafm.NYStyleVeggiePizza
class headfirst.factory.pizzafm.PizzaTestDrive
class java.util.ArrayList
headfirst.factory.pizzafm.Pizza ..> java.util.ArrayList
headfirst.factory.pizzafm.ChicagoPizzaStore - -|> headfirst.factory.pizzafm.PizzaStore
headfirst.factory.pizzafm.ChicagoStyleCheesePizza - -|> headfirst.factory.pizzafm.Pizza
headfirst.factory.pizzafm.ChicagoStyleClamPizza - -|> headfirst.factory.pizzafm.Pizza
headfirst.factory.pizzafm.ChicagoStylePepperoniPizza - -|> headfirst.factory.pizzafm.Pizza
headfirst.factory.pizzafm.ChicagoStyleVeggiePizza - -|> headfirst.factory.pizzafm.Pizza
headfirst.factory.pizzafm.NYPizzaStore - -|> headfirst.factory.pizzafm.PizzaStore
headfirst.factory.pizzafm.NYStyleCheesePizza - -|> headfirst.factory.pizzafm.Pizza
headfirst.factory.pizzafm.NYStyleClamPizza - -|> headfirst.factory.pizzafm.Pizza
headfirst.factory.pizzafm.NYStylePepperoniPizza - -|> headfirst.factory.pizzafm.Pizza
headfirst.factory.pizzafm.NYStyleVeggiePizza - -|> headfirst.factory.pizzafm.Pizza
@enduml

PlantUML version 1.2020.18(Wed Sep 30 22:40:44 EEST 2020)
(GPL source distribution)
Java Runtime: OpenJDK Runtime Environment
JVM: OpenJDK 64-Bit Server VM
Default Encoding: UTF-8
Language: en
Country: US
--></g></svg>