<?xml version="1.0" encoding="UTF-8" standalone="no"?><svg xmlns="http://www.w3.org/2000/svg" xmlns:xlink="http://www.w3.org/1999/xlink" contentScriptType="application/ecmascript" contentStyleType="text/css" height="393px" preserveAspectRatio="none" style="width:813px;height:393px;background:#87CEFA;" version="1.1" viewBox="0 0 813 393" width="813px" zoomAndPan="magnify"><defs/><g><text fill="#000000" font-family="sans-serif" font-size="18" lengthAdjust="spacingAndGlyphs" textLength="222" x="299" y="16.708">builder and robot builder</text><!--class BuilderIF--><rect fill="#FEFECE" height="82.9219" id="BuilderIF" style="stroke: #A80036; stroke-width: 1.5;" width="240" x="6" y="113.9531"/><ellipse cx="81.75" cy="129.9531" fill="#B4A7E5" rx="11" ry="11" style="stroke: #A80036; stroke-width: 1.0;"/><path d="M77.6719,125.7188 L77.6719,123.5625 L85.0625,123.5625 L85.0625,125.7188 L82.5938,125.7188 L82.5938,133.7969 L85.0625,133.7969 L85.0625,135.9531 L77.6719,135.9531 L77.6719,133.7969 L80.1406,133.7969 L80.1406,125.7188 L77.6719,125.7188 Z "/><text fill="#FF0000" font-family="sans-serif" font-size="16" font-style="italic" font-weight="bold" lengthAdjust="spacingAndGlyphs" textLength="80" x="102.25" y="135.4922">BuilderIF</text><line style="stroke: #A80036; stroke-width: 1.5;" x1="7" x2="245" y1="145.9531" y2="145.9531"/><line style="stroke: #A80036; stroke-width: 1.5;" x1="7" x2="245" y1="153.9531" y2="153.9531"/><text fill="#000000" font-family="sans-serif" font-size="15" font-weight="bold" lengthAdjust="spacingAndGlyphs" textLength="176" x="12" y="171.8765">void buildCustomer();</text><text fill="#000000" font-family="sans-serif" font-size="15" font-weight="bold" lengthAdjust="spacingAndGlyphs" textLength="228" x="12" y="189.3374">CustomerIF getCustomer();</text><!--class Builder--><rect fill="#FEFECE" height="100.3828" id="Builder" style="stroke: #A80036; stroke-width: 1.5;" width="496" x="306" y="164.4531"/><ellipse cx="519.25" cy="180.4531" fill="#ADD1B2" rx="11" ry="11" style="stroke: #A80036; stroke-width: 1.0;"/><path d="M522.2188,186.0938 Q521.6406,186.3906 521,186.5313 Q520.3594,186.6875 519.6563,186.6875 Q517.1563,186.6875 515.8281,185.0469 Q514.5156,183.3906 514.5156,180.2656 Q514.5156,177.1406 515.8281,175.4844 Q517.1563,173.8281 519.6563,173.8281 Q520.3594,173.8281 521,173.9844 Q521.6563,174.1406 522.2188,174.4375 L522.2188,177.1563 Q521.5938,176.5781 521,176.3125 Q520.4063,176.0313 519.7813,176.0313 Q518.4375,176.0313 517.75,177.1094 Q517.0625,178.1719 517.0625,180.2656 Q517.0625,182.3594 517.75,183.4375 Q518.4375,184.5 519.7813,184.5 Q520.4063,184.5 521,184.2344 Q521.5938,183.9531 522.2188,183.375 L522.2188,186.0938 Z "/><text fill="#FF0000" font-family="sans-serif" font-size="16" font-weight="bold" lengthAdjust="spacingAndGlyphs" textLength="61" x="539.75" y="185.9922">Builder</text><line style="stroke: #A80036; stroke-width: 1.5;" x1="307" x2="801" y1="196.4531" y2="196.4531"/><text fill="#000000" font-family="sans-serif" font-size="15" font-weight="bold" lengthAdjust="spacingAndGlyphs" textLength="185" x="312" y="214.3765">CustomerIF customer;</text><line style="stroke: #A80036; stroke-width: 1.5;" x1="307" x2="801" y1="221.9141" y2="221.9141"/><text fill="#000000" font-family="sans-serif" font-size="15" font-weight="bold" lengthAdjust="spacingAndGlyphs" textLength="484" x="312" y="239.8374">public void buildCustomer(){customer = new Customer();}</text><text fill="#000000" font-family="sans-serif" font-size="15" font-weight="bold" lengthAdjust="spacingAndGlyphs" textLength="472" x="312" y="257.2983">public CustomerIF getCustomer(){return this.customer;}</text><!--class CustomerIF--><rect fill="#FEFECE" height="65.4609" id="CustomerIF" style="stroke: #A80036; stroke-width: 1.5;" width="136" x="58" y="240.9531"/><ellipse cx="73" cy="256.9531" fill="#B4A7E5" rx="11" ry="11" style="stroke: #A80036; stroke-width: 1.0;"/><path d="M68.9219,252.7188 L68.9219,250.5625 L76.3125,250.5625 L76.3125,252.7188 L73.8438,252.7188 L73.8438,260.7969 L76.3125,260.7969 L76.3125,262.9531 L68.9219,262.9531 L68.9219,260.7969 L71.3906,260.7969 L71.3906,252.7188 L68.9219,252.7188 Z "/><text fill="#FF0000" font-family="sans-serif" font-size="16" font-style="italic" font-weight="bold" lengthAdjust="spacingAndGlyphs" textLength="104" x="87" y="262.4922">CustomerIF</text><line style="stroke: #A80036; stroke-width: 1.5;" x1="59" x2="193" y1="272.9531" y2="272.9531"/><line style="stroke: #A80036; stroke-width: 1.5;" x1="59" x2="193" y1="280.9531" y2="280.9531"/><text fill="#000000" font-family="sans-serif" font-size="15" font-weight="bold" lengthAdjust="spacingAndGlyphs" textLength="108" x="64" y="298.8765">void action();</text><!--class Customer--><rect fill="#FEFECE" height="82.9219" id="Customer" style="stroke: #A80036; stroke-width: 1.5;" width="445" x="331.5" y="299.9531"/><ellipse cx="506.25" cy="315.9531" fill="#ADD1B2" rx="11" ry="11" style="stroke: #A80036; stroke-width: 1.0;"/><path d="M509.2188,321.5938 Q508.6406,321.8906 508,322.0313 Q507.3594,322.1875 506.6563,322.1875 Q504.1563,322.1875 502.8281,320.5469 Q501.5156,318.8906 501.5156,315.7656 Q501.5156,312.6406 502.8281,310.9844 Q504.1563,309.3281 506.6563,309.3281 Q507.3594,309.3281 508,309.4844 Q508.6563,309.6406 509.2188,309.9375 L509.2188,312.6563 Q508.5938,312.0781 508,311.8125 Q507.4063,311.5313 506.7813,311.5313 Q505.4375,311.5313 504.75,312.6094 Q504.0625,313.6719 504.0625,315.7656 Q504.0625,317.8594 504.75,318.9375 Q505.4375,320 506.7813,320 Q507.4063,320 508,319.7344 Q508.5938,319.4531 509.2188,318.875 L509.2188,321.5938 Z "/><text fill="#FF0000" font-family="sans-serif" font-size="16" font-weight="bold" lengthAdjust="spacingAndGlyphs" textLength="87" x="526.75" y="321.4922">Customer</text><line style="stroke: #A80036; stroke-width: 1.5;" x1="332.5" x2="775.5" y1="331.9531" y2="331.9531"/><line style="stroke: #A80036; stroke-width: 1.5;" x1="332.5" x2="775.5" y1="339.9531" y2="339.9531"/><text fill="#000000" font-family="sans-serif" font-size="15" font-weight="bold" lengthAdjust="spacingAndGlyphs" textLength="428" x="337.5" y="357.8765">public Customer(){print(" customer constructed");}</text><text fill="#000000" font-family="sans-serif" font-size="15" font-weight="bold" lengthAdjust="spacingAndGlyphs" textLength="433" x="337.5" y="375.3374">public void action(){print(" customer action done");}</text><!--class Director--><rect fill="#FEFECE" height="100.3828" id="Director" style="stroke: #A80036; stroke-width: 1.5;" width="463" x="322.5" y="29.4531"/><ellipse cx="513.25" cy="45.4531" fill="#ADD1B2" rx="11" ry="11" style="stroke: #A80036; stroke-width: 1.0;"/><path d="M516.2188,51.0938 Q515.6406,51.3906 515,51.5313 Q514.3594,51.6875 513.6563,51.6875 Q511.1563,51.6875 509.8281,50.0469 Q508.5156,48.3906 508.5156,45.2656 Q508.5156,42.1406 509.8281,40.4844 Q511.1563,38.8281 513.6563,38.8281 Q514.3594,38.8281 515,38.9844 Q515.6563,39.1406 516.2188,39.4375 L516.2188,42.1563 Q515.5938,41.5781 515,41.3125 Q514.4063,41.0313 513.7813,41.0313 Q512.4375,41.0313 511.75,42.1094 Q511.0625,43.1719 511.0625,45.2656 Q511.0625,47.3594 511.75,48.4375 Q512.4375,49.5 513.7813,49.5 Q514.4063,49.5 515,49.2344 Q515.5938,48.9531 516.2188,48.375 L516.2188,51.0938 Z "/><text fill="#FF0000" font-family="sans-serif" font-size="16" font-weight="bold" lengthAdjust="spacingAndGlyphs" textLength="73" x="533.75" y="50.9922">Director</text><line style="stroke: #A80036; stroke-width: 1.5;" x1="323.5" x2="784.5" y1="61.4531" y2="61.4531"/><text fill="#000000" font-family="sans-serif" font-size="15" font-weight="bold" lengthAdjust="spacingAndGlyphs" textLength="138" x="328.5" y="79.3765">BuilderIF builder;</text><line style="stroke: #A80036; stroke-width: 1.5;" x1="323.5" x2="784.5" y1="86.9141" y2="86.9141"/><text fill="#000000" font-family="sans-serif" font-size="15" font-weight="bold" lengthAdjust="spacingAndGlyphs" textLength="451" x="328.5" y="104.8374">public Director(BuilderIF builder){this.builder=builder;}</text><text fill="#000000" font-family="sans-serif" font-size="15" font-weight="bold" lengthAdjust="spacingAndGlyphs" textLength="403" x="328.5" y="122.2983">public void construct(){builder.buildCustomer();}</text><!--link BuilderIF to Director--><path d="M251.3,133.2831 C273.74,129.2731 297.79,124.9831 322.15,120.6331 " fill="none" id="BuilderIF-Director" style="stroke: #0000FF; stroke-width: 1.0;"/><polygon fill="#0000FF" points="246.23,134.1831,255.7902,136.5503,251.1532,133.3101,254.3933,128.6732,246.23,134.1831" style="stroke: #0000FF; stroke-width: 1.0;"/><!--link BuilderIF to Builder--><path d="M266.05,174.7131 C278.9,176.4931 292.16,178.3231 305.6,180.1931 " fill="none" id="BuilderIF-Builder" style="stroke: #0000FF; stroke-width: 1.0; stroke-dasharray: 7.0,7.0;"/><polygon fill="none" points="265.08,181.6431,246.23,171.9631,267,167.7731,265.08,181.6431" style="stroke: #0000FF; stroke-width: 1.0;"/><!--link CustomerIF to Customer--><path d="M213.98,287.3331 C248.4,292.8331 289.67,299.4231 331.38,306.0731 " fill="none" id="CustomerIF-Customer" style="stroke: #0000FF; stroke-width: 1.0; stroke-dasharray: 7.0,7.0;"/><polygon fill="none" points="212.68,294.2131,194.03,284.1531,214.88,280.3931,212.68,294.2131" style="stroke: #0000FF; stroke-width: 1.0;"/><!--link CustomerIF to Builder--><path d="M199.23,263.4531 C229.62,259.2431 266.93,254.0731 305.8,248.6931 " fill="none" id="CustomerIF-Builder" style="stroke: #0000FF; stroke-width: 1.0;"/><polygon fill="#0000FF" points="194.03,264.1731,203.4943,266.8985,198.9826,263.4861,202.395,258.9744,194.03,264.1731" style="stroke: #0000FF; stroke-width: 1.0;"/><!--
@startuml

title builder and robot builder 

skinparam BackgroundColor  LightSkyBlue
skinparam classFontColor red
skinparam classFontStyle bold
skinparam classFontSize 16
skinparam classAttributeFontSize 15
skinparam classAttributeFontStyle bold
skinparam classArrowColor blue
skinparam shadowing false

 left to right direction



interface BuilderIF {
void buildCustomer();
CustomerIF getCustomer();
}

class  Builder {
CustomerIF customer;
public void buildCustomer(){customer = new Customer();}
public CustomerIF getCustomer(){return this.customer;}

} 

interface CustomerIF {
 void action();
 }

class  Customer {
public Customer(){print(" customer constructed");}
public void action(){print(" customer action done");}

} 

class  Director {
BuilderIF builder;
public Director(BuilderIF builder){this.builder=builder;}
public void construct(){builder.buildCustomer();}
} 

BuilderIF <- - Director
BuilderIF <|.. Builder
CustomerIF <|.. Customer
CustomerIF <- - Builder







@enduml

PlantUML version 1.2018.10(Sat Aug 25 13:02:59 EDT 2018)
(GPL source distribution)
Java Runtime: OpenJDK Runtime Environment
JVM: OpenJDK 64-Bit Server VM
Java Version: 11.0.8+10-post-Debian-1
Operating System: Linux
OS Version: 5.6.0-kali2-amd64
Default Encoding: UTF-8
Language: en
Country: US
--></g></svg>