<?xml version="1.0" encoding="UTF-8" standalone="no"?><svg xmlns="http://www.w3.org/2000/svg" xmlns:xlink="http://www.w3.org/1999/xlink" contentScriptType="application/ecmascript" contentStyleType="text/css" height="650px" preserveAspectRatio="none" style="width:348px;height:650px;" version="1.1" viewBox="0 0 348 650" width="348px" zoomAndPan="magnify"><defs/><g><!--MD5=[a419f0db1db734b6727a6df4e4b5b467]
cluster com.graph--><polygon fill="#FFFFFF" points="16,6,106,6,113,28.2969,320.5,28.2969,320.5,354,16,354,16,6" style="stroke: #000000; stroke-width: 1.5;"/><line style="stroke: #000000; stroke-width: 1.5;" x1="16" x2="113" y1="28.2969" y2="28.2969"/><text fill="#000000" font-family="sans-serif" font-size="14" font-weight="bold" lengthAdjust="spacingAndGlyphs" textLength="84" x="20" y="20.9951">com.graph</text><!--MD5=[7db3c59d38ae5b37b484eb2df9368145]
cluster java.util--><polygon fill="#FFFFFF" points="206,378,272,378,279,400.2969,331,400.2969,331,643,206,643,206,378" style="stroke: #000000; stroke-width: 1.5;"/><line style="stroke: #000000; stroke-width: 1.5;" x1="206" x2="279" y1="400.2969" y2="400.2969"/><text fill="#000000" font-family="sans-serif" font-size="14" font-weight="bold" lengthAdjust="spacingAndGlyphs" textLength="60" x="210" y="392.9951">java.util</text><!--MD5=[84931dc01bcf305231254d6796bfc481]
class com.graph.BFSGraph--><rect codeLine="9" fill="#FEFECE" height="48" id="com.graph.BFSGraph" style="stroke: #A80036; stroke-width: 1.5;" width="93" x="50.5" y="207"/><ellipse cx="65.5" cy="223" fill="#ADD1B2" rx="11" ry="11" style="stroke: #A80036; stroke-width: 1.0;"/><path d="M68.4688,228.6406 Q67.8906,228.9375 67.25,229.0781 Q66.6094,229.2344 65.9063,229.2344 Q63.4063,229.2344 62.0781,227.5938 Q60.7656,225.9375 60.7656,222.8125 Q60.7656,219.6875 62.0781,218.0313 Q63.4063,216.375 65.9063,216.375 Q66.6094,216.375 67.25,216.5313 Q67.9063,216.6875 68.4688,216.9844 L68.4688,219.7031 Q67.8438,219.125 67.25,218.8594 Q66.6563,218.5781 66.0313,218.5781 Q64.6875,218.5781 64,219.6563 Q63.3125,220.7188 63.3125,222.8125 Q63.3125,224.9063 64,225.9844 Q64.6875,227.0469 66.0313,227.0469 Q66.6563,227.0469 67.25,226.7813 Q67.8438,226.5 68.4688,225.9219 L68.4688,228.6406 Z "/><text fill="#000000" font-family="sans-serif" font-size="12" lengthAdjust="spacingAndGlyphs" textLength="61" x="79.5" y="227.1543">BFSGraph</text><line style="stroke: #A80036; stroke-width: 1.5;" x1="51.5" x2="142.5" y1="239" y2="239"/><line style="stroke: #A80036; stroke-width: 1.5;" x1="51.5" x2="142.5" y1="247" y2="247"/><!--MD5=[5d8c6ce55f66e172cd7e0d27a7e80553]
class com.graph.BFSGraphDemo--><rect codeLine="10" fill="#FEFECE" height="48" id="com.graph.BFSGraphDemo" style="stroke: #A80036; stroke-width: 1.5;" width="129" x="32.5" y="124"/><ellipse cx="47.5" cy="140" fill="#ADD1B2" rx="11" ry="11" style="stroke: #A80036; stroke-width: 1.0;"/><path d="M50.4688,145.6406 Q49.8906,145.9375 49.25,146.0781 Q48.6094,146.2344 47.9063,146.2344 Q45.4063,146.2344 44.0781,144.5938 Q42.7656,142.9375 42.7656,139.8125 Q42.7656,136.6875 44.0781,135.0313 Q45.4063,133.375 47.9063,133.375 Q48.6094,133.375 49.25,133.5313 Q49.9063,133.6875 50.4688,133.9844 L50.4688,136.7031 Q49.8438,136.125 49.25,135.8594 Q48.6563,135.5781 48.0313,135.5781 Q46.6875,135.5781 46,136.6563 Q45.3125,137.7188 45.3125,139.8125 Q45.3125,141.9063 46,142.9844 Q46.6875,144.0469 48.0313,144.0469 Q48.6563,144.0469 49.25,143.7813 Q49.8438,143.5 50.4688,142.9219 L50.4688,145.6406 Z "/><text fill="#000000" font-family="sans-serif" font-size="12" lengthAdjust="spacingAndGlyphs" textLength="97" x="61.5" y="144.1543">BFSGraphDemo</text><line style="stroke: #A80036; stroke-width: 1.5;" x1="33.5" x2="160.5" y1="156" y2="156"/><line style="stroke: #A80036; stroke-width: 1.5;" x1="33.5" x2="160.5" y1="164" y2="164"/><!--MD5=[e15e02d9c50de7c0d16cb2869b9ce079]
class com.graph.DFSGraph--><rect codeLine="11" fill="#FEFECE" height="48" id="com.graph.DFSGraph" style="stroke: #A80036; stroke-width: 1.5;" width="94" x="50" y="290"/><ellipse cx="65" cy="306" fill="#ADD1B2" rx="11" ry="11" style="stroke: #A80036; stroke-width: 1.0;"/><path d="M67.9688,311.6406 Q67.3906,311.9375 66.75,312.0781 Q66.1094,312.2344 65.4063,312.2344 Q62.9063,312.2344 61.5781,310.5938 Q60.2656,308.9375 60.2656,305.8125 Q60.2656,302.6875 61.5781,301.0313 Q62.9063,299.375 65.4063,299.375 Q66.1094,299.375 66.75,299.5313 Q67.4063,299.6875 67.9688,299.9844 L67.9688,302.7031 Q67.3438,302.125 66.75,301.8594 Q66.1563,301.5781 65.5313,301.5781 Q64.1875,301.5781 63.5,302.6563 Q62.8125,303.7188 62.8125,305.8125 Q62.8125,307.9063 63.5,308.9844 Q64.1875,310.0469 65.5313,310.0469 Q66.1563,310.0469 66.75,309.7813 Q67.3438,309.5 67.9688,308.9219 L67.9688,311.6406 Z "/><text fill="#000000" font-family="sans-serif" font-size="12" lengthAdjust="spacingAndGlyphs" textLength="62" x="79" y="310.1543">DFSGraph</text><line style="stroke: #A80036; stroke-width: 1.5;" x1="51" x2="143" y1="322" y2="322"/><line style="stroke: #A80036; stroke-width: 1.5;" x1="51" x2="143" y1="330" y2="330"/><!--MD5=[9997d2c63fc513a97942ebd70efb6a61]
class com.graph.DFSGraphDemo--><rect codeLine="12" fill="#FEFECE" height="48" id="com.graph.DFSGraphDemo" style="stroke: #A80036; stroke-width: 1.5;" width="130" x="32" y="41"/><ellipse cx="47" cy="57" fill="#ADD1B2" rx="11" ry="11" style="stroke: #A80036; stroke-width: 1.0;"/><path d="M49.9688,62.6406 Q49.3906,62.9375 48.75,63.0781 Q48.1094,63.2344 47.4063,63.2344 Q44.9063,63.2344 43.5781,61.5938 Q42.2656,59.9375 42.2656,56.8125 Q42.2656,53.6875 43.5781,52.0313 Q44.9063,50.375 47.4063,50.375 Q48.1094,50.375 48.75,50.5313 Q49.4063,50.6875 49.9688,50.9844 L49.9688,53.7031 Q49.3438,53.125 48.75,52.8594 Q48.1563,52.5781 47.5313,52.5781 Q46.1875,52.5781 45.5,53.6563 Q44.8125,54.7188 44.8125,56.8125 Q44.8125,58.9063 45.5,59.9844 Q46.1875,61.0469 47.5313,61.0469 Q48.1563,61.0469 48.75,60.7813 Q49.3438,60.5 49.9688,59.9219 L49.9688,62.6406 Z "/><text fill="#000000" font-family="sans-serif" font-size="12" lengthAdjust="spacingAndGlyphs" textLength="98" x="61" y="61.1543">DFSGraphDemo</text><line style="stroke: #A80036; stroke-width: 1.5;" x1="33" x2="161" y1="73" y2="73"/><line style="stroke: #A80036; stroke-width: 1.5;" x1="33" x2="161" y1="81" y2="81"/><!--MD5=[c735acb6a444aee7ad187e6d0f74ee6f]
class com.graph.Node--><rect codeLine="13" fill="#FEFECE" height="48" id="com.graph.Node" style="stroke: #A80036; stroke-width: 1.5;" width="65" x="236" y="124"/><ellipse cx="251" cy="140" fill="#ADD1B2" rx="11" ry="11" style="stroke: #A80036; stroke-width: 1.0;"/><path d="M253.9688,145.6406 Q253.3906,145.9375 252.75,146.0781 Q252.1094,146.2344 251.4063,146.2344 Q248.9063,146.2344 247.5781,144.5938 Q246.2656,142.9375 246.2656,139.8125 Q246.2656,136.6875 247.5781,135.0313 Q248.9063,133.375 251.4063,133.375 Q252.1094,133.375 252.75,133.5313 Q253.4063,133.6875 253.9688,133.9844 L253.9688,136.7031 Q253.3438,136.125 252.75,135.8594 Q252.1563,135.5781 251.5313,135.5781 Q250.1875,135.5781 249.5,136.6563 Q248.8125,137.7188 248.8125,139.8125 Q248.8125,141.9063 249.5,142.9844 Q250.1875,144.0469 251.5313,144.0469 Q252.1563,144.0469 252.75,143.7813 Q253.3438,143.5 253.9688,142.9219 L253.9688,145.6406 Z "/><text fill="#000000" font-family="sans-serif" font-size="12" lengthAdjust="spacingAndGlyphs" textLength="33" x="265" y="144.1543">Node</text><line style="stroke: #A80036; stroke-width: 1.5;" x1="237" x2="300" y1="156" y2="156"/><line style="stroke: #A80036; stroke-width: 1.5;" x1="237" x2="300" y1="164" y2="164"/><!--MD5=[5751ec8eb8c19e050de940c4e03273f6]
class com.graph.adjList--><rect codeLine="14" fill="#FEFECE" height="48" id="com.graph.adjList" style="stroke: #A80036; stroke-width: 1.5;" width="72" x="232.5" y="41"/><ellipse cx="247.5" cy="57" fill="#ADD1B2" rx="11" ry="11" style="stroke: #A80036; stroke-width: 1.0;"/><path d="M250.4688,62.6406 Q249.8906,62.9375 249.25,63.0781 Q248.6094,63.2344 247.9063,63.2344 Q245.4063,63.2344 244.0781,61.5938 Q242.7656,59.9375 242.7656,56.8125 Q242.7656,53.6875 244.0781,52.0313 Q245.4063,50.375 247.9063,50.375 Q248.6094,50.375 249.25,50.5313 Q249.9063,50.6875 250.4688,50.9844 L250.4688,53.7031 Q249.8438,53.125 249.25,52.8594 Q248.6563,52.5781 248.0313,52.5781 Q246.6875,52.5781 246,53.6563 Q245.3125,54.7188 245.3125,56.8125 Q245.3125,58.9063 246,59.9844 Q246.6875,61.0469 248.0313,61.0469 Q248.6563,61.0469 249.25,60.7813 Q249.8438,60.5 250.4688,59.9219 L250.4688,62.6406 Z "/><text fill="#000000" font-family="sans-serif" font-size="12" lengthAdjust="spacingAndGlyphs" textLength="40" x="261.5" y="61.1543">adjList</text><line style="stroke: #A80036; stroke-width: 1.5;" x1="233.5" x2="303.5" y1="73" y2="73"/><line style="stroke: #A80036; stroke-width: 1.5;" x1="233.5" x2="303.5" y1="81" y2="81"/><!--MD5=[b1e08c007355abe04e5b9b19067bed84]
class java.util.LinkedList--><rect codeLine="15" fill="#FEFECE" height="48" id="java.util.LinkedList" style="stroke: #A80036; stroke-width: 1.5;" width="93" x="222" y="413"/><ellipse cx="237" cy="429" fill="#ADD1B2" rx="11" ry="11" style="stroke: #A80036; stroke-width: 1.0;"/><path d="M239.9688,434.6406 Q239.3906,434.9375 238.75,435.0781 Q238.1094,435.2344 237.4063,435.2344 Q234.9063,435.2344 233.5781,433.5938 Q232.2656,431.9375 232.2656,428.8125 Q232.2656,425.6875 233.5781,424.0313 Q234.9063,422.375 237.4063,422.375 Q238.1094,422.375 238.75,422.5313 Q239.4063,422.6875 239.9688,422.9844 L239.9688,425.7031 Q239.3438,425.125 238.75,424.8594 Q238.1563,424.5781 237.5313,424.5781 Q236.1875,424.5781 235.5,425.6563 Q234.8125,426.7188 234.8125,428.8125 Q234.8125,430.9063 235.5,431.9844 Q236.1875,433.0469 237.5313,433.0469 Q238.1563,433.0469 238.75,432.7813 Q239.3438,432.5 239.9688,431.9219 L239.9688,434.6406 Z "/><text fill="#000000" font-family="sans-serif" font-size="12" lengthAdjust="spacingAndGlyphs" textLength="61" x="251" y="433.1543">LinkedList</text><line style="stroke: #A80036; stroke-width: 1.5;" x1="223" x2="314" y1="445" y2="445"/><line style="stroke: #A80036; stroke-width: 1.5;" x1="223" x2="314" y1="453" y2="453"/><!--MD5=[4c18401927fa14a12f23fdf8863e49df]
class java.util.Queue--><rect codeLine="16" fill="#FEFECE" height="48" id="java.util.Queue" style="stroke: #A80036; stroke-width: 1.5;" width="73" x="232" y="496"/><ellipse cx="247" cy="512" fill="#ADD1B2" rx="11" ry="11" style="stroke: #A80036; stroke-width: 1.0;"/><path d="M249.9688,517.6406 Q249.3906,517.9375 248.75,518.0781 Q248.1094,518.2344 247.4063,518.2344 Q244.9063,518.2344 243.5781,516.5938 Q242.2656,514.9375 242.2656,511.8125 Q242.2656,508.6875 243.5781,507.0313 Q244.9063,505.375 247.4063,505.375 Q248.1094,505.375 248.75,505.5313 Q249.4063,505.6875 249.9688,505.9844 L249.9688,508.7031 Q249.3438,508.125 248.75,507.8594 Q248.1563,507.5781 247.5313,507.5781 Q246.1875,507.5781 245.5,508.6563 Q244.8125,509.7188 244.8125,511.8125 Q244.8125,513.9063 245.5,514.9844 Q246.1875,516.0469 247.5313,516.0469 Q248.1563,516.0469 248.75,515.7813 Q249.3438,515.5 249.9688,514.9219 L249.9688,517.6406 Z "/><text fill="#000000" font-family="sans-serif" font-size="12" lengthAdjust="spacingAndGlyphs" textLength="41" x="261" y="516.1543">Queue</text><line style="stroke: #A80036; stroke-width: 1.5;" x1="233" x2="304" y1="528" y2="528"/><line style="stroke: #A80036; stroke-width: 1.5;" x1="233" x2="304" y1="536" y2="536"/><!--MD5=[78c2f99567cf3f27f309ce78bfc11cb9]
class java.util.Stack--><rect codeLine="17" fill="#FEFECE" height="48" id="java.util.Stack" style="stroke: #A80036; stroke-width: 1.5;" width="67" x="235" y="579"/><ellipse cx="250" cy="595" fill="#ADD1B2" rx="11" ry="11" style="stroke: #A80036; stroke-width: 1.0;"/><path d="M252.9688,600.6406 Q252.3906,600.9375 251.75,601.0781 Q251.1094,601.2344 250.4063,601.2344 Q247.9063,601.2344 246.5781,599.5938 Q245.2656,597.9375 245.2656,594.8125 Q245.2656,591.6875 246.5781,590.0313 Q247.9063,588.375 250.4063,588.375 Q251.1094,588.375 251.75,588.5313 Q252.4063,588.6875 252.9688,588.9844 L252.9688,591.7031 Q252.3438,591.125 251.75,590.8594 Q251.1563,590.5781 250.5313,590.5781 Q249.1875,590.5781 248.5,591.6563 Q247.8125,592.7188 247.8125,594.8125 Q247.8125,596.9063 248.5,597.9844 Q249.1875,599.0469 250.5313,599.0469 Q251.1563,599.0469 251.75,598.7813 Q252.3438,598.5 252.9688,597.9219 L252.9688,600.6406 Z "/><text fill="#000000" font-family="sans-serif" font-size="12" lengthAdjust="spacingAndGlyphs" textLength="35" x="264" y="599.1543">Stack</text><line style="stroke: #A80036; stroke-width: 1.5;" x1="236" x2="301" y1="611" y2="611"/><line style="stroke: #A80036; stroke-width: 1.5;" x1="236" x2="301" y1="619" y2="619"/><!--MD5=[cd3db3ee9c7d012ac59e1b7b98fab490]
link com.graph.BFSGraph to java.util.LinkedList--><path codeLine="18" d="M135.6,255.09 C149.53,264.01 162,272 162,272 C162,272 198,354 198,354 C198,354 223.8,384.81 243.96,408.89 " fill="none" id="com.graph.BFSGraph-to-java.util.LinkedList" style="stroke: #A80036; stroke-width: 1.0; stroke-dasharray: 7.0,7.0;"/><polygon fill="#A80036" points="247.4,412.99,244.6973,403.5192,244.1934,409.1536,238.5591,408.6497,247.4,412.99" style="stroke: #A80036; stroke-width: 1.0;"/><!--MD5=[2bee594481723559b2365c0597fafaf0]
link com.graph.BFSGraph to java.util.Queue--><path codeLine="19" d="M135.6,255.09 C149.53,264.01 162,272 162,272 C162,272 198,478 198,478 C198,478 212.07,486.5 227.54,495.85 " fill="none" id="com.graph.BFSGraph-to-java.util.Queue" style="stroke: #A80036; stroke-width: 1.0; stroke-dasharray: 7.0,7.0;"/><polygon fill="#A80036" points="231.94,498.51,226.3003,490.4357,227.6588,495.927,222.1675,497.2856,231.94,498.51" style="stroke: #A80036; stroke-width: 1.0;"/><!--MD5=[7a7710fd1608f71520629ecbb4831ecc]
link com.graph.BFSGraph to java.util.Stack--><path codeLine="20" d="M135.6,255.09 C149.53,264.01 162,272 162,272 C162,272 198,561 198,561 C198,561 213.67,570.47 230.13,580.42 " fill="none" id="com.graph.BFSGraph-to-java.util.Stack" style="stroke: #A80036; stroke-width: 1.0; stroke-dasharray: 7.0,7.0;"/><polygon fill="#A80036" points="234.79,583.23,229.1622,575.1474,230.5127,580.6407,225.0194,581.9911,234.79,583.23" style="stroke: #A80036; stroke-width: 1.0;"/><!--MD5=[1e08e35ac0937dc90be40869b125f690]
link com.graph.DFSGraph to java.util.Stack--><path codeLine="21" d="M107.77,338.13 C132.93,400.28 198,561 198,561 C198,561 213.67,570.47 230.13,580.42 " fill="none" id="com.graph.DFSGraph-to-java.util.Stack" style="stroke: #A80036; stroke-width: 1.0; stroke-dasharray: 7.0,7.0;"/><polygon fill="#A80036" points="234.79,583.23,229.1622,575.1474,230.5127,580.6407,225.0194,581.9911,234.79,583.23" style="stroke: #A80036; stroke-width: 1.0;"/><!--MD5=[a92baa7de0b2ae99eee03ea1bda60d91]
link com.graph.BFSGraphDemo to com.graph.DFSGraphDemo--><!--MD5=[0f167365d393a70bf1451afd0992ad6d]
link com.graph.BFSGraphDemo to com.graph.Node--><!--MD5=[7a2fadf07fd579a6a32f8acd32d10b9e]
link com.graph.Node to com.graph.adjList--><!--MD5=[377e29a488bb22edcf248200a28e76de]
@startuml
left to right direction
skinparam shadowing false

'skinparam linetype ortho
skinparam linetype polyline



class com.graph.BFSGraph
class com.graph.BFSGraphDemo
class com.graph.DFSGraph
class com.graph.DFSGraphDemo
class com.graph.Node
class com.graph.adjList
class java.util.LinkedList
class java.util.Queue
class java.util.Stack
com.graph.BFSGraph ..> java.util.LinkedList
com.graph.BFSGraph ..> java.util.Queue
com.graph.BFSGraph ..> java.util.Stack
com.graph.DFSGraph ..> java.util.Stack
@enduml

@startuml
left to right direction
skinparam shadowing false

skinparam linetype polyline



class com.graph.BFSGraph
class com.graph.BFSGraphDemo
class com.graph.DFSGraph
class com.graph.DFSGraphDemo
class com.graph.Node
class com.graph.adjList
class java.util.LinkedList
class java.util.Queue
class java.util.Stack
com.graph.BFSGraph ..> java.util.LinkedList
com.graph.BFSGraph ..> java.util.Queue
com.graph.BFSGraph ..> java.util.Stack
com.graph.DFSGraph ..> java.util.Stack
@enduml

PlantUML version 1.2020.18(Wed Sep 30 22:40:44 EEST 2020)
(GPL source distribution)
Java Runtime: OpenJDK Runtime Environment
JVM: OpenJDK 64-Bit Server VM
Default Encoding: UTF-8
Language: en
Country: US
--></g></svg>