<?xml version="1.0" encoding="UTF-8" standalone="no"?><svg xmlns="http://www.w3.org/2000/svg" xmlns:xlink="http://www.w3.org/1999/xlink" contentScriptType="application/ecmascript" contentStyleType="text/css" height="570px" preserveAspectRatio="none" style="width:1067px;height:570px;" version="1.1" viewBox="0 0 1067 570" width="1067px" zoomAndPan="magnify"><defs/><g><ellipse cx="115.1353" cy="29.9083" fill="#FEFECE" rx="14.1353" ry="11.9083" style="stroke: #A80036; stroke-width: 1.5;"/><text fill="#000000" font-family="sans-serif" font-size="14" lengthAdjust="spacingAndGlyphs" textLength="9" x="110.6353" y="34.5567">0</text><ellipse cx="83.1353" cy="127.4083" fill="#FEFECE" rx="14.1353" ry="11.9083" style="stroke: #A80036; stroke-width: 1.5;"/><text fill="#000000" font-family="sans-serif" font-size="14" lengthAdjust="spacingAndGlyphs" textLength="9" x="78.6353" y="132.0567">1</text><ellipse cx="146.1353" cy="127.4083" fill="#FEFECE" rx="14.1353" ry="11.9083" style="stroke: #A80036; stroke-width: 1.5;"/><text fill="#000000" font-family="sans-serif" font-size="14" lengthAdjust="spacingAndGlyphs" textLength="9" x="141.6353" y="132.0567">2</text><ellipse cx="20.1353" cy="227.4083" fill="#FEFECE" rx="14.1353" ry="11.9083" style="stroke: #A80036; stroke-width: 1.5;"/><text fill="#000000" font-family="sans-serif" font-size="14" lengthAdjust="spacingAndGlyphs" textLength="9" x="15.6353" y="232.0567">3</text><ellipse cx="83.1353" cy="227.4083" fill="#FEFECE" rx="14.1353" ry="11.9083" style="stroke: #A80036; stroke-width: 1.5;"/><text fill="#000000" font-family="sans-serif" font-size="14" lengthAdjust="spacingAndGlyphs" textLength="9" x="78.6353" y="232.0567">4</text><ellipse cx="146.1353" cy="227.4083" fill="#FEFECE" rx="14.1353" ry="11.9083" style="stroke: #A80036; stroke-width: 1.5;"/><text fill="#000000" font-family="sans-serif" font-size="14" lengthAdjust="spacingAndGlyphs" textLength="9" x="141.6353" y="232.0567">5</text><!--MD5=[6caf3494c3d8aa0ad8670f3cdede3bbe]
entity adjList 0--><rect fill="#FEFECE" height="46.2969" style="stroke: #A80036; stroke-width: 1.5;" width="96" x="204" y="7"/><rect fill="#FEFECE" height="10" style="stroke: #A80036; stroke-width: 1.5;" width="15" x="280" y="12"/><rect fill="#FEFECE" height="2" style="stroke: #A80036; stroke-width: 1.5;" width="4" x="278" y="14"/><rect fill="#FEFECE" height="2" style="stroke: #A80036; stroke-width: 1.5;" width="4" x="278" y="18"/><text fill="#000000" font-family="sans-serif" font-size="14" lengthAdjust="spacingAndGlyphs" textLength="56" x="219" y="39.9951">adjList 0</text><ellipse cx="252.2401" cy="127.5236" fill="#FEFECE" rx="56.7401" ry="14.5236" style="stroke: #A80036; stroke-width: 1.5;"/><text fill="#000000" font-family="sans-serif" font-size="14" lengthAdjust="spacingAndGlyphs" textLength="76" x="214.2401" y="132.1721">Node head</text><ellipse cx="251.9854" cy="227.5588" fill="#FEFECE" rx="56.9854" ry="25.5588" style="stroke: #A80036; stroke-width: 1.5;"/><text fill="#000000" font-family="sans-serif" font-size="14" lengthAdjust="spacingAndGlyphs" textLength="78" x="212.9854" y="224.7572">int value=1</text><text fill="#000000" font-family="sans-serif" font-size="14" lengthAdjust="spacingAndGlyphs" textLength="71" x="216.4854" y="241.0541">Node next</text><ellipse cx="251.9854" cy="338.5588" fill="#FEFECE" rx="56.9854" ry="25.5588" style="stroke: #A80036; stroke-width: 1.5;"/><text fill="#000000" font-family="sans-serif" font-size="14" lengthAdjust="spacingAndGlyphs" textLength="78" x="212.9854" y="335.7572">int value=2</text><text fill="#000000" font-family="sans-serif" font-size="14" lengthAdjust="spacingAndGlyphs" textLength="71" x="216.4854" y="352.0541">Node next</text><ellipse cx="251.8848" cy="449.5236" fill="#FEFECE" rx="21.3848" ry="14.5236" style="stroke: #A80036; stroke-width: 1.5;"/><text fill="#000000" font-family="sans-serif" font-size="14" lengthAdjust="spacingAndGlyphs" textLength="26" x="238.8848" y="454.1721">NUll</text><!--MD5=[04c0bc116276a8b8da26034324a8ebba]
entity adjList 1--><rect fill="#FEFECE" height="46.2969" style="stroke: #A80036; stroke-width: 1.5;" width="96" x="353" y="7"/><rect fill="#FEFECE" height="10" style="stroke: #A80036; stroke-width: 1.5;" width="15" x="429" y="12"/><rect fill="#FEFECE" height="2" style="stroke: #A80036; stroke-width: 1.5;" width="4" x="427" y="14"/><rect fill="#FEFECE" height="2" style="stroke: #A80036; stroke-width: 1.5;" width="4" x="427" y="18"/><text fill="#000000" font-family="sans-serif" font-size="14" lengthAdjust="spacingAndGlyphs" textLength="56" x="368" y="39.9951">adjList 1</text><ellipse cx="401.2401" cy="127.5236" fill="#FEFECE" rx="56.7401" ry="14.5236" style="stroke: #A80036; stroke-width: 1.5;"/><text fill="#000000" font-family="sans-serif" font-size="14" lengthAdjust="spacingAndGlyphs" textLength="76" x="363.2401" y="132.1721">Node head</text><ellipse cx="400.9854" cy="227.5588" fill="#FEFECE" rx="56.9854" ry="25.5588" style="stroke: #A80036; stroke-width: 1.5;"/><text fill="#000000" font-family="sans-serif" font-size="14" lengthAdjust="spacingAndGlyphs" textLength="78" x="361.9854" y="224.7572">int value=0</text><text fill="#000000" font-family="sans-serif" font-size="14" lengthAdjust="spacingAndGlyphs" textLength="71" x="365.4854" y="241.0541">Node next</text><ellipse cx="400.9854" cy="338.5588" fill="#FEFECE" rx="56.9854" ry="25.5588" style="stroke: #A80036; stroke-width: 1.5;"/><text fill="#000000" font-family="sans-serif" font-size="14" lengthAdjust="spacingAndGlyphs" textLength="78" x="361.9854" y="335.7572">int value=3</text><text fill="#000000" font-family="sans-serif" font-size="14" lengthAdjust="spacingAndGlyphs" textLength="71" x="365.4854" y="352.0541">Node next</text><ellipse cx="400.9854" cy="449.5588" fill="#FEFECE" rx="56.9854" ry="25.5588" style="stroke: #A80036; stroke-width: 1.5;"/><text fill="#000000" font-family="sans-serif" font-size="14" lengthAdjust="spacingAndGlyphs" textLength="78" x="361.9854" y="446.7572">int value=4</text><text fill="#000000" font-family="sans-serif" font-size="14" lengthAdjust="spacingAndGlyphs" textLength="71" x="365.4854" y="463.0541">Node next</text><ellipse cx="401.1777" cy="549.5236" fill="#FEFECE" rx="20.6777" ry="14.5236" style="stroke: #A80036; stroke-width: 1.5;"/><text fill="#000000" font-family="sans-serif" font-size="14" lengthAdjust="spacingAndGlyphs" textLength="25" x="388.6777" y="554.1721">Null</text><!--MD5=[83e9f4a813b5fdcad3eebc744ba9d8b9]
entity adjList 2--><rect fill="#FEFECE" height="46.2969" style="stroke: #A80036; stroke-width: 1.5;" width="96" x="502" y="7"/><rect fill="#FEFECE" height="10" style="stroke: #A80036; stroke-width: 1.5;" width="15" x="578" y="12"/><rect fill="#FEFECE" height="2" style="stroke: #A80036; stroke-width: 1.5;" width="4" x="576" y="14"/><rect fill="#FEFECE" height="2" style="stroke: #A80036; stroke-width: 1.5;" width="4" x="576" y="18"/><text fill="#000000" font-family="sans-serif" font-size="14" lengthAdjust="spacingAndGlyphs" textLength="56" x="517" y="39.9951">adjList 2</text><ellipse cx="550.2401" cy="127.5236" fill="#FEFECE" rx="56.7401" ry="14.5236" style="stroke: #A80036; stroke-width: 1.5;"/><text fill="#000000" font-family="sans-serif" font-size="14" lengthAdjust="spacingAndGlyphs" textLength="76" x="512.2401" y="132.1721">Node head</text><ellipse cx="549.9854" cy="227.5588" fill="#FEFECE" rx="56.9854" ry="25.5588" style="stroke: #A80036; stroke-width: 1.5;"/><text fill="#000000" font-family="sans-serif" font-size="14" lengthAdjust="spacingAndGlyphs" textLength="78" x="510.9854" y="224.7572">int value=0</text><text fill="#000000" font-family="sans-serif" font-size="14" lengthAdjust="spacingAndGlyphs" textLength="71" x="514.4854" y="241.0541">Node next</text><ellipse cx="549.9854" cy="338.5588" fill="#FEFECE" rx="56.9854" ry="25.5588" style="stroke: #A80036; stroke-width: 1.5;"/><text fill="#000000" font-family="sans-serif" font-size="14" lengthAdjust="spacingAndGlyphs" textLength="78" x="510.9854" y="335.7572">int value=5</text><text fill="#000000" font-family="sans-serif" font-size="14" lengthAdjust="spacingAndGlyphs" textLength="71" x="514.4854" y="352.0541">Node next</text><ellipse cx="549.8848" cy="449.5236" fill="#FEFECE" rx="21.3848" ry="14.5236" style="stroke: #A80036; stroke-width: 1.5;"/><text fill="#000000" font-family="sans-serif" font-size="14" lengthAdjust="spacingAndGlyphs" textLength="26" x="536.8848" y="454.1721">NUll</text><!--MD5=[db3f3cb66e50a9b4964f5901070e211f]
entity adjList 3--><rect fill="#FEFECE" height="46.2969" style="stroke: #A80036; stroke-width: 1.5;" width="96" x="651" y="7"/><rect fill="#FEFECE" height="10" style="stroke: #A80036; stroke-width: 1.5;" width="15" x="727" y="12"/><rect fill="#FEFECE" height="2" style="stroke: #A80036; stroke-width: 1.5;" width="4" x="725" y="14"/><rect fill="#FEFECE" height="2" style="stroke: #A80036; stroke-width: 1.5;" width="4" x="725" y="18"/><text fill="#000000" font-family="sans-serif" font-size="14" lengthAdjust="spacingAndGlyphs" textLength="56" x="666" y="39.9951">adjList 3</text><ellipse cx="699.2401" cy="127.5236" fill="#FEFECE" rx="56.7401" ry="14.5236" style="stroke: #A80036; stroke-width: 1.5;"/><text fill="#000000" font-family="sans-serif" font-size="14" lengthAdjust="spacingAndGlyphs" textLength="76" x="661.2401" y="132.1721">Node head</text><ellipse cx="698.9854" cy="227.5588" fill="#FEFECE" rx="56.9854" ry="25.5588" style="stroke: #A80036; stroke-width: 1.5;"/><text fill="#000000" font-family="sans-serif" font-size="14" lengthAdjust="spacingAndGlyphs" textLength="78" x="659.9854" y="224.7572">int value=1</text><text fill="#000000" font-family="sans-serif" font-size="14" lengthAdjust="spacingAndGlyphs" textLength="71" x="663.4854" y="241.0541">Node next</text><ellipse cx="699.0416" cy="338.5236" fill="#FEFECE" rx="27.0416" ry="14.5236" style="stroke: #A80036; stroke-width: 1.5;"/><text fill="#000000" font-family="sans-serif" font-size="14" lengthAdjust="spacingAndGlyphs" textLength="34" x="682.0416" y="343.1721">NULL</text><!--MD5=[c0cb1fd335fbaa59610dd318633a8ae7]
entity djList 4--><rect fill="#FEFECE" height="46.2969" style="stroke: #A80036; stroke-width: 1.5;" width="88" x="808" y="7"/><rect fill="#FEFECE" height="10" style="stroke: #A80036; stroke-width: 1.5;" width="15" x="876" y="12"/><rect fill="#FEFECE" height="2" style="stroke: #A80036; stroke-width: 1.5;" width="4" x="874" y="14"/><rect fill="#FEFECE" height="2" style="stroke: #A80036; stroke-width: 1.5;" width="4" x="874" y="18"/><text fill="#000000" font-family="sans-serif" font-size="14" lengthAdjust="spacingAndGlyphs" textLength="48" x="823" y="39.9951">djList 4</text><ellipse cx="852.0143" cy="127.7029" fill="#FEFECE" rx="61.5143" ry="14.7029" style="stroke: #A80036; stroke-width: 1.5;"/><text fill="#000000" font-family="sans-serif" font-size="14" lengthAdjust="spacingAndGlyphs" textLength="84" x="810.0143" y="132.3513">Node   head</text><ellipse cx="851.9854" cy="227.5588" fill="#FEFECE" rx="56.9854" ry="25.5588" style="stroke: #A80036; stroke-width: 1.5;"/><text fill="#000000" font-family="sans-serif" font-size="14" lengthAdjust="spacingAndGlyphs" textLength="78" x="812.9854" y="224.7572">int value=1</text><text fill="#000000" font-family="sans-serif" font-size="14" lengthAdjust="spacingAndGlyphs" textLength="71" x="816.4854" y="241.0541">Node next</text><ellipse cx="852.0416" cy="338.5236" fill="#FEFECE" rx="27.0416" ry="14.5236" style="stroke: #A80036; stroke-width: 1.5;"/><text fill="#000000" font-family="sans-serif" font-size="14" lengthAdjust="spacingAndGlyphs" textLength="34" x="835.0416" y="343.1721">NULL</text><!--MD5=[a21c06be6ca757670437e682b2095bf1]
entity adjList 5--><rect fill="#FEFECE" height="46.2969" style="stroke: #A80036; stroke-width: 1.5;" width="96" x="957" y="7"/><rect fill="#FEFECE" height="10" style="stroke: #A80036; stroke-width: 1.5;" width="15" x="1033" y="12"/><rect fill="#FEFECE" height="2" style="stroke: #A80036; stroke-width: 1.5;" width="4" x="1031" y="14"/><rect fill="#FEFECE" height="2" style="stroke: #A80036; stroke-width: 1.5;" width="4" x="1031" y="18"/><text fill="#000000" font-family="sans-serif" font-size="14" lengthAdjust="spacingAndGlyphs" textLength="56" x="972" y="39.9951">adjList 5</text><ellipse cx="1005.2401" cy="127.5236" fill="#FEFECE" rx="56.7401" ry="14.5236" style="stroke: #A80036; stroke-width: 1.5;"/><text fill="#000000" font-family="sans-serif" font-size="14" lengthAdjust="spacingAndGlyphs" textLength="76" x="967.2401" y="132.1721">Node head</text><ellipse cx="1004.9854" cy="227.5588" fill="#FEFECE" rx="56.9854" ry="25.5588" style="stroke: #A80036; stroke-width: 1.5;"/><text fill="#000000" font-family="sans-serif" font-size="14" lengthAdjust="spacingAndGlyphs" textLength="78" x="965.9854" y="224.7572">int value=2</text><text fill="#000000" font-family="sans-serif" font-size="14" lengthAdjust="spacingAndGlyphs" textLength="71" x="969.4854" y="241.0541">Node next</text><ellipse cx="1005.0416" cy="338.5236" fill="#FEFECE" rx="27.0416" ry="14.5236" style="stroke: #A80036; stroke-width: 1.5;"/><text fill="#000000" font-family="sans-serif" font-size="14" lengthAdjust="spacingAndGlyphs" textLength="34" x="988.0416" y="343.1721">NULL</text><!--MD5=[8e70be089d338ff985e27910a95d8139]
link 0 to 1--><path d="M111.33,41.96 C105.69,58.79 94.85,91.12 88.34,110.56 " fill="none" id="0-to-1" style="stroke: #A80036; stroke-width: 1.0;"/><polygon fill="#A80036" points="86.63,115.67,93.2774,108.4028,88.2154,110.928,85.6902,105.8661,86.63,115.67" style="stroke: #A80036; stroke-width: 1.0;"/><!--MD5=[0ac72404a57c2449cbf96c6ef421c7b5]
link 0 to 2--><path d="M118.56,41.96 C124.02,58.79 134.52,91.12 140.82,110.56 " fill="none" id="0-to-2" style="stroke: #A80036; stroke-width: 1.0;"/><polygon fill="#A80036" points="142.49,115.67,143.5183,105.875,140.9475,110.9139,135.9086,108.343,142.49,115.67" style="stroke: #A80036; stroke-width: 1.0;"/><!--MD5=[2d4b753efd65b00afdf467246674cbe5]
link 1 to 3--><path d="M76.73,138.25 C65.56,155.63 42.18,192 29.19,212.2 " fill="none" id="1-to-3" style="stroke: #A80036; stroke-width: 1.0;"/><polygon fill="#A80036" points="26.43,216.49,34.6532,211.0697,29.1273,212.2799,27.9171,206.7541,26.43,216.49" style="stroke: #A80036; stroke-width: 1.0;"/><!--MD5=[a94a78a4bcab98299a720253a19623a8]
link 1 to 4--><path d="M83,139.74 C83,157.02 83,190.2 83,210.14 " fill="none" id="1-to-4" style="stroke: #A80036; stroke-width: 1.0;"/><polygon fill="#A80036" points="83,215.39,87,206.39,83,210.39,79,206.39,83,215.39" style="stroke: #A80036; stroke-width: 1.0;"/><!--MD5=[4e74f4bf4b09d37138dfb3a42c5ccc13]
link 2 to 5--><path d="M146,139.74 C146,157.02 146,190.2 146,210.14 " fill="none" id="2-to-5" style="stroke: #A80036; stroke-width: 1.0;"/><polygon fill="#A80036" points="146,215.39,150,206.39,146,210.39,142,206.39,146,215.39" style="stroke: #A80036; stroke-width: 1.0;"/><!--MD5=[548e126dbddac32b76f60f7443c71e67]
link adjList 0 to Node head--><path d="M252,53.15 C252,69.68 252,92.03 252,107.7 " fill="none" id="adjList 0-to-Node head" style="stroke: #A80036; stroke-width: 1.0;"/><polygon fill="#A80036" points="252,112.74,256,103.74,252,107.74,248,103.74,252,112.74" style="stroke: #A80036; stroke-width: 1.0;"/><!--MD5=[7a48ddd6fe7f0b6f5620115591e3e891]
link Node head to int value=1 \n  Node next--><path d="M252,142.13 C252,156.16 252,178.49 252,196.66 " fill="none" id="Node head-to-int value=1 \n  Node next" style="stroke: #A80036; stroke-width: 1.0;"/><polygon fill="#A80036" points="252,201.66,256,192.66,252,196.66,248,192.66,252,201.66" style="stroke: #A80036; stroke-width: 1.0;"/><!--MD5=[04cd04b48911f2712e5c6cbdeb44c0de]
link int value=1 \n  Node next to int value=2 \n  Node next--><path d="M252,253.23 C252,269.4 252,290.61 252,307.7 " fill="none" id="int value=1 \n  Node next-to-int value=2 \n  Node next" style="stroke: #A80036; stroke-width: 1.0;"/><polygon fill="#A80036" points="252,312.86,256,303.86,252,307.86,248,303.86,252,312.86" style="stroke: #A80036; stroke-width: 1.0;"/><!--MD5=[118d34f3ecbe82fe08bf4df11d163cc6]
link int value=2 \n  Node next to NUll--><path d="M252,364.23 C252,384.04 252,411.42 252,429.53 " fill="none" id="int value=2 \n  Node next-to-NUll" style="stroke: #A80036; stroke-width: 1.0;"/><polygon fill="#A80036" points="252,434.83,256,425.83,252,429.83,248,425.83,252,434.83" style="stroke: #A80036; stroke-width: 1.0;"/><!--MD5=[949353559b88f90287c122b65883a768]
link adjList 1 to  Node head--><path d="M401,53.15 C401,69.68 401,92.03 401,107.7 " fill="none" id="adjList 1-to- Node head" style="stroke: #A80036; stroke-width: 1.0;"/><polygon fill="#A80036" points="401,112.74,405,103.74,401,107.74,397,103.74,401,112.74" style="stroke: #A80036; stroke-width: 1.0;"/><!--MD5=[702d1f191fa69b79ccc3d3b9d6afc5b5]
link  Node head to int value=0 \n  Node next--><path d="M401,142.13 C401,156.16 401,178.49 401,196.66 " fill="none" id=" Node head-to-int value=0 \n  Node next" style="stroke: #A80036; stroke-width: 1.0;"/><polygon fill="#A80036" points="401,201.66,405,192.66,401,196.66,397,192.66,401,201.66" style="stroke: #A80036; stroke-width: 1.0;"/><!--MD5=[999127c347c25852637893c42a3aa099]
link int value=0 \n  Node next to int value=3 \n  Node next--><path d="M401,253.23 C401,269.4 401,290.61 401,307.7 " fill="none" id="int value=0 \n  Node next-to-int value=3 \n  Node next" style="stroke: #A80036; stroke-width: 1.0;"/><polygon fill="#A80036" points="401,312.86,405,303.86,401,307.86,397,303.86,401,312.86" style="stroke: #A80036; stroke-width: 1.0;"/><!--MD5=[351d91e6deff8d2a9054cf25be7ceee2]
link int value=3 \n  Node next to int value=4 \n  Node next--><path d="M401,364.23 C401,380.4 401,401.61 401,418.7 " fill="none" id="int value=3 \n  Node next-to-int value=4 \n  Node next" style="stroke: #A80036; stroke-width: 1.0;"/><polygon fill="#A80036" points="401,423.86,405,414.86,401,418.86,397,414.86,401,423.86" style="stroke: #A80036; stroke-width: 1.0;"/><!--MD5=[1f2c1aea0cb01fe6c2f2c3fa785e6d32]
link int value=4 \n  Node next to Null--><path d="M401,475.23 C401,492.1 401,514.1 401,529.57 " fill="none" id="int value=4 \n  Node next-to-Null" style="stroke: #A80036; stroke-width: 1.0;"/><polygon fill="#A80036" points="401,534.96,405,525.96,401,529.96,397,525.96,401,534.96" style="stroke: #A80036; stroke-width: 1.0;"/><!--MD5=[a0eb31410533193e4c99d7ab6011cb15]
link adjList 2 to   Node head--><path d="M550,53.15 C550,69.68 550,92.03 550,107.7 " fill="none" id="adjList 2-to-  Node head" style="stroke: #A80036; stroke-width: 1.0;"/><polygon fill="#A80036" points="550,112.74,554,103.74,550,107.74,546,103.74,550,112.74" style="stroke: #A80036; stroke-width: 1.0;"/><!--MD5=[3f332749b2f9f63a3f0b081b80e474a9]
link   Node head to int value=0 \n Node next--><path d="M550,142.13 C550,156.16 550,178.49 550,196.66 " fill="none" id="  Node head-to-int value=0 \n Node next" style="stroke: #A80036; stroke-width: 1.0;"/><polygon fill="#A80036" points="550,201.66,554,192.66,550,196.66,546,192.66,550,201.66" style="stroke: #A80036; stroke-width: 1.0;"/><!--MD5=[87d47d2519d92f9380d9b1770cf499a6]
link int value=0 \n Node next to int value=5 \n  Node next--><path d="M550,253.23 C550,269.4 550,290.61 550,307.7 " fill="none" id="int value=0 \n Node next-to-int value=5 \n  Node next" style="stroke: #A80036; stroke-width: 1.0;"/><polygon fill="#A80036" points="550,312.86,554,303.86,550,307.86,546,303.86,550,312.86" style="stroke: #A80036; stroke-width: 1.0;"/><!--MD5=[cfe03922b72eb65450e01c848f14a2c6]
link int value=5 \n  Node next to  NUll--><path d="M550,364.23 C550,384.04 550,411.42 550,429.53 " fill="none" id="int value=5 \n  Node next-to- NUll" style="stroke: #A80036; stroke-width: 1.0;"/><polygon fill="#A80036" points="550,434.83,554,425.83,550,429.83,546,425.83,550,434.83" style="stroke: #A80036; stroke-width: 1.0;"/><!--MD5=[1953b0b89d3b02af74cd253bb2667091]
link adjList 3 to Node head --><path d="M699,53.15 C699,69.68 699,92.03 699,107.7 " fill="none" id="adjList 3-to-Node head " style="stroke: #A80036; stroke-width: 1.0;"/><polygon fill="#A80036" points="699,112.74,703,103.74,699,107.74,695,103.74,699,112.74" style="stroke: #A80036; stroke-width: 1.0;"/><!--MD5=[061e44a7967ac5cd20fc925addf3ac32]
link Node head  to int value=1 \n Node next --><path d="M699,142.13 C699,156.16 699,178.49 699,196.66 " fill="none" id="Node head -to-int value=1 \n Node next " style="stroke: #A80036; stroke-width: 1.0;"/><polygon fill="#A80036" points="699,201.66,703,192.66,699,196.66,695,192.66,699,201.66" style="stroke: #A80036; stroke-width: 1.0;"/><!--MD5=[e76367936c6c5d86d43b162195a904ea]
link int value=1 \n Node next  to   NULL--><path d="M699,253.23 C699,273.04 699,300.42 699,318.53 " fill="none" id="int value=1 \n Node next -to-  NULL" style="stroke: #A80036; stroke-width: 1.0;"/><polygon fill="#A80036" points="699,323.83,703,314.83,699,318.83,695,314.83,699,323.83" style="stroke: #A80036; stroke-width: 1.0;"/><!--MD5=[d31a13aba1b2ec2dbdca2ef62b1e0e06]
link djList 4 to Node   head--><path d="M852,53.15 C852,69.68 852,92.03 852,107.7 " fill="none" id="djList 4-to-Node   head" style="stroke: #A80036; stroke-width: 1.0;"/><polygon fill="#A80036" points="852,112.74,856,103.74,852,107.74,848,103.74,852,112.74" style="stroke: #A80036; stroke-width: 1.0;"/><!--MD5=[994355f4a3ad48376a954772f134c3af]
link Node   head to int value=1 \n  Node next --><path d="M852,142.13 C852,156.16 852,178.49 852,196.66 " fill="none" id="Node   head-to-int value=1 \n  Node next " style="stroke: #A80036; stroke-width: 1.0;"/><polygon fill="#A80036" points="852,201.66,856,192.66,852,196.66,848,192.66,852,201.66" style="stroke: #A80036; stroke-width: 1.0;"/><!--MD5=[76c38a530c6292db3c2e2d74c761bb81]
link int value=1 \n  Node next  to   NULL  --><path d="M852,253.23 C852,273.04 852,300.42 852,318.53 " fill="none" id="int value=1 \n  Node next -to-  NULL  " style="stroke: #A80036; stroke-width: 1.0;"/><polygon fill="#A80036" points="852,323.83,856,314.83,852,318.83,848,314.83,852,323.83" style="stroke: #A80036; stroke-width: 1.0;"/><!--MD5=[d431415762c6be1471b368f04f4147a7]
link adjList 5 to  Node head --><path d="M1005,53.15 C1005,69.68 1005,92.03 1005,107.7 " fill="none" id="adjList 5-to- Node head " style="stroke: #A80036; stroke-width: 1.0;"/><polygon fill="#A80036" points="1005,112.74,1009,103.74,1005,107.74,1001,103.74,1005,112.74" style="stroke: #A80036; stroke-width: 1.0;"/><!--MD5=[b4d9ef6d2bb7fdaf124f324a4eb5b0e5]
link  Node head  to  int value=2 \n  Node next  --><path d="M1005,142.13 C1005,156.16 1005,178.49 1005,196.66 " fill="none" id=" Node head -to- int value=2 \n  Node next  " style="stroke: #A80036; stroke-width: 1.0;"/><polygon fill="#A80036" points="1005,201.66,1009,192.66,1005,196.66,1001,192.66,1005,201.66" style="stroke: #A80036; stroke-width: 1.0;"/><!--MD5=[2ce86d9cd1fae8132d8bcbda5bc05a63]
link  int value=2 \n  Node next   to   NULL --><path d="M1005,253.23 C1005,273.04 1005,300.42 1005,318.53 " fill="none" id=" int value=2 \n  Node next  -to-  NULL " style="stroke: #A80036; stroke-width: 1.0;"/><polygon fill="#A80036" points="1005,323.83,1009,314.83,1005,318.83,1001,314.83,1005,323.83" style="stroke: #A80036; stroke-width: 1.0;"/><!--MD5=[85b348e2d11344fe44b55a1def637eeb]
@startuml
'left to right direction
skinparam shadowing false

'skinparam linetype ortho
'skinparam linetype polyline

(0) - -> (1) 
(0) - -> (2) 
(1) - -> (3) 
(1) - -> (4)
(2) - -> (5)


   [adjList 0]- ->(Node head) 
                  (Node head)- ->(int value=1 \n  Node next) 
                                 (int value=1 \n  Node next)- ->(int value=2 \n  Node next)
                                              		       (int value=2 \n  Node next)- ->(NUll)

   [adjList 1]- ->( Node head) 
                  ( Node head)- ->(int value=0 \n  Node next) 
                                 (int value=0 \n  Node next)- ->(int value=3 \n  Node next)
                                               		       (int value=3 \n  Node next)- ->(int value=4 \n  Node next)
                                                                         		     (int value=4 \n  Node next)- ->(Null)


   [adjList 2]- ->(  Node head) 
                  (  Node head)- ->(int value=0 \n Node next) 
                                 (int value=0 \n Node next)- ->(int value=5 \n  Node next)
                                            		      (int value=5 \n  Node next)- ->( NUll)


   [adjList 3]- ->(Node head ) 
                  (Node head )- ->(int value=1 \n Node next ) 
                                 (int value=1 \n Node next )- ->(  NULL)

   [djList 4]- ->(Node   head) 
                  (Node   head)- ->(int value=1 \n  Node next ) 
                                 (int value=1 \n  Node next )- ->(  NULL  )
   [adjList 5]- ->( Node head ) 
                  ( Node head )- ->( int value=2 \n  Node next  ) 
                                 ( int value=2 \n  Node next  )- ->(  NULL )


@enduml

@startuml
skinparam shadowing false


(0) - -> (1) 
(0) - -> (2) 
(1) - -> (3) 
(1) - -> (4)
(2) - -> (5)


   [adjList 0]- ->(Node head) 
                  (Node head)- ->(int value=1 \n  Node next) 
                                 (int value=1 \n  Node next)- ->(int value=2 \n  Node next)
                                              		       (int value=2 \n  Node next)- ->(NUll)

   [adjList 1]- ->( Node head) 
                  ( Node head)- ->(int value=0 \n  Node next) 
                                 (int value=0 \n  Node next)- ->(int value=3 \n  Node next)
                                               		       (int value=3 \n  Node next)- ->(int value=4 \n  Node next)
                                                                         		     (int value=4 \n  Node next)- ->(Null)


   [adjList 2]- ->(  Node head) 
                  (  Node head)- ->(int value=0 \n Node next) 
                                 (int value=0 \n Node next)- ->(int value=5 \n  Node next)
                                            		      (int value=5 \n  Node next)- ->( NUll)


   [adjList 3]- ->(Node head ) 
                  (Node head )- ->(int value=1 \n Node next ) 
                                 (int value=1 \n Node next )- ->(  NULL)

   [djList 4]- ->(Node   head) 
                  (Node   head)- ->(int value=1 \n  Node next ) 
                                 (int value=1 \n  Node next )- ->(  NULL  )
   [adjList 5]- ->( Node head ) 
                  ( Node head )- ->( int value=2 \n  Node next  ) 
                                 ( int value=2 \n  Node next  )- ->(  NULL )


@enduml

PlantUML version 1.2020.18(Wed Sep 30 22:40:44 EEST 2020)
(GPL source distribution)
Java Runtime: OpenJDK Runtime Environment
JVM: OpenJDK 64-Bit Server VM
Default Encoding: UTF-8
Language: en
Country: US
--></g></svg>