<?xml version="1.0" encoding="UTF-8" standalone="no"?><svg xmlns="http://www.w3.org/2000/svg" xmlns:xlink="http://www.w3.org/1999/xlink" contentScriptType="application/ecmascript" contentStyleType="text/css" height="327px" preserveAspectRatio="none" style="width:2124px;height:327px;" version="1.1" viewBox="0 0 2124 327" width="2124px" zoomAndPan="magnify"><defs><filter height="300%" id="fbxijirj5lhrs" width="300%" x="-1" y="-1"><feGaussianBlur result="blurOut" stdDeviation="2.0"/><feColorMatrix in="blurOut" result="blurOut2" type="matrix" values="0 0 0 0 0 0 0 0 0 0 0 0 0 0 0 0 0 0 .4 0"/><feOffset dx="4.0" dy="4.0" in="blurOut2" result="blurOut3"/><feBlend in="SourceGraphic" in2="blurOut3" mode="normal"/></filter></defs><g><!--cluster scjp2--><polygon fill="#FFFFFF" filter="url(#fbxijirj5lhrs)" points="14,16,62,16,69,38.2969,929,38.2969,929,315,14,315,14,16" style="stroke: #000000; stroke-width: 1.5;"/><line style="stroke: #000000; stroke-width: 1.5;" x1="14" x2="69" y1="38.2969" y2="38.2969"/><text fill="#000000" font-family="sans-serif" font-size="14" font-weight="bold" lengthAdjust="spacingAndGlyphs" textLength="42" x="18" y="30.9951">scjp2</text><!--cluster java.lang--><polygon fill="#FFFFFF" filter="url(#fbxijirj5lhrs)" points="1905,124,1980,124,1987,146.2969,2005,146.2969,2005,207,1905,207,1905,124" style="stroke: #000000; stroke-width: 1.5;"/><line style="stroke: #000000; stroke-width: 1.5;" x1="1905" x2="1987" y1="146.2969" y2="146.2969"/><text fill="#000000" font-family="sans-serif" font-size="14" font-weight="bold" lengthAdjust="spacingAndGlyphs" textLength="69" x="1909" y="138.9951">java.lang</text><!--cluster java.awt--><polygon fill="#FFFFFF" filter="url(#fbxijirj5lhrs)" points="937,124,1008,124,1015,146.2969,1053,146.2969,1053,207,937,207,937,124" style="stroke: #000000; stroke-width: 1.5;"/><line style="stroke: #000000; stroke-width: 1.5;" x1="937" x2="1015" y1="146.2969" y2="146.2969"/><text fill="#000000" font-family="sans-serif" font-size="14" font-weight="bold" lengthAdjust="spacingAndGlyphs" textLength="65" x="941" y="138.9951">java.awt</text><!--cluster java.awt.event--><polygon fill="#FFFFFF" filter="url(#fbxijirj5lhrs)" points="1072,124,1193,124,1200,146.2969,1664,146.2969,1664,207,1072,207,1072,124" style="stroke: #000000; stroke-width: 1.5;"/><line style="stroke: #000000; stroke-width: 1.5;" x1="1072" x2="1200" y1="146.2969" y2="146.2969"/><text fill="#000000" font-family="sans-serif" font-size="14" font-weight="bold" lengthAdjust="spacingAndGlyphs" textLength="115" x="1076" y="138.9951">java.awt.event</text><!--cluster java.util--><polygon fill="#FFFFFF" filter="url(#fbxijirj5lhrs)" points="2024,124,2090,124,2097,146.2969,2102,146.2969,2102,207,2024,207,2024,124" style="stroke: #000000; stroke-width: 1.5;"/><line style="stroke: #000000; stroke-width: 1.5;" x1="2024" x2="2097" y1="146.2969" y2="146.2969"/><text fill="#000000" font-family="sans-serif" font-size="14" font-weight="bold" lengthAdjust="spacingAndGlyphs" textLength="60" x="2028" y="138.9951">java.util</text><!--cluster javax.swing--><polygon fill="#FFFFFF" filter="url(#fbxijirj5lhrs)" points="1683,124,1781,124,1788,146.2969,1886,146.2969,1886,207,1683,207,1683,124" style="stroke: #000000; stroke-width: 1.5;"/><line style="stroke: #000000; stroke-width: 1.5;" x1="1683" x2="1788" y1="146.2969" y2="146.2969"/><text fill="#000000" font-family="sans-serif" font-size="14" font-weight="bold" lengthAdjust="spacingAndGlyphs" textLength="92" x="1687" y="138.9951">javax.swing</text><!--class scjp2.Car--><rect fill="#FEFECE" filter="url(#fbxijirj5lhrs)" height="48" id="scjp2.Car" style="stroke: #A80036; stroke-width: 1.5;" width="53" x="230.5" y="43"/><ellipse cx="245.5" cy="59" fill="#A9DCDF" rx="11" ry="11" style="stroke: #A80036; stroke-width: 1.0;"/><path d="M245.6094,54.3438 L244.4531,59.4219 L246.7813,59.4219 L245.6094,54.3438 Z M244.125,52.1094 L247.1094,52.1094 L250.4688,64.5 L248.0156,64.5 L247.25,61.4375 L243.9688,61.4375 L243.2188,64.5 L240.7813,64.5 L244.125,52.1094 Z "/><text fill="#000000" font-family="sans-serif" font-size="12" font-style="italic" lengthAdjust="spacingAndGlyphs" textLength="21" x="259.5" y="63.1543">Car</text><line style="stroke: #A80036; stroke-width: 1.5;" x1="231.5" x2="282.5" y1="75" y2="75"/><line style="stroke: #A80036; stroke-width: 1.5;" x1="231.5" x2="282.5" y1="83" y2="83"/><!--class scjp2.Animal--><rect fill="#FEFECE" filter="url(#fbxijirj5lhrs)" height="48" id="scjp2.Animal" style="stroke: #A80036; stroke-width: 1.5;" width="73" x="544.5" y="151"/><ellipse cx="559.5" cy="167" fill="#ADD1B2" rx="11" ry="11" style="stroke: #A80036; stroke-width: 1.0;"/><path d="M562.4688,172.6406 Q561.8906,172.9375 561.25,173.0781 Q560.6094,173.2344 559.9063,173.2344 Q557.4063,173.2344 556.0781,171.5938 Q554.7656,169.9375 554.7656,166.8125 Q554.7656,163.6875 556.0781,162.0313 Q557.4063,160.375 559.9063,160.375 Q560.6094,160.375 561.25,160.5313 Q561.9063,160.6875 562.4688,160.9844 L562.4688,163.7031 Q561.8438,163.125 561.25,162.8594 Q560.6563,162.5781 560.0313,162.5781 Q558.6875,162.5781 558,163.6563 Q557.3125,164.7188 557.3125,166.8125 Q557.3125,168.9063 558,169.9844 Q558.6875,171.0469 560.0313,171.0469 Q560.6563,171.0469 561.25,170.7813 Q561.8438,170.5 562.4688,169.9219 L562.4688,172.6406 Z "/><text fill="#000000" font-family="sans-serif" font-size="12" lengthAdjust="spacingAndGlyphs" textLength="41" x="573.5" y="171.1543">Animal</text><line style="stroke: #A80036; stroke-width: 1.5;" x1="545.5" x2="616.5" y1="183" y2="183"/><line style="stroke: #A80036; stroke-width: 1.5;" x1="545.5" x2="616.5" y1="191" y2="191"/><!--class scjp2.B1--><rect fill="#FEFECE" filter="url(#fbxijirj5lhrs)" height="48" id="scjp2.B1" style="stroke: #A80036; stroke-width: 1.5;" width="48" x="33" y="259"/><ellipse cx="48" cy="275" fill="#ADD1B2" rx="11" ry="11" style="stroke: #A80036; stroke-width: 1.0;"/><path d="M50.9688,280.6406 Q50.3906,280.9375 49.75,281.0781 Q49.1094,281.2344 48.4063,281.2344 Q45.9063,281.2344 44.5781,279.5938 Q43.2656,277.9375 43.2656,274.8125 Q43.2656,271.6875 44.5781,270.0313 Q45.9063,268.375 48.4063,268.375 Q49.1094,268.375 49.75,268.5313 Q50.4063,268.6875 50.9688,268.9844 L50.9688,271.7031 Q50.3438,271.125 49.75,270.8594 Q49.1563,270.5781 48.5313,270.5781 Q47.1875,270.5781 46.5,271.6563 Q45.8125,272.7188 45.8125,274.8125 Q45.8125,276.9063 46.5,277.9844 Q47.1875,279.0469 48.5313,279.0469 Q49.1563,279.0469 49.75,278.7813 Q50.3438,278.5 50.9688,277.9219 L50.9688,280.6406 Z "/><text fill="#000000" font-family="sans-serif" font-size="12" lengthAdjust="spacingAndGlyphs" textLength="16" x="62" y="279.1543">B1</text><line style="stroke: #A80036; stroke-width: 1.5;" x1="34" x2="80" y1="291" y2="291"/><line style="stroke: #A80036; stroke-width: 1.5;" x1="34" x2="80" y1="299" y2="299"/><!--class scjp2.B2--><rect fill="#FEFECE" filter="url(#fbxijirj5lhrs)" height="48" id="scjp2.B2" style="stroke: #A80036; stroke-width: 1.5;" width="48" x="33" y="151"/><ellipse cx="48" cy="167" fill="#ADD1B2" rx="11" ry="11" style="stroke: #A80036; stroke-width: 1.0;"/><path d="M50.9688,172.6406 Q50.3906,172.9375 49.75,173.0781 Q49.1094,173.2344 48.4063,173.2344 Q45.9063,173.2344 44.5781,171.5938 Q43.2656,169.9375 43.2656,166.8125 Q43.2656,163.6875 44.5781,162.0313 Q45.9063,160.375 48.4063,160.375 Q49.1094,160.375 49.75,160.5313 Q50.4063,160.6875 50.9688,160.9844 L50.9688,163.7031 Q50.3438,163.125 49.75,162.8594 Q49.1563,162.5781 48.5313,162.5781 Q47.1875,162.5781 46.5,163.6563 Q45.8125,164.7188 45.8125,166.8125 Q45.8125,168.9063 46.5,169.9844 Q47.1875,171.0469 48.5313,171.0469 Q49.1563,171.0469 49.75,170.7813 Q50.3438,170.5 50.9688,169.9219 L50.9688,172.6406 Z "/><text fill="#000000" font-family="sans-serif" font-size="12" lengthAdjust="spacingAndGlyphs" textLength="16" x="62" y="171.1543">B2</text><line style="stroke: #A80036; stroke-width: 1.5;" x1="34" x2="80" y1="183" y2="183"/><line style="stroke: #A80036; stroke-width: 1.5;" x1="34" x2="80" y1="191" y2="191"/><!--class scjp2.Driver--><rect fill="#FEFECE" filter="url(#fbxijirj5lhrs)" height="48" id="scjp2.Driver" style="stroke: #A80036; stroke-width: 1.5;" width="68" x="127" y="43"/><ellipse cx="142" cy="59" fill="#ADD1B2" rx="11" ry="11" style="stroke: #A80036; stroke-width: 1.0;"/><path d="M144.9688,64.6406 Q144.3906,64.9375 143.75,65.0781 Q143.1094,65.2344 142.4063,65.2344 Q139.9063,65.2344 138.5781,63.5938 Q137.2656,61.9375 137.2656,58.8125 Q137.2656,55.6875 138.5781,54.0313 Q139.9063,52.375 142.4063,52.375 Q143.1094,52.375 143.75,52.5313 Q144.4063,52.6875 144.9688,52.9844 L144.9688,55.7031 Q144.3438,55.125 143.75,54.8594 Q143.1563,54.5781 142.5313,54.5781 Q141.1875,54.5781 140.5,55.6563 Q139.8125,56.7188 139.8125,58.8125 Q139.8125,60.9063 140.5,61.9844 Q141.1875,63.0469 142.5313,63.0469 Q143.1563,63.0469 143.75,62.7813 Q144.3438,62.5 144.9688,61.9219 L144.9688,64.6406 Z "/><text fill="#000000" font-family="sans-serif" font-size="12" lengthAdjust="spacingAndGlyphs" textLength="36" x="156" y="63.1543">Driver</text><line style="stroke: #A80036; stroke-width: 1.5;" x1="128" x2="194" y1="75" y2="75"/><line style="stroke: #A80036; stroke-width: 1.5;" x1="128" x2="194" y1="83" y2="83"/><!--class scjp2.EmployeeFrame--><rect fill="#FEFECE" filter="url(#fbxijirj5lhrs)" height="48" id="scjp2.EmployeeFrame" style="stroke: #A80036; stroke-width: 1.5;" width="131" x="650.5" y="43"/><ellipse cx="665.5" cy="59" fill="#ADD1B2" rx="11" ry="11" style="stroke: #A80036; stroke-width: 1.0;"/><path d="M668.4688,64.6406 Q667.8906,64.9375 667.25,65.0781 Q666.6094,65.2344 665.9063,65.2344 Q663.4063,65.2344 662.0781,63.5938 Q660.7656,61.9375 660.7656,58.8125 Q660.7656,55.6875 662.0781,54.0313 Q663.4063,52.375 665.9063,52.375 Q666.6094,52.375 667.25,52.5313 Q667.9063,52.6875 668.4688,52.9844 L668.4688,55.7031 Q667.8438,55.125 667.25,54.8594 Q666.6563,54.5781 666.0313,54.5781 Q664.6875,54.5781 664,55.6563 Q663.3125,56.7188 663.3125,58.8125 Q663.3125,60.9063 664,61.9844 Q664.6875,63.0469 666.0313,63.0469 Q666.6563,63.0469 667.25,62.7813 Q667.8438,62.5 668.4688,61.9219 L668.4688,64.6406 Z "/><text fill="#000000" font-family="sans-serif" font-size="12" lengthAdjust="spacingAndGlyphs" textLength="99" x="679.5" y="63.1543">EmployeeFrame</text><line style="stroke: #A80036; stroke-width: 1.5;" x1="651.5" x2="780.5" y1="75" y2="75"/><line style="stroke: #A80036; stroke-width: 1.5;" x1="651.5" x2="780.5" y1="83" y2="83"/><!--class scjp2.FinalCar--><rect fill="#FEFECE" filter="url(#fbxijirj5lhrs)" height="48" id="scjp2.FinalCar" style="stroke: #A80036; stroke-width: 1.5;" width="82" x="118" y="151"/><ellipse cx="133" cy="167" fill="#ADD1B2" rx="11" ry="11" style="stroke: #A80036; stroke-width: 1.0;"/><path d="M135.9688,172.6406 Q135.3906,172.9375 134.75,173.0781 Q134.1094,173.2344 133.4063,173.2344 Q130.9063,173.2344 129.5781,171.5938 Q128.2656,169.9375 128.2656,166.8125 Q128.2656,163.6875 129.5781,162.0313 Q130.9063,160.375 133.4063,160.375 Q134.1094,160.375 134.75,160.5313 Q135.4063,160.6875 135.9688,160.9844 L135.9688,163.7031 Q135.3438,163.125 134.75,162.8594 Q134.1563,162.5781 133.5313,162.5781 Q132.1875,162.5781 131.5,163.6563 Q130.8125,164.7188 130.8125,166.8125 Q130.8125,168.9063 131.5,169.9844 Q132.1875,171.0469 133.5313,171.0469 Q134.1563,171.0469 134.75,170.7813 Q135.3438,170.5 135.9688,169.9219 L135.9688,172.6406 Z "/><text fill="#000000" font-family="sans-serif" font-size="12" lengthAdjust="spacingAndGlyphs" textLength="50" x="147" y="171.1543">FinalCar</text><line style="stroke: #A80036; stroke-width: 1.5;" x1="119" x2="199" y1="183" y2="183"/><line style="stroke: #A80036; stroke-width: 1.5;" x1="119" x2="199" y1="191" y2="191"/><!--class scjp2.Horse--><rect fill="#FEFECE" filter="url(#fbxijirj5lhrs)" height="48" id="scjp2.Horse" style="stroke: #A80036; stroke-width: 1.5;" width="69" x="546.5" y="43"/><ellipse cx="561.5" cy="59" fill="#ADD1B2" rx="11" ry="11" style="stroke: #A80036; stroke-width: 1.0;"/><path d="M564.4688,64.6406 Q563.8906,64.9375 563.25,65.0781 Q562.6094,65.2344 561.9063,65.2344 Q559.4063,65.2344 558.0781,63.5938 Q556.7656,61.9375 556.7656,58.8125 Q556.7656,55.6875 558.0781,54.0313 Q559.4063,52.375 561.9063,52.375 Q562.6094,52.375 563.25,52.5313 Q563.9063,52.6875 564.4688,52.9844 L564.4688,55.7031 Q563.8438,55.125 563.25,54.8594 Q562.6563,54.5781 562.0313,54.5781 Q560.6875,54.5781 560,55.6563 Q559.3125,56.7188 559.3125,58.8125 Q559.3125,60.9063 560,61.9844 Q560.6875,63.0469 562.0313,63.0469 Q562.6563,63.0469 563.25,62.7813 Q563.8438,62.5 564.4688,61.9219 L564.4688,64.6406 Z "/><text fill="#000000" font-family="sans-serif" font-size="12" lengthAdjust="spacingAndGlyphs" textLength="37" x="575.5" y="63.1543">Horse</text><line style="stroke: #A80036; stroke-width: 1.5;" x1="547.5" x2="614.5" y1="75" y2="75"/><line style="stroke: #A80036; stroke-width: 1.5;" x1="547.5" x2="614.5" y1="83" y2="83"/><!--class scjp2.MainB--><rect fill="#FEFECE" filter="url(#fbxijirj5lhrs)" height="48" id="scjp2.MainB" style="stroke: #A80036; stroke-width: 1.5;" width="69" x="22.5" y="43"/><ellipse cx="37.5" cy="59" fill="#ADD1B2" rx="11" ry="11" style="stroke: #A80036; stroke-width: 1.0;"/><path d="M40.4688,64.6406 Q39.8906,64.9375 39.25,65.0781 Q38.6094,65.2344 37.9063,65.2344 Q35.4063,65.2344 34.0781,63.5938 Q32.7656,61.9375 32.7656,58.8125 Q32.7656,55.6875 34.0781,54.0313 Q35.4063,52.375 37.9063,52.375 Q38.6094,52.375 39.25,52.5313 Q39.9063,52.6875 40.4688,52.9844 L40.4688,55.7031 Q39.8438,55.125 39.25,54.8594 Q38.6563,54.5781 38.0313,54.5781 Q36.6875,54.5781 36,55.6563 Q35.3125,56.7188 35.3125,58.8125 Q35.3125,60.9063 36,61.9844 Q36.6875,63.0469 38.0313,63.0469 Q38.6563,63.0469 39.25,62.7813 Q39.8438,62.5 40.4688,61.9219 L40.4688,64.6406 Z "/><text fill="#000000" font-family="sans-serif" font-size="12" lengthAdjust="spacingAndGlyphs" textLength="37" x="51.5" y="63.1543">MainB</text><line style="stroke: #A80036; stroke-width: 1.5;" x1="23.5" x2="90.5" y1="75" y2="75"/><line style="stroke: #A80036; stroke-width: 1.5;" x1="23.5" x2="90.5" y1="83" y2="83"/><!--class scjp2.MyByte--><rect fill="#FEFECE" filter="url(#fbxijirj5lhrs)" height="48" id="scjp2.MyByte" style="stroke: #A80036; stroke-width: 1.5;" width="75" x="318.5" y="43"/><ellipse cx="333.5" cy="59" fill="#ADD1B2" rx="11" ry="11" style="stroke: #A80036; stroke-width: 1.0;"/><path d="M336.4688,64.6406 Q335.8906,64.9375 335.25,65.0781 Q334.6094,65.2344 333.9063,65.2344 Q331.4063,65.2344 330.0781,63.5938 Q328.7656,61.9375 328.7656,58.8125 Q328.7656,55.6875 330.0781,54.0313 Q331.4063,52.375 333.9063,52.375 Q334.6094,52.375 335.25,52.5313 Q335.9063,52.6875 336.4688,52.9844 L336.4688,55.7031 Q335.8438,55.125 335.25,54.8594 Q334.6563,54.5781 334.0313,54.5781 Q332.6875,54.5781 332,55.6563 Q331.3125,56.7188 331.3125,58.8125 Q331.3125,60.9063 332,61.9844 Q332.6875,63.0469 334.0313,63.0469 Q334.6563,63.0469 335.25,62.7813 Q335.8438,62.5 336.4688,61.9219 L336.4688,64.6406 Z "/><text fill="#000000" font-family="sans-serif" font-size="12" lengthAdjust="spacingAndGlyphs" textLength="43" x="347.5" y="63.1543">MyByte</text><line style="stroke: #A80036; stroke-width: 1.5;" x1="319.5" x2="392.5" y1="75" y2="75"/><line style="stroke: #A80036; stroke-width: 1.5;" x1="319.5" x2="392.5" y1="83" y2="83"/><!--class scjp2.MyEnum--><rect fill="#FEFECE" filter="url(#fbxijirj5lhrs)" height="48" id="scjp2.MyEnum" style="stroke: #A80036; stroke-width: 1.5;" width="83" x="428.5" y="43"/><ellipse cx="443.5" cy="59" fill="#ADD1B2" rx="11" ry="11" style="stroke: #A80036; stroke-width: 1.0;"/><path d="M446.4688,64.6406 Q445.8906,64.9375 445.25,65.0781 Q444.6094,65.2344 443.9063,65.2344 Q441.4063,65.2344 440.0781,63.5938 Q438.7656,61.9375 438.7656,58.8125 Q438.7656,55.6875 440.0781,54.0313 Q441.4063,52.375 443.9063,52.375 Q444.6094,52.375 445.25,52.5313 Q445.9063,52.6875 446.4688,52.9844 L446.4688,55.7031 Q445.8438,55.125 445.25,54.8594 Q444.6563,54.5781 444.0313,54.5781 Q442.6875,54.5781 442,55.6563 Q441.3125,56.7188 441.3125,58.8125 Q441.3125,60.9063 442,61.9844 Q442.6875,63.0469 444.0313,63.0469 Q444.6563,63.0469 445.25,62.7813 Q445.8438,62.5 446.4688,61.9219 L446.4688,64.6406 Z "/><text fill="#000000" font-family="sans-serif" font-size="12" lengthAdjust="spacingAndGlyphs" textLength="51" x="457.5" y="63.1543">MyEnum</text><line style="stroke: #A80036; stroke-width: 1.5;" x1="429.5" x2="510.5" y1="75" y2="75"/><line style="stroke: #A80036; stroke-width: 1.5;" x1="429.5" x2="510.5" y1="83" y2="83"/><!--class scjp2.MyWideBox--><rect fill="#FEFECE" filter="url(#fbxijirj5lhrs)" height="48" id="scjp2.MyWideBox" style="stroke: #A80036; stroke-width: 1.5;" width="100" x="235" y="151"/><ellipse cx="250" cy="167" fill="#ADD1B2" rx="11" ry="11" style="stroke: #A80036; stroke-width: 1.0;"/><path d="M252.9688,172.6406 Q252.3906,172.9375 251.75,173.0781 Q251.1094,173.2344 250.4063,173.2344 Q247.9063,173.2344 246.5781,171.5938 Q245.2656,169.9375 245.2656,166.8125 Q245.2656,163.6875 246.5781,162.0313 Q247.9063,160.375 250.4063,160.375 Q251.1094,160.375 251.75,160.5313 Q252.4063,160.6875 252.9688,160.9844 L252.9688,163.7031 Q252.3438,163.125 251.75,162.8594 Q251.1563,162.5781 250.5313,162.5781 Q249.1875,162.5781 248.5,163.6563 Q247.8125,164.7188 247.8125,166.8125 Q247.8125,168.9063 248.5,169.9844 Q249.1875,171.0469 250.5313,171.0469 Q251.1563,171.0469 251.75,170.7813 Q252.3438,170.5 252.9688,169.9219 L252.9688,172.6406 Z "/><text fill="#000000" font-family="sans-serif" font-size="12" lengthAdjust="spacingAndGlyphs" textLength="68" x="264" y="171.1543">MyWideBox</text><line style="stroke: #A80036; stroke-width: 1.5;" x1="236" x2="334" y1="183" y2="183"/><line style="stroke: #A80036; stroke-width: 1.5;" x1="236" x2="334" y1="191" y2="191"/><!--class scjp2.UseAnimals--><rect fill="#FEFECE" filter="url(#fbxijirj5lhrs)" height="48" id="scjp2.UseAnimals" style="stroke: #A80036; stroke-width: 1.5;" width="104" x="817" y="43"/><ellipse cx="832" cy="59" fill="#ADD1B2" rx="11" ry="11" style="stroke: #A80036; stroke-width: 1.0;"/><path d="M834.9688,64.6406 Q834.3906,64.9375 833.75,65.0781 Q833.1094,65.2344 832.4063,65.2344 Q829.9063,65.2344 828.5781,63.5938 Q827.2656,61.9375 827.2656,58.8125 Q827.2656,55.6875 828.5781,54.0313 Q829.9063,52.375 832.4063,52.375 Q833.1094,52.375 833.75,52.5313 Q834.4063,52.6875 834.9688,52.9844 L834.9688,55.7031 Q834.3438,55.125 833.75,54.8594 Q833.1563,54.5781 832.5313,54.5781 Q831.1875,54.5781 830.5,55.6563 Q829.8125,56.7188 829.8125,58.8125 Q829.8125,60.9063 830.5,61.9844 Q831.1875,63.0469 832.5313,63.0469 Q833.1563,63.0469 833.75,62.7813 Q834.3438,62.5 834.9688,61.9219 L834.9688,64.6406 Z "/><text fill="#000000" font-family="sans-serif" font-size="12" lengthAdjust="spacingAndGlyphs" textLength="72" x="846" y="63.1543">UseAnimals</text><line style="stroke: #A80036; stroke-width: 1.5;" x1="818" x2="920" y1="75" y2="75"/><line style="stroke: #A80036; stroke-width: 1.5;" x1="818" x2="920" y1="83" y2="83"/><!--class scjp2.Vehicle--><rect fill="#FEFECE" filter="url(#fbxijirj5lhrs)" height="48" id="scjp2.Vehicle" style="stroke: #A80036; stroke-width: 1.5;" width="77" x="370.5" y="151"/><ellipse cx="385.5" cy="167" fill="#B4A7E5" rx="11" ry="11" style="stroke: #A80036; stroke-width: 1.0;"/><path d="M381.4219,162.7656 L381.4219,160.6094 L388.8125,160.6094 L388.8125,162.7656 L386.3438,162.7656 L386.3438,170.8438 L388.8125,170.8438 L388.8125,173 L381.4219,173 L381.4219,170.8438 L383.8906,170.8438 L383.8906,162.7656 L381.4219,162.7656 Z "/><text fill="#000000" font-family="sans-serif" font-size="12" font-style="italic" lengthAdjust="spacingAndGlyphs" textLength="45" x="399.5" y="171.1543">Vehicle</text><line style="stroke: #A80036; stroke-width: 1.5;" x1="371.5" x2="446.5" y1="183" y2="183"/><line style="stroke: #A80036; stroke-width: 1.5;" x1="371.5" x2="446.5" y1="191" y2="191"/><!--class java.lang.Override--><rect fill="#FEFECE" filter="url(#fbxijirj5lhrs)" height="48" id="java.lang.Override" style="stroke: #A80036; stroke-width: 1.5;" width="84" x="1913" y="151"/><ellipse cx="1928" cy="167" fill="#E3664A" rx="11" ry="11" style="stroke: #A80036; stroke-width: 1.0;"/><path d="M1930.0781,167.4688 Q1930.0781,166.5313 1929.6563,166 Q1929.2344,165.4688 1928.4844,165.4688 Q1927.75,165.4688 1927.3281,166 Q1926.9219,166.5313 1926.9219,167.4688 Q1926.9219,168.4219 1927.3281,168.9531 Q1927.75,169.4844 1928.4844,169.4844 Q1929.2344,169.4844 1929.6563,168.9531 Q1930.0781,168.4219 1930.0781,167.4688 Z M1931.625,170.875 L1930,170.875 L1930,170.2031 Q1929.6719,170.6406 1929.25,170.8438 Q1928.8281,171.0469 1928.2188,171.0469 Q1926.8594,171.0469 1926.0313,170.0781 Q1925.2031,169.0938 1925.2031,167.4688 Q1925.2031,165.875 1926.0313,164.9063 Q1926.8594,163.9219 1928.2188,163.9219 Q1928.8125,163.9219 1929.2656,164.125 Q1929.7188,164.3281 1930,164.7188 L1930,164.375 Q1930,163.25 1929.375,162.6406 Q1928.75,162.0156 1927.6094,162.0156 Q1925.8906,162.0156 1924.7969,163.5469 Q1923.7031,165.0625 1923.7031,167.5 Q1923.7031,170.0469 1924.9531,171.5469 Q1926.2188,173.0469 1928.3281,173.0469 Q1928.9844,173.0469 1929.6094,172.8594 Q1930.2344,172.6719 1930.8125,172.2813 L1931.5781,173.7344 Q1930.9063,174.1875 1930.1094,174.4063 Q1929.3125,174.6406 1928.4063,174.6406 Q1925.5,174.6406 1923.7656,172.7031 Q1922.0469,170.7813 1922.0469,167.5 Q1922.0469,164.2813 1923.5938,162.3594 Q1925.1563,160.4219 1927.7188,160.4219 Q1929.5156,160.4219 1930.5625,161.5156 Q1931.625,162.6094 1931.625,164.4844 L1931.625,170.875 Z "/><text fill="#000000" font-family="sans-serif" font-size="12" lengthAdjust="spacingAndGlyphs" textLength="52" x="1942" y="171.1543">Override</text><line style="stroke: #A80036; stroke-width: 1.5;" x1="1914" x2="1996" y1="183" y2="183"/><line style="stroke: #A80036; stroke-width: 1.5;" x1="1914" x2="1996" y1="191" y2="191"/><!--class java.awt.FlowLayout--><rect fill="#FEFECE" filter="url(#fbxijirj5lhrs)" height="48" id="java.awt.FlowLayout" style="stroke: #A80036; stroke-width: 1.5;" width="100" x="945" y="151"/><ellipse cx="960" cy="167" fill="#ADD1B2" rx="11" ry="11" style="stroke: #A80036; stroke-width: 1.0;"/><path d="M962.9688,172.6406 Q962.3906,172.9375 961.75,173.0781 Q961.1094,173.2344 960.4063,173.2344 Q957.9063,173.2344 956.5781,171.5938 Q955.2656,169.9375 955.2656,166.8125 Q955.2656,163.6875 956.5781,162.0313 Q957.9063,160.375 960.4063,160.375 Q961.1094,160.375 961.75,160.5313 Q962.4063,160.6875 962.9688,160.9844 L962.9688,163.7031 Q962.3438,163.125 961.75,162.8594 Q961.1563,162.5781 960.5313,162.5781 Q959.1875,162.5781 958.5,163.6563 Q957.8125,164.7188 957.8125,166.8125 Q957.8125,168.9063 958.5,169.9844 Q959.1875,171.0469 960.5313,171.0469 Q961.1563,171.0469 961.75,170.7813 Q962.3438,170.5 962.9688,169.9219 L962.9688,172.6406 Z "/><text fill="#000000" font-family="sans-serif" font-size="12" lengthAdjust="spacingAndGlyphs" textLength="68" x="974" y="171.1543">FlowLayout</text><line style="stroke: #A80036; stroke-width: 1.5;" x1="946" x2="1044" y1="183" y2="183"/><line style="stroke: #A80036; stroke-width: 1.5;" x1="946" x2="1044" y1="191" y2="191"/><!--class java.awt.event.ActionEvent--><rect fill="#FEFECE" filter="url(#fbxijirj5lhrs)" height="48" id="java.awt.event.ActionEvent" style="stroke: #A80036; stroke-width: 1.5;" width="106" x="1550" y="151"/><ellipse cx="1565" cy="167" fill="#ADD1B2" rx="11" ry="11" style="stroke: #A80036; stroke-width: 1.0;"/><path d="M1567.9688,172.6406 Q1567.3906,172.9375 1566.75,173.0781 Q1566.1094,173.2344 1565.4063,173.2344 Q1562.9063,173.2344 1561.5781,171.5938 Q1560.2656,169.9375 1560.2656,166.8125 Q1560.2656,163.6875 1561.5781,162.0313 Q1562.9063,160.375 1565.4063,160.375 Q1566.1094,160.375 1566.75,160.5313 Q1567.4063,160.6875 1567.9688,160.9844 L1567.9688,163.7031 Q1567.3438,163.125 1566.75,162.8594 Q1566.1563,162.5781 1565.5313,162.5781 Q1564.1875,162.5781 1563.5,163.6563 Q1562.8125,164.7188 1562.8125,166.8125 Q1562.8125,168.9063 1563.5,169.9844 Q1564.1875,171.0469 1565.5313,171.0469 Q1566.1563,171.0469 1566.75,170.7813 Q1567.3438,170.5 1567.9688,169.9219 L1567.9688,172.6406 Z "/><text fill="#000000" font-family="sans-serif" font-size="12" lengthAdjust="spacingAndGlyphs" textLength="74" x="1579" y="171.1543">ActionEvent</text><line style="stroke: #A80036; stroke-width: 1.5;" x1="1551" x2="1655" y1="183" y2="183"/><line style="stroke: #A80036; stroke-width: 1.5;" x1="1551" x2="1655" y1="191" y2="191"/><!--class java.awt.event.ActionListener--><rect fill="#FEFECE" filter="url(#fbxijirj5lhrs)" height="48" id="java.awt.event.ActionListener" style="stroke: #A80036; stroke-width: 1.5;" width="121" x="1393.5" y="151"/><ellipse cx="1408.5" cy="167" fill="#ADD1B2" rx="11" ry="11" style="stroke: #A80036; stroke-width: 1.0;"/><path d="M1411.4688,172.6406 Q1410.8906,172.9375 1410.25,173.0781 Q1409.6094,173.2344 1408.9063,173.2344 Q1406.4063,173.2344 1405.0781,171.5938 Q1403.7656,169.9375 1403.7656,166.8125 Q1403.7656,163.6875 1405.0781,162.0313 Q1406.4063,160.375 1408.9063,160.375 Q1409.6094,160.375 1410.25,160.5313 Q1410.9063,160.6875 1411.4688,160.9844 L1411.4688,163.7031 Q1410.8438,163.125 1410.25,162.8594 Q1409.6563,162.5781 1409.0313,162.5781 Q1407.6875,162.5781 1407,163.6563 Q1406.3125,164.7188 1406.3125,166.8125 Q1406.3125,168.9063 1407,169.9844 Q1407.6875,171.0469 1409.0313,171.0469 Q1409.6563,171.0469 1410.25,170.7813 Q1410.8438,170.5 1411.4688,169.9219 L1411.4688,172.6406 Z "/><text fill="#000000" font-family="sans-serif" font-size="12" lengthAdjust="spacingAndGlyphs" textLength="89" x="1422.5" y="171.1543">ActionListener</text><line style="stroke: #A80036; stroke-width: 1.5;" x1="1394.5" x2="1513.5" y1="183" y2="183"/><line style="stroke: #A80036; stroke-width: 1.5;" x1="1394.5" x2="1513.5" y1="191" y2="191"/><!--class java.awt.event.WindowAdapter--><rect fill="#FEFECE" filter="url(#fbxijirj5lhrs)" height="48" id="java.awt.event.WindowAdapter" style="stroke: #A80036; stroke-width: 1.5;" width="129" x="1229.5" y="151"/><ellipse cx="1244.5" cy="167" fill="#ADD1B2" rx="11" ry="11" style="stroke: #A80036; stroke-width: 1.0;"/><path d="M1247.4688,172.6406 Q1246.8906,172.9375 1246.25,173.0781 Q1245.6094,173.2344 1244.9063,173.2344 Q1242.4063,173.2344 1241.0781,171.5938 Q1239.7656,169.9375 1239.7656,166.8125 Q1239.7656,163.6875 1241.0781,162.0313 Q1242.4063,160.375 1244.9063,160.375 Q1245.6094,160.375 1246.25,160.5313 Q1246.9063,160.6875 1247.4688,160.9844 L1247.4688,163.7031 Q1246.8438,163.125 1246.25,162.8594 Q1245.6563,162.5781 1245.0313,162.5781 Q1243.6875,162.5781 1243,163.6563 Q1242.3125,164.7188 1242.3125,166.8125 Q1242.3125,168.9063 1243,169.9844 Q1243.6875,171.0469 1245.0313,171.0469 Q1245.6563,171.0469 1246.25,170.7813 Q1246.8438,170.5 1247.4688,169.9219 L1247.4688,172.6406 Z "/><text fill="#000000" font-family="sans-serif" font-size="12" lengthAdjust="spacingAndGlyphs" textLength="97" x="1258.5" y="171.1543">WindowAdapter</text><line style="stroke: #A80036; stroke-width: 1.5;" x1="1230.5" x2="1357.5" y1="183" y2="183"/><line style="stroke: #A80036; stroke-width: 1.5;" x1="1230.5" x2="1357.5" y1="191" y2="191"/><!--class java.awt.event.WindowEvent--><rect fill="#FEFECE" filter="url(#fbxijirj5lhrs)" height="48" id="java.awt.event.WindowEvent" style="stroke: #A80036; stroke-width: 1.5;" width="114" x="1080" y="151"/><ellipse cx="1095" cy="167" fill="#ADD1B2" rx="11" ry="11" style="stroke: #A80036; stroke-width: 1.0;"/><path d="M1097.9688,172.6406 Q1097.3906,172.9375 1096.75,173.0781 Q1096.1094,173.2344 1095.4063,173.2344 Q1092.9063,173.2344 1091.5781,171.5938 Q1090.2656,169.9375 1090.2656,166.8125 Q1090.2656,163.6875 1091.5781,162.0313 Q1092.9063,160.375 1095.4063,160.375 Q1096.1094,160.375 1096.75,160.5313 Q1097.4063,160.6875 1097.9688,160.9844 L1097.9688,163.7031 Q1097.3438,163.125 1096.75,162.8594 Q1096.1563,162.5781 1095.5313,162.5781 Q1094.1875,162.5781 1093.5,163.6563 Q1092.8125,164.7188 1092.8125,166.8125 Q1092.8125,168.9063 1093.5,169.9844 Q1094.1875,171.0469 1095.5313,171.0469 Q1096.1563,171.0469 1096.75,170.7813 Q1097.3438,170.5 1097.9688,169.9219 L1097.9688,172.6406 Z "/><text fill="#000000" font-family="sans-serif" font-size="12" lengthAdjust="spacingAndGlyphs" textLength="82" x="1109" y="171.1543">WindowEvent</text><line style="stroke: #A80036; stroke-width: 1.5;" x1="1081" x2="1193" y1="183" y2="183"/><line style="stroke: #A80036; stroke-width: 1.5;" x1="1081" x2="1193" y1="191" y2="191"/><!--class java.util.Date--><rect fill="#FEFECE" filter="url(#fbxijirj5lhrs)" height="48" id="java.util.Date" style="stroke: #A80036; stroke-width: 1.5;" width="62" x="2032" y="151"/><ellipse cx="2047" cy="167" fill="#ADD1B2" rx="11" ry="11" style="stroke: #A80036; stroke-width: 1.0;"/><path d="M2049.9688,172.6406 Q2049.3906,172.9375 2048.75,173.0781 Q2048.1094,173.2344 2047.4063,173.2344 Q2044.9063,173.2344 2043.5781,171.5938 Q2042.2656,169.9375 2042.2656,166.8125 Q2042.2656,163.6875 2043.5781,162.0313 Q2044.9063,160.375 2047.4063,160.375 Q2048.1094,160.375 2048.75,160.5313 Q2049.4063,160.6875 2049.9688,160.9844 L2049.9688,163.7031 Q2049.3438,163.125 2048.75,162.8594 Q2048.1563,162.5781 2047.5313,162.5781 Q2046.1875,162.5781 2045.5,163.6563 Q2044.8125,164.7188 2044.8125,166.8125 Q2044.8125,168.9063 2045.5,169.9844 Q2046.1875,171.0469 2047.5313,171.0469 Q2048.1563,171.0469 2048.75,170.7813 Q2049.3438,170.5 2049.9688,169.9219 L2049.9688,172.6406 Z "/><text fill="#000000" font-family="sans-serif" font-size="12" lengthAdjust="spacingAndGlyphs" textLength="30" x="2061" y="171.1543">Date</text><line style="stroke: #A80036; stroke-width: 1.5;" x1="2033" x2="2093" y1="183" y2="183"/><line style="stroke: #A80036; stroke-width: 1.5;" x1="2033" x2="2093" y1="191" y2="191"/><!--class javax.swing.JButton--><rect fill="#FEFECE" filter="url(#fbxijirj5lhrs)" height="48" id="javax.swing.JButton" style="stroke: #A80036; stroke-width: 1.5;" width="77" x="1800.5" y="151"/><ellipse cx="1815.5" cy="167" fill="#ADD1B2" rx="11" ry="11" style="stroke: #A80036; stroke-width: 1.0;"/><path d="M1818.4688,172.6406 Q1817.8906,172.9375 1817.25,173.0781 Q1816.6094,173.2344 1815.9063,173.2344 Q1813.4063,173.2344 1812.0781,171.5938 Q1810.7656,169.9375 1810.7656,166.8125 Q1810.7656,163.6875 1812.0781,162.0313 Q1813.4063,160.375 1815.9063,160.375 Q1816.6094,160.375 1817.25,160.5313 Q1817.9063,160.6875 1818.4688,160.9844 L1818.4688,163.7031 Q1817.8438,163.125 1817.25,162.8594 Q1816.6563,162.5781 1816.0313,162.5781 Q1814.6875,162.5781 1814,163.6563 Q1813.3125,164.7188 1813.3125,166.8125 Q1813.3125,168.9063 1814,169.9844 Q1814.6875,171.0469 1816.0313,171.0469 Q1816.6563,171.0469 1817.25,170.7813 Q1817.8438,170.5 1818.4688,169.9219 L1818.4688,172.6406 Z "/><text fill="#000000" font-family="sans-serif" font-size="12" lengthAdjust="spacingAndGlyphs" textLength="45" x="1829.5" y="171.1543">JButton</text><line style="stroke: #A80036; stroke-width: 1.5;" x1="1801.5" x2="1876.5" y1="183" y2="183"/><line style="stroke: #A80036; stroke-width: 1.5;" x1="1801.5" x2="1876.5" y1="191" y2="191"/><!--class javax.swing.JFrame--><rect fill="#FEFECE" filter="url(#fbxijirj5lhrs)" height="48" id="javax.swing.JFrame" style="stroke: #A80036; stroke-width: 1.5;" width="74" x="1691" y="151"/><ellipse cx="1706" cy="167" fill="#ADD1B2" rx="11" ry="11" style="stroke: #A80036; stroke-width: 1.0;"/><path d="M1708.9688,172.6406 Q1708.3906,172.9375 1707.75,173.0781 Q1707.1094,173.2344 1706.4063,173.2344 Q1703.9063,173.2344 1702.5781,171.5938 Q1701.2656,169.9375 1701.2656,166.8125 Q1701.2656,163.6875 1702.5781,162.0313 Q1703.9063,160.375 1706.4063,160.375 Q1707.1094,160.375 1707.75,160.5313 Q1708.4063,160.6875 1708.9688,160.9844 L1708.9688,163.7031 Q1708.3438,163.125 1707.75,162.8594 Q1707.1563,162.5781 1706.5313,162.5781 Q1705.1875,162.5781 1704.5,163.6563 Q1703.8125,164.7188 1703.8125,166.8125 Q1703.8125,168.9063 1704.5,169.9844 Q1705.1875,171.0469 1706.5313,171.0469 Q1707.1563,171.0469 1707.75,170.7813 Q1708.3438,170.5 1708.9688,169.9219 L1708.9688,172.6406 Z "/><text fill="#000000" font-family="sans-serif" font-size="12" lengthAdjust="spacingAndGlyphs" textLength="42" x="1720" y="171.1543">JFrame</text><line style="stroke: #A80036; stroke-width: 1.5;" x1="1692" x2="1764" y1="183" y2="183"/><line style="stroke: #A80036; stroke-width: 1.5;" x1="1692" x2="1764" y1="191" y2="191"/><!--link scjp2.B2 to scjp2.B1--><path d="M57,199.2373 C57,210.9099 57,225.2806 57,238.8027 " fill="none" id="scjp2.B2-scjp2.B1" style="stroke: #A80036; stroke-width: 1.0;"/><polygon fill="none" points="64.0001,238.8436,57,258.8436,50.0001,238.8436,64.0001,238.8436" style="stroke: #A80036; stroke-width: 1.0;"/><!--link scjp2.Driver to scjp2.FinalCar--><path d="M160.5512,91.2373 C160.335,102.9099 160.0689,117.2806 159.8185,130.8027 " fill="none" id="scjp2.Driver-scjp2.FinalCar" style="stroke: #A80036; stroke-width: 1.0;"/><polygon fill="none" points="166.8165,130.9767,159.4473,150.8436,152.8189,130.7174,166.8165,130.9767" style="stroke: #A80036; stroke-width: 1.0;"/><!--link scjp2.EmployeeFrame to java.awt.FlowLayout--><path d="M781.6156,86.28 C787.4846,87.9116 793.3438,89.5068 799,91 C859.9737,107.0964 881.0055,94.9913 937,124 C948.4593,129.9366 959.5005,138.6185 968.8182,147.1421 " fill="none" id="scjp2.EmployeeFrame-java.awt.FlowLayout" style="stroke: #A80036; stroke-width: 1.0; stroke-dasharray: 7.0,7.0;"/><polygon fill="#A80036" points="972.7021,150.7769,968.8641,141.7066,969.0514,147.3604,963.3977,147.5477,972.7021,150.7769" style="stroke: #A80036; stroke-width: 1.0;"/><!--link scjp2.EmployeeFrame to java.awt.event.ActionEvent--><path d="M781.8211,87.5554 C787.5924,88.8936 793.3758,90.0737 799,91 C959.8864,117.498 1377.954,70.5547 1532,124 C1546.8145,129.1398 1561.236,138.4381 1573.1686,147.7011 " fill="none" id="scjp2.EmployeeFrame-java.awt.event.ActionEvent" style="stroke: #A80036; stroke-width: 1.0; stroke-dasharray: 7.0,7.0;"/><polygon fill="#A80036" points="1577.1168,150.835,1572.5542,142.1067,1573.2005,147.7265,1567.5807,148.3728,1577.1168,150.835" style="stroke: #A80036; stroke-width: 1.0;"/><!--link scjp2.EmployeeFrame to java.awt.event.ActionListener--><path d="M781.8336,87.4812 C787.6022,88.8354 793.3815,90.0396 799,91 C925.5955,112.6404 1254.0116,83.8311 1376,124 C1391.8779,129.2284 1407.6447,138.5438 1420.8037,147.7956 " fill="none" id="scjp2.EmployeeFrame-java.awt.event.ActionListener" style="stroke: #A80036; stroke-width: 1.0; stroke-dasharray: 7.0,7.0;"/><polygon fill="#A80036" points="1425.1627,150.9247,1420.1841,142.4269,1421.1009,148.0089,1415.5188,148.9257,1425.1627,150.9247" style="stroke: #A80036; stroke-width: 1.0;"/><!--link scjp2.EmployeeFrame to java.awt.event.WindowAdapter--><path d="M781.858,87.3432 C787.6213,88.7274 793.3927,89.9761 799,91 C980.1455,124.0765 1037.0957,66.4132 1212,124 C1228.4515,129.4166 1244.9794,138.7674 1258.8427,147.9948 " fill="none" id="scjp2.EmployeeFrame-java.awt.event.WindowAdapter" style="stroke: #A80036; stroke-width: 1.0; stroke-dasharray: 7.0,7.0;"/><polygon fill="#A80036" points="1263.0565,150.85,1257.8496,142.4901,1258.9172,148.0453,1253.362,149.1129,1263.0565,150.85" style="stroke: #A80036; stroke-width: 1.0;"/><!--link scjp2.EmployeeFrame to java.awt.event.WindowEvent--><path d="M781.9119,87.0659 C787.6635,88.5103 793.4175,89.8487 799,91 C913.9454,114.7062 951.0832,82.8573 1061,124 C1076.1083,129.6552 1091.1861,138.8458 1103.8815,147.8784 " fill="none" id="scjp2.EmployeeFrame-java.awt.event.WindowEvent" style="stroke: #A80036; stroke-width: 1.0; stroke-dasharray: 7.0,7.0;"/><polygon fill="#A80036" points="1108.0922,150.9302,1103.1523,142.4098,1104.0437,147.996,1098.4575,148.8874,1108.0922,150.9302" style="stroke: #A80036; stroke-width: 1.0;"/><!--link scjp2.EmployeeFrame to javax.swing.JButton--><path d="M781.8098,87.6256 C787.5835,88.9485 793.3705,90.1059 799,91 C907.0407,108.1587 1681.6589,82.8029 1783,124 C1795.2579,128.9831 1806.5315,137.9283 1815.7008,146.9511 " fill="none" id="scjp2.EmployeeFrame-javax.swing.JButton" style="stroke: #A80036; stroke-width: 1.0; stroke-dasharray: 7.0,7.0;"/><polygon fill="#A80036" points="1819.4983,150.8114,1816.0383,141.5903,1815.9919,147.247,1810.3352,147.2006,1819.4983,150.8114" style="stroke: #A80036; stroke-width: 1.0;"/><!--link scjp2.EmployeeFrame to javax.swing.JFrame--><path d="M781.8139,87.5995 C787.5868,88.9281 793.3725,90.094 799,91 C894.8351,106.4295 1582.155,87.2532 1672,124 C1679.6545,127.1307 1686.9278,131.8012 1693.5453,137.0659 " fill="none" id="scjp2.EmployeeFrame-javax.swing.JFrame" style="stroke: #A80036; stroke-width: 1.0;"/><polygon fill="none" points="1698.5257,132.1365,1708.4873,150.8386,1689.0371,142.4306,1698.5257,132.1365" style="stroke: #A80036; stroke-width: 1.0;"/><!--link scjp2.Horse to java.lang.Override--><path d="M615.5531,85.2785 C621.2476,87.6054 627.1904,89.6441 633,91 C769.491,122.8556 1762.8877,74.4608 1894,124 C1907.1097,128.9533 1919.4151,137.9988 1929.4922,147.1117 " fill="none" id="scjp2.Horse-java.lang.Override" style="stroke: #A80036; stroke-width: 1.0; stroke-dasharray: 7.0,7.0;"/><polygon fill="#A80036" points="1933.3841,150.7349,1929.5225,141.6747,1929.7245,147.3279,1924.0713,147.53,1933.3841,150.7349" style="stroke: #A80036; stroke-width: 1.0;"/><!--link scjp2.Horse to scjp2.Animal--><path d="M581,91.2373 C581,102.9099 581,117.2806 581,130.8027 " fill="none" id="scjp2.Horse-scjp2.Animal" style="stroke: #A80036; stroke-width: 1.0;"/><polygon fill="none" points="588.0001,130.8436,581,150.8436,574.0001,130.8436,588.0001,130.8436" style="stroke: #A80036; stroke-width: 1.0;"/><!--link scjp2.MainB to scjp2.B2--><path d="M57,91.2373 C57,102.9099 57,117.2806 57,130.8027 " fill="none" id="scjp2.MainB-scjp2.B2" style="stroke: #A80036; stroke-width: 1.0;"/><polygon fill="none" points="64.0001,130.8436,57,150.8436,50.0001,130.8436,64.0001,130.8436" style="stroke: #A80036; stroke-width: 1.0;"/><!--link scjp2.UseAnimals to java.util.Date--><path d="M921.3267,67.3754 C1132.1465,69.1898 1912.7376,78.9196 2013,124 C2024.3797,129.1166 2034.5385,138.0904 2042.678,147.0987 " fill="none" id="scjp2.UseAnimals-java.util.Date" style="stroke: #A80036; stroke-width: 1.0; stroke-dasharray: 7.0,7.0;"/><polygon fill="#A80036" points="2046.0404,150.9503,2043.1349,141.5398,2042.7522,147.1837,2037.1083,146.8009,2046.0404,150.9503" style="stroke: #A80036; stroke-width: 1.0;"/><!--link scjp2.Car to scjp2.MyByte--><!--link scjp2.MyByte to scjp2.MyEnum--><!--link scjp2.Car to scjp2.MyWideBox--><!--link scjp2.MyWideBox to scjp2.Vehicle--><!--
@startuml
abstract class scjp2.Car
annotation java.lang.Override
class java.awt.FlowLayout
class java.awt.event.ActionEvent
class java.awt.event.ActionListener
class java.awt.event.WindowAdapter
class java.awt.event.WindowEvent
class java.util.Date
class javax.swing.JButton
class javax.swing.JFrame
class scjp2.Animal
class scjp2.B1
class scjp2.B2
class scjp2.Driver
class scjp2.EmployeeFrame
class scjp2.FinalCar
class scjp2.Horse
class scjp2.MainB
class scjp2.MyByte
class scjp2.MyEnum
class scjp2.MyWideBox
class scjp2.UseAnimals
interface scjp2.Vehicle
scjp2.B2 - -|> scjp2.B1
scjp2.Driver - -|> scjp2.FinalCar
scjp2.EmployeeFrame ..> java.awt.FlowLayout
scjp2.EmployeeFrame ..> java.awt.event.ActionEvent
scjp2.EmployeeFrame ..> java.awt.event.ActionListener
scjp2.EmployeeFrame ..> java.awt.event.WindowAdapter
scjp2.EmployeeFrame ..> java.awt.event.WindowEvent
scjp2.EmployeeFrame ..> javax.swing.JButton
scjp2.EmployeeFrame - -|> javax.swing.JFrame
scjp2.Horse ..> java.lang.Override
scjp2.Horse - -|> scjp2.Animal
scjp2.MainB - -|> scjp2.B2
scjp2.UseAnimals ..> java.util.Date
@enduml

PlantUML version 1.2018.10(Sat Aug 25 20:02:59 EEST 2018)
(GPL source distribution)
Java Runtime: OpenJDK Runtime Environment
JVM: OpenJDK 64-Bit Server VM
Java Version: 11.0.2+9-Debian-3
Operating System: Linux
OS Version: 4.19.0-kali1-amd64
Default Encoding: UTF-8
Language: en
Country: US
--></g></svg>