<?xml version="1.0" encoding="UTF-8" standalone="no"?><svg xmlns="http://www.w3.org/2000/svg" xmlns:xlink="http://www.w3.org/1999/xlink" contentScriptType="application/ecmascript" contentStyleType="text/css" height="220px" preserveAspectRatio="none" style="width:547px;height:220px;" version="1.1" viewBox="0 0 547 220" width="547px" zoomAndPan="magnify"><defs><filter height="300%" id="fgxc6e0se1hwk" width="300%" x="-1" y="-1"><feGaussianBlur result="blurOut" stdDeviation="2.0"/><feColorMatrix in="blurOut" result="blurOut2" type="matrix" values="0 0 0 0 0 0 0 0 0 0 0 0 0 0 0 0 0 0 .4 0"/><feOffset dx="4.0" dy="4.0" in="blurOut2" result="blurOut3"/><feBlend in="SourceGraphic" in2="blurOut3" mode="normal"/></filter></defs><g><!--MD5=[aa8f7b917213fcc1c2766e2d59b49067]
cluster java.lang--><polygon fill="#FFFFFF" filter="url(#fgxc6e0se1hwk)" points="272,114,347,114,354,136.2969,388,136.2969,388,213,272,213,272,114" style="stroke: #000000; stroke-width: 1.5;"/><line style="stroke: #000000; stroke-width: 1.5;" x1="272" x2="354" y1="136.2969" y2="136.2969"/><text fill="#000000" font-family="sans-serif" font-size="14" font-weight="bold" lengthAdjust="spacingAndGlyphs" textLength="69" x="276" y="128.9951">java.lang</text><!--MD5=[7db3c59d38ae5b37b484eb2df9368145]
cluster java.util--><polygon fill="#FFFFFF" filter="url(#fgxc6e0se1hwk)" points="412,114,478,114,485,136.2969,530,136.2969,530,213,412,213,412,114" style="stroke: #000000; stroke-width: 1.5;"/><line style="stroke: #000000; stroke-width: 1.5;" x1="412" x2="485" y1="136.2969" y2="136.2969"/><text fill="#000000" font-family="sans-serif" font-size="14" font-weight="bold" lengthAdjust="spacingAndGlyphs" textLength="60" x="416" y="128.9951">java.util</text><!--MD5=[67de08d2c9ea140451fe221aaa886128]
cluster observer3--><polygon fill="#FFFFFF" filter="url(#fgxc6e0se1hwk)" points="16,6,104,6,111,28.2969,248,28.2969,248,213,16,213,16,6" style="stroke: #000000; stroke-width: 1.5;"/><line style="stroke: #000000; stroke-width: 1.5;" x1="16" x2="111" y1="28.2969" y2="28.2969"/><text fill="#000000" font-family="sans-serif" font-size="14" font-weight="bold" lengthAdjust="spacingAndGlyphs" textLength="82" x="20" y="20.9951">observer3</text><!--MD5=[3c78a2fa643d9223b1f8ad930e883961]
class java.lang.Override--><rect codeLine="1" fill="#FEFECE" filter="url(#fgxc6e0se1hwk)" height="48" id="java.lang.Override" style="stroke: #A80036; stroke-width: 1.5;" width="84" x="288" y="149"/><ellipse cx="303" cy="165" fill="#E3664A" rx="11" ry="11" style="stroke: #A80036; stroke-width: 1.0;"/><path d="M305.0781,165.4688 Q305.0781,164.5313 304.6563,164 Q304.2344,163.4688 303.4844,163.4688 Q302.75,163.4688 302.3281,164 Q301.9219,164.5313 301.9219,165.4688 Q301.9219,166.4219 302.3281,166.9531 Q302.75,167.4844 303.4844,167.4844 Q304.2344,167.4844 304.6563,166.9531 Q305.0781,166.4219 305.0781,165.4688 Z M306.625,168.875 L305,168.875 L305,168.2031 Q304.6719,168.6406 304.25,168.8438 Q303.8281,169.0469 303.2188,169.0469 Q301.8594,169.0469 301.0313,168.0781 Q300.2031,167.0938 300.2031,165.4688 Q300.2031,163.875 301.0313,162.9063 Q301.8594,161.9219 303.2188,161.9219 Q303.8125,161.9219 304.2656,162.125 Q304.7188,162.3281 305,162.7188 L305,162.375 Q305,161.25 304.375,160.6406 Q303.75,160.0156 302.6094,160.0156 Q300.8906,160.0156 299.7969,161.5469 Q298.7031,163.0625 298.7031,165.5 Q298.7031,168.0469 299.9531,169.5469 Q301.2188,171.0469 303.3281,171.0469 Q303.9844,171.0469 304.6094,170.8594 Q305.2344,170.6719 305.8125,170.2813 L306.5781,171.7344 Q305.9063,172.1875 305.1094,172.4063 Q304.3125,172.6406 303.4063,172.6406 Q300.5,172.6406 298.7656,170.7031 Q297.0469,168.7813 297.0469,165.5 Q297.0469,162.2813 298.5938,160.3594 Q300.1563,158.4219 302.7188,158.4219 Q304.5156,158.4219 305.5625,159.5156 Q306.625,160.6094 306.625,162.4844 L306.625,168.875 Z "/><text fill="#000000" font-family="sans-serif" font-size="12" lengthAdjust="spacingAndGlyphs" textLength="52" x="317" y="169.1543">Override</text><line style="stroke: #A80036; stroke-width: 1.5;" x1="289" x2="371" y1="181" y2="181"/><line style="stroke: #A80036; stroke-width: 1.5;" x1="289" x2="371" y1="189" y2="189"/><!--MD5=[8479184e23c2bec09445fccfd361f5d2]
class java.util.ArrayList--><rect codeLine="2" fill="#FEFECE" filter="url(#fgxc6e0se1hwk)" height="48" id="java.util.ArrayList" style="stroke: #A80036; stroke-width: 1.5;" width="85" x="428.5" y="149"/><ellipse cx="443.5" cy="165" fill="#ADD1B2" rx="11" ry="11" style="stroke: #A80036; stroke-width: 1.0;"/><path d="M446.4688,170.6406 Q445.8906,170.9375 445.25,171.0781 Q444.6094,171.2344 443.9063,171.2344 Q441.4063,171.2344 440.0781,169.5938 Q438.7656,167.9375 438.7656,164.8125 Q438.7656,161.6875 440.0781,160.0313 Q441.4063,158.375 443.9063,158.375 Q444.6094,158.375 445.25,158.5313 Q445.9063,158.6875 446.4688,158.9844 L446.4688,161.7031 Q445.8438,161.125 445.25,160.8594 Q444.6563,160.5781 444.0313,160.5781 Q442.6875,160.5781 442,161.6563 Q441.3125,162.7188 441.3125,164.8125 Q441.3125,166.9063 442,167.9844 Q442.6875,169.0469 444.0313,169.0469 Q444.6563,169.0469 445.25,168.7813 Q445.8438,168.5 446.4688,167.9219 L446.4688,170.6406 Z "/><text fill="#000000" font-family="sans-serif" font-size="12" lengthAdjust="spacingAndGlyphs" textLength="53" x="457.5" y="169.1543">ArrayList</text><line style="stroke: #A80036; stroke-width: 1.5;" x1="429.5" x2="512.5" y1="181" y2="181"/><line style="stroke: #A80036; stroke-width: 1.5;" x1="429.5" x2="512.5" y1="189" y2="189"/><!--MD5=[15856b40b54d0ae1a13a571bac39929a]
class observer3.Course--><rect codeLine="3" fill="#FEFECE" filter="url(#fgxc6e0se1hwk)" height="48" id="observer3.Course" style="stroke: #A80036; stroke-width: 1.5;" width="76" x="156" y="41"/><ellipse cx="171" cy="57" fill="#ADD1B2" rx="11" ry="11" style="stroke: #A80036; stroke-width: 1.0;"/><path d="M173.9688,62.6406 Q173.3906,62.9375 172.75,63.0781 Q172.1094,63.2344 171.4063,63.2344 Q168.9063,63.2344 167.5781,61.5938 Q166.2656,59.9375 166.2656,56.8125 Q166.2656,53.6875 167.5781,52.0313 Q168.9063,50.375 171.4063,50.375 Q172.1094,50.375 172.75,50.5313 Q173.4063,50.6875 173.9688,50.9844 L173.9688,53.7031 Q173.3438,53.125 172.75,52.8594 Q172.1563,52.5781 171.5313,52.5781 Q170.1875,52.5781 169.5,53.6563 Q168.8125,54.7188 168.8125,56.8125 Q168.8125,58.9063 169.5,59.9844 Q170.1875,61.0469 171.5313,61.0469 Q172.1563,61.0469 172.75,60.7813 Q173.3438,60.5 173.9688,59.9219 L173.9688,62.6406 Z "/><text fill="#000000" font-family="sans-serif" font-size="12" lengthAdjust="spacingAndGlyphs" textLength="44" x="185" y="61.1543">Course</text><line style="stroke: #A80036; stroke-width: 1.5;" x1="157" x2="231" y1="73" y2="73"/><line style="stroke: #A80036; stroke-width: 1.5;" x1="157" x2="231" y1="81" y2="81"/><!--MD5=[0ccd424c8dac4caac43777588873787c]
class observer3.Student--><rect codeLine="4" fill="#FEFECE" filter="url(#fgxc6e0se1hwk)" height="48" id="observer3.Student" style="stroke: #A80036; stroke-width: 1.5;" width="82" x="36" y="41"/><ellipse cx="51" cy="57" fill="#ADD1B2" rx="11" ry="11" style="stroke: #A80036; stroke-width: 1.0;"/><path d="M53.9688,62.6406 Q53.3906,62.9375 52.75,63.0781 Q52.1094,63.2344 51.4063,63.2344 Q48.9063,63.2344 47.5781,61.5938 Q46.2656,59.9375 46.2656,56.8125 Q46.2656,53.6875 47.5781,52.0313 Q48.9063,50.375 51.4063,50.375 Q52.1094,50.375 52.75,50.5313 Q53.4063,50.6875 53.9688,50.9844 L53.9688,53.7031 Q53.3438,53.125 52.75,52.8594 Q52.1563,52.5781 51.5313,52.5781 Q50.1875,52.5781 49.5,53.6563 Q48.8125,54.7188 48.8125,56.8125 Q48.8125,58.9063 49.5,59.9844 Q50.1875,61.0469 51.5313,61.0469 Q52.1563,61.0469 52.75,60.7813 Q53.3438,60.5 53.9688,59.9219 L53.9688,62.6406 Z "/><text fill="#000000" font-family="sans-serif" font-size="12" lengthAdjust="spacingAndGlyphs" textLength="50" x="65" y="61.1543">Student</text><line style="stroke: #A80036; stroke-width: 1.5;" x1="37" x2="117" y1="73" y2="73"/><line style="stroke: #A80036; stroke-width: 1.5;" x1="37" x2="117" y1="81" y2="81"/><!--MD5=[4fe82d2432ac065223d6d2b659658bd8]
class observer3.Observer--><rect codeLine="5" fill="#FEFECE" filter="url(#fgxc6e0se1hwk)" height="48" id="observer3.Observer" style="stroke: #A80036; stroke-width: 1.5;" width="86" x="32" y="149"/><ellipse cx="47" cy="165" fill="#B4A7E5" rx="11" ry="11" style="stroke: #A80036; stroke-width: 1.0;"/><path d="M42.9219,160.7656 L42.9219,158.6094 L50.3125,158.6094 L50.3125,160.7656 L47.8438,160.7656 L47.8438,168.8438 L50.3125,168.8438 L50.3125,171 L42.9219,171 L42.9219,168.8438 L45.3906,168.8438 L45.3906,160.7656 L42.9219,160.7656 Z "/><text fill="#000000" font-family="sans-serif" font-size="12" font-style="italic" lengthAdjust="spacingAndGlyphs" textLength="54" x="61" y="169.1543">Observer</text><line style="stroke: #A80036; stroke-width: 1.5;" x1="33" x2="117" y1="181" y2="181"/><line style="stroke: #A80036; stroke-width: 1.5;" x1="33" x2="117" y1="189" y2="189"/><!--MD5=[e0f221bfc8949fbe0f2bcd075af390b1]
class observer3.Subject--><rect codeLine="6" fill="#FEFECE" filter="url(#fgxc6e0se1hwk)" height="48" id="observer3.Subject" style="stroke: #A80036; stroke-width: 1.5;" width="79" x="153.5" y="149"/><ellipse cx="168.5" cy="165" fill="#B4A7E5" rx="11" ry="11" style="stroke: #A80036; stroke-width: 1.0;"/><path d="M164.4219,160.7656 L164.4219,158.6094 L171.8125,158.6094 L171.8125,160.7656 L169.3438,160.7656 L169.3438,168.8438 L171.8125,168.8438 L171.8125,171 L164.4219,171 L164.4219,168.8438 L166.8906,168.8438 L166.8906,160.7656 L164.4219,160.7656 Z "/><text fill="#000000" font-family="sans-serif" font-size="12" font-style="italic" lengthAdjust="spacingAndGlyphs" textLength="47" x="182.5" y="169.1543">Subject</text><line style="stroke: #A80036; stroke-width: 1.5;" x1="154.5" x2="231.5" y1="181" y2="181"/><line style="stroke: #A80036; stroke-width: 1.5;" x1="154.5" x2="231.5" y1="189" y2="189"/><!--MD5=[0336f9a2af9984fbdfb20cad498641c8]
link observer3.Course to java.lang.Override--><path codeLine="7" d="M225.57,89.06 C232.97,94.55 240.8,100.44 248,106 C264.53,118.76 282.63,133.28 297.62,145.44 " fill="none" id="observer3.Course-to-java.lang.Override" style="stroke: #A80036; stroke-width: 1.0; stroke-dasharray: 7.0,7.0;"/><polygon fill="#A80036" points="301.76,148.81,297.2937,140.0321,297.8781,145.6587,292.2515,146.2431,301.76,148.81" style="stroke: #A80036; stroke-width: 1.0;"/><!--MD5=[e8510131fead28b209c3897d9b720ca9]
link observer3.Course to java.util.ArrayList--><path codeLine="8" d="M232.1,68.6 C272.46,72.53 337.23,82.25 388,106 C408.75,115.71 428.94,131.58 444.22,145.32 " fill="none" id="observer3.Course-to-java.util.ArrayList" style="stroke: #A80036; stroke-width: 1.0; stroke-dasharray: 7.0,7.0;"/><polygon fill="#A80036" points="447.99,148.76,444.0126,139.75,444.2871,145.4002,438.6369,145.6747,447.99,148.76" style="stroke: #A80036; stroke-width: 1.0;"/><!--MD5=[463662591e8eb498f3e0fede700b765a]
link observer3.Course to observer3.Subject--><path codeLine="9" d="M193.78,89 C193.67,100.59 193.54,115.03 193.41,128.6 " fill="none" id="observer3.Course-to-observer3.Subject" style="stroke: #A80036; stroke-width: 1.0;"/><polygon fill="none" points="200.41,128.75,193.22,148.68,186.41,128.61,200.41,128.75" style="stroke: #A80036; stroke-width: 1.0;"/><!--MD5=[94d3b0b004bfed99c2d792c8602ff6f1]
link observer3.Student to java.lang.Override--><path codeLine="10" d="M118.32,82.63 C125.16,85 132.22,87.23 139,89 C186.44,101.37 203.16,86.18 248,106 C268.96,115.26 289.05,131.28 304.11,145.22 " fill="none" id="observer3.Student-to-java.lang.Override" style="stroke: #A80036; stroke-width: 1.0; stroke-dasharray: 7.0,7.0;"/><polygon fill="#A80036" points="307.82,148.71,304.0077,139.6289,304.179,145.2832,298.5247,145.4545,307.82,148.71" style="stroke: #A80036; stroke-width: 1.0;"/><!--MD5=[565f2db10dbc053dfc4fa2af5c6603d1]
link observer3.Student to observer3.Observer--><path codeLine="11" d="M76.57,89 C76.35,100.59 76.07,115.03 75.82,128.6 " fill="none" id="observer3.Student-to-observer3.Observer" style="stroke: #A80036; stroke-width: 1.0;"/><polygon fill="none" points="82.82,128.81,75.44,148.68,68.82,128.55,82.82,128.81" style="stroke: #A80036; stroke-width: 1.0;"/><!--MD5=[875978baab1c9d2a54f6c34c4f4b7c7e]
@startuml
annotation java.lang.Override
class java.util.ArrayList
class observer3.Course
class observer3.Student
interface observer3.Observer
interface observer3.Subject
observer3.Course ..> java.lang.Override
observer3.Course ..> java.util.ArrayList
observer3.Course - -|> observer3.Subject
observer3.Student ..> java.lang.Override
observer3.Student - -|> observer3.Observer
@enduml

PlantUML version 1.2020.18(Wed Sep 30 22:40:44 EEST 2020)
(GPL source distribution)
Java Runtime: OpenJDK Runtime Environment
JVM: OpenJDK 64-Bit Server VM
Default Encoding: UTF-8
Language: en
Country: US
--></g></svg>