<?xml version="1.0" encoding="UTF-8" standalone="no"?><svg xmlns="http://www.w3.org/2000/svg" xmlns:xlink="http://www.w3.org/1999/xlink" contentScriptType="application/ecmascript" contentStyleType="text/css" height="435px" preserveAspectRatio="none" style="width:1411px;height:435px;" version="1.1" viewBox="0 0 1411 435" width="1411px" zoomAndPan="magnify"><defs><filter height="300%" id="f17wywrnuv3cov" width="300%" x="-1" y="-1"><feGaussianBlur result="blurOut" stdDeviation="2.0"/><feColorMatrix in="blurOut" result="blurOut2" type="matrix" values="0 0 0 0 0 0 0 0 0 0 0 0 0 0 0 0 0 0 .4 0"/><feOffset dx="4.0" dy="4.0" in="blurOut2" result="blurOut3"/><feBlend in="SourceGraphic" in2="blurOut3" mode="normal"/></filter></defs><g><!--cluster ch8--><polygon fill="#FFFFFF" filter="url(#f17wywrnuv3cov)" points="14,16,49,16,56,38.2969,1103,38.2969,1103,423,14,423,14,16" style="stroke: #000000; stroke-width: 1.5;"/><line style="stroke: #000000; stroke-width: 1.5;" x1="14" x2="56" y1="38.2969" y2="38.2969"/><text fill="#000000" font-family="sans-serif" font-size="14" font-weight="bold" lengthAdjust="spacingAndGlyphs" textLength="29" x="18" y="30.9951">ch8</text><!--cluster java.io--><polygon fill="#FFFFFF" filter="url(#f17wywrnuv3cov)" points="1319,124,1375,124,1382,146.2969,1389,146.2969,1389,207,1319,207,1319,124" style="stroke: #000000; stroke-width: 1.5;"/><line style="stroke: #000000; stroke-width: 1.5;" x1="1319" x2="1382" y1="146.2969" y2="146.2969"/><text fill="#000000" font-family="sans-serif" font-size="14" font-weight="bold" lengthAdjust="spacingAndGlyphs" textLength="50" x="1323" y="138.9951">java.io</text><!--cluster java.util--><polygon fill="#FFFFFF" filter="url(#f17wywrnuv3cov)" points="1111,124,1177,124,1184,146.2969,1301,146.2969,1301,207,1111,207,1111,124" style="stroke: #000000; stroke-width: 1.5;"/><line style="stroke: #000000; stroke-width: 1.5;" x1="1111" x2="1184" y1="146.2969" y2="146.2969"/><text fill="#000000" font-family="sans-serif" font-size="14" font-weight="bold" lengthAdjust="spacingAndGlyphs" textLength="60" x="1115" y="138.9951">java.util</text><!--class ch8.Animal--><rect fill="#FEFECE" filter="url(#f17wywrnuv3cov)" height="48" id="ch8.Animal" style="stroke: #A80036; stroke-width: 1.5;" width="73" x="318.5" y="151"/><ellipse cx="333.5" cy="167" fill="#ADD1B2" rx="11" ry="11" style="stroke: #A80036; stroke-width: 1.0;"/><path d="M336.4688,172.6406 Q335.8906,172.9375 335.25,173.0781 Q334.6094,173.2344 333.9063,173.2344 Q331.4063,173.2344 330.0781,171.5938 Q328.7656,169.9375 328.7656,166.8125 Q328.7656,163.6875 330.0781,162.0313 Q331.4063,160.375 333.9063,160.375 Q334.6094,160.375 335.25,160.5313 Q335.9063,160.6875 336.4688,160.9844 L336.4688,163.7031 Q335.8438,163.125 335.25,162.8594 Q334.6563,162.5781 334.0313,162.5781 Q332.6875,162.5781 332,163.6563 Q331.3125,164.7188 331.3125,166.8125 Q331.3125,168.9063 332,169.9844 Q332.6875,171.0469 334.0313,171.0469 Q334.6563,171.0469 335.25,170.7813 Q335.8438,170.5 336.4688,169.9219 L336.4688,172.6406 Z "/><text fill="#000000" font-family="sans-serif" font-size="12" lengthAdjust="spacingAndGlyphs" textLength="41" x="347.5" y="171.1543">Animal</text><line style="stroke: #A80036; stroke-width: 1.5;" x1="319.5" x2="390.5" y1="183" y2="183"/><line style="stroke: #A80036; stroke-width: 1.5;" x1="319.5" x2="390.5" y1="191" y2="191"/><!--class ch8.AnimalDoctorGeneric--><rect fill="#FEFECE" filter="url(#f17wywrnuv3cov)" height="48" id="ch8.AnimalDoctorGeneric" style="stroke: #A80036; stroke-width: 1.5;" width="163" x="517.5" y="43"/><ellipse cx="532.5" cy="59" fill="#ADD1B2" rx="11" ry="11" style="stroke: #A80036; stroke-width: 1.0;"/><path d="M535.4688,64.6406 Q534.8906,64.9375 534.25,65.0781 Q533.6094,65.2344 532.9063,65.2344 Q530.4063,65.2344 529.0781,63.5938 Q527.7656,61.9375 527.7656,58.8125 Q527.7656,55.6875 529.0781,54.0313 Q530.4063,52.375 532.9063,52.375 Q533.6094,52.375 534.25,52.5313 Q534.9063,52.6875 535.4688,52.9844 L535.4688,55.7031 Q534.8438,55.125 534.25,54.8594 Q533.6563,54.5781 533.0313,54.5781 Q531.6875,54.5781 531,55.6563 Q530.3125,56.7188 530.3125,58.8125 Q530.3125,60.9063 531,61.9844 Q531.6875,63.0469 533.0313,63.0469 Q533.6563,63.0469 534.25,62.7813 Q534.8438,62.5 535.4688,61.9219 L535.4688,64.6406 Z "/><text fill="#000000" font-family="sans-serif" font-size="12" lengthAdjust="spacingAndGlyphs" textLength="131" x="546.5" y="63.1543">AnimalDoctorGeneric</text><line style="stroke: #A80036; stroke-width: 1.5;" x1="518.5" x2="679.5" y1="75" y2="75"/><line style="stroke: #A80036; stroke-width: 1.5;" x1="518.5" x2="679.5" y1="83" y2="83"/><!--class ch8.AppleJuice--><rect fill="#FEFECE" filter="url(#f17wywrnuv3cov)" height="48" id="ch8.AppleJuice" style="stroke: #A80036; stroke-width: 1.5;" width="96" x="164" y="43"/><ellipse cx="179" cy="59" fill="#ADD1B2" rx="11" ry="11" style="stroke: #A80036; stroke-width: 1.0;"/><path d="M181.9688,64.6406 Q181.3906,64.9375 180.75,65.0781 Q180.1094,65.2344 179.4063,65.2344 Q176.9063,65.2344 175.5781,63.5938 Q174.2656,61.9375 174.2656,58.8125 Q174.2656,55.6875 175.5781,54.0313 Q176.9063,52.375 179.4063,52.375 Q180.1094,52.375 180.75,52.5313 Q181.4063,52.6875 181.9688,52.9844 L181.9688,55.7031 Q181.3438,55.125 180.75,54.8594 Q180.1563,54.5781 179.5313,54.5781 Q178.1875,54.5781 177.5,55.6563 Q176.8125,56.7188 176.8125,58.8125 Q176.8125,60.9063 177.5,61.9844 Q178.1875,63.0469 179.5313,63.0469 Q180.1563,63.0469 180.75,62.7813 Q181.3438,62.5 181.9688,61.9219 L181.9688,64.6406 Z "/><text fill="#000000" font-family="sans-serif" font-size="12" lengthAdjust="spacingAndGlyphs" textLength="64" x="193" y="63.1543">AppleJuice</text><line style="stroke: #A80036; stroke-width: 1.5;" x1="165" x2="259" y1="75" y2="75"/><line style="stroke: #A80036; stroke-width: 1.5;" x1="165" x2="259" y1="83" y2="83"/><!--class ch8.Bartender--><rect fill="#FEFECE" filter="url(#f17wywrnuv3cov)" height="48" id="ch8.Bartender" style="stroke: #A80036; stroke-width: 1.5;" width="95" x="387.5" y="43"/><ellipse cx="402.5" cy="59" fill="#ADD1B2" rx="11" ry="11" style="stroke: #A80036; stroke-width: 1.0;"/><path d="M405.4688,64.6406 Q404.8906,64.9375 404.25,65.0781 Q403.6094,65.2344 402.9063,65.2344 Q400.4063,65.2344 399.0781,63.5938 Q397.7656,61.9375 397.7656,58.8125 Q397.7656,55.6875 399.0781,54.0313 Q400.4063,52.375 402.9063,52.375 Q403.6094,52.375 404.25,52.5313 Q404.9063,52.6875 405.4688,52.9844 L405.4688,55.7031 Q404.8438,55.125 404.25,54.8594 Q403.6563,54.5781 403.0313,54.5781 Q401.6875,54.5781 401,55.6563 Q400.3125,56.7188 400.3125,58.8125 Q400.3125,60.9063 401,61.9844 Q401.6875,63.0469 403.0313,63.0469 Q403.6563,63.0469 404.25,62.7813 Q404.8438,62.5 405.4688,61.9219 L405.4688,64.6406 Z "/><text fill="#000000" font-family="sans-serif" font-size="12" lengthAdjust="spacingAndGlyphs" textLength="63" x="416.5" y="63.1543">Bartender</text><line style="stroke: #A80036; stroke-width: 1.5;" x1="388.5" x2="481.5" y1="75" y2="75"/><line style="stroke: #A80036; stroke-width: 1.5;" x1="388.5" x2="481.5" y1="83" y2="83"/><!--class ch8.Blue--><rect fill="#FEFECE" filter="url(#f17wywrnuv3cov)" height="48" id="ch8.Blue" style="stroke: #A80036; stroke-width: 1.5;" width="59" x="819.5" y="43"/><ellipse cx="834.5" cy="59" fill="#ADD1B2" rx="11" ry="11" style="stroke: #A80036; stroke-width: 1.0;"/><path d="M837.4688,64.6406 Q836.8906,64.9375 836.25,65.0781 Q835.6094,65.2344 834.9063,65.2344 Q832.4063,65.2344 831.0781,63.5938 Q829.7656,61.9375 829.7656,58.8125 Q829.7656,55.6875 831.0781,54.0313 Q832.4063,52.375 834.9063,52.375 Q835.6094,52.375 836.25,52.5313 Q836.9063,52.6875 837.4688,52.9844 L837.4688,55.7031 Q836.8438,55.125 836.25,54.8594 Q835.6563,54.5781 835.0313,54.5781 Q833.6875,54.5781 833,55.6563 Q832.3125,56.7188 832.3125,58.8125 Q832.3125,60.9063 833,61.9844 Q833.6875,63.0469 835.0313,63.0469 Q835.6563,63.0469 836.25,62.7813 Q836.8438,62.5 837.4688,61.9219 L837.4688,64.6406 Z "/><text fill="#000000" font-family="sans-serif" font-size="12" lengthAdjust="spacingAndGlyphs" textLength="27" x="848.5" y="63.1543">Blue</text><line style="stroke: #A80036; stroke-width: 1.5;" x1="820.5" x2="877.5" y1="75" y2="75"/><line style="stroke: #A80036; stroke-width: 1.5;" x1="820.5" x2="877.5" y1="83" y2="83"/><!--class ch8.Cake--><rect fill="#FEFECE" filter="url(#f17wywrnuv3cov)" height="48" id="ch8.Cake" style="stroke: #A80036; stroke-width: 1.5;" width="63" x="913.5" y="43"/><ellipse cx="928.5" cy="59" fill="#ADD1B2" rx="11" ry="11" style="stroke: #A80036; stroke-width: 1.0;"/><path d="M931.4688,64.6406 Q930.8906,64.9375 930.25,65.0781 Q929.6094,65.2344 928.9063,65.2344 Q926.4063,65.2344 925.0781,63.5938 Q923.7656,61.9375 923.7656,58.8125 Q923.7656,55.6875 925.0781,54.0313 Q926.4063,52.375 928.9063,52.375 Q929.6094,52.375 930.25,52.5313 Q930.9063,52.6875 931.4688,52.9844 L931.4688,55.7031 Q930.8438,55.125 930.25,54.8594 Q929.6563,54.5781 929.0313,54.5781 Q927.6875,54.5781 927,55.6563 Q926.3125,56.7188 926.3125,58.8125 Q926.3125,60.9063 927,61.9844 Q927.6875,63.0469 929.0313,63.0469 Q929.6563,63.0469 930.25,62.7813 Q930.8438,62.5 931.4688,61.9219 L931.4688,64.6406 Z "/><text fill="#000000" font-family="sans-serif" font-size="12" lengthAdjust="spacingAndGlyphs" textLength="31" x="942.5" y="63.1543">Cake</text><line style="stroke: #A80036; stroke-width: 1.5;" x1="914.5" x2="975.5" y1="75" y2="75"/><line style="stroke: #A80036; stroke-width: 1.5;" x1="914.5" x2="975.5" y1="83" y2="83"/><!--class ch8.CockTail--><rect fill="#FEFECE" filter="url(#f17wywrnuv3cov)" height="48" id="ch8.CockTail" style="stroke: #A80036; stroke-width: 1.5;" width="83" x="1011.5" y="43"/><ellipse cx="1026.5" cy="59" fill="#ADD1B2" rx="11" ry="11" style="stroke: #A80036; stroke-width: 1.0;"/><path d="M1029.4688,64.6406 Q1028.8906,64.9375 1028.25,65.0781 Q1027.6094,65.2344 1026.9063,65.2344 Q1024.4063,65.2344 1023.0781,63.5938 Q1021.7656,61.9375 1021.7656,58.8125 Q1021.7656,55.6875 1023.0781,54.0313 Q1024.4063,52.375 1026.9063,52.375 Q1027.6094,52.375 1028.25,52.5313 Q1028.9063,52.6875 1029.4688,52.9844 L1029.4688,55.7031 Q1028.8438,55.125 1028.25,54.8594 Q1027.6563,54.5781 1027.0313,54.5781 Q1025.6875,54.5781 1025,55.6563 Q1024.3125,56.7188 1024.3125,58.8125 Q1024.3125,60.9063 1025,61.9844 Q1025.6875,63.0469 1027.0313,63.0469 Q1027.6563,63.0469 1028.25,62.7813 Q1028.8438,62.5 1029.4688,61.9219 L1029.4688,64.6406 Z "/><text fill="#000000" font-family="sans-serif" font-size="12" lengthAdjust="spacingAndGlyphs" textLength="51" x="1040.5" y="63.1543">CockTail</text><line style="stroke: #A80036; stroke-width: 1.5;" x1="1012.5" x2="1093.5" y1="75" y2="75"/><line style="stroke: #A80036; stroke-width: 1.5;" x1="1012.5" x2="1093.5" y1="83" y2="83"/><!--class ch8.Color--><rect fill="#FEFECE" filter="url(#f17wywrnuv3cov)" height="48" id="ch8.Color" style="stroke: #A80036; stroke-width: 1.5;" width="64" x="427" y="151"/><ellipse cx="442" cy="167" fill="#ADD1B2" rx="11" ry="11" style="stroke: #A80036; stroke-width: 1.0;"/><path d="M444.9688,172.6406 Q444.3906,172.9375 443.75,173.0781 Q443.1094,173.2344 442.4063,173.2344 Q439.9063,173.2344 438.5781,171.5938 Q437.2656,169.9375 437.2656,166.8125 Q437.2656,163.6875 438.5781,162.0313 Q439.9063,160.375 442.4063,160.375 Q443.1094,160.375 443.75,160.5313 Q444.4063,160.6875 444.9688,160.9844 L444.9688,163.7031 Q444.3438,163.125 443.75,162.8594 Q443.1563,162.5781 442.5313,162.5781 Q441.1875,162.5781 440.5,163.6563 Q439.8125,164.7188 439.8125,166.8125 Q439.8125,168.9063 440.5,169.9844 Q441.1875,171.0469 442.5313,171.0469 Q443.1563,171.0469 443.75,170.7813 Q444.3438,170.5 444.9688,169.9219 L444.9688,172.6406 Z "/><text fill="#000000" font-family="sans-serif" font-size="12" lengthAdjust="spacingAndGlyphs" textLength="32" x="456" y="171.1543">Color</text><line style="stroke: #A80036; stroke-width: 1.5;" x1="428" x2="490" y1="183" y2="183"/><line style="stroke: #A80036; stroke-width: 1.5;" x1="428" x2="490" y1="191" y2="191"/><!--class ch8.Diesel--><rect fill="#FEFECE" filter="url(#f17wywrnuv3cov)" height="48" id="ch8.Diesel" style="stroke: #A80036; stroke-width: 1.5;" width="70" x="526" y="151"/><ellipse cx="541" cy="167" fill="#ADD1B2" rx="11" ry="11" style="stroke: #A80036; stroke-width: 1.0;"/><path d="M543.9688,172.6406 Q543.3906,172.9375 542.75,173.0781 Q542.1094,173.2344 541.4063,173.2344 Q538.9063,173.2344 537.5781,171.5938 Q536.2656,169.9375 536.2656,166.8125 Q536.2656,163.6875 537.5781,162.0313 Q538.9063,160.375 541.4063,160.375 Q542.1094,160.375 542.75,160.5313 Q543.4063,160.6875 543.9688,160.9844 L543.9688,163.7031 Q543.3438,163.125 542.75,162.8594 Q542.1563,162.5781 541.5313,162.5781 Q540.1875,162.5781 539.5,163.6563 Q538.8125,164.7188 538.8125,166.8125 Q538.8125,168.9063 539.5,169.9844 Q540.1875,171.0469 541.5313,171.0469 Q542.1563,171.0469 542.75,170.7813 Q543.3438,170.5 543.9688,169.9219 L543.9688,172.6406 Z "/><text fill="#000000" font-family="sans-serif" font-size="12" lengthAdjust="spacingAndGlyphs" textLength="38" x="555" y="171.1543">Diesel</text><line style="stroke: #A80036; stroke-width: 1.5;" x1="527" x2="595" y1="183" y2="183"/><line style="stroke: #A80036; stroke-width: 1.5;" x1="527" x2="595" y1="191" y2="191"/><!--class ch8.Dog--><rect fill="#FEFECE" filter="url(#f17wywrnuv3cov)" height="48" id="ch8.Dog" style="stroke: #A80036; stroke-width: 1.5;" width="57" x="295.5" y="43"/><ellipse cx="310.5" cy="59" fill="#ADD1B2" rx="11" ry="11" style="stroke: #A80036; stroke-width: 1.0;"/><path d="M313.4688,64.6406 Q312.8906,64.9375 312.25,65.0781 Q311.6094,65.2344 310.9063,65.2344 Q308.4063,65.2344 307.0781,63.5938 Q305.7656,61.9375 305.7656,58.8125 Q305.7656,55.6875 307.0781,54.0313 Q308.4063,52.375 310.9063,52.375 Q311.6094,52.375 312.25,52.5313 Q312.9063,52.6875 313.4688,52.9844 L313.4688,55.7031 Q312.8438,55.125 312.25,54.8594 Q311.6563,54.5781 311.0313,54.5781 Q309.6875,54.5781 309,55.6563 Q308.3125,56.7188 308.3125,58.8125 Q308.3125,60.9063 309,61.9844 Q309.6875,63.0469 311.0313,63.0469 Q311.6563,63.0469 312.25,62.7813 Q312.8438,62.5 313.4688,61.9219 L313.4688,64.6406 Z "/><text fill="#000000" font-family="sans-serif" font-size="12" lengthAdjust="spacingAndGlyphs" textLength="25" x="324.5" y="63.1543">Dog</text><line style="stroke: #A80036; stroke-width: 1.5;" x1="296.5" x2="351.5" y1="75" y2="75"/><line style="stroke: #A80036; stroke-width: 1.5;" x1="296.5" x2="351.5" y1="83" y2="83"/><!--class ch8.Glass--><rect fill="#FEFECE" filter="url(#f17wywrnuv3cov)" height="48" id="ch8.Glass" style="stroke: #A80036; stroke-width: 1.5;" width="66" x="631" y="151"/><ellipse cx="646" cy="167" fill="#ADD1B2" rx="11" ry="11" style="stroke: #A80036; stroke-width: 1.0;"/><path d="M648.9688,172.6406 Q648.3906,172.9375 647.75,173.0781 Q647.1094,173.2344 646.4063,173.2344 Q643.9063,173.2344 642.5781,171.5938 Q641.2656,169.9375 641.2656,166.8125 Q641.2656,163.6875 642.5781,162.0313 Q643.9063,160.375 646.4063,160.375 Q647.1094,160.375 647.75,160.5313 Q648.4063,160.6875 648.9688,160.9844 L648.9688,163.7031 Q648.3438,163.125 647.75,162.8594 Q647.1563,162.5781 646.5313,162.5781 Q645.1875,162.5781 644.5,163.6563 Q643.8125,164.7188 643.8125,166.8125 Q643.8125,168.9063 644.5,169.9844 Q645.1875,171.0469 646.5313,171.0469 Q647.1563,171.0469 647.75,170.7813 Q648.3438,170.5 648.9688,169.9219 L648.9688,172.6406 Z "/><text fill="#000000" font-family="sans-serif" font-size="12" lengthAdjust="spacingAndGlyphs" textLength="34" x="660" y="171.1543">Glass</text><line style="stroke: #A80036; stroke-width: 1.5;" x1="632" x2="696" y1="183" y2="183"/><line style="stroke: #A80036; stroke-width: 1.5;" x1="632" x2="696" y1="191" y2="191"/><!--class ch8.Glass2--><rect fill="#FEFECE" filter="url(#f17wywrnuv3cov)" height="48" id="ch8.Glass2" style="stroke: #A80036; stroke-width: 1.5;" width="74" x="732" y="151"/><ellipse cx="747" cy="167" fill="#ADD1B2" rx="11" ry="11" style="stroke: #A80036; stroke-width: 1.0;"/><path d="M749.9688,172.6406 Q749.3906,172.9375 748.75,173.0781 Q748.1094,173.2344 747.4063,173.2344 Q744.9063,173.2344 743.5781,171.5938 Q742.2656,169.9375 742.2656,166.8125 Q742.2656,163.6875 743.5781,162.0313 Q744.9063,160.375 747.4063,160.375 Q748.1094,160.375 748.75,160.5313 Q749.4063,160.6875 749.9688,160.9844 L749.9688,163.7031 Q749.3438,163.125 748.75,162.8594 Q748.1563,162.5781 747.5313,162.5781 Q746.1875,162.5781 745.5,163.6563 Q744.8125,164.7188 744.8125,166.8125 Q744.8125,168.9063 745.5,169.9844 Q746.1875,171.0469 747.5313,171.0469 Q748.1563,171.0469 748.75,170.7813 Q749.3438,170.5 749.9688,169.9219 L749.9688,172.6406 Z "/><text fill="#000000" font-family="sans-serif" font-size="12" lengthAdjust="spacingAndGlyphs" textLength="42" x="761" y="171.1543">Glass2</text><line style="stroke: #A80036; stroke-width: 1.5;" x1="733" x2="805" y1="183" y2="183"/><line style="stroke: #A80036; stroke-width: 1.5;" x1="733" x2="805" y1="191" y2="191"/><!--class ch8.Glass4--><rect fill="#FEFECE" filter="url(#f17wywrnuv3cov)" height="48" id="ch8.Glass4" style="stroke: #A80036; stroke-width: 1.5;" width="74" x="422" y="259"/><ellipse cx="437" cy="275" fill="#ADD1B2" rx="11" ry="11" style="stroke: #A80036; stroke-width: 1.0;"/><path d="M439.9688,280.6406 Q439.3906,280.9375 438.75,281.0781 Q438.1094,281.2344 437.4063,281.2344 Q434.9063,281.2344 433.5781,279.5938 Q432.2656,277.9375 432.2656,274.8125 Q432.2656,271.6875 433.5781,270.0313 Q434.9063,268.375 437.4063,268.375 Q438.1094,268.375 438.75,268.5313 Q439.4063,268.6875 439.9688,268.9844 L439.9688,271.7031 Q439.3438,271.125 438.75,270.8594 Q438.1563,270.5781 437.5313,270.5781 Q436.1875,270.5781 435.5,271.6563 Q434.8125,272.7188 434.8125,274.8125 Q434.8125,276.9063 435.5,277.9844 Q436.1875,279.0469 437.5313,279.0469 Q438.1563,279.0469 438.75,278.7813 Q439.3438,278.5 439.9688,277.9219 L439.9688,280.6406 Z "/><text fill="#000000" font-family="sans-serif" font-size="12" lengthAdjust="spacingAndGlyphs" textLength="42" x="451" y="279.1543">Glass4</text><line style="stroke: #A80036; stroke-width: 1.5;" x1="423" x2="495" y1="291" y2="291"/><line style="stroke: #A80036; stroke-width: 1.5;" x1="423" x2="495" y1="299" y2="299"/><!--class ch8.Glass5--><rect fill="#FEFECE" filter="url(#f17wywrnuv3cov)" height="48" id="ch8.Glass5" style="stroke: #A80036; stroke-width: 1.5;" width="74" x="531" y="259"/><ellipse cx="546" cy="275" fill="#ADD1B2" rx="11" ry="11" style="stroke: #A80036; stroke-width: 1.0;"/><path d="M548.9688,280.6406 Q548.3906,280.9375 547.75,281.0781 Q547.1094,281.2344 546.4063,281.2344 Q543.9063,281.2344 542.5781,279.5938 Q541.2656,277.9375 541.2656,274.8125 Q541.2656,271.6875 542.5781,270.0313 Q543.9063,268.375 546.4063,268.375 Q547.1094,268.375 547.75,268.5313 Q548.4063,268.6875 548.9688,268.9844 L548.9688,271.7031 Q548.3438,271.125 547.75,270.8594 Q547.1563,270.5781 546.5313,270.5781 Q545.1875,270.5781 544.5,271.6563 Q543.8125,272.7188 543.8125,274.8125 Q543.8125,276.9063 544.5,277.9844 Q545.1875,279.0469 546.5313,279.0469 Q547.1563,279.0469 547.75,278.7813 Q548.3438,278.5 548.9688,277.9219 L548.9688,280.6406 Z "/><text fill="#000000" font-family="sans-serif" font-size="12" lengthAdjust="spacingAndGlyphs" textLength="42" x="560" y="279.1543">Glass5</text><line style="stroke: #A80036; stroke-width: 1.5;" x1="532" x2="604" y1="291" y2="291"/><line style="stroke: #A80036; stroke-width: 1.5;" x1="532" x2="604" y1="299" y2="299"/><!--class ch8.Glass6--><rect fill="#FEFECE" filter="url(#f17wywrnuv3cov)" height="48" id="ch8.Glass6" style="stroke: #A80036; stroke-width: 1.5;" width="74" x="640" y="259"/><ellipse cx="655" cy="275" fill="#ADD1B2" rx="11" ry="11" style="stroke: #A80036; stroke-width: 1.0;"/><path d="M657.9688,280.6406 Q657.3906,280.9375 656.75,281.0781 Q656.1094,281.2344 655.4063,281.2344 Q652.9063,281.2344 651.5781,279.5938 Q650.2656,277.9375 650.2656,274.8125 Q650.2656,271.6875 651.5781,270.0313 Q652.9063,268.375 655.4063,268.375 Q656.1094,268.375 656.75,268.5313 Q657.4063,268.6875 657.9688,268.9844 L657.9688,271.7031 Q657.3438,271.125 656.75,270.8594 Q656.1563,270.5781 655.5313,270.5781 Q654.1875,270.5781 653.5,271.6563 Q652.8125,272.7188 652.8125,274.8125 Q652.8125,276.9063 653.5,277.9844 Q654.1875,279.0469 655.5313,279.0469 Q656.1563,279.0469 656.75,278.7813 Q657.3438,278.5 657.9688,277.9219 L657.9688,280.6406 Z "/><text fill="#000000" font-family="sans-serif" font-size="12" lengthAdjust="spacingAndGlyphs" textLength="42" x="669" y="279.1543">Glass6</text><line style="stroke: #A80036; stroke-width: 1.5;" x1="641" x2="713" y1="291" y2="291"/><line style="stroke: #A80036; stroke-width: 1.5;" x1="641" x2="713" y1="299" y2="299"/><!--class ch8.Green--><rect fill="#FEFECE" filter="url(#f17wywrnuv3cov)" height="48" id="ch8.Green" style="stroke: #A80036; stroke-width: 1.5;" width="70" x="749" y="259"/><ellipse cx="764" cy="275" fill="#ADD1B2" rx="11" ry="11" style="stroke: #A80036; stroke-width: 1.0;"/><path d="M766.9688,280.6406 Q766.3906,280.9375 765.75,281.0781 Q765.1094,281.2344 764.4063,281.2344 Q761.9063,281.2344 760.5781,279.5938 Q759.2656,277.9375 759.2656,274.8125 Q759.2656,271.6875 760.5781,270.0313 Q761.9063,268.375 764.4063,268.375 Q765.1094,268.375 765.75,268.5313 Q766.4063,268.6875 766.9688,268.9844 L766.9688,271.7031 Q766.3438,271.125 765.75,270.8594 Q765.1563,270.5781 764.5313,270.5781 Q763.1875,270.5781 762.5,271.6563 Q761.8125,272.7188 761.8125,274.8125 Q761.8125,276.9063 762.5,277.9844 Q763.1875,279.0469 764.5313,279.0469 Q765.1563,279.0469 765.75,278.7813 Q766.3438,278.5 766.9688,277.9219 L766.9688,280.6406 Z "/><text fill="#000000" font-family="sans-serif" font-size="12" lengthAdjust="spacingAndGlyphs" textLength="38" x="778" y="279.1543">Green</text><line style="stroke: #A80036; stroke-width: 1.5;" x1="750" x2="818" y1="291" y2="291"/><line style="stroke: #A80036; stroke-width: 1.5;" x1="750" x2="818" y1="299" y2="299"/><!--class ch8.Guest--><rect fill="#FEFECE" filter="url(#f17wywrnuv3cov)" height="48" id="ch8.Guest" style="stroke: #A80036; stroke-width: 1.5;" width="69" x="715.5" y="43"/><ellipse cx="730.5" cy="59" fill="#ADD1B2" rx="11" ry="11" style="stroke: #A80036; stroke-width: 1.0;"/><path d="M733.4688,64.6406 Q732.8906,64.9375 732.25,65.0781 Q731.6094,65.2344 730.9063,65.2344 Q728.4063,65.2344 727.0781,63.5938 Q725.7656,61.9375 725.7656,58.8125 Q725.7656,55.6875 727.0781,54.0313 Q728.4063,52.375 730.9063,52.375 Q731.6094,52.375 732.25,52.5313 Q732.9063,52.6875 733.4688,52.9844 L733.4688,55.7031 Q732.8438,55.125 732.25,54.8594 Q731.6563,54.5781 731.0313,54.5781 Q729.6875,54.5781 729,55.6563 Q728.3125,56.7188 728.3125,58.8125 Q728.3125,60.9063 729,61.9844 Q729.6875,63.0469 731.0313,63.0469 Q731.6563,63.0469 732.25,62.7813 Q732.8438,62.5 733.4688,61.9219 L733.4688,64.6406 Z "/><text fill="#000000" font-family="sans-serif" font-size="12" lengthAdjust="spacingAndGlyphs" textLength="37" x="744.5" y="63.1543">Guest</text><line style="stroke: #A80036; stroke-width: 1.5;" x1="716.5" x2="783.5" y1="75" y2="75"/><line style="stroke: #A80036; stroke-width: 1.5;" x1="716.5" x2="783.5" y1="83" y2="83"/><!--class ch8.Juice--><rect fill="#FEFECE" filter="url(#f17wywrnuv3cov)" height="48" id="ch8.Juice" style="stroke: #A80036; stroke-width: 1.5;" width="61" x="222.5" y="151"/><ellipse cx="237.5" cy="167" fill="#ADD1B2" rx="11" ry="11" style="stroke: #A80036; stroke-width: 1.0;"/><path d="M240.4688,172.6406 Q239.8906,172.9375 239.25,173.0781 Q238.6094,173.2344 237.9063,173.2344 Q235.4063,173.2344 234.0781,171.5938 Q232.7656,169.9375 232.7656,166.8125 Q232.7656,163.6875 234.0781,162.0313 Q235.4063,160.375 237.9063,160.375 Q238.6094,160.375 239.25,160.5313 Q239.9063,160.6875 240.4688,160.9844 L240.4688,163.7031 Q239.8438,163.125 239.25,162.8594 Q238.6563,162.5781 238.0313,162.5781 Q236.6875,162.5781 236,163.6563 Q235.3125,164.7188 235.3125,166.8125 Q235.3125,168.9063 236,169.9844 Q236.6875,171.0469 238.0313,171.0469 Q238.6563,171.0469 239.25,170.7813 Q239.8438,170.5 240.4688,169.9219 L240.4688,172.6406 Z "/><text fill="#000000" font-family="sans-serif" font-size="12" lengthAdjust="spacingAndGlyphs" textLength="29" x="251.5" y="171.1543">Juice</text><line style="stroke: #A80036; stroke-width: 1.5;" x1="223.5" x2="282.5" y1="183" y2="183"/><line style="stroke: #A80036; stroke-width: 1.5;" x1="223.5" x2="282.5" y1="191" y2="191"/><!--class ch8.MyGeneric01--><rect fill="#FEFECE" filter="url(#f17wywrnuv3cov)" height="48" id="ch8.MyGeneric01" style="stroke: #A80036; stroke-width: 1.5;" width="112" x="403" y="367"/><ellipse cx="418" cy="383" fill="#ADD1B2" rx="11" ry="11" style="stroke: #A80036; stroke-width: 1.0;"/><path d="M420.9688,388.6406 Q420.3906,388.9375 419.75,389.0781 Q419.1094,389.2344 418.4063,389.2344 Q415.9063,389.2344 414.5781,387.5938 Q413.2656,385.9375 413.2656,382.8125 Q413.2656,379.6875 414.5781,378.0313 Q415.9063,376.375 418.4063,376.375 Q419.1094,376.375 419.75,376.5313 Q420.4063,376.6875 420.9688,376.9844 L420.9688,379.7031 Q420.3438,379.125 419.75,378.8594 Q419.1563,378.5781 418.5313,378.5781 Q417.1875,378.5781 416.5,379.6563 Q415.8125,380.7188 415.8125,382.8125 Q415.8125,384.9063 416.5,385.9844 Q417.1875,387.0469 418.5313,387.0469 Q419.1563,387.0469 419.75,386.7813 Q420.3438,386.5 420.9688,385.9219 L420.9688,388.6406 Z "/><text fill="#000000" font-family="sans-serif" font-size="12" lengthAdjust="spacingAndGlyphs" textLength="80" x="432" y="387.1543">MyGeneric01</text><line style="stroke: #A80036; stroke-width: 1.5;" x1="404" x2="514" y1="399" y2="399"/><line style="stroke: #A80036; stroke-width: 1.5;" x1="404" x2="514" y1="407" y2="407"/><!--class ch8.OrangeJuice--><rect fill="#FEFECE" filter="url(#f17wywrnuv3cov)" height="48" id="ch8.OrangeJuice" style="stroke: #A80036; stroke-width: 1.5;" width="107" x="21.5" y="43"/><ellipse cx="36.5" cy="59" fill="#ADD1B2" rx="11" ry="11" style="stroke: #A80036; stroke-width: 1.0;"/><path d="M39.4688,64.6406 Q38.8906,64.9375 38.25,65.0781 Q37.6094,65.2344 36.9063,65.2344 Q34.4063,65.2344 33.0781,63.5938 Q31.7656,61.9375 31.7656,58.8125 Q31.7656,55.6875 33.0781,54.0313 Q34.4063,52.375 36.9063,52.375 Q37.6094,52.375 38.25,52.5313 Q38.9063,52.6875 39.4688,52.9844 L39.4688,55.7031 Q38.8438,55.125 38.25,54.8594 Q37.6563,54.5781 37.0313,54.5781 Q35.6875,54.5781 35,55.6563 Q34.3125,56.7188 34.3125,58.8125 Q34.3125,60.9063 35,61.9844 Q35.6875,63.0469 37.0313,63.0469 Q37.6563,63.0469 38.25,62.7813 Q38.8438,62.5 39.4688,61.9219 L39.4688,64.6406 Z "/><text fill="#000000" font-family="sans-serif" font-size="12" lengthAdjust="spacingAndGlyphs" textLength="75" x="50.5" y="63.1543">OrangeJuice</text><line style="stroke: #A80036; stroke-width: 1.5;" x1="22.5" x2="127.5" y1="75" y2="75"/><line style="stroke: #A80036; stroke-width: 1.5;" x1="22.5" x2="127.5" y1="83" y2="83"/><!--class ch8.Red--><rect fill="#FEFECE" filter="url(#f17wywrnuv3cov)" height="48" id="ch8.Red" style="stroke: #A80036; stroke-width: 1.5;" width="56" x="550" y="367"/><ellipse cx="565" cy="383" fill="#ADD1B2" rx="11" ry="11" style="stroke: #A80036; stroke-width: 1.0;"/><path d="M567.9688,388.6406 Q567.3906,388.9375 566.75,389.0781 Q566.1094,389.2344 565.4063,389.2344 Q562.9063,389.2344 561.5781,387.5938 Q560.2656,385.9375 560.2656,382.8125 Q560.2656,379.6875 561.5781,378.0313 Q562.9063,376.375 565.4063,376.375 Q566.1094,376.375 566.75,376.5313 Q567.4063,376.6875 567.9688,376.9844 L567.9688,379.7031 Q567.3438,379.125 566.75,378.8594 Q566.1563,378.5781 565.5313,378.5781 Q564.1875,378.5781 563.5,379.6563 Q562.8125,380.7188 562.8125,382.8125 Q562.8125,384.9063 563.5,385.9844 Q564.1875,387.0469 565.5313,387.0469 Q566.1563,387.0469 566.75,386.7813 Q567.3438,386.5 567.9688,385.9219 L567.9688,388.6406 Z "/><text fill="#000000" font-family="sans-serif" font-size="12" lengthAdjust="spacingAndGlyphs" textLength="24" x="579" y="387.1543">Red</text><line style="stroke: #A80036; stroke-width: 1.5;" x1="551" x2="605" y1="399" y2="399"/><line style="stroke: #A80036; stroke-width: 1.5;" x1="551" x2="605" y1="407" y2="407"/><!--class ch8.Tray--><rect fill="#FEFECE" filter="url(#f17wywrnuv3cov)" height="48" id="ch8.Tray" style="stroke: #A80036; stroke-width: 1.5;" width="58" x="641" y="367"/><ellipse cx="656" cy="383" fill="#ADD1B2" rx="11" ry="11" style="stroke: #A80036; stroke-width: 1.0;"/><path d="M658.9688,388.6406 Q658.3906,388.9375 657.75,389.0781 Q657.1094,389.2344 656.4063,389.2344 Q653.9063,389.2344 652.5781,387.5938 Q651.2656,385.9375 651.2656,382.8125 Q651.2656,379.6875 652.5781,378.0313 Q653.9063,376.375 656.4063,376.375 Q657.1094,376.375 657.75,376.5313 Q658.4063,376.6875 658.9688,376.9844 L658.9688,379.7031 Q658.3438,379.125 657.75,378.8594 Q657.1563,378.5781 656.5313,378.5781 Q655.1875,378.5781 654.5,379.6563 Q653.8125,380.7188 653.8125,382.8125 Q653.8125,384.9063 654.5,385.9844 Q655.1875,387.0469 656.5313,387.0469 Q657.1563,387.0469 657.75,386.7813 Q658.3438,386.5 658.9688,385.9219 L658.9688,388.6406 Z "/><text fill="#000000" font-family="sans-serif" font-size="12" lengthAdjust="spacingAndGlyphs" textLength="26" x="670" y="387.1543">Tray</text><line style="stroke: #A80036; stroke-width: 1.5;" x1="642" x2="698" y1="399" y2="399"/><line style="stroke: #A80036; stroke-width: 1.5;" x1="642" x2="698" y1="407" y2="407"/><!--class ch8.Water--><rect fill="#FEFECE" filter="url(#f17wywrnuv3cov)" height="48" id="ch8.Water" style="stroke: #A80036; stroke-width: 1.5;" width="69" x="22.5" y="151"/><ellipse cx="37.5" cy="167" fill="#ADD1B2" rx="11" ry="11" style="stroke: #A80036; stroke-width: 1.0;"/><path d="M40.4688,172.6406 Q39.8906,172.9375 39.25,173.0781 Q38.6094,173.2344 37.9063,173.2344 Q35.4063,173.2344 34.0781,171.5938 Q32.7656,169.9375 32.7656,166.8125 Q32.7656,163.6875 34.0781,162.0313 Q35.4063,160.375 37.9063,160.375 Q38.6094,160.375 39.25,160.5313 Q39.9063,160.6875 40.4688,160.9844 L40.4688,163.7031 Q39.8438,163.125 39.25,162.8594 Q38.6563,162.5781 38.0313,162.5781 Q36.6875,162.5781 36,163.6563 Q35.3125,164.7188 35.3125,166.8125 Q35.3125,168.9063 36,169.9844 Q36.6875,171.0469 38.0313,171.0469 Q38.6563,171.0469 39.25,170.7813 Q39.8438,170.5 40.4688,169.9219 L40.4688,172.6406 Z "/><text fill="#000000" font-family="sans-serif" font-size="12" lengthAdjust="spacingAndGlyphs" textLength="37" x="51.5" y="171.1543">Water</text><line style="stroke: #A80036; stroke-width: 1.5;" x1="23.5" x2="90.5" y1="183" y2="183"/><line style="stroke: #A80036; stroke-width: 1.5;" x1="23.5" x2="90.5" y1="191" y2="191"/><!--class ch8.Fluid--><rect fill="#FEFECE" filter="url(#f17wywrnuv3cov)" height="48" id="ch8.Fluid" style="stroke: #A80036; stroke-width: 1.5;" width="61" x="126.5" y="151"/><ellipse cx="141.5" cy="167" fill="#B4A7E5" rx="11" ry="11" style="stroke: #A80036; stroke-width: 1.0;"/><path d="M137.4219,162.7656 L137.4219,160.6094 L144.8125,160.6094 L144.8125,162.7656 L142.3438,162.7656 L142.3438,170.8438 L144.8125,170.8438 L144.8125,173 L137.4219,173 L137.4219,170.8438 L139.8906,170.8438 L139.8906,162.7656 L137.4219,162.7656 Z "/><text fill="#000000" font-family="sans-serif" font-size="12" font-style="italic" lengthAdjust="spacingAndGlyphs" textLength="29" x="155.5" y="171.1543">Fluid</text><line style="stroke: #A80036; stroke-width: 1.5;" x1="127.5" x2="186.5" y1="183" y2="183"/><line style="stroke: #A80036; stroke-width: 1.5;" x1="127.5" x2="186.5" y1="191" y2="191"/><!--class ch8.Liquid--><rect fill="#FEFECE" filter="url(#f17wywrnuv3cov)" height="48" id="ch8.Liquid" style="stroke: #A80036; stroke-width: 1.5;" width="69" x="120.5" y="259"/><ellipse cx="135.5" cy="275" fill="#B4A7E5" rx="11" ry="11" style="stroke: #A80036; stroke-width: 1.0;"/><path d="M131.4219,270.7656 L131.4219,268.6094 L138.8125,268.6094 L138.8125,270.7656 L136.3438,270.7656 L136.3438,278.8438 L138.8125,278.8438 L138.8125,281 L131.4219,281 L131.4219,278.8438 L133.8906,278.8438 L133.8906,270.7656 L131.4219,270.7656 Z "/><text fill="#000000" font-family="sans-serif" font-size="12" font-style="italic" lengthAdjust="spacingAndGlyphs" textLength="37" x="149.5" y="279.1543">Liquid</text><line style="stroke: #A80036; stroke-width: 1.5;" x1="121.5" x2="188.5" y1="291" y2="291"/><line style="stroke: #A80036; stroke-width: 1.5;" x1="121.5" x2="188.5" y1="299" y2="299"/><!--class java.io.File--><rect fill="#FEFECE" filter="url(#f17wywrnuv3cov)" height="48" id="java.io.File" style="stroke: #A80036; stroke-width: 1.5;" width="53" x="1327.5" y="151"/><ellipse cx="1342.5" cy="167" fill="#ADD1B2" rx="11" ry="11" style="stroke: #A80036; stroke-width: 1.0;"/><path d="M1345.4688,172.6406 Q1344.8906,172.9375 1344.25,173.0781 Q1343.6094,173.2344 1342.9063,173.2344 Q1340.4063,173.2344 1339.0781,171.5938 Q1337.7656,169.9375 1337.7656,166.8125 Q1337.7656,163.6875 1339.0781,162.0313 Q1340.4063,160.375 1342.9063,160.375 Q1343.6094,160.375 1344.25,160.5313 Q1344.9063,160.6875 1345.4688,160.9844 L1345.4688,163.7031 Q1344.8438,163.125 1344.25,162.8594 Q1343.6563,162.5781 1343.0313,162.5781 Q1341.6875,162.5781 1341,163.6563 Q1340.3125,164.7188 1340.3125,166.8125 Q1340.3125,168.9063 1341,169.9844 Q1341.6875,171.0469 1343.0313,171.0469 Q1343.6563,171.0469 1344.25,170.7813 Q1344.8438,170.5 1345.4688,169.9219 L1345.4688,172.6406 Z "/><text fill="#000000" font-family="sans-serif" font-size="12" lengthAdjust="spacingAndGlyphs" textLength="21" x="1356.5" y="171.1543">File</text><line style="stroke: #A80036; stroke-width: 1.5;" x1="1328.5" x2="1379.5" y1="183" y2="183"/><line style="stroke: #A80036; stroke-width: 1.5;" x1="1328.5" x2="1379.5" y1="191" y2="191"/><!--class java.util.ArrayList--><rect fill="#FEFECE" filter="url(#f17wywrnuv3cov)" height="48" id="java.util.ArrayList" style="stroke: #A80036; stroke-width: 1.5;" width="85" x="1207.5" y="151"/><ellipse cx="1222.5" cy="167" fill="#ADD1B2" rx="11" ry="11" style="stroke: #A80036; stroke-width: 1.0;"/><path d="M1225.4688,172.6406 Q1224.8906,172.9375 1224.25,173.0781 Q1223.6094,173.2344 1222.9063,173.2344 Q1220.4063,173.2344 1219.0781,171.5938 Q1217.7656,169.9375 1217.7656,166.8125 Q1217.7656,163.6875 1219.0781,162.0313 Q1220.4063,160.375 1222.9063,160.375 Q1223.6094,160.375 1224.25,160.5313 Q1224.9063,160.6875 1225.4688,160.9844 L1225.4688,163.7031 Q1224.8438,163.125 1224.25,162.8594 Q1223.6563,162.5781 1223.0313,162.5781 Q1221.6875,162.5781 1221,163.6563 Q1220.3125,164.7188 1220.3125,166.8125 Q1220.3125,168.9063 1221,169.9844 Q1221.6875,171.0469 1223.0313,171.0469 Q1223.6563,171.0469 1224.25,170.7813 Q1224.8438,170.5 1225.4688,169.9219 L1225.4688,172.6406 Z "/><text fill="#000000" font-family="sans-serif" font-size="12" lengthAdjust="spacingAndGlyphs" textLength="53" x="1236.5" y="171.1543">ArrayList</text><line style="stroke: #A80036; stroke-width: 1.5;" x1="1208.5" x2="1291.5" y1="183" y2="183"/><line style="stroke: #A80036; stroke-width: 1.5;" x1="1208.5" x2="1291.5" y1="191" y2="191"/><!--class java.util.List--><rect fill="#FEFECE" filter="url(#f17wywrnuv3cov)" height="48" id="java.util.List" style="stroke: #A80036; stroke-width: 1.5;" width="53" x="1119.5" y="151"/><ellipse cx="1134.5" cy="167" fill="#ADD1B2" rx="11" ry="11" style="stroke: #A80036; stroke-width: 1.0;"/><path d="M1137.4688,172.6406 Q1136.8906,172.9375 1136.25,173.0781 Q1135.6094,173.2344 1134.9063,173.2344 Q1132.4063,173.2344 1131.0781,171.5938 Q1129.7656,169.9375 1129.7656,166.8125 Q1129.7656,163.6875 1131.0781,162.0313 Q1132.4063,160.375 1134.9063,160.375 Q1135.6094,160.375 1136.25,160.5313 Q1136.9063,160.6875 1137.4688,160.9844 L1137.4688,163.7031 Q1136.8438,163.125 1136.25,162.8594 Q1135.6563,162.5781 1135.0313,162.5781 Q1133.6875,162.5781 1133,163.6563 Q1132.3125,164.7188 1132.3125,166.8125 Q1132.3125,168.9063 1133,169.9844 Q1133.6875,171.0469 1135.0313,171.0469 Q1135.6563,171.0469 1136.25,170.7813 Q1136.8438,170.5 1137.4688,169.9219 L1137.4688,172.6406 Z "/><text fill="#000000" font-family="sans-serif" font-size="12" lengthAdjust="spacingAndGlyphs" textLength="21" x="1148.5" y="171.1543">List</text><line style="stroke: #A80036; stroke-width: 1.5;" x1="1120.5" x2="1171.5" y1="183" y2="183"/><line style="stroke: #A80036; stroke-width: 1.5;" x1="1120.5" x2="1171.5" y1="191" y2="191"/><!--link ch8.AnimalDoctorGeneric to java.util.List--><path d="M655.75,91.0586 C655.75,107.751 655.75,127 655.75,127 C655.75,127 1146,127 1146,127 C1146,127 1146,145.7188 1146,145.7188 " fill="none" id="ch8.AnimalDoctorGeneric-java.util.List" style="stroke: #A80036; stroke-width: 1.0; stroke-dasharray: 7.0,7.0;"/><polygon fill="#A80036" points="1146,150.7188,1150,141.7188,1146,145.7188,1142,141.7188,1146,150.7188" style="stroke: #A80036; stroke-width: 1.0;"/><!--link ch8.AppleJuice to ch8.Juice--><path d="M247.5,91.2373 C247.5,91.2373 247.5,130.8436 247.5,130.8436 " fill="none" id="ch8.AppleJuice-ch8.Juice" style="stroke: #A80036; stroke-width: 1.0;"/><polygon fill="none" points="254.5001,130.8436,247.5,150.8436,240.5001,130.8436,254.5001,130.8436" style="stroke: #A80036; stroke-width: 1.0;"/><!--link ch8.Dog to ch8.Animal--><path d="M335.5,91.2373 C335.5,91.2373 335.5,130.8436 335.5,130.8436 " fill="none" id="ch8.Dog-ch8.Animal" style="stroke: #A80036; stroke-width: 1.0;"/><polygon fill="none" points="342.5001,130.8436,335.5,150.8436,328.5001,130.8436,342.5001,130.8436" style="stroke: #A80036; stroke-width: 1.0;"/><!--link ch8.Guest to java.io.File--><path d="M767,91.2123 C767,97.7244 767,103 767,103 C767,103 1354,103 1354,103 C1354,103 1354,145.6241 1354,145.6241 " fill="none" id="ch8.Guest-java.io.File" style="stroke: #A80036; stroke-width: 1.0; stroke-dasharray: 7.0,7.0;"/><polygon fill="#A80036" points="1354,150.6241,1358,141.6241,1354,145.6241,1350,141.6241,1354,150.6241" style="stroke: #A80036; stroke-width: 1.0;"/><!--link ch8.Guest to java.util.ArrayList--><path d="M749.5,91.2812 C749.5,103.1868 749.5,115 749.5,115 C749.5,115 1250,115 1250,115 C1250,115 1250,145.9414 1250,145.9414 " fill="none" id="ch8.Guest-java.util.ArrayList" style="stroke: #A80036; stroke-width: 1.0; stroke-dasharray: 7.0,7.0;"/><polygon fill="#A80036" points="1250,150.9414,1254,141.9414,1250,145.9414,1246,141.9414,1250,150.9414" style="stroke: #A80036; stroke-width: 1.0;"/><!--link ch8.Guest to java.util.List--><path d="M784.5405,67 C798.995,67 812.5,67 812.5,67 C812.5,67 812.5,175 812.5,175 C812.5,175 1114.272,175 1114.272,175 " fill="none" id="ch8.Guest-java.util.List" style="stroke: #A80036; stroke-width: 1.0; stroke-dasharray: 7.0,7.0;"/><polygon fill="#A80036" points="1119.272,175,1110.272,171,1114.272,175,1110.272,179,1119.272,175" style="stroke: #A80036; stroke-width: 1.0;"/><!--link ch8.Juice to ch8.Liquid--><path d="M253,199.2373 C253,231.0793 253,283 253,283 C253,283 209.5511,283 209.5511,283 " fill="none" id="ch8.Juice-ch8.Liquid" style="stroke: #A80036; stroke-width: 1.0;"/><polygon fill="none" points="209.5512,289.9999,189.5511,283,209.5511,275.9999,209.5512,289.9999" style="stroke: #A80036; stroke-width: 1.0;"/><!--link ch8.OrangeJuice to ch8.Juice--><path d="M106,91.3759 C106,112.2637 106,139 106,139 C106,139 235,139 235,139 C235,139 235,140.1788 235,140.1788 " fill="none" id="ch8.OrangeJuice-ch8.Juice" style="stroke: #A80036; stroke-width: 1.0;"/><polygon fill="none" points="242.0002,130.7878,235,150.7877,228.0002,130.7877,242.0002,130.7878" style="stroke: #A80036; stroke-width: 1.0;"/><!--link ch8.OrangeJuice to ch8.Fluid--><path d="M128.6376,67 C138.7604,67 146.25,67 146.25,67 C146.25,67 146.25,130.7627 146.25,130.7627 " fill="none" id="ch8.OrangeJuice-ch8.Fluid" style="stroke: #A80036; stroke-width: 1.0;"/><polygon fill="none" points="153.2501,130.7627,146.25,150.7627,139.2501,130.7627,153.2501,130.7627" style="stroke: #A80036; stroke-width: 1.0;"/><!--link ch8.Water to ch8.Liquid--><path d="M57,199.2373 C57,231.0793 57,283 57,283 C57,283 100.4489,283 100.4489,283 " fill="none" id="ch8.Water-ch8.Liquid" style="stroke: #A80036; stroke-width: 1.0;"/><polygon fill="none" points="100.4489,275.9999,120.4489,283,100.4488,289.9999,100.4489,275.9999" style="stroke: #A80036; stroke-width: 1.0;"/><!--link ch8.Bartender to ch8.Blue--><!--link ch8.Blue to ch8.Cake--><!--link ch8.Cake to ch8.CockTail--><!--link ch8.Bartender to ch8.Color--><!--link ch8.Color to ch8.Diesel--><!--link ch8.Diesel to ch8.Glass--><!--link ch8.Glass to ch8.Glass2--><!--link ch8.Color to ch8.Glass4--><!--link ch8.Glass4 to ch8.Glass5--><!--link ch8.Glass5 to ch8.Glass6--><!--link ch8.Glass6 to ch8.Green--><!--link ch8.Glass4 to ch8.MyGeneric01--><!--link ch8.MyGeneric01 to ch8.Red--><!--link ch8.Red to ch8.Tray--><!--
@startuml
  skinparam linetype ortho
class ch8.Animal
class ch8.AnimalDoctorGeneric
class ch8.AppleJuice
class ch8.Bartender
class ch8.Blue
class ch8.Cake
class ch8.CockTail
class ch8.Color
class ch8.Diesel
class ch8.Dog
class ch8.Glass
class ch8.Glass2
class ch8.Glass4
class ch8.Glass5
class ch8.Glass6
class ch8.Green
class ch8.Guest
class ch8.Juice
class ch8.MyGeneric01
class ch8.OrangeJuice
class ch8.Red
class ch8.Tray
class ch8.Water
class java.io.File
class java.util.ArrayList
class java.util.List
interface ch8.Fluid
interface ch8.Liquid
ch8.AnimalDoctorGeneric ..> java.util.List
ch8.AppleJuice - -|> ch8.Juice
ch8.Dog - -|> ch8.Animal
ch8.Guest ..> java.io.File
ch8.Guest ..> java.util.ArrayList
ch8.Guest ..> java.util.List
ch8.Juice - -|> ch8.Liquid
ch8.OrangeJuice - -|> ch8.Juice
ch8.OrangeJuice - -|> ch8.Fluid
ch8.Water - -|> ch8.Liquid
@enduml

PlantUML version 1.2018.10(Sat Aug 25 20:02:59 EEST 2018)
(GPL source distribution)
Java Runtime: OpenJDK Runtime Environment
JVM: OpenJDK 64-Bit Server VM
Java Version: 11.0.2+9-Debian-3
Operating System: Linux
OS Version: 4.19.0-kali1-amd64
Default Encoding: UTF-8
Language: en
Country: US
--></g></svg>