<?xml version="1.0" encoding="UTF-8" standalone="no"?><svg xmlns="http://www.w3.org/2000/svg" xmlns:xlink="http://www.w3.org/1999/xlink" contentScriptType="application/ecmascript" contentStyleType="text/css" height="220px" preserveAspectRatio="none" style="width:637px;height:220px;" version="1.1" viewBox="0 0 637 220" width="637px" zoomAndPan="magnify"><defs><filter height="300%" id="f1l5wj61wr93kl" width="300%" x="-1" y="-1"><feGaussianBlur result="blurOut" stdDeviation="2.0"/><feColorMatrix in="blurOut" result="blurOut2" type="matrix" values="0 0 0 0 0 0 0 0 0 0 0 0 0 0 0 0 0 0 .4 0"/><feOffset dx="4.0" dy="4.0" in="blurOut2" result="blurOut3"/><feBlend in="SourceGraphic" in2="blurOut3" mode="normal"/></filter></defs><g><!--MD5=[aa8f7b917213fcc1c2766e2d59b49067]
cluster java.lang--><polygon fill="#FFFFFF" filter="url(#f1l5wj61wr93kl)" points="362,114,437,114,444,136.2969,478,136.2969,478,213,362,213,362,114" style="stroke: #000000; stroke-width: 1.5;"/><line style="stroke: #000000; stroke-width: 1.5;" x1="362" x2="444" y1="136.2969" y2="136.2969"/><text fill="#000000" font-family="sans-serif" font-size="14" font-weight="bold" lengthAdjust="spacingAndGlyphs" textLength="69" x="366" y="128.9951">java.lang</text><!--MD5=[7db3c59d38ae5b37b484eb2df9368145]
cluster java.util--><polygon fill="#FFFFFF" filter="url(#f1l5wj61wr93kl)" points="502,114,568,114,575,136.2969,620,136.2969,620,213,502,213,502,114" style="stroke: #000000; stroke-width: 1.5;"/><line style="stroke: #000000; stroke-width: 1.5;" x1="502" x2="575" y1="136.2969" y2="136.2969"/><text fill="#000000" font-family="sans-serif" font-size="14" font-weight="bold" lengthAdjust="spacingAndGlyphs" textLength="60" x="506" y="128.9951">java.util</text><!--MD5=[ef36a788a925a9ba2352c8dda9cf0437]
cluster observer2--><polygon fill="#FFFFFF" filter="url(#f1l5wj61wr93kl)" points="16,6,104,6,111,28.2969,338,28.2969,338,213,16,213,16,6" style="stroke: #000000; stroke-width: 1.5;"/><line style="stroke: #000000; stroke-width: 1.5;" x1="16" x2="111" y1="28.2969" y2="28.2969"/><text fill="#000000" font-family="sans-serif" font-size="14" font-weight="bold" lengthAdjust="spacingAndGlyphs" textLength="82" x="20" y="20.9951">observer2</text><!--MD5=[3c78a2fa643d9223b1f8ad930e883961]
class java.lang.Override--><rect codeLine="1" fill="#FEFECE" filter="url(#f1l5wj61wr93kl)" height="48" id="java.lang.Override" style="stroke: #A80036; stroke-width: 1.5;" width="84" x="378" y="149"/><ellipse cx="393" cy="165" fill="#E3664A" rx="11" ry="11" style="stroke: #A80036; stroke-width: 1.0;"/><path d="M395.0781,165.4688 Q395.0781,164.5313 394.6563,164 Q394.2344,163.4688 393.4844,163.4688 Q392.75,163.4688 392.3281,164 Q391.9219,164.5313 391.9219,165.4688 Q391.9219,166.4219 392.3281,166.9531 Q392.75,167.4844 393.4844,167.4844 Q394.2344,167.4844 394.6563,166.9531 Q395.0781,166.4219 395.0781,165.4688 Z M396.625,168.875 L395,168.875 L395,168.2031 Q394.6719,168.6406 394.25,168.8438 Q393.8281,169.0469 393.2188,169.0469 Q391.8594,169.0469 391.0313,168.0781 Q390.2031,167.0938 390.2031,165.4688 Q390.2031,163.875 391.0313,162.9063 Q391.8594,161.9219 393.2188,161.9219 Q393.8125,161.9219 394.2656,162.125 Q394.7188,162.3281 395,162.7188 L395,162.375 Q395,161.25 394.375,160.6406 Q393.75,160.0156 392.6094,160.0156 Q390.8906,160.0156 389.7969,161.5469 Q388.7031,163.0625 388.7031,165.5 Q388.7031,168.0469 389.9531,169.5469 Q391.2188,171.0469 393.3281,171.0469 Q393.9844,171.0469 394.6094,170.8594 Q395.2344,170.6719 395.8125,170.2813 L396.5781,171.7344 Q395.9063,172.1875 395.1094,172.4063 Q394.3125,172.6406 393.4063,172.6406 Q390.5,172.6406 388.7656,170.7031 Q387.0469,168.7813 387.0469,165.5 Q387.0469,162.2813 388.5938,160.3594 Q390.1563,158.4219 392.7188,158.4219 Q394.5156,158.4219 395.5625,159.5156 Q396.625,160.6094 396.625,162.4844 L396.625,168.875 Z "/><text fill="#000000" font-family="sans-serif" font-size="12" lengthAdjust="spacingAndGlyphs" textLength="52" x="407" y="169.1543">Override</text><line style="stroke: #A80036; stroke-width: 1.5;" x1="379" x2="461" y1="181" y2="181"/><line style="stroke: #A80036; stroke-width: 1.5;" x1="379" x2="461" y1="189" y2="189"/><!--MD5=[8479184e23c2bec09445fccfd361f5d2]
class java.util.ArrayList--><rect codeLine="2" fill="#FEFECE" filter="url(#f1l5wj61wr93kl)" height="48" id="java.util.ArrayList" style="stroke: #A80036; stroke-width: 1.5;" width="85" x="518.5" y="149"/><ellipse cx="533.5" cy="165" fill="#ADD1B2" rx="11" ry="11" style="stroke: #A80036; stroke-width: 1.0;"/><path d="M536.4688,170.6406 Q535.8906,170.9375 535.25,171.0781 Q534.6094,171.2344 533.9063,171.2344 Q531.4063,171.2344 530.0781,169.5938 Q528.7656,167.9375 528.7656,164.8125 Q528.7656,161.6875 530.0781,160.0313 Q531.4063,158.375 533.9063,158.375 Q534.6094,158.375 535.25,158.5313 Q535.9063,158.6875 536.4688,158.9844 L536.4688,161.7031 Q535.8438,161.125 535.25,160.8594 Q534.6563,160.5781 534.0313,160.5781 Q532.6875,160.5781 532,161.6563 Q531.3125,162.7188 531.3125,164.8125 Q531.3125,166.9063 532,167.9844 Q532.6875,169.0469 534.0313,169.0469 Q534.6563,169.0469 535.25,168.7813 Q535.8438,168.5 536.4688,167.9219 L536.4688,170.6406 Z "/><text fill="#000000" font-family="sans-serif" font-size="12" lengthAdjust="spacingAndGlyphs" textLength="53" x="547.5" y="169.1543">ArrayList</text><line style="stroke: #A80036; stroke-width: 1.5;" x1="519.5" x2="602.5" y1="181" y2="181"/><line style="stroke: #A80036; stroke-width: 1.5;" x1="519.5" x2="602.5" y1="189" y2="189"/><!--MD5=[ed131519a1bb3eca021aa5383326595f]
class observer2.Course--><rect codeLine="3" fill="#FEFECE" filter="url(#f1l5wj61wr93kl)" height="48" id="observer2.Course" style="stroke: #A80036; stroke-width: 1.5;" width="76" x="246" y="41"/><ellipse cx="261" cy="57" fill="#ADD1B2" rx="11" ry="11" style="stroke: #A80036; stroke-width: 1.0;"/><path d="M263.9688,62.6406 Q263.3906,62.9375 262.75,63.0781 Q262.1094,63.2344 261.4063,63.2344 Q258.9063,63.2344 257.5781,61.5938 Q256.2656,59.9375 256.2656,56.8125 Q256.2656,53.6875 257.5781,52.0313 Q258.9063,50.375 261.4063,50.375 Q262.1094,50.375 262.75,50.5313 Q263.4063,50.6875 263.9688,50.9844 L263.9688,53.7031 Q263.3438,53.125 262.75,52.8594 Q262.1563,52.5781 261.5313,52.5781 Q260.1875,52.5781 259.5,53.6563 Q258.8125,54.7188 258.8125,56.8125 Q258.8125,58.9063 259.5,59.9844 Q260.1875,61.0469 261.5313,61.0469 Q262.1563,61.0469 262.75,60.7813 Q263.3438,60.5 263.9688,59.9219 L263.9688,62.6406 Z "/><text fill="#000000" font-family="sans-serif" font-size="12" lengthAdjust="spacingAndGlyphs" textLength="44" x="275" y="61.1543">Course</text><line style="stroke: #A80036; stroke-width: 1.5;" x1="247" x2="321" y1="73" y2="73"/><line style="stroke: #A80036; stroke-width: 1.5;" x1="247" x2="321" y1="81" y2="81"/><!--MD5=[e1b48546014083b2b49a82cf9049fb0b]
class observer2.Main--><rect codeLine="4" fill="#FEFECE" filter="url(#f1l5wj61wr93kl)" height="48" id="observer2.Main" style="stroke: #A80036; stroke-width: 1.5;" width="61" x="149.5" y="41"/><ellipse cx="164.5" cy="57" fill="#ADD1B2" rx="11" ry="11" style="stroke: #A80036; stroke-width: 1.0;"/><path d="M167.4688,62.6406 Q166.8906,62.9375 166.25,63.0781 Q165.6094,63.2344 164.9063,63.2344 Q162.4063,63.2344 161.0781,61.5938 Q159.7656,59.9375 159.7656,56.8125 Q159.7656,53.6875 161.0781,52.0313 Q162.4063,50.375 164.9063,50.375 Q165.6094,50.375 166.25,50.5313 Q166.9063,50.6875 167.4688,50.9844 L167.4688,53.7031 Q166.8438,53.125 166.25,52.8594 Q165.6563,52.5781 165.0313,52.5781 Q163.6875,52.5781 163,53.6563 Q162.3125,54.7188 162.3125,56.8125 Q162.3125,58.9063 163,59.9844 Q163.6875,61.0469 165.0313,61.0469 Q165.6563,61.0469 166.25,60.7813 Q166.8438,60.5 167.4688,59.9219 L167.4688,62.6406 Z "/><text fill="#000000" font-family="sans-serif" font-size="12" lengthAdjust="spacingAndGlyphs" textLength="29" x="178.5" y="61.1543">Main</text><line style="stroke: #A80036; stroke-width: 1.5;" x1="150.5" x2="209.5" y1="73" y2="73"/><line style="stroke: #A80036; stroke-width: 1.5;" x1="150.5" x2="209.5" y1="81" y2="81"/><!--MD5=[c42530914e0be6be15ecc139a96349b4]
class observer2.Student--><rect codeLine="5" fill="#FEFECE" filter="url(#f1l5wj61wr93kl)" height="48" id="observer2.Student" style="stroke: #A80036; stroke-width: 1.5;" width="82" x="32" y="41"/><ellipse cx="47" cy="57" fill="#ADD1B2" rx="11" ry="11" style="stroke: #A80036; stroke-width: 1.0;"/><path d="M49.9688,62.6406 Q49.3906,62.9375 48.75,63.0781 Q48.1094,63.2344 47.4063,63.2344 Q44.9063,63.2344 43.5781,61.5938 Q42.2656,59.9375 42.2656,56.8125 Q42.2656,53.6875 43.5781,52.0313 Q44.9063,50.375 47.4063,50.375 Q48.1094,50.375 48.75,50.5313 Q49.4063,50.6875 49.9688,50.9844 L49.9688,53.7031 Q49.3438,53.125 48.75,52.8594 Q48.1563,52.5781 47.5313,52.5781 Q46.1875,52.5781 45.5,53.6563 Q44.8125,54.7188 44.8125,56.8125 Q44.8125,58.9063 45.5,59.9844 Q46.1875,61.0469 47.5313,61.0469 Q48.1563,61.0469 48.75,60.7813 Q49.3438,60.5 49.9688,59.9219 L49.9688,62.6406 Z "/><text fill="#000000" font-family="sans-serif" font-size="12" lengthAdjust="spacingAndGlyphs" textLength="50" x="61" y="61.1543">Student</text><line style="stroke: #A80036; stroke-width: 1.5;" x1="33" x2="113" y1="73" y2="73"/><line style="stroke: #A80036; stroke-width: 1.5;" x1="33" x2="113" y1="81" y2="81"/><!--MD5=[61ca0c25f6e68c65b4ba2547b8ae1e58]
class observer2.Observer--><rect codeLine="6" fill="#FEFECE" filter="url(#f1l5wj61wr93kl)" height="48" id="observer2.Observer" style="stroke: #A80036; stroke-width: 1.5;" width="86" x="32" y="149"/><ellipse cx="47" cy="165" fill="#B4A7E5" rx="11" ry="11" style="stroke: #A80036; stroke-width: 1.0;"/><path d="M42.9219,160.7656 L42.9219,158.6094 L50.3125,158.6094 L50.3125,160.7656 L47.8438,160.7656 L47.8438,168.8438 L50.3125,168.8438 L50.3125,171 L42.9219,171 L42.9219,168.8438 L45.3906,168.8438 L45.3906,160.7656 L42.9219,160.7656 Z "/><text fill="#000000" font-family="sans-serif" font-size="12" font-style="italic" lengthAdjust="spacingAndGlyphs" textLength="54" x="61" y="169.1543">Observer</text><line style="stroke: #A80036; stroke-width: 1.5;" x1="33" x2="117" y1="181" y2="181"/><line style="stroke: #A80036; stroke-width: 1.5;" x1="33" x2="117" y1="189" y2="189"/><!--MD5=[e431bc16eb1b8661c41c1446645ef240]
class observer2.Subject--><rect codeLine="7" fill="#FEFECE" filter="url(#f1l5wj61wr93kl)" height="48" id="observer2.Subject" style="stroke: #A80036; stroke-width: 1.5;" width="79" x="243.5" y="149"/><ellipse cx="258.5" cy="165" fill="#B4A7E5" rx="11" ry="11" style="stroke: #A80036; stroke-width: 1.0;"/><path d="M254.4219,160.7656 L254.4219,158.6094 L261.8125,158.6094 L261.8125,160.7656 L259.3438,160.7656 L259.3438,168.8438 L261.8125,168.8438 L261.8125,171 L254.4219,171 L254.4219,168.8438 L256.8906,168.8438 L256.8906,160.7656 L254.4219,160.7656 Z "/><text fill="#000000" font-family="sans-serif" font-size="12" font-style="italic" lengthAdjust="spacingAndGlyphs" textLength="47" x="272.5" y="169.1543">Subject</text><line style="stroke: #A80036; stroke-width: 1.5;" x1="244.5" x2="321.5" y1="181" y2="181"/><line style="stroke: #A80036; stroke-width: 1.5;" x1="244.5" x2="321.5" y1="189" y2="189"/><!--MD5=[cb5416aa6200d20ee86952ac51c56a1e]
link observer2.Course to java.lang.Override--><path codeLine="8" d="M315.57,89.06 C322.97,94.55 330.8,100.44 338,106 C354.53,118.76 372.63,133.28 387.62,145.44 " fill="none" id="observer2.Course-to-java.lang.Override" style="stroke: #A80036; stroke-width: 1.0; stroke-dasharray: 7.0,7.0;"/><polygon fill="#A80036" points="391.76,148.81,387.2937,140.0321,387.8781,145.6587,382.2515,146.2431,391.76,148.81" style="stroke: #A80036; stroke-width: 1.0;"/><!--MD5=[ed218bbe3e9e4172e3699e071425d483]
link observer2.Course to java.util.ArrayList--><path codeLine="9" d="M322.1,68.6 C362.46,72.53 427.23,82.25 478,106 C498.75,115.71 518.94,131.58 534.22,145.32 " fill="none" id="observer2.Course-to-java.util.ArrayList" style="stroke: #A80036; stroke-width: 1.0; stroke-dasharray: 7.0,7.0;"/><polygon fill="#A80036" points="537.99,148.76,534.0126,139.75,534.2871,145.4002,528.6369,145.6747,537.99,148.76" style="stroke: #A80036; stroke-width: 1.0;"/><!--MD5=[fec4d68942468d9cd0b520a066c105a4]
link observer2.Course to observer2.Subject--><path codeLine="10" d="M283.78,89 C283.67,100.59 283.54,115.03 283.41,128.6 " fill="none" id="observer2.Course-to-observer2.Subject" style="stroke: #A80036; stroke-width: 1.0;"/><polygon fill="none" points="290.41,128.75,283.22,148.68,276.41,128.61,290.41,128.75" style="stroke: #A80036; stroke-width: 1.0;"/><!--MD5=[42cb7c8a88565ff6fc0ea34d7ac21b88]
link observer2.Student to java.lang.Override--><path codeLine="11" d="M114.1,83.75 C120.03,85.8 126.11,87.64 132,89 C221.51,109.68 252.69,71.92 338,106 C359.59,114.62 379.97,130.98 395.02,145.25 " fill="none" id="observer2.Student-to-java.lang.Override" style="stroke: #A80036; stroke-width: 1.0; stroke-dasharray: 7.0,7.0;"/><polygon fill="#A80036" points="398.72,148.82,395.0179,139.6934,395.1208,145.3493,389.4649,145.4522,398.72,148.82" style="stroke: #A80036; stroke-width: 1.0;"/><!--MD5=[bec58d082490438faeedb6eb77f8bf19]
link observer2.Student to observer2.Observer--><path codeLine="12" d="M73.43,89 C73.65,100.59 73.93,115.03 74.18,128.6 " fill="none" id="observer2.Student-to-observer2.Observer" style="stroke: #A80036; stroke-width: 1.0;"/><polygon fill="none" points="81.18,128.55,74.56,148.68,67.18,128.81,81.18,128.55" style="stroke: #A80036; stroke-width: 1.0;"/><!--MD5=[a32209567e1cbe372a3e061507a8095e]
@startuml
annotation java.lang.Override
class java.util.ArrayList
class observer2.Course
class observer2.Main
class observer2.Student
interface observer2.Observer
interface observer2.Subject
observer2.Course ..> java.lang.Override
observer2.Course ..> java.util.ArrayList
observer2.Course - -|> observer2.Subject
observer2.Student ..> java.lang.Override
observer2.Student - -|> observer2.Observer
@enduml

PlantUML version 1.2020.18(Wed Sep 30 22:40:44 EEST 2020)
(GPL source distribution)
Java Runtime: OpenJDK Runtime Environment
JVM: OpenJDK 64-Bit Server VM
Default Encoding: UTF-8
Language: en
Country: US
--></g></svg>