<?xml version="1.0" encoding="UTF-8" standalone="yes"?><svg xmlns="http://www.w3.org/2000/svg" xmlns:xlink="http://www.w3.org/1999/xlink" height="431pt" style="width:1010px;height:431px;" version="1.1" viewBox="0 0 1010 431" width="1010pt"><defs/><g><text fill="#000000" font-size="18" lengthAdjust="spacingAndGlyphs" textLength="155" x="427.75" y="18">patterns of patterns</text><rect fill="#FEFECE" height="32" style="stroke: #A80036; stroke-width: 1.5;" width="112" x="569.25" y="306.6406"/><ellipse cx="584.25" cy="322.6406" fill="#B4A7E5" rx="11" ry="11" style="stroke: #A80036; stroke-width: 1.0;"/><path d="M585.2031,319.2813 L585.2031,325.9375 L586.9219,325.9375 Q587.5313,325.9375 587.7969,326.1719 Q588.0625,326.4063 588.0625,326.7969 Q588.0625,327.1719 587.7969,327.4063 Q587.5313,327.6406 586.9219,327.6406 L581.7813,327.6406 Q581.1719,327.6406 580.9063,327.4063 Q580.6406,327.1719 580.6406,326.7813 Q580.6406,326.4063 580.9063,326.1719 Q581.1719,325.9375 581.7813,325.9375 L583.5,325.9375 L583.5,319.2813 L581.7813,319.2813 Q581.1719,319.2813 580.9063,319.0469 Q580.6406,318.8125 580.6406,318.4219 Q580.6406,318.0469 580.9063,317.8125 Q581.1719,317.5781 581.7813,317.5781 L586.9219,317.5781 Q587.5313,317.5781 587.7969,317.8125 Q588.0625,318.0469 588.0625,318.4219 Q588.0625,318.8125 587.7969,319.0469 Q587.5313,319.2813 586.9219,319.2813 L585.2031,319.2813 Z "/><text fill="#CC0000" font-size="16" font-style="italic" font-weight="bold" lengthAdjust="spacingAndGlyphs" textLength="80" x="598.25" y="328.5781">Quackable</text><rect fill="#FEFECE" height="32" style="stroke: #A80036; stroke-width: 1.5;" width="145" x="408" y="398.6406"/><ellipse cx="423" cy="414.6406" fill="#ADD1B2" rx="11" ry="11" style="stroke: #A80036; stroke-width: 1.0;"/><path d="M425.7656,410.5156 Q425.9219,410.2969 426.1094,410.1875 Q426.2969,410.0781 426.5156,410.0781 Q426.8906,410.0781 427.125,410.3359 Q427.3594,410.5938 427.3594,411.2031 L427.3594,412.6563 Q427.3594,413.2656 427.125,413.5313 Q426.8906,413.7969 426.5156,413.7969 Q426.1719,413.7969 425.9688,413.5938 Q425.7656,413.4063 425.6563,412.8906 Q425.6094,412.5313 425.4219,412.3438 Q425.0938,411.9688 424.4844,411.75 Q423.875,411.5313 423.25,411.5313 Q422.4844,411.5313 421.8516,411.8594 Q421.2188,412.1875 420.7266,412.9375 Q420.2344,413.6875 420.2344,414.7188 L420.2344,415.8125 Q420.2344,417.0469 421.125,417.8672 Q422.0156,418.6875 423.6094,418.6875 Q424.5469,418.6875 425.2031,418.4375 Q425.5938,418.2813 426.0156,417.8438 Q426.2813,417.5781 426.4297,417.5 Q426.5781,417.4219 426.7813,417.4219 Q427.1094,417.4219 427.3672,417.6797 Q427.625,417.9375 427.625,418.2813 Q427.625,418.625 427.2813,419.0313 Q426.7813,419.6094 425.9844,419.9375 Q424.9063,420.3906 423.6094,420.3906 Q422.0938,420.3906 420.8906,419.7656 Q419.9063,419.2656 419.2188,418.1953 Q418.5313,417.125 418.5313,415.8438 L418.5313,414.6875 Q418.5313,413.3594 419.1484,412.2109 Q419.7656,411.0625 420.8594,410.4453 Q421.9531,409.8281 423.1875,409.8281 Q423.9219,409.8281 424.5703,409.9922 Q425.2188,410.1563 425.7656,410.5156 Z "/><text fill="#CC0000" font-size="16" font-weight="bold" lengthAdjust="spacingAndGlyphs" textLength="113" x="437" y="420.5781">DuckSimulator</text><rect fill="#FEFECE" height="32" style="stroke: #A80036; stroke-width: 1.5;" width="74" x="588.25" y="398.6406"/><ellipse cx="603.25" cy="414.6406" fill="#ADD1B2" rx="11" ry="11" style="stroke: #A80036; stroke-width: 1.0;"/><path d="M606.0156,410.5156 Q606.1719,410.2969 606.3594,410.1875 Q606.5469,410.0781 606.7656,410.0781 Q607.1406,410.0781 607.375,410.3359 Q607.6094,410.5938 607.6094,411.2031 L607.6094,412.6563 Q607.6094,413.2656 607.375,413.5313 Q607.1406,413.7969 606.7656,413.7969 Q606.4219,413.7969 606.2188,413.5938 Q606.0156,413.4063 605.9063,412.8906 Q605.8594,412.5313 605.6719,412.3438 Q605.3438,411.9688 604.7344,411.75 Q604.125,411.5313 603.5,411.5313 Q602.7344,411.5313 602.1016,411.8594 Q601.4688,412.1875 600.9766,412.9375 Q600.4844,413.6875 600.4844,414.7188 L600.4844,415.8125 Q600.4844,417.0469 601.375,417.8672 Q602.2656,418.6875 603.8594,418.6875 Q604.7969,418.6875 605.4531,418.4375 Q605.8438,418.2813 606.2656,417.8438 Q606.5313,417.5781 606.6797,417.5 Q606.8281,417.4219 607.0313,417.4219 Q607.3594,417.4219 607.6172,417.6797 Q607.875,417.9375 607.875,418.2813 Q607.875,418.625 607.5313,419.0313 Q607.0313,419.6094 606.2344,419.9375 Q605.1563,420.3906 603.8594,420.3906 Q602.3438,420.3906 601.1406,419.7656 Q600.1563,419.2656 599.4688,418.1953 Q598.7813,417.125 598.7813,415.8438 L598.7813,414.6875 Q598.7813,413.3594 599.3984,412.2109 Q600.0156,411.0625 601.1094,410.4453 Q602.2031,409.8281 603.4375,409.8281 Q604.1719,409.8281 604.8203,409.9922 Q605.4688,410.1563 606.0156,410.5156 Z "/><text fill="#CC0000" font-size="16" font-weight="bold" lengthAdjust="spacingAndGlyphs" textLength="42" x="617.25" y="420.5781">Flock</text><rect fill="#FEFECE" height="32" style="stroke: #A80036; stroke-width: 1.5;" width="136" x="644.25" y="214.6406"/><ellipse cx="659.25" cy="230.6406" fill="#ADD1B2" rx="11" ry="11" style="stroke: #A80036; stroke-width: 1.0;"/><path d="M662.0156,226.5156 Q662.1719,226.2969 662.3594,226.1875 Q662.5469,226.0781 662.7656,226.0781 Q663.1406,226.0781 663.375,226.3359 Q663.6094,226.5938 663.6094,227.2031 L663.6094,228.6563 Q663.6094,229.2656 663.375,229.5313 Q663.1406,229.7969 662.7656,229.7969 Q662.4219,229.7969 662.2188,229.5938 Q662.0156,229.4063 661.9063,228.8906 Q661.8594,228.5313 661.6719,228.3438 Q661.3438,227.9688 660.7344,227.75 Q660.125,227.5313 659.5,227.5313 Q658.7344,227.5313 658.1016,227.8594 Q657.4688,228.1875 656.9766,228.9375 Q656.4844,229.6875 656.4844,230.7188 L656.4844,231.8125 Q656.4844,233.0469 657.375,233.8672 Q658.2656,234.6875 659.8594,234.6875 Q660.7969,234.6875 661.4531,234.4375 Q661.8438,234.2813 662.2656,233.8438 Q662.5313,233.5781 662.6797,233.5 Q662.8281,233.4219 663.0313,233.4219 Q663.3594,233.4219 663.6172,233.6797 Q663.875,233.9375 663.875,234.2813 Q663.875,234.625 663.5313,235.0313 Q663.0313,235.6094 662.2344,235.9375 Q661.1563,236.3906 659.8594,236.3906 Q658.3438,236.3906 657.1406,235.7656 Q656.1563,235.2656 655.4688,234.1953 Q654.7813,233.125 654.7813,231.8438 L654.7813,230.6875 Q654.7813,229.3594 655.3984,228.2109 Q656.0156,227.0625 657.1094,226.4453 Q658.2031,225.8281 659.4375,225.8281 Q660.1719,225.8281 660.8203,225.9922 Q661.4688,226.1563 662.0156,226.5156 Z "/><text fill="#CC0000" font-size="16" font-weight="bold" lengthAdjust="spacingAndGlyphs" textLength="104" x="673.25" y="236.5781">MallaredDuck</text><rect fill="#FEFECE" height="32" style="stroke: #A80036; stroke-width: 1.5;" width="141" x="468" y="214.6406"/><ellipse cx="483" cy="230.6406" fill="#ADD1B2" rx="11" ry="11" style="stroke: #A80036; stroke-width: 1.0;"/><path d="M485.7656,226.5156 Q485.9219,226.2969 486.1094,226.1875 Q486.2969,226.0781 486.5156,226.0781 Q486.8906,226.0781 487.125,226.3359 Q487.3594,226.5938 487.3594,227.2031 L487.3594,228.6563 Q487.3594,229.2656 487.125,229.5313 Q486.8906,229.7969 486.5156,229.7969 Q486.1719,229.7969 485.9688,229.5938 Q485.7656,229.4063 485.6563,228.8906 Q485.6094,228.5313 485.4219,228.3438 Q485.0938,227.9688 484.4844,227.75 Q483.875,227.5313 483.25,227.5313 Q482.4844,227.5313 481.8516,227.8594 Q481.2188,228.1875 480.7266,228.9375 Q480.2344,229.6875 480.2344,230.7188 L480.2344,231.8125 Q480.2344,233.0469 481.125,233.8672 Q482.0156,234.6875 483.6094,234.6875 Q484.5469,234.6875 485.2031,234.4375 Q485.5938,234.2813 486.0156,233.8438 Q486.2813,233.5781 486.4297,233.5 Q486.5781,233.4219 486.7813,233.4219 Q487.1094,233.4219 487.3672,233.6797 Q487.625,233.9375 487.625,234.2813 Q487.625,234.625 487.2813,235.0313 Q486.7813,235.6094 485.9844,235.9375 Q484.9063,236.3906 483.6094,236.3906 Q482.0938,236.3906 480.8906,235.7656 Q479.9063,235.2656 479.2188,234.1953 Q478.5313,233.125 478.5313,231.8438 L478.5313,230.6875 Q478.5313,229.3594 479.1484,228.2109 Q479.7656,227.0625 480.8594,226.4453 Q481.9531,225.8281 483.1875,225.8281 Q483.9219,225.8281 484.5703,225.9922 Q485.2188,226.1563 485.7656,226.5156 Z "/><text fill="#CC0000" font-size="16" font-weight="bold" lengthAdjust="spacingAndGlyphs" textLength="109" x="497" y="236.5781">RedheadDuck</text><rect fill="#FEFECE" height="32" style="stroke: #A80036; stroke-width: 1.5;" width="129" x="304" y="214.6406"/><ellipse cx="319" cy="230.6406" fill="#ADD1B2" rx="11" ry="11" style="stroke: #A80036; stroke-width: 1.0;"/><path d="M321.7656,226.5156 Q321.9219,226.2969 322.1094,226.1875 Q322.2969,226.0781 322.5156,226.0781 Q322.8906,226.0781 323.125,226.3359 Q323.3594,226.5938 323.3594,227.2031 L323.3594,228.6563 Q323.3594,229.2656 323.125,229.5313 Q322.8906,229.7969 322.5156,229.7969 Q322.1719,229.7969 321.9688,229.5938 Q321.7656,229.4063 321.6563,228.8906 Q321.6094,228.5313 321.4219,228.3438 Q321.0938,227.9688 320.4844,227.75 Q319.875,227.5313 319.25,227.5313 Q318.4844,227.5313 317.8516,227.8594 Q317.2188,228.1875 316.7266,228.9375 Q316.2344,229.6875 316.2344,230.7188 L316.2344,231.8125 Q316.2344,233.0469 317.125,233.8672 Q318.0156,234.6875 319.6094,234.6875 Q320.5469,234.6875 321.2031,234.4375 Q321.5938,234.2813 322.0156,233.8438 Q322.2813,233.5781 322.4297,233.5 Q322.5781,233.4219 322.7813,233.4219 Q323.1094,233.4219 323.3672,233.6797 Q323.625,233.9375 323.625,234.2813 Q323.625,234.625 323.2813,235.0313 Q322.7813,235.6094 321.9844,235.9375 Q320.9063,236.3906 319.6094,236.3906 Q318.0938,236.3906 316.8906,235.7656 Q315.9063,235.2656 315.2188,234.1953 Q314.5313,233.125 314.5313,231.8438 L314.5313,230.6875 Q314.5313,229.3594 315.1484,228.2109 Q315.7656,227.0625 316.8594,226.4453 Q317.9531,225.8281 319.1875,225.8281 Q319.9219,225.8281 320.5703,225.9922 Q321.2188,226.1563 321.7656,226.5156 Z "/><text fill="#CC0000" font-size="16" font-weight="bold" lengthAdjust="spacingAndGlyphs" textLength="97" x="333" y="236.5781">RubberDuck</text><rect fill="#FEFECE" height="32" style="stroke: #A80036; stroke-width: 1.5;" width="101" x="168" y="214.6406"/><ellipse cx="183" cy="230.6406" fill="#ADD1B2" rx="11" ry="11" style="stroke: #A80036; stroke-width: 1.0;"/><path d="M185.7656,226.5156 Q185.9219,226.2969 186.1094,226.1875 Q186.2969,226.0781 186.5156,226.0781 Q186.8906,226.0781 187.125,226.3359 Q187.3594,226.5938 187.3594,227.2031 L187.3594,228.6563 Q187.3594,229.2656 187.125,229.5313 Q186.8906,229.7969 186.5156,229.7969 Q186.1719,229.7969 185.9688,229.5938 Q185.7656,229.4063 185.6563,228.8906 Q185.6094,228.5313 185.4219,228.3438 Q185.0938,227.9688 184.4844,227.75 Q183.875,227.5313 183.25,227.5313 Q182.4844,227.5313 181.8516,227.8594 Q181.2188,228.1875 180.7266,228.9375 Q180.2344,229.6875 180.2344,230.7188 L180.2344,231.8125 Q180.2344,233.0469 181.125,233.8672 Q182.0156,234.6875 183.6094,234.6875 Q184.5469,234.6875 185.2031,234.4375 Q185.5938,234.2813 186.0156,233.8438 Q186.2813,233.5781 186.4297,233.5 Q186.5781,233.4219 186.7813,233.4219 Q187.1094,233.4219 187.3672,233.6797 Q187.625,233.9375 187.625,234.2813 Q187.625,234.625 187.2813,235.0313 Q186.7813,235.6094 185.9844,235.9375 Q184.9063,236.3906 183.6094,236.3906 Q182.0938,236.3906 180.8906,235.7656 Q179.9063,235.2656 179.2188,234.1953 Q178.5313,233.125 178.5313,231.8438 L178.5313,230.6875 Q178.5313,229.3594 179.1484,228.2109 Q179.7656,227.0625 180.8594,226.4453 Q181.9531,225.8281 183.1875,225.8281 Q183.9219,225.8281 184.5703,225.9922 Q185.2188,226.1563 185.7656,226.5156 Z "/><text fill="#CC0000" font-size="16" font-weight="bold" lengthAdjust="spacingAndGlyphs" textLength="69" x="197" y="236.5781">DuckCall</text><rect fill="#FEFECE" height="32" style="stroke: #A80036; stroke-width: 1.5;" width="142" x="815.25" y="214.6406"/><ellipse cx="830.25" cy="230.6406" fill="#ADD1B2" rx="11" ry="11" style="stroke: #A80036; stroke-width: 1.0;"/><path d="M833.0156,226.5156 Q833.1719,226.2969 833.3594,226.1875 Q833.5469,226.0781 833.7656,226.0781 Q834.1406,226.0781 834.375,226.3359 Q834.6094,226.5938 834.6094,227.2031 L834.6094,228.6563 Q834.6094,229.2656 834.375,229.5313 Q834.1406,229.7969 833.7656,229.7969 Q833.4219,229.7969 833.2188,229.5938 Q833.0156,229.4063 832.9063,228.8906 Q832.8594,228.5313 832.6719,228.3438 Q832.3438,227.9688 831.7344,227.75 Q831.125,227.5313 830.5,227.5313 Q829.7344,227.5313 829.1016,227.8594 Q828.4688,228.1875 827.9766,228.9375 Q827.4844,229.6875 827.4844,230.7188 L827.4844,231.8125 Q827.4844,233.0469 828.375,233.8672 Q829.2656,234.6875 830.8594,234.6875 Q831.7969,234.6875 832.4531,234.4375 Q832.8438,234.2813 833.2656,233.8438 Q833.5313,233.5781 833.6797,233.5 Q833.8281,233.4219 834.0313,233.4219 Q834.3594,233.4219 834.6172,233.6797 Q834.875,233.9375 834.875,234.2813 Q834.875,234.625 834.5313,235.0313 Q834.0313,235.6094 833.2344,235.9375 Q832.1563,236.3906 830.8594,236.3906 Q829.3438,236.3906 828.1406,235.7656 Q827.1563,235.2656 826.4688,234.1953 Q825.7813,233.125 825.7813,231.8438 L825.7813,230.6875 Q825.7813,229.3594 826.3984,228.2109 Q827.0156,227.0625 828.1094,226.4453 Q829.2031,225.8281 830.4375,225.8281 Q831.1719,225.8281 831.8203,225.9922 Q832.4688,226.1563 833.0156,226.5156 Z "/><text fill="#CC0000" font-size="16" font-weight="bold" lengthAdjust="spacingAndGlyphs" textLength="110" x="844.25" y="236.5781">GooseAdapter</text><rect fill="#FEFECE" height="32" style="stroke: #A80036; stroke-width: 1.5;" width="143" x="698" y="398.6406"/><ellipse cx="713" cy="414.6406" fill="#ADD1B2" rx="11" ry="11" style="stroke: #A80036; stroke-width: 1.0;"/><path d="M715.7656,410.5156 Q715.9219,410.2969 716.1094,410.1875 Q716.2969,410.0781 716.5156,410.0781 Q716.8906,410.0781 717.125,410.3359 Q717.3594,410.5938 717.3594,411.2031 L717.3594,412.6563 Q717.3594,413.2656 717.125,413.5313 Q716.8906,413.7969 716.5156,413.7969 Q716.1719,413.7969 715.9688,413.5938 Q715.7656,413.4063 715.6563,412.8906 Q715.6094,412.5313 715.4219,412.3438 Q715.0938,411.9688 714.4844,411.75 Q713.875,411.5313 713.25,411.5313 Q712.4844,411.5313 711.8516,411.8594 Q711.2188,412.1875 710.7266,412.9375 Q710.2344,413.6875 710.2344,414.7188 L710.2344,415.8125 Q710.2344,417.0469 711.125,417.8672 Q712.0156,418.6875 713.6094,418.6875 Q714.5469,418.6875 715.2031,418.4375 Q715.5938,418.2813 716.0156,417.8438 Q716.2813,417.5781 716.4297,417.5 Q716.5781,417.4219 716.7813,417.4219 Q717.1094,417.4219 717.3672,417.6797 Q717.625,417.9375 717.625,418.2813 Q717.625,418.625 717.2813,419.0313 Q716.7813,419.6094 715.9844,419.9375 Q714.9063,420.3906 713.6094,420.3906 Q712.0938,420.3906 710.8906,419.7656 Q709.9063,419.2656 709.2188,418.1953 Q708.5313,417.125 708.5313,415.8438 L708.5313,414.6875 Q708.5313,413.3594 709.1484,412.2109 Q709.7656,411.0625 710.8594,410.4453 Q711.9531,409.8281 713.1875,409.8281 Q713.9219,409.8281 714.5703,409.9922 Q715.2188,410.1563 715.7656,410.5156 Z "/><text fill="#CC0000" font-size="16" font-weight="bold" lengthAdjust="spacingAndGlyphs" textLength="111" x="727" y="420.5781">QuackCounter</text><rect fill="#FEFECE" height="32" style="stroke: #A80036; stroke-width: 1.5;" width="119" x="566" y="122.6406"/><ellipse cx="581" cy="138.6406" fill="#ADD1B2" rx="11" ry="11" style="stroke: #A80036; stroke-width: 1.0;"/><path d="M583.7656,134.5156 Q583.9219,134.2969 584.1094,134.1875 Q584.2969,134.0781 584.5156,134.0781 Q584.8906,134.0781 585.125,134.3359 Q585.3594,134.5938 585.3594,135.2031 L585.3594,136.6563 Q585.3594,137.2656 585.125,137.5313 Q584.8906,137.7969 584.5156,137.7969 Q584.1719,137.7969 583.9688,137.5938 Q583.7656,137.4063 583.6563,136.8906 Q583.6094,136.5313 583.4219,136.3438 Q583.0938,135.9688 582.4844,135.75 Q581.875,135.5313 581.25,135.5313 Q580.4844,135.5313 579.8516,135.8594 Q579.2188,136.1875 578.7266,136.9375 Q578.2344,137.6875 578.2344,138.7188 L578.2344,139.8125 Q578.2344,141.0469 579.125,141.8672 Q580.0156,142.6875 581.6094,142.6875 Q582.5469,142.6875 583.2031,142.4375 Q583.5938,142.2813 584.0156,141.8438 Q584.2813,141.5781 584.4297,141.5 Q584.5781,141.4219 584.7813,141.4219 Q585.1094,141.4219 585.3672,141.6797 Q585.625,141.9375 585.625,142.2813 Q585.625,142.625 585.2813,143.0313 Q584.7813,143.6094 583.9844,143.9375 Q582.9063,144.3906 581.6094,144.3906 Q580.0938,144.3906 578.8906,143.7656 Q577.9063,143.2656 577.2188,142.1953 Q576.5313,141.125 576.5313,139.8438 L576.5313,138.6875 Q576.5313,137.3594 577.1484,136.2109 Q577.7656,135.0625 578.8594,134.4453 Q579.9531,133.8281 581.1875,133.8281 Q581.9219,133.8281 582.5703,133.9922 Q583.2188,134.1563 583.7656,134.5156 Z "/><text fill="#CC0000" font-size="16" font-weight="bold" lengthAdjust="spacingAndGlyphs" textLength="87" x="595" y="144.5781">Observable</text><rect fill="#FEFECE" height="32" style="stroke: #A80036; stroke-width: 1.5;" width="167" x="547" y="30.6406"/><ellipse cx="562" cy="46.6406" fill="#B4A7E5" rx="11" ry="11" style="stroke: #A80036; stroke-width: 1.0;"/><path d="M562.9531,43.2813 L562.9531,49.9375 L564.6719,49.9375 Q565.2813,49.9375 565.5469,50.1719 Q565.8125,50.4063 565.8125,50.7969 Q565.8125,51.1719 565.5469,51.4063 Q565.2813,51.6406 564.6719,51.6406 L559.5313,51.6406 Q558.9219,51.6406 558.6563,51.4063 Q558.3906,51.1719 558.3906,50.7813 Q558.3906,50.4063 558.6563,50.1719 Q558.9219,49.9375 559.5313,49.9375 L561.25,49.9375 L561.25,43.2813 L559.5313,43.2813 Q558.9219,43.2813 558.6563,43.0469 Q558.3906,42.8125 558.3906,42.4219 Q558.3906,42.0469 558.6563,41.8125 Q558.9219,41.5781 559.5313,41.5781 L564.6719,41.5781 Q565.2813,41.5781 565.5469,41.8125 Q565.8125,42.0469 565.8125,42.4219 Q565.8125,42.8125 565.5469,43.0469 Q565.2813,43.2813 564.6719,43.2813 L562.9531,43.2813 Z "/><text fill="#CC0000" font-size="16" font-style="italic" font-weight="bold" lengthAdjust="spacingAndGlyphs" textLength="135" x="576" y="52.5781">QuackObservable</text><rect fill="#FEFECE" height="32" style="stroke: #A80036; stroke-width: 1.5;" width="192" x="211.25" y="306.6406"/><ellipse cx="226.25" cy="322.6406" fill="#A9DCDF" rx="11" ry="11" style="stroke: #A80036; stroke-width: 1.0;"/><path d="M228.4375,324.4063 L224.2969,324.4063 L223.875,325.4375 L224.2969,325.4375 Q224.9063,325.4375 225.1719,325.6719 Q225.4375,325.9063 225.4375,326.2969 Q225.4375,326.6719 225.1719,326.9063 Q224.9063,327.1406 224.2969,327.1406 L222,327.1406 Q221.3906,327.1406 221.1328,326.9063 Q220.875,326.6719 220.875,326.2813 Q220.875,325.9063 221.1484,325.6641 Q221.4219,325.4219 222.0469,325.4375 L224.7188,318.7813 L223.6094,318.7813 Q223,318.7813 222.7344,318.5469 Q222.4688,318.3125 222.4688,317.9219 Q222.4688,317.5469 222.7344,317.3125 Q223,317.0781 223.6094,317.0781 L227.2813,317.0781 L230.6719,325.4375 Q231.2656,325.4375 231.4531,325.5781 Q231.8438,325.8438 231.8438,326.2969 Q231.8438,326.6719 231.5859,326.9063 Q231.3281,327.1406 230.7188,327.1406 L228.4219,327.1406 Q227.8125,327.1406 227.5469,326.9063 Q227.2813,326.6719 227.2813,326.2813 Q227.2813,325.9063 227.5469,325.6719 Q227.8125,325.4375 228.4219,325.4375 L228.8438,325.4375 L228.4375,324.4063 Z M227.7188,322.7031 L226.3594,319.3281 L224.9844,322.7031 L227.7188,322.7031 Z "/><text fill="#CC0000" font-size="16" font-style="italic" font-weight="bold" lengthAdjust="spacingAndGlyphs" textLength="160" x="240.25" y="328.5781">AbstractDuckFactory</text><rect fill="#FEFECE" height="32" style="stroke: #A80036; stroke-width: 1.5;" width="201" x="6" y="398.6406"/><ellipse cx="21" cy="414.6406" fill="#ADD1B2" rx="11" ry="11" style="stroke: #A80036; stroke-width: 1.0;"/><path d="M23.7656,410.5156 Q23.9219,410.2969 24.1094,410.1875 Q24.2969,410.0781 24.5156,410.0781 Q24.8906,410.0781 25.125,410.3359 Q25.3594,410.5938 25.3594,411.2031 L25.3594,412.6563 Q25.3594,413.2656 25.125,413.5313 Q24.8906,413.7969 24.5156,413.7969 Q24.1719,413.7969 23.9688,413.5938 Q23.7656,413.4063 23.6563,412.8906 Q23.6094,412.5313 23.4219,412.3438 Q23.0938,411.9688 22.4844,411.75 Q21.875,411.5313 21.25,411.5313 Q20.4844,411.5313 19.8516,411.8594 Q19.2188,412.1875 18.7266,412.9375 Q18.2344,413.6875 18.2344,414.7188 L18.2344,415.8125 Q18.2344,417.0469 19.125,417.8672 Q20.0156,418.6875 21.6094,418.6875 Q22.5469,418.6875 23.2031,418.4375 Q23.5938,418.2813 24.0156,417.8438 Q24.2813,417.5781 24.4297,417.5 Q24.5781,417.4219 24.7813,417.4219 Q25.1094,417.4219 25.3672,417.6797 Q25.625,417.9375 25.625,418.2813 Q25.625,418.625 25.2813,419.0313 Q24.7813,419.6094 23.9844,419.9375 Q22.9063,420.3906 21.6094,420.3906 Q20.0938,420.3906 18.8906,419.7656 Q17.9063,419.2656 17.2188,418.1953 Q16.5313,417.125 16.5313,415.8438 L16.5313,414.6875 Q16.5313,413.3594 17.1484,412.2109 Q17.7656,411.0625 18.8594,410.4453 Q19.9531,409.8281 21.1875,409.8281 Q21.9219,409.8281 22.5703,409.9922 Q23.2188,410.1563 23.7656,410.5156 Z "/><text fill="#CC0000" font-size="16" font-weight="bold" lengthAdjust="spacingAndGlyphs" textLength="169" x="35" y="420.5781">CountingDuckFactory</text><rect fill="#FEFECE" height="32" style="stroke: #A80036; stroke-width: 1.5;" width="130" x="242.25" y="398.6406"/><ellipse cx="257.25" cy="414.6406" fill="#ADD1B2" rx="11" ry="11" style="stroke: #A80036; stroke-width: 1.0;"/><path d="M260.0156,410.5156 Q260.1719,410.2969 260.3594,410.1875 Q260.5469,410.0781 260.7656,410.0781 Q261.1406,410.0781 261.375,410.3359 Q261.6094,410.5938 261.6094,411.2031 L261.6094,412.6563 Q261.6094,413.2656 261.375,413.5313 Q261.1406,413.7969 260.7656,413.7969 Q260.4219,413.7969 260.2188,413.5938 Q260.0156,413.4063 259.9063,412.8906 Q259.8594,412.5313 259.6719,412.3438 Q259.3438,411.9688 258.7344,411.75 Q258.125,411.5313 257.5,411.5313 Q256.7344,411.5313 256.1016,411.8594 Q255.4688,412.1875 254.9766,412.9375 Q254.4844,413.6875 254.4844,414.7188 L254.4844,415.8125 Q254.4844,417.0469 255.375,417.8672 Q256.2656,418.6875 257.8594,418.6875 Q258.7969,418.6875 259.4531,418.4375 Q259.8438,418.2813 260.2656,417.8438 Q260.5313,417.5781 260.6797,417.5 Q260.8281,417.4219 261.0313,417.4219 Q261.3594,417.4219 261.6172,417.6797 Q261.875,417.9375 261.875,418.2813 Q261.875,418.625 261.5313,419.0313 Q261.0313,419.6094 260.2344,419.9375 Q259.1563,420.3906 257.8594,420.3906 Q256.3438,420.3906 255.1406,419.7656 Q254.1563,419.2656 253.4688,418.1953 Q252.7813,417.125 252.7813,415.8438 L252.7813,414.6875 Q252.7813,413.3594 253.3984,412.2109 Q254.0156,411.0625 255.1094,410.4453 Q256.2031,409.8281 257.4375,409.8281 Q258.1719,409.8281 258.8203,409.9922 Q259.4688,410.1563 260.0156,410.5156 Z "/><text fill="#CC0000" font-size="16" font-weight="bold" lengthAdjust="spacingAndGlyphs" textLength="98" x="271.25" y="420.5781">DuckFactory</text><rect fill="#FEFECE" height="32" style="stroke: #A80036; stroke-width: 1.5;" width="102" x="409.25" y="30.6406"/><ellipse cx="424.25" cy="46.6406" fill="#B4A7E5" rx="11" ry="11" style="stroke: #A80036; stroke-width: 1.0;"/><path d="M425.2031,43.2813 L425.2031,49.9375 L426.9219,49.9375 Q427.5313,49.9375 427.7969,50.1719 Q428.0625,50.4063 428.0625,50.7969 Q428.0625,51.1719 427.7969,51.4063 Q427.5313,51.6406 426.9219,51.6406 L421.7813,51.6406 Q421.1719,51.6406 420.9063,51.4063 Q420.6406,51.1719 420.6406,50.7813 Q420.6406,50.4063 420.9063,50.1719 Q421.1719,49.9375 421.7813,49.9375 L423.5,49.9375 L423.5,43.2813 L421.7813,43.2813 Q421.1719,43.2813 420.9063,43.0469 Q420.6406,42.8125 420.6406,42.4219 Q420.6406,42.0469 420.9063,41.8125 Q421.1719,41.5781 421.7813,41.5781 L426.9219,41.5781 Q427.5313,41.5781 427.7969,41.8125 Q428.0625,42.0469 428.0625,42.4219 Q428.0625,42.8125 427.7969,43.0469 Q427.5313,43.2813 426.9219,43.2813 L425.2031,43.2813 Z "/><text fill="#CC0000" font-size="16" font-style="italic" font-weight="bold" lengthAdjust="spacingAndGlyphs" textLength="70" x="438.25" y="52.5781">Observer</text><rect fill="#FEFECE" height="32" style="stroke: #A80036; stroke-width: 1.5;" width="133" x="394" y="122.6406"/><ellipse cx="409" cy="138.6406" fill="#ADD1B2" rx="11" ry="11" style="stroke: #A80036; stroke-width: 1.0;"/><path d="M411.7656,134.5156 Q411.9219,134.2969 412.1094,134.1875 Q412.2969,134.0781 412.5156,134.0781 Q412.8906,134.0781 413.125,134.3359 Q413.3594,134.5938 413.3594,135.2031 L413.3594,136.6563 Q413.3594,137.2656 413.125,137.5313 Q412.8906,137.7969 412.5156,137.7969 Q412.1719,137.7969 411.9688,137.5938 Q411.7656,137.4063 411.6563,136.8906 Q411.6094,136.5313 411.4219,136.3438 Q411.0938,135.9688 410.4844,135.75 Q409.875,135.5313 409.25,135.5313 Q408.4844,135.5313 407.8516,135.8594 Q407.2188,136.1875 406.7266,136.9375 Q406.2344,137.6875 406.2344,138.7188 L406.2344,139.8125 Q406.2344,141.0469 407.125,141.8672 Q408.0156,142.6875 409.6094,142.6875 Q410.5469,142.6875 411.2031,142.4375 Q411.5938,142.2813 412.0156,141.8438 Q412.2813,141.5781 412.4297,141.5 Q412.5781,141.4219 412.7813,141.4219 Q413.1094,141.4219 413.3672,141.6797 Q413.625,141.9375 413.625,142.2813 Q413.625,142.625 413.2813,143.0313 Q412.7813,143.6094 411.9844,143.9375 Q410.9063,144.3906 409.6094,144.3906 Q408.0938,144.3906 406.8906,143.7656 Q405.9063,143.2656 405.2188,142.1953 Q404.5313,141.125 404.5313,139.8438 L404.5313,138.6875 Q404.5313,137.3594 405.1484,136.2109 Q405.7656,135.0625 406.8594,134.4453 Q407.9531,133.8281 409.1875,133.8281 Q409.9219,133.8281 410.5703,133.9922 Q411.2188,134.1563 411.7656,134.5156 Z "/><text fill="#CC0000" font-size="16" font-weight="bold" lengthAdjust="spacingAndGlyphs" textLength="101" x="423" y="144.5781">Quackologist</text><rect fill="#FEFECE" height="32" style="stroke: #A80036; stroke-width: 1.5;" width="82" x="845.25" y="122.6406"/><ellipse cx="860.25" cy="138.6406" fill="#ADD1B2" rx="11" ry="11" style="stroke: #A80036; stroke-width: 1.0;"/><path d="M863.0156,134.5156 Q863.1719,134.2969 863.3594,134.1875 Q863.5469,134.0781 863.7656,134.0781 Q864.1406,134.0781 864.375,134.3359 Q864.6094,134.5938 864.6094,135.2031 L864.6094,136.6563 Q864.6094,137.2656 864.375,137.5313 Q864.1406,137.7969 863.7656,137.7969 Q863.4219,137.7969 863.2188,137.5938 Q863.0156,137.4063 862.9063,136.8906 Q862.8594,136.5313 862.6719,136.3438 Q862.3438,135.9688 861.7344,135.75 Q861.125,135.5313 860.5,135.5313 Q859.7344,135.5313 859.1016,135.8594 Q858.4688,136.1875 857.9766,136.9375 Q857.4844,137.6875 857.4844,138.7188 L857.4844,139.8125 Q857.4844,141.0469 858.375,141.8672 Q859.2656,142.6875 860.8594,142.6875 Q861.7969,142.6875 862.4531,142.4375 Q862.8438,142.2813 863.2656,141.8438 Q863.5313,141.5781 863.6797,141.5 Q863.8281,141.4219 864.0313,141.4219 Q864.3594,141.4219 864.6172,141.6797 Q864.875,141.9375 864.875,142.2813 Q864.875,142.625 864.5313,143.0313 Q864.0313,143.6094 863.2344,143.9375 Q862.1563,144.3906 860.8594,144.3906 Q859.3438,144.3906 858.1406,143.7656 Q857.1563,143.2656 856.4688,142.1953 Q855.7813,141.125 855.7813,139.8438 L855.7813,138.6875 Q855.7813,137.3594 856.3984,136.2109 Q857.0156,135.0625 858.1094,134.4453 Q859.2031,133.8281 860.4375,133.8281 Q861.1719,133.8281 861.8203,133.9922 Q862.4688,134.1563 863.0156,134.5156 Z "/><text fill="#CC0000" font-size="16" font-weight="bold" lengthAdjust="spacingAndGlyphs" textLength="50" x="874.25" y="144.5781">Goose</text><path d="M596.45,341.5164 C569.579,358.1951 529.931,382.804 504.599,398.5275 " fill="none" style="stroke: #0000FF; stroke-width: 1.0; stroke-dasharray: 7.0,7.0;"/><polygon fill="#0000FF" points="600.98,338.7046,591.2239,340.0529,596.732,341.3417,595.4432,346.8498,600.98,338.7046" style="stroke: #0000FF; stroke-width: 1.0;"/><path d="M614.408,343.8336 C611.555,360.4359 611.902,383.5906 615.449,398.5988 " fill="none" style="stroke: #0000FF; stroke-width: 1.0; stroke-dasharray: 7.0,7.0;"/><polygon fill="#0000FF" points="615.396,338.9079,609.7041,346.9455,614.4127,343.8103,617.5479,348.5188,615.396,338.9079" style="stroke: #0000FF; stroke-width: 1.0;"/><path d="M638.457,358.7608 C639.29,372.5909 638.347,387.7308 635.628,398.5988 " fill="none" style="stroke: #0000FF; stroke-width: 1.0; stroke-dasharray: 7.0,7.0;"/><polygon fill="none" points="631.518,359.6839,635.684,338.9079,645.383,357.7474,631.518,359.6839" style="stroke: #0000FF; stroke-width: 1.0;"/><path d="M697.492,246.9076 C685.546,259.2656 668.366,277.0376 653.757,292.1506 " fill="none" style="stroke: #0000FF; stroke-width: 1.0; stroke-dasharray: 7.0,7.0;"/><polygon fill="none" points="658.724,297.0846,639.79,306.5986,648.658,287.3536,658.724,297.0846" style="stroke: #0000FF; stroke-width: 1.0;"/><path d="M553.008,246.9076 C564.954,259.2656 582.134,277.0376 596.743,292.1506 " fill="none" style="stroke: #0000FF; stroke-width: 1.0; stroke-dasharray: 7.0,7.0;"/><polygon fill="none" points="601.842,287.3536,610.71,306.5986,591.776,297.0846,601.842,287.3536" style="stroke: #0000FF; stroke-width: 1.0;"/><path d="M411.266,246.7046 C452.777,261.2416 516.069,283.4056 563.062,299.8626 " fill="none" style="stroke: #0000FF; stroke-width: 1.0; stroke-dasharray: 7.0,7.0;"/><polygon fill="none" points="565.531,293.3106,582.094,306.5276,560.904,306.5236,565.531,293.3106" style="stroke: #0000FF; stroke-width: 1.0;"/><path d="M268.564,242.7666 C339.027,258.3476 467.647,286.7896 549.657,304.9246 " fill="none" style="stroke: #0000FF; stroke-width: 1.0; stroke-dasharray: 7.0,7.0;"/><polygon fill="none" points="551.17,298.0896,569.187,309.2436,548.147,311.7596,551.17,298.0896" style="stroke: #0000FF; stroke-width: 1.0;"/><path d="M842.564,246.7046 C800.314,261.2736 735.843,283.5046 688.086,299.9726 " fill="none" style="stroke: #0000FF; stroke-width: 1.0; stroke-dasharray: 7.0,7.0;"/><polygon fill="none" points="690.267,306.6256,669.078,306.5276,685.704,293.3896,690.267,306.6256" style="stroke: #0000FF; stroke-width: 1.0;"/><path d="M677.26,348.5098 C705.104,364.5479 737.032,384.8831 755.465,398.5275 " fill="none" style="stroke: #0000FF; stroke-width: 1.0; stroke-dasharray: 7.0,7.0;"/><polygon fill="none" points="673.772,354.5791,659.736,338.7046,680.608,342.3615,673.772,354.5791" style="stroke: #0000FF; stroke-width: 1.0;"/><path d="M643.727,341.7235 C667.148,358.3983 706.514,382.869 735.251,398.5275 " fill="none" style="stroke: #0000FF; stroke-width: 1.0;"/><polygon fill="#0000FF" points="639.546,338.7046,644.501,347.2162,643.5997,341.6317,649.1843,340.7303,639.546,338.7046" style="stroke: #0000FF; stroke-width: 1.0;"/><path d="M673.828,156.3916 C722.201,173.0716 795.788,198.4466 842.422,214.5276 " fill="none" style="stroke: #0000FF; stroke-width: 1.0;"/><polygon fill="#0000FF" points="668.936,154.7046,676.1398,161.4206,673.6627,156.335,678.7484,153.8579,668.936,154.7046" style="stroke: #0000FF; stroke-width: 1.0;"/><path d="M643.538,158.5586 C659.656,175.2326 682.826,199.2026 697.71,214.5986 " fill="none" style="stroke: #0000FF; stroke-width: 1.0;"/><polygon fill="#0000FF" points="640.008,154.9076,643.3871,164.1587,643.483,158.5026,649.1391,158.5986,640.008,154.9076" style="stroke: #0000FF; stroke-width: 1.0;"/><path d="M606.962,158.5586 C590.844,175.2326 567.674,199.2026 552.79,214.5986 " fill="none" style="stroke: #0000FF; stroke-width: 1.0;"/><polygon fill="#0000FF" points="610.492,154.9076,601.3609,158.5986,607.017,158.5026,607.1129,164.1587,610.492,154.9076" style="stroke: #0000FF; stroke-width: 1.0;"/><path d="M577.416,156.3916 C529.785,173.0716 457.326,198.4466 411.406,214.5276 " fill="none" style="stroke: #0000FF; stroke-width: 1.0;"/><polygon fill="#0000FF" points="582.234,154.7046,572.4179,153.9022,577.5147,156.3563,575.0606,161.4531,582.234,154.7046" style="stroke: #0000FF; stroke-width: 1.0;"/><path d="M560.376,153.9866 C479.328,171.9086 342.362,202.1956 268.712,218.4816 " fill="none" style="stroke: #0000FF; stroke-width: 1.0;"/><polygon fill="#0000FF" points="565.633,152.8236,555.9815,150.8617,560.751,153.9034,557.7092,158.6729,565.633,152.8236" style="stroke: #0000FF; stroke-width: 1.0;"/><path d="M733.682,61.2846 C812.908,73.7096 913.661,94.4266 944.25,122.6406 C985.929,161.0836 1009.88,202.5356 974.25,246.6406 C938.078,291.4116 770.658,310.6976 681.497,317.9116 " fill="none" style="stroke: #0000FF; stroke-width: 1.0;"/><polygon fill="none" points="732.523,68.1886,713.8,58.2666,734.624,54.3476,732.523,68.1886" style="stroke: #0000FF; stroke-width: 1.0;"/><path d="M618.286,67.8336 C614.511,84.4356 613.571,107.5906 616.284,122.5986 " fill="none" style="stroke: #0000FF; stroke-width: 1.0;"/><polygon fill="#0000FF" points="619.547,62.9076,613.4401,70.6346,618.3071,67.7515,621.1903,72.6184,619.547,62.9076" style="stroke: #0000FF; stroke-width: 1.0;"/><path d="M641.507,83.2556 C641.528,96.9506 639.747,111.8606 636.464,122.5986 " fill="none" style="stroke: #0000FF; stroke-width: 1.0; stroke-dasharray: 7.0,7.0;"/><polygon fill="none" points="634.497,83.4136,639.836,62.9076,648.45,82.2676,634.497,83.4136" style="stroke: #0000FF; stroke-width: 1.0;"/><path d="M340.819,341.1045 C372.888,357.7877 420.725,382.6741 451.199,398.5275 " fill="none" style="stroke: #0000FF; stroke-width: 1.0; stroke-dasharray: 7.0,7.0;"/><polygon fill="#0000FF" points="336.206,338.7046,342.3428,346.4078,340.6413,341.013,346.0361,339.3114,336.206,338.7046" style="stroke: #0000FF; stroke-width: 1.0;"/><path d="M255.258,346.9207 C218.935,363.1848 171.491,384.4283 140.003,398.5275 " fill="none" style="stroke: #0000FF; stroke-width: 1.0;"/><polygon fill="none" points="252.493,340.4891,273.607,338.7046,258.214,353.2667,252.493,340.4891" style="stroke: #0000FF; stroke-width: 1.0;"/><path d="M307.25,359.2553 C307.25,372.9508 307.25,387.8602 307.25,398.5988 " fill="none" style="stroke: #0000FF; stroke-width: 1.0;"/><polygon fill="none" points="300.25,358.9079,307.25,338.9079,314.25,358.9078,300.25,358.9079" style="stroke: #0000FF; stroke-width: 1.0;"/><path d="M460.25,83.2556 C460.25,96.9506 460.25,111.8606 460.25,122.5986 " fill="none" style="stroke: #0000FF; stroke-width: 1.0; stroke-dasharray: 7.0,7.0;"/><polygon fill="none" points="453.25,82.9076,460.25,62.9076,467.25,82.9076,453.25,82.9076" style="stroke: #0000FF; stroke-width: 1.0;"/><path d="M492.267,65.1046 C522.853,81.7876 568.478,106.6736 597.543,122.5276 " fill="none" style="stroke: #0000FF; stroke-width: 1.0; stroke-dasharray: 7.0,7.0;"/><polygon fill="#0000FF" points="487.867,62.7046,493.853,70.5256,492.2566,65.0987,497.6835,63.5023,487.867,62.7046" style="stroke: #0000FF; stroke-width: 1.0;"/><path d="M511.383,46.6406 C523.146,46.6406 534.909,46.6406 546.672,46.6406 " fill="none" style="stroke: #0000FF; stroke-width: 1.0; stroke-dasharray: 7.0,7.0;"/><path d="M886.25,160.2646 C886.25,176.8346 886.25,199.7196 886.25,214.5986 " fill="none" style="stroke: #0000FF; stroke-width: 1.0;"/><polygon fill="#0000FF" points="886.25,154.9076,882.25,163.9076,886.25,159.9076,890.25,163.9076,886.25,154.9076" style="stroke: #0000FF; stroke-width: 1.0;"/></g></svg>