<?xml version="1.0" encoding="UTF-8" standalone="no"?><svg xmlns="http://www.w3.org/2000/svg" xmlns:xlink="http://www.w3.org/1999/xlink" contentScriptType="application/ecmascript" contentStyleType="text/css" height="328px" preserveAspectRatio="none" style="width:952px;height:328px;" version="1.1" viewBox="0 0 952 328" width="952px" zoomAndPan="magnify"><defs><filter height="300%" id="f5p10fc5ry21o" width="300%" x="-1" y="-1"><feGaussianBlur result="blurOut" stdDeviation="2.0"/><feColorMatrix in="blurOut" result="blurOut2" type="matrix" values="0 0 0 0 0 0 0 0 0 0 0 0 0 0 0 0 0 0 .4 0"/><feOffset dx="4.0" dy="4.0" in="blurOut2" result="blurOut3"/><feBlend in="SourceGraphic" in2="blurOut3" mode="normal"/></filter></defs><g><!--MD5=[86574f60ab60f03266a3c09ed542d634]
cluster decorator--><polygon fill="#FFFFFF" filter="url(#f5p10fc5ry21o)" points="16,6,100,6,107,28.2969,795,28.2969,795,321,16,321,16,6" style="stroke: #000000; stroke-width: 1.5;"/><line style="stroke: #000000; stroke-width: 1.5;" x1="16" x2="107" y1="28.2969" y2="28.2969"/><text fill="#000000" font-family="sans-serif" font-size="14" font-weight="bold" lengthAdjust="spacingAndGlyphs" textLength="78" x="20" y="20.9951">decorator</text><!--MD5=[aa8f7b917213fcc1c2766e2d59b49067]
cluster java.lang--><polygon fill="#FFFFFF" filter="url(#f5p10fc5ry21o)" points="819,222,894,222,901,244.2969,935,244.2969,935,321,819,321,819,222" style="stroke: #000000; stroke-width: 1.5;"/><line style="stroke: #000000; stroke-width: 1.5;" x1="819" x2="901" y1="244.2969" y2="244.2969"/><text fill="#000000" font-family="sans-serif" font-size="14" font-weight="bold" lengthAdjust="spacingAndGlyphs" textLength="69" x="823" y="236.9951">java.lang</text><!--MD5=[0173b3b410c05451ca6370e39a89d6d5]
class decorator.Decorator--><rect codeLine="1" fill="#FEFECE" filter="url(#f5p10fc5ry21o)" height="48" id="decorator.Decorator" style="stroke: #A80036; stroke-width: 1.5;" width="95" x="166.5" y="149"/><ellipse cx="181.5" cy="165" fill="#A9DCDF" rx="11" ry="11" style="stroke: #A80036; stroke-width: 1.0;"/><path d="M181.6094,160.3438 L180.4531,165.4219 L182.7813,165.4219 L181.6094,160.3438 Z M180.125,158.1094 L183.1094,158.1094 L186.4688,170.5 L184.0156,170.5 L183.25,167.4375 L179.9688,167.4375 L179.2188,170.5 L176.7813,170.5 L180.125,158.1094 Z "/><text fill="#000000" font-family="sans-serif" font-size="12" font-style="italic" lengthAdjust="spacingAndGlyphs" textLength="63" x="195.5" y="169.1543">Decorator</text><line style="stroke: #A80036; stroke-width: 1.5;" x1="167.5" x2="260.5" y1="181" y2="181"/><line style="stroke: #A80036; stroke-width: 1.5;" x1="167.5" x2="260.5" y1="189" y2="189"/><!--MD5=[beae0a5ece44b1db3d3e046a6268d2b6]
class decorator.BasicCar--><rect codeLine="3" fill="#FEFECE" filter="url(#f5p10fc5ry21o)" height="48" id="decorator.BasicCar" style="stroke: #A80036; stroke-width: 1.5;" width="86" x="693" y="149"/><ellipse cx="708" cy="165" fill="#ADD1B2" rx="11" ry="11" style="stroke: #A80036; stroke-width: 1.0;"/><path d="M710.9688,170.6406 Q710.3906,170.9375 709.75,171.0781 Q709.1094,171.2344 708.4063,171.2344 Q705.9063,171.2344 704.5781,169.5938 Q703.2656,167.9375 703.2656,164.8125 Q703.2656,161.6875 704.5781,160.0313 Q705.9063,158.375 708.4063,158.375 Q709.1094,158.375 709.75,158.5313 Q710.4063,158.6875 710.9688,158.9844 L710.9688,161.7031 Q710.3438,161.125 709.75,160.8594 Q709.1563,160.5781 708.5313,160.5781 Q707.1875,160.5781 706.5,161.6563 Q705.8125,162.7188 705.8125,164.8125 Q705.8125,166.9063 706.5,167.9844 Q707.1875,169.0469 708.5313,169.0469 Q709.1563,169.0469 709.75,168.7813 Q710.3438,168.5 710.9688,167.9219 L710.9688,170.6406 Z "/><text fill="#000000" font-family="sans-serif" font-size="12" lengthAdjust="spacingAndGlyphs" textLength="54" x="722" y="169.1543">BasicCar</text><line style="stroke: #A80036; stroke-width: 1.5;" x1="694" x2="778" y1="181" y2="181"/><line style="stroke: #A80036; stroke-width: 1.5;" x1="694" x2="778" y1="189" y2="189"/><!--MD5=[e76042c4c10aa89484086578da5dcc77]
class decorator.CD--><rect codeLine="4" fill="#FEFECE" filter="url(#f5p10fc5ry21o)" height="48" id="decorator.CD" style="stroke: #A80036; stroke-width: 1.5;" width="49" x="140.5" y="41"/><ellipse cx="155.5" cy="57" fill="#ADD1B2" rx="11" ry="11" style="stroke: #A80036; stroke-width: 1.0;"/><path d="M158.4688,62.6406 Q157.8906,62.9375 157.25,63.0781 Q156.6094,63.2344 155.9063,63.2344 Q153.4063,63.2344 152.0781,61.5938 Q150.7656,59.9375 150.7656,56.8125 Q150.7656,53.6875 152.0781,52.0313 Q153.4063,50.375 155.9063,50.375 Q156.6094,50.375 157.25,50.5313 Q157.9063,50.6875 158.4688,50.9844 L158.4688,53.7031 Q157.8438,53.125 157.25,52.8594 Q156.6563,52.5781 156.0313,52.5781 Q154.6875,52.5781 154,53.6563 Q153.3125,54.7188 153.3125,56.8125 Q153.3125,58.9063 154,59.9844 Q154.6875,61.0469 156.0313,61.0469 Q156.6563,61.0469 157.25,60.7813 Q157.8438,60.5 158.4688,59.9219 L158.4688,62.6406 Z "/><text fill="#000000" font-family="sans-serif" font-size="12" lengthAdjust="spacingAndGlyphs" textLength="17" x="169.5" y="61.1543">CD</text><line style="stroke: #A80036; stroke-width: 1.5;" x1="141.5" x2="188.5" y1="73" y2="73"/><line style="stroke: #A80036; stroke-width: 1.5;" x1="141.5" x2="188.5" y1="81" y2="81"/><!--MD5=[3996e75b2d5f890e6dfa3d6f979d78c6]
class decorator.CarDecorator--><rect codeLine="5" fill="#FEFECE" filter="url(#f5p10fc5ry21o)" height="48" id="decorator.CarDecorator" style="stroke: #A80036; stroke-width: 1.5;" width="116" x="542" y="149"/><ellipse cx="557" cy="165" fill="#ADD1B2" rx="11" ry="11" style="stroke: #A80036; stroke-width: 1.0;"/><path d="M559.9688,170.6406 Q559.3906,170.9375 558.75,171.0781 Q558.1094,171.2344 557.4063,171.2344 Q554.9063,171.2344 553.5781,169.5938 Q552.2656,167.9375 552.2656,164.8125 Q552.2656,161.6875 553.5781,160.0313 Q554.9063,158.375 557.4063,158.375 Q558.1094,158.375 558.75,158.5313 Q559.4063,158.6875 559.9688,158.9844 L559.9688,161.7031 Q559.3438,161.125 558.75,160.8594 Q558.1563,160.5781 557.5313,160.5781 Q556.1875,160.5781 555.5,161.6563 Q554.8125,162.7188 554.8125,164.8125 Q554.8125,166.9063 555.5,167.9844 Q556.1875,169.0469 557.5313,169.0469 Q558.1563,169.0469 558.75,168.7813 Q559.3438,168.5 559.9688,167.9219 L559.9688,170.6406 Z "/><text fill="#000000" font-family="sans-serif" font-size="12" lengthAdjust="spacingAndGlyphs" textLength="84" x="571" y="169.1543">CarDecorator</text><line style="stroke: #A80036; stroke-width: 1.5;" x1="543" x2="657" y1="181" y2="181"/><line style="stroke: #A80036; stroke-width: 1.5;" x1="543" x2="657" y1="189" y2="189"/><!--MD5=[d1f4a94e9678b39970f003900ad40af0]
class decorator.Computer--><rect codeLine="6" fill="#FEFECE" filter="url(#f5p10fc5ry21o)" height="48" id="decorator.Computer" style="stroke: #A80036; stroke-width: 1.5;" width="93" x="167.5" y="257"/><ellipse cx="182.5" cy="273" fill="#ADD1B2" rx="11" ry="11" style="stroke: #A80036; stroke-width: 1.0;"/><path d="M185.4688,278.6406 Q184.8906,278.9375 184.25,279.0781 Q183.6094,279.2344 182.9063,279.2344 Q180.4063,279.2344 179.0781,277.5938 Q177.7656,275.9375 177.7656,272.8125 Q177.7656,269.6875 179.0781,268.0313 Q180.4063,266.375 182.9063,266.375 Q183.6094,266.375 184.25,266.5313 Q184.9063,266.6875 185.4688,266.9844 L185.4688,269.7031 Q184.8438,269.125 184.25,268.8594 Q183.6563,268.5781 183.0313,268.5781 Q181.6875,268.5781 181,269.6563 Q180.3125,270.7188 180.3125,272.8125 Q180.3125,274.9063 181,275.9844 Q181.6875,277.0469 183.0313,277.0469 Q183.6563,277.0469 184.25,276.7813 Q184.8438,276.5 185.4688,275.9219 L185.4688,278.6406 Z "/><text fill="#000000" font-family="sans-serif" font-size="12" lengthAdjust="spacingAndGlyphs" textLength="61" x="196.5" y="277.1543">Computer</text><line style="stroke: #A80036; stroke-width: 1.5;" x1="168.5" x2="259.5" y1="289" y2="289"/><line style="stroke: #A80036; stroke-width: 1.5;" x1="168.5" x2="259.5" y1="297" y2="297"/><!--MD5=[4640c2f97af41dd88b586193e1482487]
class decorator.HD--><rect codeLine="7" fill="#FEFECE" filter="url(#f5p10fc5ry21o)" height="48" id="decorator.HD" style="stroke: #A80036; stroke-width: 1.5;" width="50" x="498" y="41"/><ellipse cx="513" cy="57" fill="#ADD1B2" rx="11" ry="11" style="stroke: #A80036; stroke-width: 1.0;"/><path d="M515.9688,62.6406 Q515.3906,62.9375 514.75,63.0781 Q514.1094,63.2344 513.4063,63.2344 Q510.9063,63.2344 509.5781,61.5938 Q508.2656,59.9375 508.2656,56.8125 Q508.2656,53.6875 509.5781,52.0313 Q510.9063,50.375 513.4063,50.375 Q514.1094,50.375 514.75,50.5313 Q515.4063,50.6875 515.9688,50.9844 L515.9688,53.7031 Q515.3438,53.125 514.75,52.8594 Q514.1563,52.5781 513.5313,52.5781 Q512.1875,52.5781 511.5,53.6563 Q510.8125,54.7188 510.8125,56.8125 Q510.8125,58.9063 511.5,59.9844 Q512.1875,61.0469 513.5313,61.0469 Q514.1563,61.0469 514.75,60.7813 Q515.3438,60.5 515.9688,59.9219 L515.9688,62.6406 Z "/><text fill="#000000" font-family="sans-serif" font-size="12" lengthAdjust="spacingAndGlyphs" textLength="18" x="527" y="61.1543">HD</text><line style="stroke: #A80036; stroke-width: 1.5;" x1="499" x2="547" y1="73" y2="73"/><line style="stroke: #A80036; stroke-width: 1.5;" x1="499" x2="547" y1="81" y2="81"/><!--MD5=[b443405599a58a90b3d4511bfb29b888]
class decorator.LuxCar--><rect codeLine="8" fill="#FEFECE" filter="url(#f5p10fc5ry21o)" height="48" id="decorator.LuxCar" style="stroke: #A80036; stroke-width: 1.5;" width="73" x="583.5" y="41"/><ellipse cx="598.5" cy="57" fill="#ADD1B2" rx="11" ry="11" style="stroke: #A80036; stroke-width: 1.0;"/><path d="M601.4688,62.6406 Q600.8906,62.9375 600.25,63.0781 Q599.6094,63.2344 598.9063,63.2344 Q596.4063,63.2344 595.0781,61.5938 Q593.7656,59.9375 593.7656,56.8125 Q593.7656,53.6875 595.0781,52.0313 Q596.4063,50.375 598.9063,50.375 Q599.6094,50.375 600.25,50.5313 Q600.9063,50.6875 601.4688,50.9844 L601.4688,53.7031 Q600.8438,53.125 600.25,52.8594 Q599.6563,52.5781 599.0313,52.5781 Q597.6875,52.5781 597,53.6563 Q596.3125,54.7188 596.3125,56.8125 Q596.3125,58.9063 597,59.9844 Q597.6875,61.0469 599.0313,61.0469 Q599.6563,61.0469 600.25,60.7813 Q600.8438,60.5 601.4688,59.9219 L601.4688,62.6406 Z "/><text fill="#000000" font-family="sans-serif" font-size="12" lengthAdjust="spacingAndGlyphs" textLength="41" x="612.5" y="61.1543">LuxCar</text><line style="stroke: #A80036; stroke-width: 1.5;" x1="584.5" x2="655.5" y1="73" y2="73"/><line style="stroke: #A80036; stroke-width: 1.5;" x1="584.5" x2="655.5" y1="81" y2="81"/><!--MD5=[f5b9beb4bfa3a561811abff39a88cbbc]
class decorator.MainDecorator--><rect codeLine="9" fill="#FEFECE" filter="url(#f5p10fc5ry21o)" height="48" id="decorator.MainDecorator" style="stroke: #A80036; stroke-width: 1.5;" width="124" x="339" y="41"/><ellipse cx="354" cy="57" fill="#ADD1B2" rx="11" ry="11" style="stroke: #A80036; stroke-width: 1.0;"/><path d="M356.9688,62.6406 Q356.3906,62.9375 355.75,63.0781 Q355.1094,63.2344 354.4063,63.2344 Q351.9063,63.2344 350.5781,61.5938 Q349.2656,59.9375 349.2656,56.8125 Q349.2656,53.6875 350.5781,52.0313 Q351.9063,50.375 354.4063,50.375 Q355.1094,50.375 355.75,50.5313 Q356.4063,50.6875 356.9688,50.9844 L356.9688,53.7031 Q356.3438,53.125 355.75,52.8594 Q355.1563,52.5781 354.5313,52.5781 Q353.1875,52.5781 352.5,53.6563 Q351.8125,54.7188 351.8125,56.8125 Q351.8125,58.9063 352.5,59.9844 Q353.1875,61.0469 354.5313,61.0469 Q355.1563,61.0469 355.75,60.7813 Q356.3438,60.5 356.9688,59.9219 L356.9688,62.6406 Z "/><text fill="#000000" font-family="sans-serif" font-size="12" lengthAdjust="spacingAndGlyphs" textLength="92" x="368" y="61.1543">MainDecorator</text><line style="stroke: #A80036; stroke-width: 1.5;" x1="340" x2="462" y1="73" y2="73"/><line style="stroke: #A80036; stroke-width: 1.5;" x1="340" x2="462" y1="81" y2="81"/><!--MD5=[4152a2a4bb13bfd61f6c763e30a47f00]
class decorator.Monitor--><rect codeLine="10" fill="#FEFECE" filter="url(#f5p10fc5ry21o)" height="48" id="decorator.Monitor" style="stroke: #A80036; stroke-width: 1.5;" width="79" x="224.5" y="41"/><ellipse cx="239.5" cy="57" fill="#ADD1B2" rx="11" ry="11" style="stroke: #A80036; stroke-width: 1.0;"/><path d="M242.4688,62.6406 Q241.8906,62.9375 241.25,63.0781 Q240.6094,63.2344 239.9063,63.2344 Q237.4063,63.2344 236.0781,61.5938 Q234.7656,59.9375 234.7656,56.8125 Q234.7656,53.6875 236.0781,52.0313 Q237.4063,50.375 239.9063,50.375 Q240.6094,50.375 241.25,50.5313 Q241.9063,50.6875 242.4688,50.9844 L242.4688,53.7031 Q241.8438,53.125 241.25,52.8594 Q240.6563,52.5781 240.0313,52.5781 Q238.6875,52.5781 238,53.6563 Q237.3125,54.7188 237.3125,56.8125 Q237.3125,58.9063 238,59.9844 Q238.6875,61.0469 240.0313,61.0469 Q240.6563,61.0469 241.25,60.7813 Q241.8438,60.5 242.4688,59.9219 L242.4688,62.6406 Z "/><text fill="#000000" font-family="sans-serif" font-size="12" lengthAdjust="spacingAndGlyphs" textLength="47" x="253.5" y="61.1543">Monitor</text><line style="stroke: #A80036; stroke-width: 1.5;" x1="225.5" x2="302.5" y1="73" y2="73"/><line style="stroke: #A80036; stroke-width: 1.5;" x1="225.5" x2="302.5" y1="81" y2="81"/><!--MD5=[07b1b657b9dddb4c6374fceef1c04c1c]
class decorator.Mouse--><rect codeLine="11" fill="#FEFECE" filter="url(#f5p10fc5ry21o)" height="48" id="decorator.Mouse" style="stroke: #A80036; stroke-width: 1.5;" width="73" x="32.5" y="41"/><ellipse cx="47.5" cy="57" fill="#ADD1B2" rx="11" ry="11" style="stroke: #A80036; stroke-width: 1.0;"/><path d="M50.4688,62.6406 Q49.8906,62.9375 49.25,63.0781 Q48.6094,63.2344 47.9063,63.2344 Q45.4063,63.2344 44.0781,61.5938 Q42.7656,59.9375 42.7656,56.8125 Q42.7656,53.6875 44.0781,52.0313 Q45.4063,50.375 47.9063,50.375 Q48.6094,50.375 49.25,50.5313 Q49.9063,50.6875 50.4688,50.9844 L50.4688,53.7031 Q49.8438,53.125 49.25,52.8594 Q48.6563,52.5781 48.0313,52.5781 Q46.6875,52.5781 46,53.6563 Q45.3125,54.7188 45.3125,56.8125 Q45.3125,58.9063 46,59.9844 Q46.6875,61.0469 48.0313,61.0469 Q48.6563,61.0469 49.25,60.7813 Q49.8438,60.5 50.4688,59.9219 L50.4688,62.6406 Z "/><text fill="#000000" font-family="sans-serif" font-size="12" lengthAdjust="spacingAndGlyphs" textLength="41" x="61.5" y="61.1543">Mouse</text><line style="stroke: #A80036; stroke-width: 1.5;" x1="33.5" x2="104.5" y1="73" y2="73"/><line style="stroke: #A80036; stroke-width: 1.5;" x1="33.5" x2="104.5" y1="81" y2="81"/><!--MD5=[665658f2561a28beffd139015ba7f1fb]
class decorator.SportCar--><rect codeLine="12" fill="#FEFECE" filter="url(#f5p10fc5ry21o)" height="48" id="decorator.SportCar" style="stroke: #A80036; stroke-width: 1.5;" width="87" x="691.5" y="41"/><ellipse cx="706.5" cy="57" fill="#ADD1B2" rx="11" ry="11" style="stroke: #A80036; stroke-width: 1.0;"/><path d="M709.4688,62.6406 Q708.8906,62.9375 708.25,63.0781 Q707.6094,63.2344 706.9063,63.2344 Q704.4063,63.2344 703.0781,61.5938 Q701.7656,59.9375 701.7656,56.8125 Q701.7656,53.6875 703.0781,52.0313 Q704.4063,50.375 706.9063,50.375 Q707.6094,50.375 708.25,50.5313 Q708.9063,50.6875 709.4688,50.9844 L709.4688,53.7031 Q708.8438,53.125 708.25,52.8594 Q707.6563,52.5781 707.0313,52.5781 Q705.6875,52.5781 705,53.6563 Q704.3125,54.7188 704.3125,56.8125 Q704.3125,58.9063 705,59.9844 Q705.6875,61.0469 707.0313,61.0469 Q707.6563,61.0469 708.25,60.7813 Q708.8438,60.5 709.4688,59.9219 L709.4688,62.6406 Z "/><text fill="#000000" font-family="sans-serif" font-size="12" lengthAdjust="spacingAndGlyphs" textLength="55" x="720.5" y="61.1543">SportCar</text><line style="stroke: #A80036; stroke-width: 1.5;" x1="692.5" x2="777.5" y1="73" y2="73"/><line style="stroke: #A80036; stroke-width: 1.5;" x1="692.5" x2="777.5" y1="81" y2="81"/><!--MD5=[43a8226638e7205cb58fdbae0c436af9]
class decorator.Car--><rect codeLine="13" fill="#FEFECE" filter="url(#f5p10fc5ry21o)" height="48" id="decorator.Car" style="stroke: #A80036; stroke-width: 1.5;" width="53" x="641.5" y="257"/><ellipse cx="656.5" cy="273" fill="#B4A7E5" rx="11" ry="11" style="stroke: #A80036; stroke-width: 1.0;"/><path d="M652.4219,268.7656 L652.4219,266.6094 L659.8125,266.6094 L659.8125,268.7656 L657.3438,268.7656 L657.3438,276.8438 L659.8125,276.8438 L659.8125,279 L652.4219,279 L652.4219,276.8438 L654.8906,276.8438 L654.8906,268.7656 L652.4219,268.7656 Z "/><text fill="#000000" font-family="sans-serif" font-size="12" font-style="italic" lengthAdjust="spacingAndGlyphs" textLength="21" x="670.5" y="277.1543">Car</text><line style="stroke: #A80036; stroke-width: 1.5;" x1="642.5" x2="693.5" y1="289" y2="289"/><line style="stroke: #A80036; stroke-width: 1.5;" x1="642.5" x2="693.5" y1="297" y2="297"/><!--MD5=[3c78a2fa643d9223b1f8ad930e883961]
class java.lang.Override--><rect codeLine="2" fill="#FEFECE" filter="url(#f5p10fc5ry21o)" height="48" id="java.lang.Override" style="stroke: #A80036; stroke-width: 1.5;" width="84" x="835" y="257"/><ellipse cx="850" cy="273" fill="#E3664A" rx="11" ry="11" style="stroke: #A80036; stroke-width: 1.0;"/><path d="M852.0781,273.4688 Q852.0781,272.5313 851.6563,272 Q851.2344,271.4688 850.4844,271.4688 Q849.75,271.4688 849.3281,272 Q848.9219,272.5313 848.9219,273.4688 Q848.9219,274.4219 849.3281,274.9531 Q849.75,275.4844 850.4844,275.4844 Q851.2344,275.4844 851.6563,274.9531 Q852.0781,274.4219 852.0781,273.4688 Z M853.625,276.875 L852,276.875 L852,276.2031 Q851.6719,276.6406 851.25,276.8438 Q850.8281,277.0469 850.2188,277.0469 Q848.8594,277.0469 848.0313,276.0781 Q847.2031,275.0938 847.2031,273.4688 Q847.2031,271.875 848.0313,270.9063 Q848.8594,269.9219 850.2188,269.9219 Q850.8125,269.9219 851.2656,270.125 Q851.7188,270.3281 852,270.7188 L852,270.375 Q852,269.25 851.375,268.6406 Q850.75,268.0156 849.6094,268.0156 Q847.8906,268.0156 846.7969,269.5469 Q845.7031,271.0625 845.7031,273.5 Q845.7031,276.0469 846.9531,277.5469 Q848.2188,279.0469 850.3281,279.0469 Q850.9844,279.0469 851.6094,278.8594 Q852.2344,278.6719 852.8125,278.2813 L853.5781,279.7344 Q852.9063,280.1875 852.1094,280.4063 Q851.3125,280.6406 850.4063,280.6406 Q847.5,280.6406 845.7656,278.7031 Q844.0469,276.7813 844.0469,273.5 Q844.0469,270.2813 845.5938,268.3594 Q847.1563,266.4219 849.7188,266.4219 Q851.5156,266.4219 852.5625,267.5156 Q853.625,268.6094 853.625,270.4844 L853.625,276.875 Z "/><text fill="#000000" font-family="sans-serif" font-size="12" lengthAdjust="spacingAndGlyphs" textLength="52" x="864" y="277.1543">Override</text><line style="stroke: #A80036; stroke-width: 1.5;" x1="836" x2="918" y1="289" y2="289"/><line style="stroke: #A80036; stroke-width: 1.5;" x1="836" x2="918" y1="297" y2="297"/><!--MD5=[c3b55f623c1c01768788e2638960ad5c]
link decorator.Decorator to decorator.Computer--><path codeLine="14" d="M214,197 C214,208.59 214,223.03 214,236.6 " fill="none" id="decorator.Decorator-to-decorator.Computer" style="stroke: #A80036; stroke-width: 1.0;"/><polygon fill="none" points="221,236.68,214,256.68,207,236.68,221,236.68" style="stroke: #A80036; stroke-width: 1.0;"/><!--MD5=[9f8dad124aec4c42764d3202b8f711b7]
link decorator.BasicCar to java.lang.Override--><path codeLine="15" d="M770.96,197.01 C778.95,202.46 787.34,208.33 795,214 C811.92,226.51 830.22,241.13 845.22,253.42 " fill="none" id="decorator.BasicCar-to-java.lang.Override" style="stroke: #A80036; stroke-width: 1.0; stroke-dasharray: 7.0,7.0;"/><polygon fill="#A80036" points="849.36,256.82,844.9326,248.0224,845.4921,253.6515,839.863,254.211,849.36,256.82" style="stroke: #A80036; stroke-width: 1.0;"/><!--MD5=[6ceaa44579648e30e4a06812a7086c5e]
link decorator.BasicCar to decorator.Car--><path codeLine="16" d="M721.25,197 C713.28,209.42 703.21,225.11 693.98,239.49 " fill="none" id="decorator.BasicCar-to-decorator.Car" style="stroke: #A80036; stroke-width: 1.0;"/><polygon fill="none" points="699.65,243.62,682.96,256.68,687.87,236.06,699.65,243.62" style="stroke: #A80036; stroke-width: 1.0;"/><!--MD5=[2816b53851c820801cdf8b7ce1ad19ae]
link decorator.CD to decorator.Decorator--><path codeLine="17" d="M175.63,89 C181.18,101 188.14,116.06 194.61,130.05 " fill="none" id="decorator.CD-to-decorator.Decorator" style="stroke: #A80036; stroke-width: 1.0;"/><polygon fill="none" points="201.18,127.59,203.22,148.68,188.47,133.46,201.18,127.59" style="stroke: #A80036; stroke-width: 1.0;"/><!--MD5=[14a973e66aad8acfdbb178a23bfa6fa7]
link decorator.CarDecorator to java.lang.Override--><path codeLine="18" d="M658.27,192.61 C664.22,194.22 670.21,195.72 676,197 C728.16,208.55 746,192.71 795,214 C816.17,223.2 836.41,239.38 851.48,253.42 " fill="none" id="decorator.CarDecorator-to-java.lang.Override" style="stroke: #A80036; stroke-width: 1.0; stroke-dasharray: 7.0,7.0;"/><polygon fill="#A80036" points="855.2,256.94,851.3877,247.8589,851.559,253.5132,845.9047,253.6845,855.2,256.94" style="stroke: #A80036; stroke-width: 1.0;"/><!--MD5=[7434a0313489a6cd7cc321f1498189da]
link decorator.CarDecorator to decorator.Car--><path codeLine="19" d="M614.75,197 C622.72,209.42 632.79,225.11 642.02,239.49 " fill="none" id="decorator.CarDecorator-to-decorator.Car" style="stroke: #A80036; stroke-width: 1.0;"/><polygon fill="none" points="648.13,236.06,653.04,256.68,636.35,243.62,648.13,236.06" style="stroke: #A80036; stroke-width: 1.0;"/><!--MD5=[da68cef5fba141eaca7edd2c46655861]
link decorator.HD to decorator.Decorator--><path codeLine="20" d="M497.92,80.43 C492.13,83.48 485.93,86.51 480,89 C414.13,116.6 335.76,139.97 281.22,154.81 " fill="none" id="decorator.HD-to-decorator.Decorator" style="stroke: #A80036; stroke-width: 1.0;"/><polygon fill="none" points="282.69,161.67,261.56,160.07,279.07,148.14,282.69,161.67" style="stroke: #A80036; stroke-width: 1.0;"/><!--MD5=[b74b0980c8640621cb4d4f47b19c2b39]
link decorator.LuxCar to java.lang.Override--><path codeLine="21" d="M656.56,81.79 C705.03,102.93 785.78,138.95 797,149 C829.27,177.91 852.82,222.94 865.71,251.95 " fill="none" id="decorator.LuxCar-to-java.lang.Override" style="stroke: #A80036; stroke-width: 1.0; stroke-dasharray: 7.0,7.0;"/><polygon fill="#A80036" points="867.84,256.82,867.9085,246.9714,865.8412,252.2369,860.5756,250.1695,867.84,256.82" style="stroke: #A80036; stroke-width: 1.0;"/><!--MD5=[9da1894a78e2e83663565dff10bd937a]
link decorator.LuxCar to decorator.CarDecorator--><path codeLine="22" d="M615.66,89 C613.47,100.59 610.75,115.03 608.19,128.6 " fill="none" id="decorator.LuxCar-to-decorator.CarDecorator" style="stroke: #A80036; stroke-width: 1.0;"/><polygon fill="none" points="614.99,130.32,604.4,148.68,601.23,127.73,614.99,130.32" style="stroke: #A80036; stroke-width: 1.0;"/><!--MD5=[09550e38c01861f9772b97964d277b4a]
link decorator.Monitor to decorator.Decorator--><path codeLine="23" d="M253.15,89 C247.42,101.14 240.22,116.41 233.56,130.53 " fill="none" id="decorator.Monitor-to-decorator.Decorator" style="stroke: #A80036; stroke-width: 1.0;"/><polygon fill="none" points="239.86,133.58,225,148.68,227.2,127.6,239.86,133.58" style="stroke: #A80036; stroke-width: 1.0;"/><!--MD5=[f5f0a7d9a36b3a4c4ebdf3dccc1f49ef]
link decorator.Mouse to decorator.Decorator--><path codeLine="24" d="M100.46,89 C119.59,102.98 144.39,121.12 165.94,136.87 " fill="none" id="decorator.Mouse-to-decorator.Decorator" style="stroke: #A80036; stroke-width: 1.0;"/><polygon fill="none" points="170.33,131.41,182.35,148.86,162.07,142.71,170.33,131.41" style="stroke: #A80036; stroke-width: 1.0;"/><!--MD5=[668577521010ded7615068e548237b4f]
link decorator.SportCar to java.lang.Override--><path codeLine="25" d="M778.76,84.21 C806.07,97.92 839.44,119.44 858,149 C877.56,180.15 880.09,223.55 879.24,251.71 " fill="none" id="decorator.SportCar-to-java.lang.Override" style="stroke: #A80036; stroke-width: 1.0; stroke-dasharray: 7.0,7.0;"/><polygon fill="#A80036" points="879.04,256.78,883.3713,247.9347,879.2256,251.7834,875.3768,247.6377,879.04,256.78" style="stroke: #A80036; stroke-width: 1.0;"/><!--MD5=[1dc70c2510eaafd05976368f0049dc44]
link decorator.SportCar to decorator.CarDecorator--><path codeLine="26" d="M705.71,89 C688.14,102.8 665.42,120.63 645.55,136.24 " fill="none" id="decorator.SportCar-to-decorator.CarDecorator" style="stroke: #A80036; stroke-width: 1.0;"/><polygon fill="none" points="649.76,141.83,629.7,148.68,641.11,130.82,649.76,141.83" style="stroke: #A80036; stroke-width: 1.0;"/><!--MD5=[15c670103d9ccbc3e047d0ca71c75d90]
@startuml
abstract class decorator.Decorator
annotation java.lang.Override
class decorator.BasicCar
class decorator.CD
class decorator.CarDecorator
class decorator.Computer
class decorator.HD
class decorator.LuxCar
class decorator.MainDecorator
class decorator.Monitor
class decorator.Mouse
class decorator.SportCar
interface decorator.Car
decorator.Decorator - -|> decorator.Computer
decorator.BasicCar ..> java.lang.Override
decorator.BasicCar - -|> decorator.Car
decorator.CD - -|> decorator.Decorator
decorator.CarDecorator ..> java.lang.Override
decorator.CarDecorator - -|> decorator.Car
decorator.HD - -|> decorator.Decorator
decorator.LuxCar ..> java.lang.Override
decorator.LuxCar - -|> decorator.CarDecorator
decorator.Monitor - -|> decorator.Decorator
decorator.Mouse - -|> decorator.Decorator
decorator.SportCar ..> java.lang.Override
decorator.SportCar - -|> decorator.CarDecorator
@enduml

PlantUML version 1.2020.18(Wed Sep 30 22:40:44 EEST 2020)
(GPL source distribution)
Java Runtime: OpenJDK Runtime Environment
JVM: OpenJDK 64-Bit Server VM
Default Encoding: UTF-8
Language: en
Country: US
--></g></svg>