<?xml version="1.0" encoding="UTF-8" standalone="no"?><svg xmlns="http://www.w3.org/2000/svg" xmlns:xlink="http://www.w3.org/1999/xlink" contentScriptType="application/ecmascript" contentStyleType="text/css" height="220px" preserveAspectRatio="none" style="width:761px;height:220px;" version="1.1" viewBox="0 0 761 220" width="761px" zoomAndPan="magnify"><defs><filter height="300%" id="fub3xzcavb72q" width="300%" x="-1" y="-1"><feGaussianBlur result="blurOut" stdDeviation="2.0"/><feColorMatrix in="blurOut" result="blurOut2" type="matrix" values="0 0 0 0 0 0 0 0 0 0 0 0 0 0 0 0 0 0 .4 0"/><feOffset dx="4.0" dy="4.0" in="blurOut2" result="blurOut3"/><feBlend in="SourceGraphic" in2="blurOut3" mode="normal"/></filter></defs><g><!--MD5=[0e30bd1f5e523dc1c8b5a26d14040c15]
cluster com.company.command--><polygon fill="#FFFFFF" filter="url(#fub3xzcavb72q)" points="16,6,212,6,219,28.2969,744,28.2969,744,213,16,213,16,6" style="stroke: #000000; stroke-width: 1.5;"/><line style="stroke: #000000; stroke-width: 1.5;" x1="16" x2="219" y1="28.2969" y2="28.2969"/><text fill="#000000" font-family="sans-serif" font-size="14" font-weight="bold" lengthAdjust="spacingAndGlyphs" textLength="190" x="20" y="20.9951">com.company.command</text><!--MD5=[5fd6440b6da35dbc8de72ca7d13c446b]
class com.company.command.Executor--><rect codeLine="1" fill="#FEFECE" filter="url(#fub3xzcavb72q)" height="48" id="com.company.command.Executor" style="stroke: #A80036; stroke-width: 1.5;" width="87" x="378.5" y="41"/><ellipse cx="393.5" cy="57" fill="#ADD1B2" rx="11" ry="11" style="stroke: #A80036; stroke-width: 1.0;"/><path d="M396.4688,62.6406 Q395.8906,62.9375 395.25,63.0781 Q394.6094,63.2344 393.9063,63.2344 Q391.4063,63.2344 390.0781,61.5938 Q388.7656,59.9375 388.7656,56.8125 Q388.7656,53.6875 390.0781,52.0313 Q391.4063,50.375 393.9063,50.375 Q394.6094,50.375 395.25,50.5313 Q395.9063,50.6875 396.4688,50.9844 L396.4688,53.7031 Q395.8438,53.125 395.25,52.8594 Q394.6563,52.5781 394.0313,52.5781 Q392.6875,52.5781 392,53.6563 Q391.3125,54.7188 391.3125,56.8125 Q391.3125,58.9063 392,59.9844 Q392.6875,61.0469 394.0313,61.0469 Q394.6563,61.0469 395.25,60.7813 Q395.8438,60.5 396.4688,59.9219 L396.4688,62.6406 Z "/><text fill="#000000" font-family="sans-serif" font-size="12" lengthAdjust="spacingAndGlyphs" textLength="55" x="407.5" y="61.1543">Executor</text><line style="stroke: #A80036; stroke-width: 1.5;" x1="379.5" x2="464.5" y1="73" y2="73"/><line style="stroke: #A80036; stroke-width: 1.5;" x1="379.5" x2="464.5" y1="81" y2="81"/><!--MD5=[28000723da5bc5ddb80210d4098516d0]
class com.company.command.MediaPlayer--><rect codeLine="2" fill="#FEFECE" filter="url(#fub3xzcavb72q)" height="48" id="com.company.command.MediaPlayer" style="stroke: #A80036; stroke-width: 1.5;" width="107" x="500.5" y="41"/><ellipse cx="515.5" cy="57" fill="#ADD1B2" rx="11" ry="11" style="stroke: #A80036; stroke-width: 1.0;"/><path d="M518.4688,62.6406 Q517.8906,62.9375 517.25,63.0781 Q516.6094,63.2344 515.9063,63.2344 Q513.4063,63.2344 512.0781,61.5938 Q510.7656,59.9375 510.7656,56.8125 Q510.7656,53.6875 512.0781,52.0313 Q513.4063,50.375 515.9063,50.375 Q516.6094,50.375 517.25,50.5313 Q517.9063,50.6875 518.4688,50.9844 L518.4688,53.7031 Q517.8438,53.125 517.25,52.8594 Q516.6563,52.5781 516.0313,52.5781 Q514.6875,52.5781 514,53.6563 Q513.3125,54.7188 513.3125,56.8125 Q513.3125,58.9063 514,59.9844 Q514.6875,61.0469 516.0313,61.0469 Q516.6563,61.0469 517.25,60.7813 Q517.8438,60.5 518.4688,59.9219 L518.4688,62.6406 Z "/><text fill="#000000" font-family="sans-serif" font-size="12" lengthAdjust="spacingAndGlyphs" textLength="75" x="529.5" y="61.1543">MediaPlayer</text><line style="stroke: #A80036; stroke-width: 1.5;" x1="501.5" x2="606.5" y1="73" y2="73"/><line style="stroke: #A80036; stroke-width: 1.5;" x1="501.5" x2="606.5" y1="81" y2="81"/><!--MD5=[36e711e2822f7bdfb014b0e3afa95b56]
class com.company.command.Receiver--><rect codeLine="3" fill="#FEFECE" filter="url(#fub3xzcavb72q)" height="48" id="com.company.command.Receiver" style="stroke: #A80036; stroke-width: 1.5;" width="85" x="642.5" y="41"/><ellipse cx="657.5" cy="57" fill="#ADD1B2" rx="11" ry="11" style="stroke: #A80036; stroke-width: 1.0;"/><path d="M660.4688,62.6406 Q659.8906,62.9375 659.25,63.0781 Q658.6094,63.2344 657.9063,63.2344 Q655.4063,63.2344 654.0781,61.5938 Q652.7656,59.9375 652.7656,56.8125 Q652.7656,53.6875 654.0781,52.0313 Q655.4063,50.375 657.9063,50.375 Q658.6094,50.375 659.25,50.5313 Q659.9063,50.6875 660.4688,50.9844 L660.4688,53.7031 Q659.8438,53.125 659.25,52.8594 Q658.6563,52.5781 658.0313,52.5781 Q656.6875,52.5781 656,53.6563 Q655.3125,54.7188 655.3125,56.8125 Q655.3125,58.9063 656,59.9844 Q656.6875,61.0469 658.0313,61.0469 Q658.6563,61.0469 659.25,60.7813 Q659.8438,60.5 660.4688,59.9219 L660.4688,62.6406 Z "/><text fill="#000000" font-family="sans-serif" font-size="12" lengthAdjust="spacingAndGlyphs" textLength="53" x="671.5" y="61.1543">Receiver</text><line style="stroke: #A80036; stroke-width: 1.5;" x1="643.5" x2="726.5" y1="73" y2="73"/><line style="stroke: #A80036; stroke-width: 1.5;" x1="643.5" x2="726.5" y1="81" y2="81"/><!--MD5=[49907ac0d08588c7fc2f872c6d85f0fb]
class com.company.command.RemoteControl--><rect codeLine="4" fill="#FEFECE" filter="url(#fub3xzcavb72q)" height="48" id="com.company.command.RemoteControl" style="stroke: #A80036; stroke-width: 1.5;" width="125" x="359.5" y="149"/><ellipse cx="374.5" cy="165" fill="#ADD1B2" rx="11" ry="11" style="stroke: #A80036; stroke-width: 1.0;"/><path d="M377.4688,170.6406 Q376.8906,170.9375 376.25,171.0781 Q375.6094,171.2344 374.9063,171.2344 Q372.4063,171.2344 371.0781,169.5938 Q369.7656,167.9375 369.7656,164.8125 Q369.7656,161.6875 371.0781,160.0313 Q372.4063,158.375 374.9063,158.375 Q375.6094,158.375 376.25,158.5313 Q376.9063,158.6875 377.4688,158.9844 L377.4688,161.7031 Q376.8438,161.125 376.25,160.8594 Q375.6563,160.5781 375.0313,160.5781 Q373.6875,160.5781 373,161.6563 Q372.3125,162.7188 372.3125,164.8125 Q372.3125,166.9063 373,167.9844 Q373.6875,169.0469 375.0313,169.0469 Q375.6563,169.0469 376.25,168.7813 Q376.8438,168.5 377.4688,167.9219 L377.4688,170.6406 Z "/><text fill="#000000" font-family="sans-serif" font-size="12" lengthAdjust="spacingAndGlyphs" textLength="93" x="388.5" y="169.1543">RemoteControl</text><line style="stroke: #A80036; stroke-width: 1.5;" x1="360.5" x2="483.5" y1="181" y2="181"/><line style="stroke: #A80036; stroke-width: 1.5;" x1="360.5" x2="483.5" y1="189" y2="189"/><!--MD5=[7fb3af867e23b673b98de24508a359ec]
class com.company.command.Television--><rect codeLine="5" fill="#FEFECE" filter="url(#fub3xzcavb72q)" height="48" id="com.company.command.Television" style="stroke: #A80036; stroke-width: 1.5;" width="93" x="519.5" y="149"/><ellipse cx="534.5" cy="165" fill="#ADD1B2" rx="11" ry="11" style="stroke: #A80036; stroke-width: 1.0;"/><path d="M537.4688,170.6406 Q536.8906,170.9375 536.25,171.0781 Q535.6094,171.2344 534.9063,171.2344 Q532.4063,171.2344 531.0781,169.5938 Q529.7656,167.9375 529.7656,164.8125 Q529.7656,161.6875 531.0781,160.0313 Q532.4063,158.375 534.9063,158.375 Q535.6094,158.375 536.25,158.5313 Q536.9063,158.6875 537.4688,158.9844 L537.4688,161.7031 Q536.8438,161.125 536.25,160.8594 Q535.6563,160.5781 535.0313,160.5781 Q533.6875,160.5781 533,161.6563 Q532.3125,162.7188 532.3125,164.8125 Q532.3125,166.9063 533,167.9844 Q533.6875,169.0469 535.0313,169.0469 Q535.6563,169.0469 536.25,168.7813 Q536.8438,168.5 537.4688,167.9219 L537.4688,170.6406 Z "/><text fill="#000000" font-family="sans-serif" font-size="12" lengthAdjust="spacingAndGlyphs" textLength="61" x="548.5" y="169.1543">Television</text><line style="stroke: #A80036; stroke-width: 1.5;" x1="520.5" x2="611.5" y1="181" y2="181"/><line style="stroke: #A80036; stroke-width: 1.5;" x1="520.5" x2="611.5" y1="189" y2="189"/><!--MD5=[779bcf415bacaa270e98c50904ba5d5d]
class com.company.command.TurnOffTelevision--><rect codeLine="6" fill="#FEFECE" filter="url(#fub3xzcavb72q)" height="48" id="com.company.command.TurnOffTelevision" style="stroke: #A80036; stroke-width: 1.5;" width="138" x="205" y="41"/><ellipse cx="220" cy="57" fill="#ADD1B2" rx="11" ry="11" style="stroke: #A80036; stroke-width: 1.0;"/><path d="M222.9688,62.6406 Q222.3906,62.9375 221.75,63.0781 Q221.1094,63.2344 220.4063,63.2344 Q217.9063,63.2344 216.5781,61.5938 Q215.2656,59.9375 215.2656,56.8125 Q215.2656,53.6875 216.5781,52.0313 Q217.9063,50.375 220.4063,50.375 Q221.1094,50.375 221.75,50.5313 Q222.4063,50.6875 222.9688,50.9844 L222.9688,53.7031 Q222.3438,53.125 221.75,52.8594 Q221.1563,52.5781 220.5313,52.5781 Q219.1875,52.5781 218.5,53.6563 Q217.8125,54.7188 217.8125,56.8125 Q217.8125,58.9063 218.5,59.9844 Q219.1875,61.0469 220.5313,61.0469 Q221.1563,61.0469 221.75,60.7813 Q222.3438,60.5 222.9688,59.9219 L222.9688,62.6406 Z "/><text fill="#000000" font-family="sans-serif" font-size="12" lengthAdjust="spacingAndGlyphs" textLength="106" x="234" y="61.1543">TurnOffTelevision</text><line style="stroke: #A80036; stroke-width: 1.5;" x1="206" x2="342" y1="73" y2="73"/><line style="stroke: #A80036; stroke-width: 1.5;" x1="206" x2="342" y1="81" y2="81"/><!--MD5=[b226368840e2631d431e4beebfb23fc5]
class com.company.command.TurnOnTelevision--><rect codeLine="7" fill="#FEFECE" filter="url(#fub3xzcavb72q)" height="48" id="com.company.command.TurnOnTelevision" style="stroke: #A80036; stroke-width: 1.5;" width="138" x="32" y="41"/><ellipse cx="47" cy="57" fill="#ADD1B2" rx="11" ry="11" style="stroke: #A80036; stroke-width: 1.0;"/><path d="M49.9688,62.6406 Q49.3906,62.9375 48.75,63.0781 Q48.1094,63.2344 47.4063,63.2344 Q44.9063,63.2344 43.5781,61.5938 Q42.2656,59.9375 42.2656,56.8125 Q42.2656,53.6875 43.5781,52.0313 Q44.9063,50.375 47.4063,50.375 Q48.1094,50.375 48.75,50.5313 Q49.4063,50.6875 49.9688,50.9844 L49.9688,53.7031 Q49.3438,53.125 48.75,52.8594 Q48.1563,52.5781 47.5313,52.5781 Q46.1875,52.5781 45.5,53.6563 Q44.8125,54.7188 44.8125,56.8125 Q44.8125,58.9063 45.5,59.9844 Q46.1875,61.0469 47.5313,61.0469 Q48.1563,61.0469 48.75,60.7813 Q49.3438,60.5 49.9688,59.9219 L49.9688,62.6406 Z "/><text fill="#000000" font-family="sans-serif" font-size="12" lengthAdjust="spacingAndGlyphs" textLength="106" x="61" y="61.1543">TurnOnTelevision</text><line style="stroke: #A80036; stroke-width: 1.5;" x1="33" x2="169" y1="73" y2="73"/><line style="stroke: #A80036; stroke-width: 1.5;" x1="33" x2="169" y1="81" y2="81"/><!--MD5=[dd0dd9ce53e86c5d0f1645d43aa6939e]
class com.company.command.Command--><rect codeLine="8" fill="#FEFECE" filter="url(#fub3xzcavb72q)" height="48" id="com.company.command.Command" style="stroke: #A80036; stroke-width: 1.5;" width="94" x="140" y="149"/><ellipse cx="155" cy="165" fill="#B4A7E5" rx="11" ry="11" style="stroke: #A80036; stroke-width: 1.0;"/><path d="M150.9219,160.7656 L150.9219,158.6094 L158.3125,158.6094 L158.3125,160.7656 L155.8438,160.7656 L155.8438,168.8438 L158.3125,168.8438 L158.3125,171 L150.9219,171 L150.9219,168.8438 L153.3906,168.8438 L153.3906,160.7656 L150.9219,160.7656 Z "/><text fill="#000000" font-family="sans-serif" font-size="12" font-style="italic" lengthAdjust="spacingAndGlyphs" textLength="62" x="169" y="169.1543">Command</text><line style="stroke: #A80036; stroke-width: 1.5;" x1="141" x2="233" y1="181" y2="181"/><line style="stroke: #A80036; stroke-width: 1.5;" x1="141" x2="233" y1="189" y2="189"/><!--MD5=[b0e17c278a1fa790766b79e7dc3d4092]
link com.company.command.TurnOffTelevision to com.company.command.Command--><path codeLine="9" d="M255.12,89 C244.59,101.83 231.19,118.16 219.07,132.93 " fill="none" id="com.company.command.TurnOffTelevision-to-com.company.command.Command" style="stroke: #A80036; stroke-width: 1.0;"/><polygon fill="none" points="224.24,137.66,206.14,148.68,213.42,128.78,224.24,137.66" style="stroke: #A80036; stroke-width: 1.0;"/><!--MD5=[b0536e9f70843f6b319d469425dd6bd3]
link com.company.command.TurnOnTelevision to com.company.command.Command--><path codeLine="10" d="M119.66,89 C130.07,101.83 143.32,118.16 155.3,132.93 " fill="none" id="com.company.command.TurnOnTelevision-to-com.company.command.Command" style="stroke: #A80036; stroke-width: 1.0;"/><polygon fill="none" points="160.91,128.74,168.08,148.68,150.04,137.56,160.91,128.74" style="stroke: #A80036; stroke-width: 1.0;"/><!--MD5=[8e547a5f1f1765ec992f8811d7832ed6]
link com.company.command.Executor to com.company.command.MediaPlayer--><!--MD5=[7ff7ff3b3b33a2130f29a73ecf0cfc8c]
link com.company.command.MediaPlayer to com.company.command.Receiver--><!--MD5=[9dc38c408a228e9352b26d2e831527eb]
link com.company.command.Executor to com.company.command.RemoteControl--><!--MD5=[9d8f3651290cda5298f7151835533e3c]
link com.company.command.RemoteControl to com.company.command.Television--><!--MD5=[4c0b03305144a7e330a850579940977c]
@startuml
class com.company.command.Executor
class com.company.command.MediaPlayer
class com.company.command.Receiver
class com.company.command.RemoteControl
class com.company.command.Television
class com.company.command.TurnOffTelevision
class com.company.command.TurnOnTelevision
interface com.company.command.Command
com.company.command.TurnOffTelevision - -|> com.company.command.Command
com.company.command.TurnOnTelevision - -|> com.company.command.Command
@enduml

PlantUML version 1.2020.18(Wed Sep 30 22:40:44 EEST 2020)
(GPL source distribution)
Java Runtime: OpenJDK Runtime Environment
JVM: OpenJDK 64-Bit Server VM
Default Encoding: UTF-8
Language: en
Country: US
--></g></svg>