<?xml version="1.0" encoding="UTF-8" standalone="no"?><svg xmlns="http://www.w3.org/2000/svg" xmlns:xlink="http://www.w3.org/1999/xlink" contentScriptType="application/ecmascript" contentStyleType="text/css" height="219px" preserveAspectRatio="none" style="width:1352px;height:219px;" version="1.1" viewBox="0 0 1352 219" width="1352px" zoomAndPan="magnify"><defs><filter height="300%" id="fxynqll2229j3" width="300%" x="-1" y="-1"><feGaussianBlur result="blurOut" stdDeviation="2.0"/><feColorMatrix in="blurOut" result="blurOut2" type="matrix" values="0 0 0 0 0 0 0 0 0 0 0 0 0 0 0 0 0 0 .4 0"/><feOffset dx="4.0" dy="4.0" in="blurOut2" result="blurOut3"/><feBlend in="SourceGraphic" in2="blurOut3" mode="normal"/></filter></defs><g><!--cluster java.awt--><polygon fill="#FFFFFF" filter="url(#fxynqll2229j3)" points="1128,124,1199,124,1206,146.2969,1209,146.2969,1209,207,1128,207,1128,124" style="stroke: #000000; stroke-width: 1.5;"/><line style="stroke: #000000; stroke-width: 1.5;" x1="1128" x2="1206" y1="146.2969" y2="146.2969"/><text fill="#000000" font-family="sans-serif" font-size="14" font-weight="bold" lengthAdjust="spacingAndGlyphs" textLength="65" x="1132" y="138.9951">java.awt</text><!--cluster java.util--><polygon fill="#FFFFFF" filter="url(#fxynqll2229j3)" points="182,124,248,124,255,146.2969,1110,146.2969,1110,207,182,207,182,124" style="stroke: #000000; stroke-width: 1.5;"/><line style="stroke: #000000; stroke-width: 1.5;" x1="182" x2="255" y1="146.2969" y2="146.2969"/><text fill="#000000" font-family="sans-serif" font-size="14" font-weight="bold" lengthAdjust="spacingAndGlyphs" textLength="60" x="186" y="138.9951">java.util</text><!--cluster javax.swing--><polygon fill="#FFFFFF" filter="url(#fxynqll2229j3)" points="1222,124,1320,124,1327,146.2969,1330,146.2969,1330,207,1222,207,1222,124" style="stroke: #000000; stroke-width: 1.5;"/><line style="stroke: #000000; stroke-width: 1.5;" x1="1222" x2="1327" y1="146.2969" y2="146.2969"/><text fill="#000000" font-family="sans-serif" font-size="14" font-weight="bold" lengthAdjust="spacingAndGlyphs" textLength="92" x="1226" y="138.9951">javax.swing</text><!--cluster mySort--><polygon fill="#FFFFFF" filter="url(#fxynqll2229j3)" points="38,16,100,16,107,38.2969,745,38.2969,745,99,38,99,38,16" style="stroke: #000000; stroke-width: 1.5;"/><line style="stroke: #000000; stroke-width: 1.5;" x1="38" x2="107" y1="38.2969" y2="38.2969"/><text fill="#000000" font-family="sans-serif" font-size="14" font-weight="bold" lengthAdjust="spacingAndGlyphs" textLength="56" x="42" y="30.9951">mySort</text><!--cluster java.lang--><polygon fill="#FFFFFF" filter="url(#fxynqll2229j3)" points="14,124,89,124,96,146.2969,136,146.2969,136,207,14,207,14,124" style="stroke: #000000; stroke-width: 1.5;"/><line style="stroke: #000000; stroke-width: 1.5;" x1="14" x2="96" y1="146.2969" y2="146.2969"/><text fill="#000000" font-family="sans-serif" font-size="14" font-weight="bold" lengthAdjust="spacingAndGlyphs" textLength="69" x="18" y="138.9951">java.lang</text><!--class java.awt.Color--><rect fill="#FEFECE" filter="url(#fxynqll2229j3)" height="48" id="java.awt.Color" style="stroke: #A80036; stroke-width: 1.5;" width="64" x="1137" y="151"/><ellipse cx="1152" cy="167" fill="#ADD1B2" rx="11" ry="11" style="stroke: #A80036; stroke-width: 1.0;"/><path d="M1154.9688,172.6406 Q1154.3906,172.9375 1153.75,173.0781 Q1153.1094,173.2344 1152.4063,173.2344 Q1149.9063,173.2344 1148.5781,171.5938 Q1147.2656,169.9375 1147.2656,166.8125 Q1147.2656,163.6875 1148.5781,162.0313 Q1149.9063,160.375 1152.4063,160.375 Q1153.1094,160.375 1153.75,160.5313 Q1154.4063,160.6875 1154.9688,160.9844 L1154.9688,163.7031 Q1154.3438,163.125 1153.75,162.8594 Q1153.1563,162.5781 1152.5313,162.5781 Q1151.1875,162.5781 1150.5,163.6563 Q1149.8125,164.7188 1149.8125,166.8125 Q1149.8125,168.9063 1150.5,169.9844 Q1151.1875,171.0469 1152.5313,171.0469 Q1153.1563,171.0469 1153.75,170.7813 Q1154.3438,170.5 1154.9688,169.9219 L1154.9688,172.6406 Z "/><text fill="#000000" font-family="sans-serif" font-size="12" lengthAdjust="spacingAndGlyphs" textLength="32" x="1166" y="171.1543">Color</text><line style="stroke: #A80036; stroke-width: 1.5;" x1="1138" x2="1200" y1="183" y2="183"/><line style="stroke: #A80036; stroke-width: 1.5;" x1="1138" x2="1200" y1="191" y2="191"/><!--class java.util.ArrayList--><rect fill="#FEFECE" filter="url(#fxynqll2229j3)" height="48" id="java.util.ArrayList" style="stroke: #A80036; stroke-width: 1.5;" width="85" x="439.5" y="151"/><ellipse cx="454.5" cy="167" fill="#ADD1B2" rx="11" ry="11" style="stroke: #A80036; stroke-width: 1.0;"/><path d="M457.4688,172.6406 Q456.8906,172.9375 456.25,173.0781 Q455.6094,173.2344 454.9063,173.2344 Q452.4063,173.2344 451.0781,171.5938 Q449.7656,169.9375 449.7656,166.8125 Q449.7656,163.6875 451.0781,162.0313 Q452.4063,160.375 454.9063,160.375 Q455.6094,160.375 456.25,160.5313 Q456.9063,160.6875 457.4688,160.9844 L457.4688,163.7031 Q456.8438,163.125 456.25,162.8594 Q455.6563,162.5781 455.0313,162.5781 Q453.6875,162.5781 453,163.6563 Q452.3125,164.7188 452.3125,166.8125 Q452.3125,168.9063 453,169.9844 Q453.6875,171.0469 455.0313,171.0469 Q455.6563,171.0469 456.25,170.7813 Q456.8438,170.5 457.4688,169.9219 L457.4688,172.6406 Z "/><text fill="#000000" font-family="sans-serif" font-size="12" lengthAdjust="spacingAndGlyphs" textLength="53" x="468.5" y="171.1543">ArrayList</text><line style="stroke: #A80036; stroke-width: 1.5;" x1="440.5" x2="523.5" y1="183" y2="183"/><line style="stroke: #A80036; stroke-width: 1.5;" x1="440.5" x2="523.5" y1="191" y2="191"/><!--class java.util.Arrays--><rect fill="#FEFECE" filter="url(#fxynqll2229j3)" height="48" id="java.util.Arrays" style="stroke: #A80036; stroke-width: 1.5;" width="71" x="911.5" y="151"/><ellipse cx="926.5" cy="167" fill="#ADD1B2" rx="11" ry="11" style="stroke: #A80036; stroke-width: 1.0;"/><path d="M929.4688,172.6406 Q928.8906,172.9375 928.25,173.0781 Q927.6094,173.2344 926.9063,173.2344 Q924.4063,173.2344 923.0781,171.5938 Q921.7656,169.9375 921.7656,166.8125 Q921.7656,163.6875 923.0781,162.0313 Q924.4063,160.375 926.9063,160.375 Q927.6094,160.375 928.25,160.5313 Q928.9063,160.6875 929.4688,160.9844 L929.4688,163.7031 Q928.8438,163.125 928.25,162.8594 Q927.6563,162.5781 927.0313,162.5781 Q925.6875,162.5781 925,163.6563 Q924.3125,164.7188 924.3125,166.8125 Q924.3125,168.9063 925,169.9844 Q925.6875,171.0469 927.0313,171.0469 Q927.6563,171.0469 928.25,170.7813 Q928.8438,170.5 929.4688,169.9219 L929.4688,172.6406 Z "/><text fill="#000000" font-family="sans-serif" font-size="12" lengthAdjust="spacingAndGlyphs" textLength="39" x="940.5" y="171.1543">Arrays</text><line style="stroke: #A80036; stroke-width: 1.5;" x1="912.5" x2="981.5" y1="183" y2="183"/><line style="stroke: #A80036; stroke-width: 1.5;" x1="912.5" x2="981.5" y1="191" y2="191"/><!--class java.util.Collections--><rect fill="#FEFECE" filter="url(#fxynqll2229j3)" height="48" id="java.util.Collections" style="stroke: #A80036; stroke-width: 1.5;" width="100" x="776" y="151"/><ellipse cx="791" cy="167" fill="#ADD1B2" rx="11" ry="11" style="stroke: #A80036; stroke-width: 1.0;"/><path d="M793.9688,172.6406 Q793.3906,172.9375 792.75,173.0781 Q792.1094,173.2344 791.4063,173.2344 Q788.9063,173.2344 787.5781,171.5938 Q786.2656,169.9375 786.2656,166.8125 Q786.2656,163.6875 787.5781,162.0313 Q788.9063,160.375 791.4063,160.375 Q792.1094,160.375 792.75,160.5313 Q793.4063,160.6875 793.9688,160.9844 L793.9688,163.7031 Q793.3438,163.125 792.75,162.8594 Q792.1563,162.5781 791.5313,162.5781 Q790.1875,162.5781 789.5,163.6563 Q788.8125,164.7188 788.8125,166.8125 Q788.8125,168.9063 789.5,169.9844 Q790.1875,171.0469 791.5313,171.0469 Q792.1563,171.0469 792.75,170.7813 Q793.3438,170.5 793.9688,169.9219 L793.9688,172.6406 Z "/><text fill="#000000" font-family="sans-serif" font-size="12" lengthAdjust="spacingAndGlyphs" textLength="68" x="805" y="171.1543">Collections</text><line style="stroke: #A80036; stroke-width: 1.5;" x1="777" x2="875" y1="183" y2="183"/><line style="stroke: #A80036; stroke-width: 1.5;" x1="777" x2="875" y1="191" y2="191"/><!--class java.util.LinkedList--><rect fill="#FEFECE" filter="url(#fxynqll2229j3)" height="48" id="java.util.LinkedList" style="stroke: #A80036; stroke-width: 1.5;" width="93" x="647.5" y="151"/><ellipse cx="662.5" cy="167" fill="#ADD1B2" rx="11" ry="11" style="stroke: #A80036; stroke-width: 1.0;"/><path d="M665.4688,172.6406 Q664.8906,172.9375 664.25,173.0781 Q663.6094,173.2344 662.9063,173.2344 Q660.4063,173.2344 659.0781,171.5938 Q657.7656,169.9375 657.7656,166.8125 Q657.7656,163.6875 659.0781,162.0313 Q660.4063,160.375 662.9063,160.375 Q663.6094,160.375 664.25,160.5313 Q664.9063,160.6875 665.4688,160.9844 L665.4688,163.7031 Q664.8438,163.125 664.25,162.8594 Q663.6563,162.5781 663.0313,162.5781 Q661.6875,162.5781 661,163.6563 Q660.3125,164.7188 660.3125,166.8125 Q660.3125,168.9063 661,169.9844 Q661.6875,171.0469 663.0313,171.0469 Q663.6563,171.0469 664.25,170.7813 Q664.8438,170.5 665.4688,169.9219 L665.4688,172.6406 Z "/><text fill="#000000" font-family="sans-serif" font-size="12" lengthAdjust="spacingAndGlyphs" textLength="61" x="676.5" y="171.1543">LinkedList</text><line style="stroke: #A80036; stroke-width: 1.5;" x1="648.5" x2="739.5" y1="183" y2="183"/><line style="stroke: #A80036; stroke-width: 1.5;" x1="648.5" x2="739.5" y1="191" y2="191"/><!--class java.util.List--><rect fill="#FEFECE" filter="url(#fxynqll2229j3)" height="48" id="java.util.List" style="stroke: #A80036; stroke-width: 1.5;" width="53" x="559.5" y="151"/><ellipse cx="574.5" cy="167" fill="#ADD1B2" rx="11" ry="11" style="stroke: #A80036; stroke-width: 1.0;"/><path d="M577.4688,172.6406 Q576.8906,172.9375 576.25,173.0781 Q575.6094,173.2344 574.9063,173.2344 Q572.4063,173.2344 571.0781,171.5938 Q569.7656,169.9375 569.7656,166.8125 Q569.7656,163.6875 571.0781,162.0313 Q572.4063,160.375 574.9063,160.375 Q575.6094,160.375 576.25,160.5313 Q576.9063,160.6875 577.4688,160.9844 L577.4688,163.7031 Q576.8438,163.125 576.25,162.8594 Q575.6563,162.5781 575.0313,162.5781 Q573.6875,162.5781 573,163.6563 Q572.3125,164.7188 572.3125,166.8125 Q572.3125,168.9063 573,169.9844 Q573.6875,171.0469 575.0313,171.0469 Q575.6563,171.0469 576.25,170.7813 Q576.8438,170.5 577.4688,169.9219 L577.4688,172.6406 Z "/><text fill="#000000" font-family="sans-serif" font-size="12" lengthAdjust="spacingAndGlyphs" textLength="21" x="588.5" y="171.1543">List</text><line style="stroke: #A80036; stroke-width: 1.5;" x1="560.5" x2="611.5" y1="183" y2="183"/><line style="stroke: #A80036; stroke-width: 1.5;" x1="560.5" x2="611.5" y1="191" y2="191"/><!--class java.util.Scanner--><rect fill="#FEFECE" filter="url(#fxynqll2229j3)" height="48" id="java.util.Scanner" style="stroke: #A80036; stroke-width: 1.5;" width="84" x="1018" y="151"/><ellipse cx="1033" cy="167" fill="#ADD1B2" rx="11" ry="11" style="stroke: #A80036; stroke-width: 1.0;"/><path d="M1035.9688,172.6406 Q1035.3906,172.9375 1034.75,173.0781 Q1034.1094,173.2344 1033.4063,173.2344 Q1030.9063,173.2344 1029.5781,171.5938 Q1028.2656,169.9375 1028.2656,166.8125 Q1028.2656,163.6875 1029.5781,162.0313 Q1030.9063,160.375 1033.4063,160.375 Q1034.1094,160.375 1034.75,160.5313 Q1035.4063,160.6875 1035.9688,160.9844 L1035.9688,163.7031 Q1035.3438,163.125 1034.75,162.8594 Q1034.1563,162.5781 1033.5313,162.5781 Q1032.1875,162.5781 1031.5,163.6563 Q1030.8125,164.7188 1030.8125,166.8125 Q1030.8125,168.9063 1031.5,169.9844 Q1032.1875,171.0469 1033.5313,171.0469 Q1034.1563,171.0469 1034.75,170.7813 Q1035.3438,170.5 1035.9688,169.9219 L1035.9688,172.6406 Z "/><text fill="#000000" font-family="sans-serif" font-size="12" lengthAdjust="spacingAndGlyphs" textLength="52" x="1047" y="171.1543">Scanner</text><line style="stroke: #A80036; stroke-width: 1.5;" x1="1019" x2="1101" y1="183" y2="183"/><line style="stroke: #A80036; stroke-width: 1.5;" x1="1019" x2="1101" y1="191" y2="191"/><!--class java.util.Vector--><rect fill="#FEFECE" filter="url(#fxynqll2229j3)" height="48" id="java.util.Vector" style="stroke: #A80036; stroke-width: 1.5;" width="73" x="331.5" y="151"/><ellipse cx="346.5" cy="167" fill="#ADD1B2" rx="11" ry="11" style="stroke: #A80036; stroke-width: 1.0;"/><path d="M349.4688,172.6406 Q348.8906,172.9375 348.25,173.0781 Q347.6094,173.2344 346.9063,173.2344 Q344.4063,173.2344 343.0781,171.5938 Q341.7656,169.9375 341.7656,166.8125 Q341.7656,163.6875 343.0781,162.0313 Q344.4063,160.375 346.9063,160.375 Q347.6094,160.375 348.25,160.5313 Q348.9063,160.6875 349.4688,160.9844 L349.4688,163.7031 Q348.8438,163.125 348.25,162.8594 Q347.6563,162.5781 347.0313,162.5781 Q345.6875,162.5781 345,163.6563 Q344.3125,164.7188 344.3125,166.8125 Q344.3125,168.9063 345,169.9844 Q345.6875,171.0469 347.0313,171.0469 Q347.6563,171.0469 348.25,170.7813 Q348.8438,170.5 349.4688,169.9219 L349.4688,172.6406 Z "/><text fill="#000000" font-family="sans-serif" font-size="12" lengthAdjust="spacingAndGlyphs" textLength="41" x="360.5" y="171.1543">Vector</text><line style="stroke: #A80036; stroke-width: 1.5;" x1="332.5" x2="403.5" y1="183" y2="183"/><line style="stroke: #A80036; stroke-width: 1.5;" x1="332.5" x2="403.5" y1="191" y2="191"/><!--class java.util.Comparator--><rect fill="#FEFECE" filter="url(#fxynqll2229j3)" height="48" id="java.util.Comparator" style="stroke: #A80036; stroke-width: 1.5;" width="106" x="190" y="151"/><ellipse cx="205" cy="167" fill="#B4A7E5" rx="11" ry="11" style="stroke: #A80036; stroke-width: 1.0;"/><path d="M200.9219,162.7656 L200.9219,160.6094 L208.3125,160.6094 L208.3125,162.7656 L205.8438,162.7656 L205.8438,170.8438 L208.3125,170.8438 L208.3125,173 L200.9219,173 L200.9219,170.8438 L203.3906,170.8438 L203.3906,162.7656 L200.9219,162.7656 Z "/><text fill="#000000" font-family="sans-serif" font-size="12" font-style="italic" lengthAdjust="spacingAndGlyphs" textLength="74" x="219" y="171.1543">Comparator</text><line style="stroke: #A80036; stroke-width: 1.5;" x1="191" x2="295" y1="183" y2="183"/><line style="stroke: #A80036; stroke-width: 1.5;" x1="191" x2="295" y1="191" y2="191"/><!--class javax.swing.JFrame--><rect fill="#FEFECE" filter="url(#fxynqll2229j3)" height="48" id="javax.swing.JFrame" style="stroke: #A80036; stroke-width: 1.5;" width="74" x="1236" y="151"/><ellipse cx="1251" cy="167" fill="#ADD1B2" rx="11" ry="11" style="stroke: #A80036; stroke-width: 1.0;"/><path d="M1253.9688,172.6406 Q1253.3906,172.9375 1252.75,173.0781 Q1252.1094,173.2344 1251.4063,173.2344 Q1248.9063,173.2344 1247.5781,171.5938 Q1246.2656,169.9375 1246.2656,166.8125 Q1246.2656,163.6875 1247.5781,162.0313 Q1248.9063,160.375 1251.4063,160.375 Q1252.1094,160.375 1252.75,160.5313 Q1253.4063,160.6875 1253.9688,160.9844 L1253.9688,163.7031 Q1253.3438,163.125 1252.75,162.8594 Q1252.1563,162.5781 1251.5313,162.5781 Q1250.1875,162.5781 1249.5,163.6563 Q1248.8125,164.7188 1248.8125,166.8125 Q1248.8125,168.9063 1249.5,169.9844 Q1250.1875,171.0469 1251.5313,171.0469 Q1252.1563,171.0469 1252.75,170.7813 Q1253.3438,170.5 1253.9688,169.9219 L1253.9688,172.6406 Z "/><text fill="#000000" font-family="sans-serif" font-size="12" lengthAdjust="spacingAndGlyphs" textLength="42" x="1265" y="171.1543">JFrame</text><line style="stroke: #A80036; stroke-width: 1.5;" x1="1237" x2="1309" y1="183" y2="183"/><line style="stroke: #A80036; stroke-width: 1.5;" x1="1237" x2="1309" y1="191" y2="191"/><!--class mySort.DVD--><rect fill="#FEFECE" filter="url(#fxynqll2229j3)" height="48" id="mySort.DVD" style="stroke: #A80036; stroke-width: 1.5;" width="58" x="46" y="43"/><ellipse cx="61" cy="59" fill="#ADD1B2" rx="11" ry="11" style="stroke: #A80036; stroke-width: 1.0;"/><path d="M63.9688,64.6406 Q63.3906,64.9375 62.75,65.0781 Q62.1094,65.2344 61.4063,65.2344 Q58.9063,65.2344 57.5781,63.5938 Q56.2656,61.9375 56.2656,58.8125 Q56.2656,55.6875 57.5781,54.0313 Q58.9063,52.375 61.4063,52.375 Q62.1094,52.375 62.75,52.5313 Q63.4063,52.6875 63.9688,52.9844 L63.9688,55.7031 Q63.3438,55.125 62.75,54.8594 Q62.1563,54.5781 61.5313,54.5781 Q60.1875,54.5781 59.5,55.6563 Q58.8125,56.7188 58.8125,58.8125 Q58.8125,60.9063 59.5,61.9844 Q60.1875,63.0469 61.5313,63.0469 Q62.1563,63.0469 62.75,62.7813 Q63.3438,62.5 63.9688,61.9219 L63.9688,64.6406 Z "/><text fill="#000000" font-family="sans-serif" font-size="12" lengthAdjust="spacingAndGlyphs" textLength="26" x="75" y="63.1543">DVD</text><line style="stroke: #A80036; stroke-width: 1.5;" x1="47" x2="103" y1="75" y2="75"/><line style="stroke: #A80036; stroke-width: 1.5;" x1="47" x2="103" y1="83" y2="83"/><!--class mySort.DVDFirst--><rect fill="#FEFECE" filter="url(#fxynqll2229j3)" height="48" id="mySort.DVDFirst" style="stroke: #A80036; stroke-width: 1.5;" width="85" x="383.5" y="43"/><ellipse cx="398.5" cy="59" fill="#ADD1B2" rx="11" ry="11" style="stroke: #A80036; stroke-width: 1.0;"/><path d="M401.4688,64.6406 Q400.8906,64.9375 400.25,65.0781 Q399.6094,65.2344 398.9063,65.2344 Q396.4063,65.2344 395.0781,63.5938 Q393.7656,61.9375 393.7656,58.8125 Q393.7656,55.6875 395.0781,54.0313 Q396.4063,52.375 398.9063,52.375 Q399.6094,52.375 400.25,52.5313 Q400.9063,52.6875 401.4688,52.9844 L401.4688,55.7031 Q400.8438,55.125 400.25,54.8594 Q399.6563,54.5781 399.0313,54.5781 Q397.6875,54.5781 397,55.6563 Q396.3125,56.7188 396.3125,58.8125 Q396.3125,60.9063 397,61.9844 Q397.6875,63.0469 399.0313,63.0469 Q399.6563,63.0469 400.25,62.7813 Q400.8438,62.5 401.4688,61.9219 L401.4688,64.6406 Z "/><text fill="#000000" font-family="sans-serif" font-size="12" lengthAdjust="spacingAndGlyphs" textLength="53" x="412.5" y="63.1543">DVDFirst</text><line style="stroke: #A80036; stroke-width: 1.5;" x1="384.5" x2="467.5" y1="75" y2="75"/><line style="stroke: #A80036; stroke-width: 1.5;" x1="384.5" x2="467.5" y1="83" y2="83"/><!--class mySort.DVDSecond--><rect fill="#FEFECE" filter="url(#fxynqll2229j3)" height="48" id="mySort.DVDSecond" style="stroke: #A80036; stroke-width: 1.5;" width="105" x="243.5" y="43"/><ellipse cx="258.5" cy="59" fill="#ADD1B2" rx="11" ry="11" style="stroke: #A80036; stroke-width: 1.0;"/><path d="M261.4688,64.6406 Q260.8906,64.9375 260.25,65.0781 Q259.6094,65.2344 258.9063,65.2344 Q256.4063,65.2344 255.0781,63.5938 Q253.7656,61.9375 253.7656,58.8125 Q253.7656,55.6875 255.0781,54.0313 Q256.4063,52.375 258.9063,52.375 Q259.6094,52.375 260.25,52.5313 Q260.9063,52.6875 261.4688,52.9844 L261.4688,55.7031 Q260.8438,55.125 260.25,54.8594 Q259.6563,54.5781 259.0313,54.5781 Q257.6875,54.5781 257,55.6563 Q256.3125,56.7188 256.3125,58.8125 Q256.3125,60.9063 257,61.9844 Q257.6875,63.0469 259.0313,63.0469 Q259.6563,63.0469 260.25,62.7813 Q260.8438,62.5 261.4688,61.9219 L261.4688,64.6406 Z "/><text fill="#000000" font-family="sans-serif" font-size="12" lengthAdjust="spacingAndGlyphs" textLength="73" x="272.5" y="63.1543">DVDSecond</text><line style="stroke: #A80036; stroke-width: 1.5;" x1="244.5" x2="347.5" y1="75" y2="75"/><line style="stroke: #A80036; stroke-width: 1.5;" x1="244.5" x2="347.5" y1="83" y2="83"/><!--class mySort.DVDTest--><rect fill="#FEFECE" filter="url(#fxynqll2229j3)" height="48" id="mySort.DVDTest" style="stroke: #A80036; stroke-width: 1.5;" width="85" x="651.5" y="43"/><ellipse cx="666.5" cy="59" fill="#ADD1B2" rx="11" ry="11" style="stroke: #A80036; stroke-width: 1.0;"/><path d="M669.4688,64.6406 Q668.8906,64.9375 668.25,65.0781 Q667.6094,65.2344 666.9063,65.2344 Q664.4063,65.2344 663.0781,63.5938 Q661.7656,61.9375 661.7656,58.8125 Q661.7656,55.6875 663.0781,54.0313 Q664.4063,52.375 666.9063,52.375 Q667.6094,52.375 668.25,52.5313 Q668.9063,52.6875 669.4688,52.9844 L669.4688,55.7031 Q668.8438,55.125 668.25,54.8594 Q667.6563,54.5781 667.0313,54.5781 Q665.6875,54.5781 665,55.6563 Q664.3125,56.7188 664.3125,58.8125 Q664.3125,60.9063 665,61.9844 Q665.6875,63.0469 667.0313,63.0469 Q667.6563,63.0469 668.25,62.7813 Q668.8438,62.5 669.4688,61.9219 L669.4688,64.6406 Z "/><text fill="#000000" font-family="sans-serif" font-size="12" lengthAdjust="spacingAndGlyphs" textLength="53" x="680.5" y="63.1543">DVDTest</text><line style="stroke: #A80036; stroke-width: 1.5;" x1="652.5" x2="735.5" y1="75" y2="75"/><line style="stroke: #A80036; stroke-width: 1.5;" x1="652.5" x2="735.5" y1="83" y2="83"/><!--class mySort.Khalel--><rect fill="#FEFECE" filter="url(#fxynqll2229j3)" height="48" id="mySort.Khalel" style="stroke: #A80036; stroke-width: 1.5;" width="69" x="139.5" y="43"/><ellipse cx="154.5" cy="59" fill="#ADD1B2" rx="11" ry="11" style="stroke: #A80036; stroke-width: 1.0;"/><path d="M157.4688,64.6406 Q156.8906,64.9375 156.25,65.0781 Q155.6094,65.2344 154.9063,65.2344 Q152.4063,65.2344 151.0781,63.5938 Q149.7656,61.9375 149.7656,58.8125 Q149.7656,55.6875 151.0781,54.0313 Q152.4063,52.375 154.9063,52.375 Q155.6094,52.375 156.25,52.5313 Q156.9063,52.6875 157.4688,52.9844 L157.4688,55.7031 Q156.8438,55.125 156.25,54.8594 Q155.6563,54.5781 155.0313,54.5781 Q153.6875,54.5781 153,55.6563 Q152.3125,56.7188 152.3125,58.8125 Q152.3125,60.9063 153,61.9844 Q153.6875,63.0469 155.0313,63.0469 Q155.6563,63.0469 156.25,62.7813 Q156.8438,62.5 157.4688,61.9219 L157.4688,64.6406 Z "/><text fill="#000000" font-family="sans-serif" font-size="12" lengthAdjust="spacingAndGlyphs" textLength="37" x="168.5" y="63.1543">Khalel</text><line style="stroke: #A80036; stroke-width: 1.5;" x1="140.5" x2="207.5" y1="75" y2="75"/><line style="stroke: #A80036; stroke-width: 1.5;" x1="140.5" x2="207.5" y1="83" y2="83"/><!--class mySort.TestArrayList--><rect fill="#FEFECE" filter="url(#fxynqll2229j3)" height="48" id="mySort.TestArrayList" style="stroke: #A80036; stroke-width: 1.5;" width="112" x="504" y="43"/><ellipse cx="519" cy="59" fill="#ADD1B2" rx="11" ry="11" style="stroke: #A80036; stroke-width: 1.0;"/><path d="M521.9688,64.6406 Q521.3906,64.9375 520.75,65.0781 Q520.1094,65.2344 519.4063,65.2344 Q516.9063,65.2344 515.5781,63.5938 Q514.2656,61.9375 514.2656,58.8125 Q514.2656,55.6875 515.5781,54.0313 Q516.9063,52.375 519.4063,52.375 Q520.1094,52.375 520.75,52.5313 Q521.4063,52.6875 521.9688,52.9844 L521.9688,55.7031 Q521.3438,55.125 520.75,54.8594 Q520.1563,54.5781 519.5313,54.5781 Q518.1875,54.5781 517.5,55.6563 Q516.8125,56.7188 516.8125,58.8125 Q516.8125,60.9063 517.5,61.9844 Q518.1875,63.0469 519.5313,63.0469 Q520.1563,63.0469 520.75,62.7813 Q521.3438,62.5 521.9688,61.9219 L521.9688,64.6406 Z "/><text fill="#000000" font-family="sans-serif" font-size="12" lengthAdjust="spacingAndGlyphs" textLength="80" x="533" y="63.1543">TestArrayList</text><line style="stroke: #A80036; stroke-width: 1.5;" x1="505" x2="615" y1="75" y2="75"/><line style="stroke: #A80036; stroke-width: 1.5;" x1="505" x2="615" y1="83" y2="83"/><!--class java.lang.Comparable--><rect fill="#FEFECE" filter="url(#fxynqll2229j3)" height="48" id="java.lang.Comparable" style="stroke: #A80036; stroke-width: 1.5;" width="107" x="21.5" y="151"/><ellipse cx="36.5" cy="167" fill="#B4A7E5" rx="11" ry="11" style="stroke: #A80036; stroke-width: 1.0;"/><path d="M32.4219,162.7656 L32.4219,160.6094 L39.8125,160.6094 L39.8125,162.7656 L37.3438,162.7656 L37.3438,170.8438 L39.8125,170.8438 L39.8125,173 L32.4219,173 L32.4219,170.8438 L34.8906,170.8438 L34.8906,162.7656 L32.4219,162.7656 Z "/><text fill="#000000" font-family="sans-serif" font-size="12" font-style="italic" lengthAdjust="spacingAndGlyphs" textLength="75" x="50.5" y="171.1543">Comparable</text><line style="stroke: #A80036; stroke-width: 1.5;" x1="22.5" x2="127.5" y1="183" y2="183"/><line style="stroke: #A80036; stroke-width: 1.5;" x1="22.5" x2="127.5" y1="191" y2="191"/><!--link mySort.DVD to java.lang.Comparable--><path d="M75,91.2373 C75,102.9099 75,117.2806 75,130.8027 " fill="none" id="mySort.DVD-java.lang.Comparable" style="stroke: #A80036; stroke-width: 1.0;"/><polygon fill="none" points="82.0001,130.8436,75,150.8436,68.0001,130.8436,82.0001,130.8436" style="stroke: #A80036; stroke-width: 1.0;"/><!--link mySort.DVDFirst to java.util.Comparator--><path d="M383.1786,90.1177 C377.4231,93.1428 371.5812,96.1716 366,99 C343.1262,110.5918 336.0533,110.9144 314,124 C306.1524,128.6565 298.0747,133.9389 290.3077,139.2963 " fill="none" id="mySort.DVDFirst-java.util.Comparator" style="stroke: #A80036; stroke-width: 1.0;"/><polygon fill="none" points="294.3559,145.007,274.0111,150.9307,286.2214,133.6128,294.3559,145.007" style="stroke: #A80036; stroke-width: 1.0;"/><!--link mySort.DVDSecond to java.util.Comparator--><path d="M284.1058,91.2373 C278.1048,103.4657 270.6506,118.6553 263.7445,132.7283 " fill="none" id="mySort.DVDSecond-java.util.Comparator" style="stroke: #A80036; stroke-width: 1.0;"/><polygon fill="none" points="269.9497,135.9729,254.8545,150.8436,257.3815,129.8051,269.9497,135.9729" style="stroke: #A80036; stroke-width: 1.0;"/><!--link mySort.DVDTest to java.awt.Color--><path d="M736.7863,69.2813 C830.6402,74.8388 1051.5145,91.0999 1118,124 C1129.0965,129.4911 1139.2293,138.3484 1147.4874,147.1525 " fill="none" id="mySort.DVDTest-java.awt.Color" style="stroke: #A80036; stroke-width: 1.0; stroke-dasharray: 7.0,7.0;"/><polygon fill="#A80036" points="1150.9092,150.9125,1147.8101,141.5639,1147.5439,147.2145,1141.8933,146.9484,1150.9092,150.9125" style="stroke: #A80036; stroke-width: 1.0;"/><!--link mySort.DVDTest to java.util.Arrays--><path d="M736.5509,72.9537 C778.727,80.2294 844.0793,95.2909 894,124 C904.6545,130.1273 914.7893,138.8564 923.2891,147.3648 " fill="none" id="mySort.DVDTest-java.util.Arrays" style="stroke: #A80036; stroke-width: 1.0; stroke-dasharray: 7.0,7.0;"/><polygon fill="#A80036" points="926.8285,150.9895,923.4026,141.7557,923.3353,147.4121,917.6788,147.3448,926.8285,150.9895" style="stroke: #A80036; stroke-width: 1.0;"/><!--link mySort.DVDTest to java.util.Collections--><path d="M723.6234,91.2373 C744.0889,107.9819 771.3408,130.2788 792.5822,147.6582 " fill="none" id="mySort.DVDTest-java.util.Collections" style="stroke: #A80036; stroke-width: 1.0; stroke-dasharray: 7.0,7.0;"/><polygon fill="#A80036" points="796.4755,150.8436,792.0429,142.0486,792.6057,147.6774,786.9769,148.2402,796.4755,150.8436" style="stroke: #A80036; stroke-width: 1.0;"/><!--link mySort.DVDTest to java.util.LinkedList--><path d="M694,91.2373 C694,107.3565 694,128.6212 694,145.6911 " fill="none" id="mySort.DVDTest-java.util.LinkedList" style="stroke: #A80036; stroke-width: 1.0; stroke-dasharray: 7.0,7.0;"/><polygon fill="#A80036" points="694,150.8436,698,141.8436,694,145.8436,690,141.8436,694,150.8436" style="stroke: #A80036; stroke-width: 1.0;"/><!--link mySort.DVDTest to java.util.List--><path d="M665.2269,91.1986 C653.9383,101.0558 641.064,112.7601 630,124 C623.0091,131.102 615.7968,139.1271 609.2852,146.6738 " fill="none" id="mySort.DVDTest-java.util.List" style="stroke: #A80036; stroke-width: 1.0; stroke-dasharray: 7.0,7.0;"/><polygon fill="#A80036" points="605.7455,150.8083,614.6372,146.573,608.9972,147.0101,608.5601,141.3702,605.7455,150.8083" style="stroke: #A80036; stroke-width: 1.0;"/><!--link mySort.DVDTest to java.util.Scanner--><path d="M736.7226,72.1954 C809.4601,81.4961 953.9529,102.0779 1000,124 C1012.2049,129.8105 1023.9324,138.7405 1033.7307,147.5135 " fill="none" id="mySort.DVDTest-java.util.Scanner" style="stroke: #A80036; stroke-width: 1.0; stroke-dasharray: 7.0,7.0;"/><polygon fill="#A80036" points="1037.5273,150.9912,1033.5925,141.9625,1033.8403,147.6139,1028.1889,147.8617,1037.5273,150.9912" style="stroke: #A80036; stroke-width: 1.0;"/><!--link mySort.DVDTest to javax.swing.JFrame--><path d="M736.641,68.2617 C845.5407,72.0173 1131.3438,85.3747 1217,124 C1228.8526,129.3447 1239.9032,138.1687 1249.0033,146.9871 " fill="none" id="mySort.DVDTest-javax.swing.JFrame" style="stroke: #A80036; stroke-width: 1.0; stroke-dasharray: 7.0,7.0;"/><polygon fill="#A80036" points="1252.7806,150.7559,1249.2347,141.5675,1249.2411,147.2244,1243.5842,147.2308,1252.7806,150.7559" style="stroke: #A80036; stroke-width: 1.0;"/><!--link mySort.TestArrayList to java.util.ArrayList--><path d="M542.4953,91.2373 C530.6529,107.6345 514.9651,129.356 502.5326,146.5702 " fill="none" id="mySort.TestArrayList-java.util.ArrayList" style="stroke: #A80036; stroke-width: 1.0; stroke-dasharray: 7.0,7.0;"/><polygon fill="#A80036" points="499.4463,150.8436,507.9585,145.8896,502.3738,146.7902,501.4731,141.2056,499.4463,150.8436" style="stroke: #A80036; stroke-width: 1.0;"/><!--link mySort.TestArrayList to java.util.Vector--><path d="M504.7321,91.1558 C498.4282,93.8348 492.0839,96.4972 486,99 C457.7587,110.6178 447.798,107.6596 422,124 C411.8007,130.4602 401.8389,139.0166 393.3052,147.2718 " fill="none" id="mySort.TestArrayList-java.util.Vector" style="stroke: #A80036; stroke-width: 1.0; stroke-dasharray: 7.0,7.0;"/><polygon fill="#A80036" points="389.7388,150.7843,398.9579,147.3191,393.3012,147.2759,393.3444,141.6192,389.7388,150.7843" style="stroke: #A80036; stroke-width: 1.0;"/><!--
@startuml
class java.awt.Color
class java.util.ArrayList
class java.util.Arrays
class java.util.Collections
class java.util.LinkedList
class java.util.List
class java.util.Scanner
class java.util.Vector
class javax.swing.JFrame
class mySort.DVD
class mySort.DVDFirst
class mySort.DVDSecond
class mySort.DVDTest
class mySort.Khalel
class mySort.TestArrayList
interface java.lang.Comparable
interface java.util.Comparator
mySort.DVD - -|> java.lang.Comparable
mySort.DVDFirst - -|> java.util.Comparator
mySort.DVDSecond - -|> java.util.Comparator
mySort.DVDTest ..> java.awt.Color
mySort.DVDTest ..> java.util.Arrays
mySort.DVDTest ..> java.util.Collections
mySort.DVDTest ..> java.util.LinkedList
mySort.DVDTest ..> java.util.List
mySort.DVDTest ..> java.util.Scanner
mySort.DVDTest ..> javax.swing.JFrame
mySort.TestArrayList ..> java.util.ArrayList
mySort.TestArrayList ..> java.util.Vector
@enduml

PlantUML version 1.2018.10(Sat Aug 25 20:02:59 EEST 2018)
(GPL source distribution)
Java Runtime: OpenJDK Runtime Environment
JVM: OpenJDK 64-Bit Server VM
Java Version: 11.0.2+9-Debian-3
Operating System: Linux
OS Version: 4.19.0-kali1-amd64
Default Encoding: UTF-8
Language: en
Country: US
--></g></svg>