<?xml version="1.0" encoding="UTF-8" standalone="no"?><svg xmlns="http://www.w3.org/2000/svg" xmlns:xlink="http://www.w3.org/1999/xlink" contentScriptType="application/ecmascript" contentStyleType="text/css" height="220px" preserveAspectRatio="none" style="width:751px;height:220px;" version="1.1" viewBox="0 0 751 220" width="751px" zoomAndPan="magnify"><defs><filter height="300%" id="f5p57w18nc4va" width="300%" x="-1" y="-1"><feGaussianBlur result="blurOut" stdDeviation="2.0"/><feColorMatrix in="blurOut" result="blurOut2" type="matrix" values="0 0 0 0 0 0 0 0 0 0 0 0 0 0 0 0 0 0 .4 0"/><feOffset dx="4.0" dy="4.0" in="blurOut2" result="blurOut3"/><feBlend in="SourceGraphic" in2="blurOut3" mode="normal"/></filter></defs><g><!--MD5=[aa8f7b917213fcc1c2766e2d59b49067]
cluster java.lang--><polygon fill="#FFFFFF" filter="url(#f5p57w18nc4va)" points="388,114,463,114,470,136.2969,504,136.2969,504,213,388,213,388,114" style="stroke: #000000; stroke-width: 1.5;"/><line style="stroke: #000000; stroke-width: 1.5;" x1="388" x2="470" y1="136.2969" y2="136.2969"/><text fill="#000000" font-family="sans-serif" font-size="14" font-weight="bold" lengthAdjust="spacingAndGlyphs" textLength="69" x="392" y="128.9951">java.lang</text><!--MD5=[183e7839de089a19daff03f70a8ade48]
cluster com.company.observer--><polygon fill="#FFFFFF" filter="url(#f5p57w18nc4va)" points="16,6,208,6,215,28.2969,364,28.2969,364,213,16,213,16,6" style="stroke: #000000; stroke-width: 1.5;"/><line style="stroke: #000000; stroke-width: 1.5;" x1="16" x2="215" y1="28.2969" y2="28.2969"/><text fill="#000000" font-family="sans-serif" font-size="14" font-weight="bold" lengthAdjust="spacingAndGlyphs" textLength="186" x="20" y="20.9951">com.company.observer</text><!--MD5=[7db3c59d38ae5b37b484eb2df9368145]
cluster java.util--><polygon fill="#FFFFFF" filter="url(#f5p57w18nc4va)" points="528,114,594,114,601,136.2969,734,136.2969,734,213,528,213,528,114" style="stroke: #000000; stroke-width: 1.5;"/><line style="stroke: #000000; stroke-width: 1.5;" x1="528" x2="601" y1="136.2969" y2="136.2969"/><text fill="#000000" font-family="sans-serif" font-size="14" font-weight="bold" lengthAdjust="spacingAndGlyphs" textLength="60" x="532" y="128.9951">java.util</text><!--MD5=[3c78a2fa643d9223b1f8ad930e883961]
class java.lang.Override--><rect codeLine="1" fill="#FEFECE" filter="url(#f5p57w18nc4va)" height="48" id="java.lang.Override" style="stroke: #A80036; stroke-width: 1.5;" width="84" x="404" y="149"/><ellipse cx="419" cy="165" fill="#E3664A" rx="11" ry="11" style="stroke: #A80036; stroke-width: 1.0;"/><path d="M421.0781,165.4688 Q421.0781,164.5313 420.6563,164 Q420.2344,163.4688 419.4844,163.4688 Q418.75,163.4688 418.3281,164 Q417.9219,164.5313 417.9219,165.4688 Q417.9219,166.4219 418.3281,166.9531 Q418.75,167.4844 419.4844,167.4844 Q420.2344,167.4844 420.6563,166.9531 Q421.0781,166.4219 421.0781,165.4688 Z M422.625,168.875 L421,168.875 L421,168.2031 Q420.6719,168.6406 420.25,168.8438 Q419.8281,169.0469 419.2188,169.0469 Q417.8594,169.0469 417.0313,168.0781 Q416.2031,167.0938 416.2031,165.4688 Q416.2031,163.875 417.0313,162.9063 Q417.8594,161.9219 419.2188,161.9219 Q419.8125,161.9219 420.2656,162.125 Q420.7188,162.3281 421,162.7188 L421,162.375 Q421,161.25 420.375,160.6406 Q419.75,160.0156 418.6094,160.0156 Q416.8906,160.0156 415.7969,161.5469 Q414.7031,163.0625 414.7031,165.5 Q414.7031,168.0469 415.9531,169.5469 Q417.2188,171.0469 419.3281,171.0469 Q419.9844,171.0469 420.6094,170.8594 Q421.2344,170.6719 421.8125,170.2813 L422.5781,171.7344 Q421.9063,172.1875 421.1094,172.4063 Q420.3125,172.6406 419.4063,172.6406 Q416.5,172.6406 414.7656,170.7031 Q413.0469,168.7813 413.0469,165.5 Q413.0469,162.2813 414.5938,160.3594 Q416.1563,158.4219 418.7188,158.4219 Q420.5156,158.4219 421.5625,159.5156 Q422.625,160.6094 422.625,162.4844 L422.625,168.875 Z "/><text fill="#000000" font-family="sans-serif" font-size="12" lengthAdjust="spacingAndGlyphs" textLength="52" x="433" y="169.1543">Override</text><line style="stroke: #A80036; stroke-width: 1.5;" x1="405" x2="487" y1="181" y2="181"/><line style="stroke: #A80036; stroke-width: 1.5;" x1="405" x2="487" y1="189" y2="189"/><!--MD5=[f1d9fb9e9494c7399aaa7ea603c8d19b]
class com.company.observer.Course--><rect codeLine="2" fill="#FEFECE" filter="url(#f5p57w18nc4va)" height="48" id="com.company.observer.Course" style="stroke: #A80036; stroke-width: 1.5;" width="76" x="272" y="41"/><ellipse cx="287" cy="57" fill="#ADD1B2" rx="11" ry="11" style="stroke: #A80036; stroke-width: 1.0;"/><path d="M289.9688,62.6406 Q289.3906,62.9375 288.75,63.0781 Q288.1094,63.2344 287.4063,63.2344 Q284.9063,63.2344 283.5781,61.5938 Q282.2656,59.9375 282.2656,56.8125 Q282.2656,53.6875 283.5781,52.0313 Q284.9063,50.375 287.4063,50.375 Q288.1094,50.375 288.75,50.5313 Q289.4063,50.6875 289.9688,50.9844 L289.9688,53.7031 Q289.3438,53.125 288.75,52.8594 Q288.1563,52.5781 287.5313,52.5781 Q286.1875,52.5781 285.5,53.6563 Q284.8125,54.7188 284.8125,56.8125 Q284.8125,58.9063 285.5,59.9844 Q286.1875,61.0469 287.5313,61.0469 Q288.1563,61.0469 288.75,60.7813 Q289.3438,60.5 289.9688,59.9219 L289.9688,62.6406 Z "/><text fill="#000000" font-family="sans-serif" font-size="12" lengthAdjust="spacingAndGlyphs" textLength="44" x="301" y="61.1543">Course</text><line style="stroke: #A80036; stroke-width: 1.5;" x1="273" x2="347" y1="73" y2="73"/><line style="stroke: #A80036; stroke-width: 1.5;" x1="273" x2="347" y1="81" y2="81"/><!--MD5=[9f2cf720c7644789957c9771e2f43fd3]
class com.company.observer.Executor--><rect codeLine="3" fill="#FEFECE" filter="url(#f5p57w18nc4va)" height="48" id="com.company.observer.Executor" style="stroke: #A80036; stroke-width: 1.5;" width="87" x="149.5" y="41"/><ellipse cx="164.5" cy="57" fill="#ADD1B2" rx="11" ry="11" style="stroke: #A80036; stroke-width: 1.0;"/><path d="M167.4688,62.6406 Q166.8906,62.9375 166.25,63.0781 Q165.6094,63.2344 164.9063,63.2344 Q162.4063,63.2344 161.0781,61.5938 Q159.7656,59.9375 159.7656,56.8125 Q159.7656,53.6875 161.0781,52.0313 Q162.4063,50.375 164.9063,50.375 Q165.6094,50.375 166.25,50.5313 Q166.9063,50.6875 167.4688,50.9844 L167.4688,53.7031 Q166.8438,53.125 166.25,52.8594 Q165.6563,52.5781 165.0313,52.5781 Q163.6875,52.5781 163,53.6563 Q162.3125,54.7188 162.3125,56.8125 Q162.3125,58.9063 163,59.9844 Q163.6875,61.0469 165.0313,61.0469 Q165.6563,61.0469 166.25,60.7813 Q166.8438,60.5 167.4688,59.9219 L167.4688,62.6406 Z "/><text fill="#000000" font-family="sans-serif" font-size="12" lengthAdjust="spacingAndGlyphs" textLength="55" x="178.5" y="61.1543">Executor</text><line style="stroke: #A80036; stroke-width: 1.5;" x1="150.5" x2="235.5" y1="73" y2="73"/><line style="stroke: #A80036; stroke-width: 1.5;" x1="150.5" x2="235.5" y1="81" y2="81"/><!--MD5=[dc4c26bb48414f04445dadb23e6664d0]
class com.company.observer.Student--><rect codeLine="4" fill="#FEFECE" filter="url(#f5p57w18nc4va)" height="48" id="com.company.observer.Student" style="stroke: #A80036; stroke-width: 1.5;" width="82" x="32" y="41"/><ellipse cx="47" cy="57" fill="#ADD1B2" rx="11" ry="11" style="stroke: #A80036; stroke-width: 1.0;"/><path d="M49.9688,62.6406 Q49.3906,62.9375 48.75,63.0781 Q48.1094,63.2344 47.4063,63.2344 Q44.9063,63.2344 43.5781,61.5938 Q42.2656,59.9375 42.2656,56.8125 Q42.2656,53.6875 43.5781,52.0313 Q44.9063,50.375 47.4063,50.375 Q48.1094,50.375 48.75,50.5313 Q49.4063,50.6875 49.9688,50.9844 L49.9688,53.7031 Q49.3438,53.125 48.75,52.8594 Q48.1563,52.5781 47.5313,52.5781 Q46.1875,52.5781 45.5,53.6563 Q44.8125,54.7188 44.8125,56.8125 Q44.8125,58.9063 45.5,59.9844 Q46.1875,61.0469 47.5313,61.0469 Q48.1563,61.0469 48.75,60.7813 Q49.3438,60.5 49.9688,59.9219 L49.9688,62.6406 Z "/><text fill="#000000" font-family="sans-serif" font-size="12" lengthAdjust="spacingAndGlyphs" textLength="50" x="61" y="61.1543">Student</text><line style="stroke: #A80036; stroke-width: 1.5;" x1="33" x2="113" y1="73" y2="73"/><line style="stroke: #A80036; stroke-width: 1.5;" x1="33" x2="113" y1="81" y2="81"/><!--MD5=[118a7574558c1636c8c02559ee44d63e]
class com.company.observer.Observer--><rect codeLine="7" fill="#FEFECE" filter="url(#f5p57w18nc4va)" height="48" id="com.company.observer.Observer" style="stroke: #A80036; stroke-width: 1.5;" width="86" x="32" y="149"/><ellipse cx="47" cy="165" fill="#B4A7E5" rx="11" ry="11" style="stroke: #A80036; stroke-width: 1.0;"/><path d="M42.9219,160.7656 L42.9219,158.6094 L50.3125,158.6094 L50.3125,160.7656 L47.8438,160.7656 L47.8438,168.8438 L50.3125,168.8438 L50.3125,171 L42.9219,171 L42.9219,168.8438 L45.3906,168.8438 L45.3906,160.7656 L42.9219,160.7656 Z "/><text fill="#000000" font-family="sans-serif" font-size="12" font-style="italic" lengthAdjust="spacingAndGlyphs" textLength="54" x="61" y="169.1543">Observer</text><line style="stroke: #A80036; stroke-width: 1.5;" x1="33" x2="117" y1="181" y2="181"/><line style="stroke: #A80036; stroke-width: 1.5;" x1="33" x2="117" y1="189" y2="189"/><!--MD5=[a8b5580458326070771c9d70fc4a215b]
class com.company.observer.Subject--><rect codeLine="8" fill="#FEFECE" filter="url(#f5p57w18nc4va)" height="48" id="com.company.observer.Subject" style="stroke: #A80036; stroke-width: 1.5;" width="79" x="269.5" y="149"/><ellipse cx="284.5" cy="165" fill="#B4A7E5" rx="11" ry="11" style="stroke: #A80036; stroke-width: 1.0;"/><path d="M280.4219,160.7656 L280.4219,158.6094 L287.8125,158.6094 L287.8125,160.7656 L285.3438,160.7656 L285.3438,168.8438 L287.8125,168.8438 L287.8125,171 L280.4219,171 L280.4219,168.8438 L282.8906,168.8438 L282.8906,160.7656 L280.4219,160.7656 Z "/><text fill="#000000" font-family="sans-serif" font-size="12" font-style="italic" lengthAdjust="spacingAndGlyphs" textLength="47" x="298.5" y="169.1543">Subject</text><line style="stroke: #A80036; stroke-width: 1.5;" x1="270.5" x2="347.5" y1="181" y2="181"/><line style="stroke: #A80036; stroke-width: 1.5;" x1="270.5" x2="347.5" y1="189" y2="189"/><!--MD5=[8479184e23c2bec09445fccfd361f5d2]
class java.util.ArrayList--><rect codeLine="5" fill="#FEFECE" filter="url(#f5p57w18nc4va)" height="48" id="java.util.ArrayList" style="stroke: #A80036; stroke-width: 1.5;" width="85" x="632.5" y="149"/><ellipse cx="647.5" cy="165" fill="#ADD1B2" rx="11" ry="11" style="stroke: #A80036; stroke-width: 1.0;"/><path d="M650.4688,170.6406 Q649.8906,170.9375 649.25,171.0781 Q648.6094,171.2344 647.9063,171.2344 Q645.4063,171.2344 644.0781,169.5938 Q642.7656,167.9375 642.7656,164.8125 Q642.7656,161.6875 644.0781,160.0313 Q645.4063,158.375 647.9063,158.375 Q648.6094,158.375 649.25,158.5313 Q649.9063,158.6875 650.4688,158.9844 L650.4688,161.7031 Q649.8438,161.125 649.25,160.8594 Q648.6563,160.5781 648.0313,160.5781 Q646.6875,160.5781 646,161.6563 Q645.3125,162.7188 645.3125,164.8125 Q645.3125,166.9063 646,167.9844 Q646.6875,169.0469 648.0313,169.0469 Q648.6563,169.0469 649.25,168.7813 Q649.8438,168.5 650.4688,167.9219 L650.4688,170.6406 Z "/><text fill="#000000" font-family="sans-serif" font-size="12" lengthAdjust="spacingAndGlyphs" textLength="53" x="661.5" y="169.1543">ArrayList</text><line style="stroke: #A80036; stroke-width: 1.5;" x1="633.5" x2="716.5" y1="181" y2="181"/><line style="stroke: #A80036; stroke-width: 1.5;" x1="633.5" x2="716.5" y1="189" y2="189"/><!--MD5=[6b7a9fc05e2cf62df8c1411c2048df3f]
class java.util.List--><rect codeLine="6" fill="#FEFECE" filter="url(#f5p57w18nc4va)" height="48" id="java.util.List" style="stroke: #A80036; stroke-width: 1.5;" width="53" x="544.5" y="149"/><ellipse cx="559.5" cy="165" fill="#ADD1B2" rx="11" ry="11" style="stroke: #A80036; stroke-width: 1.0;"/><path d="M562.4688,170.6406 Q561.8906,170.9375 561.25,171.0781 Q560.6094,171.2344 559.9063,171.2344 Q557.4063,171.2344 556.0781,169.5938 Q554.7656,167.9375 554.7656,164.8125 Q554.7656,161.6875 556.0781,160.0313 Q557.4063,158.375 559.9063,158.375 Q560.6094,158.375 561.25,158.5313 Q561.9063,158.6875 562.4688,158.9844 L562.4688,161.7031 Q561.8438,161.125 561.25,160.8594 Q560.6563,160.5781 560.0313,160.5781 Q558.6875,160.5781 558,161.6563 Q557.3125,162.7188 557.3125,164.8125 Q557.3125,166.9063 558,167.9844 Q558.6875,169.0469 560.0313,169.0469 Q560.6563,169.0469 561.25,168.7813 Q561.8438,168.5 562.4688,167.9219 L562.4688,170.6406 Z "/><text fill="#000000" font-family="sans-serif" font-size="12" lengthAdjust="spacingAndGlyphs" textLength="21" x="573.5" y="169.1543">List</text><line style="stroke: #A80036; stroke-width: 1.5;" x1="545.5" x2="596.5" y1="181" y2="181"/><line style="stroke: #A80036; stroke-width: 1.5;" x1="545.5" x2="596.5" y1="189" y2="189"/><!--MD5=[f7f866415668d605718ea2c59bc2bf62]
link com.company.observer.Course to java.lang.Override--><path codeLine="9" d="M341.57,89.06 C348.97,94.55 356.8,100.44 364,106 C380.53,118.76 398.63,133.28 413.62,145.44 " fill="none" id="com.company.observer.Course-to-java.lang.Override" style="stroke: #A80036; stroke-width: 1.0; stroke-dasharray: 7.0,7.0;"/><polygon fill="#A80036" points="417.76,148.81,413.2937,140.0321,413.8781,145.6587,408.2515,146.2431,417.76,148.81" style="stroke: #A80036; stroke-width: 1.0;"/><!--MD5=[a0799814f7d815b9c84201587ba91de8]
link com.company.observer.Course to java.util.ArrayList--><path codeLine="10" d="M348.03,67.74 C419.17,71.51 569.33,82.12 615,106 C632.04,114.91 646.66,130.7 657.21,144.6 " fill="none" id="com.company.observer.Course-to-java.util.ArrayList" style="stroke: #A80036; stroke-width: 1.0; stroke-dasharray: 7.0,7.0;"/><polygon fill="#A80036" points="660.35,148.85,658.2105,139.2363,657.3752,144.8312,651.7804,143.996,660.35,148.85" style="stroke: #A80036; stroke-width: 1.0;"/><!--MD5=[c232e34cae39ad6e5165877eccc2bfa3]
link com.company.observer.Course to java.util.List--><path codeLine="11" d="M348.26,67.52 C389.03,70.54 454.41,79.51 504,106 C521.9,115.56 538.22,131.4 550.27,145.17 " fill="none" id="com.company.observer.Course-to-java.util.List" style="stroke: #A80036; stroke-width: 1.0; stroke-dasharray: 7.0,7.0;"/><polygon fill="#A80036" points="553.55,148.99,550.7299,139.5535,550.296,145.1937,544.6559,144.7599,553.55,148.99" style="stroke: #A80036; stroke-width: 1.0;"/><!--MD5=[c3e6a145dfac36c41ec3deedaac46447]
link com.company.observer.Course to com.company.observer.Subject--><path codeLine="12" d="M309.78,89 C309.67,100.59 309.54,115.03 309.41,128.6 " fill="none" id="com.company.observer.Course-to-com.company.observer.Subject" style="stroke: #A80036; stroke-width: 1.0;"/><polygon fill="none" points="316.41,128.75,309.22,148.68,302.41,128.61,316.41,128.75" style="stroke: #A80036; stroke-width: 1.0;"/><!--MD5=[92eb1ac9e4353a70428344914f30add1]
link com.company.observer.Student to java.lang.Override--><path codeLine="13" d="M114.09,83.8 C120.02,85.84 126.1,87.67 132,89 C232.84,111.81 267.81,68.09 364,106 C385.63,114.52 406.01,130.88 421.05,145.17 " fill="none" id="com.company.observer.Student-to-java.lang.Override" style="stroke: #A80036; stroke-width: 1.0; stroke-dasharray: 7.0,7.0;"/><polygon fill="#A80036" points="424.75,148.75,421.0661,139.6161,421.1577,145.2722,415.5016,145.3638,424.75,148.75" style="stroke: #A80036; stroke-width: 1.0;"/><!--MD5=[fb52d15fef536fd0265e29a43f99a61a]
link com.company.observer.Student to com.company.observer.Observer--><path codeLine="14" d="M73.43,89 C73.65,100.59 73.93,115.03 74.18,128.6 " fill="none" id="com.company.observer.Student-to-com.company.observer.Observer" style="stroke: #A80036; stroke-width: 1.0;"/><polygon fill="none" points="81.18,128.55,74.56,148.68,67.18,128.81,81.18,128.55" style="stroke: #A80036; stroke-width: 1.0;"/><!--MD5=[0415f49b7ba6bcff286ad104f1f51b13]
@startuml
annotation java.lang.Override
class com.company.observer.Course
class com.company.observer.Executor
class com.company.observer.Student
class java.util.ArrayList
class java.util.List
interface com.company.observer.Observer
interface com.company.observer.Subject
com.company.observer.Course ..> java.lang.Override
com.company.observer.Course ..> java.util.ArrayList
com.company.observer.Course ..> java.util.List
com.company.observer.Course - -|> com.company.observer.Subject
com.company.observer.Student ..> java.lang.Override
com.company.observer.Student - -|> com.company.observer.Observer
@enduml

PlantUML version 1.2020.18(Wed Sep 30 22:40:44 EEST 2020)
(GPL source distribution)
Java Runtime: OpenJDK Runtime Environment
JVM: OpenJDK 64-Bit Server VM
Default Encoding: UTF-8
Language: en
Country: US
--></g></svg>