<?xml version="1.0" encoding="UTF-8" standalone="no"?><svg xmlns="http://www.w3.org/2000/svg" xmlns:xlink="http://www.w3.org/1999/xlink" contentScriptType="application/ecmascript" contentStyleType="text/css" height="220px" preserveAspectRatio="none" style="width:509px;height:220px;" version="1.1" viewBox="0 0 509 220" width="509px" zoomAndPan="magnify"><defs><filter height="300%" id="fjhnkiqjgmrmp" width="300%" x="-1" y="-1"><feGaussianBlur result="blurOut" stdDeviation="2.0"/><feColorMatrix in="blurOut" result="blurOut2" type="matrix" values="0 0 0 0 0 0 0 0 0 0 0 0 0 0 0 0 0 0 .4 0"/><feOffset dx="4.0" dy="4.0" in="blurOut2" result="blurOut3"/><feBlend in="SourceGraphic" in2="blurOut3" mode="normal"/></filter></defs><g><!--MD5=[5f72b6b3c5d59cda80e40616f8a04c2e]
cluster com.company.adapter--><polygon fill="#FFFFFF" filter="url(#fjhnkiqjgmrmp)" points="16,6,197,6,204,28.2969,492,28.2969,492,213,16,213,16,6" style="stroke: #000000; stroke-width: 1.5;"/><line style="stroke: #000000; stroke-width: 1.5;" x1="16" x2="204" y1="28.2969" y2="28.2969"/><text fill="#000000" font-family="sans-serif" font-size="14" font-weight="bold" lengthAdjust="spacingAndGlyphs" textLength="175" x="20" y="20.9951">com.company.adapter</text><!--MD5=[96fb24c52deb727964ba1ba2994ef19c]
class com.company.adapter.Bicycle--><rect codeLine="1" fill="#FEFECE" filter="url(#fjhnkiqjgmrmp)" height="48" id="com.company.adapter.Bicycle" style="stroke: #A80036; stroke-width: 1.5;" width="74" x="402" y="41"/><ellipse cx="417" cy="57" fill="#ADD1B2" rx="11" ry="11" style="stroke: #A80036; stroke-width: 1.0;"/><path d="M419.9688,62.6406 Q419.3906,62.9375 418.75,63.0781 Q418.1094,63.2344 417.4063,63.2344 Q414.9063,63.2344 413.5781,61.5938 Q412.2656,59.9375 412.2656,56.8125 Q412.2656,53.6875 413.5781,52.0313 Q414.9063,50.375 417.4063,50.375 Q418.1094,50.375 418.75,50.5313 Q419.4063,50.6875 419.9688,50.9844 L419.9688,53.7031 Q419.3438,53.125 418.75,52.8594 Q418.1563,52.5781 417.5313,52.5781 Q416.1875,52.5781 415.5,53.6563 Q414.8125,54.7188 414.8125,56.8125 Q414.8125,58.9063 415.5,59.9844 Q416.1875,61.0469 417.5313,61.0469 Q418.1563,61.0469 418.75,60.7813 Q419.3438,60.5 419.9688,59.9219 L419.9688,62.6406 Z "/><text fill="#000000" font-family="sans-serif" font-size="12" lengthAdjust="spacingAndGlyphs" textLength="42" x="431" y="61.1543">Bicycle</text><line style="stroke: #A80036; stroke-width: 1.5;" x1="403" x2="475" y1="73" y2="73"/><line style="stroke: #A80036; stroke-width: 1.5;" x1="403" x2="475" y1="81" y2="81"/><!--MD5=[f66b394bf66c52f8a32fa74721469b7d]
class com.company.adapter.BicycleAdapter--><rect codeLine="2" fill="#FEFECE" filter="url(#fjhnkiqjgmrmp)" height="48" id="com.company.adapter.BicycleAdapter" style="stroke: #A80036; stroke-width: 1.5;" width="124" x="243" y="41"/><ellipse cx="258" cy="57" fill="#ADD1B2" rx="11" ry="11" style="stroke: #A80036; stroke-width: 1.0;"/><path d="M260.9688,62.6406 Q260.3906,62.9375 259.75,63.0781 Q259.1094,63.2344 258.4063,63.2344 Q255.9063,63.2344 254.5781,61.5938 Q253.2656,59.9375 253.2656,56.8125 Q253.2656,53.6875 254.5781,52.0313 Q255.9063,50.375 258.4063,50.375 Q259.1094,50.375 259.75,50.5313 Q260.4063,50.6875 260.9688,50.9844 L260.9688,53.7031 Q260.3438,53.125 259.75,52.8594 Q259.1563,52.5781 258.5313,52.5781 Q257.1875,52.5781 256.5,53.6563 Q255.8125,54.7188 255.8125,56.8125 Q255.8125,58.9063 256.5,59.9844 Q257.1875,61.0469 258.5313,61.0469 Q259.1563,61.0469 259.75,60.7813 Q260.3438,60.5 260.9688,59.9219 L260.9688,62.6406 Z "/><text fill="#000000" font-family="sans-serif" font-size="12" lengthAdjust="spacingAndGlyphs" textLength="92" x="272" y="61.1543">BicycleAdapter</text><line style="stroke: #A80036; stroke-width: 1.5;" x1="244" x2="366" y1="73" y2="73"/><line style="stroke: #A80036; stroke-width: 1.5;" x1="244" x2="366" y1="81" y2="81"/><!--MD5=[1f606fdbb2b4e31163e3963e64b21c73]
class com.company.adapter.Car--><rect codeLine="3" fill="#FEFECE" filter="url(#fjhnkiqjgmrmp)" height="48" id="com.company.adapter.Car" style="stroke: #A80036; stroke-width: 1.5;" width="53" x="154.5" y="41"/><ellipse cx="169.5" cy="57" fill="#ADD1B2" rx="11" ry="11" style="stroke: #A80036; stroke-width: 1.0;"/><path d="M172.4688,62.6406 Q171.8906,62.9375 171.25,63.0781 Q170.6094,63.2344 169.9063,63.2344 Q167.4063,63.2344 166.0781,61.5938 Q164.7656,59.9375 164.7656,56.8125 Q164.7656,53.6875 166.0781,52.0313 Q167.4063,50.375 169.9063,50.375 Q170.6094,50.375 171.25,50.5313 Q171.9063,50.6875 172.4688,50.9844 L172.4688,53.7031 Q171.8438,53.125 171.25,52.8594 Q170.6563,52.5781 170.0313,52.5781 Q168.6875,52.5781 168,53.6563 Q167.3125,54.7188 167.3125,56.8125 Q167.3125,58.9063 168,59.9844 Q168.6875,61.0469 170.0313,61.0469 Q170.6563,61.0469 171.25,60.7813 Q171.8438,60.5 172.4688,59.9219 L172.4688,62.6406 Z "/><text fill="#000000" font-family="sans-serif" font-size="12" lengthAdjust="spacingAndGlyphs" textLength="21" x="183.5" y="61.1543">Car</text><line style="stroke: #A80036; stroke-width: 1.5;" x1="155.5" x2="206.5" y1="73" y2="73"/><line style="stroke: #A80036; stroke-width: 1.5;" x1="155.5" x2="206.5" y1="81" y2="81"/><!--MD5=[537fa532ad6eaf41261411f66bc9e7bc]
class com.company.adapter.Executor--><rect codeLine="4" fill="#FEFECE" filter="url(#fjhnkiqjgmrmp)" height="48" id="com.company.adapter.Executor" style="stroke: #A80036; stroke-width: 1.5;" width="87" x="32.5" y="41"/><ellipse cx="47.5" cy="57" fill="#ADD1B2" rx="11" ry="11" style="stroke: #A80036; stroke-width: 1.0;"/><path d="M50.4688,62.6406 Q49.8906,62.9375 49.25,63.0781 Q48.6094,63.2344 47.9063,63.2344 Q45.4063,63.2344 44.0781,61.5938 Q42.7656,59.9375 42.7656,56.8125 Q42.7656,53.6875 44.0781,52.0313 Q45.4063,50.375 47.9063,50.375 Q48.6094,50.375 49.25,50.5313 Q49.9063,50.6875 50.4688,50.9844 L50.4688,53.7031 Q49.8438,53.125 49.25,52.8594 Q48.6563,52.5781 48.0313,52.5781 Q46.6875,52.5781 46,53.6563 Q45.3125,54.7188 45.3125,56.8125 Q45.3125,58.9063 46,59.9844 Q46.6875,61.0469 48.0313,61.0469 Q48.6563,61.0469 49.25,60.7813 Q49.8438,60.5 50.4688,59.9219 L50.4688,62.6406 Z "/><text fill="#000000" font-family="sans-serif" font-size="12" lengthAdjust="spacingAndGlyphs" textLength="55" x="61.5" y="61.1543">Executor</text><line style="stroke: #A80036; stroke-width: 1.5;" x1="33.5" x2="118.5" y1="73" y2="73"/><line style="stroke: #A80036; stroke-width: 1.5;" x1="33.5" x2="118.5" y1="81" y2="81"/><!--MD5=[18d92df4860583d58c50307d8e97e9b2]
class com.company.adapter.Vehicle--><rect codeLine="5" fill="#FEFECE" filter="url(#fjhnkiqjgmrmp)" height="48" id="com.company.adapter.Vehicle" style="stroke: #A80036; stroke-width: 1.5;" width="77" x="204.5" y="149"/><ellipse cx="219.5" cy="165" fill="#B4A7E5" rx="11" ry="11" style="stroke: #A80036; stroke-width: 1.0;"/><path d="M215.4219,160.7656 L215.4219,158.6094 L222.8125,158.6094 L222.8125,160.7656 L220.3438,160.7656 L220.3438,168.8438 L222.8125,168.8438 L222.8125,171 L215.4219,171 L215.4219,168.8438 L217.8906,168.8438 L217.8906,160.7656 L215.4219,160.7656 Z "/><text fill="#000000" font-family="sans-serif" font-size="12" font-style="italic" lengthAdjust="spacingAndGlyphs" textLength="45" x="233.5" y="169.1543">Vehicle</text><line style="stroke: #A80036; stroke-width: 1.5;" x1="205.5" x2="280.5" y1="181" y2="181"/><line style="stroke: #A80036; stroke-width: 1.5;" x1="205.5" x2="280.5" y1="189" y2="189"/><!--MD5=[02df7c7cdc6965a294f6ce327255be36]
link com.company.adapter.BicycleAdapter to com.company.adapter.Vehicle--><path codeLine="6" d="M291.55,89 C284.37,101.28 275.31,116.76 266.97,131.01 " fill="none" id="com.company.adapter.BicycleAdapter-to-com.company.adapter.Vehicle" style="stroke: #A80036; stroke-width: 1.0;"/><polygon fill="none" points="272.78,134.95,256.64,148.68,260.7,127.88,272.78,134.95" style="stroke: #A80036; stroke-width: 1.0;"/><!--MD5=[b10ef7c649621905a9e4e69ea9a48ec4]
link com.company.adapter.Car to com.company.adapter.Vehicle--><path codeLine="7" d="M194.45,89 C201.63,101.28 210.69,116.76 219.03,131.01 " fill="none" id="com.company.adapter.Car-to-com.company.adapter.Vehicle" style="stroke: #A80036; stroke-width: 1.0;"/><polygon fill="none" points="225.3,127.88,229.36,148.68,213.22,134.95,225.3,127.88" style="stroke: #A80036; stroke-width: 1.0;"/><!--MD5=[516a53906e1574ec2a133c3fb272329a]
@startuml
class com.company.adapter.Bicycle
class com.company.adapter.BicycleAdapter
class com.company.adapter.Car
class com.company.adapter.Executor
interface com.company.adapter.Vehicle
com.company.adapter.BicycleAdapter - -|> com.company.adapter.Vehicle
com.company.adapter.Car - -|> com.company.adapter.Vehicle
@enduml

PlantUML version 1.2020.18(Wed Sep 30 22:40:44 EEST 2020)
(GPL source distribution)
Java Runtime: OpenJDK Runtime Environment
JVM: OpenJDK 64-Bit Server VM
Default Encoding: UTF-8
Language: en
Country: US
--></g></svg>