<?xml version="1.0" encoding="UTF-8" standalone="no"?><svg xmlns="http://www.w3.org/2000/svg" xmlns:xlink="http://www.w3.org/1999/xlink" contentScriptType="application/ecmascript" contentStyleType="text/css" height="220px" preserveAspectRatio="none" style="width:1043px;height:220px;" version="1.1" viewBox="0 0 1043 220" width="1043px" zoomAndPan="magnify"><defs><filter height="300%" id="fdmstux2pfjj0" width="300%" x="-1" y="-1"><feGaussianBlur result="blurOut" stdDeviation="2.0"/><feColorMatrix in="blurOut" result="blurOut2" type="matrix" values="0 0 0 0 0 0 0 0 0 0 0 0 0 0 0 0 0 0 .4 0"/><feOffset dx="4.0" dy="4.0" in="blurOut2" result="blurOut3"/><feBlend in="SourceGraphic" in2="blurOut3" mode="normal"/></filter></defs><g><!--MD5=[aa8f7b917213fcc1c2766e2d59b49067]
cluster java.lang--><polygon fill="#FFFFFF" filter="url(#fdmstux2pfjj0)" points="910,114,985,114,992,136.2969,1026,136.2969,1026,213,910,213,910,114" style="stroke: #000000; stroke-width: 1.5;"/><line style="stroke: #000000; stroke-width: 1.5;" x1="910" x2="992" y1="136.2969" y2="136.2969"/><text fill="#000000" font-family="sans-serif" font-size="14" font-weight="bold" lengthAdjust="spacingAndGlyphs" textLength="69" x="914" y="128.9951">java.lang</text><!--MD5=[15e30ebac28680bff05c06d231de58b3]
cluster factory3--><polygon fill="#FFFFFF" filter="url(#fdmstux2pfjj0)" points="16,6,88,6,95,28.2969,886,28.2969,886,213,16,213,16,6" style="stroke: #000000; stroke-width: 1.5;"/><line style="stroke: #000000; stroke-width: 1.5;" x1="16" x2="95" y1="28.2969" y2="28.2969"/><text fill="#000000" font-family="sans-serif" font-size="14" font-weight="bold" lengthAdjust="spacingAndGlyphs" textLength="66" x="20" y="20.9951">factory3</text><!--MD5=[3c78a2fa643d9223b1f8ad930e883961]
class java.lang.Override--><rect codeLine="1" fill="#FEFECE" filter="url(#fdmstux2pfjj0)" height="48" id="java.lang.Override" style="stroke: #A80036; stroke-width: 1.5;" width="84" x="926" y="149"/><ellipse cx="941" cy="165" fill="#E3664A" rx="11" ry="11" style="stroke: #A80036; stroke-width: 1.0;"/><path d="M943.0781,165.4688 Q943.0781,164.5313 942.6563,164 Q942.2344,163.4688 941.4844,163.4688 Q940.75,163.4688 940.3281,164 Q939.9219,164.5313 939.9219,165.4688 Q939.9219,166.4219 940.3281,166.9531 Q940.75,167.4844 941.4844,167.4844 Q942.2344,167.4844 942.6563,166.9531 Q943.0781,166.4219 943.0781,165.4688 Z M944.625,168.875 L943,168.875 L943,168.2031 Q942.6719,168.6406 942.25,168.8438 Q941.8281,169.0469 941.2188,169.0469 Q939.8594,169.0469 939.0313,168.0781 Q938.2031,167.0938 938.2031,165.4688 Q938.2031,163.875 939.0313,162.9063 Q939.8594,161.9219 941.2188,161.9219 Q941.8125,161.9219 942.2656,162.125 Q942.7188,162.3281 943,162.7188 L943,162.375 Q943,161.25 942.375,160.6406 Q941.75,160.0156 940.6094,160.0156 Q938.8906,160.0156 937.7969,161.5469 Q936.7031,163.0625 936.7031,165.5 Q936.7031,168.0469 937.9531,169.5469 Q939.2188,171.0469 941.3281,171.0469 Q941.9844,171.0469 942.6094,170.8594 Q943.2344,170.6719 943.8125,170.2813 L944.5781,171.7344 Q943.9063,172.1875 943.1094,172.4063 Q942.3125,172.6406 941.4063,172.6406 Q938.5,172.6406 936.7656,170.7031 Q935.0469,168.7813 935.0469,165.5 Q935.0469,162.2813 936.5938,160.3594 Q938.1563,158.4219 940.7188,158.4219 Q942.5156,158.4219 943.5625,159.5156 Q944.625,160.6094 944.625,162.4844 L944.625,168.875 Z "/><text fill="#000000" font-family="sans-serif" font-size="12" lengthAdjust="spacingAndGlyphs" textLength="52" x="955" y="169.1543">Override</text><line style="stroke: #A80036; stroke-width: 1.5;" x1="927" x2="1009" y1="181" y2="181"/><line style="stroke: #A80036; stroke-width: 1.5;" x1="927" x2="1009" y1="189" y2="189"/><!--MD5=[a7aefc42bd1a726e28f3689999d3044f]
class factory3.CheesePizza--><rect codeLine="2" fill="#FEFECE" filter="url(#fdmstux2pfjj0)" height="48" id="factory3.CheesePizza" style="stroke: #A80036; stroke-width: 1.5;" width="108" x="762" y="41"/><ellipse cx="777" cy="57" fill="#ADD1B2" rx="11" ry="11" style="stroke: #A80036; stroke-width: 1.0;"/><path d="M779.9688,62.6406 Q779.3906,62.9375 778.75,63.0781 Q778.1094,63.2344 777.4063,63.2344 Q774.9063,63.2344 773.5781,61.5938 Q772.2656,59.9375 772.2656,56.8125 Q772.2656,53.6875 773.5781,52.0313 Q774.9063,50.375 777.4063,50.375 Q778.1094,50.375 778.75,50.5313 Q779.4063,50.6875 779.9688,50.9844 L779.9688,53.7031 Q779.3438,53.125 778.75,52.8594 Q778.1563,52.5781 777.5313,52.5781 Q776.1875,52.5781 775.5,53.6563 Q774.8125,54.7188 774.8125,56.8125 Q774.8125,58.9063 775.5,59.9844 Q776.1875,61.0469 777.5313,61.0469 Q778.1563,61.0469 778.75,60.7813 Q779.3438,60.5 779.9688,59.9219 L779.9688,62.6406 Z "/><text fill="#000000" font-family="sans-serif" font-size="12" lengthAdjust="spacingAndGlyphs" textLength="76" x="791" y="61.1543">CheesePizza</text><line style="stroke: #A80036; stroke-width: 1.5;" x1="763" x2="869" y1="73" y2="73"/><line style="stroke: #A80036; stroke-width: 1.5;" x1="763" x2="869" y1="81" y2="81"/><!--MD5=[845ffbe27943481f58195d8129e29e25]
class factory3.CheeseSandwich--><rect codeLine="3" fill="#FEFECE" filter="url(#fdmstux2pfjj0)" height="48" id="factory3.CheeseSandwich" style="stroke: #A80036; stroke-width: 1.5;" width="138" x="462" y="41"/><ellipse cx="477" cy="57" fill="#ADD1B2" rx="11" ry="11" style="stroke: #A80036; stroke-width: 1.0;"/><path d="M479.9688,62.6406 Q479.3906,62.9375 478.75,63.0781 Q478.1094,63.2344 477.4063,63.2344 Q474.9063,63.2344 473.5781,61.5938 Q472.2656,59.9375 472.2656,56.8125 Q472.2656,53.6875 473.5781,52.0313 Q474.9063,50.375 477.4063,50.375 Q478.1094,50.375 478.75,50.5313 Q479.4063,50.6875 479.9688,50.9844 L479.9688,53.7031 Q479.3438,53.125 478.75,52.8594 Q478.1563,52.5781 477.5313,52.5781 Q476.1875,52.5781 475.5,53.6563 Q474.8125,54.7188 474.8125,56.8125 Q474.8125,58.9063 475.5,59.9844 Q476.1875,61.0469 477.5313,61.0469 Q478.1563,61.0469 478.75,60.7813 Q479.3438,60.5 479.9688,59.9219 L479.9688,62.6406 Z "/><text fill="#000000" font-family="sans-serif" font-size="12" lengthAdjust="spacingAndGlyphs" textLength="106" x="491" y="61.1543">CheeseSandwich</text><line style="stroke: #A80036; stroke-width: 1.5;" x1="463" x2="599" y1="73" y2="73"/><line style="stroke: #A80036; stroke-width: 1.5;" x1="463" x2="599" y1="81" y2="81"/><!--MD5=[d80a53d232800c369516245d9ee92e8c]
class factory3.ChickenSandwich--><rect codeLine="4" fill="#FEFECE" filter="url(#fdmstux2pfjj0)" height="48" id="factory3.ChickenSandwich" style="stroke: #A80036; stroke-width: 1.5;" width="140" x="287" y="41"/><ellipse cx="302" cy="57" fill="#ADD1B2" rx="11" ry="11" style="stroke: #A80036; stroke-width: 1.0;"/><path d="M304.9688,62.6406 Q304.3906,62.9375 303.75,63.0781 Q303.1094,63.2344 302.4063,63.2344 Q299.9063,63.2344 298.5781,61.5938 Q297.2656,59.9375 297.2656,56.8125 Q297.2656,53.6875 298.5781,52.0313 Q299.9063,50.375 302.4063,50.375 Q303.1094,50.375 303.75,50.5313 Q304.4063,50.6875 304.9688,50.9844 L304.9688,53.7031 Q304.3438,53.125 303.75,52.8594 Q303.1563,52.5781 302.5313,52.5781 Q301.1875,52.5781 300.5,53.6563 Q299.8125,54.7188 299.8125,56.8125 Q299.8125,58.9063 300.5,59.9844 Q301.1875,61.0469 302.5313,61.0469 Q303.1563,61.0469 303.75,60.7813 Q304.3438,60.5 304.9688,59.9219 L304.9688,62.6406 Z "/><text fill="#000000" font-family="sans-serif" font-size="12" lengthAdjust="spacingAndGlyphs" textLength="108" x="316" y="61.1543">ChickenSandwich</text><line style="stroke: #A80036; stroke-width: 1.5;" x1="288" x2="426" y1="73" y2="73"/><line style="stroke: #A80036; stroke-width: 1.5;" x1="288" x2="426" y1="81" y2="81"/><!--MD5=[b5d61aac5be83519cb990e8f6a507f9f]
class factory3.ClamPizza--><rect codeLine="5" fill="#FEFECE" filter="url(#fdmstux2pfjj0)" height="48" id="factory3.ClamPizza" style="stroke: #A80036; stroke-width: 1.5;" width="91" x="635.5" y="41"/><ellipse cx="650.5" cy="57" fill="#ADD1B2" rx="11" ry="11" style="stroke: #A80036; stroke-width: 1.0;"/><path d="M653.4688,62.6406 Q652.8906,62.9375 652.25,63.0781 Q651.6094,63.2344 650.9063,63.2344 Q648.4063,63.2344 647.0781,61.5938 Q645.7656,59.9375 645.7656,56.8125 Q645.7656,53.6875 647.0781,52.0313 Q648.4063,50.375 650.9063,50.375 Q651.6094,50.375 652.25,50.5313 Q652.9063,50.6875 653.4688,50.9844 L653.4688,53.7031 Q652.8438,53.125 652.25,52.8594 Q651.6563,52.5781 651.0313,52.5781 Q649.6875,52.5781 649,53.6563 Q648.3125,54.7188 648.3125,56.8125 Q648.3125,58.9063 649,59.9844 Q649.6875,61.0469 651.0313,61.0469 Q651.6563,61.0469 652.25,60.7813 Q652.8438,60.5 653.4688,59.9219 L653.4688,62.6406 Z "/><text fill="#000000" font-family="sans-serif" font-size="12" lengthAdjust="spacingAndGlyphs" textLength="59" x="664.5" y="61.1543">ClamPizza</text><line style="stroke: #A80036; stroke-width: 1.5;" x1="636.5" x2="725.5" y1="73" y2="73"/><line style="stroke: #A80036; stroke-width: 1.5;" x1="636.5" x2="725.5" y1="81" y2="81"/><!--MD5=[14abdaa4848c9d525b4d0c1a25420581]
class factory3.Factory--><rect codeLine="6" fill="#FEFECE" filter="url(#fdmstux2pfjj0)" height="48" id="factory3.Factory" style="stroke: #A80036; stroke-width: 1.5;" width="78" x="174" y="41"/><ellipse cx="189" cy="57" fill="#ADD1B2" rx="11" ry="11" style="stroke: #A80036; stroke-width: 1.0;"/><path d="M191.9688,62.6406 Q191.3906,62.9375 190.75,63.0781 Q190.1094,63.2344 189.4063,63.2344 Q186.9063,63.2344 185.5781,61.5938 Q184.2656,59.9375 184.2656,56.8125 Q184.2656,53.6875 185.5781,52.0313 Q186.9063,50.375 189.4063,50.375 Q190.1094,50.375 190.75,50.5313 Q191.4063,50.6875 191.9688,50.9844 L191.9688,53.7031 Q191.3438,53.125 190.75,52.8594 Q190.1563,52.5781 189.5313,52.5781 Q188.1875,52.5781 187.5,53.6563 Q186.8125,54.7188 186.8125,56.8125 Q186.8125,58.9063 187.5,59.9844 Q188.1875,61.0469 189.5313,61.0469 Q190.1563,61.0469 190.75,60.7813 Q191.3438,60.5 191.9688,59.9219 L191.9688,62.6406 Z "/><text fill="#000000" font-family="sans-serif" font-size="12" lengthAdjust="spacingAndGlyphs" textLength="46" x="203" y="61.1543">Factory</text><line style="stroke: #A80036; stroke-width: 1.5;" x1="175" x2="251" y1="73" y2="73"/><line style="stroke: #A80036; stroke-width: 1.5;" x1="175" x2="251" y1="81" y2="81"/><!--MD5=[8a35a0b9c44aafae1b1dbab7bedc9ff2]
class factory3.MainFactory--><rect codeLine="7" fill="#FEFECE" filter="url(#fdmstux2pfjj0)" height="48" id="factory3.MainFactory" style="stroke: #A80036; stroke-width: 1.5;" width="107" x="31.5" y="41"/><ellipse cx="46.5" cy="57" fill="#ADD1B2" rx="11" ry="11" style="stroke: #A80036; stroke-width: 1.0;"/><path d="M49.4688,62.6406 Q48.8906,62.9375 48.25,63.0781 Q47.6094,63.2344 46.9063,63.2344 Q44.4063,63.2344 43.0781,61.5938 Q41.7656,59.9375 41.7656,56.8125 Q41.7656,53.6875 43.0781,52.0313 Q44.4063,50.375 46.9063,50.375 Q47.6094,50.375 48.25,50.5313 Q48.9063,50.6875 49.4688,50.9844 L49.4688,53.7031 Q48.8438,53.125 48.25,52.8594 Q47.6563,52.5781 47.0313,52.5781 Q45.6875,52.5781 45,53.6563 Q44.3125,54.7188 44.3125,56.8125 Q44.3125,58.9063 45,59.9844 Q45.6875,61.0469 47.0313,61.0469 Q47.6563,61.0469 48.25,60.7813 Q48.8438,60.5 49.4688,59.9219 L49.4688,62.6406 Z "/><text fill="#000000" font-family="sans-serif" font-size="12" lengthAdjust="spacingAndGlyphs" textLength="75" x="60.5" y="61.1543">MainFactory</text><line style="stroke: #A80036; stroke-width: 1.5;" x1="32.5" x2="137.5" y1="73" y2="73"/><line style="stroke: #A80036; stroke-width: 1.5;" x1="32.5" x2="137.5" y1="81" y2="81"/><!--MD5=[ddbab4f80584d71361c5d5fb16614845]
class factory3.AbstractFactory--><rect codeLine="8" fill="#FEFECE" filter="url(#fdmstux2pfjj0)" height="48" id="factory3.AbstractFactory" style="stroke: #A80036; stroke-width: 1.5;" width="131" x="147.5" y="149"/><ellipse cx="162.5" cy="165" fill="#B4A7E5" rx="11" ry="11" style="stroke: #A80036; stroke-width: 1.0;"/><path d="M158.4219,160.7656 L158.4219,158.6094 L165.8125,158.6094 L165.8125,160.7656 L163.3438,160.7656 L163.3438,168.8438 L165.8125,168.8438 L165.8125,171 L158.4219,171 L158.4219,168.8438 L160.8906,168.8438 L160.8906,160.7656 L158.4219,160.7656 Z "/><text fill="#000000" font-family="sans-serif" font-size="12" font-style="italic" lengthAdjust="spacingAndGlyphs" textLength="99" x="176.5" y="169.1543">AbstractFactory</text><line style="stroke: #A80036; stroke-width: 1.5;" x1="148.5" x2="277.5" y1="181" y2="181"/><line style="stroke: #A80036; stroke-width: 1.5;" x1="148.5" x2="277.5" y1="189" y2="189"/><!--MD5=[e68df8f614c3815c16d0f8e7510b7c00]
class factory3.Pizza--><rect codeLine="9" fill="#FEFECE" filter="url(#fdmstux2pfjj0)" height="48" id="factory3.Pizza" style="stroke: #A80036; stroke-width: 1.5;" width="62" x="717" y="149"/><ellipse cx="732" cy="165" fill="#B4A7E5" rx="11" ry="11" style="stroke: #A80036; stroke-width: 1.0;"/><path d="M727.9219,160.7656 L727.9219,158.6094 L735.3125,158.6094 L735.3125,160.7656 L732.8438,160.7656 L732.8438,168.8438 L735.3125,168.8438 L735.3125,171 L727.9219,171 L727.9219,168.8438 L730.3906,168.8438 L730.3906,160.7656 L727.9219,160.7656 Z "/><text fill="#000000" font-family="sans-serif" font-size="12" font-style="italic" lengthAdjust="spacingAndGlyphs" textLength="30" x="746" y="169.1543">Pizza</text><line style="stroke: #A80036; stroke-width: 1.5;" x1="718" x2="778" y1="181" y2="181"/><line style="stroke: #A80036; stroke-width: 1.5;" x1="718" x2="778" y1="189" y2="189"/><!--MD5=[847abee7c425b321224712f0477f186e]
class factory3.Sandwich--><rect codeLine="10" fill="#FEFECE" filter="url(#fdmstux2pfjj0)" height="48" id="factory3.Sandwich" style="stroke: #A80036; stroke-width: 1.5;" width="92" x="400" y="149"/><ellipse cx="415" cy="165" fill="#B4A7E5" rx="11" ry="11" style="stroke: #A80036; stroke-width: 1.0;"/><path d="M410.9219,160.7656 L410.9219,158.6094 L418.3125,158.6094 L418.3125,160.7656 L415.8438,160.7656 L415.8438,168.8438 L418.3125,168.8438 L418.3125,171 L410.9219,171 L410.9219,168.8438 L413.3906,168.8438 L413.3906,160.7656 L410.9219,160.7656 Z "/><text fill="#000000" font-family="sans-serif" font-size="12" font-style="italic" lengthAdjust="spacingAndGlyphs" textLength="60" x="429" y="169.1543">Sandwich</text><line style="stroke: #A80036; stroke-width: 1.5;" x1="401" x2="491" y1="181" y2="181"/><line style="stroke: #A80036; stroke-width: 1.5;" x1="401" x2="491" y1="189" y2="189"/><!--MD5=[5c51b83b7cd44bc14b7dd18dca9f980e]
link factory3.CheesePizza to java.lang.Override--><path codeLine="11" d="M858.86,89.06 C867.98,94.36 877.44,100.17 886,106 C903.67,118.04 922.31,132.87 937.35,145.41 " fill="none" id="factory3.CheesePizza-to-java.lang.Override" style="stroke: #A80036; stroke-width: 1.0; stroke-dasharray: 7.0,7.0;"/><polygon fill="#A80036" points="941.49,148.88,937.1691,140.0296,937.6606,145.665,932.0252,146.1566,941.49,148.88" style="stroke: #A80036; stroke-width: 1.0;"/><!--MD5=[3db2805e8bc714267ebcb358e02b60e6]
link factory3.CheesePizza to factory3.Pizza--><path codeLine="12" d="M801.25,89 C793.28,101.42 783.21,117.11 773.98,131.49 " fill="none" id="factory3.CheesePizza-to-factory3.Pizza" style="stroke: #A80036; stroke-width: 1.0;"/><polygon fill="none" points="779.65,135.62,762.96,148.68,767.87,128.06,779.65,135.62" style="stroke: #A80036; stroke-width: 1.0;"/><!--MD5=[3957b44517c3301fe27e973cbe03f58c]
link factory3.CheeseSandwich to java.lang.Override--><path codeLine="13" d="M600.07,85.56 C606.1,86.87 612.14,88.05 618,89 C676.9,98.56 830.37,84.39 886,106 C907.67,114.42 928.05,130.77 943.08,145.09 " fill="none" id="factory3.CheeseSandwich-to-java.lang.Override" style="stroke: #A80036; stroke-width: 1.0; stroke-dasharray: 7.0,7.0;"/><polygon fill="#A80036" points="946.78,148.68,943.1148,139.5385,943.1948,145.1948,937.5385,145.2748,946.78,148.68" style="stroke: #A80036; stroke-width: 1.0;"/><!--MD5=[8d67cd95b344cd62c537d721486cc1b3]
link factory3.CheeseSandwich to factory3.Sandwich--><path codeLine="14" d="M512.56,89 C502.27,101.83 489.18,118.16 477.33,132.93 " fill="none" id="factory3.CheeseSandwich-to-factory3.Sandwich" style="stroke: #A80036; stroke-width: 1.0;"/><polygon fill="none" points="482.67,137.45,464.7,148.68,471.75,128.7,482.67,137.45" style="stroke: #A80036; stroke-width: 1.0;"/><!--MD5=[f8d0bb7241789efbb71a4c4ee1e5e6c4]
link factory3.ChickenSandwich to java.lang.Override--><path codeLine="15" d="M427.33,85.82 C433.27,87.05 439.22,88.14 445,89 C542.01,103.37 794.15,71.62 886,106 C907.93,114.21 928.45,130.74 943.48,145.2 " fill="none" id="factory3.ChickenSandwich-to-java.lang.Override" style="stroke: #A80036; stroke-width: 1.0; stroke-dasharray: 7.0,7.0;"/><polygon fill="#A80036" points="947.18,148.82,943.5518,139.6638,943.6089,145.3204,937.9524,145.3775,947.18,148.82" style="stroke: #A80036; stroke-width: 1.0;"/><!--MD5=[bbd7d191f2d2e3dd73ef16809efca26a]
link factory3.ChickenSandwich to factory3.Sandwich--><path codeLine="16" d="M376.31,89 C387.08,101.83 400.79,118.16 413.2,132.93 " fill="none" id="factory3.ChickenSandwich-to-factory3.Sandwich" style="stroke: #A80036; stroke-width: 1.0;"/><polygon fill="none" points="418.92,128.86,426.42,148.68,408.2,137.86,418.92,128.86" style="stroke: #A80036; stroke-width: 1.0;"/><!--MD5=[5f0185666bcde077e076a7717f4d50a5]
link factory3.ClamPizza to java.lang.Override--><path codeLine="17" d="M726.77,83.84 C732.84,85.8 739.03,87.59 745,89 C806.42,103.54 827.83,81.49 886,106 C907.27,114.96 927.51,131.15 942.56,145.24 " fill="none" id="factory3.ClamPizza-to-java.lang.Override" style="stroke: #A80036; stroke-width: 1.0; stroke-dasharray: 7.0,7.0;"/><polygon fill="#A80036" points="946.27,148.78,942.5132,139.6758,942.65,145.331,936.9948,145.4678,946.27,148.78" style="stroke: #A80036; stroke-width: 1.0;"/><!--MD5=[6629db5a6c826d2a0dd55aaed188f780]
link factory3.ClamPizza to factory3.Pizza--><path codeLine="18" d="M695.54,89 C703.39,101.42 713.3,117.11 722.4,131.49 " fill="none" id="factory3.ClamPizza-to-factory3.Pizza" style="stroke: #A80036; stroke-width: 1.0;"/><polygon fill="none" points="728.49,128.03,733.26,148.68,716.66,135.51,728.49,128.03" style="stroke: #A80036; stroke-width: 1.0;"/><!--MD5=[0fa9945d698611593ef35e16e03d4b94]
link factory3.Factory to java.lang.Override--><path codeLine="19" d="M252.3,83.95 C258.13,85.99 264.15,87.78 270,89 C337.03,102.98 821.74,82.35 886,106 C907.98,114.09 928.5,130.62 943.51,145.11 " fill="none" id="factory3.Factory-to-java.lang.Override" style="stroke: #A80036; stroke-width: 1.0; stroke-dasharray: 7.0,7.0;"/><polygon fill="#A80036" points="947.21,148.74,943.6002,139.5765,943.646,145.2332,937.9893,145.279,947.21,148.74" style="stroke: #A80036; stroke-width: 1.0;"/><!--MD5=[0845e6d500328dfc8d7e375d2bfe46f7]
link factory3.Factory to factory3.AbstractFactory--><path codeLine="20" d="M213,89 C213,100.59 213,115.03 213,128.6 " fill="none" id="factory3.Factory-to-factory3.AbstractFactory" style="stroke: #A80036; stroke-width: 1.0;"/><polygon fill="none" points="220,128.68,213,148.68,206,128.68,220,128.68" style="stroke: #A80036; stroke-width: 1.0;"/><!--MD5=[b68318ce5a70086d335fc8feecb7b739]
@startuml
annotation java.lang.Override
class factory3.CheesePizza
class factory3.CheeseSandwich
class factory3.ChickenSandwich
class factory3.ClamPizza
class factory3.Factory
class factory3.MainFactory
interface factory3.AbstractFactory
interface factory3.Pizza
interface factory3.Sandwich
factory3.CheesePizza ..> java.lang.Override
factory3.CheesePizza - -|> factory3.Pizza
factory3.CheeseSandwich ..> java.lang.Override
factory3.CheeseSandwich - -|> factory3.Sandwich
factory3.ChickenSandwich ..> java.lang.Override
factory3.ChickenSandwich - -|> factory3.Sandwich
factory3.ClamPizza ..> java.lang.Override
factory3.ClamPizza - -|> factory3.Pizza
factory3.Factory ..> java.lang.Override
factory3.Factory - -|> factory3.AbstractFactory
@enduml

PlantUML version 1.2020.18(Wed Sep 30 22:40:44 EEST 2020)
(GPL source distribution)
Java Runtime: OpenJDK Runtime Environment
JVM: OpenJDK 64-Bit Server VM
Default Encoding: UTF-8
Language: en
Country: US
--></g></svg>