<?xml version="1.0" encoding="UTF-8" standalone="no"?><svg xmlns="http://www.w3.org/2000/svg" xmlns:xlink="http://www.w3.org/1999/xlink" contentScriptType="application/ecmascript" contentStyleType="text/css" height="870px" preserveAspectRatio="none" style="width:836px;height:870px;" version="1.1" viewBox="0 0 836 870" width="836px" zoomAndPan="magnify"><defs><filter height="300%" id="f4wjki5olp9ya" width="300%" x="-1" y="-1"><feGaussianBlur result="blurOut" stdDeviation="4.0"/><feColorMatrix in="blurOut" result="blurOut2" type="matrix" values="0 0 0 0 0 0 0 0 0 0 0 0 0 0 0 0 0 0 .4 0"/><feOffset dx="8.0" dy="8.0" in="blurOut2" result="blurOut3"/><feBlend in="SourceGraphic" in2="blurOut3" mode="normal"/></filter></defs><g><!--cluster upDownCast--><polygon fill="#FFFFFF" filter="url(#f4wjki5olp9ya)" points="28,32,240,32,254,76.5938,792,76.5938,792,846,28,846,28,32" style="stroke: #000000; stroke-width: 3.0;"/><line style="stroke: #000000; stroke-width: 3.0;" x1="28" x2="254" y1="76.5938" y2="76.5938"/><text fill="#000000" font-family="sans-serif" font-size="28" font-weight="bold" lengthAdjust="spacingAndGlyphs" textLength="200" x="36" y="61.9902">upDownCast</text><!--class upDownCast.A1--><rect fill="#FEFECE" filter="url(#f4wjki5olp9ya)" height="96" id="upDownCast.A1" style="stroke: #A80036; stroke-width: 3.0;" width="96" x="680" y="734"/><ellipse cx="710" cy="766" fill="#ADD1B2" rx="22" ry="22" style="stroke: #A80036; stroke-width: 2.0;"/><path d="M715.9375,777.2813 Q714.7813,777.875 713.5,778.1563 Q712.2188,778.4688 710.8125,778.4688 Q705.8125,778.4688 703.1563,775.1875 Q700.5313,771.875 700.5313,765.625 Q700.5313,759.375 703.1563,756.0625 Q705.8125,752.75 710.8125,752.75 Q712.2188,752.75 713.5,753.0625 Q714.8125,753.375 715.9375,753.9688 L715.9375,759.4063 Q714.6875,758.25 713.5,757.7188 Q712.3125,757.1563 711.0625,757.1563 Q708.375,757.1563 707,759.3125 Q705.625,761.4375 705.625,765.625 Q705.625,769.8125 707,771.9688 Q708.375,774.0938 711.0625,774.0938 Q712.3125,774.0938 713.5,773.5625 Q714.6875,773 715.9375,771.8438 L715.9375,777.2813 Z "/><text fill="#000000" font-family="sans-serif" font-size="24" lengthAdjust="spacingAndGlyphs" textLength="32" x="738" y="774.3086">A1</text><line style="stroke: #A80036; stroke-width: 3.0;" x1="682" x2="774" y1="798" y2="798"/><line style="stroke: #A80036; stroke-width: 3.0;" x1="682" x2="774" y1="814" y2="814"/><!--class upDownCast.A2--><rect fill="#FEFECE" filter="url(#f4wjki5olp9ya)" height="96" id="upDownCast.A2" style="stroke: #A80036; stroke-width: 3.0;" width="96" x="680" y="518"/><ellipse cx="710" cy="550" fill="#ADD1B2" rx="22" ry="22" style="stroke: #A80036; stroke-width: 2.0;"/><path d="M715.9375,561.2813 Q714.7813,561.875 713.5,562.1563 Q712.2188,562.4688 710.8125,562.4688 Q705.8125,562.4688 703.1563,559.1875 Q700.5313,555.875 700.5313,549.625 Q700.5313,543.375 703.1563,540.0625 Q705.8125,536.75 710.8125,536.75 Q712.2188,536.75 713.5,537.0625 Q714.8125,537.375 715.9375,537.9688 L715.9375,543.4063 Q714.6875,542.25 713.5,541.7188 Q712.3125,541.1563 711.0625,541.1563 Q708.375,541.1563 707,543.3125 Q705.625,545.4375 705.625,549.625 Q705.625,553.8125 707,555.9688 Q708.375,558.0938 711.0625,558.0938 Q712.3125,558.0938 713.5,557.5625 Q714.6875,557 715.9375,555.8438 L715.9375,561.2813 Z "/><text fill="#000000" font-family="sans-serif" font-size="24" lengthAdjust="spacingAndGlyphs" textLength="32" x="738" y="558.3086">A2</text><line style="stroke: #A80036; stroke-width: 3.0;" x1="682" x2="774" y1="582" y2="582"/><line style="stroke: #A80036; stroke-width: 3.0;" x1="682" x2="774" y1="598" y2="598"/><!--class upDownCast.A3--><rect fill="#FEFECE" filter="url(#f4wjki5olp9ya)" height="96" id="upDownCast.A3" style="stroke: #A80036; stroke-width: 3.0;" width="96" x="680" y="302"/><ellipse cx="710" cy="334" fill="#ADD1B2" rx="22" ry="22" style="stroke: #A80036; stroke-width: 2.0;"/><path d="M715.9375,345.2813 Q714.7813,345.875 713.5,346.1563 Q712.2188,346.4688 710.8125,346.4688 Q705.8125,346.4688 703.1563,343.1875 Q700.5313,339.875 700.5313,333.625 Q700.5313,327.375 703.1563,324.0625 Q705.8125,320.75 710.8125,320.75 Q712.2188,320.75 713.5,321.0625 Q714.8125,321.375 715.9375,321.9688 L715.9375,327.4063 Q714.6875,326.25 713.5,325.7188 Q712.3125,325.1563 711.0625,325.1563 Q708.375,325.1563 707,327.3125 Q705.625,329.4375 705.625,333.625 Q705.625,337.8125 707,339.9688 Q708.375,342.0938 711.0625,342.0938 Q712.3125,342.0938 713.5,341.5625 Q714.6875,341 715.9375,339.8438 L715.9375,345.2813 Z "/><text fill="#000000" font-family="sans-serif" font-size="24" lengthAdjust="spacingAndGlyphs" textLength="32" x="738" y="342.3086">A3</text><line style="stroke: #A80036; stroke-width: 3.0;" x1="682" x2="774" y1="366" y2="366"/><line style="stroke: #A80036; stroke-width: 3.0;" x1="682" x2="774" y1="382" y2="382"/><!--class upDownCast.A4--><rect fill="#FEFECE" filter="url(#f4wjki5olp9ya)" height="96" id="upDownCast.A4" style="stroke: #A80036; stroke-width: 3.0;" width="96" x="680" y="86"/><ellipse cx="710" cy="118" fill="#ADD1B2" rx="22" ry="22" style="stroke: #A80036; stroke-width: 2.0;"/><path d="M715.9375,129.2813 Q714.7813,129.875 713.5,130.1563 Q712.2188,130.4688 710.8125,130.4688 Q705.8125,130.4688 703.1563,127.1875 Q700.5313,123.875 700.5313,117.625 Q700.5313,111.375 703.1563,108.0625 Q705.8125,104.75 710.8125,104.75 Q712.2188,104.75 713.5,105.0625 Q714.8125,105.375 715.9375,105.9688 L715.9375,111.4063 Q714.6875,110.25 713.5,109.7188 Q712.3125,109.1563 711.0625,109.1563 Q708.375,109.1563 707,111.3125 Q705.625,113.4375 705.625,117.625 Q705.625,121.8125 707,123.9688 Q708.375,126.0938 711.0625,126.0938 Q712.3125,126.0938 713.5,125.5625 Q714.6875,125 715.9375,123.8438 L715.9375,129.2813 Z "/><text fill="#000000" font-family="sans-serif" font-size="24" lengthAdjust="spacingAndGlyphs" textLength="32" x="738" y="126.3086">A4</text><line style="stroke: #A80036; stroke-width: 3.0;" x1="682" x2="774" y1="150" y2="150"/><line style="stroke: #A80036; stroke-width: 3.0;" x1="682" x2="774" y1="166" y2="166"/><!--class upDownCast.MainA--><rect fill="#FEFECE" filter="url(#f4wjki5olp9ya)" height="96" id="upDownCast.MainA" style="stroke: #A80036; stroke-width: 3.0;" width="138" x="471" y="86"/><ellipse cx="501" cy="118" fill="#ADD1B2" rx="22" ry="22" style="stroke: #A80036; stroke-width: 2.0;"/><path d="M506.9375,129.2813 Q505.7813,129.875 504.5,130.1563 Q503.2188,130.4688 501.8125,130.4688 Q496.8125,130.4688 494.1563,127.1875 Q491.5313,123.875 491.5313,117.625 Q491.5313,111.375 494.1563,108.0625 Q496.8125,104.75 501.8125,104.75 Q503.2188,104.75 504.5,105.0625 Q505.8125,105.375 506.9375,105.9688 L506.9375,111.4063 Q505.6875,110.25 504.5,109.7188 Q503.3125,109.1563 502.0625,109.1563 Q499.375,109.1563 498,111.3125 Q496.625,113.4375 496.625,117.625 Q496.625,121.8125 498,123.9688 Q499.375,126.0938 502.0625,126.0938 Q503.3125,126.0938 504.5,125.5625 Q505.6875,125 506.9375,123.8438 L506.9375,129.2813 Z "/><text fill="#000000" font-family="sans-serif" font-size="24" lengthAdjust="spacingAndGlyphs" textLength="74" x="529" y="126.3086">MainA</text><line style="stroke: #A80036; stroke-width: 3.0;" x1="473" x2="607" y1="150" y2="150"/><line style="stroke: #A80036; stroke-width: 3.0;" x1="473" x2="607" y1="166" y2="166"/><!--class upDownCast.MyAnimal--><rect fill="#FEFECE" filter="url(#f4wjki5olp9ya)" height="96" id="upDownCast.MyAnimal" style="stroke: #A80036; stroke-width: 3.0;" width="178" x="243" y="518"/><ellipse cx="273" cy="550" fill="#ADD1B2" rx="22" ry="22" style="stroke: #A80036; stroke-width: 2.0;"/><path d="M278.9375,561.2813 Q277.7813,561.875 276.5,562.1563 Q275.2188,562.4688 273.8125,562.4688 Q268.8125,562.4688 266.1563,559.1875 Q263.5313,555.875 263.5313,549.625 Q263.5313,543.375 266.1563,540.0625 Q268.8125,536.75 273.8125,536.75 Q275.2188,536.75 276.5,537.0625 Q277.8125,537.375 278.9375,537.9688 L278.9375,543.4063 Q277.6875,542.25 276.5,541.7188 Q275.3125,541.1563 274.0625,541.1563 Q271.375,541.1563 270,543.3125 Q268.625,545.4375 268.625,549.625 Q268.625,553.8125 270,555.9688 Q271.375,558.0938 274.0625,558.0938 Q275.3125,558.0938 276.5,557.5625 Q277.6875,557 278.9375,555.8438 L278.9375,561.2813 Z "/><text fill="#000000" font-family="sans-serif" font-size="24" lengthAdjust="spacingAndGlyphs" textLength="114" x="301" y="558.3086">MyAnimal</text><line style="stroke: #A80036; stroke-width: 3.0;" x1="245" x2="419" y1="582" y2="582"/><line style="stroke: #A80036; stroke-width: 3.0;" x1="245" x2="419" y1="598" y2="598"/><!--class upDownCast.MyCat--><rect fill="#FEFECE" filter="url(#f4wjki5olp9ya)" height="96" id="upDownCast.MyCat" style="stroke: #A80036; stroke-width: 3.0;" width="138" x="263" y="86"/><ellipse cx="293" cy="118" fill="#ADD1B2" rx="22" ry="22" style="stroke: #A80036; stroke-width: 2.0;"/><path d="M298.9375,129.2813 Q297.7813,129.875 296.5,130.1563 Q295.2188,130.4688 293.8125,130.4688 Q288.8125,130.4688 286.1563,127.1875 Q283.5313,123.875 283.5313,117.625 Q283.5313,111.375 286.1563,108.0625 Q288.8125,104.75 293.8125,104.75 Q295.2188,104.75 296.5,105.0625 Q297.8125,105.375 298.9375,105.9688 L298.9375,111.4063 Q297.6875,110.25 296.5,109.7188 Q295.3125,109.1563 294.0625,109.1563 Q291.375,109.1563 290,111.3125 Q288.625,113.4375 288.625,117.625 Q288.625,121.8125 290,123.9688 Q291.375,126.0938 294.0625,126.0938 Q295.3125,126.0938 296.5,125.5625 Q297.6875,125 298.9375,123.8438 L298.9375,129.2813 Z "/><text fill="#000000" font-family="sans-serif" font-size="24" lengthAdjust="spacingAndGlyphs" textLength="74" x="321" y="126.3086">MyCat</text><line style="stroke: #A80036; stroke-width: 3.0;" x1="265" x2="399" y1="150" y2="150"/><line style="stroke: #A80036; stroke-width: 3.0;" x1="265" x2="399" y1="166" y2="166"/><!--class upDownCast.MyDog--><rect fill="#FEFECE" filter="url(#f4wjki5olp9ya)" height="96" id="upDownCast.MyDog" style="stroke: #A80036; stroke-width: 3.0;" width="146" x="259" y="302"/><ellipse cx="289" cy="334" fill="#ADD1B2" rx="22" ry="22" style="stroke: #A80036; stroke-width: 2.0;"/><path d="M294.9375,345.2813 Q293.7813,345.875 292.5,346.1563 Q291.2188,346.4688 289.8125,346.4688 Q284.8125,346.4688 282.1563,343.1875 Q279.5313,339.875 279.5313,333.625 Q279.5313,327.375 282.1563,324.0625 Q284.8125,320.75 289.8125,320.75 Q291.2188,320.75 292.5,321.0625 Q293.8125,321.375 294.9375,321.9688 L294.9375,327.4063 Q293.6875,326.25 292.5,325.7188 Q291.3125,325.1563 290.0625,325.1563 Q287.375,325.1563 286,327.3125 Q284.625,329.4375 284.625,333.625 Q284.625,337.8125 286,339.9688 Q287.375,342.0938 290.0625,342.0938 Q291.3125,342.0938 292.5,341.5625 Q293.6875,341 294.9375,339.8438 L294.9375,345.2813 Z "/><text fill="#000000" font-family="sans-serif" font-size="24" lengthAdjust="spacingAndGlyphs" textLength="82" x="317" y="342.3086">MyDog</text><line style="stroke: #A80036; stroke-width: 3.0;" x1="261" x2="403" y1="366" y2="366"/><line style="stroke: #A80036; stroke-width: 3.0;" x1="261" x2="403" y1="382" y2="382"/><!--class upDownCast.MyObject--><rect fill="#FEFECE" filter="url(#f4wjki5olp9ya)" height="96" id="upDownCast.MyObject" style="stroke: #A80036; stroke-width: 3.0;" width="176" x="244" y="734"/><ellipse cx="274" cy="766" fill="#ADD1B2" rx="22" ry="22" style="stroke: #A80036; stroke-width: 2.0;"/><path d="M279.9375,777.2813 Q278.7813,777.875 277.5,778.1563 Q276.2188,778.4688 274.8125,778.4688 Q269.8125,778.4688 267.1563,775.1875 Q264.5313,771.875 264.5313,765.625 Q264.5313,759.375 267.1563,756.0625 Q269.8125,752.75 274.8125,752.75 Q276.2188,752.75 277.5,753.0625 Q278.8125,753.375 279.9375,753.9688 L279.9375,759.4063 Q278.6875,758.25 277.5,757.7188 Q276.3125,757.1563 275.0625,757.1563 Q272.375,757.1563 271,759.3125 Q269.625,761.4375 269.625,765.625 Q269.625,769.8125 271,771.9688 Q272.375,774.0938 275.0625,774.0938 Q276.3125,774.0938 277.5,773.5625 Q278.6875,773 279.9375,771.8438 L279.9375,777.2813 Z "/><text fill="#000000" font-family="sans-serif" font-size="24" lengthAdjust="spacingAndGlyphs" textLength="112" x="302" y="774.3086">MyObject</text><line style="stroke: #A80036; stroke-width: 3.0;" x1="246" x2="418" y1="798" y2="798"/><line style="stroke: #A80036; stroke-width: 3.0;" x1="246" x2="418" y1="814" y2="814"/><!--class upDownCast.MyTest--><rect fill="#FEFECE" filter="url(#f4wjki5olp9ya)" height="96" id="upDownCast.MyTest" style="stroke: #A80036; stroke-width: 3.0;" width="150" x="43" y="86"/><ellipse cx="73" cy="118" fill="#ADD1B2" rx="22" ry="22" style="stroke: #A80036; stroke-width: 2.0;"/><path d="M78.9375,129.2813 Q77.7813,129.875 76.5,130.1563 Q75.2188,130.4688 73.8125,130.4688 Q68.8125,130.4688 66.1563,127.1875 Q63.5313,123.875 63.5313,117.625 Q63.5313,111.375 66.1563,108.0625 Q68.8125,104.75 73.8125,104.75 Q75.2188,104.75 76.5,105.0625 Q77.8125,105.375 78.9375,105.9688 L78.9375,111.4063 Q77.6875,110.25 76.5,109.7188 Q75.3125,109.1563 74.0625,109.1563 Q71.375,109.1563 70,111.3125 Q68.625,113.4375 68.625,117.625 Q68.625,121.8125 70,123.9688 Q71.375,126.0938 74.0625,126.0938 Q75.3125,126.0938 76.5,125.5625 Q77.6875,125 78.9375,123.8438 L78.9375,129.2813 Z "/><text fill="#000000" font-family="sans-serif" font-size="24" lengthAdjust="spacingAndGlyphs" textLength="86" x="101" y="126.3086">MyTest</text><line style="stroke: #A80036; stroke-width: 3.0;" x1="45" x2="191" y1="150" y2="150"/><line style="stroke: #A80036; stroke-width: 3.0;" x1="45" x2="191" y1="166" y2="166"/><!--link upDownCast.A2 to upDownCast.A1--><path d="M728,614.4746 C728,637.8198 728,666.5612 728,693.6054 " fill="none" id="upDownCast.A2-upDownCast.A1" style="stroke: #A80036; stroke-width: 2.0;"/><polygon fill="none" points="742.0002,693.6872,728,733.6872,714.0002,693.6872,742.0002,693.6872" style="stroke: #A80036; stroke-width: 2.0;"/><!--link upDownCast.A3 to upDownCast.A2--><path d="M728,398.4746 C728,421.8198 728,450.5612 728,477.6054 " fill="none" id="upDownCast.A3-upDownCast.A2" style="stroke: #A80036; stroke-width: 2.0;"/><polygon fill="none" points="742.0002,477.6872,728,517.6872,714.0002,477.6872,742.0002,477.6872" style="stroke: #A80036; stroke-width: 2.0;"/><!--link upDownCast.A4 to upDownCast.A3--><path d="M728,182.4746 C728,205.8198 728,234.5612 728,261.6054 " fill="none" id="upDownCast.A4-upDownCast.A3" style="stroke: #A80036; stroke-width: 2.0;"/><polygon fill="none" points="742.0002,261.6872,728,301.6872,714.0002,261.6872,742.0002,261.6872" style="stroke: #A80036; stroke-width: 2.0;"/><!--link upDownCast.MyAnimal to upDownCast.MyObject--><path d="M332,614.4746 C332,637.8198 332,666.5612 332,693.6054 " fill="none" id="upDownCast.MyAnimal-upDownCast.MyObject" style="stroke: #A80036; stroke-width: 2.0;"/><polygon fill="none" points="346.0002,693.6872,332,733.6872,318.0002,693.6872,346.0002,693.6872" style="stroke: #A80036; stroke-width: 2.0;"/><!--link upDownCast.MyCat to upDownCast.MyDog--><path d="M332,182.4746 C332,205.8198 332,234.5612 332,261.6054 " fill="none" id="upDownCast.MyCat-upDownCast.MyDog" style="stroke: #A80036; stroke-width: 2.0;"/><polygon fill="none" points="346.0002,261.6872,332,301.6872,318.0002,261.6872,346.0002,261.6872" style="stroke: #A80036; stroke-width: 2.0;"/><!--link upDownCast.MyDog to upDownCast.MyAnimal--><path d="M332,398.4746 C332,421.8198 332,450.5612 332,477.6054 " fill="none" id="upDownCast.MyDog-upDownCast.MyAnimal" style="stroke: #A80036; stroke-width: 2.0;"/><polygon fill="none" points="346.0002,477.6872,332,517.6872,318.0002,477.6872,346.0002,477.6872" style="stroke: #A80036; stroke-width: 2.0;"/><!--
@startuml
scale 2
class upDownCast.A1
class upDownCast.A2
class upDownCast.A3
class upDownCast.A4
class upDownCast.MainA
class upDownCast.MyAnimal
class upDownCast.MyCat
class upDownCast.MyDog
class upDownCast.MyObject
class upDownCast.MyTest
upDownCast.A2 - -|> upDownCast.A1
upDownCast.A3 - -|> upDownCast.A2
upDownCast.A4 - -|> upDownCast.A3
upDownCast.MyAnimal - -|> upDownCast.MyObject
upDownCast.MyCat - -|> upDownCast.MyDog
upDownCast.MyDog - -|> upDownCast.MyAnimal
@enduml

PlantUML version 1.2018.10(Sat Aug 25 20:02:59 EEST 2018)
(GPL source distribution)
Java Runtime: OpenJDK Runtime Environment
JVM: OpenJDK 64-Bit Server VM
Java Version: 11.0.2+9-Debian-3
Operating System: Linux
OS Version: 4.19.0-kali1-amd64
Default Encoding: UTF-8
Language: en
Country: US
--></g></svg>