<?xml version="1.0" encoding="UTF-8" standalone="no"?><svg xmlns="http://www.w3.org/2000/svg" xmlns:xlink="http://www.w3.org/1999/xlink" contentScriptType="application/ecmascript" contentStyleType="text/css" height="523px" preserveAspectRatio="none" style="width:1474px;height:523px;" version="1.1" viewBox="0 0 1474 523" width="1474px" zoomAndPan="magnify"><defs/><g><text fill="#000000" font-family="sans-serif" font-size="18" lengthAdjust="spacingAndGlyphs" textLength="136" x="671" y="16.708">factory method</text><!--cluster myFactory--><polygon fill="#FFFFFF" points="14,36.9531,102,36.9531,109,59.25,1452,59.25,1452,511.9531,14,511.9531,14,36.9531" style="stroke: #000000; stroke-width: 1.5;"/><line style="stroke: #000000; stroke-width: 1.5;" x1="14" x2="109" y1="59.25" y2="59.25"/><text fill="#000000" font-family="sans-serif" font-size="14" font-weight="bold" lengthAdjust="spacingAndGlyphs" textLength="82" x="18" y="51.9482">myFactory</text><!--class Creator1--><rect fill="#FEFECE" height="65.4609" id="Creator1" style="stroke: #A80036; stroke-width: 1.5;" width="451" x="993.5" y="188.9531"/><ellipse cx="1175.25" cy="204.9531" fill="#ADD1B2" rx="11" ry="11" style="stroke: #A80036; stroke-width: 1.0;"/><path d="M1178.2188,210.5938 Q1177.6406,210.8906 1177,211.0313 Q1176.3594,211.1875 1175.6563,211.1875 Q1173.1563,211.1875 1171.8281,209.5469 Q1170.5156,207.8906 1170.5156,204.7656 Q1170.5156,201.6406 1171.8281,199.9844 Q1173.1563,198.3281 1175.6563,198.3281 Q1176.3594,198.3281 1177,198.4844 Q1177.6563,198.6406 1178.2188,198.9375 L1178.2188,201.6563 Q1177.5938,201.0781 1177,200.8125 Q1176.4063,200.5313 1175.7813,200.5313 Q1174.4375,200.5313 1173.75,201.6094 Q1173.0625,202.6719 1173.0625,204.7656 Q1173.0625,206.8594 1173.75,207.9375 Q1174.4375,209 1175.7813,209 Q1176.4063,209 1177,208.7344 Q1177.5938,208.4531 1178.2188,207.875 L1178.2188,210.5938 Z "/><text fill="#FF0000" font-family="sans-serif" font-size="16" font-weight="bold" lengthAdjust="spacingAndGlyphs" textLength="79" x="1195.75" y="210.4922">Creator1</text><line style="stroke: #A80036; stroke-width: 1.5;" x1="994.5" x2="1443.5" y1="220.9531" y2="220.9531"/><line style="stroke: #A80036; stroke-width: 1.5;" x1="994.5" x2="1443.5" y1="228.9531" y2="228.9531"/><ellipse cx="1004.5" cy="243.1836" fill="#84BE84" rx="3" ry="3" style="stroke: #038048; stroke-width: 1.0;"/><text fill="#000000" font-family="sans-serif" font-size="15" font-weight="bold" lengthAdjust="spacingAndGlyphs" textLength="425" x="1013.5" y="246.8765">ProductIF factoryMethod(){return new Product1()}</text><!--class Creator2--><rect fill="#FEFECE" height="65.4609" id="Creator2" style="stroke: #A80036; stroke-width: 1.5;" width="451" x="507.5" y="188.9531"/><ellipse cx="689.25" cy="204.9531" fill="#ADD1B2" rx="11" ry="11" style="stroke: #A80036; stroke-width: 1.0;"/><path d="M692.2188,210.5938 Q691.6406,210.8906 691,211.0313 Q690.3594,211.1875 689.6563,211.1875 Q687.1563,211.1875 685.8281,209.5469 Q684.5156,207.8906 684.5156,204.7656 Q684.5156,201.6406 685.8281,199.9844 Q687.1563,198.3281 689.6563,198.3281 Q690.3594,198.3281 691,198.4844 Q691.6563,198.6406 692.2188,198.9375 L692.2188,201.6563 Q691.5938,201.0781 691,200.8125 Q690.4063,200.5313 689.7813,200.5313 Q688.4375,200.5313 687.75,201.6094 Q687.0625,202.6719 687.0625,204.7656 Q687.0625,206.8594 687.75,207.9375 Q688.4375,209 689.7813,209 Q690.4063,209 691,208.7344 Q691.5938,208.4531 692.2188,207.875 L692.2188,210.5938 Z "/><text fill="#FF0000" font-family="sans-serif" font-size="16" font-weight="bold" lengthAdjust="spacingAndGlyphs" textLength="79" x="709.75" y="210.4922">Creator2</text><line style="stroke: #A80036; stroke-width: 1.5;" x1="508.5" x2="957.5" y1="220.9531" y2="220.9531"/><line style="stroke: #A80036; stroke-width: 1.5;" x1="508.5" x2="957.5" y1="228.9531" y2="228.9531"/><ellipse cx="518.5" cy="243.1836" fill="#84BE84" rx="3" ry="3" style="stroke: #038048; stroke-width: 1.0;"/><text fill="#000000" font-family="sans-serif" font-size="15" font-weight="bold" lengthAdjust="spacingAndGlyphs" textLength="425" x="527.5" y="246.8765">ProductIF factoryMethod(){return new Product2()}</text><!--class Creator3--><rect fill="#FEFECE" height="65.4609" id="Creator3" style="stroke: #A80036; stroke-width: 1.5;" width="451" x="21.5" y="188.9531"/><ellipse cx="203.25" cy="204.9531" fill="#ADD1B2" rx="11" ry="11" style="stroke: #A80036; stroke-width: 1.0;"/><path d="M206.2188,210.5938 Q205.6406,210.8906 205,211.0313 Q204.3594,211.1875 203.6563,211.1875 Q201.1563,211.1875 199.8281,209.5469 Q198.5156,207.8906 198.5156,204.7656 Q198.5156,201.6406 199.8281,199.9844 Q201.1563,198.3281 203.6563,198.3281 Q204.3594,198.3281 205,198.4844 Q205.6563,198.6406 206.2188,198.9375 L206.2188,201.6563 Q205.5938,201.0781 205,200.8125 Q204.4063,200.5313 203.7813,200.5313 Q202.4375,200.5313 201.75,201.6094 Q201.0625,202.6719 201.0625,204.7656 Q201.0625,206.8594 201.75,207.9375 Q202.4375,209 203.7813,209 Q204.4063,209 205,208.7344 Q205.5938,208.4531 206.2188,207.875 L206.2188,210.5938 Z "/><text fill="#FF0000" font-family="sans-serif" font-size="16" font-weight="bold" lengthAdjust="spacingAndGlyphs" textLength="79" x="223.75" y="210.4922">Creator3</text><line style="stroke: #A80036; stroke-width: 1.5;" x1="22.5" x2="471.5" y1="220.9531" y2="220.9531"/><line style="stroke: #A80036; stroke-width: 1.5;" x1="22.5" x2="471.5" y1="228.9531" y2="228.9531"/><ellipse cx="32.5" cy="243.1836" fill="#84BE84" rx="3" ry="3" style="stroke: #038048; stroke-width: 1.0;"/><text fill="#000000" font-family="sans-serif" font-size="15" font-weight="bold" lengthAdjust="spacingAndGlyphs" textLength="425" x="41.5" y="246.8765">ProductIF factoryMethod(){return new Product3()}</text><!--class Product1--><rect fill="#FEFECE" height="65.4609" id="Product1" style="stroke: #A80036; stroke-width: 1.5;" width="329" x="993.5" y="313.9531"/><ellipse cx="1112.75" cy="329.9531" fill="#ADD1B2" rx="11" ry="11" style="stroke: #A80036; stroke-width: 1.0;"/><path d="M1115.7188,335.5938 Q1115.1406,335.8906 1114.5,336.0313 Q1113.8594,336.1875 1113.1563,336.1875 Q1110.6563,336.1875 1109.3281,334.5469 Q1108.0156,332.8906 1108.0156,329.7656 Q1108.0156,326.6406 1109.3281,324.9844 Q1110.6563,323.3281 1113.1563,323.3281 Q1113.8594,323.3281 1114.5,323.4844 Q1115.1563,323.6406 1115.7188,323.9375 L1115.7188,326.6563 Q1115.0938,326.0781 1114.5,325.8125 Q1113.9063,325.5313 1113.2813,325.5313 Q1111.9375,325.5313 1111.25,326.6094 Q1110.5625,327.6719 1110.5625,329.7656 Q1110.5625,331.8594 1111.25,332.9375 Q1111.9375,334 1113.2813,334 Q1113.9063,334 1114.5,333.7344 Q1115.0938,333.4531 1115.7188,332.875 L1115.7188,335.5938 Z "/><text fill="#FF0000" font-family="sans-serif" font-size="16" font-weight="bold" lengthAdjust="spacingAndGlyphs" textLength="82" x="1133.25" y="335.4922">Product1</text><line style="stroke: #A80036; stroke-width: 1.5;" x1="994.5" x2="1321.5" y1="345.9531" y2="345.9531"/><line style="stroke: #A80036; stroke-width: 1.5;" x1="994.5" x2="1321.5" y1="353.9531" y2="353.9531"/><ellipse cx="1004.5" cy="368.1836" fill="#84BE84" rx="3" ry="3" style="stroke: #038048; stroke-width: 1.0;"/><text fill="#000000" font-family="sans-serif" font-size="15" font-weight="bold" lengthAdjust="spacingAndGlyphs" textLength="303" x="1013.5" y="371.8765">void action("product 1 action called")</text><!--class Product2--><rect fill="#FEFECE" height="65.4609" id="Product2" style="stroke: #A80036; stroke-width: 1.5;" width="329" x="568.5" y="313.9531"/><ellipse cx="687.75" cy="329.9531" fill="#ADD1B2" rx="11" ry="11" style="stroke: #A80036; stroke-width: 1.0;"/><path d="M690.7188,335.5938 Q690.1406,335.8906 689.5,336.0313 Q688.8594,336.1875 688.1563,336.1875 Q685.6563,336.1875 684.3281,334.5469 Q683.0156,332.8906 683.0156,329.7656 Q683.0156,326.6406 684.3281,324.9844 Q685.6563,323.3281 688.1563,323.3281 Q688.8594,323.3281 689.5,323.4844 Q690.1563,323.6406 690.7188,323.9375 L690.7188,326.6563 Q690.0938,326.0781 689.5,325.8125 Q688.9063,325.5313 688.2813,325.5313 Q686.9375,325.5313 686.25,326.6094 Q685.5625,327.6719 685.5625,329.7656 Q685.5625,331.8594 686.25,332.9375 Q686.9375,334 688.2813,334 Q688.9063,334 689.5,333.7344 Q690.0938,333.4531 690.7188,332.875 L690.7188,335.5938 Z "/><text fill="#FF0000" font-family="sans-serif" font-size="16" font-weight="bold" lengthAdjust="spacingAndGlyphs" textLength="82" x="708.25" y="335.4922">Product2</text><line style="stroke: #A80036; stroke-width: 1.5;" x1="569.5" x2="896.5" y1="345.9531" y2="345.9531"/><line style="stroke: #A80036; stroke-width: 1.5;" x1="569.5" x2="896.5" y1="353.9531" y2="353.9531"/><ellipse cx="579.5" cy="368.1836" fill="#84BE84" rx="3" ry="3" style="stroke: #038048; stroke-width: 1.0;"/><text fill="#000000" font-family="sans-serif" font-size="15" font-weight="bold" lengthAdjust="spacingAndGlyphs" textLength="303" x="588.5" y="371.8765">void action("product 2 action called")</text><!--class Product3--><rect fill="#FEFECE" height="65.4609" id="Product3" style="stroke: #A80036; stroke-width: 1.5;" width="329" x="143.5" y="313.9531"/><ellipse cx="262.75" cy="329.9531" fill="#ADD1B2" rx="11" ry="11" style="stroke: #A80036; stroke-width: 1.0;"/><path d="M265.7188,335.5938 Q265.1406,335.8906 264.5,336.0313 Q263.8594,336.1875 263.1563,336.1875 Q260.6563,336.1875 259.3281,334.5469 Q258.0156,332.8906 258.0156,329.7656 Q258.0156,326.6406 259.3281,324.9844 Q260.6563,323.3281 263.1563,323.3281 Q263.8594,323.3281 264.5,323.4844 Q265.1563,323.6406 265.7188,323.9375 L265.7188,326.6563 Q265.0938,326.0781 264.5,325.8125 Q263.9063,325.5313 263.2813,325.5313 Q261.9375,325.5313 261.25,326.6094 Q260.5625,327.6719 260.5625,329.7656 Q260.5625,331.8594 261.25,332.9375 Q261.9375,334 263.2813,334 Q263.9063,334 264.5,333.7344 Q265.0938,333.4531 265.7188,332.875 L265.7188,335.5938 Z "/><text fill="#FF0000" font-family="sans-serif" font-size="16" font-weight="bold" lengthAdjust="spacingAndGlyphs" textLength="82" x="283.25" y="335.4922">Product3</text><line style="stroke: #A80036; stroke-width: 1.5;" x1="144.5" x2="471.5" y1="345.9531" y2="345.9531"/><line style="stroke: #A80036; stroke-width: 1.5;" x1="144.5" x2="471.5" y1="353.9531" y2="353.9531"/><ellipse cx="154.5" cy="368.1836" fill="#84BE84" rx="3" ry="3" style="stroke: #038048; stroke-width: 1.0;"/><text fill="#000000" font-family="sans-serif" font-size="15" font-weight="bold" lengthAdjust="spacingAndGlyphs" textLength="303" x="163.5" y="371.8765">void action("product 3 action called")</text><!--class CreatorIF--><rect fill="#FEFECE" height="65.4609" id="CreatorIF" style="stroke: #A80036; stroke-width: 1.5;" width="238" x="614" y="63.9531"/><ellipse cx="686.25" cy="79.9531" fill="#B4A7E5" rx="11" ry="11" style="stroke: #A80036; stroke-width: 1.0;"/><path d="M682.1719,75.7188 L682.1719,73.5625 L689.5625,73.5625 L689.5625,75.7188 L687.0938,75.7188 L687.0938,83.7969 L689.5625,83.7969 L689.5625,85.9531 L682.1719,85.9531 L682.1719,83.7969 L684.6406,83.7969 L684.6406,75.7188 L682.1719,75.7188 Z "/><text fill="#FF0000" font-family="sans-serif" font-size="16" font-style="italic" font-weight="bold" lengthAdjust="spacingAndGlyphs" textLength="85" x="706.75" y="85.4922">CreatorIF</text><line style="stroke: #A80036; stroke-width: 1.5;" x1="615" x2="851" y1="95.9531" y2="95.9531"/><line style="stroke: #A80036; stroke-width: 1.5;" x1="615" x2="851" y1="103.9531" y2="103.9531"/><text fill="#000000" font-family="sans-serif" font-size="15" font-weight="bold" lengthAdjust="spacingAndGlyphs" textLength="226" x="620" y="121.8765">ProductIF factoryMethod();</text><!--class ProductIF--><rect fill="#FEFECE" height="65.4609" id="ProductIF" style="stroke: #A80036; stroke-width: 1.5;" width="120" x="673" y="438.9531"/><ellipse cx="688.9" cy="454.9531" fill="#B4A7E5" rx="11" ry="11" style="stroke: #A80036; stroke-width: 1.0;"/><path d="M684.8219,450.7188 L684.8219,448.5625 L692.2125,448.5625 L692.2125,450.7188 L689.7438,450.7188 L689.7438,458.7969 L692.2125,458.7969 L692.2125,460.9531 L684.8219,460.9531 L684.8219,458.7969 L687.2906,458.7969 L687.2906,450.7188 L684.8219,450.7188 Z "/><text fill="#FF0000" font-family="sans-serif" font-size="16" font-style="italic" font-weight="bold" lengthAdjust="spacingAndGlyphs" textLength="86" x="703.1" y="460.4922">ProductIF</text><line style="stroke: #A80036; stroke-width: 1.5;" x1="674" x2="792" y1="470.9531" y2="470.9531"/><line style="stroke: #A80036; stroke-width: 1.5;" x1="674" x2="792" y1="478.9531" y2="478.9531"/><text fill="#000000" font-family="sans-serif" font-size="15" font-weight="bold" lengthAdjust="spacingAndGlyphs" textLength="108" x="679" y="496.8765">void action();</text><!--link CreatorIF to Creator1--><path d="M871.873,132.1715 C941.3695,150.0461 1024.8791,171.5249 1092.572,188.9356 " fill="none" id="CreatorIF-Creator1" style="stroke: #0000FF; stroke-width: 1.0; stroke-dasharray: 7.0,7.0;"/><polygon fill="none" points="869.826,138.8729,852.2001,127.1116,873.3134,125.3142,869.826,138.8729" style="stroke: #0000FF; stroke-width: 1.0;"/><!--link CreatorIF to Creator2--><path d="M733,149.1569 C733,162.5597 733,176.5788 733,188.6657 " fill="none" id="CreatorIF-Creator2" style="stroke: #0000FF; stroke-width: 1.0; stroke-dasharray: 7.0,7.0;"/><polygon fill="none" points="726.0001,148.9691,733,128.9691,740.0001,148.969,726.0001,148.9691" style="stroke: #0000FF; stroke-width: 1.0;"/><!--link CreatorIF to Creator3--><path d="M594.127,132.1715 C524.6305,150.0461 441.1209,171.5249 373.428,188.9356 " fill="none" id="CreatorIF-Creator3" style="stroke: #0000FF; stroke-width: 1.0; stroke-dasharray: 7.0,7.0;"/><polygon fill="none" points="592.6866,125.3142,613.7999,127.1116,596.174,138.8729,592.6866,125.3142" style="stroke: #0000FF; stroke-width: 1.0;"/><!--link Creator1 to Product1--><path d="M1203.1322,253.9691 C1194.9363,270.7639 1184.8931,291.3443 1176.3632,308.8236 " fill="none" id="Creator1-Product1" style="stroke: #0000FF; stroke-width: 1.0; stroke-dasharray: 7.0,7.0;"/><polygon fill="#0000FF" points="1174.0003,313.6657,1181.5422,307.3317,1176.1931,309.1722,1174.3526,303.8232,1174.0003,313.6657" style="stroke: #0000FF; stroke-width: 1.0;"/><!--link Creator2 to Product2--><path d="M733,253.9691 C733,270.6203 733,290.9927 733,308.3747 " fill="none" id="Creator2-Product2" style="stroke: #0000FF; stroke-width: 1.0; stroke-dasharray: 7.0,7.0;"/><polygon fill="#0000FF" points="733,313.6657,737,304.6657,733,308.6657,729,304.6657,733,313.6657" style="stroke: #0000FF; stroke-width: 1.0;"/><!--link Creator3 to Product3--><path d="M262.8678,253.9691 C271.0637,270.7639 281.1069,291.3443 289.6368,308.8236 " fill="none" id="Creator3-Product3" style="stroke: #0000FF; stroke-width: 1.0; stroke-dasharray: 7.0,7.0;"/><polygon fill="#0000FF" points="291.9997,313.6657,291.6474,303.8232,289.8069,309.1722,284.4578,307.3317,291.9997,313.6657" style="stroke: #0000FF; stroke-width: 1.0;"/><!--link Product1 to ProductIF--><path d="M1047.4457,378.9691 C973.8918,400.6026 878.9818,428.5173 812.7593,447.9945 " fill="none" id="Product1-ProductIF" style="stroke: #0000FF; stroke-width: 1.0; stroke-dasharray: 7.0,7.0;"/><polygon fill="none" points="814.3465,454.8241,793.184,453.7519,810.3961,441.393,814.3465,454.8241" style="stroke: #0000FF; stroke-width: 1.0;"/><!--link Product2 to ProductIF--><path d="M733,378.9691 C733,391.0269 733,405.036 733,418.4478 " fill="none" id="Product2-ProductIF" style="stroke: #0000FF; stroke-width: 1.0; stroke-dasharray: 7.0,7.0;"/><polygon fill="none" points="740.0001,418.6657,733,438.6657,726.0001,418.6657,740.0001,418.6657" style="stroke: #0000FF; stroke-width: 1.0;"/><!--link Product3 to ProductIF--><path d="M418.5543,378.9691 C492.1082,400.6026 587.0182,428.5173 653.2407,447.9945 " fill="none" id="Product3-ProductIF" style="stroke: #0000FF; stroke-width: 1.0; stroke-dasharray: 7.0,7.0;"/><polygon fill="none" points="655.6039,441.393,672.816,453.7519,651.6535,454.8241,655.6039,441.393" style="stroke: #0000FF; stroke-width: 1.0;"/><!--
@startuml

title factory method

skinparam classFontColor red
skinparam classFontStyle bold
skinparam classFontSize 16
skinparam classAttributeFontSize 15
skinparam classAttributeFontStyle bold
skinparam classArrowColor blue
skinparam shadowing false


package myFactory{

class Creator1 {
	+ProductIF factoryMethod(){return new Product1()}
 }

class Creator2 {
	+ProductIF factoryMethod(){return new Product2()}
 }

class Creator3 {
	+ProductIF factoryMethod(){return new Product3()}
 }


class Product1 {
	+void action("product 1 action called")
}

class Product2 {
	+void action("product 2 action called")
}

class Product3 {
	+void action("product 3 action called")
}


interface CreatorIF {
ProductIF factoryMethod();

}


interface ProductIF {
void action();
}

CreatorIF <|.down. Creator1
CreatorIF <|.down. Creator2
CreatorIF <|.down. Creator3

Product1 <.down. Creator1
Product2 <.down. Creator2
Product3 <.down. Creator3

ProductIF <|.up. Product1
ProductIF <|.up. Product2
ProductIF <|.up. Product3

}

@enduml

PlantUML version 1.2018.10(Sat Aug 25 20:02:59 EEST 2018)
(GPL source distribution)
Java Runtime: OpenJDK Runtime Environment
JVM: OpenJDK 64-Bit Server VM
Java Version: 11.0.2+9-Debian-3
Operating System: Linux
OS Version: 4.19.0-kali1-amd64
Default Encoding: UTF-8
Language: en
Country: US
--></g></svg>