<?xml version="1.0" encoding="UTF-8" standalone="no"?><svg xmlns="http://www.w3.org/2000/svg" xmlns:xlink="http://www.w3.org/1999/xlink" contentScriptType="application/ecmascript" contentStyleType="text/css" height="224px" preserveAspectRatio="none" style="width:860px;height:224px;" version="1.1" viewBox="0 0 860 224" width="860px" zoomAndPan="magnify"><defs/><g><text fill="#000000" font-family="sans-serif" font-size="18" lengthAdjust="spacingAndGlyphs" textLength="186" x="339" y="16.708">chain of resposibality</text><!--cluster MyResposibality--><polygon fill="#FFFFFF" points="14,36.9531,146,36.9531,153,59.25,838,59.25,838,212.9531,14,212.9531,14,36.9531" style="stroke: #000000; stroke-width: 1.5;"/><line style="stroke: #000000; stroke-width: 1.5;" x1="14" x2="153" y1="59.25" y2="59.25"/><text fill="#000000" font-family="sans-serif" font-size="14" font-weight="bold" lengthAdjust="spacingAndGlyphs" textLength="126" x="18" y="51.9482">MyResposibality</text><rect fill="#FEFECE" height="48.0859" style="stroke: #A80036; stroke-width: 1.5;" width="155" x="22.5" y="156.9531"/><text fill="#FF0000" font-family="sans-serif" font-size="16" font-weight="bold" lengthAdjust="spacingAndGlyphs" textLength="89" x="55.5" y="173.8047">MainChain</text><line style="stroke: #A80036; stroke-width: 1.5;" x1="23.5" x2="176.5" y1="179.5781" y2="179.5781"/><text fill="#000000" font-family="sans-serif" font-size="15" font-weight="bold" lengthAdjust="spacingAndGlyphs" textLength="143" x="28.5" y="197.5015">help = Teacher19</text><path d="M22.5,63.9531 L22.5,97.2344 A0,0 0 0 0 22.5,97.2344 L323.9196,97.2344 L165.3279,156.9038 L331.9196,97.2344 L723.5,97.2344 A0,0 0 0 0 723.5,97.2344 L723.5,73.9531 L713.5,63.9531 L22.5,63.9531 A0,0 0 0 0 22.5,63.9531 " fill="#FBFB77" style="stroke: #A80036; stroke-width: 1.0;"/><path d="M713.5,63.9531 L713.5,73.9531 L723.5,73.9531 L713.5,63.9531 " fill="#FBFB77" style="stroke: #A80036; stroke-width: 1.0;"/><text fill="#000000" font-family="sans-serif" font-size="20" lengthAdjust="spacingAndGlyphs" textLength="680" x="28.5" y="87.5176">Help help = new Teacher(new Manager(new Minister(new King())));</text><rect fill="#FEFECE" height="48.0859" style="stroke: #A80036; stroke-width: 1.5;" width="160" x="213" y="156.9531"/><text fill="#FF0000" font-family="sans-serif" font-size="16" font-weight="bold" lengthAdjust="spacingAndGlyphs" textLength="94" x="246" y="173.8047">Teacher19</text><line style="stroke: #A80036; stroke-width: 1.5;" x1="214" x2="372" y1="179.5781" y2="179.5781"/><text fill="#000000" font-family="sans-serif" font-size="15" font-weight="bold" lengthAdjust="spacingAndGlyphs" textLength="148" x="219" y="197.5015">help = Manager22</text><rect fill="#FEFECE" height="48.0859" style="stroke: #A80036; stroke-width: 1.5;" width="154" x="408" y="156.9531"/><text fill="#FF0000" font-family="sans-serif" font-size="16" font-weight="bold" lengthAdjust="spacingAndGlyphs" textLength="99" x="435.5" y="173.8047">Manager22</text><line style="stroke: #A80036; stroke-width: 1.5;" x1="409" x2="561" y1="179.5781" y2="179.5781"/><text fill="#000000" font-family="sans-serif" font-size="15" font-weight="bold" lengthAdjust="spacingAndGlyphs" textLength="142" x="414" y="197.5015">help = Minister26</text><rect fill="#FEFECE" height="48.0859" style="stroke: #A80036; stroke-width: 1.5;" width="124" x="597" y="156.9531"/><text fill="#FF0000" font-family="sans-serif" font-size="16" font-weight="bold" lengthAdjust="spacingAndGlyphs" textLength="94" x="612" y="173.8047">Minister26</text><line style="stroke: #A80036; stroke-width: 1.5;" x1="598" x2="720" y1="179.5781" y2="179.5781"/><text fill="#000000" font-family="sans-serif" font-size="15" font-weight="bold" lengthAdjust="spacingAndGlyphs" textLength="112" x="603" y="197.5015">help = King30</text><!--class King30--><rect fill="#FEFECE" height="48" id="King30" style="stroke: #A80036; stroke-width: 1.5;" width="74" x="756" y="156.9531"/><ellipse cx="771" cy="172.9531" fill="#ADD1B2" rx="11" ry="11" style="stroke: #A80036; stroke-width: 1.0;"/><path d="M773.9688,178.5938 Q773.3906,178.8906 772.75,179.0313 Q772.1094,179.1875 771.4063,179.1875 Q768.9063,179.1875 767.5781,177.5469 Q766.2656,175.8906 766.2656,172.7656 Q766.2656,169.6406 767.5781,167.9844 Q768.9063,166.3281 771.4063,166.3281 Q772.1094,166.3281 772.75,166.4844 Q773.4063,166.6406 773.9688,166.9375 L773.9688,169.6563 Q773.3438,169.0781 772.75,168.8125 Q772.1563,168.5313 771.5313,168.5313 Q770.1875,168.5313 769.5,169.6094 Q768.8125,170.6719 768.8125,172.7656 Q768.8125,174.8594 769.5,175.9375 Q770.1875,177 771.5313,177 Q772.1563,177 772.75,176.7344 Q773.3438,176.4531 773.9688,175.875 L773.9688,178.5938 Z "/><text fill="#000000" font-family="sans-serif" font-size="12" lengthAdjust="spacingAndGlyphs" textLength="42" x="785" y="177.1074">King30</text><line style="stroke: #A80036; stroke-width: 1.5;" x1="757" x2="829" y1="188.9531" y2="188.9531"/><line style="stroke: #A80036; stroke-width: 1.5;" x1="757" x2="829" y1="196.9531" y2="196.9531"/><!--link MainChain to Teacher19--><path d="M177.6523,180.9531 C187.6284,180.9531 197.6044,180.9531 207.5805,180.9531 " fill="none" id="MainChain-Teacher19" style="stroke: #0000FF; stroke-width: 1.0;"/><polygon fill="#0000FF" points="212.7973,180.9531,203.7973,176.9531,207.7973,180.9531,203.7973,184.9531,212.7973,180.9531" style="stroke: #0000FF; stroke-width: 1.0;"/><!--link Teacher19 to Manager22--><path d="M373.25,180.9531 C383.0388,180.9531 392.8276,180.9531 402.6164,180.9531 " fill="none" id="Teacher19-Manager22" style="stroke: #0000FF; stroke-width: 1.0;"/><polygon fill="#0000FF" points="407.7354,180.9531,398.7354,176.9531,402.7354,180.9531,398.7354,184.9531,407.7354,180.9531" style="stroke: #0000FF; stroke-width: 1.0;"/><!--link Manager22 to Minister26--><path d="M562.1445,180.9531 C572.0248,180.9531 581.905,180.9531 591.7852,180.9531 " fill="none" id="Manager22-Minister26" style="stroke: #0000FF; stroke-width: 1.0;"/><polygon fill="#0000FF" points="596.952,180.9531,587.952,176.9531,591.952,180.9531,587.952,184.9531,596.952,180.9531" style="stroke: #0000FF; stroke-width: 1.0;"/><!--link Minister26 to King30--><path d="M721.0273,180.9531 C730.923,180.9531 740.8187,180.9531 750.7143,180.9531 " fill="none" id="Minister26-King30" style="stroke: #0000FF; stroke-width: 1.0;"/><polygon fill="#0000FF" points="755.8891,180.9531,746.8891,176.9531,750.8891,180.9531,746.8891,184.9531,755.8891,180.9531" style="stroke: #0000FF; stroke-width: 1.0;"/><!--
@startuml


title chain of resposibality


skinparam objectFontColor red
skinparam objectFontStyle bold
skinparam objectFontSize 16
skinparam objectAttributeFontSize 15
skinparam objectAttributeFontStyle bold
skinparam objectArrowColor blue
skinparam shadowing false
skinparam NoteFontSize 20
skinparam NoteAttributeFontStyle bold

package MyResposibality {

note top of  MainChain
Help help = new Teacher(new Manager(new Minister(new King())));
end note



object MainChain{
help = Teacher19
}

object Teacher19{
help = Manager22
}

object Manager22{
help = Minister26
}

object Minister26{
help = King30
}

MainChain ->Teacher19
Teacher19->Manager22
Manager22->Minister26
Minister26->King30

}

@enduml

PlantUML version 1.2018.10(Sat Aug 25 20:02:59 EEST 2018)
(GPL source distribution)
Java Runtime: OpenJDK Runtime Environment
JVM: OpenJDK 64-Bit Server VM
Java Version: 11.0.2+9-Debian-3
Operating System: Linux
OS Version: 4.19.0-kali1-amd64
Default Encoding: UTF-8
Language: en
Country: US
--></g></svg>