<?xml version="1.0" encoding="UTF-8" standalone="no"?><svg xmlns="http://www.w3.org/2000/svg" xmlns:xlink="http://www.w3.org/1999/xlink" contentScriptType="application/ecmascript" contentStyleType="text/css" height="379px" preserveAspectRatio="none" style="width:1282px;height:379px;" version="1.1" viewBox="0 0 1282 379" width="1282px" zoomAndPan="magnify"><defs/><g><text fill="#000000" font-family="sans-serif" font-size="18" lengthAdjust="spacingAndGlyphs" textLength="173" x="556.5" y="16.708">Chain responsibility</text><!--cluster MyResposibality--><polygon fill="#FFFFFF" points="14,36.9531,146,36.9531,153,59.25,1260,59.25,1260,367.9531,14,367.9531,14,36.9531" style="stroke: #000000; stroke-width: 1.5;"/><line style="stroke: #000000; stroke-width: 1.5;" x1="14" x2="153" y1="59.25" y2="59.25"/><text fill="#000000" font-family="sans-serif" font-size="14" font-weight="bold" lengthAdjust="spacingAndGlyphs" textLength="126" x="18" y="51.9482">MyResposibality</text><!--class HelpIF--><rect fill="#FEFECE" height="152.7656" id="HelpIF" style="stroke: #A80036; stroke-width: 1.5;" width="252" x="508" y="63.9531"/><ellipse cx="601.25" cy="79.9531" fill="#B4A7E5" rx="11" ry="11" style="stroke: #A80036; stroke-width: 1.0;"/><path d="M597.1719,75.7188 L597.1719,73.5625 L604.5625,73.5625 L604.5625,75.7188 L602.0938,75.7188 L602.0938,83.7969 L604.5625,83.7969 L604.5625,85.9531 L597.1719,85.9531 L597.1719,83.7969 L599.6406,83.7969 L599.6406,75.7188 L597.1719,75.7188 Z "/><text fill="#FF0000" font-family="sans-serif" font-size="16" font-style="italic" font-weight="bold" lengthAdjust="spacingAndGlyphs" textLength="57" x="621.75" y="85.4922">HelpIF</text><line style="stroke: #A80036; stroke-width: 1.5;" x1="509" x2="759" y1="95.9531" y2="95.9531"/><text fill="#000000" font-family="sans-serif" font-size="15" font-weight="bold" lengthAdjust="spacingAndGlyphs" textLength="225" x="514" y="113.8765">int STUDENT_NUMBER  = 1;</text><text fill="#000000" font-family="sans-serif" font-size="15" font-weight="bold" lengthAdjust="spacingAndGlyphs" textLength="223" x="514" y="131.3374">int TEACHER_NUMBER  = 2;</text><text fill="#000000" font-family="sans-serif" font-size="15" font-weight="bold" lengthAdjust="spacingAndGlyphs" textLength="229" x="514" y="148.7983">int MANAGER_NUMBER  = 3;</text><text fill="#000000" font-family="sans-serif" font-size="15" font-weight="bold" lengthAdjust="spacingAndGlyphs" textLength="223" x="514" y="166.2593">int MINISTER_NUMBER = 4;</text><text fill="#000000" font-family="sans-serif" font-size="15" font-weight="bold" lengthAdjust="spacingAndGlyphs" textLength="204" x="514" y="183.7202">int KING_NUMBER     = 5;</text><line style="stroke: #A80036; stroke-width: 1.5;" x1="509" x2="759" y1="191.2578" y2="191.2578"/><text fill="#000000" font-family="sans-serif" font-size="15" font-weight="bold" lengthAdjust="spacingAndGlyphs" textLength="240" x="514" y="209.1812">void retour(int help_number);</text><!--class Student--><rect fill="#FEFECE" height="82.9219" id="Student" style="stroke: #A80036; stroke-width: 1.5;" width="384" x="22" y="276.9531"/><ellipse cx="174.25" cy="292.9531" fill="#ADD1B2" rx="11" ry="11" style="stroke: #A80036; stroke-width: 1.0;"/><path d="M177.2188,298.5938 Q176.6406,298.8906 176,299.0313 Q175.3594,299.1875 174.6563,299.1875 Q172.1563,299.1875 170.8281,297.5469 Q169.5156,295.8906 169.5156,292.7656 Q169.5156,289.6406 170.8281,287.9844 Q172.1563,286.3281 174.6563,286.3281 Q175.3594,286.3281 176,286.4844 Q176.6563,286.6406 177.2188,286.9375 L177.2188,289.6563 Q176.5938,289.0781 176,288.8125 Q175.4063,288.5313 174.7813,288.5313 Q173.4375,288.5313 172.75,289.6094 Q172.0625,290.6719 172.0625,292.7656 Q172.0625,294.8594 172.75,295.9375 Q173.4375,297 174.7813,297 Q175.4063,297 176,296.7344 Q176.5938,296.4531 177.2188,295.875 L177.2188,298.5938 Z "/><text fill="#FF0000" font-family="sans-serif" font-size="16" font-weight="bold" lengthAdjust="spacingAndGlyphs" textLength="71" x="194.75" y="298.4922">Student</text><line style="stroke: #A80036; stroke-width: 1.5;" x1="23" x2="405" y1="308.9531" y2="308.9531"/><text fill="#000000" font-family="sans-serif" font-size="15" font-weight="bold" lengthAdjust="spacingAndGlyphs" textLength="159" x="28" y="326.8765">private HelpIF help;</text><line style="stroke: #A80036; stroke-width: 1.5;" x1="23" x2="405" y1="334.4141" y2="334.4141"/><text fill="#000000" font-family="sans-serif" font-size="15" font-weight="bold" lengthAdjust="spacingAndGlyphs" textLength="372" x="28" y="352.3374">public Student(HelpIF help){ this.help=help;}</text><!--class Teacher--><rect fill="#FEFECE" height="82.9219" id="Teacher" style="stroke: #A80036; stroke-width: 1.5;" width="385" x="441.5" y="276.9531"/><ellipse cx="593.75" cy="292.9531" fill="#ADD1B2" rx="11" ry="11" style="stroke: #A80036; stroke-width: 1.0;"/><path d="M596.7188,298.5938 Q596.1406,298.8906 595.5,299.0313 Q594.8594,299.1875 594.1563,299.1875 Q591.6563,299.1875 590.3281,297.5469 Q589.0156,295.8906 589.0156,292.7656 Q589.0156,289.6406 590.3281,287.9844 Q591.6563,286.3281 594.1563,286.3281 Q594.8594,286.3281 595.5,286.4844 Q596.1563,286.6406 596.7188,286.9375 L596.7188,289.6563 Q596.0938,289.0781 595.5,288.8125 Q594.9063,288.5313 594.2813,288.5313 Q592.9375,288.5313 592.25,289.6094 Q591.5625,290.6719 591.5625,292.7656 Q591.5625,294.8594 592.25,295.9375 Q592.9375,297 594.2813,297 Q594.9063,297 595.5,296.7344 Q596.0938,296.4531 596.7188,295.875 L596.7188,298.5938 Z "/><text fill="#FF0000" font-family="sans-serif" font-size="16" font-weight="bold" lengthAdjust="spacingAndGlyphs" textLength="72" x="614.25" y="298.4922">Teacher</text><line style="stroke: #A80036; stroke-width: 1.5;" x1="442.5" x2="825.5" y1="308.9531" y2="308.9531"/><text fill="#000000" font-family="sans-serif" font-size="15" font-weight="bold" lengthAdjust="spacingAndGlyphs" textLength="159" x="447.5" y="326.8765">private HelpIF help;</text><line style="stroke: #A80036; stroke-width: 1.5;" x1="442.5" x2="825.5" y1="334.4141" y2="334.4141"/><text fill="#000000" font-family="sans-serif" font-size="15" font-weight="bold" lengthAdjust="spacingAndGlyphs" textLength="373" x="447.5" y="352.3374">public Teacher(HelpIF help){ this.help=help;}</text><!--class Manager--><rect fill="#FEFECE" height="82.9219" id="Manager" style="stroke: #A80036; stroke-width: 1.5;" width="390" x="862" y="276.9531"/><ellipse cx="1014.25" cy="292.9531" fill="#ADD1B2" rx="11" ry="11" style="stroke: #A80036; stroke-width: 1.0;"/><path d="M1017.2188,298.5938 Q1016.6406,298.8906 1016,299.0313 Q1015.3594,299.1875 1014.6563,299.1875 Q1012.1563,299.1875 1010.8281,297.5469 Q1009.5156,295.8906 1009.5156,292.7656 Q1009.5156,289.6406 1010.8281,287.9844 Q1012.1563,286.3281 1014.6563,286.3281 Q1015.3594,286.3281 1016,286.4844 Q1016.6563,286.6406 1017.2188,286.9375 L1017.2188,289.6563 Q1016.5938,289.0781 1016,288.8125 Q1015.4063,288.5313 1014.7813,288.5313 Q1013.4375,288.5313 1012.75,289.6094 Q1012.0625,290.6719 1012.0625,292.7656 Q1012.0625,294.8594 1012.75,295.9375 Q1013.4375,297 1014.7813,297 Q1015.4063,297 1016,296.7344 Q1016.5938,296.4531 1017.2188,295.875 L1017.2188,298.5938 Z "/><text fill="#FF0000" font-family="sans-serif" font-size="16" font-weight="bold" lengthAdjust="spacingAndGlyphs" textLength="77" x="1034.75" y="298.4922">Manager</text><line style="stroke: #A80036; stroke-width: 1.5;" x1="863" x2="1251" y1="308.9531" y2="308.9531"/><text fill="#000000" font-family="sans-serif" font-size="15" font-weight="bold" lengthAdjust="spacingAndGlyphs" textLength="159" x="868" y="326.8765">private HelpIF help;</text><line style="stroke: #A80036; stroke-width: 1.5;" x1="863" x2="1251" y1="334.4141" y2="334.4141"/><text fill="#000000" font-family="sans-serif" font-size="15" font-weight="bold" lengthAdjust="spacingAndGlyphs" textLength="378" x="868" y="352.3374">public Manager(HelpIF help){ this.help=help;}</text><!--class Minister--><rect fill="#FEFECE" height="82.9219" id="Minister" style="stroke: #A80036; stroke-width: 1.5;" width="384" x="795" y="98.9531"/><ellipse cx="946.75" cy="114.9531" fill="#ADD1B2" rx="11" ry="11" style="stroke: #A80036; stroke-width: 1.0;"/><path d="M949.7188,120.5938 Q949.1406,120.8906 948.5,121.0313 Q947.8594,121.1875 947.1563,121.1875 Q944.6563,121.1875 943.3281,119.5469 Q942.0156,117.8906 942.0156,114.7656 Q942.0156,111.6406 943.3281,109.9844 Q944.6563,108.3281 947.1563,108.3281 Q947.8594,108.3281 948.5,108.4844 Q949.1563,108.6406 949.7188,108.9375 L949.7188,111.6563 Q949.0938,111.0781 948.5,110.8125 Q947.9063,110.5313 947.2813,110.5313 Q945.9375,110.5313 945.25,111.6094 Q944.5625,112.6719 944.5625,114.7656 Q944.5625,116.8594 945.25,117.9375 Q945.9375,119 947.2813,119 Q947.9063,119 948.5,118.7344 Q949.0938,118.4531 949.7188,117.875 L949.7188,120.5938 Z "/><text fill="#FF0000" font-family="sans-serif" font-size="16" font-weight="bold" lengthAdjust="spacingAndGlyphs" textLength="72" x="967.25" y="120.4922">Minister</text><line style="stroke: #A80036; stroke-width: 1.5;" x1="796" x2="1178" y1="130.9531" y2="130.9531"/><text fill="#000000" font-family="sans-serif" font-size="15" font-weight="bold" lengthAdjust="spacingAndGlyphs" textLength="159" x="801" y="148.8765">private HelpIF help;</text><line style="stroke: #A80036; stroke-width: 1.5;" x1="796" x2="1178" y1="156.4141" y2="156.4141"/><text fill="#000000" font-family="sans-serif" font-size="15" font-weight="bold" lengthAdjust="spacingAndGlyphs" textLength="372" x="801" y="174.3374">public Minister(HelpIF help){ this.help=help;}</text><!--class King--><rect fill="#FEFECE" height="82.9219" id="King" style="stroke: #A80036; stroke-width: 1.5;" width="354" x="119" y="98.9531"/><ellipse cx="273.25" cy="114.9531" fill="#ADD1B2" rx="11" ry="11" style="stroke: #A80036; stroke-width: 1.0;"/><path d="M276.2188,120.5938 Q275.6406,120.8906 275,121.0313 Q274.3594,121.1875 273.6563,121.1875 Q271.1563,121.1875 269.8281,119.5469 Q268.5156,117.8906 268.5156,114.7656 Q268.5156,111.6406 269.8281,109.9844 Q271.1563,108.3281 273.6563,108.3281 Q274.3594,108.3281 275,108.4844 Q275.6563,108.6406 276.2188,108.9375 L276.2188,111.6563 Q275.5938,111.0781 275,110.8125 Q274.4063,110.5313 273.7813,110.5313 Q272.4375,110.5313 271.75,111.6094 Q271.0625,112.6719 271.0625,114.7656 Q271.0625,116.8594 271.75,117.9375 Q272.4375,119 273.7813,119 Q274.4063,119 275,118.7344 Q275.5938,118.4531 276.2188,117.875 L276.2188,120.5938 Z "/><text fill="#FF0000" font-family="sans-serif" font-size="16" font-weight="bold" lengthAdjust="spacingAndGlyphs" textLength="37" x="293.75" y="120.4922">King</text><line style="stroke: #A80036; stroke-width: 1.5;" x1="120" x2="472" y1="130.9531" y2="130.9531"/><text fill="#000000" font-family="sans-serif" font-size="15" font-weight="bold" lengthAdjust="spacingAndGlyphs" textLength="159" x="125" y="148.8765">private HelpIF help;</text><line style="stroke: #A80036; stroke-width: 1.5;" x1="120" x2="472" y1="156.4141" y2="156.4141"/><text fill="#000000" font-family="sans-serif" font-size="15" font-weight="bold" lengthAdjust="spacingAndGlyphs" textLength="342" x="125" y="174.3374">public King(HelpIF help){ this.help=help;}</text><!--link HelpIF to Student--><path d="M489.7251,209.2429 C484.097,211.9085 478.5081,214.4909 473,216.9531 C424.1768,238.7778 369.0983,259.736 322.2227,276.8827 " fill="none" id="HelpIF-Student" style="stroke: #0000FF; stroke-width: 1.0; stroke-dasharray: 7.0,7.0;"/><polygon fill="none" points="486.7305,202.9155,507.7811,200.4922,492.8362,215.5139,486.7305,202.9155" style="stroke: #0000FF; stroke-width: 1.0;"/><!--link HelpIF to Student--><path d="M503.068,219.1455 C455.5375,240.1578 402.5531,260.2704 354.969,276.8326 " fill="none" id="HelpIF-Student" style="stroke: #0000FF; stroke-width: 1.0;"/><polygon fill="#0000FF" points="507.6503,217.1093,497.8014,217.1084,503.0811,219.1396,501.0499,224.4192,507.6503,217.1093" style="stroke: #0000FF; stroke-width: 1.0;"/><!--link HelpIF to Teacher--><path d="M621.2945,237.3281 C621.4515,251.2032 622.0247,264.821 623.0139,276.8183 " fill="none" id="HelpIF-Teacher" style="stroke: #0000FF; stroke-width: 1.0; stroke-dasharray: 7.0,7.0;"/><polygon fill="none" points="614.2956,236.9508,621.3621,216.9741,628.2955,236.9973,614.2956,236.9508" style="stroke: #0000FF; stroke-width: 1.0;"/><!--link HelpIF to Teacher--><path d="M647.461,222.2872 C647.6669,241.1751 647.0573,260.4963 645.6323,276.8183 " fill="none" id="HelpIF-Teacher" style="stroke: #0000FF; stroke-width: 1.0;"/><polygon fill="#0000FF" points="647.3813,216.9741,643.517,226.0332,647.4564,221.9736,651.5161,225.913,647.3813,216.9741" style="stroke: #0000FF; stroke-width: 1.0;"/><!--link HelpIF to Manager--><path d="M778.6066,224.6249 C823.5727,243.8621 871.7474,261.8529 915.3762,276.8889 " fill="none" id="HelpIF-Manager" style="stroke: #0000FF; stroke-width: 1.0; stroke-dasharray: 7.0,7.0;"/><polygon fill="none" points="775.7572,231.0191,760.2235,216.6071,781.3542,218.1866,775.7572,231.0191" style="stroke: #0000FF; stroke-width: 1.0;"/><!--link HelpIF to Manager--><path d="M764.8859,202.3471 C775.358,207.4749 785.8159,212.422 796,216.9531 C845.2116,238.8485 900.7363,259.7813 947.9955,276.8889 " fill="none" id="HelpIF-Manager" style="stroke: #0000FF; stroke-width: 1.0;"/><polygon fill="#0000FF" points="760.3978,200.1391,766.7076,207.7013,764.8842,202.3463,770.2392,200.523,760.3978,200.1391" style="stroke: #0000FF; stroke-width: 1.0;"/><!--link Minister to HelpIF--><path d="M903.2678,181.9782 C862.1831,196.0173 821.0983,200.73 780.0136,196.1163 " fill="none" id="Minister-HelpIF" style="stroke: #0000FF; stroke-width: 1.0; stroke-dasharray: 7.0,7.0;"/><polygon fill="none" points="778.9214,203.031,760.1699,193.1627,780.9826,189.1835,778.9214,203.031" style="stroke: #0000FF; stroke-width: 1.0;"/><!--link HelpIF to Minister--><path d="M765.2007,86.8574 C811.2231,79.1781 857.2454,83.2016 903.2678,98.928 " fill="none" id="HelpIF-Minister" style="stroke: #0000FF; stroke-width: 1.0;"/><polygon fill="#0000FF" points="760.1699,87.7435,769.7273,90.1218,765.0941,86.8762,768.3396,82.243,760.1699,87.7435" style="stroke: #0000FF; stroke-width: 1.0;"/><!--link HelpIF to King--><path d="M487.8217,171.0105 C482.9651,171.2521 478.1085,171.4165 473.252,171.5039 " fill="none" id="HelpIF-King" style="stroke: #0000FF; stroke-width: 1.0; stroke-dasharray: 7.0,7.0;"/><polygon fill="none" points="487.3393,164.0272,507.7877,169.583,488.3378,177.9916,487.3393,164.0272" style="stroke: #0000FF; stroke-width: 1.0;"/><!--link King to HelpIF--><path d="M473.252,109.4023 C483.0551,109.5786 492.8582,110.0691 502.6613,110.8738 " fill="none" id="King-HelpIF" style="stroke: #0000FF; stroke-width: 1.0;"/><polygon fill="#0000FF" points="507.7877,111.3232,499.1715,106.5524,502.8068,110.8865,498.4727,114.5218,507.7877,111.3232" style="stroke: #0000FF; stroke-width: 1.0;"/><!--
@startuml

title Chain responsibility


skinparam classFontColor red
skinparam classFontStyle bold
skinparam classFontSize 16
skinparam classAttributeFontSize 15
skinparam classAttributeFontStyle bold
skinparam classArrowColor blue
skinparam shadowing false



package MyResposibality {


HelpIF <|.. Student 
HelpIF <- -  Student 
HelpIF <|.. Teacher 
HelpIF <- -  Teacher 
HelpIF <|.. Manager 
HelpIF <- -  Manager 
HelpIF <|.l. Minister 
HelpIF <-l-  Minister 
HelpIF <|.r. King
HelpIF <-r-  King

interface HelpIF {

int STUDENT_NUMBER  = 1;
int TEACHER_NUMBER  = 2;
int MANAGER_NUMBER  = 3;
int MINISTER_NUMBER = 4;
int KING_NUMBER     = 5;
void retour(int help_number);
}

class Student {
private HelpIF help;
public Student(HelpIF help){ this.help=help;}
}


class Teacher {
private HelpIF help;
public Teacher(HelpIF help){ this.help=help;}
}

class Manager {
private HelpIF help;
public Manager(HelpIF help){ this.help=help;}
}

class Minister {
private HelpIF help;
public Minister(HelpIF help){ this.help=help;}
}

class King{
private HelpIF help;
public King(HelpIF help){ this.help=help;}
}

}
    
@enduml

PlantUML version 1.2018.10(Sat Aug 25 20:02:59 EEST 2018)
(GPL source distribution)
Java Runtime: OpenJDK Runtime Environment
JVM: OpenJDK 64-Bit Server VM
Java Version: 11.0.2+9-Debian-3
Operating System: Linux
OS Version: 4.19.0-kali1-amd64
Default Encoding: UTF-8
Language: en
Country: US
--></g></svg>