<?xml version="1.0" encoding="UTF-8" standalone="no"?><svg xmlns="http://www.w3.org/2000/svg" xmlns:xlink="http://www.w3.org/1999/xlink" contentScriptType="application/ecmascript" contentStyleType="text/css" height="220px" preserveAspectRatio="none" style="width:1534px;height:220px;" version="1.1" viewBox="0 0 1534 220" width="1534px" zoomAndPan="magnify"><defs><filter height="300%" id="f1pqi89pw000k7" width="300%" x="-1" y="-1"><feGaussianBlur result="blurOut" stdDeviation="2.0"/><feColorMatrix in="blurOut" result="blurOut2" type="matrix" values="0 0 0 0 0 0 0 0 0 0 0 0 0 0 0 0 0 0 .4 0"/><feOffset dx="4.0" dy="4.0" in="blurOut2" result="blurOut3"/><feBlend in="SourceGraphic" in2="blurOut3" mode="normal"/></filter></defs><g><!--MD5=[af4f0946447953c65458b13589ee8938]
cluster headfirst.combined.djview--><polygon fill="#FFFFFF" filter="url(#f1pqi89pw000k7)" points="16,6,231,6,238,28.2969,1369,28.2969,1369,213,16,213,16,6" style="stroke: #000000; stroke-width: 1.5;"/><line style="stroke: #000000; stroke-width: 1.5;" x1="16" x2="238" y1="28.2969" y2="28.2969"/><text fill="#000000" font-family="sans-serif" font-size="14" font-weight="bold" lengthAdjust="spacingAndGlyphs" textLength="209" x="20" y="20.9951">headfirst.combined.djview</text><!--MD5=[aa8f7b917213fcc1c2766e2d59b49067]
cluster java.lang--><polygon fill="#FFFFFF" filter="url(#f1pqi89pw000k7)" points="1393,114,1468,114,1475,136.2969,1517,136.2969,1517,213,1393,213,1393,114" style="stroke: #000000; stroke-width: 1.5;"/><line style="stroke: #000000; stroke-width: 1.5;" x1="1393" x2="1475" y1="136.2969" y2="136.2969"/><text fill="#000000" font-family="sans-serif" font-size="14" font-weight="bold" lengthAdjust="spacingAndGlyphs" textLength="69" x="1397" y="128.9951">java.lang</text><!--MD5=[86e028919c0127485a7012a3c03b5dd2]
class headfirst.combined.djview.BeatBar--><rect codeLine="1" fill="#FEFECE" filter="url(#f1pqi89pw000k7)" height="48" id="headfirst.combined.djview.BeatBar" style="stroke: #A80036; stroke-width: 1.5;" width="82" x="1263" y="41"/><ellipse cx="1278" cy="57" fill="#ADD1B2" rx="11" ry="11" style="stroke: #A80036; stroke-width: 1.0;"/><path d="M1280.9688,62.6406 Q1280.3906,62.9375 1279.75,63.0781 Q1279.1094,63.2344 1278.4063,63.2344 Q1275.9063,63.2344 1274.5781,61.5938 Q1273.2656,59.9375 1273.2656,56.8125 Q1273.2656,53.6875 1274.5781,52.0313 Q1275.9063,50.375 1278.4063,50.375 Q1279.1094,50.375 1279.75,50.5313 Q1280.4063,50.6875 1280.9688,50.9844 L1280.9688,53.7031 Q1280.3438,53.125 1279.75,52.8594 Q1279.1563,52.5781 1278.5313,52.5781 Q1277.1875,52.5781 1276.5,53.6563 Q1275.8125,54.7188 1275.8125,56.8125 Q1275.8125,58.9063 1276.5,59.9844 Q1277.1875,61.0469 1278.5313,61.0469 Q1279.1563,61.0469 1279.75,60.7813 Q1280.3438,60.5 1280.9688,59.9219 L1280.9688,62.6406 Z "/><text fill="#000000" font-family="sans-serif" font-size="12" lengthAdjust="spacingAndGlyphs" textLength="50" x="1292" y="61.1543">BeatBar</text><line style="stroke: #A80036; stroke-width: 1.5;" x1="1264" x2="1344" y1="73" y2="73"/><line style="stroke: #A80036; stroke-width: 1.5;" x1="1264" x2="1344" y1="81" y2="81"/><!--MD5=[d14637afaa209807831a1021f7e7f51f]
class headfirst.combined.djview.BeatController--><rect codeLine="2" fill="#FEFECE" filter="url(#f1pqi89pw000k7)" height="48" id="headfirst.combined.djview.BeatController" style="stroke: #A80036; stroke-width: 1.5;" width="122" x="339" y="41"/><ellipse cx="354" cy="57" fill="#ADD1B2" rx="11" ry="11" style="stroke: #A80036; stroke-width: 1.0;"/><path d="M356.9688,62.6406 Q356.3906,62.9375 355.75,63.0781 Q355.1094,63.2344 354.4063,63.2344 Q351.9063,63.2344 350.5781,61.5938 Q349.2656,59.9375 349.2656,56.8125 Q349.2656,53.6875 350.5781,52.0313 Q351.9063,50.375 354.4063,50.375 Q355.1094,50.375 355.75,50.5313 Q356.4063,50.6875 356.9688,50.9844 L356.9688,53.7031 Q356.3438,53.125 355.75,52.8594 Q355.1563,52.5781 354.5313,52.5781 Q353.1875,52.5781 352.5,53.6563 Q351.8125,54.7188 351.8125,56.8125 Q351.8125,58.9063 352.5,59.9844 Q353.1875,61.0469 354.5313,61.0469 Q355.1563,61.0469 355.75,60.7813 Q356.3438,60.5 356.9688,59.9219 L356.9688,62.6406 Z "/><text fill="#000000" font-family="sans-serif" font-size="12" lengthAdjust="spacingAndGlyphs" textLength="90" x="368" y="61.1543">BeatController</text><line style="stroke: #A80036; stroke-width: 1.5;" x1="340" x2="460" y1="73" y2="73"/><line style="stroke: #A80036; stroke-width: 1.5;" x1="340" x2="460" y1="81" y2="81"/><!--MD5=[c54befecd3f9f3db84c044aad46409a8]
class headfirst.combined.djview.BeatModel--><rect codeLine="3" fill="#FEFECE" filter="url(#f1pqi89pw000k7)" height="48" id="headfirst.combined.djview.BeatModel" style="stroke: #A80036; stroke-width: 1.5;" width="98" x="949" y="41"/><ellipse cx="964" cy="57" fill="#ADD1B2" rx="11" ry="11" style="stroke: #A80036; stroke-width: 1.0;"/><path d="M966.9688,62.6406 Q966.3906,62.9375 965.75,63.0781 Q965.1094,63.2344 964.4063,63.2344 Q961.9063,63.2344 960.5781,61.5938 Q959.2656,59.9375 959.2656,56.8125 Q959.2656,53.6875 960.5781,52.0313 Q961.9063,50.375 964.4063,50.375 Q965.1094,50.375 965.75,50.5313 Q966.4063,50.6875 966.9688,50.9844 L966.9688,53.7031 Q966.3438,53.125 965.75,52.8594 Q965.1563,52.5781 964.5313,52.5781 Q963.1875,52.5781 962.5,53.6563 Q961.8125,54.7188 961.8125,56.8125 Q961.8125,58.9063 962.5,59.9844 Q963.1875,61.0469 964.5313,61.0469 Q965.1563,61.0469 965.75,60.7813 Q966.3438,60.5 966.9688,59.9219 L966.9688,62.6406 Z "/><text fill="#000000" font-family="sans-serif" font-size="12" lengthAdjust="spacingAndGlyphs" textLength="66" x="978" y="61.1543">BeatModel</text><line style="stroke: #A80036; stroke-width: 1.5;" x1="950" x2="1046" y1="73" y2="73"/><line style="stroke: #A80036; stroke-width: 1.5;" x1="950" x2="1046" y1="81" y2="81"/><!--MD5=[8b4a5122afebbc6a135b3906edc7ea3d]
class headfirst.combined.djview.DJTestDrive--><rect codeLine="4" fill="#FEFECE" filter="url(#f1pqi89pw000k7)" height="48" id="headfirst.combined.djview.DJTestDrive" style="stroke: #A80036; stroke-width: 1.5;" width="102" x="812" y="41"/><ellipse cx="827" cy="57" fill="#ADD1B2" rx="11" ry="11" style="stroke: #A80036; stroke-width: 1.0;"/><path d="M829.9688,62.6406 Q829.3906,62.9375 828.75,63.0781 Q828.1094,63.2344 827.4063,63.2344 Q824.9063,63.2344 823.5781,61.5938 Q822.2656,59.9375 822.2656,56.8125 Q822.2656,53.6875 823.5781,52.0313 Q824.9063,50.375 827.4063,50.375 Q828.1094,50.375 828.75,50.5313 Q829.4063,50.6875 829.9688,50.9844 L829.9688,53.7031 Q829.3438,53.125 828.75,52.8594 Q828.1563,52.5781 827.5313,52.5781 Q826.1875,52.5781 825.5,53.6563 Q824.8125,54.7188 824.8125,56.8125 Q824.8125,58.9063 825.5,59.9844 Q826.1875,61.0469 827.5313,61.0469 Q828.1563,61.0469 828.75,60.7813 Q829.3438,60.5 829.9688,59.9219 L829.9688,62.6406 Z "/><text fill="#000000" font-family="sans-serif" font-size="12" lengthAdjust="spacingAndGlyphs" textLength="70" x="841" y="61.1543">DJTestDrive</text><line style="stroke: #A80036; stroke-width: 1.5;" x1="813" x2="913" y1="73" y2="73"/><line style="stroke: #A80036; stroke-width: 1.5;" x1="813" x2="913" y1="81" y2="81"/><!--MD5=[a21ca5b481cbe168eb3dd2e6424b61a9]
class headfirst.combined.djview.DJView--><rect codeLine="5" fill="#FEFECE" filter="url(#f1pqi89pw000k7)" height="48" id="headfirst.combined.djview.DJView" style="stroke: #A80036; stroke-width: 1.5;" width="72" x="208" y="41"/><ellipse cx="223" cy="57" fill="#ADD1B2" rx="11" ry="11" style="stroke: #A80036; stroke-width: 1.0;"/><path d="M225.9688,62.6406 Q225.3906,62.9375 224.75,63.0781 Q224.1094,63.2344 223.4063,63.2344 Q220.9063,63.2344 219.5781,61.5938 Q218.2656,59.9375 218.2656,56.8125 Q218.2656,53.6875 219.5781,52.0313 Q220.9063,50.375 223.4063,50.375 Q224.1094,50.375 224.75,50.5313 Q225.4063,50.6875 225.9688,50.9844 L225.9688,53.7031 Q225.3438,53.125 224.75,52.8594 Q224.1563,52.5781 223.5313,52.5781 Q222.1875,52.5781 221.5,53.6563 Q220.8125,54.7188 220.8125,56.8125 Q220.8125,58.9063 221.5,59.9844 Q222.1875,61.0469 223.5313,61.0469 Q224.1563,61.0469 224.75,60.7813 Q225.3438,60.5 225.9688,59.9219 L225.9688,62.6406 Z "/><text fill="#000000" font-family="sans-serif" font-size="12" lengthAdjust="spacingAndGlyphs" textLength="40" x="237" y="61.1543">DJView</text><line style="stroke: #A80036; stroke-width: 1.5;" x1="209" x2="279" y1="73" y2="73"/><line style="stroke: #A80036; stroke-width: 1.5;" x1="209" x2="279" y1="81" y2="81"/><!--MD5=[7eb7bbe03dd59d12d162a0288c6d0a00]
class headfirst.combined.djview.HeartAdapter--><rect codeLine="6" fill="#FEFECE" filter="url(#f1pqi89pw000k7)" height="48" id="headfirst.combined.djview.HeartAdapter" style="stroke: #A80036; stroke-width: 1.5;" width="117" x="659.5" y="41"/><ellipse cx="674.5" cy="57" fill="#ADD1B2" rx="11" ry="11" style="stroke: #A80036; stroke-width: 1.0;"/><path d="M677.4688,62.6406 Q676.8906,62.9375 676.25,63.0781 Q675.6094,63.2344 674.9063,63.2344 Q672.4063,63.2344 671.0781,61.5938 Q669.7656,59.9375 669.7656,56.8125 Q669.7656,53.6875 671.0781,52.0313 Q672.4063,50.375 674.9063,50.375 Q675.6094,50.375 676.25,50.5313 Q676.9063,50.6875 677.4688,50.9844 L677.4688,53.7031 Q676.8438,53.125 676.25,52.8594 Q675.6563,52.5781 675.0313,52.5781 Q673.6875,52.5781 673,53.6563 Q672.3125,54.7188 672.3125,56.8125 Q672.3125,58.9063 673,59.9844 Q673.6875,61.0469 675.0313,61.0469 Q675.6563,61.0469 676.25,60.7813 Q676.8438,60.5 677.4688,59.9219 L677.4688,62.6406 Z "/><text fill="#000000" font-family="sans-serif" font-size="12" lengthAdjust="spacingAndGlyphs" textLength="85" x="688.5" y="61.1543">HeartAdapter</text><line style="stroke: #A80036; stroke-width: 1.5;" x1="660.5" x2="775.5" y1="73" y2="73"/><line style="stroke: #A80036; stroke-width: 1.5;" x1="660.5" x2="775.5" y1="81" y2="81"/><!--MD5=[7f51e1ad903098bdfa3de396e99de20f]
class headfirst.combined.djview.HeartController--><rect codeLine="7" fill="#FEFECE" filter="url(#f1pqi89pw000k7)" height="48" id="headfirst.combined.djview.HeartController" style="stroke: #A80036; stroke-width: 1.5;" width="128" x="496" y="41"/><ellipse cx="511" cy="57" fill="#ADD1B2" rx="11" ry="11" style="stroke: #A80036; stroke-width: 1.0;"/><path d="M513.9688,62.6406 Q513.3906,62.9375 512.75,63.0781 Q512.1094,63.2344 511.4063,63.2344 Q508.9063,63.2344 507.5781,61.5938 Q506.2656,59.9375 506.2656,56.8125 Q506.2656,53.6875 507.5781,52.0313 Q508.9063,50.375 511.4063,50.375 Q512.1094,50.375 512.75,50.5313 Q513.4063,50.6875 513.9688,50.9844 L513.9688,53.7031 Q513.3438,53.125 512.75,52.8594 Q512.1563,52.5781 511.5313,52.5781 Q510.1875,52.5781 509.5,53.6563 Q508.8125,54.7188 508.8125,56.8125 Q508.8125,58.9063 509.5,59.9844 Q510.1875,61.0469 511.5313,61.0469 Q512.1563,61.0469 512.75,60.7813 Q513.3438,60.5 513.9688,59.9219 L513.9688,62.6406 Z "/><text fill="#000000" font-family="sans-serif" font-size="12" lengthAdjust="spacingAndGlyphs" textLength="96" x="525" y="61.1543">HeartController</text><line style="stroke: #A80036; stroke-width: 1.5;" x1="497" x2="623" y1="73" y2="73"/><line style="stroke: #A80036; stroke-width: 1.5;" x1="497" x2="623" y1="81" y2="81"/><!--MD5=[0466f54d57d7658b3ac4d1904832ea4c]
class headfirst.combined.djview.HeartModel--><rect codeLine="8" fill="#FEFECE" filter="url(#f1pqi89pw000k7)" height="48" id="headfirst.combined.djview.HeartModel" style="stroke: #A80036; stroke-width: 1.5;" width="104" x="1107" y="41"/><ellipse cx="1122" cy="57" fill="#ADD1B2" rx="11" ry="11" style="stroke: #A80036; stroke-width: 1.0;"/><path d="M1124.9688,62.6406 Q1124.3906,62.9375 1123.75,63.0781 Q1123.1094,63.2344 1122.4063,63.2344 Q1119.9063,63.2344 1118.5781,61.5938 Q1117.2656,59.9375 1117.2656,56.8125 Q1117.2656,53.6875 1118.5781,52.0313 Q1119.9063,50.375 1122.4063,50.375 Q1123.1094,50.375 1123.75,50.5313 Q1124.4063,50.6875 1124.9688,50.9844 L1124.9688,53.7031 Q1124.3438,53.125 1123.75,52.8594 Q1123.1563,52.5781 1122.5313,52.5781 Q1121.1875,52.5781 1120.5,53.6563 Q1119.8125,54.7188 1119.8125,56.8125 Q1119.8125,58.9063 1120.5,59.9844 Q1121.1875,61.0469 1122.5313,61.0469 Q1123.1563,61.0469 1123.75,60.7813 Q1124.3438,60.5 1124.9688,59.9219 L1124.9688,62.6406 Z "/><text fill="#000000" font-family="sans-serif" font-size="12" lengthAdjust="spacingAndGlyphs" textLength="72" x="1136" y="61.1543">HeartModel</text><line style="stroke: #A80036; stroke-width: 1.5;" x1="1108" x2="1210" y1="73" y2="73"/><line style="stroke: #A80036; stroke-width: 1.5;" x1="1108" x2="1210" y1="81" y2="81"/><!--MD5=[a53e07ba10871fbdb637ca37123c4e97]
class headfirst.combined.djview.HeartTestDrive--><rect codeLine="9" fill="#FEFECE" filter="url(#f1pqi89pw000k7)" height="48" id="headfirst.combined.djview.HeartTestDrive" style="stroke: #A80036; stroke-width: 1.5;" width="125" x="40.5" y="41"/><ellipse cx="55.5" cy="57" fill="#ADD1B2" rx="11" ry="11" style="stroke: #A80036; stroke-width: 1.0;"/><path d="M58.4688,62.6406 Q57.8906,62.9375 57.25,63.0781 Q56.6094,63.2344 55.9063,63.2344 Q53.4063,63.2344 52.0781,61.5938 Q50.7656,59.9375 50.7656,56.8125 Q50.7656,53.6875 52.0781,52.0313 Q53.4063,50.375 55.9063,50.375 Q56.6094,50.375 57.25,50.5313 Q57.9063,50.6875 58.4688,50.9844 L58.4688,53.7031 Q57.8438,53.125 57.25,52.8594 Q56.6563,52.5781 56.0313,52.5781 Q54.6875,52.5781 54,53.6563 Q53.3125,54.7188 53.3125,56.8125 Q53.3125,58.9063 54,59.9844 Q54.6875,61.0469 56.0313,61.0469 Q56.6563,61.0469 57.25,60.7813 Q57.8438,60.5 58.4688,59.9219 L58.4688,62.6406 Z "/><text fill="#000000" font-family="sans-serif" font-size="12" lengthAdjust="spacingAndGlyphs" textLength="93" x="69.5" y="61.1543">HeartTestDrive</text><line style="stroke: #A80036; stroke-width: 1.5;" x1="41.5" x2="164.5" y1="73" y2="73"/><line style="stroke: #A80036; stroke-width: 1.5;" x1="41.5" x2="164.5" y1="81" y2="81"/><!--MD5=[873de7fa3ac4c75173c6b7132a1952b1]
class headfirst.combined.djview.JProgressBar--><rect codeLine="10" fill="#FEFECE" filter="url(#f1pqi89pw000k7)" height="48" id="headfirst.combined.djview.JProgressBar" style="stroke: #A80036; stroke-width: 1.5;" width="112" x="1241" y="149"/><ellipse cx="1256" cy="165" fill="#ADD1B2" rx="11" ry="11" style="stroke: #A80036; stroke-width: 1.0;"/><path d="M1258.9688,170.6406 Q1258.3906,170.9375 1257.75,171.0781 Q1257.1094,171.2344 1256.4063,171.2344 Q1253.9063,171.2344 1252.5781,169.5938 Q1251.2656,167.9375 1251.2656,164.8125 Q1251.2656,161.6875 1252.5781,160.0313 Q1253.9063,158.375 1256.4063,158.375 Q1257.1094,158.375 1257.75,158.5313 Q1258.4063,158.6875 1258.9688,158.9844 L1258.9688,161.7031 Q1258.3438,161.125 1257.75,160.8594 Q1257.1563,160.5781 1256.5313,160.5781 Q1255.1875,160.5781 1254.5,161.6563 Q1253.8125,162.7188 1253.8125,164.8125 Q1253.8125,166.9063 1254.5,167.9844 Q1255.1875,169.0469 1256.5313,169.0469 Q1257.1563,169.0469 1257.75,168.7813 Q1258.3438,168.5 1258.9688,167.9219 L1258.9688,170.6406 Z "/><text fill="#000000" font-family="sans-serif" font-size="12" lengthAdjust="spacingAndGlyphs" textLength="80" x="1270" y="169.1543">JProgressBar</text><line style="stroke: #A80036; stroke-width: 1.5;" x1="1242" x2="1352" y1="181" y2="181"/><line style="stroke: #A80036; stroke-width: 1.5;" x1="1242" x2="1352" y1="189" y2="189"/><!--MD5=[00e41c5512eb3ed293bd91bed1a7a028]
class headfirst.combined.djview.ActionListener--><rect codeLine="11" fill="#FEFECE" filter="url(#f1pqi89pw000k7)" height="48" id="headfirst.combined.djview.ActionListener" style="stroke: #A80036; stroke-width: 1.5;" width="121" x="32.5" y="149"/><ellipse cx="47.5" cy="165" fill="#B4A7E5" rx="11" ry="11" style="stroke: #A80036; stroke-width: 1.0;"/><path d="M43.4219,160.7656 L43.4219,158.6094 L50.8125,158.6094 L50.8125,160.7656 L48.3438,160.7656 L48.3438,168.8438 L50.8125,168.8438 L50.8125,171 L43.4219,171 L43.4219,168.8438 L45.8906,168.8438 L45.8906,160.7656 L43.4219,160.7656 Z "/><text fill="#000000" font-family="sans-serif" font-size="12" font-style="italic" lengthAdjust="spacingAndGlyphs" textLength="89" x="61.5" y="169.1543">ActionListener</text><line style="stroke: #A80036; stroke-width: 1.5;" x1="33.5" x2="152.5" y1="181" y2="181"/><line style="stroke: #A80036; stroke-width: 1.5;" x1="33.5" x2="152.5" y1="189" y2="189"/><!--MD5=[6fcba583fd67793f2ec7d4b978154254]
class headfirst.combined.djview.BPMObserver--><rect codeLine="12" fill="#FEFECE" filter="url(#f1pqi89pw000k7)" height="48" id="headfirst.combined.djview.BPMObserver" style="stroke: #A80036; stroke-width: 1.5;" width="111" x="188.5" y="149"/><ellipse cx="203.5" cy="165" fill="#B4A7E5" rx="11" ry="11" style="stroke: #A80036; stroke-width: 1.0;"/><path d="M199.4219,160.7656 L199.4219,158.6094 L206.8125,158.6094 L206.8125,160.7656 L204.3438,160.7656 L204.3438,168.8438 L206.8125,168.8438 L206.8125,171 L199.4219,171 L199.4219,168.8438 L201.8906,168.8438 L201.8906,160.7656 L199.4219,160.7656 Z "/><text fill="#000000" font-family="sans-serif" font-size="12" font-style="italic" lengthAdjust="spacingAndGlyphs" textLength="79" x="217.5" y="169.1543">BPMObserver</text><line style="stroke: #A80036; stroke-width: 1.5;" x1="189.5" x2="298.5" y1="181" y2="181"/><line style="stroke: #A80036; stroke-width: 1.5;" x1="189.5" x2="298.5" y1="189" y2="189"/><!--MD5=[595b09768d87f0beca31a8a6c07db2c8]
class headfirst.combined.djview.BeatModelInterface--><rect codeLine="13" fill="#FEFECE" filter="url(#f1pqi89pw000k7)" height="48" id="headfirst.combined.djview.BeatModelInterface" style="stroke: #A80036; stroke-width: 1.5;" width="155" x="670.5" y="149"/><ellipse cx="685.5" cy="165" fill="#B4A7E5" rx="11" ry="11" style="stroke: #A80036; stroke-width: 1.0;"/><path d="M681.4219,160.7656 L681.4219,158.6094 L688.8125,158.6094 L688.8125,160.7656 L686.3438,160.7656 L686.3438,168.8438 L688.8125,168.8438 L688.8125,171 L681.4219,171 L681.4219,168.8438 L683.8906,168.8438 L683.8906,160.7656 L681.4219,160.7656 Z "/><text fill="#000000" font-family="sans-serif" font-size="12" font-style="italic" lengthAdjust="spacingAndGlyphs" textLength="123" x="699.5" y="169.1543">BeatModelInterface</text><line style="stroke: #A80036; stroke-width: 1.5;" x1="671.5" x2="824.5" y1="181" y2="181"/><line style="stroke: #A80036; stroke-width: 1.5;" x1="671.5" x2="824.5" y1="189" y2="189"/><!--MD5=[9be383c8e55102cfcbde0b5aa0c8f97b]
class headfirst.combined.djview.BeatObserver--><rect codeLine="14" fill="#FEFECE" filter="url(#f1pqi89pw000k7)" height="48" id="headfirst.combined.djview.BeatObserver" style="stroke: #A80036; stroke-width: 1.5;" width="115" x="334.5" y="149"/><ellipse cx="349.5" cy="165" fill="#B4A7E5" rx="11" ry="11" style="stroke: #A80036; stroke-width: 1.0;"/><path d="M345.4219,160.7656 L345.4219,158.6094 L352.8125,158.6094 L352.8125,160.7656 L350.3438,160.7656 L350.3438,168.8438 L352.8125,168.8438 L352.8125,171 L345.4219,171 L345.4219,168.8438 L347.8906,168.8438 L347.8906,160.7656 L345.4219,160.7656 Z "/><text fill="#000000" font-family="sans-serif" font-size="12" font-style="italic" lengthAdjust="spacingAndGlyphs" textLength="83" x="363.5" y="169.1543">BeatObserver</text><line style="stroke: #A80036; stroke-width: 1.5;" x1="335.5" x2="448.5" y1="181" y2="181"/><line style="stroke: #A80036; stroke-width: 1.5;" x1="335.5" x2="448.5" y1="189" y2="189"/><!--MD5=[12410f66c3960f6eb3b7d01c4e898deb]
class headfirst.combined.djview.ControllerInterface--><rect codeLine="15" fill="#FEFECE" filter="url(#f1pqi89pw000k7)" height="48" id="headfirst.combined.djview.ControllerInterface" style="stroke: #A80036; stroke-width: 1.5;" width="150" x="485" y="149"/><ellipse cx="500" cy="165" fill="#B4A7E5" rx="11" ry="11" style="stroke: #A80036; stroke-width: 1.0;"/><path d="M495.9219,160.7656 L495.9219,158.6094 L503.3125,158.6094 L503.3125,160.7656 L500.8438,160.7656 L500.8438,168.8438 L503.3125,168.8438 L503.3125,171 L495.9219,171 L495.9219,168.8438 L498.3906,168.8438 L498.3906,160.7656 L495.9219,160.7656 Z "/><text fill="#000000" font-family="sans-serif" font-size="12" font-style="italic" lengthAdjust="spacingAndGlyphs" textLength="118" x="514" y="169.1543">ControllerInterface</text><line style="stroke: #A80036; stroke-width: 1.5;" x1="486" x2="634" y1="181" y2="181"/><line style="stroke: #A80036; stroke-width: 1.5;" x1="486" x2="634" y1="189" y2="189"/><!--MD5=[79986e4a229e2e089c750ee3412aefa3]
class headfirst.combined.djview.HeartModelInterface--><rect codeLine="16" fill="#FEFECE" filter="url(#f1pqi89pw000k7)" height="48" id="headfirst.combined.djview.HeartModelInterface" style="stroke: #A80036; stroke-width: 1.5;" width="161" x="1044.5" y="149"/><ellipse cx="1059.5" cy="165" fill="#B4A7E5" rx="11" ry="11" style="stroke: #A80036; stroke-width: 1.0;"/><path d="M1055.4219,160.7656 L1055.4219,158.6094 L1062.8125,158.6094 L1062.8125,160.7656 L1060.3438,160.7656 L1060.3438,168.8438 L1062.8125,168.8438 L1062.8125,171 L1055.4219,171 L1055.4219,168.8438 L1057.8906,168.8438 L1057.8906,160.7656 L1055.4219,160.7656 Z "/><text fill="#000000" font-family="sans-serif" font-size="12" font-style="italic" lengthAdjust="spacingAndGlyphs" textLength="129" x="1073.5" y="169.1543">HeartModelInterface</text><line style="stroke: #A80036; stroke-width: 1.5;" x1="1045.5" x2="1204.5" y1="181" y2="181"/><line style="stroke: #A80036; stroke-width: 1.5;" x1="1045.5" x2="1204.5" y1="189" y2="189"/><!--MD5=[f7883db45924e8bb7d5c252065f1733d]
class headfirst.combined.djview.MetaEventListener--><rect codeLine="17" fill="#FEFECE" filter="url(#f1pqi89pw000k7)" height="48" id="headfirst.combined.djview.MetaEventListener" style="stroke: #A80036; stroke-width: 1.5;" width="148" x="861" y="149"/><ellipse cx="876" cy="165" fill="#B4A7E5" rx="11" ry="11" style="stroke: #A80036; stroke-width: 1.0;"/><path d="M871.9219,160.7656 L871.9219,158.6094 L879.3125,158.6094 L879.3125,160.7656 L876.8438,160.7656 L876.8438,168.8438 L879.3125,168.8438 L879.3125,171 L871.9219,171 L871.9219,168.8438 L874.3906,168.8438 L874.3906,160.7656 L871.9219,160.7656 Z "/><text fill="#000000" font-family="sans-serif" font-size="12" font-style="italic" lengthAdjust="spacingAndGlyphs" textLength="116" x="890" y="169.1543">MetaEventListener</text><line style="stroke: #A80036; stroke-width: 1.5;" x1="862" x2="1008" y1="181" y2="181"/><line style="stroke: #A80036; stroke-width: 1.5;" x1="862" x2="1008" y1="189" y2="189"/><!--MD5=[8dac795f9edbf65a524ac462449c98fb]
class java.lang.Runnable--><rect codeLine="18" fill="#FEFECE" filter="url(#f1pqi89pw000k7)" height="48" id="java.lang.Runnable" style="stroke: #A80036; stroke-width: 1.5;" width="91" x="1409.5" y="149"/><ellipse cx="1424.5" cy="165" fill="#B4A7E5" rx="11" ry="11" style="stroke: #A80036; stroke-width: 1.0;"/><path d="M1420.4219,160.7656 L1420.4219,158.6094 L1427.8125,158.6094 L1427.8125,160.7656 L1425.3438,160.7656 L1425.3438,168.8438 L1427.8125,168.8438 L1427.8125,171 L1420.4219,171 L1420.4219,168.8438 L1422.8906,168.8438 L1422.8906,160.7656 L1420.4219,160.7656 Z "/><text fill="#000000" font-family="sans-serif" font-size="12" font-style="italic" lengthAdjust="spacingAndGlyphs" textLength="59" x="1438.5" y="169.1543">Runnable</text><line style="stroke: #A80036; stroke-width: 1.5;" x1="1410.5" x2="1499.5" y1="181" y2="181"/><line style="stroke: #A80036; stroke-width: 1.5;" x1="1410.5" x2="1499.5" y1="189" y2="189"/><!--MD5=[8feb16101fb81bcc0d17aad9e1bf13c0]
link headfirst.combined.djview.BeatBar to headfirst.combined.djview.JProgressBar--><path codeLine="19" d="M1302.48,89 C1301.72,100.59 1300.76,115.03 1299.87,128.6 " fill="none" id="headfirst.combined.djview.BeatBar-to-headfirst.combined.djview.JProgressBar" style="stroke: #A80036; stroke-width: 1.0;"/><polygon fill="none" points="1306.84,129.18,1298.54,148.68,1292.87,128.26,1306.84,129.18" style="stroke: #A80036; stroke-width: 1.0;"/><!--MD5=[b5c04a16404709b5c65e0e94edf0de3b]
link headfirst.combined.djview.BeatBar to java.lang.Runnable--><path codeLine="20" d="M1342.91,89.05 C1351.61,94.44 1360.71,100.29 1369,106 C1382.84,115.53 1397.49,126.45 1410.7,136.62 " fill="none" id="headfirst.combined.djview.BeatBar-to-java.lang.Runnable" style="stroke: #A80036; stroke-width: 1.0;"/><polygon fill="none" points="1415.03,131.12,1426.49,148.94,1406.42,142.15,1415.03,131.12" style="stroke: #A80036; stroke-width: 1.0;"/><!--MD5=[b5f1d96de5e765997fb92a2d905ec5ce]
link headfirst.combined.djview.BeatController to headfirst.combined.djview.ControllerInterface--><path codeLine="21" d="M440,89.18 C448.97,94.57 458.37,100.38 467,106 C481.86,115.69 497.7,126.67 512.03,136.87 " fill="none" id="headfirst.combined.djview.BeatController-to-headfirst.combined.djview.ControllerInterface" style="stroke: #A80036; stroke-width: 1.0;"/><polygon fill="none" points="516.43,131.41,528.58,148.77,508.25,142.77,516.43,131.41" style="stroke: #A80036; stroke-width: 1.0;"/><!--MD5=[5b472d4392e16e3b98203a65e55637a2]
link headfirst.combined.djview.BeatModel to headfirst.combined.djview.BeatModelInterface--><path codeLine="22" d="M948.84,83.75 C942.87,85.64 936.82,87.45 931,89 C892.51,99.27 879.71,90.52 843,106 C824.75,113.69 806.47,125.25 790.88,136.56 " fill="none" id="headfirst.combined.djview.BeatModel-to-headfirst.combined.djview.BeatModelInterface" style="stroke: #A80036; stroke-width: 1.0;"/><polygon fill="none" points="795.01,142.21,774.86,148.76,786.53,131.07,795.01,142.21" style="stroke: #A80036; stroke-width: 1.0;"/><!--MD5=[7f921a6f9a8331d55cac6965be74bce8]
link headfirst.combined.djview.BeatModel to headfirst.combined.djview.MetaEventListener--><path codeLine="23" d="M984.33,89 C977.03,101.28 967.83,116.76 959.36,131.01 " fill="none" id="headfirst.combined.djview.BeatModel-to-headfirst.combined.djview.MetaEventListener" style="stroke: #A80036; stroke-width: 1.0;"/><polygon fill="none" points="965.1,135.06,948.86,148.68,953.06,127.91,965.1,135.06" style="stroke: #A80036; stroke-width: 1.0;"/><!--MD5=[5efa5be343ad98cdae60fe32495a7a73]
link headfirst.combined.djview.DJView to headfirst.combined.djview.ActionListener--><path codeLine="24" d="M207.87,83.94 C195.83,90.4 182.56,98.06 171,106 C158.03,114.91 144.69,125.56 132.78,135.69 " fill="none" id="headfirst.combined.djview.DJView-to-headfirst.combined.djview.ActionListener" style="stroke: #A80036; stroke-width: 1.0;"/><polygon fill="none" points="137.28,141.06,117.62,148.95,128.06,130.52,137.28,141.06" style="stroke: #A80036; stroke-width: 1.0;"/><!--MD5=[16d719da2a7f0521d4c2c6971b13d038]
link headfirst.combined.djview.DJView to headfirst.combined.djview.BPMObserver--><path codeLine="25" d="M244,89 C244,100.59 244,115.03 244,128.6 " fill="none" id="headfirst.combined.djview.DJView-to-headfirst.combined.djview.BPMObserver" style="stroke: #A80036; stroke-width: 1.0;"/><polygon fill="none" points="251,128.68,244,148.68,237,128.68,251,128.68" style="stroke: #A80036; stroke-width: 1.0;"/><!--MD5=[c03420e2d4e34efd2662d966d1c9c452]
link headfirst.combined.djview.DJView to headfirst.combined.djview.BeatObserver--><path codeLine="26" d="M280.22,83.81 C292.26,90.26 305.52,97.95 317,106 C329.45,114.73 342.17,125.22 353.52,135.25 " fill="none" id="headfirst.combined.djview.DJView-to-headfirst.combined.djview.BeatObserver" style="stroke: #A80036; stroke-width: 1.0;"/><polygon fill="none" points="358.4,130.22,368.47,148.87,348.97,140.57,358.4,130.22" style="stroke: #A80036; stroke-width: 1.0;"/><!--MD5=[06f413b473020297dc921b470aab3cb3]
link headfirst.combined.djview.HeartAdapter to headfirst.combined.djview.BeatModelInterface--><path codeLine="27" d="M724.51,89 C727.83,100.73 731.97,115.37 735.85,129.09 " fill="none" id="headfirst.combined.djview.HeartAdapter-to-headfirst.combined.djview.BeatModelInterface" style="stroke: #A80036; stroke-width: 1.0;"/><polygon fill="none" points="742.69,127.53,741.4,148.68,729.22,131.34,742.69,127.53" style="stroke: #A80036; stroke-width: 1.0;"/><!--MD5=[e78fff501740a7e7944d0bb193086152]
link headfirst.combined.djview.HeartController to headfirst.combined.djview.ControllerInterface--><path codeLine="28" d="M560,89 C560,100.59 560,115.03 560,128.6 " fill="none" id="headfirst.combined.djview.HeartController-to-headfirst.combined.djview.ControllerInterface" style="stroke: #A80036; stroke-width: 1.0;"/><polygon fill="none" points="567,128.68,560,148.68,553,128.68,567,128.68" style="stroke: #A80036; stroke-width: 1.0;"/><!--MD5=[0388a9c778fec6aa8a4502bb56e957d6]
link headfirst.combined.djview.HeartModel to headfirst.combined.djview.HeartModelInterface--><path codeLine="29" d="M1151.62,89 C1147.82,100.86 1143.05,115.72 1138.61,129.57 " fill="none" id="headfirst.combined.djview.HeartModel-to-headfirst.combined.djview.HeartModelInterface" style="stroke: #A80036; stroke-width: 1.0;"/><polygon fill="none" points="1145.25,131.77,1132.48,148.68,1131.92,127.5,1145.25,131.77" style="stroke: #A80036; stroke-width: 1.0;"/><!--MD5=[5272f18823eeca3429330510c5b41892]
link headfirst.combined.djview.HeartModel to java.lang.Runnable--><path codeLine="30" d="M1211.21,80.9 C1222.61,83.85 1234.66,86.73 1246,89 C1300.11,99.85 1318.08,84.72 1369,106 C1385.91,113.07 1402.4,124.31 1416.35,135.53 " fill="none" id="headfirst.combined.djview.HeartModel-to-java.lang.Runnable" style="stroke: #A80036; stroke-width: 1.0;"/><polygon fill="none" points="1421.33,130.58,1431.95,148.92,1412.21,141.21,1421.33,130.58" style="stroke: #A80036; stroke-width: 1.0;"/><!--MD5=[d5b9e8f2f04be6fa9a296e915af31005]
@startuml
class headfirst.combined.djview.BeatBar
class headfirst.combined.djview.BeatController
class headfirst.combined.djview.BeatModel
class headfirst.combined.djview.DJTestDrive
class headfirst.combined.djview.DJView
class headfirst.combined.djview.HeartAdapter
class headfirst.combined.djview.HeartController
class headfirst.combined.djview.HeartModel
class headfirst.combined.djview.HeartTestDrive
class headfirst.combined.djview.JProgressBar
interface headfirst.combined.djview.ActionListener
interface headfirst.combined.djview.BPMObserver
interface headfirst.combined.djview.BeatModelInterface
interface headfirst.combined.djview.BeatObserver
interface headfirst.combined.djview.ControllerInterface
interface headfirst.combined.djview.HeartModelInterface
interface headfirst.combined.djview.MetaEventListener
interface java.lang.Runnable
headfirst.combined.djview.BeatBar - -|> headfirst.combined.djview.JProgressBar
headfirst.combined.djview.BeatBar - -|> java.lang.Runnable
headfirst.combined.djview.BeatController - -|> headfirst.combined.djview.ControllerInterface
headfirst.combined.djview.BeatModel - -|> headfirst.combined.djview.BeatModelInterface
headfirst.combined.djview.BeatModel - -|> headfirst.combined.djview.MetaEventListener
headfirst.combined.djview.DJView - -|> headfirst.combined.djview.ActionListener
headfirst.combined.djview.DJView - -|> headfirst.combined.djview.BPMObserver
headfirst.combined.djview.DJView - -|> headfirst.combined.djview.BeatObserver
headfirst.combined.djview.HeartAdapter - -|> headfirst.combined.djview.BeatModelInterface
headfirst.combined.djview.HeartController - -|> headfirst.combined.djview.ControllerInterface
headfirst.combined.djview.HeartModel - -|> headfirst.combined.djview.HeartModelInterface
headfirst.combined.djview.HeartModel - -|> java.lang.Runnable
@enduml

PlantUML version 1.2020.18(Wed Sep 30 22:40:44 EEST 2020)
(GPL source distribution)
Java Runtime: OpenJDK Runtime Environment
JVM: OpenJDK 64-Bit Server VM
Default Encoding: UTF-8
Language: en
Country: US
--></g></svg>