<?xml version="1.0" encoding="UTF-8" standalone="no"?><svg xmlns="http://www.w3.org/2000/svg" xmlns:xlink="http://www.w3.org/1999/xlink" contentScriptType="application/ecmascript" contentStyleType="text/css" height="220px" preserveAspectRatio="none" style="width:1299px;height:220px;" version="1.1" viewBox="0 0 1299 220" width="1299px" zoomAndPan="magnify"><defs><filter height="300%" id="f51xqxv3a6trp" width="300%" x="-1" y="-1"><feGaussianBlur result="blurOut" stdDeviation="2.0"/><feColorMatrix in="blurOut" result="blurOut2" type="matrix" values="0 0 0 0 0 0 0 0 0 0 0 0 0 0 0 0 0 0 .4 0"/><feOffset dx="4.0" dy="4.0" in="blurOut2" result="blurOut3"/><feBlend in="SourceGraphic" in2="blurOut3" mode="normal"/></filter></defs><g><!--MD5=[aa8f7b917213fcc1c2766e2d59b49067]
cluster java.lang--><polygon fill="#FFFFFF" filter="url(#f51xqxv3a6trp)" points="1166,114,1241,114,1248,136.2969,1282,136.2969,1282,213,1166,213,1166,114" style="stroke: #000000; stroke-width: 1.5;"/><line style="stroke: #000000; stroke-width: 1.5;" x1="1166" x2="1248" y1="136.2969" y2="136.2969"/><text fill="#000000" font-family="sans-serif" font-size="14" font-weight="bold" lengthAdjust="spacingAndGlyphs" textLength="69" x="1170" y="128.9951">java.lang</text><!--MD5=[fba73330ef1d5568d85173f403ffdc43]
cluster command3--><polygon fill="#FFFFFF" filter="url(#f51xqxv3a6trp)" points="16,6,108,6,115,28.2969,1142,28.2969,1142,213,16,213,16,6" style="stroke: #000000; stroke-width: 1.5;"/><line style="stroke: #000000; stroke-width: 1.5;" x1="16" x2="115" y1="28.2969" y2="28.2969"/><text fill="#000000" font-family="sans-serif" font-size="14" font-weight="bold" lengthAdjust="spacingAndGlyphs" textLength="86" x="20" y="20.9951">command3</text><!--MD5=[3c78a2fa643d9223b1f8ad930e883961]
class java.lang.Override--><rect codeLine="1" fill="#FEFECE" filter="url(#f51xqxv3a6trp)" height="48" id="java.lang.Override" style="stroke: #A80036; stroke-width: 1.5;" width="84" x="1182" y="149"/><ellipse cx="1197" cy="165" fill="#E3664A" rx="11" ry="11" style="stroke: #A80036; stroke-width: 1.0;"/><path d="M1199.0781,165.4688 Q1199.0781,164.5313 1198.6563,164 Q1198.2344,163.4688 1197.4844,163.4688 Q1196.75,163.4688 1196.3281,164 Q1195.9219,164.5313 1195.9219,165.4688 Q1195.9219,166.4219 1196.3281,166.9531 Q1196.75,167.4844 1197.4844,167.4844 Q1198.2344,167.4844 1198.6563,166.9531 Q1199.0781,166.4219 1199.0781,165.4688 Z M1200.625,168.875 L1199,168.875 L1199,168.2031 Q1198.6719,168.6406 1198.25,168.8438 Q1197.8281,169.0469 1197.2188,169.0469 Q1195.8594,169.0469 1195.0313,168.0781 Q1194.2031,167.0938 1194.2031,165.4688 Q1194.2031,163.875 1195.0313,162.9063 Q1195.8594,161.9219 1197.2188,161.9219 Q1197.8125,161.9219 1198.2656,162.125 Q1198.7188,162.3281 1199,162.7188 L1199,162.375 Q1199,161.25 1198.375,160.6406 Q1197.75,160.0156 1196.6094,160.0156 Q1194.8906,160.0156 1193.7969,161.5469 Q1192.7031,163.0625 1192.7031,165.5 Q1192.7031,168.0469 1193.9531,169.5469 Q1195.2188,171.0469 1197.3281,171.0469 Q1197.9844,171.0469 1198.6094,170.8594 Q1199.2344,170.6719 1199.8125,170.2813 L1200.5781,171.7344 Q1199.9063,172.1875 1199.1094,172.4063 Q1198.3125,172.6406 1197.4063,172.6406 Q1194.5,172.6406 1192.7656,170.7031 Q1191.0469,168.7813 1191.0469,165.5 Q1191.0469,162.2813 1192.5938,160.3594 Q1194.1563,158.4219 1196.7188,158.4219 Q1198.5156,158.4219 1199.5625,159.5156 Q1200.625,160.6094 1200.625,162.4844 L1200.625,168.875 Z "/><text fill="#000000" font-family="sans-serif" font-size="12" lengthAdjust="spacingAndGlyphs" textLength="52" x="1211" y="169.1543">Override</text><line style="stroke: #A80036; stroke-width: 1.5;" x1="1183" x2="1265" y1="181" y2="181"/><line style="stroke: #A80036; stroke-width: 1.5;" x1="1183" x2="1265" y1="189" y2="189"/><!--MD5=[703773f7c95d258d3a2f58b4c5205278]
class command3.CommandTVOFF--><rect codeLine="2" fill="#FEFECE" filter="url(#f51xqxv3a6trp)" height="48" id="command3.CommandTVOFF" style="stroke: #A80036; stroke-width: 1.5;" width="132" x="513" y="41"/><ellipse cx="528" cy="57" fill="#ADD1B2" rx="11" ry="11" style="stroke: #A80036; stroke-width: 1.0;"/><path d="M530.9688,62.6406 Q530.3906,62.9375 529.75,63.0781 Q529.1094,63.2344 528.4063,63.2344 Q525.9063,63.2344 524.5781,61.5938 Q523.2656,59.9375 523.2656,56.8125 Q523.2656,53.6875 524.5781,52.0313 Q525.9063,50.375 528.4063,50.375 Q529.1094,50.375 529.75,50.5313 Q530.4063,50.6875 530.9688,50.9844 L530.9688,53.7031 Q530.3438,53.125 529.75,52.8594 Q529.1563,52.5781 528.5313,52.5781 Q527.1875,52.5781 526.5,53.6563 Q525.8125,54.7188 525.8125,56.8125 Q525.8125,58.9063 526.5,59.9844 Q527.1875,61.0469 528.5313,61.0469 Q529.1563,61.0469 529.75,60.7813 Q530.3438,60.5 530.9688,59.9219 L530.9688,62.6406 Z "/><text fill="#000000" font-family="sans-serif" font-size="12" lengthAdjust="spacingAndGlyphs" textLength="100" x="542" y="61.1543">CommandTVOFF</text><line style="stroke: #A80036; stroke-width: 1.5;" x1="514" x2="644" y1="73" y2="73"/><line style="stroke: #A80036; stroke-width: 1.5;" x1="514" x2="644" y1="81" y2="81"/><!--MD5=[5d5bfca7fba5c35d121a645a80f87262]
class command3.CommandTVON--><rect codeLine="3" fill="#FEFECE" filter="url(#f51xqxv3a6trp)" height="48" id="command3.CommandTVON" style="stroke: #A80036; stroke-width: 1.5;" width="127" x="350.5" y="41"/><ellipse cx="365.5" cy="57" fill="#ADD1B2" rx="11" ry="11" style="stroke: #A80036; stroke-width: 1.0;"/><path d="M368.4688,62.6406 Q367.8906,62.9375 367.25,63.0781 Q366.6094,63.2344 365.9063,63.2344 Q363.4063,63.2344 362.0781,61.5938 Q360.7656,59.9375 360.7656,56.8125 Q360.7656,53.6875 362.0781,52.0313 Q363.4063,50.375 365.9063,50.375 Q366.6094,50.375 367.25,50.5313 Q367.9063,50.6875 368.4688,50.9844 L368.4688,53.7031 Q367.8438,53.125 367.25,52.8594 Q366.6563,52.5781 366.0313,52.5781 Q364.6875,52.5781 364,53.6563 Q363.3125,54.7188 363.3125,56.8125 Q363.3125,58.9063 364,59.9844 Q364.6875,61.0469 366.0313,61.0469 Q366.6563,61.0469 367.25,60.7813 Q367.8438,60.5 368.4688,59.9219 L368.4688,62.6406 Z "/><text fill="#000000" font-family="sans-serif" font-size="12" lengthAdjust="spacingAndGlyphs" textLength="95" x="379.5" y="61.1543">CommandTVON</text><line style="stroke: #A80036; stroke-width: 1.5;" x1="351.5" x2="476.5" y1="73" y2="73"/><line style="stroke: #A80036; stroke-width: 1.5;" x1="351.5" x2="476.5" y1="81" y2="81"/><!--MD5=[20477e2e0e70e495fc63e979d95a1b27]
class command3.CommandVLCoff--><rect codeLine="4" fill="#FEFECE" filter="url(#f51xqxv3a6trp)" height="48" id="command3.CommandVLCoff" style="stroke: #A80036; stroke-width: 1.5;" width="132" x="994" y="41"/><ellipse cx="1009" cy="57" fill="#ADD1B2" rx="11" ry="11" style="stroke: #A80036; stroke-width: 1.0;"/><path d="M1011.9688,62.6406 Q1011.3906,62.9375 1010.75,63.0781 Q1010.1094,63.2344 1009.4063,63.2344 Q1006.9063,63.2344 1005.5781,61.5938 Q1004.2656,59.9375 1004.2656,56.8125 Q1004.2656,53.6875 1005.5781,52.0313 Q1006.9063,50.375 1009.4063,50.375 Q1010.1094,50.375 1010.75,50.5313 Q1011.4063,50.6875 1011.9688,50.9844 L1011.9688,53.7031 Q1011.3438,53.125 1010.75,52.8594 Q1010.1563,52.5781 1009.5313,52.5781 Q1008.1875,52.5781 1007.5,53.6563 Q1006.8125,54.7188 1006.8125,56.8125 Q1006.8125,58.9063 1007.5,59.9844 Q1008.1875,61.0469 1009.5313,61.0469 Q1010.1563,61.0469 1010.75,60.7813 Q1011.3438,60.5 1011.9688,59.9219 L1011.9688,62.6406 Z "/><text fill="#000000" font-family="sans-serif" font-size="12" lengthAdjust="spacingAndGlyphs" textLength="100" x="1023" y="61.1543">CommandVLCoff</text><line style="stroke: #A80036; stroke-width: 1.5;" x1="995" x2="1125" y1="73" y2="73"/><line style="stroke: #A80036; stroke-width: 1.5;" x1="995" x2="1125" y1="81" y2="81"/><!--MD5=[4feee5dffceabbc006fd2967c9e06dc0]
class command3.CommandVLCon--><rect codeLine="5" fill="#FEFECE" filter="url(#f51xqxv3a6trp)" height="48" id="command3.CommandVLCon" style="stroke: #A80036; stroke-width: 1.5;" width="132" x="827" y="41"/><ellipse cx="842" cy="57" fill="#ADD1B2" rx="11" ry="11" style="stroke: #A80036; stroke-width: 1.0;"/><path d="M844.9688,62.6406 Q844.3906,62.9375 843.75,63.0781 Q843.1094,63.2344 842.4063,63.2344 Q839.9063,63.2344 838.5781,61.5938 Q837.2656,59.9375 837.2656,56.8125 Q837.2656,53.6875 838.5781,52.0313 Q839.9063,50.375 842.4063,50.375 Q843.1094,50.375 843.75,50.5313 Q844.4063,50.6875 844.9688,50.9844 L844.9688,53.7031 Q844.3438,53.125 843.75,52.8594 Q843.1563,52.5781 842.5313,52.5781 Q841.1875,52.5781 840.5,53.6563 Q839.8125,54.7188 839.8125,56.8125 Q839.8125,58.9063 840.5,59.9844 Q841.1875,61.0469 842.5313,61.0469 Q843.1563,61.0469 843.75,60.7813 Q844.3438,60.5 844.9688,59.9219 L844.9688,62.6406 Z "/><text fill="#000000" font-family="sans-serif" font-size="12" lengthAdjust="spacingAndGlyphs" textLength="100" x="856" y="61.1543">CommandVLCon</text><line style="stroke: #A80036; stroke-width: 1.5;" x1="828" x2="958" y1="73" y2="73"/><line style="stroke: #A80036; stroke-width: 1.5;" x1="828" x2="958" y1="81" y2="81"/><!--MD5=[fc49b029377cca4799468cd18c503812]
class command3.MainCommand--><rect codeLine="6" fill="#FEFECE" filter="url(#f51xqxv3a6trp)" height="48" id="command3.MainCommand" style="stroke: #A80036; stroke-width: 1.5;" width="123" x="32.5" y="41"/><ellipse cx="47.5" cy="57" fill="#ADD1B2" rx="11" ry="11" style="stroke: #A80036; stroke-width: 1.0;"/><path d="M50.4688,62.6406 Q49.8906,62.9375 49.25,63.0781 Q48.6094,63.2344 47.9063,63.2344 Q45.4063,63.2344 44.0781,61.5938 Q42.7656,59.9375 42.7656,56.8125 Q42.7656,53.6875 44.0781,52.0313 Q45.4063,50.375 47.9063,50.375 Q48.6094,50.375 49.25,50.5313 Q49.9063,50.6875 50.4688,50.9844 L50.4688,53.7031 Q49.8438,53.125 49.25,52.8594 Q48.6563,52.5781 48.0313,52.5781 Q46.6875,52.5781 46,53.6563 Q45.3125,54.7188 45.3125,56.8125 Q45.3125,58.9063 46,59.9844 Q46.6875,61.0469 48.0313,61.0469 Q48.6563,61.0469 49.25,60.7813 Q49.8438,60.5 50.4688,59.9219 L50.4688,62.6406 Z "/><text fill="#000000" font-family="sans-serif" font-size="12" lengthAdjust="spacingAndGlyphs" textLength="91" x="61.5" y="61.1543">MainCommand</text><line style="stroke: #A80036; stroke-width: 1.5;" x1="33.5" x2="154.5" y1="73" y2="73"/><line style="stroke: #A80036; stroke-width: 1.5;" x1="33.5" x2="154.5" y1="81" y2="81"/><!--MD5=[5ce44959cf8338b19cbadd88e561deda]
class command3.NOCommand--><rect codeLine="7" fill="#FEFECE" filter="url(#f51xqxv3a6trp)" height="48" id="command3.NOCommand" style="stroke: #A80036; stroke-width: 1.5;" width="112" x="680" y="41"/><ellipse cx="695" cy="57" fill="#ADD1B2" rx="11" ry="11" style="stroke: #A80036; stroke-width: 1.0;"/><path d="M697.9688,62.6406 Q697.3906,62.9375 696.75,63.0781 Q696.1094,63.2344 695.4063,63.2344 Q692.9063,63.2344 691.5781,61.5938 Q690.2656,59.9375 690.2656,56.8125 Q690.2656,53.6875 691.5781,52.0313 Q692.9063,50.375 695.4063,50.375 Q696.1094,50.375 696.75,50.5313 Q697.4063,50.6875 697.9688,50.9844 L697.9688,53.7031 Q697.3438,53.125 696.75,52.8594 Q696.1563,52.5781 695.5313,52.5781 Q694.1875,52.5781 693.5,53.6563 Q692.8125,54.7188 692.8125,56.8125 Q692.8125,58.9063 693.5,59.9844 Q694.1875,61.0469 695.5313,61.0469 Q696.1563,61.0469 696.75,60.7813 Q697.3438,60.5 697.9688,59.9219 L697.9688,62.6406 Z "/><text fill="#000000" font-family="sans-serif" font-size="12" lengthAdjust="spacingAndGlyphs" textLength="80" x="709" y="61.1543">NOCommand</text><line style="stroke: #A80036; stroke-width: 1.5;" x1="681" x2="791" y1="73" y2="73"/><line style="stroke: #A80036; stroke-width: 1.5;" x1="681" x2="791" y1="81" y2="81"/><!--MD5=[5d8045e934ead1d2d5dcc034f1c3405f]
class command3.RemoteControl--><rect codeLine="8" fill="#FEFECE" filter="url(#f51xqxv3a6trp)" height="48" id="command3.RemoteControl" style="stroke: #A80036; stroke-width: 1.5;" width="125" x="190.5" y="41"/><ellipse cx="205.5" cy="57" fill="#ADD1B2" rx="11" ry="11" style="stroke: #A80036; stroke-width: 1.0;"/><path d="M208.4688,62.6406 Q207.8906,62.9375 207.25,63.0781 Q206.6094,63.2344 205.9063,63.2344 Q203.4063,63.2344 202.0781,61.5938 Q200.7656,59.9375 200.7656,56.8125 Q200.7656,53.6875 202.0781,52.0313 Q203.4063,50.375 205.9063,50.375 Q206.6094,50.375 207.25,50.5313 Q207.9063,50.6875 208.4688,50.9844 L208.4688,53.7031 Q207.8438,53.125 207.25,52.8594 Q206.6563,52.5781 206.0313,52.5781 Q204.6875,52.5781 204,53.6563 Q203.3125,54.7188 203.3125,56.8125 Q203.3125,58.9063 204,59.9844 Q204.6875,61.0469 206.0313,61.0469 Q206.6563,61.0469 207.25,60.7813 Q207.8438,60.5 208.4688,59.9219 L208.4688,62.6406 Z "/><text fill="#000000" font-family="sans-serif" font-size="12" lengthAdjust="spacingAndGlyphs" textLength="93" x="219.5" y="61.1543">RemoteControl</text><line style="stroke: #A80036; stroke-width: 1.5;" x1="191.5" x2="314.5" y1="73" y2="73"/><line style="stroke: #A80036; stroke-width: 1.5;" x1="191.5" x2="314.5" y1="81" y2="81"/><!--MD5=[0e4f25d5a174dd681d8e581ee09a4b2a]
class command3.TV--><rect codeLine="9" fill="#FEFECE" filter="url(#f51xqxv3a6trp)" height="48" id="command3.TV" style="stroke: #A80036; stroke-width: 1.5;" width="47" x="70.5" y="149"/><ellipse cx="85.5" cy="165" fill="#ADD1B2" rx="11" ry="11" style="stroke: #A80036; stroke-width: 1.0;"/><path d="M88.4688,170.6406 Q87.8906,170.9375 87.25,171.0781 Q86.6094,171.2344 85.9063,171.2344 Q83.4063,171.2344 82.0781,169.5938 Q80.7656,167.9375 80.7656,164.8125 Q80.7656,161.6875 82.0781,160.0313 Q83.4063,158.375 85.9063,158.375 Q86.6094,158.375 87.25,158.5313 Q87.9063,158.6875 88.4688,158.9844 L88.4688,161.7031 Q87.8438,161.125 87.25,160.8594 Q86.6563,160.5781 86.0313,160.5781 Q84.6875,160.5781 84,161.6563 Q83.3125,162.7188 83.3125,164.8125 Q83.3125,166.9063 84,167.9844 Q84.6875,169.0469 86.0313,169.0469 Q86.6563,169.0469 87.25,168.7813 Q87.8438,168.5 88.4688,167.9219 L88.4688,170.6406 Z "/><text fill="#000000" font-family="sans-serif" font-size="12" lengthAdjust="spacingAndGlyphs" textLength="15" x="99.5" y="169.1543">TV</text><line style="stroke: #A80036; stroke-width: 1.5;" x1="71.5" x2="116.5" y1="181" y2="181"/><line style="stroke: #A80036; stroke-width: 1.5;" x1="71.5" x2="116.5" y1="189" y2="189"/><!--MD5=[8ff984d4b57e9b2eb3d1c612f5ad9829]
class command3.VLC--><rect codeLine="10" fill="#FEFECE" filter="url(#f51xqxv3a6trp)" height="48" id="command3.VLC" style="stroke: #A80036; stroke-width: 1.5;" width="54" x="153" y="149"/><ellipse cx="168" cy="165" fill="#ADD1B2" rx="11" ry="11" style="stroke: #A80036; stroke-width: 1.0;"/><path d="M170.9688,170.6406 Q170.3906,170.9375 169.75,171.0781 Q169.1094,171.2344 168.4063,171.2344 Q165.9063,171.2344 164.5781,169.5938 Q163.2656,167.9375 163.2656,164.8125 Q163.2656,161.6875 164.5781,160.0313 Q165.9063,158.375 168.4063,158.375 Q169.1094,158.375 169.75,158.5313 Q170.4063,158.6875 170.9688,158.9844 L170.9688,161.7031 Q170.3438,161.125 169.75,160.8594 Q169.1563,160.5781 168.5313,160.5781 Q167.1875,160.5781 166.5,161.6563 Q165.8125,162.7188 165.8125,164.8125 Q165.8125,166.9063 166.5,167.9844 Q167.1875,169.0469 168.5313,169.0469 Q169.1563,169.0469 169.75,168.7813 Q170.3438,168.5 170.9688,167.9219 L170.9688,170.6406 Z "/><text fill="#000000" font-family="sans-serif" font-size="12" lengthAdjust="spacingAndGlyphs" textLength="22" x="182" y="169.1543">VLC</text><line style="stroke: #A80036; stroke-width: 1.5;" x1="154" x2="206" y1="181" y2="181"/><line style="stroke: #A80036; stroke-width: 1.5;" x1="154" x2="206" y1="189" y2="189"/><!--MD5=[e004e44ed6cb8cb2e038e8dd906690fa]
class command3.Command--><rect codeLine="11" fill="#FEFECE" filter="url(#f51xqxv3a6trp)" height="48" id="command3.Command" style="stroke: #A80036; stroke-width: 1.5;" width="94" x="689" y="149"/><ellipse cx="704" cy="165" fill="#B4A7E5" rx="11" ry="11" style="stroke: #A80036; stroke-width: 1.0;"/><path d="M699.9219,160.7656 L699.9219,158.6094 L707.3125,158.6094 L707.3125,160.7656 L704.8438,160.7656 L704.8438,168.8438 L707.3125,168.8438 L707.3125,171 L699.9219,171 L699.9219,168.8438 L702.3906,168.8438 L702.3906,160.7656 L699.9219,160.7656 Z "/><text fill="#000000" font-family="sans-serif" font-size="12" font-style="italic" lengthAdjust="spacingAndGlyphs" textLength="62" x="718" y="169.1543">Command</text><line style="stroke: #A80036; stroke-width: 1.5;" x1="690" x2="782" y1="181" y2="181"/><line style="stroke: #A80036; stroke-width: 1.5;" x1="690" x2="782" y1="189" y2="189"/><!--MD5=[9e18381aec62ef10284a922c3a4ed865]
link command3.CommandTVOFF to java.lang.Override--><path codeLine="12" d="M645.29,85.85 C650.91,87.08 656.53,88.16 662,89 C714.74,97.13 1091.99,87.37 1142,106 C1163.94,114.17 1184.47,130.7 1199.49,145.17 " fill="none" id="command3.CommandTVOFF-to-java.lang.Override" style="stroke: #A80036; stroke-width: 1.0; stroke-dasharray: 7.0,7.0;"/><polygon fill="#A80036" points="1203.19,148.8,1199.5618,139.6438,1199.6189,145.3004,1193.9624,145.3575,1203.19,148.8" style="stroke: #A80036; stroke-width: 1.0;"/><!--MD5=[ba63a413ac9b95603f06fd598754e89d]
link command3.CommandTVOFF to command3.Command--><path codeLine="13" d="M613.07,89 C634.08,103.19 661.43,121.66 685,137.57 " fill="none" id="command3.CommandTVOFF-to-command3.Command" style="stroke: #A80036; stroke-width: 1.0;"/><polygon fill="none" points="689.07,131.87,701.73,148.86,681.24,143.47,689.07,131.87" style="stroke: #A80036; stroke-width: 1.0;"/><!--MD5=[1e9054916457f6f0fb120dcaef6b60db]
link command3.CommandTVON to java.lang.Override--><path codeLine="14" d="M477.78,85.71 C483.57,87.01 489.36,88.14 495,89 C566.09,99.85 1074.5,81.21 1142,106 C1163.98,114.07 1184.5,130.6 1199.52,145.1 " fill="none" id="command3.CommandTVON-to-java.lang.Override" style="stroke: #A80036; stroke-width: 1.0; stroke-dasharray: 7.0,7.0;"/><polygon fill="#A80036" points="1203.21,148.73,1199.6188,139.5592,1199.6531,145.216,1193.9964,145.2502,1203.21,148.73" style="stroke: #A80036; stroke-width: 1.0;"/><!--MD5=[860ce9f70e142f7412dbba16bdc6c4f0]
link command3.CommandTVON to command3.Command--><path codeLine="15" d="M477.62,86.94 C533.08,105.2 613.23,131.58 669.52,150.11 " fill="none" id="command3.CommandTVON-to-command3.Command" style="stroke: #A80036; stroke-width: 1.0;"/><polygon fill="none" points="671.91,143.53,688.72,156.43,667.53,156.83,671.91,143.53" style="stroke: #A80036; stroke-width: 1.0;"/><!--MD5=[6cfaa9fe5c6a72e3605ae81524472ee7]
link command3.CommandVLCoff to java.lang.Override--><path codeLine="16" d="M1111.7,89.03 C1121.97,94.21 1132.51,99.97 1142,106 C1160.19,117.55 1179.02,132.46 1194.04,145.19 " fill="none" id="command3.CommandVLCoff-to-java.lang.Override" style="stroke: #A80036; stroke-width: 1.0; stroke-dasharray: 7.0,7.0;"/><polygon fill="#A80036" points="1198.17,148.72,1193.9399,139.8259,1194.3737,145.466,1188.7335,145.8999,1198.17,148.72" style="stroke: #A80036; stroke-width: 1.0;"/><!--MD5=[cb86441308ea12b93a8012242789c4f5]
link command3.CommandVLCoff to command3.Command--><path codeLine="17" d="M993.65,87.71 C937.8,105.98 858.31,131.99 802.43,150.27 " fill="none" id="command3.CommandVLCoff-to-command3.Command" style="stroke: #A80036; stroke-width: 1.0;"/><polygon fill="none" points="804.55,156.94,783.36,156.5,800.2,143.63,804.55,156.94" style="stroke: #A80036; stroke-width: 1.0;"/><!--MD5=[9ccf8043f6073804fdb5bf8459a77c9f]
link command3.CommandVLCon to java.lang.Override--><path codeLine="18" d="M959.25,85.22 C965.22,86.63 971.2,87.92 977,89 C1049.46,102.56 1073.82,77.96 1142,106 C1163.5,114.84 1183.88,131.2 1198.95,145.41 " fill="none" id="command3.CommandVLCon-to-java.lang.Override" style="stroke: #A80036; stroke-width: 1.0; stroke-dasharray: 7.0,7.0;"/><polygon fill="#A80036" points="1202.66,148.97,1198.9391,139.851,1199.0536,145.5067,1193.3979,145.6212,1202.66,148.97" style="stroke: #A80036; stroke-width: 1.0;"/><!--MD5=[ffd0a0ca0caa1d9411c208b00e8195f0]
link command3.CommandVLCon to command3.Command--><path codeLine="19" d="M858.93,89 C837.92,103.19 810.57,121.66 787,137.57 " fill="none" id="command3.CommandVLCon-to-command3.Command" style="stroke: #A80036; stroke-width: 1.0;"/><polygon fill="none" points="790.76,143.47,770.27,148.86,782.93,131.87,790.76,143.47" style="stroke: #A80036; stroke-width: 1.0;"/><!--MD5=[336a054c2f221b793d64fc398f276e04]
link command3.NOCommand to java.lang.Override--><path codeLine="20" d="M792.2,85.06 C798.16,86.6 804.17,87.96 810,89 C882.73,101.95 1072.98,79.67 1142,106 C1163.88,114.35 1184.4,130.87 1199.44,145.3 " fill="none" id="command3.NOCommand-to-java.lang.Override" style="stroke: #A80036; stroke-width: 1.0; stroke-dasharray: 7.0,7.0;"/><polygon fill="#A80036" points="1203.14,148.92,1199.4935,139.771,1199.562,145.4275,1193.9055,145.4959,1203.14,148.92" style="stroke: #A80036; stroke-width: 1.0;"/><!--MD5=[7a87412646eace82f5cb1236a9623cfc]
link command3.NOCommand to command3.Command--><path codeLine="21" d="M736,89 C736,100.59 736,115.03 736,128.6 " fill="none" id="command3.NOCommand-to-command3.Command" style="stroke: #A80036; stroke-width: 1.0;"/><polygon fill="none" points="743,128.68,736,148.68,729,128.68,743,128.68" style="stroke: #A80036; stroke-width: 1.0;"/><!--MD5=[1f42aeceefb97ac589a3de3767779a08]
link command3.MainCommand to command3.RemoteControl--><!--MD5=[5d1dc06f3f23261068642129d4358c52]
link command3.MainCommand to command3.TV--><!--MD5=[2d20573bf39aace58567f11764111dee]
link command3.TV to command3.VLC--><!--MD5=[a6a5d2db2d4c5823a5a205653fb688bf]
@startuml
annotation java.lang.Override
class command3.CommandTVOFF
class command3.CommandTVON
class command3.CommandVLCoff
class command3.CommandVLCon
class command3.MainCommand
class command3.NOCommand
class command3.RemoteControl
class command3.TV
class command3.VLC
interface command3.Command
command3.CommandTVOFF ..> java.lang.Override
command3.CommandTVOFF - -|> command3.Command
command3.CommandTVON ..> java.lang.Override
command3.CommandTVON - -|> command3.Command
command3.CommandVLCoff ..> java.lang.Override
command3.CommandVLCoff - -|> command3.Command
command3.CommandVLCon ..> java.lang.Override
command3.CommandVLCon - -|> command3.Command
command3.NOCommand ..> java.lang.Override
command3.NOCommand - -|> command3.Command
@enduml

PlantUML version 1.2020.18(Wed Sep 30 22:40:44 EEST 2020)
(GPL source distribution)
Java Runtime: OpenJDK Runtime Environment
JVM: OpenJDK 64-Bit Server VM
Default Encoding: UTF-8
Language: en
Country: US
--></g></svg>