<?xml version="1.0" encoding="UTF-8" standalone="no"?><svg xmlns="http://www.w3.org/2000/svg" xmlns:xlink="http://www.w3.org/1999/xlink" contentScriptType="application/ecmascript" contentStyleType="text/css" height="328px" preserveAspectRatio="none" style="width:613px;height:328px;" version="1.1" viewBox="0 0 613 328" width="613px" zoomAndPan="magnify"><defs><filter height="300%" id="f1flhak3uhhfkm" width="300%" x="-1" y="-1"><feGaussianBlur result="blurOut" stdDeviation="2.0"/><feColorMatrix in="blurOut" result="blurOut2" type="matrix" values="0 0 0 0 0 0 0 0 0 0 0 0 0 0 0 0 0 0 .4 0"/><feOffset dx="4.0" dy="4.0" in="blurOut2" result="blurOut3"/><feBlend in="SourceGraphic" in2="blurOut3" mode="normal"/></filter></defs><g><!--MD5=[52e3162d6a4490a59c8742abd4daaf16]
cluster decorator3--><polygon fill="#FFFFFF" filter="url(#f1flhak3uhhfkm)" points="16,6,110,6,117,28.2969,456,28.2969,456,321,16,321,16,6" style="stroke: #000000; stroke-width: 1.5;"/><line style="stroke: #000000; stroke-width: 1.5;" x1="16" x2="117" y1="28.2969" y2="28.2969"/><text fill="#000000" font-family="sans-serif" font-size="14" font-weight="bold" lengthAdjust="spacingAndGlyphs" textLength="88" x="20" y="20.9951">decorator3</text><!--MD5=[aa8f7b917213fcc1c2766e2d59b49067]
cluster java.lang--><polygon fill="#FFFFFF" filter="url(#f1flhak3uhhfkm)" points="480,222,555,222,562,244.2969,596,244.2969,596,321,480,321,480,222" style="stroke: #000000; stroke-width: 1.5;"/><line style="stroke: #000000; stroke-width: 1.5;" x1="480" x2="562" y1="244.2969" y2="244.2969"/><text fill="#000000" font-family="sans-serif" font-size="14" font-weight="bold" lengthAdjust="spacingAndGlyphs" textLength="69" x="484" y="236.9951">java.lang</text><!--MD5=[e411921d22b794bec613635946dca8d7]
class decorator3.Computer--><rect codeLine="1" fill="#FEFECE" filter="url(#f1flhak3uhhfkm)" height="48" id="decorator3.Computer" style="stroke: #A80036; stroke-width: 1.5;" width="93" x="173.5" y="257"/><ellipse cx="188.5" cy="273" fill="#A9DCDF" rx="11" ry="11" style="stroke: #A80036; stroke-width: 1.0;"/><path d="M188.6094,268.3438 L187.4531,273.4219 L189.7813,273.4219 L188.6094,268.3438 Z M187.125,266.1094 L190.1094,266.1094 L193.4688,278.5 L191.0156,278.5 L190.25,275.4375 L186.9688,275.4375 L186.2188,278.5 L183.7813,278.5 L187.125,266.1094 Z "/><text fill="#000000" font-family="sans-serif" font-size="12" font-style="italic" lengthAdjust="spacingAndGlyphs" textLength="61" x="202.5" y="277.1543">Computer</text><line style="stroke: #A80036; stroke-width: 1.5;" x1="174.5" x2="265.5" y1="289" y2="289"/><line style="stroke: #A80036; stroke-width: 1.5;" x1="174.5" x2="265.5" y1="297" y2="297"/><!--MD5=[b15d48399d207b0a6e1efc2f4b60ebd1]
class decorator3.Decorator--><rect codeLine="2" fill="#FEFECE" filter="url(#f1flhak3uhhfkm)" height="48" id="decorator3.Decorator" style="stroke: #A80036; stroke-width: 1.5;" width="95" x="32.5" y="149"/><ellipse cx="47.5" cy="165" fill="#A9DCDF" rx="11" ry="11" style="stroke: #A80036; stroke-width: 1.0;"/><path d="M47.6094,160.3438 L46.4531,165.4219 L48.7813,165.4219 L47.6094,160.3438 Z M46.125,158.1094 L49.1094,158.1094 L52.4688,170.5 L50.0156,170.5 L49.25,167.4375 L45.9688,167.4375 L45.2188,170.5 L42.7813,170.5 L46.125,158.1094 Z "/><text fill="#000000" font-family="sans-serif" font-size="12" font-style="italic" lengthAdjust="spacingAndGlyphs" textLength="63" x="61.5" y="169.1543">Decorator</text><line style="stroke: #A80036; stroke-width: 1.5;" x1="33.5" x2="126.5" y1="181" y2="181"/><line style="stroke: #A80036; stroke-width: 1.5;" x1="33.5" x2="126.5" y1="189" y2="189"/><!--MD5=[561eccb350fad4022c983deeae73530b]
class decorator3.CD--><rect codeLine="4" fill="#FEFECE" filter="url(#f1flhak3uhhfkm)" height="48" id="decorator3.CD" style="stroke: #A80036; stroke-width: 1.5;" width="49" x="32.5" y="41"/><ellipse cx="47.5" cy="57" fill="#ADD1B2" rx="11" ry="11" style="stroke: #A80036; stroke-width: 1.0;"/><path d="M50.4688,62.6406 Q49.8906,62.9375 49.25,63.0781 Q48.6094,63.2344 47.9063,63.2344 Q45.4063,63.2344 44.0781,61.5938 Q42.7656,59.9375 42.7656,56.8125 Q42.7656,53.6875 44.0781,52.0313 Q45.4063,50.375 47.9063,50.375 Q48.6094,50.375 49.25,50.5313 Q49.9063,50.6875 50.4688,50.9844 L50.4688,53.7031 Q49.8438,53.125 49.25,52.8594 Q48.6563,52.5781 48.0313,52.5781 Q46.6875,52.5781 46,53.6563 Q45.3125,54.7188 45.3125,56.8125 Q45.3125,58.9063 46,59.9844 Q46.6875,61.0469 48.0313,61.0469 Q48.6563,61.0469 49.25,60.7813 Q49.8438,60.5 50.4688,59.9219 L50.4688,62.6406 Z "/><text fill="#000000" font-family="sans-serif" font-size="12" lengthAdjust="spacingAndGlyphs" textLength="17" x="61.5" y="61.1543">CD</text><line style="stroke: #A80036; stroke-width: 1.5;" x1="33.5" x2="80.5" y1="73" y2="73"/><line style="stroke: #A80036; stroke-width: 1.5;" x1="33.5" x2="80.5" y1="81" y2="81"/><!--MD5=[16889e098cf492a685a10772b9643eea]
class decorator3.ComputerIBM--><rect codeLine="5" fill="#FEFECE" filter="url(#f1flhak3uhhfkm)" height="48" id="decorator3.ComputerIBM" style="stroke: #A80036; stroke-width: 1.5;" width="114" x="163" y="149"/><ellipse cx="178" cy="165" fill="#ADD1B2" rx="11" ry="11" style="stroke: #A80036; stroke-width: 1.0;"/><path d="M180.9688,170.6406 Q180.3906,170.9375 179.75,171.0781 Q179.1094,171.2344 178.4063,171.2344 Q175.9063,171.2344 174.5781,169.5938 Q173.2656,167.9375 173.2656,164.8125 Q173.2656,161.6875 174.5781,160.0313 Q175.9063,158.375 178.4063,158.375 Q179.1094,158.375 179.75,158.5313 Q180.4063,158.6875 180.9688,158.9844 L180.9688,161.7031 Q180.3438,161.125 179.75,160.8594 Q179.1563,160.5781 178.5313,160.5781 Q177.1875,160.5781 176.5,161.6563 Q175.8125,162.7188 175.8125,164.8125 Q175.8125,166.9063 176.5,167.9844 Q177.1875,169.0469 178.5313,169.0469 Q179.1563,169.0469 179.75,168.7813 Q180.3438,168.5 180.9688,167.9219 L180.9688,170.6406 Z "/><text fill="#000000" font-family="sans-serif" font-size="12" lengthAdjust="spacingAndGlyphs" textLength="82" x="192" y="169.1543">ComputerIBM</text><line style="stroke: #A80036; stroke-width: 1.5;" x1="164" x2="276" y1="181" y2="181"/><line style="stroke: #A80036; stroke-width: 1.5;" x1="164" x2="276" y1="189" y2="189"/><!--MD5=[e98611bb0ae1f5376d3afd979f42558f]
class decorator3.ComputerMac--><rect codeLine="6" fill="#FEFECE" filter="url(#f1flhak3uhhfkm)" height="48" id="decorator3.ComputerMac" style="stroke: #A80036; stroke-width: 1.5;" width="118" x="312" y="149"/><ellipse cx="327" cy="165" fill="#ADD1B2" rx="11" ry="11" style="stroke: #A80036; stroke-width: 1.0;"/><path d="M329.9688,170.6406 Q329.3906,170.9375 328.75,171.0781 Q328.1094,171.2344 327.4063,171.2344 Q324.9063,171.2344 323.5781,169.5938 Q322.2656,167.9375 322.2656,164.8125 Q322.2656,161.6875 323.5781,160.0313 Q324.9063,158.375 327.4063,158.375 Q328.1094,158.375 328.75,158.5313 Q329.4063,158.6875 329.9688,158.9844 L329.9688,161.7031 Q329.3438,161.125 328.75,160.8594 Q328.1563,160.5781 327.5313,160.5781 Q326.1875,160.5781 325.5,161.6563 Q324.8125,162.7188 324.8125,164.8125 Q324.8125,166.9063 325.5,167.9844 Q326.1875,169.0469 327.5313,169.0469 Q328.1563,169.0469 328.75,168.7813 Q329.3438,168.5 329.9688,167.9219 L329.9688,170.6406 Z "/><text fill="#000000" font-family="sans-serif" font-size="12" lengthAdjust="spacingAndGlyphs" textLength="86" x="341" y="169.1543">ComputerMac</text><line style="stroke: #A80036; stroke-width: 1.5;" x1="313" x2="429" y1="181" y2="181"/><line style="stroke: #A80036; stroke-width: 1.5;" x1="313" x2="429" y1="189" y2="189"/><!--MD5=[2a5cf1c8cd26d09b35bbbe5577c0e3a9]
class decorator3.HD--><rect codeLine="7" fill="#FEFECE" filter="url(#f1flhak3uhhfkm)" height="48" id="decorator3.HD" style="stroke: #A80036; stroke-width: 1.5;" width="50" x="276" y="41"/><ellipse cx="291" cy="57" fill="#ADD1B2" rx="11" ry="11" style="stroke: #A80036; stroke-width: 1.0;"/><path d="M293.9688,62.6406 Q293.3906,62.9375 292.75,63.0781 Q292.1094,63.2344 291.4063,63.2344 Q288.9063,63.2344 287.5781,61.5938 Q286.2656,59.9375 286.2656,56.8125 Q286.2656,53.6875 287.5781,52.0313 Q288.9063,50.375 291.4063,50.375 Q292.1094,50.375 292.75,50.5313 Q293.4063,50.6875 293.9688,50.9844 L293.9688,53.7031 Q293.3438,53.125 292.75,52.8594 Q292.1563,52.5781 291.5313,52.5781 Q290.1875,52.5781 289.5,53.6563 Q288.8125,54.7188 288.8125,56.8125 Q288.8125,58.9063 289.5,59.9844 Q290.1875,61.0469 291.5313,61.0469 Q292.1563,61.0469 292.75,60.7813 Q293.3438,60.5 293.9688,59.9219 L293.9688,62.6406 Z "/><text fill="#000000" font-family="sans-serif" font-size="12" lengthAdjust="spacingAndGlyphs" textLength="18" x="305" y="61.1543">HD</text><line style="stroke: #A80036; stroke-width: 1.5;" x1="277" x2="325" y1="73" y2="73"/><line style="stroke: #A80036; stroke-width: 1.5;" x1="277" x2="325" y1="81" y2="81"/><!--MD5=[9e3cc2c3a3d4fec7ca9c19d3b022cb6f]
class decorator3.MainDecorator--><rect codeLine="8" fill="#FEFECE" filter="url(#f1flhak3uhhfkm)" height="48" id="decorator3.MainDecorator" style="stroke: #A80036; stroke-width: 1.5;" width="124" x="117" y="41"/><ellipse cx="132" cy="57" fill="#ADD1B2" rx="11" ry="11" style="stroke: #A80036; stroke-width: 1.0;"/><path d="M134.9688,62.6406 Q134.3906,62.9375 133.75,63.0781 Q133.1094,63.2344 132.4063,63.2344 Q129.9063,63.2344 128.5781,61.5938 Q127.2656,59.9375 127.2656,56.8125 Q127.2656,53.6875 128.5781,52.0313 Q129.9063,50.375 132.4063,50.375 Q133.1094,50.375 133.75,50.5313 Q134.4063,50.6875 134.9688,50.9844 L134.9688,53.7031 Q134.3438,53.125 133.75,52.8594 Q133.1563,52.5781 132.5313,52.5781 Q131.1875,52.5781 130.5,53.6563 Q129.8125,54.7188 129.8125,56.8125 Q129.8125,58.9063 130.5,59.9844 Q131.1875,61.0469 132.5313,61.0469 Q133.1563,61.0469 133.75,60.7813 Q134.3438,60.5 134.9688,59.9219 L134.9688,62.6406 Z "/><text fill="#000000" font-family="sans-serif" font-size="12" lengthAdjust="spacingAndGlyphs" textLength="92" x="146" y="61.1543">MainDecorator</text><line style="stroke: #A80036; stroke-width: 1.5;" x1="118" x2="240" y1="73" y2="73"/><line style="stroke: #A80036; stroke-width: 1.5;" x1="118" x2="240" y1="81" y2="81"/><!--MD5=[e54e3be89533898400157b66ba9dab39]
class decorator3.Monitor--><rect codeLine="9" fill="#FEFECE" filter="url(#f1flhak3uhhfkm)" height="48" id="decorator3.Monitor" style="stroke: #A80036; stroke-width: 1.5;" width="79" x="361.5" y="41"/><ellipse cx="376.5" cy="57" fill="#ADD1B2" rx="11" ry="11" style="stroke: #A80036; stroke-width: 1.0;"/><path d="M379.4688,62.6406 Q378.8906,62.9375 378.25,63.0781 Q377.6094,63.2344 376.9063,63.2344 Q374.4063,63.2344 373.0781,61.5938 Q371.7656,59.9375 371.7656,56.8125 Q371.7656,53.6875 373.0781,52.0313 Q374.4063,50.375 376.9063,50.375 Q377.6094,50.375 378.25,50.5313 Q378.9063,50.6875 379.4688,50.9844 L379.4688,53.7031 Q378.8438,53.125 378.25,52.8594 Q377.6563,52.5781 377.0313,52.5781 Q375.6875,52.5781 375,53.6563 Q374.3125,54.7188 374.3125,56.8125 Q374.3125,58.9063 375,59.9844 Q375.6875,61.0469 377.0313,61.0469 Q377.6563,61.0469 378.25,60.7813 Q378.8438,60.5 379.4688,59.9219 L379.4688,62.6406 Z "/><text fill="#000000" font-family="sans-serif" font-size="12" lengthAdjust="spacingAndGlyphs" textLength="47" x="390.5" y="61.1543">Monitor</text><line style="stroke: #A80036; stroke-width: 1.5;" x1="362.5" x2="439.5" y1="73" y2="73"/><line style="stroke: #A80036; stroke-width: 1.5;" x1="362.5" x2="439.5" y1="81" y2="81"/><!--MD5=[3c78a2fa643d9223b1f8ad930e883961]
class java.lang.Override--><rect codeLine="3" fill="#FEFECE" filter="url(#f1flhak3uhhfkm)" height="48" id="java.lang.Override" style="stroke: #A80036; stroke-width: 1.5;" width="84" x="496" y="257"/><ellipse cx="511" cy="273" fill="#E3664A" rx="11" ry="11" style="stroke: #A80036; stroke-width: 1.0;"/><path d="M513.0781,273.4688 Q513.0781,272.5313 512.6563,272 Q512.2344,271.4688 511.4844,271.4688 Q510.75,271.4688 510.3281,272 Q509.9219,272.5313 509.9219,273.4688 Q509.9219,274.4219 510.3281,274.9531 Q510.75,275.4844 511.4844,275.4844 Q512.2344,275.4844 512.6563,274.9531 Q513.0781,274.4219 513.0781,273.4688 Z M514.625,276.875 L513,276.875 L513,276.2031 Q512.6719,276.6406 512.25,276.8438 Q511.8281,277.0469 511.2188,277.0469 Q509.8594,277.0469 509.0313,276.0781 Q508.2031,275.0938 508.2031,273.4688 Q508.2031,271.875 509.0313,270.9063 Q509.8594,269.9219 511.2188,269.9219 Q511.8125,269.9219 512.2656,270.125 Q512.7188,270.3281 513,270.7188 L513,270.375 Q513,269.25 512.375,268.6406 Q511.75,268.0156 510.6094,268.0156 Q508.8906,268.0156 507.7969,269.5469 Q506.7031,271.0625 506.7031,273.5 Q506.7031,276.0469 507.9531,277.5469 Q509.2188,279.0469 511.3281,279.0469 Q511.9844,279.0469 512.6094,278.8594 Q513.2344,278.6719 513.8125,278.2813 L514.5781,279.7344 Q513.9063,280.1875 513.1094,280.4063 Q512.3125,280.6406 511.4063,280.6406 Q508.5,280.6406 506.7656,278.7031 Q505.0469,276.7813 505.0469,273.5 Q505.0469,270.2813 506.5938,268.3594 Q508.1563,266.4219 510.7188,266.4219 Q512.5156,266.4219 513.5625,267.5156 Q514.625,268.6094 514.625,270.4844 L514.625,276.875 Z "/><text fill="#000000" font-family="sans-serif" font-size="12" lengthAdjust="spacingAndGlyphs" textLength="52" x="525" y="277.1543">Override</text><line style="stroke: #A80036; stroke-width: 1.5;" x1="497" x2="579" y1="289" y2="289"/><line style="stroke: #A80036; stroke-width: 1.5;" x1="497" x2="579" y1="297" y2="297"/><!--MD5=[f062c8b405c5c7de598cb7de6ef7c114]
link decorator3.Decorator to decorator3.Computer--><path codeLine="10" d="M110.38,197 C128.69,210.86 152.39,228.81 173.07,244.47 " fill="none" id="decorator3.Decorator-to-decorator3.Computer" style="stroke: #A80036; stroke-width: 1.0;"/><polygon fill="none" points="177.48,239.02,189.2,256.68,169.03,250.19,177.48,239.02" style="stroke: #A80036; stroke-width: 1.0;"/><!--MD5=[c5302c1ba3bdec72dab8faff9354f1ff]
link decorator3.CD to decorator3.Decorator--><path codeLine="11" d="M61.99,89 C64.53,100.73 67.71,115.37 70.69,129.09 " fill="none" id="decorator3.CD-to-decorator3.Decorator" style="stroke: #A80036; stroke-width: 1.0;"/><polygon fill="none" points="77.54,127.65,74.94,148.68,63.86,130.62,77.54,127.65" style="stroke: #A80036; stroke-width: 1.0;"/><!--MD5=[5230552889142ed71953658673cc886a]
link decorator3.CD to java.lang.Override--><path codeLine="12" d="M81.69,81.27 C87.23,84.2 93.19,86.97 99,89 C247.18,140.73 314.63,64.68 447,149 C485.8,173.71 512.56,221.51 526.57,252.03 " fill="none" id="decorator3.CD-to-java.lang.Override" style="stroke: #A80036; stroke-width: 1.0; stroke-dasharray: 7.0,7.0;"/><polygon fill="#A80036" points="528.71,256.77,528.6529,246.9213,526.6528,252.2128,521.3613,250.2128,528.71,256.77" style="stroke: #A80036; stroke-width: 1.0;"/><!--MD5=[94594fc01e776be89ae68a9cb7c861d1]
link decorator3.ComputerIBM to decorator3.Computer--><path codeLine="13" d="M220,197 C220,208.59 220,223.03 220,236.6 " fill="none" id="decorator3.ComputerIBM-to-decorator3.Computer" style="stroke: #A80036; stroke-width: 1.0;"/><polygon fill="none" points="227,236.68,220,256.68,213,236.68,227,236.68" style="stroke: #A80036; stroke-width: 1.0;"/><!--MD5=[5f440cd7f1bca63b25aa82bce6ab225e]
link decorator3.ComputerIBM to java.lang.Override--><path codeLine="14" d="M277.08,192.96 C282.76,194.48 288.47,195.86 294,197 C364.91,211.59 389.07,186.4 456,214 C477.49,222.86 497.87,239.22 512.94,253.43 " fill="none" id="decorator3.ComputerIBM-to-java.lang.Override" style="stroke: #A80036; stroke-width: 1.0; stroke-dasharray: 7.0,7.0;"/><polygon fill="#A80036" points="516.66,256.99,512.9211,247.8784,513.0468,253.5339,507.3913,253.6596,516.66,256.99" style="stroke: #A80036; stroke-width: 1.0;"/><!--MD5=[94e0e92714f45ecac5869c6be62fcd7e]
link decorator3.ComputerMac to decorator3.Computer--><path codeLine="15" d="M338.24,197 C318.12,211.12 291.97,229.48 269.38,245.33 " fill="none" id="decorator3.ComputerMac-to-decorator3.Computer" style="stroke: #A80036; stroke-width: 1.0;"/><polygon fill="none" points="273.35,251.1,252.96,256.86,265.31,239.64,273.35,251.1" style="stroke: #A80036; stroke-width: 1.0;"/><!--MD5=[8f80f9e89efb7bbd0af2efafc5f0a33c]
link decorator3.ComputerMac to java.lang.Override--><path codeLine="16" d="M425.08,197.08 C435.58,202.21 446.32,207.95 456,214 C474.41,225.51 493.4,240.56 508.46,253.38 " fill="none" id="decorator3.ComputerMac-to-java.lang.Override" style="stroke: #A80036; stroke-width: 1.0; stroke-dasharray: 7.0,7.0;"/><polygon fill="#A80036" points="512.6,256.93,508.3506,248.0451,508.7967,253.6843,503.1574,254.1304,512.6,256.93" style="stroke: #A80036; stroke-width: 1.0;"/><!--MD5=[ec8dfac9d904f748f625081e12f1e6e2]
link decorator3.HD to decorator3.Decorator--><path codeLine="17" d="M275.65,79.85 C269.88,82.93 263.75,86.12 258,89 C221.25,107.38 179.65,126.85 145.91,142.31 " fill="none" id="decorator3.HD-to-decorator3.Decorator" style="stroke: #A80036; stroke-width: 1.0;"/><polygon fill="none" points="148.66,148.75,127.56,150.68,142.85,136.01,148.66,148.75" style="stroke: #A80036; stroke-width: 1.0;"/><!--MD5=[e130a4481bd1a0c7d269b8a017138702]
link decorator3.HD to java.lang.Override--><path codeLine="18" d="M326.17,80.23 C331.95,83.28 338.12,86.38 344,89 C415.25,120.82 457.55,90.33 509,149 C533.87,177.36 538.88,222.25 539.2,251.42 " fill="none" id="decorator3.HD-to-java.lang.Override" style="stroke: #A80036; stroke-width: 1.0; stroke-dasharray: 7.0,7.0;"/><polygon fill="#A80036" points="539.21,256.67,543.1843,247.6586,539.1957,251.67,535.1843,247.6815,539.21,256.67" style="stroke: #A80036; stroke-width: 1.0;"/><!--MD5=[457368f3da39b58abaffbd3433d40824]
link decorator3.Monitor to decorator3.Decorator--><path codeLine="19" d="M361.23,82.28 C355.15,84.62 348.93,86.93 343,89 C261.78,117.35 235.7,120.07 147.08,148.53 " fill="none" id="decorator3.Monitor-to-decorator3.Decorator" style="stroke: #A80036; stroke-width: 1.0;"/><polygon fill="none" points="149.02,155.26,127.84,154.79,144.69,141.95,149.02,155.26" style="stroke: #A80036; stroke-width: 1.0;"/><!--MD5=[5d9f17f6865ba6a1e2f9e83209faba51]
link decorator3.Monitor to java.lang.Override--><path codeLine="20" d="M440.85,71.87 C483.62,80.53 549.49,101.22 580,149 C600.62,181.29 578.91,224.55 559.82,252.36 " fill="none" id="decorator3.Monitor-to-java.lang.Override" style="stroke: #A80036; stroke-width: 1.0; stroke-dasharray: 7.0,7.0;"/><polygon fill="#A80036" points="556.78,256.68,565.2193,251.6027,559.6483,252.5845,558.6665,247.0135,556.78,256.68" style="stroke: #A80036; stroke-width: 1.0;"/><!--MD5=[de52bda5a4630fb6d292594f911520e8]
@startuml
abstract class decorator3.Computer
abstract class decorator3.Decorator
annotation java.lang.Override
class decorator3.CD
class decorator3.ComputerIBM
class decorator3.ComputerMac
class decorator3.HD
class decorator3.MainDecorator
class decorator3.Monitor
decorator3.Decorator - -|> decorator3.Computer
decorator3.CD - -|> decorator3.Decorator
decorator3.CD ..> java.lang.Override
decorator3.ComputerIBM - -|> decorator3.Computer
decorator3.ComputerIBM ..> java.lang.Override
decorator3.ComputerMac - -|> decorator3.Computer
decorator3.ComputerMac ..> java.lang.Override
decorator3.HD - -|> decorator3.Decorator
decorator3.HD ..> java.lang.Override
decorator3.Monitor - -|> decorator3.Decorator
decorator3.Monitor ..> java.lang.Override
@enduml

PlantUML version 1.2020.18(Wed Sep 30 22:40:44 EEST 2020)
(GPL source distribution)
Java Runtime: OpenJDK Runtime Environment
JVM: OpenJDK 64-Bit Server VM
Default Encoding: UTF-8
Language: en
Country: US
--></g></svg>