<?xml version="1.0" encoding="UTF-8" standalone="no"?><svg xmlns="http://www.w3.org/2000/svg" xmlns:xlink="http://www.w3.org/1999/xlink" contentScriptType="application/ecmascript" contentStyleType="text/css" height="431px" preserveAspectRatio="none" style="width:355px;height:431px;" version="1.1" viewBox="0 0 355 431" width="355px" zoomAndPan="magnify"><defs/><g><text fill="#000000" font-family="sans-serif" font-size="18" lengthAdjust="spacingAndGlyphs" textLength="84" x="137.5" y="16.708">Template</text><!--cluster myPackage--><polygon fill="#FFFFFF" points="14,36.9531,109,36.9531,116,59.25,333,59.25,333,419.9531,14,419.9531,14,36.9531" style="stroke: #000000; stroke-width: 1.5;"/><line style="stroke: #000000; stroke-width: 1.5;" x1="14" x2="116" y1="59.25" y2="59.25"/><text fill="#000000" font-family="sans-serif" font-size="14" font-weight="bold" lengthAdjust="spacingAndGlyphs" textLength="89" x="18" y="51.9482">myPackage</text><!--class Template--><rect fill="#FEFECE" height="170.2266" id="Template" style="stroke: #A80036; stroke-width: 1.5;" width="219" x="63.5" y="63.9531"/><ellipse cx="126.25" cy="79.9531" fill="#A9DCDF" rx="11" ry="11" style="stroke: #A80036; stroke-width: 1.0;"/><path d="M126.3594,75.2969 L125.2031,80.375 L127.5313,80.375 L126.3594,75.2969 Z M124.875,73.0625 L127.8594,73.0625 L131.2188,85.4531 L128.7656,85.4531 L128,82.3906 L124.7188,82.3906 L123.9688,85.4531 L121.5313,85.4531 L124.875,73.0625 Z "/><text fill="#FF0000" font-family="sans-serif" font-size="16" font-style="italic" font-weight="bold" lengthAdjust="spacingAndGlyphs" textLength="85" x="146.75" y="85.4922">Template</text><line style="stroke: #A80036; stroke-width: 1.5;" x1="64.5" x2="281.5" y1="95.9531" y2="95.9531"/><line style="stroke: #A80036; stroke-width: 1.5;" x1="64.5" x2="281.5" y1="103.9531" y2="103.9531"/><ellipse cx="74.5" cy="118.1836" fill="#84BE84" rx="3" ry="3" style="stroke: #038048; stroke-width: 1.0;"/><text fill="#000000" font-family="sans-serif" font-size="15" font-weight="bold" lengthAdjust="spacingAndGlyphs" textLength="173" x="83.5" y="121.8765">void go(String string)</text><ellipse cx="74.5" cy="135.6445" fill="#84BE84" rx="3" ry="3" style="stroke: #038048; stroke-width: 1.0;"/><text fill="#000000" font-family="sans-serif" font-size="15" font-weight="bold" lengthAdjust="spacingAndGlyphs" textLength="193" x="83.5" y="139.3374">void start(String string)</text><ellipse cx="74.5" cy="153.1055" fill="#84BE84" rx="3" ry="3" style="stroke: #038048; stroke-width: 1.0;"/><text fill="#000000" font-family="sans-serif" font-size="15" font-weight="bold" lengthAdjust="spacingAndGlyphs" textLength="123" x="83.5" y="156.7983">void getParts()</text><ellipse cx="74.5" cy="170.5664" fill="#84BE84" rx="3" ry="3" style="stroke: #038048; stroke-width: 1.0;"/><text fill="#000000" font-family="sans-serif" font-size="15" font-weight="bold" lengthAdjust="spacingAndGlyphs" textLength="130" x="83.5" y="174.2593">void assemble()</text><ellipse cx="74.5" cy="188.0273" fill="#84BE84" rx="3" ry="3" style="stroke: #038048; stroke-width: 1.0;"/><text fill="#000000" font-family="sans-serif" font-size="15" font-weight="bold" lengthAdjust="spacingAndGlyphs" textLength="85" x="83.5" y="191.7202">void test()</text><ellipse cx="74.5" cy="205.4883" fill="#84BE84" rx="3" ry="3" style="stroke: #038048; stroke-width: 1.0;"/><text fill="#000000" font-family="sans-serif" font-size="15" font-weight="bold" lengthAdjust="spacingAndGlyphs" textLength="131" x="83.5" y="209.1812">void additional()</text><ellipse cx="74.5" cy="222.9492" fill="#84BE84" rx="3" ry="3" style="stroke: #038048; stroke-width: 1.0;"/><text fill="#000000" font-family="sans-serif" font-size="15" font-weight="bold" lengthAdjust="spacingAndGlyphs" textLength="189" x="83.5" y="226.6421">void stop(String string)</text><!--class Tea--><rect fill="#FEFECE" height="65.4609" id="Tea" style="stroke: #A80036; stroke-width: 1.5;" width="111" x="21.5" y="320.4531"/><ellipse cx="57.65" cy="336.4531" fill="#ADD1B2" rx="11" ry="11" style="stroke: #A80036; stroke-width: 1.0;"/><path d="M60.6188,342.0938 Q60.0406,342.3906 59.4,342.5313 Q58.7594,342.6875 58.0563,342.6875 Q55.5563,342.6875 54.2281,341.0469 Q52.9156,339.3906 52.9156,336.2656 Q52.9156,333.1406 54.2281,331.4844 Q55.5563,329.8281 58.0563,329.8281 Q58.7594,329.8281 59.4,329.9844 Q60.0563,330.1406 60.6188,330.4375 L60.6188,333.1563 Q59.9938,332.5781 59.4,332.3125 Q58.8063,332.0313 58.1813,332.0313 Q56.8375,332.0313 56.15,333.1094 Q55.4625,334.1719 55.4625,336.2656 Q55.4625,338.3594 56.15,339.4375 Q56.8375,340.5 58.1813,340.5 Q58.8063,340.5 59.4,340.2344 Q59.9938,339.9531 60.6188,339.375 L60.6188,342.0938 Z "/><text fill="#FF0000" font-family="sans-serif" font-size="16" font-weight="bold" lengthAdjust="spacingAndGlyphs" textLength="32" x="76.35" y="341.9922">Tea</text><line style="stroke: #A80036; stroke-width: 1.5;" x1="22.5" x2="131.5" y1="352.4531" y2="352.4531"/><line style="stroke: #A80036; stroke-width: 1.5;" x1="22.5" x2="131.5" y1="360.4531" y2="360.4531"/><ellipse cx="32.5" cy="374.6836" fill="#84BE84" rx="3" ry="3" style="stroke: #038048; stroke-width: 1.0;"/><text fill="#000000" font-family="sans-serif" font-size="15" font-weight="bold" lengthAdjust="spacingAndGlyphs" textLength="85" x="41.5" y="378.3765">void test()</text><!--class Coffe--><rect fill="#FEFECE" height="117.8438" id="Coffe" style="stroke: #A80036; stroke-width: 1.5;" width="157" x="167.5" y="293.9531"/><ellipse cx="217.75" cy="309.9531" fill="#ADD1B2" rx="11" ry="11" style="stroke: #A80036; stroke-width: 1.0;"/><path d="M220.7188,315.5938 Q220.1406,315.8906 219.5,316.0313 Q218.8594,316.1875 218.1563,316.1875 Q215.6563,316.1875 214.3281,314.5469 Q213.0156,312.8906 213.0156,309.7656 Q213.0156,306.6406 214.3281,304.9844 Q215.6563,303.3281 218.1563,303.3281 Q218.8594,303.3281 219.5,303.4844 Q220.1563,303.6406 220.7188,303.9375 L220.7188,306.6563 Q220.0938,306.0781 219.5,305.8125 Q218.9063,305.5313 218.2813,305.5313 Q216.9375,305.5313 216.25,306.6094 Q215.5625,307.6719 215.5625,309.7656 Q215.5625,311.8594 216.25,312.9375 Q216.9375,314 218.2813,314 Q218.9063,314 219.5,313.7344 Q220.0938,313.4531 220.7188,312.875 L220.7188,315.5938 Z "/><text fill="#FF0000" font-family="sans-serif" font-size="16" font-weight="bold" lengthAdjust="spacingAndGlyphs" textLength="48" x="238.25" y="315.4922">Coffe</text><line style="stroke: #A80036; stroke-width: 1.5;" x1="168.5" x2="323.5" y1="325.9531" y2="325.9531"/><line style="stroke: #A80036; stroke-width: 1.5;" x1="168.5" x2="323.5" y1="333.9531" y2="333.9531"/><ellipse cx="178.5" cy="348.1836" fill="#84BE84" rx="3" ry="3" style="stroke: #038048; stroke-width: 1.0;"/><text fill="#000000" font-family="sans-serif" font-size="15" font-weight="bold" lengthAdjust="spacingAndGlyphs" textLength="123" x="187.5" y="351.8765">void getParts()</text><ellipse cx="178.5" cy="365.6445" fill="#84BE84" rx="3" ry="3" style="stroke: #038048; stroke-width: 1.0;"/><text fill="#000000" font-family="sans-serif" font-size="15" font-weight="bold" lengthAdjust="spacingAndGlyphs" textLength="130" x="187.5" y="369.3374">void assemble()</text><ellipse cx="178.5" cy="383.1055" fill="#84BE84" rx="3" ry="3" style="stroke: #038048; stroke-width: 1.0;"/><text fill="#000000" font-family="sans-serif" font-size="15" font-weight="bold" lengthAdjust="spacingAndGlyphs" textLength="131" x="187.5" y="386.7983">void additional()</text><ellipse cx="178.5" cy="400.5664" fill="#84BE84" rx="3" ry="3" style="stroke: #038048; stroke-width: 1.0;"/><text fill="#000000" font-family="sans-serif" font-size="15" font-weight="bold" lengthAdjust="spacingAndGlyphs" textLength="85" x="187.5" y="404.2593">void test()</text><!--link Template to Coffe--><path d="M210.2379,253.0153 C215.248,267.0161 220.2396,280.9652 224.8348,293.8066 " fill="none" id="Template-Coffe" style="stroke: #0000FF; stroke-width: 1.0;"/><polygon fill="none" points="203.5777,255.1794,203.43,233.9903,216.7592,250.4625,203.5777,255.1794" style="stroke: #0000FF; stroke-width: 1.0;"/><!--link Template to Tea--><path d="M124.3293,252.3784 C112.6916,277.1084 101.1066,301.7266 92.3112,320.4168 " fill="none" id="Template-Tea" style="stroke: #0000FF; stroke-width: 1.0;"/><polygon fill="none" points="118.1328,249.1061,132.9825,233.9903,130.8002,255.0672,118.1328,249.1061" style="stroke: #0000FF; stroke-width: 1.0;"/><!--
@startuml

title Template

skinparam classFontColor red
skinparam classFontStyle bold
skinparam classFontSize 16
skinparam classAttributeFontSize 15
skinparam classAttributeFontStyle bold
skinparam classArrowColor blue
skinparam shadowing false


package myPackage {


abstract class Template {
+void go(String string)
+void start(String string)
+void getParts()
+void assemble()
+void test()
+void additional()
+void stop(String string)
}

class Tea {
+void test()
}

class Coffe {
+void getParts()
+void assemble()
+void additional()
+void test()
}


Template <|- - Coffe
Template <|- - Tea

}

@enduml

PlantUML version 1.2018.10(Sat Aug 25 20:02:59 EEST 2018)
(GPL source distribution)
Java Runtime: OpenJDK Runtime Environment
JVM: OpenJDK 64-Bit Server VM
Java Version: 11.0.2+9-Debian-3
Operating System: Linux
OS Version: 4.19.0-kali1-amd64
Default Encoding: UTF-8
Language: en
Country: US
--></g></svg>