<?xml version="1.0" encoding="UTF-8" standalone="no"?><svg xmlns="http://www.w3.org/2000/svg" xmlns:xlink="http://www.w3.org/1999/xlink" contentScriptType="application/ecmascript" contentStyleType="text/css" height="220px" preserveAspectRatio="none" style="width:1309px;height:220px;" version="1.1" viewBox="0 0 1309 220" width="1309px" zoomAndPan="magnify"><defs><filter height="300%" id="f149p2jpps6i25" width="300%" x="-1" y="-1"><feGaussianBlur result="blurOut" stdDeviation="2.0"/><feColorMatrix in="blurOut" result="blurOut2" type="matrix" values="0 0 0 0 0 0 0 0 0 0 0 0 0 0 0 0 0 0 .4 0"/><feOffset dx="4.0" dy="4.0" in="blurOut2" result="blurOut3"/><feBlend in="SourceGraphic" in2="blurOut3" mode="normal"/></filter></defs><g><!--MD5=[b50489d304a0df43539620ad418c80b2]
cluster headfirst.observer.weather--><polygon fill="#FFFFFF" filter="url(#f149p2jpps6i25)" points="16,6,241,6,248,28.2969,1292,28.2969,1292,213,16,213,16,6" style="stroke: #000000; stroke-width: 1.5;"/><line style="stroke: #000000; stroke-width: 1.5;" x1="16" x2="248" y1="28.2969" y2="28.2969"/><text fill="#000000" font-family="sans-serif" font-size="14" font-weight="bold" lengthAdjust="spacingAndGlyphs" textLength="219" x="20" y="20.9951">headfirst.observer.weather</text><!--MD5=[5e14a0dc1a8dd48c0282d2581381d9fd]
class headfirst.observer.weather.CurrentConditionsDisplay--><rect codeLine="1" fill="#FEFECE" filter="url(#f149p2jpps6i25)" height="48" id="headfirst.observer.weather.CurrentConditionsDisplay" style="stroke: #A80036; stroke-width: 1.5;" width="189" x="1086.5" y="41"/><ellipse cx="1101.5" cy="57" fill="#ADD1B2" rx="11" ry="11" style="stroke: #A80036; stroke-width: 1.0;"/><path d="M1104.4688,62.6406 Q1103.8906,62.9375 1103.25,63.0781 Q1102.6094,63.2344 1101.9063,63.2344 Q1099.4063,63.2344 1098.0781,61.5938 Q1096.7656,59.9375 1096.7656,56.8125 Q1096.7656,53.6875 1098.0781,52.0313 Q1099.4063,50.375 1101.9063,50.375 Q1102.6094,50.375 1103.25,50.5313 Q1103.9063,50.6875 1104.4688,50.9844 L1104.4688,53.7031 Q1103.8438,53.125 1103.25,52.8594 Q1102.6563,52.5781 1102.0313,52.5781 Q1100.6875,52.5781 1100,53.6563 Q1099.3125,54.7188 1099.3125,56.8125 Q1099.3125,58.9063 1100,59.9844 Q1100.6875,61.0469 1102.0313,61.0469 Q1102.6563,61.0469 1103.25,60.7813 Q1103.8438,60.5 1104.4688,59.9219 L1104.4688,62.6406 Z "/><text fill="#000000" font-family="sans-serif" font-size="12" lengthAdjust="spacingAndGlyphs" textLength="157" x="1115.5" y="61.1543">CurrentConditionsDisplay</text><line style="stroke: #A80036; stroke-width: 1.5;" x1="1087.5" x2="1274.5" y1="73" y2="73"/><line style="stroke: #A80036; stroke-width: 1.5;" x1="1087.5" x2="1274.5" y1="81" y2="81"/><!--MD5=[3614c204b81d285d0da96a6ed34d3bed]
class headfirst.observer.weather.ForecastDisplay--><rect codeLine="2" fill="#FEFECE" filter="url(#f149p2jpps6i25)" height="48" id="headfirst.observer.weather.ForecastDisplay" style="stroke: #A80036; stroke-width: 1.5;" width="131" x="920.5" y="41"/><ellipse cx="935.5" cy="57" fill="#ADD1B2" rx="11" ry="11" style="stroke: #A80036; stroke-width: 1.0;"/><path d="M938.4688,62.6406 Q937.8906,62.9375 937.25,63.0781 Q936.6094,63.2344 935.9063,63.2344 Q933.4063,63.2344 932.0781,61.5938 Q930.7656,59.9375 930.7656,56.8125 Q930.7656,53.6875 932.0781,52.0313 Q933.4063,50.375 935.9063,50.375 Q936.6094,50.375 937.25,50.5313 Q937.9063,50.6875 938.4688,50.9844 L938.4688,53.7031 Q937.8438,53.125 937.25,52.8594 Q936.6563,52.5781 936.0313,52.5781 Q934.6875,52.5781 934,53.6563 Q933.3125,54.7188 933.3125,56.8125 Q933.3125,58.9063 934,59.9844 Q934.6875,61.0469 936.0313,61.0469 Q936.6563,61.0469 937.25,60.7813 Q937.8438,60.5 938.4688,59.9219 L938.4688,62.6406 Z "/><text fill="#000000" font-family="sans-serif" font-size="12" lengthAdjust="spacingAndGlyphs" textLength="99" x="949.5" y="61.1543">ForecastDisplay</text><line style="stroke: #A80036; stroke-width: 1.5;" x1="921.5" x2="1050.5" y1="73" y2="73"/><line style="stroke: #A80036; stroke-width: 1.5;" x1="921.5" x2="1050.5" y1="81" y2="81"/><!--MD5=[01ef3d10debe8b475c8d99f345a2b434]
class headfirst.observer.weather.HeatIndexDisplay--><rect codeLine="3" fill="#FEFECE" filter="url(#f149p2jpps6i25)" height="48" id="headfirst.observer.weather.HeatIndexDisplay" style="stroke: #A80036; stroke-width: 1.5;" width="139" x="746.5" y="41"/><ellipse cx="761.5" cy="57" fill="#ADD1B2" rx="11" ry="11" style="stroke: #A80036; stroke-width: 1.0;"/><path d="M764.4688,62.6406 Q763.8906,62.9375 763.25,63.0781 Q762.6094,63.2344 761.9063,63.2344 Q759.4063,63.2344 758.0781,61.5938 Q756.7656,59.9375 756.7656,56.8125 Q756.7656,53.6875 758.0781,52.0313 Q759.4063,50.375 761.9063,50.375 Q762.6094,50.375 763.25,50.5313 Q763.9063,50.6875 764.4688,50.9844 L764.4688,53.7031 Q763.8438,53.125 763.25,52.8594 Q762.6563,52.5781 762.0313,52.5781 Q760.6875,52.5781 760,53.6563 Q759.3125,54.7188 759.3125,56.8125 Q759.3125,58.9063 760,59.9844 Q760.6875,61.0469 762.0313,61.0469 Q762.6563,61.0469 763.25,60.7813 Q763.8438,60.5 764.4688,59.9219 L764.4688,62.6406 Z "/><text fill="#000000" font-family="sans-serif" font-size="12" lengthAdjust="spacingAndGlyphs" textLength="107" x="775.5" y="61.1543">HeatIndexDisplay</text><line style="stroke: #A80036; stroke-width: 1.5;" x1="747.5" x2="884.5" y1="73" y2="73"/><line style="stroke: #A80036; stroke-width: 1.5;" x1="747.5" x2="884.5" y1="81" y2="81"/><!--MD5=[f6def790833d2192e2d78915daecb315]
class headfirst.observer.weather.StatisticsDisplay--><rect codeLine="4" fill="#FEFECE" filter="url(#f149p2jpps6i25)" height="48" id="headfirst.observer.weather.StatisticsDisplay" style="stroke: #A80036; stroke-width: 1.5;" width="134" x="577" y="41"/><ellipse cx="592" cy="57" fill="#ADD1B2" rx="11" ry="11" style="stroke: #A80036; stroke-width: 1.0;"/><path d="M594.9688,62.6406 Q594.3906,62.9375 593.75,63.0781 Q593.1094,63.2344 592.4063,63.2344 Q589.9063,63.2344 588.5781,61.5938 Q587.2656,59.9375 587.2656,56.8125 Q587.2656,53.6875 588.5781,52.0313 Q589.9063,50.375 592.4063,50.375 Q593.1094,50.375 593.75,50.5313 Q594.4063,50.6875 594.9688,50.9844 L594.9688,53.7031 Q594.3438,53.125 593.75,52.8594 Q593.1563,52.5781 592.5313,52.5781 Q591.1875,52.5781 590.5,53.6563 Q589.8125,54.7188 589.8125,56.8125 Q589.8125,58.9063 590.5,59.9844 Q591.1875,61.0469 592.5313,61.0469 Q593.1563,61.0469 593.75,60.7813 Q594.3438,60.5 594.9688,59.9219 L594.9688,62.6406 Z "/><text fill="#000000" font-family="sans-serif" font-size="12" lengthAdjust="spacingAndGlyphs" textLength="102" x="606" y="61.1543">StatisticsDisplay</text><line style="stroke: #A80036; stroke-width: 1.5;" x1="578" x2="710" y1="73" y2="73"/><line style="stroke: #A80036; stroke-width: 1.5;" x1="578" x2="710" y1="81" y2="81"/><!--MD5=[2ff2fe070f45461b06dc23286bd91669]
class headfirst.observer.weather.WeatherData--><rect codeLine="5" fill="#FEFECE" filter="url(#f149p2jpps6i25)" height="48" id="headfirst.observer.weather.WeatherData" style="stroke: #A80036; stroke-width: 1.5;" width="115" x="426.5" y="41"/><ellipse cx="441.5" cy="57" fill="#ADD1B2" rx="11" ry="11" style="stroke: #A80036; stroke-width: 1.0;"/><path d="M444.4688,62.6406 Q443.8906,62.9375 443.25,63.0781 Q442.6094,63.2344 441.9063,63.2344 Q439.4063,63.2344 438.0781,61.5938 Q436.7656,59.9375 436.7656,56.8125 Q436.7656,53.6875 438.0781,52.0313 Q439.4063,50.375 441.9063,50.375 Q442.6094,50.375 443.25,50.5313 Q443.9063,50.6875 444.4688,50.9844 L444.4688,53.7031 Q443.8438,53.125 443.25,52.8594 Q442.6563,52.5781 442.0313,52.5781 Q440.6875,52.5781 440,53.6563 Q439.3125,54.7188 439.3125,56.8125 Q439.3125,58.9063 440,59.9844 Q440.6875,61.0469 442.0313,61.0469 Q442.6563,61.0469 443.25,60.7813 Q443.8438,60.5 444.4688,59.9219 L444.4688,62.6406 Z "/><text fill="#000000" font-family="sans-serif" font-size="12" lengthAdjust="spacingAndGlyphs" textLength="83" x="455.5" y="61.1543">WeatherData</text><line style="stroke: #A80036; stroke-width: 1.5;" x1="427.5" x2="540.5" y1="73" y2="73"/><line style="stroke: #A80036; stroke-width: 1.5;" x1="427.5" x2="540.5" y1="81" y2="81"/><!--MD5=[7a6e9741e49cac827bb36e459114ecac]
class headfirst.observer.weather.WeatherStation--><rect codeLine="6" fill="#FEFECE" filter="url(#f149p2jpps6i25)" height="48" id="headfirst.observer.weather.WeatherStation" style="stroke: #A80036; stroke-width: 1.5;" width="130" x="261" y="41"/><ellipse cx="276" cy="57" fill="#ADD1B2" rx="11" ry="11" style="stroke: #A80036; stroke-width: 1.0;"/><path d="M278.9688,62.6406 Q278.3906,62.9375 277.75,63.0781 Q277.1094,63.2344 276.4063,63.2344 Q273.9063,63.2344 272.5781,61.5938 Q271.2656,59.9375 271.2656,56.8125 Q271.2656,53.6875 272.5781,52.0313 Q273.9063,50.375 276.4063,50.375 Q277.1094,50.375 277.75,50.5313 Q278.4063,50.6875 278.9688,50.9844 L278.9688,53.7031 Q278.3438,53.125 277.75,52.8594 Q277.1563,52.5781 276.5313,52.5781 Q275.1875,52.5781 274.5,53.6563 Q273.8125,54.7188 273.8125,56.8125 Q273.8125,58.9063 274.5,59.9844 Q275.1875,61.0469 276.5313,61.0469 Q277.1563,61.0469 277.75,60.7813 Q278.3438,60.5 278.9688,59.9219 L278.9688,62.6406 Z "/><text fill="#000000" font-family="sans-serif" font-size="12" lengthAdjust="spacingAndGlyphs" textLength="98" x="290" y="61.1543">WeatherStation</text><line style="stroke: #A80036; stroke-width: 1.5;" x1="262" x2="390" y1="73" y2="73"/><line style="stroke: #A80036; stroke-width: 1.5;" x1="262" x2="390" y1="81" y2="81"/><!--MD5=[911edde09f19f5657b6253d266972f43]
class headfirst.observer.weather.WeatherStationHeatIndex--><rect codeLine="7" fill="#FEFECE" filter="url(#f149p2jpps6i25)" height="48" id="headfirst.observer.weather.WeatherStationHeatIndex" style="stroke: #A80036; stroke-width: 1.5;" width="193" x="32.5" y="41"/><ellipse cx="47.5" cy="57" fill="#ADD1B2" rx="11" ry="11" style="stroke: #A80036; stroke-width: 1.0;"/><path d="M50.4688,62.6406 Q49.8906,62.9375 49.25,63.0781 Q48.6094,63.2344 47.9063,63.2344 Q45.4063,63.2344 44.0781,61.5938 Q42.7656,59.9375 42.7656,56.8125 Q42.7656,53.6875 44.0781,52.0313 Q45.4063,50.375 47.9063,50.375 Q48.6094,50.375 49.25,50.5313 Q49.9063,50.6875 50.4688,50.9844 L50.4688,53.7031 Q49.8438,53.125 49.25,52.8594 Q48.6563,52.5781 48.0313,52.5781 Q46.6875,52.5781 46,53.6563 Q45.3125,54.7188 45.3125,56.8125 Q45.3125,58.9063 46,59.9844 Q46.6875,61.0469 48.0313,61.0469 Q48.6563,61.0469 49.25,60.7813 Q49.8438,60.5 50.4688,59.9219 L50.4688,62.6406 Z "/><text fill="#000000" font-family="sans-serif" font-size="12" lengthAdjust="spacingAndGlyphs" textLength="161" x="61.5" y="61.1543">WeatherStationHeatIndex</text><line style="stroke: #A80036; stroke-width: 1.5;" x1="33.5" x2="224.5" y1="73" y2="73"/><line style="stroke: #A80036; stroke-width: 1.5;" x1="33.5" x2="224.5" y1="81" y2="81"/><!--MD5=[dd3d5384365aa14de4784edee32705c8]
class headfirst.observer.weather.DisplayElement--><rect codeLine="8" fill="#FEFECE" filter="url(#f149p2jpps6i25)" height="48" id="headfirst.observer.weather.DisplayElement" style="stroke: #A80036; stroke-width: 1.5;" width="127" x="759.5" y="149"/><ellipse cx="774.5" cy="165" fill="#B4A7E5" rx="11" ry="11" style="stroke: #A80036; stroke-width: 1.0;"/><path d="M770.4219,160.7656 L770.4219,158.6094 L777.8125,158.6094 L777.8125,160.7656 L775.3438,160.7656 L775.3438,168.8438 L777.8125,168.8438 L777.8125,171 L770.4219,171 L770.4219,168.8438 L772.8906,168.8438 L772.8906,160.7656 L770.4219,160.7656 Z "/><text fill="#000000" font-family="sans-serif" font-size="12" font-style="italic" lengthAdjust="spacingAndGlyphs" textLength="95" x="788.5" y="169.1543">DisplayElement</text><line style="stroke: #A80036; stroke-width: 1.5;" x1="760.5" x2="885.5" y1="181" y2="181"/><line style="stroke: #A80036; stroke-width: 1.5;" x1="760.5" x2="885.5" y1="189" y2="189"/><!--MD5=[de85f70088df269cf4e84906fe48626f]
class headfirst.observer.weather.Observer--><rect codeLine="9" fill="#FEFECE" filter="url(#f149p2jpps6i25)" height="48" id="headfirst.observer.weather.Observer" style="stroke: #A80036; stroke-width: 1.5;" width="86" x="936" y="149"/><ellipse cx="951" cy="165" fill="#B4A7E5" rx="11" ry="11" style="stroke: #A80036; stroke-width: 1.0;"/><path d="M946.9219,160.7656 L946.9219,158.6094 L954.3125,158.6094 L954.3125,160.7656 L951.8438,160.7656 L951.8438,168.8438 L954.3125,168.8438 L954.3125,171 L946.9219,171 L946.9219,168.8438 L949.3906,168.8438 L949.3906,160.7656 L946.9219,160.7656 Z "/><text fill="#000000" font-family="sans-serif" font-size="12" font-style="italic" lengthAdjust="spacingAndGlyphs" textLength="54" x="965" y="169.1543">Observer</text><line style="stroke: #A80036; stroke-width: 1.5;" x1="937" x2="1021" y1="181" y2="181"/><line style="stroke: #A80036; stroke-width: 1.5;" x1="937" x2="1021" y1="189" y2="189"/><!--MD5=[60ee0bdbc625f89f2c758e954d411e65]
class headfirst.observer.weather.Subject--><rect codeLine="10" fill="#FEFECE" filter="url(#f149p2jpps6i25)" height="48" id="headfirst.observer.weather.Subject" style="stroke: #A80036; stroke-width: 1.5;" width="79" x="444.5" y="149"/><ellipse cx="459.5" cy="165" fill="#B4A7E5" rx="11" ry="11" style="stroke: #A80036; stroke-width: 1.0;"/><path d="M455.4219,160.7656 L455.4219,158.6094 L462.8125,158.6094 L462.8125,160.7656 L460.3438,160.7656 L460.3438,168.8438 L462.8125,168.8438 L462.8125,171 L455.4219,171 L455.4219,168.8438 L457.8906,168.8438 L457.8906,160.7656 L455.4219,160.7656 Z "/><text fill="#000000" font-family="sans-serif" font-size="12" font-style="italic" lengthAdjust="spacingAndGlyphs" textLength="47" x="473.5" y="169.1543">Subject</text><line style="stroke: #A80036; stroke-width: 1.5;" x1="445.5" x2="522.5" y1="181" y2="181"/><line style="stroke: #A80036; stroke-width: 1.5;" x1="445.5" x2="522.5" y1="189" y2="189"/><!--MD5=[d3982497c5c8363eb6b9b4b32ee16011]
link headfirst.observer.weather.CurrentConditionsDisplay to headfirst.observer.weather.DisplayElement--><path codeLine="11" d="M1103.32,89 C1045.03,106.26 965.36,129.85 905.85,147.47 " fill="none" id="headfirst.observer.weather.CurrentConditionsDisplay-to-headfirst.observer.weather.DisplayElement" style="stroke: #A80036; stroke-width: 1.0;"/><polygon fill="none" points="907.67,154.23,886.51,153.2,903.7,140.81,907.67,154.23" style="stroke: #A80036; stroke-width: 1.0;"/><!--MD5=[73681f491f0a8648ad3aad225ee69712]
link headfirst.observer.weather.CurrentConditionsDisplay to headfirst.observer.weather.Observer--><path codeLine="12" d="M1137.17,89 C1108.78,103.9 1071.42,123.5 1040.13,139.92 " fill="none" id="headfirst.observer.weather.CurrentConditionsDisplay-to-headfirst.observer.weather.Observer" style="stroke: #A80036; stroke-width: 1.0;"/><polygon fill="none" points="1043.01,146.31,1022.05,149.41,1036.51,133.92,1043.01,146.31" style="stroke: #A80036; stroke-width: 1.0;"/><!--MD5=[528432b00a3707b31274554403958e1c]
link headfirst.observer.weather.ForecastDisplay to headfirst.observer.weather.DisplayElement--><path codeLine="13" d="M950.63,89 C928.71,103.26 900.14,121.84 875.59,137.8 " fill="none" id="headfirst.observer.weather.ForecastDisplay-to-headfirst.observer.weather.DisplayElement" style="stroke: #A80036; stroke-width: 1.0;"/><polygon fill="none" points="879.16,143.83,858.58,148.86,871.53,132.09,879.16,143.83" style="stroke: #A80036; stroke-width: 1.0;"/><!--MD5=[e6c9556983b5e3517698b8959b012b87]
link headfirst.observer.weather.ForecastDisplay to headfirst.observer.weather.Observer--><path codeLine="14" d="M984.48,89 C983.72,100.59 982.76,115.03 981.87,128.6 " fill="none" id="headfirst.observer.weather.ForecastDisplay-to-headfirst.observer.weather.Observer" style="stroke: #A80036; stroke-width: 1.0;"/><polygon fill="none" points="988.84,129.18,980.54,148.68,974.87,128.26,988.84,129.18" style="stroke: #A80036; stroke-width: 1.0;"/><!--MD5=[590e553b9cc6d9743f2a253ae1ce450e]
link headfirst.observer.weather.HeatIndexDisplay to headfirst.observer.weather.DisplayElement--><path codeLine="15" d="M817.52,89 C818.28,100.59 819.24,115.03 820.13,128.6 " fill="none" id="headfirst.observer.weather.HeatIndexDisplay-to-headfirst.observer.weather.DisplayElement" style="stroke: #A80036; stroke-width: 1.0;"/><polygon fill="none" points="827.13,128.26,821.46,148.68,813.16,129.18,827.13,128.26" style="stroke: #A80036; stroke-width: 1.0;"/><!--MD5=[88823dc512a9e7aa7a171971492dfb32]
link headfirst.observer.weather.HeatIndexDisplay to headfirst.observer.weather.Observer--><path codeLine="16" d="M851.37,89 C873.29,103.26 901.86,121.84 926.41,137.8 " fill="none" id="headfirst.observer.weather.HeatIndexDisplay-to-headfirst.observer.weather.Observer" style="stroke: #A80036; stroke-width: 1.0;"/><polygon fill="none" points="930.47,132.09,943.42,148.86,922.84,143.83,930.47,132.09" style="stroke: #A80036; stroke-width: 1.0;"/><!--MD5=[0bca305695c9be3001e8dd8b5146e7ba]
link headfirst.observer.weather.StatisticsDisplay to headfirst.observer.weather.DisplayElement--><path codeLine="17" d="M682.84,89 C707.27,103.47 739.2,122.38 766.42,138.49 " fill="none" id="headfirst.observer.weather.StatisticsDisplay-to-headfirst.observer.weather.DisplayElement" style="stroke: #A80036; stroke-width: 1.0;"/><polygon fill="none" points="770.28,132.65,783.93,148.86,763.15,144.69,770.28,132.65" style="stroke: #A80036; stroke-width: 1.0;"/><!--MD5=[4292a9db60c4a2049c58add8ee7885a3]
link headfirst.observer.weather.StatisticsDisplay to headfirst.observer.weather.Observer--><path codeLine="18" d="M711.39,87.32 C771.21,106.25 857.94,133.69 916.3,152.16 " fill="none" id="headfirst.observer.weather.StatisticsDisplay-to-headfirst.observer.weather.Observer" style="stroke: #A80036; stroke-width: 1.0;"/><polygon fill="none" points="918.71,145.58,935.66,158.29,914.48,158.93,918.71,145.58" style="stroke: #A80036; stroke-width: 1.0;"/><!--MD5=[b7076463256d7e9bf10348cb11998fef]
link headfirst.observer.weather.WeatherData to headfirst.observer.weather.Subject--><path codeLine="19" d="M484,89 C484,100.59 484,115.03 484,128.6 " fill="none" id="headfirst.observer.weather.WeatherData-to-headfirst.observer.weather.Subject" style="stroke: #A80036; stroke-width: 1.0;"/><polygon fill="none" points="491,128.68,484,148.68,477,128.68,491,128.68" style="stroke: #A80036; stroke-width: 1.0;"/><!--MD5=[386f345bb54880ccb0bffccc35046264]
@startuml
class headfirst.observer.weather.CurrentConditionsDisplay
class headfirst.observer.weather.ForecastDisplay
class headfirst.observer.weather.HeatIndexDisplay
class headfirst.observer.weather.StatisticsDisplay
class headfirst.observer.weather.WeatherData
class headfirst.observer.weather.WeatherStation
class headfirst.observer.weather.WeatherStationHeatIndex
interface headfirst.observer.weather.DisplayElement
interface headfirst.observer.weather.Observer
interface headfirst.observer.weather.Subject
headfirst.observer.weather.CurrentConditionsDisplay - -|> headfirst.observer.weather.DisplayElement
headfirst.observer.weather.CurrentConditionsDisplay - -|> headfirst.observer.weather.Observer
headfirst.observer.weather.ForecastDisplay - -|> headfirst.observer.weather.DisplayElement
headfirst.observer.weather.ForecastDisplay - -|> headfirst.observer.weather.Observer
headfirst.observer.weather.HeatIndexDisplay - -|> headfirst.observer.weather.DisplayElement
headfirst.observer.weather.HeatIndexDisplay - -|> headfirst.observer.weather.Observer
headfirst.observer.weather.StatisticsDisplay - -|> headfirst.observer.weather.DisplayElement
headfirst.observer.weather.StatisticsDisplay - -|> headfirst.observer.weather.Observer
headfirst.observer.weather.WeatherData - -|> headfirst.observer.weather.Subject
@enduml

PlantUML version 1.2020.18(Wed Sep 30 22:40:44 EEST 2020)
(GPL source distribution)
Java Runtime: OpenJDK Runtime Environment
JVM: OpenJDK 64-Bit Server VM
Default Encoding: UTF-8
Language: en
Country: US
--></g></svg>