<?xml version="1.0" encoding="UTF-8" standalone="no"?><svg xmlns="http://www.w3.org/2000/svg" xmlns:xlink="http://www.w3.org/1999/xlink" contentScriptType="application/ecmascript" contentStyleType="text/css" height="343px" preserveAspectRatio="none" style="width:1950px;height:343px;" version="1.1" viewBox="0 0 1950 343" width="1950px" zoomAndPan="magnify"><defs><filter height="300%" id="f1qx1qt32pyan" width="300%" x="-1" y="-1"><feGaussianBlur result="blurOut" stdDeviation="2.0"/><feColorMatrix in="blurOut" result="blurOut2" type="matrix" values="0 0 0 0 0 0 0 0 0 0 0 0 0 0 0 0 0 0 .4 0"/><feOffset dx="4.0" dy="4.0" in="blurOut2" result="blurOut3"/><feBlend in="SourceGraphic" in2="blurOut3" mode="normal"/></filter></defs><g><!--MD5=[930d3f6ef87cbeb407bf15125eeb4896]
cluster pattern_OF_Patterns--><polygon fill="#FFFFFF" filter="url(#f1qx1qt32pyan)" points="16,6,182,6,189,28.2969,1744,28.2969,1744,336,16,336,16,6" style="stroke: #000000; stroke-width: 1.5;"/><line style="stroke: #000000; stroke-width: 1.5;" x1="16" x2="189" y1="28.2969" y2="28.2969"/><text fill="#000000" font-family="sans-serif" font-size="14" font-weight="bold" lengthAdjust="spacingAndGlyphs" textLength="160" x="20" y="20.9951">pattern_OF_Patterns</text><!--MD5=[aa8f7b917213fcc1c2766e2d59b49067]
cluster java.lang--><polygon fill="#FFFFFF" filter="url(#f1qx1qt32pyan)" points="1768,114,1843,114,1850,136.2969,1884,136.2969,1884,213,1768,213,1768,114" style="stroke: #000000; stroke-width: 1.5;"/><line style="stroke: #000000; stroke-width: 1.5;" x1="1768" x2="1850" y1="136.2969" y2="136.2969"/><text fill="#000000" font-family="sans-serif" font-size="14" font-weight="bold" lengthAdjust="spacingAndGlyphs" textLength="69" x="1772" y="128.9951">java.lang</text><!--MD5=[7db3c59d38ae5b37b484eb2df9368145]
cluster java.util--><polygon fill="#FFFFFF" filter="url(#f1qx1qt32pyan)" points="1815,237,1881,237,1888,259.2969,1933,259.2969,1933,336,1815,336,1815,237" style="stroke: #000000; stroke-width: 1.5;"/><line style="stroke: #000000; stroke-width: 1.5;" x1="1815" x2="1888" y1="259.2969" y2="259.2969"/><text fill="#000000" font-family="sans-serif" font-size="14" font-weight="bold" lengthAdjust="spacingAndGlyphs" textLength="60" x="1819" y="251.9951">java.util</text><!--MD5=[b5d76d36b8cea0296780cf1df540927d]
class pattern_OF_Patterns.AbstractDuckFactory--><rect codeLine="1" fill="#FEFECE" filter="url(#f1qx1qt32pyan)" height="48" id="pattern_OF_Patterns.AbstractDuckFactory" style="stroke: #A80036; stroke-width: 1.5;" width="162" x="1379" y="149"/><ellipse cx="1394" cy="165" fill="#A9DCDF" rx="11" ry="11" style="stroke: #A80036; stroke-width: 1.0;"/><path d="M1394.1094,160.3438 L1392.9531,165.4219 L1395.2813,165.4219 L1394.1094,160.3438 Z M1392.625,158.1094 L1395.6094,158.1094 L1398.9688,170.5 L1396.5156,170.5 L1395.75,167.4375 L1392.4688,167.4375 L1391.7188,170.5 L1389.2813,170.5 L1392.625,158.1094 Z "/><text fill="#000000" font-family="sans-serif" font-size="12" font-style="italic" lengthAdjust="spacingAndGlyphs" textLength="130" x="1408" y="169.1543">AbstractDuckFactory</text><line style="stroke: #A80036; stroke-width: 1.5;" x1="1380" x2="1540" y1="181" y2="181"/><line style="stroke: #A80036; stroke-width: 1.5;" x1="1380" x2="1540" y1="189" y2="189"/><!--MD5=[d37daa7cc7bdb8d4c8239e7034da5d74]
class pattern_OF_Patterns.CountingDuckFactory--><rect codeLine="4" fill="#FEFECE" filter="url(#f1qx1qt32pyan)" height="48" id="pattern_OF_Patterns.CountingDuckFactory" style="stroke: #A80036; stroke-width: 1.5;" width="165" x="1463.5" y="41"/><ellipse cx="1478.5" cy="57" fill="#ADD1B2" rx="11" ry="11" style="stroke: #A80036; stroke-width: 1.0;"/><path d="M1481.4688,62.6406 Q1480.8906,62.9375 1480.25,63.0781 Q1479.6094,63.2344 1478.9063,63.2344 Q1476.4063,63.2344 1475.0781,61.5938 Q1473.7656,59.9375 1473.7656,56.8125 Q1473.7656,53.6875 1475.0781,52.0313 Q1476.4063,50.375 1478.9063,50.375 Q1479.6094,50.375 1480.25,50.5313 Q1480.9063,50.6875 1481.4688,50.9844 L1481.4688,53.7031 Q1480.8438,53.125 1480.25,52.8594 Q1479.6563,52.5781 1479.0313,52.5781 Q1477.6875,52.5781 1477,53.6563 Q1476.3125,54.7188 1476.3125,56.8125 Q1476.3125,58.9063 1477,59.9844 Q1477.6875,61.0469 1479.0313,61.0469 Q1479.6563,61.0469 1480.25,60.7813 Q1480.8438,60.5 1481.4688,59.9219 L1481.4688,62.6406 Z "/><text fill="#000000" font-family="sans-serif" font-size="12" lengthAdjust="spacingAndGlyphs" textLength="133" x="1492.5" y="61.1543">CountingDuckFactory</text><line style="stroke: #A80036; stroke-width: 1.5;" x1="1464.5" x2="1627.5" y1="73" y2="73"/><line style="stroke: #A80036; stroke-width: 1.5;" x1="1464.5" x2="1627.5" y1="81" y2="81"/><!--MD5=[7728f50dddb7c758e891a488e6acfb6f]
class pattern_OF_Patterns.DuckCall--><rect codeLine="5" fill="#FEFECE" filter="url(#f1qx1qt32pyan)" height="48" id="pattern_OF_Patterns.DuckCall" style="stroke: #A80036; stroke-width: 1.5;" width="85" x="338.5" y="41"/><ellipse cx="353.5" cy="57" fill="#ADD1B2" rx="11" ry="11" style="stroke: #A80036; stroke-width: 1.0;"/><path d="M356.4688,62.6406 Q355.8906,62.9375 355.25,63.0781 Q354.6094,63.2344 353.9063,63.2344 Q351.4063,63.2344 350.0781,61.5938 Q348.7656,59.9375 348.7656,56.8125 Q348.7656,53.6875 350.0781,52.0313 Q351.4063,50.375 353.9063,50.375 Q354.6094,50.375 355.25,50.5313 Q355.9063,50.6875 356.4688,50.9844 L356.4688,53.7031 Q355.8438,53.125 355.25,52.8594 Q354.6563,52.5781 354.0313,52.5781 Q352.6875,52.5781 352,53.6563 Q351.3125,54.7188 351.3125,56.8125 Q351.3125,58.9063 352,59.9844 Q352.6875,61.0469 354.0313,61.0469 Q354.6563,61.0469 355.25,60.7813 Q355.8438,60.5 356.4688,59.9219 L356.4688,62.6406 Z "/><text fill="#000000" font-family="sans-serif" font-size="12" lengthAdjust="spacingAndGlyphs" textLength="53" x="367.5" y="61.1543">DuckCall</text><line style="stroke: #A80036; stroke-width: 1.5;" x1="339.5" x2="422.5" y1="73" y2="73"/><line style="stroke: #A80036; stroke-width: 1.5;" x1="339.5" x2="422.5" y1="81" y2="81"/><!--MD5=[821d8854f43c733470dbe124f748c8ad]
class pattern_OF_Patterns.DuckFactory--><rect codeLine="6" fill="#FEFECE" filter="url(#f1qx1qt32pyan)" height="48" id="pattern_OF_Patterns.DuckFactory" style="stroke: #A80036; stroke-width: 1.5;" width="109" x="1319.5" y="41"/><ellipse cx="1334.5" cy="57" fill="#ADD1B2" rx="11" ry="11" style="stroke: #A80036; stroke-width: 1.0;"/><path d="M1337.4688,62.6406 Q1336.8906,62.9375 1336.25,63.0781 Q1335.6094,63.2344 1334.9063,63.2344 Q1332.4063,63.2344 1331.0781,61.5938 Q1329.7656,59.9375 1329.7656,56.8125 Q1329.7656,53.6875 1331.0781,52.0313 Q1332.4063,50.375 1334.9063,50.375 Q1335.6094,50.375 1336.25,50.5313 Q1336.9063,50.6875 1337.4688,50.9844 L1337.4688,53.7031 Q1336.8438,53.125 1336.25,52.8594 Q1335.6563,52.5781 1335.0313,52.5781 Q1333.6875,52.5781 1333,53.6563 Q1332.3125,54.7188 1332.3125,56.8125 Q1332.3125,58.9063 1333,59.9844 Q1333.6875,61.0469 1335.0313,61.0469 Q1335.6563,61.0469 1336.25,60.7813 Q1336.8438,60.5 1337.4688,59.9219 L1337.4688,62.6406 Z "/><text fill="#000000" font-family="sans-serif" font-size="12" lengthAdjust="spacingAndGlyphs" textLength="77" x="1348.5" y="61.1543">DuckFactory</text><line style="stroke: #A80036; stroke-width: 1.5;" x1="1320.5" x2="1427.5" y1="73" y2="73"/><line style="stroke: #A80036; stroke-width: 1.5;" x1="1320.5" x2="1427.5" y1="81" y2="81"/><!--MD5=[6b549b0bf541be5bdfeb3f8937fdc2b9]
class pattern_OF_Patterns.DuckSimulator--><rect codeLine="7" fill="#FEFECE" filter="url(#f1qx1qt32pyan)" height="48" id="pattern_OF_Patterns.DuckSimulator" style="stroke: #A80036; stroke-width: 1.5;" width="122" x="1162" y="41"/><ellipse cx="1177" cy="57" fill="#ADD1B2" rx="11" ry="11" style="stroke: #A80036; stroke-width: 1.0;"/><path d="M1179.9688,62.6406 Q1179.3906,62.9375 1178.75,63.0781 Q1178.1094,63.2344 1177.4063,63.2344 Q1174.9063,63.2344 1173.5781,61.5938 Q1172.2656,59.9375 1172.2656,56.8125 Q1172.2656,53.6875 1173.5781,52.0313 Q1174.9063,50.375 1177.4063,50.375 Q1178.1094,50.375 1178.75,50.5313 Q1179.4063,50.6875 1179.9688,50.9844 L1179.9688,53.7031 Q1179.3438,53.125 1178.75,52.8594 Q1178.1563,52.5781 1177.5313,52.5781 Q1176.1875,52.5781 1175.5,53.6563 Q1174.8125,54.7188 1174.8125,56.8125 Q1174.8125,58.9063 1175.5,59.9844 Q1176.1875,61.0469 1177.5313,61.0469 Q1178.1563,61.0469 1178.75,60.7813 Q1179.3438,60.5 1179.9688,59.9219 L1179.9688,62.6406 Z "/><text fill="#000000" font-family="sans-serif" font-size="12" lengthAdjust="spacingAndGlyphs" textLength="90" x="1191" y="61.1543">DuckSimulator</text><line style="stroke: #A80036; stroke-width: 1.5;" x1="1163" x2="1283" y1="73" y2="73"/><line style="stroke: #A80036; stroke-width: 1.5;" x1="1163" x2="1283" y1="81" y2="81"/><!--MD5=[b904cff9af824930b31a5e393bed5dcc]
class pattern_OF_Patterns.Flock--><rect codeLine="8" fill="#FEFECE" filter="url(#f1qx1qt32pyan)" height="48" id="pattern_OF_Patterns.Flock" style="stroke: #A80036; stroke-width: 1.5;" width="64" x="1664" y="41"/><ellipse cx="1679" cy="57" fill="#ADD1B2" rx="11" ry="11" style="stroke: #A80036; stroke-width: 1.0;"/><path d="M1681.9688,62.6406 Q1681.3906,62.9375 1680.75,63.0781 Q1680.1094,63.2344 1679.4063,63.2344 Q1676.9063,63.2344 1675.5781,61.5938 Q1674.2656,59.9375 1674.2656,56.8125 Q1674.2656,53.6875 1675.5781,52.0313 Q1676.9063,50.375 1679.4063,50.375 Q1680.1094,50.375 1680.75,50.5313 Q1681.4063,50.6875 1681.9688,50.9844 L1681.9688,53.7031 Q1681.3438,53.125 1680.75,52.8594 Q1680.1563,52.5781 1679.5313,52.5781 Q1678.1875,52.5781 1677.5,53.6563 Q1676.8125,54.7188 1676.8125,56.8125 Q1676.8125,58.9063 1677.5,59.9844 Q1678.1875,61.0469 1679.5313,61.0469 Q1680.1563,61.0469 1680.75,60.7813 Q1681.3438,60.5 1681.9688,59.9219 L1681.9688,62.6406 Z "/><text fill="#000000" font-family="sans-serif" font-size="12" lengthAdjust="spacingAndGlyphs" textLength="32" x="1693" y="61.1543">Flock</text><line style="stroke: #A80036; stroke-width: 1.5;" x1="1665" x2="1727" y1="73" y2="73"/><line style="stroke: #A80036; stroke-width: 1.5;" x1="1665" x2="1727" y1="81" y2="81"/><!--MD5=[51250ced8104383b8c8397809ac3712b]
class pattern_OF_Patterns.Goose--><rect codeLine="9" fill="#FEFECE" filter="url(#f1qx1qt32pyan)" height="48" id="pattern_OF_Patterns.Goose" style="stroke: #A80036; stroke-width: 1.5;" width="72" x="912" y="41"/><ellipse cx="927" cy="57" fill="#ADD1B2" rx="11" ry="11" style="stroke: #A80036; stroke-width: 1.0;"/><path d="M929.9688,62.6406 Q929.3906,62.9375 928.75,63.0781 Q928.1094,63.2344 927.4063,63.2344 Q924.9063,63.2344 923.5781,61.5938 Q922.2656,59.9375 922.2656,56.8125 Q922.2656,53.6875 923.5781,52.0313 Q924.9063,50.375 927.4063,50.375 Q928.1094,50.375 928.75,50.5313 Q929.4063,50.6875 929.9688,50.9844 L929.9688,53.7031 Q929.3438,53.125 928.75,52.8594 Q928.1563,52.5781 927.5313,52.5781 Q926.1875,52.5781 925.5,53.6563 Q924.8125,54.7188 924.8125,56.8125 Q924.8125,58.9063 925.5,59.9844 Q926.1875,61.0469 927.5313,61.0469 Q928.1563,61.0469 928.75,60.7813 Q929.3438,60.5 929.9688,59.9219 L929.9688,62.6406 Z "/><text fill="#000000" font-family="sans-serif" font-size="12" lengthAdjust="spacingAndGlyphs" textLength="40" x="941" y="61.1543">Goose</text><line style="stroke: #A80036; stroke-width: 1.5;" x1="913" x2="983" y1="73" y2="73"/><line style="stroke: #A80036; stroke-width: 1.5;" x1="913" x2="983" y1="81" y2="81"/><!--MD5=[5f6bdc4ceb3d0a63790b1019a0213b67]
class pattern_OF_Patterns.GooseAdapter--><rect codeLine="10" fill="#FEFECE" filter="url(#f1qx1qt32pyan)" height="48" id="pattern_OF_Patterns.GooseAdapter" style="stroke: #A80036; stroke-width: 1.5;" width="122" x="181" y="41"/><ellipse cx="196" cy="57" fill="#ADD1B2" rx="11" ry="11" style="stroke: #A80036; stroke-width: 1.0;"/><path d="M198.9688,62.6406 Q198.3906,62.9375 197.75,63.0781 Q197.1094,63.2344 196.4063,63.2344 Q193.9063,63.2344 192.5781,61.5938 Q191.2656,59.9375 191.2656,56.8125 Q191.2656,53.6875 192.5781,52.0313 Q193.9063,50.375 196.4063,50.375 Q197.1094,50.375 197.75,50.5313 Q198.4063,50.6875 198.9688,50.9844 L198.9688,53.7031 Q198.3438,53.125 197.75,52.8594 Q197.1563,52.5781 196.5313,52.5781 Q195.1875,52.5781 194.5,53.6563 Q193.8125,54.7188 193.8125,56.8125 Q193.8125,58.9063 194.5,59.9844 Q195.1875,61.0469 196.5313,61.0469 Q197.1563,61.0469 197.75,60.7813 Q198.3438,60.5 198.9688,59.9219 L198.9688,62.6406 Z "/><text fill="#000000" font-family="sans-serif" font-size="12" lengthAdjust="spacingAndGlyphs" textLength="90" x="210" y="61.1543">GooseAdapter</text><line style="stroke: #A80036; stroke-width: 1.5;" x1="182" x2="302" y1="73" y2="73"/><line style="stroke: #A80036; stroke-width: 1.5;" x1="182" x2="302" y1="81" y2="81"/><!--MD5=[3f28d18317f2b905eabd97c66f2ee459]
class pattern_OF_Patterns.MallardDuck--><rect codeLine="11" fill="#FEFECE" filter="url(#f1qx1qt32pyan)" height="48" id="pattern_OF_Patterns.MallardDuck" style="stroke: #A80036; stroke-width: 1.5;" width="108" x="769" y="41"/><ellipse cx="784" cy="57" fill="#ADD1B2" rx="11" ry="11" style="stroke: #A80036; stroke-width: 1.0;"/><path d="M786.9688,62.6406 Q786.3906,62.9375 785.75,63.0781 Q785.1094,63.2344 784.4063,63.2344 Q781.9063,63.2344 780.5781,61.5938 Q779.2656,59.9375 779.2656,56.8125 Q779.2656,53.6875 780.5781,52.0313 Q781.9063,50.375 784.4063,50.375 Q785.1094,50.375 785.75,50.5313 Q786.4063,50.6875 786.9688,50.9844 L786.9688,53.7031 Q786.3438,53.125 785.75,52.8594 Q785.1563,52.5781 784.5313,52.5781 Q783.1875,52.5781 782.5,53.6563 Q781.8125,54.7188 781.8125,56.8125 Q781.8125,58.9063 782.5,59.9844 Q783.1875,61.0469 784.5313,61.0469 Q785.1563,61.0469 785.75,60.7813 Q786.3438,60.5 786.9688,59.9219 L786.9688,62.6406 Z "/><text fill="#000000" font-family="sans-serif" font-size="12" lengthAdjust="spacingAndGlyphs" textLength="76" x="798" y="61.1543">MallardDuck</text><line style="stroke: #A80036; stroke-width: 1.5;" x1="770" x2="876" y1="73" y2="73"/><line style="stroke: #A80036; stroke-width: 1.5;" x1="770" x2="876" y1="81" y2="81"/><!--MD5=[192b971cf756e2ba14680f8d4af61fe3]
class pattern_OF_Patterns.Observable--><rect codeLine="12" fill="#FEFECE" filter="url(#f1qx1qt32pyan)" height="48" id="pattern_OF_Patterns.Observable" style="stroke: #A80036; stroke-width: 1.5;" width="102" x="1043" y="149"/><ellipse cx="1058" cy="165" fill="#ADD1B2" rx="11" ry="11" style="stroke: #A80036; stroke-width: 1.0;"/><path d="M1060.9688,170.6406 Q1060.3906,170.9375 1059.75,171.0781 Q1059.1094,171.2344 1058.4063,171.2344 Q1055.9063,171.2344 1054.5781,169.5938 Q1053.2656,167.9375 1053.2656,164.8125 Q1053.2656,161.6875 1054.5781,160.0313 Q1055.9063,158.375 1058.4063,158.375 Q1059.1094,158.375 1059.75,158.5313 Q1060.4063,158.6875 1060.9688,158.9844 L1060.9688,161.7031 Q1060.3438,161.125 1059.75,160.8594 Q1059.1563,160.5781 1058.5313,160.5781 Q1057.1875,160.5781 1056.5,161.6563 Q1055.8125,162.7188 1055.8125,164.8125 Q1055.8125,166.9063 1056.5,167.9844 Q1057.1875,169.0469 1058.5313,169.0469 Q1059.1563,169.0469 1059.75,168.7813 Q1060.3438,168.5 1060.9688,167.9219 L1060.9688,170.6406 Z "/><text fill="#000000" font-family="sans-serif" font-size="12" lengthAdjust="spacingAndGlyphs" textLength="70" x="1072" y="169.1543">Observable</text><line style="stroke: #A80036; stroke-width: 1.5;" x1="1044" x2="1144" y1="181" y2="181"/><line style="stroke: #A80036; stroke-width: 1.5;" x1="1044" x2="1144" y1="189" y2="189"/><!--MD5=[e991171d6eccfc1e4cad6c7052aa6b1b]
class pattern_OF_Patterns.QuackCounter--><rect codeLine="13" fill="#FEFECE" filter="url(#f1qx1qt32pyan)" height="48" id="pattern_OF_Patterns.QuackCounter" style="stroke: #A80036; stroke-width: 1.5;" width="121" x="612.5" y="41"/><ellipse cx="627.5" cy="57" fill="#ADD1B2" rx="11" ry="11" style="stroke: #A80036; stroke-width: 1.0;"/><path d="M630.4688,62.6406 Q629.8906,62.9375 629.25,63.0781 Q628.6094,63.2344 627.9063,63.2344 Q625.4063,63.2344 624.0781,61.5938 Q622.7656,59.9375 622.7656,56.8125 Q622.7656,53.6875 624.0781,52.0313 Q625.4063,50.375 627.9063,50.375 Q628.6094,50.375 629.25,50.5313 Q629.9063,50.6875 630.4688,50.9844 L630.4688,53.7031 Q629.8438,53.125 629.25,52.8594 Q628.6563,52.5781 628.0313,52.5781 Q626.6875,52.5781 626,53.6563 Q625.3125,54.7188 625.3125,56.8125 Q625.3125,58.9063 626,59.9844 Q626.6875,61.0469 628.0313,61.0469 Q628.6563,61.0469 629.25,60.7813 Q629.8438,60.5 630.4688,59.9219 L630.4688,62.6406 Z "/><text fill="#000000" font-family="sans-serif" font-size="12" lengthAdjust="spacingAndGlyphs" textLength="89" x="641.5" y="61.1543">QuackCounter</text><line style="stroke: #A80036; stroke-width: 1.5;" x1="613.5" x2="732.5" y1="73" y2="73"/><line style="stroke: #A80036; stroke-width: 1.5;" x1="613.5" x2="732.5" y1="81" y2="81"/><!--MD5=[83d1735155401cfa1a69ea6ae8865155]
class pattern_OF_Patterns.Quackologist--><rect codeLine="14" fill="#FEFECE" filter="url(#f1qx1qt32pyan)" height="48" id="pattern_OF_Patterns.Quackologist" style="stroke: #A80036; stroke-width: 1.5;" width="113" x="32.5" y="41"/><ellipse cx="47.5" cy="57" fill="#ADD1B2" rx="11" ry="11" style="stroke: #A80036; stroke-width: 1.0;"/><path d="M50.4688,62.6406 Q49.8906,62.9375 49.25,63.0781 Q48.6094,63.2344 47.9063,63.2344 Q45.4063,63.2344 44.0781,61.5938 Q42.7656,59.9375 42.7656,56.8125 Q42.7656,53.6875 44.0781,52.0313 Q45.4063,50.375 47.9063,50.375 Q48.6094,50.375 49.25,50.5313 Q49.9063,50.6875 50.4688,50.9844 L50.4688,53.7031 Q49.8438,53.125 49.25,52.8594 Q48.6563,52.5781 48.0313,52.5781 Q46.6875,52.5781 46,53.6563 Q45.3125,54.7188 45.3125,56.8125 Q45.3125,58.9063 46,59.9844 Q46.6875,61.0469 48.0313,61.0469 Q48.6563,61.0469 49.25,60.7813 Q49.8438,60.5 50.4688,59.9219 L50.4688,62.6406 Z "/><text fill="#000000" font-family="sans-serif" font-size="12" lengthAdjust="spacingAndGlyphs" textLength="81" x="61.5" y="61.1543">Quackologist</text><line style="stroke: #A80036; stroke-width: 1.5;" x1="33.5" x2="144.5" y1="73" y2="73"/><line style="stroke: #A80036; stroke-width: 1.5;" x1="33.5" x2="144.5" y1="81" y2="81"/><!--MD5=[f2723c5065e3dd4f38b4e9fca4cf9832]
class pattern_OF_Patterns.RedheadDuck--><rect codeLine="15" fill="#FEFECE" filter="url(#f1qx1qt32pyan)" height="48" id="pattern_OF_Patterns.RedheadDuck" style="stroke: #A80036; stroke-width: 1.5;" width="119" x="458.5" y="41"/><ellipse cx="473.5" cy="57" fill="#ADD1B2" rx="11" ry="11" style="stroke: #A80036; stroke-width: 1.0;"/><path d="M476.4688,62.6406 Q475.8906,62.9375 475.25,63.0781 Q474.6094,63.2344 473.9063,63.2344 Q471.4063,63.2344 470.0781,61.5938 Q468.7656,59.9375 468.7656,56.8125 Q468.7656,53.6875 470.0781,52.0313 Q471.4063,50.375 473.9063,50.375 Q474.6094,50.375 475.25,50.5313 Q475.9063,50.6875 476.4688,50.9844 L476.4688,53.7031 Q475.8438,53.125 475.25,52.8594 Q474.6563,52.5781 474.0313,52.5781 Q472.6875,52.5781 472,53.6563 Q471.3125,54.7188 471.3125,56.8125 Q471.3125,58.9063 472,59.9844 Q472.6875,61.0469 474.0313,61.0469 Q474.6563,61.0469 475.25,60.7813 Q475.8438,60.5 476.4688,59.9219 L476.4688,62.6406 Z "/><text fill="#000000" font-family="sans-serif" font-size="12" lengthAdjust="spacingAndGlyphs" textLength="87" x="487.5" y="61.1543">RedheadDuck</text><line style="stroke: #A80036; stroke-width: 1.5;" x1="459.5" x2="576.5" y1="73" y2="73"/><line style="stroke: #A80036; stroke-width: 1.5;" x1="459.5" x2="576.5" y1="81" y2="81"/><!--MD5=[30af6e5be514ab31e6603080e00afe26]
class pattern_OF_Patterns.RubberDuck--><rect codeLine="16" fill="#FEFECE" filter="url(#f1qx1qt32pyan)" height="48" id="pattern_OF_Patterns.RubberDuck" style="stroke: #A80036; stroke-width: 1.5;" width="108" x="1019" y="41"/><ellipse cx="1034" cy="57" fill="#ADD1B2" rx="11" ry="11" style="stroke: #A80036; stroke-width: 1.0;"/><path d="M1036.9688,62.6406 Q1036.3906,62.9375 1035.75,63.0781 Q1035.1094,63.2344 1034.4063,63.2344 Q1031.9063,63.2344 1030.5781,61.5938 Q1029.2656,59.9375 1029.2656,56.8125 Q1029.2656,53.6875 1030.5781,52.0313 Q1031.9063,50.375 1034.4063,50.375 Q1035.1094,50.375 1035.75,50.5313 Q1036.4063,50.6875 1036.9688,50.9844 L1036.9688,53.7031 Q1036.3438,53.125 1035.75,52.8594 Q1035.1563,52.5781 1034.5313,52.5781 Q1033.1875,52.5781 1032.5,53.6563 Q1031.8125,54.7188 1031.8125,56.8125 Q1031.8125,58.9063 1032.5,59.9844 Q1033.1875,61.0469 1034.5313,61.0469 Q1035.1563,61.0469 1035.75,60.7813 Q1036.3438,60.5 1036.9688,59.9219 L1036.9688,62.6406 Z "/><text fill="#000000" font-family="sans-serif" font-size="12" lengthAdjust="spacingAndGlyphs" textLength="76" x="1048" y="61.1543">RubberDuck</text><line style="stroke: #A80036; stroke-width: 1.5;" x1="1020" x2="1126" y1="73" y2="73"/><line style="stroke: #A80036; stroke-width: 1.5;" x1="1020" x2="1126" y1="81" y2="81"/><!--MD5=[3dc208f1359af6788c37f9676f4180fd]
class pattern_OF_Patterns.Observer--><rect codeLine="17" fill="#FEFECE" filter="url(#f1qx1qt32pyan)" height="48" id="pattern_OF_Patterns.Observer" style="stroke: #A80036; stroke-width: 1.5;" width="86" x="46" y="149"/><ellipse cx="61" cy="165" fill="#B4A7E5" rx="11" ry="11" style="stroke: #A80036; stroke-width: 1.0;"/><path d="M56.9219,160.7656 L56.9219,158.6094 L64.3125,158.6094 L64.3125,160.7656 L61.8438,160.7656 L61.8438,168.8438 L64.3125,168.8438 L64.3125,171 L56.9219,171 L56.9219,168.8438 L59.3906,168.8438 L59.3906,160.7656 L56.9219,160.7656 Z "/><text fill="#000000" font-family="sans-serif" font-size="12" font-style="italic" lengthAdjust="spacingAndGlyphs" textLength="54" x="75" y="169.1543">Observer</text><line style="stroke: #A80036; stroke-width: 1.5;" x1="47" x2="131" y1="181" y2="181"/><line style="stroke: #A80036; stroke-width: 1.5;" x1="47" x2="131" y1="189" y2="189"/><!--MD5=[80f7362ceff57fdfdbc89fe9c40d52c5]
class pattern_OF_Patterns.QuackObservable--><rect codeLine="18" fill="#FEFECE" filter="url(#f1qx1qt32pyan)" height="48" id="pattern_OF_Patterns.QuackObservable" style="stroke: #A80036; stroke-width: 1.5;" width="138" x="846" y="272"/><ellipse cx="861" cy="288" fill="#B4A7E5" rx="11" ry="11" style="stroke: #A80036; stroke-width: 1.0;"/><path d="M856.9219,283.7656 L856.9219,281.6094 L864.3125,281.6094 L864.3125,283.7656 L861.8438,283.7656 L861.8438,291.8438 L864.3125,291.8438 L864.3125,294 L856.9219,294 L856.9219,291.8438 L859.3906,291.8438 L859.3906,283.7656 L856.9219,283.7656 Z "/><text fill="#000000" font-family="sans-serif" font-size="12" font-style="italic" lengthAdjust="spacingAndGlyphs" textLength="106" x="875" y="292.1543">QuackObservable</text><line style="stroke: #A80036; stroke-width: 1.5;" x1="847" x2="983" y1="304" y2="304"/><line style="stroke: #A80036; stroke-width: 1.5;" x1="847" x2="983" y1="312" y2="312"/><!--MD5=[9cffa5100e75be9ac461e6576e411fb6]
class pattern_OF_Patterns.Quackable--><rect codeLine="19" fill="#FEFECE" filter="url(#f1qx1qt32pyan)" height="48" id="pattern_OF_Patterns.Quackable" style="stroke: #A80036; stroke-width: 1.5;" width="97" x="699.5" y="149"/><ellipse cx="714.5" cy="165" fill="#B4A7E5" rx="11" ry="11" style="stroke: #A80036; stroke-width: 1.0;"/><path d="M710.4219,160.7656 L710.4219,158.6094 L717.8125,158.6094 L717.8125,160.7656 L715.3438,160.7656 L715.3438,168.8438 L717.8125,168.8438 L717.8125,171 L710.4219,171 L710.4219,168.8438 L712.8906,168.8438 L712.8906,160.7656 L710.4219,160.7656 Z "/><text fill="#000000" font-family="sans-serif" font-size="12" font-style="italic" lengthAdjust="spacingAndGlyphs" textLength="65" x="728.5" y="169.1543">Quackable</text><line style="stroke: #A80036; stroke-width: 1.5;" x1="700.5" x2="795.5" y1="181" y2="181"/><line style="stroke: #A80036; stroke-width: 1.5;" x1="700.5" x2="795.5" y1="189" y2="189"/><!--MD5=[3c78a2fa643d9223b1f8ad930e883961]
class java.lang.Override--><rect codeLine="2" fill="#FEFECE" filter="url(#f1qx1qt32pyan)" height="48" id="java.lang.Override" style="stroke: #A80036; stroke-width: 1.5;" width="84" x="1784" y="149"/><ellipse cx="1799" cy="165" fill="#E3664A" rx="11" ry="11" style="stroke: #A80036; stroke-width: 1.0;"/><path d="M1801.0781,165.4688 Q1801.0781,164.5313 1800.6563,164 Q1800.2344,163.4688 1799.4844,163.4688 Q1798.75,163.4688 1798.3281,164 Q1797.9219,164.5313 1797.9219,165.4688 Q1797.9219,166.4219 1798.3281,166.9531 Q1798.75,167.4844 1799.4844,167.4844 Q1800.2344,167.4844 1800.6563,166.9531 Q1801.0781,166.4219 1801.0781,165.4688 Z M1802.625,168.875 L1801,168.875 L1801,168.2031 Q1800.6719,168.6406 1800.25,168.8438 Q1799.8281,169.0469 1799.2188,169.0469 Q1797.8594,169.0469 1797.0313,168.0781 Q1796.2031,167.0938 1796.2031,165.4688 Q1796.2031,163.875 1797.0313,162.9063 Q1797.8594,161.9219 1799.2188,161.9219 Q1799.8125,161.9219 1800.2656,162.125 Q1800.7188,162.3281 1801,162.7188 L1801,162.375 Q1801,161.25 1800.375,160.6406 Q1799.75,160.0156 1798.6094,160.0156 Q1796.8906,160.0156 1795.7969,161.5469 Q1794.7031,163.0625 1794.7031,165.5 Q1794.7031,168.0469 1795.9531,169.5469 Q1797.2188,171.0469 1799.3281,171.0469 Q1799.9844,171.0469 1800.6094,170.8594 Q1801.2344,170.6719 1801.8125,170.2813 L1802.5781,171.7344 Q1801.9063,172.1875 1801.1094,172.4063 Q1800.3125,172.6406 1799.4063,172.6406 Q1796.5,172.6406 1794.7656,170.7031 Q1793.0469,168.7813 1793.0469,165.5 Q1793.0469,162.2813 1794.5938,160.3594 Q1796.1563,158.4219 1798.7188,158.4219 Q1800.5156,158.4219 1801.5625,159.5156 Q1802.625,160.6094 1802.625,162.4844 L1802.625,168.875 Z "/><text fill="#000000" font-family="sans-serif" font-size="12" lengthAdjust="spacingAndGlyphs" textLength="52" x="1813" y="169.1543">Override</text><line style="stroke: #A80036; stroke-width: 1.5;" x1="1785" x2="1867" y1="181" y2="181"/><line style="stroke: #A80036; stroke-width: 1.5;" x1="1785" x2="1867" y1="189" y2="189"/><!--MD5=[8479184e23c2bec09445fccfd361f5d2]
class java.util.ArrayList--><rect codeLine="3" fill="#FEFECE" filter="url(#f1qx1qt32pyan)" height="48" id="java.util.ArrayList" style="stroke: #A80036; stroke-width: 1.5;" width="85" x="1831.5" y="272"/><ellipse cx="1846.5" cy="288" fill="#ADD1B2" rx="11" ry="11" style="stroke: #A80036; stroke-width: 1.0;"/><path d="M1849.4688,293.6406 Q1848.8906,293.9375 1848.25,294.0781 Q1847.6094,294.2344 1846.9063,294.2344 Q1844.4063,294.2344 1843.0781,292.5938 Q1841.7656,290.9375 1841.7656,287.8125 Q1841.7656,284.6875 1843.0781,283.0313 Q1844.4063,281.375 1846.9063,281.375 Q1847.6094,281.375 1848.25,281.5313 Q1848.9063,281.6875 1849.4688,281.9844 L1849.4688,284.7031 Q1848.8438,284.125 1848.25,283.8594 Q1847.6563,283.5781 1847.0313,283.5781 Q1845.6875,283.5781 1845,284.6563 Q1844.3125,285.7188 1844.3125,287.8125 Q1844.3125,289.9063 1845,290.9844 Q1845.6875,292.0469 1847.0313,292.0469 Q1847.6563,292.0469 1848.25,291.7813 Q1848.8438,291.5 1849.4688,290.9219 L1849.4688,293.6406 Z "/><text fill="#000000" font-family="sans-serif" font-size="12" lengthAdjust="spacingAndGlyphs" textLength="53" x="1860.5" y="292.1543">ArrayList</text><line style="stroke: #A80036; stroke-width: 1.5;" x1="1832.5" x2="1915.5" y1="304" y2="304"/><line style="stroke: #A80036; stroke-width: 1.5;" x1="1832.5" x2="1915.5" y1="312" y2="312"/><!--MD5=[6de95fc766e8f39bf0bb73d99c84c86c]
link pattern_OF_Patterns.CountingDuckFactory to pattern_OF_Patterns.AbstractDuckFactory--><path codeLine="20" d="M1527.34,89 C1516.93,101.83 1503.68,118.16 1491.7,132.93 " fill="none" id="pattern_OF_Patterns.CountingDuckFactory-to-pattern_OF_Patterns.AbstractDuckFactory" style="stroke: #A80036; stroke-width: 1.0;"/><polygon fill="none" points="1496.96,137.56,1478.92,148.68,1486.09,128.74,1496.96,137.56" style="stroke: #A80036; stroke-width: 1.0;"/><!--MD5=[bd47b1fb694c740b3ff69006271a4246]
link pattern_OF_Patterns.CountingDuckFactory to java.lang.Override--><path codeLine="21" d="M1628.6,85.37 C1634.48,86.63 1640.32,87.86 1646,89 C1689.33,97.74 1703.72,87.78 1744,106 C1764.88,115.44 1784.97,131.47 1800.04,145.36 " fill="none" id="pattern_OF_Patterns.CountingDuckFactory-to-java.lang.Override" style="stroke: #A80036; stroke-width: 1.0; stroke-dasharray: 7.0,7.0;"/><polygon fill="#A80036" points="1803.77,148.84,1799.9387,139.7669,1800.1219,145.4208,1794.468,145.6039,1803.77,148.84" style="stroke: #A80036; stroke-width: 1.0;"/><!--MD5=[ba82061d2c6bdcfb58499ae0a120d96f]
link pattern_OF_Patterns.DuckCall to pattern_OF_Patterns.Quackable--><path codeLine="22" d="M423.75,82.99 C429.51,85.11 435.38,87.17 441,89 C522.18,115.46 617.31,140.24 679.91,155.71 " fill="none" id="pattern_OF_Patterns.DuckCall-to-pattern_OF_Patterns.Quackable" style="stroke: #A80036; stroke-width: 1.0;"/><polygon fill="none" points="681.67,148.94,699.43,160.5,678.34,162.53,681.67,148.94" style="stroke: #A80036; stroke-width: 1.0;"/><!--MD5=[6ac2ce43ceff3f40f9e1633921afdf0f]
link pattern_OF_Patterns.DuckFactory to pattern_OF_Patterns.AbstractDuckFactory--><path codeLine="23" d="M1392.66,89 C1403.07,101.83 1416.32,118.16 1428.3,132.93 " fill="none" id="pattern_OF_Patterns.DuckFactory-to-pattern_OF_Patterns.AbstractDuckFactory" style="stroke: #A80036; stroke-width: 1.0;"/><polygon fill="none" points="1433.91,128.74,1441.08,148.68,1423.04,137.56,1433.91,128.74" style="stroke: #A80036; stroke-width: 1.0;"/><!--MD5=[809271bd413d8255122409b4fd1fc378]
link pattern_OF_Patterns.DuckFactory to java.lang.Override--><path codeLine="24" d="M1428.67,85.03 C1434.47,86.58 1440.32,87.95 1446,89 C1511.22,101.08 1682.1,82.18 1744,106 C1765.85,114.41 1786.38,130.94 1801.42,145.35 " fill="none" id="pattern_OF_Patterns.DuckFactory-to-java.lang.Override" style="stroke: #A80036; stroke-width: 1.0; stroke-dasharray: 7.0,7.0;"/><polygon fill="#A80036" points="1805.13,148.96,1801.4831,139.8112,1801.5518,145.4677,1795.8954,145.5364,1805.13,148.96" style="stroke: #A80036; stroke-width: 1.0;"/><!--MD5=[6fbd71a77679b95d1edfe4df605f6415]
link pattern_OF_Patterns.Flock to java.util.ArrayList--><path codeLine="25" d="M1728.06,68.08 C1776.49,71.97 1864.73,82.2 1884,106 C1921.25,152.01 1901.11,226.88 1885.92,267.19 " fill="none" id="pattern_OF_Patterns.Flock-to-java.util.ArrayList" style="stroke: #A80036; stroke-width: 1.0; stroke-dasharray: 7.0,7.0;"/><polygon fill="#A80036" points="1884.09,271.93,1891.0399,264.9515,1885.8753,267.2596,1883.5673,262.095,1884.09,271.93" style="stroke: #A80036; stroke-width: 1.0;"/><!--MD5=[4e7aa676be8250b5d881ded7cc0a248a]
link pattern_OF_Patterns.Flock to pattern_OF_Patterns.Quackable--><path codeLine="26" d="M1663.86,83.06 C1658.06,85.48 1651.96,87.61 1646,89 C1511.56,120.37 1161.88,88.02 1025,106 C952.75,115.49 871.87,135.93 816.25,151.57 " fill="none" id="pattern_OF_Patterns.Flock-to-pattern_OF_Patterns.Quackable" style="stroke: #A80036; stroke-width: 1.0;"/><polygon fill="none" points="818.12,158.32,796.96,157.08,814.27,144.86,818.12,158.32" style="stroke: #A80036; stroke-width: 1.0;"/><!--MD5=[a8450a64b72ed3d1faa3ad17652990bf]
link pattern_OF_Patterns.GooseAdapter to pattern_OF_Patterns.Quackable--><path codeLine="27" d="M303.09,84.38 C309.12,86.02 315.17,87.59 321,89 C446.48,119.39 594.79,146.21 679.48,160.67 " fill="none" id="pattern_OF_Patterns.GooseAdapter-to-pattern_OF_Patterns.Quackable" style="stroke: #A80036; stroke-width: 1.0;"/><polygon fill="none" points="680.79,153.79,699.34,164.03,678.45,167.59,680.79,153.79" style="stroke: #A80036; stroke-width: 1.0;"/><!--MD5=[d18ab3b7f0227e982723da11f07f3ea1]
link pattern_OF_Patterns.MallardDuck to pattern_OF_Patterns.Quackable--><path codeLine="28" d="M806.73,89 C797.84,101.55 786.59,117.46 776.32,131.97 " fill="none" id="pattern_OF_Patterns.MallardDuck-to-pattern_OF_Patterns.Quackable" style="stroke: #A80036; stroke-width: 1.0;"/><polygon fill="none" points="781.77,136.4,764.5,148.68,770.34,128.31,781.77,136.4" style="stroke: #A80036; stroke-width: 1.0;"/><!--MD5=[b664591c9d4b56269e36e4cda2bd3296]
link pattern_OF_Patterns.Observable to java.util.ArrayList--><path codeLine="29" d="M1145.36,185.46 C1198.89,196.83 1285.35,213.6 1361,221 C1403.36,225.15 1702.71,218.66 1744,229 C1776.36,237.1 1809.86,254.36 1834.74,269.19 " fill="none" id="pattern_OF_Patterns.Observable-to-java.util.ArrayList" style="stroke: #A80036; stroke-width: 1.0; stroke-dasharray: 7.0,7.0;"/><polygon fill="#A80036" points="1839.29,271.93,1833.6503,263.8557,1835.0088,269.347,1829.5175,270.7056,1839.29,271.93" style="stroke: #A80036; stroke-width: 1.0;"/><!--MD5=[58577911059c407d877c59027ae2e16d]
link pattern_OF_Patterns.Observable to pattern_OF_Patterns.QuackObservable--><path codeLine="30" d="M1059.91,197.04 C1033.37,214.98 996.11,240.17 966.02,260.51 " fill="none" id="pattern_OF_Patterns.Observable-to-pattern_OF_Patterns.QuackObservable" style="stroke: #A80036; stroke-width: 1.0;"/><polygon fill="none" points="969.76,266.43,949.27,271.84,961.92,254.84,969.76,266.43" style="stroke: #A80036; stroke-width: 1.0;"/><!--MD5=[b4a774a20097bcd2b1bd7b6f88546c79]
link pattern_OF_Patterns.QuackCounter to pattern_OF_Patterns.Quackable--><path codeLine="31" d="M689.27,89 C698.16,101.55 709.41,117.46 719.68,131.97 " fill="none" id="pattern_OF_Patterns.QuackCounter-to-pattern_OF_Patterns.Quackable" style="stroke: #A80036; stroke-width: 1.0;"/><polygon fill="none" points="725.66,128.31,731.5,148.68,714.23,136.4,725.66,128.31" style="stroke: #A80036; stroke-width: 1.0;"/><!--MD5=[dbf1c52808456f875d318093590f3d92]
link pattern_OF_Patterns.Quackologist to pattern_OF_Patterns.Observer--><path codeLine="32" d="M89,89 C89,100.59 89,115.03 89,128.6 " fill="none" id="pattern_OF_Patterns.Quackologist-to-pattern_OF_Patterns.Observer" style="stroke: #A80036; stroke-width: 1.0;"/><polygon fill="none" points="96,128.68,89,148.68,82,128.68,96,128.68" style="stroke: #A80036; stroke-width: 1.0;"/><!--MD5=[1055ebfdffba12a1544b459ad881ad94]
link pattern_OF_Patterns.RedheadDuck to pattern_OF_Patterns.Quackable--><path codeLine="33" d="M567.91,89 C600.94,104.23 644.67,124.38 680.76,141.01 " fill="none" id="pattern_OF_Patterns.RedheadDuck-to-pattern_OF_Patterns.Quackable" style="stroke: #A80036; stroke-width: 1.0;"/><polygon fill="none" points="684.14,134.86,699.37,149.59,678.28,147.58,684.14,134.86" style="stroke: #A80036; stroke-width: 1.0;"/><!--MD5=[0e0ec79fa136321d0769f7daef752d8b]
link pattern_OF_Patterns.RubberDuck to pattern_OF_Patterns.Quackable--><path codeLine="34" d="M1018.97,83.62 C963.26,101.79 876.26,130.17 815.93,149.84 " fill="none" id="pattern_OF_Patterns.RubberDuck-to-pattern_OF_Patterns.Quackable" style="stroke: #A80036; stroke-width: 1.0;"/><polygon fill="none" points="817.77,156.61,796.58,156.16,813.42,143.3,817.77,156.61" style="stroke: #A80036; stroke-width: 1.0;"/><!--MD5=[94c15ed6384d736776a5a14b57cd0257]
link pattern_OF_Patterns.Quackable to pattern_OF_Patterns.QuackObservable--><path codeLine="35" d="M779.8,197.04 C804.33,214.82 838.68,239.7 866.61,259.94 " fill="none" id="pattern_OF_Patterns.Quackable-to-pattern_OF_Patterns.QuackObservable" style="stroke: #A80036; stroke-width: 1.0;"/><polygon fill="none" points="870.94,254.43,883.03,271.84,862.73,265.77,870.94,254.43" style="stroke: #A80036; stroke-width: 1.0;"/><!--MD5=[4579a331455a08567cb8f6907ac846aa]
@startuml
abstract class pattern_OF_Patterns.AbstractDuckFactory
annotation java.lang.Override
class java.util.ArrayList
class pattern_OF_Patterns.CountingDuckFactory
class pattern_OF_Patterns.DuckCall
class pattern_OF_Patterns.DuckFactory
class pattern_OF_Patterns.DuckSimulator
class pattern_OF_Patterns.Flock
class pattern_OF_Patterns.Goose
class pattern_OF_Patterns.GooseAdapter
class pattern_OF_Patterns.MallardDuck
class pattern_OF_Patterns.Observable
class pattern_OF_Patterns.QuackCounter
class pattern_OF_Patterns.Quackologist
class pattern_OF_Patterns.RedheadDuck
class pattern_OF_Patterns.RubberDuck
interface pattern_OF_Patterns.Observer
interface pattern_OF_Patterns.QuackObservable
interface pattern_OF_Patterns.Quackable
pattern_OF_Patterns.CountingDuckFactory - -|> pattern_OF_Patterns.AbstractDuckFactory
pattern_OF_Patterns.CountingDuckFactory ..> java.lang.Override
pattern_OF_Patterns.DuckCall - -|> pattern_OF_Patterns.Quackable
pattern_OF_Patterns.DuckFactory - -|> pattern_OF_Patterns.AbstractDuckFactory
pattern_OF_Patterns.DuckFactory ..> java.lang.Override
pattern_OF_Patterns.Flock ..> java.util.ArrayList
pattern_OF_Patterns.Flock - -|> pattern_OF_Patterns.Quackable
pattern_OF_Patterns.GooseAdapter - -|> pattern_OF_Patterns.Quackable
pattern_OF_Patterns.MallardDuck - -|> pattern_OF_Patterns.Quackable
pattern_OF_Patterns.Observable ..> java.util.ArrayList
pattern_OF_Patterns.Observable - -|> pattern_OF_Patterns.QuackObservable
pattern_OF_Patterns.QuackCounter - -|> pattern_OF_Patterns.Quackable
pattern_OF_Patterns.Quackologist - -|> pattern_OF_Patterns.Observer
pattern_OF_Patterns.RedheadDuck - -|> pattern_OF_Patterns.Quackable
pattern_OF_Patterns.RubberDuck - -|> pattern_OF_Patterns.Quackable
pattern_OF_Patterns.Quackable - -|> pattern_OF_Patterns.QuackObservable
@enduml

PlantUML version 1.2020.18(Wed Sep 30 22:40:44 EEST 2020)
(GPL source distribution)
Java Runtime: OpenJDK Runtime Environment
JVM: OpenJDK 64-Bit Server VM
Default Encoding: UTF-8
Language: en
Country: US
--></g></svg>