<?xml version="1.0" encoding="UTF-8" standalone="no"?><svg xmlns="http://www.w3.org/2000/svg" xmlns:xlink="http://www.w3.org/1999/xlink" contentScriptType="application/ecmascript" contentStyleType="text/css" height="220px" preserveAspectRatio="none" style="width:901px;height:220px;" version="1.1" viewBox="0 0 901 220" width="901px" zoomAndPan="magnify"><defs><filter height="300%" id="f6mbdm4v5c8bg" width="300%" x="-1" y="-1"><feGaussianBlur result="blurOut" stdDeviation="2.0"/><feColorMatrix in="blurOut" result="blurOut2" type="matrix" values="0 0 0 0 0 0 0 0 0 0 0 0 0 0 0 0 0 0 .4 0"/><feOffset dx="4.0" dy="4.0" in="blurOut2" result="blurOut3"/><feBlend in="SourceGraphic" in2="blurOut3" mode="normal"/></filter></defs><g><!--MD5=[aa8f7b917213fcc1c2766e2d59b49067]
cluster java.lang--><polygon fill="#FFFFFF" filter="url(#f6mbdm4v5c8bg)" points="768,114,843,114,850,136.2969,884,136.2969,884,213,768,213,768,114" style="stroke: #000000; stroke-width: 1.5;"/><line style="stroke: #000000; stroke-width: 1.5;" x1="768" x2="850" y1="136.2969" y2="136.2969"/><text fill="#000000" font-family="sans-serif" font-size="14" font-weight="bold" lengthAdjust="spacingAndGlyphs" textLength="69" x="772" y="128.9951">java.lang</text><!--MD5=[cb643d2e99e3f88089b3a75eeb15303b]
cluster command--><polygon fill="#FFFFFF" filter="url(#f6mbdm4v5c8bg)" points="16,6,98,6,105,28.2969,744,28.2969,744,213,16,213,16,6" style="stroke: #000000; stroke-width: 1.5;"/><line style="stroke: #000000; stroke-width: 1.5;" x1="16" x2="105" y1="28.2969" y2="28.2969"/><text fill="#000000" font-family="sans-serif" font-size="14" font-weight="bold" lengthAdjust="spacingAndGlyphs" textLength="76" x="20" y="20.9951">command</text><!--MD5=[3c78a2fa643d9223b1f8ad930e883961]
class java.lang.Override--><rect codeLine="1" fill="#FEFECE" filter="url(#f6mbdm4v5c8bg)" height="48" id="java.lang.Override" style="stroke: #A80036; stroke-width: 1.5;" width="84" x="784" y="149"/><ellipse cx="799" cy="165" fill="#E3664A" rx="11" ry="11" style="stroke: #A80036; stroke-width: 1.0;"/><path d="M801.0781,165.4688 Q801.0781,164.5313 800.6563,164 Q800.2344,163.4688 799.4844,163.4688 Q798.75,163.4688 798.3281,164 Q797.9219,164.5313 797.9219,165.4688 Q797.9219,166.4219 798.3281,166.9531 Q798.75,167.4844 799.4844,167.4844 Q800.2344,167.4844 800.6563,166.9531 Q801.0781,166.4219 801.0781,165.4688 Z M802.625,168.875 L801,168.875 L801,168.2031 Q800.6719,168.6406 800.25,168.8438 Q799.8281,169.0469 799.2188,169.0469 Q797.8594,169.0469 797.0313,168.0781 Q796.2031,167.0938 796.2031,165.4688 Q796.2031,163.875 797.0313,162.9063 Q797.8594,161.9219 799.2188,161.9219 Q799.8125,161.9219 800.2656,162.125 Q800.7188,162.3281 801,162.7188 L801,162.375 Q801,161.25 800.375,160.6406 Q799.75,160.0156 798.6094,160.0156 Q796.8906,160.0156 795.7969,161.5469 Q794.7031,163.0625 794.7031,165.5 Q794.7031,168.0469 795.9531,169.5469 Q797.2188,171.0469 799.3281,171.0469 Q799.9844,171.0469 800.6094,170.8594 Q801.2344,170.6719 801.8125,170.2813 L802.5781,171.7344 Q801.9063,172.1875 801.1094,172.4063 Q800.3125,172.6406 799.4063,172.6406 Q796.5,172.6406 794.7656,170.7031 Q793.0469,168.7813 793.0469,165.5 Q793.0469,162.2813 794.5938,160.3594 Q796.1563,158.4219 798.7188,158.4219 Q800.5156,158.4219 801.5625,159.5156 Q802.625,160.6094 802.625,162.4844 L802.625,168.875 Z "/><text fill="#000000" font-family="sans-serif" font-size="12" lengthAdjust="spacingAndGlyphs" textLength="52" x="813" y="169.1543">Override</text><line style="stroke: #A80036; stroke-width: 1.5;" x1="785" x2="867" y1="181" y2="181"/><line style="stroke: #A80036; stroke-width: 1.5;" x1="785" x2="867" y1="189" y2="189"/><!--MD5=[4500231ddcf245600450500081b965c5]
class command.Executor--><rect codeLine="2" fill="#FEFECE" filter="url(#f6mbdm4v5c8bg)" height="48" id="command.Executor" style="stroke: #A80036; stroke-width: 1.5;" width="87" x="32.5" y="41"/><ellipse cx="47.5" cy="57" fill="#ADD1B2" rx="11" ry="11" style="stroke: #A80036; stroke-width: 1.0;"/><path d="M50.4688,62.6406 Q49.8906,62.9375 49.25,63.0781 Q48.6094,63.2344 47.9063,63.2344 Q45.4063,63.2344 44.0781,61.5938 Q42.7656,59.9375 42.7656,56.8125 Q42.7656,53.6875 44.0781,52.0313 Q45.4063,50.375 47.9063,50.375 Q48.6094,50.375 49.25,50.5313 Q49.9063,50.6875 50.4688,50.9844 L50.4688,53.7031 Q49.8438,53.125 49.25,52.8594 Q48.6563,52.5781 48.0313,52.5781 Q46.6875,52.5781 46,53.6563 Q45.3125,54.7188 45.3125,56.8125 Q45.3125,58.9063 46,59.9844 Q46.6875,61.0469 48.0313,61.0469 Q48.6563,61.0469 49.25,60.7813 Q49.8438,60.5 50.4688,59.9219 L50.4688,62.6406 Z "/><text fill="#000000" font-family="sans-serif" font-size="12" lengthAdjust="spacingAndGlyphs" textLength="55" x="61.5" y="61.1543">Executor</text><line style="stroke: #A80036; stroke-width: 1.5;" x1="33.5" x2="118.5" y1="73" y2="73"/><line style="stroke: #A80036; stroke-width: 1.5;" x1="33.5" x2="118.5" y1="81" y2="81"/><!--MD5=[9a0b01fbbacce46bdb574c9045fcd39d]
class command.MediaPlayer--><rect codeLine="3" fill="#FEFECE" filter="url(#f6mbdm4v5c8bg)" height="48" id="command.MediaPlayer" style="stroke: #A80036; stroke-width: 1.5;" width="107" x="154.5" y="41"/><ellipse cx="169.5" cy="57" fill="#ADD1B2" rx="11" ry="11" style="stroke: #A80036; stroke-width: 1.0;"/><path d="M172.4688,62.6406 Q171.8906,62.9375 171.25,63.0781 Q170.6094,63.2344 169.9063,63.2344 Q167.4063,63.2344 166.0781,61.5938 Q164.7656,59.9375 164.7656,56.8125 Q164.7656,53.6875 166.0781,52.0313 Q167.4063,50.375 169.9063,50.375 Q170.6094,50.375 171.25,50.5313 Q171.9063,50.6875 172.4688,50.9844 L172.4688,53.7031 Q171.8438,53.125 171.25,52.8594 Q170.6563,52.5781 170.0313,52.5781 Q168.6875,52.5781 168,53.6563 Q167.3125,54.7188 167.3125,56.8125 Q167.3125,58.9063 168,59.9844 Q168.6875,61.0469 170.0313,61.0469 Q170.6563,61.0469 171.25,60.7813 Q171.8438,60.5 172.4688,59.9219 L172.4688,62.6406 Z "/><text fill="#000000" font-family="sans-serif" font-size="12" lengthAdjust="spacingAndGlyphs" textLength="75" x="183.5" y="61.1543">MediaPlayer</text><line style="stroke: #A80036; stroke-width: 1.5;" x1="155.5" x2="260.5" y1="73" y2="73"/><line style="stroke: #A80036; stroke-width: 1.5;" x1="155.5" x2="260.5" y1="81" y2="81"/><!--MD5=[111e0a478ad7e2b0129543d2eea7c318]
class command.Receiver--><rect codeLine="4" fill="#FEFECE" filter="url(#f6mbdm4v5c8bg)" height="48" id="command.Receiver" style="stroke: #A80036; stroke-width: 1.5;" width="85" x="296.5" y="41"/><ellipse cx="311.5" cy="57" fill="#ADD1B2" rx="11" ry="11" style="stroke: #A80036; stroke-width: 1.0;"/><path d="M314.4688,62.6406 Q313.8906,62.9375 313.25,63.0781 Q312.6094,63.2344 311.9063,63.2344 Q309.4063,63.2344 308.0781,61.5938 Q306.7656,59.9375 306.7656,56.8125 Q306.7656,53.6875 308.0781,52.0313 Q309.4063,50.375 311.9063,50.375 Q312.6094,50.375 313.25,50.5313 Q313.9063,50.6875 314.4688,50.9844 L314.4688,53.7031 Q313.8438,53.125 313.25,52.8594 Q312.6563,52.5781 312.0313,52.5781 Q310.6875,52.5781 310,53.6563 Q309.3125,54.7188 309.3125,56.8125 Q309.3125,58.9063 310,59.9844 Q310.6875,61.0469 312.0313,61.0469 Q312.6563,61.0469 313.25,60.7813 Q313.8438,60.5 314.4688,59.9219 L314.4688,62.6406 Z "/><text fill="#000000" font-family="sans-serif" font-size="12" lengthAdjust="spacingAndGlyphs" textLength="53" x="325.5" y="61.1543">Receiver</text><line style="stroke: #A80036; stroke-width: 1.5;" x1="297.5" x2="380.5" y1="73" y2="73"/><line style="stroke: #A80036; stroke-width: 1.5;" x1="297.5" x2="380.5" y1="81" y2="81"/><!--MD5=[92411e1e2760043f40af8bcb007d841c]
class command.RemoteControl--><rect codeLine="5" fill="#FEFECE" filter="url(#f6mbdm4v5c8bg)" height="48" id="command.RemoteControl" style="stroke: #A80036; stroke-width: 1.5;" width="125" x="32.5" y="149"/><ellipse cx="47.5" cy="165" fill="#ADD1B2" rx="11" ry="11" style="stroke: #A80036; stroke-width: 1.0;"/><path d="M50.4688,170.6406 Q49.8906,170.9375 49.25,171.0781 Q48.6094,171.2344 47.9063,171.2344 Q45.4063,171.2344 44.0781,169.5938 Q42.7656,167.9375 42.7656,164.8125 Q42.7656,161.6875 44.0781,160.0313 Q45.4063,158.375 47.9063,158.375 Q48.6094,158.375 49.25,158.5313 Q49.9063,158.6875 50.4688,158.9844 L50.4688,161.7031 Q49.8438,161.125 49.25,160.8594 Q48.6563,160.5781 48.0313,160.5781 Q46.6875,160.5781 46,161.6563 Q45.3125,162.7188 45.3125,164.8125 Q45.3125,166.9063 46,167.9844 Q46.6875,169.0469 48.0313,169.0469 Q48.6563,169.0469 49.25,168.7813 Q49.8438,168.5 50.4688,167.9219 L50.4688,170.6406 Z "/><text fill="#000000" font-family="sans-serif" font-size="12" lengthAdjust="spacingAndGlyphs" textLength="93" x="61.5" y="169.1543">RemoteControl</text><line style="stroke: #A80036; stroke-width: 1.5;" x1="33.5" x2="156.5" y1="181" y2="181"/><line style="stroke: #A80036; stroke-width: 1.5;" x1="33.5" x2="156.5" y1="189" y2="189"/><!--MD5=[423675cdfef81d542484bf786d52b057]
class command.Television--><rect codeLine="6" fill="#FEFECE" filter="url(#f6mbdm4v5c8bg)" height="48" id="command.Television" style="stroke: #A80036; stroke-width: 1.5;" width="93" x="192.5" y="149"/><ellipse cx="207.5" cy="165" fill="#ADD1B2" rx="11" ry="11" style="stroke: #A80036; stroke-width: 1.0;"/><path d="M210.4688,170.6406 Q209.8906,170.9375 209.25,171.0781 Q208.6094,171.2344 207.9063,171.2344 Q205.4063,171.2344 204.0781,169.5938 Q202.7656,167.9375 202.7656,164.8125 Q202.7656,161.6875 204.0781,160.0313 Q205.4063,158.375 207.9063,158.375 Q208.6094,158.375 209.25,158.5313 Q209.9063,158.6875 210.4688,158.9844 L210.4688,161.7031 Q209.8438,161.125 209.25,160.8594 Q208.6563,160.5781 208.0313,160.5781 Q206.6875,160.5781 206,161.6563 Q205.3125,162.7188 205.3125,164.8125 Q205.3125,166.9063 206,167.9844 Q206.6875,169.0469 208.0313,169.0469 Q208.6563,169.0469 209.25,168.7813 Q209.8438,168.5 210.4688,167.9219 L210.4688,170.6406 Z "/><text fill="#000000" font-family="sans-serif" font-size="12" lengthAdjust="spacingAndGlyphs" textLength="61" x="221.5" y="169.1543">Television</text><line style="stroke: #A80036; stroke-width: 1.5;" x1="193.5" x2="284.5" y1="181" y2="181"/><line style="stroke: #A80036; stroke-width: 1.5;" x1="193.5" x2="284.5" y1="189" y2="189"/><!--MD5=[d0d4e7cb836e2855078a16bb9585cf91]
class command.TurnOffTelevision--><rect codeLine="7" fill="#FEFECE" filter="url(#f6mbdm4v5c8bg)" height="48" id="command.TurnOffTelevision" style="stroke: #A80036; stroke-width: 1.5;" width="138" x="417" y="41"/><ellipse cx="432" cy="57" fill="#ADD1B2" rx="11" ry="11" style="stroke: #A80036; stroke-width: 1.0;"/><path d="M434.9688,62.6406 Q434.3906,62.9375 433.75,63.0781 Q433.1094,63.2344 432.4063,63.2344 Q429.9063,63.2344 428.5781,61.5938 Q427.2656,59.9375 427.2656,56.8125 Q427.2656,53.6875 428.5781,52.0313 Q429.9063,50.375 432.4063,50.375 Q433.1094,50.375 433.75,50.5313 Q434.4063,50.6875 434.9688,50.9844 L434.9688,53.7031 Q434.3438,53.125 433.75,52.8594 Q433.1563,52.5781 432.5313,52.5781 Q431.1875,52.5781 430.5,53.6563 Q429.8125,54.7188 429.8125,56.8125 Q429.8125,58.9063 430.5,59.9844 Q431.1875,61.0469 432.5313,61.0469 Q433.1563,61.0469 433.75,60.7813 Q434.3438,60.5 434.9688,59.9219 L434.9688,62.6406 Z "/><text fill="#000000" font-family="sans-serif" font-size="12" lengthAdjust="spacingAndGlyphs" textLength="106" x="446" y="61.1543">TurnOffTelevision</text><line style="stroke: #A80036; stroke-width: 1.5;" x1="418" x2="554" y1="73" y2="73"/><line style="stroke: #A80036; stroke-width: 1.5;" x1="418" x2="554" y1="81" y2="81"/><!--MD5=[117702d630bf1d55c23b1d2cdbacc914]
class command.TurnOnTelevision--><rect codeLine="8" fill="#FEFECE" filter="url(#f6mbdm4v5c8bg)" height="48" id="command.TurnOnTelevision" style="stroke: #A80036; stroke-width: 1.5;" width="138" x="590" y="41"/><ellipse cx="605" cy="57" fill="#ADD1B2" rx="11" ry="11" style="stroke: #A80036; stroke-width: 1.0;"/><path d="M607.9688,62.6406 Q607.3906,62.9375 606.75,63.0781 Q606.1094,63.2344 605.4063,63.2344 Q602.9063,63.2344 601.5781,61.5938 Q600.2656,59.9375 600.2656,56.8125 Q600.2656,53.6875 601.5781,52.0313 Q602.9063,50.375 605.4063,50.375 Q606.1094,50.375 606.75,50.5313 Q607.4063,50.6875 607.9688,50.9844 L607.9688,53.7031 Q607.3438,53.125 606.75,52.8594 Q606.1563,52.5781 605.5313,52.5781 Q604.1875,52.5781 603.5,53.6563 Q602.8125,54.7188 602.8125,56.8125 Q602.8125,58.9063 603.5,59.9844 Q604.1875,61.0469 605.5313,61.0469 Q606.1563,61.0469 606.75,60.7813 Q607.3438,60.5 607.9688,59.9219 L607.9688,62.6406 Z "/><text fill="#000000" font-family="sans-serif" font-size="12" lengthAdjust="spacingAndGlyphs" textLength="106" x="619" y="61.1543">TurnOnTelevision</text><line style="stroke: #A80036; stroke-width: 1.5;" x1="591" x2="727" y1="73" y2="73"/><line style="stroke: #A80036; stroke-width: 1.5;" x1="591" x2="727" y1="81" y2="81"/><!--MD5=[fc7e448ad9886b98c370019ffbe0f8d9]
class command.Command--><rect codeLine="9" fill="#FEFECE" filter="url(#f6mbdm4v5c8bg)" height="48" id="command.Command" style="stroke: #A80036; stroke-width: 1.5;" width="94" x="525" y="149"/><ellipse cx="540" cy="165" fill="#B4A7E5" rx="11" ry="11" style="stroke: #A80036; stroke-width: 1.0;"/><path d="M535.9219,160.7656 L535.9219,158.6094 L543.3125,158.6094 L543.3125,160.7656 L540.8438,160.7656 L540.8438,168.8438 L543.3125,168.8438 L543.3125,171 L535.9219,171 L535.9219,168.8438 L538.3906,168.8438 L538.3906,160.7656 L535.9219,160.7656 Z "/><text fill="#000000" font-family="sans-serif" font-size="12" font-style="italic" lengthAdjust="spacingAndGlyphs" textLength="62" x="554" y="169.1543">Command</text><line style="stroke: #A80036; stroke-width: 1.5;" x1="526" x2="618" y1="181" y2="181"/><line style="stroke: #A80036; stroke-width: 1.5;" x1="526" x2="618" y1="189" y2="189"/><!--MD5=[342bf4c60c519a00662d04809525ff27]
link command.TurnOffTelevision to java.lang.Override--><path codeLine="10" d="M555.25,85.56 C560.89,86.83 566.53,88 572,89 C647.58,102.75 672.9,76.93 744,106 C765.52,114.8 785.9,131.15 800.96,145.38 " fill="none" id="command.TurnOffTelevision-to-java.lang.Override" style="stroke: #A80036; stroke-width: 1.0; stroke-dasharray: 7.0,7.0;"/><polygon fill="#A80036" points="804.67,148.94,800.9491,139.821,801.0636,145.4767,795.4079,145.5912,804.67,148.94" style="stroke: #A80036; stroke-width: 1.0;"/><!--MD5=[ae49ab38dfe10b92f61c17302d638f66]
link command.TurnOffTelevision to command.Command--><path codeLine="11" d="M504.66,89 C515.07,101.83 528.32,118.16 540.3,132.93 " fill="none" id="command.TurnOffTelevision-to-command.Command" style="stroke: #A80036; stroke-width: 1.0;"/><polygon fill="none" points="545.91,128.74,553.08,148.68,535.04,137.56,545.91,128.74" style="stroke: #A80036; stroke-width: 1.0;"/><!--MD5=[5cb6a646869e4c2cbf12184161a27ab9]
link command.TurnOnTelevision to java.lang.Override--><path codeLine="12" d="M713.08,89.08 C723.58,94.21 734.32,99.95 744,106 C762.41,117.51 781.4,132.56 796.46,145.38 " fill="none" id="command.TurnOnTelevision-to-java.lang.Override" style="stroke: #A80036; stroke-width: 1.0; stroke-dasharray: 7.0,7.0;"/><polygon fill="#A80036" points="800.6,148.93,796.3506,140.0451,796.7967,145.6843,791.1574,146.1304,800.6,148.93" style="stroke: #A80036; stroke-width: 1.0;"/><!--MD5=[2e02b189090c5ebbfe801310587324ad]
link command.TurnOnTelevision to command.Command--><path codeLine="13" d="M640.12,89 C629.59,101.83 616.19,118.16 604.07,132.93 " fill="none" id="command.TurnOnTelevision-to-command.Command" style="stroke: #A80036; stroke-width: 1.0;"/><polygon fill="none" points="609.24,137.66,591.14,148.68,598.42,128.78,609.24,137.66" style="stroke: #A80036; stroke-width: 1.0;"/><!--MD5=[9618cc5bab60d28981a1e8b2fb50ae9f]
link command.Executor to command.MediaPlayer--><!--MD5=[6cc3340c8388204ed833658d8e9253e9]
link command.MediaPlayer to command.Receiver--><!--MD5=[ec8db995660646a10d3cbfbe99fd436d]
link command.Executor to command.RemoteControl--><!--MD5=[8100d1e5450ea191476c2a7365812812]
link command.RemoteControl to command.Television--><!--MD5=[d3f5694d2c29c491cedca8feb88ad56d]
@startuml
annotation java.lang.Override
class command.Executor
class command.MediaPlayer
class command.Receiver
class command.RemoteControl
class command.Television
class command.TurnOffTelevision
class command.TurnOnTelevision
interface command.Command
command.TurnOffTelevision ..> java.lang.Override
command.TurnOffTelevision - -|> command.Command
command.TurnOnTelevision ..> java.lang.Override
command.TurnOnTelevision - -|> command.Command
@enduml

PlantUML version 1.2020.18(Wed Sep 30 22:40:44 EEST 2020)
(GPL source distribution)
Java Runtime: OpenJDK Runtime Environment
JVM: OpenJDK 64-Bit Server VM
Default Encoding: UTF-8
Language: en
Country: US
--></g></svg>