<?xml version="1.0" encoding="UTF-8" standalone="no"?><svg xmlns="http://www.w3.org/2000/svg" xmlns:xlink="http://www.w3.org/1999/xlink" contentScriptType="application/ecmascript" contentStyleType="text/css" height="540px" preserveAspectRatio="none" style="width:1565px;height:540px;background:#87CEFA;" version="1.1" viewBox="0 0 1565 540" width="1565px" zoomAndPan="magnify"><defs/><g><text fill="#000000" font-family="sans-serif" font-size="18" lengthAdjust="spacingAndGlyphs" textLength="157" x="697.5" y="16.708">command pattern</text><!--MD5=[cb643d2e99e3f88089b3a75eeb15303b]
cluster command--><polygon fill="#87CEFA" points="16,26.9531,98,26.9531,105,49.25,1548,49.25,1548,533.9531,16,533.9531,16,26.9531" style="stroke: #000000; stroke-width: 1.5;"/><line style="stroke: #000000; stroke-width: 1.5;" x1="16" x2="105" y1="49.25" y2="49.25"/><text fill="#000000" font-family="sans-serif" font-size="14" font-weight="bold" lengthAdjust="spacingAndGlyphs" textLength="76" x="20" y="41.9482">command</text><!--MD5=[1103110f691e2f3fda35fb16a4d85e73]
class Television--><rect codeLine="20" fill="#FEFECE" height="82.9219" id="Television" style="stroke: #A80036; stroke-width: 1.5;" width="545" x="237.5" y="434.9531"/><ellipse cx="462.25" cy="450.9531" fill="#ADD1B2" rx="11" ry="11" style="stroke: #A80036; stroke-width: 1.0;"/><path d="M465.2188,456.5938 Q464.6406,456.8906 464,457.0313 Q463.3594,457.1875 462.6563,457.1875 Q460.1563,457.1875 458.8281,455.5469 Q457.5156,453.8906 457.5156,450.7656 Q457.5156,447.6406 458.8281,445.9844 Q460.1563,444.3281 462.6563,444.3281 Q463.3594,444.3281 464,444.4844 Q464.6563,444.6406 465.2188,444.9375 L465.2188,447.6563 Q464.5938,447.0781 464,446.8125 Q463.4063,446.5313 462.7813,446.5313 Q461.4375,446.5313 460.75,447.6094 Q460.0625,448.6719 460.0625,450.7656 Q460.0625,452.8594 460.75,453.9375 Q461.4375,455 462.7813,455 Q463.4063,455 464,454.7344 Q464.5938,454.4531 465.2188,453.875 L465.2188,456.5938 Z "/><text fill="#FF0000" font-family="sans-serif" font-size="16" font-weight="bold" lengthAdjust="spacingAndGlyphs" textLength="87" x="482.75" y="456.4922">Television</text><line style="stroke: #A80036; stroke-width: 1.5;" x1="238.5" x2="781.5" y1="466.9531" y2="466.9531"/><line style="stroke: #A80036; stroke-width: 1.5;" x1="238.5" x2="781.5" y1="474.9531" y2="474.9531"/><text fill="#000000" font-family="sans-serif" font-size="15" font-weight="bold" lengthAdjust="spacingAndGlyphs" textLength="521" x="243.5" y="492.8765">public void turnOn() { System.out.println("TV is turning ON"); }</text><text fill="#000000" font-family="sans-serif" font-size="15" font-weight="bold" lengthAdjust="spacingAndGlyphs" textLength="533" x="243.5" y="510.3374">public void turnOff() { System.out.println("TV is turning OFF"); }</text><!--MD5=[54805fd80874992fe12be8574af47c06]
class CommandTVoff--><rect codeLine="25" fill="#FEFECE" height="100.3828" id="CommandTVoff" style="stroke: #A80036; stroke-width: 1.5;" width="432" x="32" y="274.9531"/><ellipse cx="176.25" cy="290.9531" fill="#ADD1B2" rx="11" ry="11" style="stroke: #A80036; stroke-width: 1.0;"/><path d="M179.2188,296.5938 Q178.6406,296.8906 178,297.0313 Q177.3594,297.1875 176.6563,297.1875 Q174.1563,297.1875 172.8281,295.5469 Q171.5156,293.8906 171.5156,290.7656 Q171.5156,287.6406 172.8281,285.9844 Q174.1563,284.3281 176.6563,284.3281 Q177.3594,284.3281 178,284.4844 Q178.6563,284.6406 179.2188,284.9375 L179.2188,287.6563 Q178.5938,287.0781 178,286.8125 Q177.4063,286.5313 176.7813,286.5313 Q175.4375,286.5313 174.75,287.6094 Q174.0625,288.6719 174.0625,290.7656 Q174.0625,292.8594 174.75,293.9375 Q175.4375,295 176.7813,295 Q177.4063,295 178,294.7344 Q178.5938,294.4531 179.2188,293.875 L179.2188,296.5938 Z "/><text fill="#FF0000" font-family="sans-serif" font-size="16" font-weight="bold" lengthAdjust="spacingAndGlyphs" textLength="135" x="196.75" y="296.4922">CommandTVoff</text><line style="stroke: #A80036; stroke-width: 1.5;" x1="33" x2="463" y1="306.9531" y2="306.9531"/><text fill="#000000" font-family="sans-serif" font-size="15" font-weight="bold" lengthAdjust="spacingAndGlyphs" textLength="169" x="38" y="324.8765">private Television tv;</text><line style="stroke: #A80036; stroke-width: 1.5;" x1="33" x2="463" y1="332.4141" y2="332.4141"/><text fill="#000000" font-family="sans-serif" font-size="15" font-weight="bold" lengthAdjust="spacingAndGlyphs" textLength="420" x="38" y="350.3374">public CommandTVoff(Television tv) {this.tv = tv;}</text><text fill="#000000" font-family="sans-serif" font-size="15" font-weight="bold" lengthAdjust="spacingAndGlyphs" textLength="321" x="38" y="367.7983">public void execute() {  tv.turnOff();  }</text><!--MD5=[0129eab18351b2ab76658ede86997670]
class CommandTVon--><rect codeLine="32" fill="#FEFECE" height="100.3828" id="CommandTVon" style="stroke: #A80036; stroke-width: 1.5;" width="433" x="499.5" y="274.9531"/><ellipse cx="645.75" cy="290.9531" fill="#ADD1B2" rx="11" ry="11" style="stroke: #A80036; stroke-width: 1.0;"/><path d="M648.7188,296.5938 Q648.1406,296.8906 647.5,297.0313 Q646.8594,297.1875 646.1563,297.1875 Q643.6563,297.1875 642.3281,295.5469 Q641.0156,293.8906 641.0156,290.7656 Q641.0156,287.6406 642.3281,285.9844 Q643.6563,284.3281 646.1563,284.3281 Q646.8594,284.3281 647.5,284.4844 Q648.1563,284.6406 648.7188,284.9375 L648.7188,287.6563 Q648.0938,287.0781 647.5,286.8125 Q646.9063,286.5313 646.2813,286.5313 Q644.9375,286.5313 644.25,287.6094 Q643.5625,288.6719 643.5625,290.7656 Q643.5625,292.8594 644.25,293.9375 Q644.9375,295 646.2813,295 Q646.9063,295 647.5,294.7344 Q648.0938,294.4531 648.7188,293.875 L648.7188,296.5938 Z "/><text fill="#FF0000" font-family="sans-serif" font-size="16" font-weight="bold" lengthAdjust="spacingAndGlyphs" textLength="132" x="666.25" y="296.4922">CommandTVon</text><line style="stroke: #A80036; stroke-width: 1.5;" x1="500.5" x2="931.5" y1="306.9531" y2="306.9531"/><text fill="#000000" font-family="sans-serif" font-size="15" font-weight="bold" lengthAdjust="spacingAndGlyphs" textLength="169" x="505.5" y="324.8765">private Television tv;</text><line style="stroke: #A80036; stroke-width: 1.5;" x1="500.5" x2="931.5" y1="332.4141" y2="332.4141"/><text fill="#000000" font-family="sans-serif" font-size="15" font-weight="bold" lengthAdjust="spacingAndGlyphs" textLength="421" x="505.5" y="350.3374">public CommandTVon(Television tv) { this.tv = tv;}</text><text fill="#000000" font-family="sans-serif" font-size="15" font-weight="bold" lengthAdjust="spacingAndGlyphs" textLength="312" x="505.5" y="367.7983">public void execute() { tv.turnOn();  }</text><!--MD5=[3a92d67f31fff67fe698d394d68b70dd]
class NoCommand--><rect codeLine="38" fill="#FEFECE" height="65.4609" id="NoCommand" style="stroke: #A80036; stroke-width: 1.5;" width="564" x="968" y="292.4531"/><ellipse cx="1190.25" cy="308.4531" fill="#ADD1B2" rx="11" ry="11" style="stroke: #A80036; stroke-width: 1.0;"/><path d="M1193.2188,314.0938 Q1192.6406,314.3906 1192,314.5313 Q1191.3594,314.6875 1190.6563,314.6875 Q1188.1563,314.6875 1186.8281,313.0469 Q1185.5156,311.3906 1185.5156,308.2656 Q1185.5156,305.1406 1186.8281,303.4844 Q1188.1563,301.8281 1190.6563,301.8281 Q1191.3594,301.8281 1192,301.9844 Q1192.6563,302.1406 1193.2188,302.4375 L1193.2188,305.1563 Q1192.5938,304.5781 1192,304.3125 Q1191.4063,304.0313 1190.7813,304.0313 Q1189.4375,304.0313 1188.75,305.1094 Q1188.0625,306.1719 1188.0625,308.2656 Q1188.0625,310.3594 1188.75,311.4375 Q1189.4375,312.5 1190.7813,312.5 Q1191.4063,312.5 1192,312.2344 Q1192.5938,311.9531 1193.2188,311.375 L1193.2188,314.0938 Z "/><text fill="#FF0000" font-family="sans-serif" font-size="16" font-weight="bold" lengthAdjust="spacingAndGlyphs" textLength="111" x="1210.75" y="313.9922">NoCommand</text><line style="stroke: #A80036; stroke-width: 1.5;" x1="969" x2="1531" y1="324.4531" y2="324.4531"/><line style="stroke: #A80036; stroke-width: 1.5;" x1="969" x2="1531" y1="332.4531" y2="332.4531"/><text fill="#000000" font-family="sans-serif" font-size="15" font-weight="bold" lengthAdjust="spacingAndGlyphs" textLength="552" x="974" y="350.3765">public void execute() { System.out.println("Null Object pattern"); }</text><!--MD5=[521817ab83e81da341a3f4b5e91bae41]
class Command--><rect codeLine="43" fill="#FEFECE" height="65.4609" id="Command" style="stroke: #A80036; stroke-width: 1.5;" width="137" x="740.5" y="105.9531"/><ellipse cx="762.7" cy="121.9531" fill="#B4A7E5" rx="11" ry="11" style="stroke: #A80036; stroke-width: 1.0;"/><path d="M758.6219,117.7188 L758.6219,115.5625 L766.0125,115.5625 L766.0125,117.7188 L763.5438,117.7188 L763.5438,125.7969 L766.0125,125.7969 L766.0125,127.9531 L758.6219,127.9531 L758.6219,125.7969 L761.0906,125.7969 L761.0906,117.7188 L758.6219,117.7188 Z "/><text fill="#FF0000" font-family="sans-serif" font-size="16" font-style="italic" font-weight="bold" lengthAdjust="spacingAndGlyphs" textLength="89" x="778.3" y="127.4922">Command</text><line style="stroke: #A80036; stroke-width: 1.5;" x1="741.5" x2="876.5" y1="137.9531" y2="137.9531"/><line style="stroke: #A80036; stroke-width: 1.5;" x1="741.5" x2="876.5" y1="145.9531" y2="145.9531"/><text fill="#000000" font-family="sans-serif" font-size="15" font-weight="bold" lengthAdjust="spacingAndGlyphs" textLength="125" x="746.5" y="163.8765">void execute();</text><!--MD5=[569f59574bf0e5fd31dacd68e6fd9e20]
class RemoteControl--><rect codeLine="49" fill="#FEFECE" height="152.7656" id="RemoteControl" style="stroke: #A80036; stroke-width: 1.5;" width="673" x="32.5" y="61.9531"/><ellipse cx="297.75" cy="77.9531" fill="#ADD1B2" rx="11" ry="11" style="stroke: #A80036; stroke-width: 1.0;"/><path d="M300.7188,83.5938 Q300.1406,83.8906 299.5,84.0313 Q298.8594,84.1875 298.1563,84.1875 Q295.6563,84.1875 294.3281,82.5469 Q293.0156,80.8906 293.0156,77.7656 Q293.0156,74.6406 294.3281,72.9844 Q295.6563,71.3281 298.1563,71.3281 Q298.8594,71.3281 299.5,71.4844 Q300.1563,71.6406 300.7188,71.9375 L300.7188,74.6563 Q300.0938,74.0781 299.5,73.8125 Q298.9063,73.5313 298.2813,73.5313 Q296.9375,73.5313 296.25,74.6094 Q295.5625,75.6719 295.5625,77.7656 Q295.5625,79.8594 296.25,80.9375 Q296.9375,82 298.2813,82 Q298.9063,82 299.5,81.7344 Q300.0938,81.4531 300.7188,80.875 L300.7188,83.5938 Z "/><text fill="#FF0000" font-family="sans-serif" font-size="16" font-weight="bold" lengthAdjust="spacingAndGlyphs" textLength="134" x="318.25" y="83.4922">RemoteControl</text><line style="stroke: #A80036; stroke-width: 1.5;" x1="33.5" x2="704.5" y1="93.9531" y2="93.9531"/><text fill="#000000" font-family="sans-serif" font-size="15" font-weight="bold" lengthAdjust="spacingAndGlyphs" textLength="447" x="38.5" y="111.8765">private Command[] onCommand  = new Command[3];</text><text fill="#000000" font-family="sans-serif" font-size="15" font-weight="bold" lengthAdjust="spacingAndGlyphs" textLength="446" x="38.5" y="129.3374">private Command[] offCommand = new Command[3];</text><line style="stroke: #A80036; stroke-width: 1.5;" x1="33.5" x2="704.5" y1="136.875" y2="136.875"/><text fill="#000000" font-family="sans-serif" font-size="15" font-weight="bold" lengthAdjust="spacingAndGlyphs" textLength="661" x="38.5" y="154.7983">void addCommand(int slot, Command onCommand, Command offCommand) { }</text><text fill="#000000" font-family="sans-serif" font-size="15" font-weight="bold" lengthAdjust="spacingAndGlyphs" textLength="0" x="43.5" y="172.2593"/><text fill="#000000" font-family="sans-serif" font-size="15" font-weight="bold" lengthAdjust="spacingAndGlyphs" textLength="541" x="38.5" y="189.7202">void onButtonPressed (int slot) {  onCommand[slot].execute();  }</text><text fill="#000000" font-family="sans-serif" font-size="15" font-weight="bold" lengthAdjust="spacingAndGlyphs" textLength="539" x="38.5" y="207.1812">void offButtonPressed(int slot) {  offCommand[slot].execute(); }</text><!--MD5=[bc4d641934cc5fdb4f3dee1bfbfbed3f]
link RemoteControl to CommandTVoff--><path codeLine="62" d="M319.44,215.0331 C307.22,233.6531 294.39,253.2131 283.03,270.5431 " fill="none" id="RemoteControl-to-CommandTVoff" style="stroke: #0000FF; stroke-width: 1.0;"/><polygon fill="#0000FF" points="280.17,274.8931,288.4485,269.5578,282.9105,270.711,281.7572,265.173,280.17,274.8931" style="stroke: #0000FF; stroke-width: 1.0;"/><!--MD5=[e224028ffc816c301fb15360667855e6]
link RemoteControl to CommandTVon--><path codeLine="63" d="M511.14,215.0331 C547.5,234.3631 585.76,254.7031 619.25,272.5131 " fill="none" id="RemoteControl-to-CommandTVon" style="stroke: #0000FF; stroke-width: 1.0;"/><polygon fill="#0000FF" points="623.73,274.8931,617.6751,267.1254,619.3194,272.538,613.9068,274.1823,623.73,274.8931" style="stroke: #0000FF; stroke-width: 1.0;"/><!--MD5=[e7dfee0a8ee529e666c12ecdf84aacd0]
reverse link Command to CommandTVoff--><path codeLine="64" d="M765.3,185.1831 C752.59,196.3331 738.05,207.2531 723,214.9531 C710.53,221.3331 583.72,250.3131 464.27,276.7831 " fill="none" id="Command-backto-CommandTVoff" style="stroke: #0000FF; stroke-width: 1.0;"/><polygon fill="none" points="760.93,179.6831,780.33,171.1631,770.48,189.9231,760.93,179.6831" style="stroke: #0000FF; stroke-width: 1.0;"/><!--MD5=[c24d42447881fdef49ddd79052236c2c]
reverse link Command to CommandTVon--><path codeLine="65" d="M783.91,189.2331 C770.55,215.7231 754.19,248.1931 740.87,274.6231 " fill="none" id="Command-backto-CommandTVon" style="stroke: #0000FF; stroke-width: 1.0;"/><polygon fill="none" points="777.76,185.8831,793.01,171.1731,790.26,192.1831,777.76,185.8831" style="stroke: #0000FF; stroke-width: 1.0;"/><!--MD5=[9e6d8e09f6be59de5843d583679c70cb]
reverse link Command to NoCommand--><path codeLine="66" d="M896.41,176.0231 C977.65,210.0131 1097.41,260.1131 1174.57,292.3931 " fill="none" id="Command-backto-NoCommand" style="stroke: #0000FF; stroke-width: 1.0;"/><polygon fill="none" points="893.65,182.4531,877.91,168.2831,899.06,169.5431,893.65,182.4531" style="stroke: #0000FF; stroke-width: 1.0;"/><!--MD5=[4520cf804b08238b7438f24053f74749]
link CommandTVoff to Television--><path codeLine="67" d="M334.15,375.1131 C366.42,393.5231 402.82,414.2931 434.09,432.1431 " fill="none" id="CommandTVoff-to-Television" style="stroke: #0000FF; stroke-width: 1.0;"/><polygon fill="#0000FF" points="438.67,434.7531,432.8263,426.8253,434.3244,432.2801,428.8695,433.7782,438.67,434.7531" style="stroke: #0000FF; stroke-width: 1.0;"/><!--MD5=[59d1c5bc7b064c4f3487112b5fd826e5]
link CommandTVon to Television--><path codeLine="68" d="M648.26,375.1131 C623.1,393.3731 594.74,413.9531 570.29,431.7031 " fill="none" id="CommandTVon-to-Television" style="stroke: #0000FF; stroke-width: 1.0;"/><polygon fill="#0000FF" points="566.08,434.7531,575.7104,432.6905,570.1224,431.8106,571.0024,426.2226,566.08,434.7531" style="stroke: #0000FF; stroke-width: 1.0;"/><!--MD5=[0a3e4c447c5cf0aaf9df4b520d9164ff]
@startuml
'scale 3.0

title command pattern

skinparam BackgroundColor LightSkyBlue
skinparam classFontColor red
skinparam classFontStyle bold
skinparam classFontSize 16
skinparam classAttributeFontSize 15
skinparam classAttributeFontStyle bold
skinparam classArrowColor blue
skinparam shadowing false

' left to right direction
' hide members
' show MallaredDuck members

package command {

class Television {
public void turnOn() { System.out.println("TV is turning ON"); }
public void turnOff() { System.out.println("TV is turning OFF"); }
} 

class CommandTVoff {
private Television tv;
public CommandTVoff(Television tv) {this.tv = tv;}
public void execute() {  tv.turnOff();  }
}


class CommandTVon {
private Television tv;
public CommandTVon(Television tv) { this.tv = tv;}
public void execute() { tv.turnOn();  }
}

class NoCommand {
public void execute() { System.out.println("Null Object pattern"); }
}


interface Command {
void execute();
}



class RemoteControl {

private Command[] onCommand  = new Command[3];
private Command[] offCommand = new Command[3]; 

void addCommand(int slot, Command onCommand, Command offCommand) { }

void onButtonPressed (int slot) {  onCommand[slot].execute();  }
void offButtonPressed(int slot) {  offCommand[slot].execute(); }

}
' end of RemoteControl

RemoteControl - -> CommandTVoff
RemoteControl - -> CommandTVon
Command  <|- -   CommandTVoff
Command  <|- -    CommandTVon
Command  <|- -    NoCommand
CommandTVoff - ->  Television 
CommandTVon - ->  Television 

}
'end of package

@enduml

@startuml

title command pattern

skinparam BackgroundColor LightSkyBlue
skinparam classFontColor red
skinparam classFontStyle bold
skinparam classFontSize 16
skinparam classAttributeFontSize 15
skinparam classAttributeFontStyle bold
skinparam classArrowColor blue
skinparam shadowing false


package command {

class Television {
public void turnOn() { System.out.println("TV is turning ON"); }
public void turnOff() { System.out.println("TV is turning OFF"); }
} 

class CommandTVoff {
private Television tv;
public CommandTVoff(Television tv) {this.tv = tv;}
public void execute() {  tv.turnOff();  }
}


class CommandTVon {
private Television tv;
public CommandTVon(Television tv) { this.tv = tv;}
public void execute() { tv.turnOn();  }
}

class NoCommand {
public void execute() { System.out.println("Null Object pattern"); }
}


interface Command {
void execute();
}



class RemoteControl {

private Command[] onCommand  = new Command[3];
private Command[] offCommand = new Command[3]; 

void addCommand(int slot, Command onCommand, Command offCommand) { }

void onButtonPressed (int slot) {  onCommand[slot].execute();  }
void offButtonPressed(int slot) {  offCommand[slot].execute(); }

}

RemoteControl - -> CommandTVoff
RemoteControl - -> CommandTVon
Command  <|- -   CommandTVoff
Command  <|- -    CommandTVon
Command  <|- -    NoCommand
CommandTVoff - ->  Television 
CommandTVon - ->  Television 

}

@enduml

PlantUML version 1.2020.18(Wed Sep 30 22:40:44 EEST 2020)
(GPL source distribution)
Java Runtime: OpenJDK Runtime Environment
JVM: OpenJDK 64-Bit Server VM
Default Encoding: UTF-8
Language: en
Country: US
--></g></svg>