<?xml version="1.0" encoding="UTF-8" standalone="yes"?><svg xmlns="http://www.w3.org/2000/svg" xmlns:xlink="http://www.w3.org/1999/xlink" height="983pt" style="width:2930px;height:983px;" version="1.1" viewBox="0 0 2930 983" width="2930pt"><defs/><g><text fill="#000000" font-size="18" lengthAdjust="spacingAndGlyphs" textLength="155" x="1369.25" y="18">patterns of patterns</text><rect fill="#FEFECE" height="66.8672" style="stroke: #A80036; stroke-width: 1.5;" width="215" x="1703" y="647.1406"/><ellipse cx="1766.25" cy="663.1406" fill="#B4A7E5" rx="11" ry="11" style="stroke: #A80036; stroke-width: 1.0;"/><path d="M1767.2031,659.7813 L1767.2031,666.4375 L1768.9219,666.4375 Q1769.5313,666.4375 1769.7969,666.6719 Q1770.0625,666.9063 1770.0625,667.2969 Q1770.0625,667.6719 1769.7969,667.9063 Q1769.5313,668.1406 1768.9219,668.1406 L1763.7813,668.1406 Q1763.1719,668.1406 1762.9063,667.9063 Q1762.6406,667.6719 1762.6406,667.2813 Q1762.6406,666.9063 1762.9063,666.6719 Q1763.1719,666.4375 1763.7813,666.4375 L1765.5,666.4375 L1765.5,659.7813 L1763.7813,659.7813 Q1763.1719,659.7813 1762.9063,659.5469 Q1762.6406,659.3125 1762.6406,658.9219 Q1762.6406,658.5469 1762.9063,658.3125 Q1763.1719,658.0781 1763.7813,658.0781 L1768.9219,658.0781 Q1769.5313,658.0781 1769.7969,658.3125 Q1770.0625,658.5469 1770.0625,658.9219 Q1770.0625,659.3125 1769.7969,659.5469 Q1769.5313,659.7813 1768.9219,659.7813 L1767.2031,659.7813 Z "/><text fill="#CC0000" font-size="16" font-style="italic" font-weight="bold" lengthAdjust="spacingAndGlyphs" textLength="80" x="1786.75" y="669.0781">Quackable</text><line style="stroke: #A80036; stroke-width: 1.5;" x1="1704" x2="1917" y1="679.1406" y2="679.1406"/><line style="stroke: #A80036; stroke-width: 1.5;" x1="1704" x2="1917" y1="687.1406" y2="687.1406"/><text fill="#000000" font-size="15" font-weight="bold" lengthAdjust="spacingAndGlyphs" textLength="203" x="1709" y="706.1406">public abstract void  quack();</text><rect fill="#FEFECE" height="104.6016" style="stroke: #A80036; stroke-width: 1.5;" width="382" x="1144.25" y="840.1406"/><ellipse cx="1274.5" cy="856.1406" fill="#ADD1B2" rx="11" ry="11" style="stroke: #A80036; stroke-width: 1.0;"/><path d="M1277.2656,852.0156 Q1277.4219,851.7969 1277.6094,851.6875 Q1277.7969,851.5781 1278.0156,851.5781 Q1278.3906,851.5781 1278.625,851.8359 Q1278.8594,852.0938 1278.8594,852.7031 L1278.8594,854.1563 Q1278.8594,854.7656 1278.625,855.0313 Q1278.3906,855.2969 1278.0156,855.2969 Q1277.6719,855.2969 1277.4688,855.0938 Q1277.2656,854.9063 1277.1563,854.3906 Q1277.1094,854.0313 1276.9219,853.8438 Q1276.5938,853.4688 1275.9844,853.25 Q1275.375,853.0313 1274.75,853.0313 Q1273.9844,853.0313 1273.3516,853.3594 Q1272.7188,853.6875 1272.2266,854.4375 Q1271.7344,855.1875 1271.7344,856.2188 L1271.7344,857.3125 Q1271.7344,858.5469 1272.625,859.3672 Q1273.5156,860.1875 1275.1094,860.1875 Q1276.0469,860.1875 1276.7031,859.9375 Q1277.0938,859.7813 1277.5156,859.3438 Q1277.7813,859.0781 1277.9297,859 Q1278.0781,858.9219 1278.2813,858.9219 Q1278.6094,858.9219 1278.8672,859.1797 Q1279.125,859.4375 1279.125,859.7813 Q1279.125,860.125 1278.7813,860.5313 Q1278.2813,861.1094 1277.4844,861.4375 Q1276.4063,861.8906 1275.1094,861.8906 Q1273.5938,861.8906 1272.3906,861.2656 Q1271.4063,860.7656 1270.7188,859.6953 Q1270.0313,858.625 1270.0313,857.3438 L1270.0313,856.1875 Q1270.0313,854.8594 1270.6484,853.7109 Q1271.2656,852.5625 1272.3594,851.9453 Q1273.4531,851.3281 1274.6875,851.3281 Q1275.4219,851.3281 1276.0703,851.4922 Q1276.7188,851.6563 1277.2656,852.0156 Z "/><text fill="#CC0000" font-size="16" font-weight="bold" lengthAdjust="spacingAndGlyphs" textLength="113" x="1295" y="862.0781">DuckSimulator</text><line style="stroke: #A80036; stroke-width: 1.5;" x1="1145.25" x2="1525.25" y1="872.1406" y2="872.1406"/><line style="stroke: #A80036; stroke-width: 1.5;" x1="1145.25" x2="1525.25" y1="880.1406" y2="880.1406"/><ellipse cx="1155.25" cy="895.0742" fill="#84BE84" rx="3" ry="3" style="stroke: #038048; stroke-width: 1.0;"/><text fill="#000000" font-size="15" font-weight="bold" lengthAdjust="spacingAndGlyphs" textLength="166" x="1164.25" y="899.1406">void main(String[] args)</text><ellipse cx="1155.25" cy="913.9414" fill="#84BE84" rx="3" ry="3" style="stroke: #038048; stroke-width: 1.0;"/><text fill="#000000" font-size="15" font-weight="bold" lengthAdjust="spacingAndGlyphs" textLength="356" x="1164.25" y="918.0078">void simulate(AbstractDuckFactory duckFactory){ }</text><ellipse cx="1155.25" cy="932.8086" fill="#84BE84" rx="3" ry="3" style="stroke: #038048; stroke-width: 1.0;"/><text fill="#000000" font-size="15" font-weight="bold" lengthAdjust="spacingAndGlyphs" textLength="323" x="1164.25" y="936.875">void simulate(Quackable duck){duck.quack() }</text><rect fill="#FEFECE" height="142.3359" style="stroke: #A80036; stroke-width: 1.5;" width="497" x="1562" y="821.6406"/><ellipse cx="1785.25" cy="837.6406" fill="#ADD1B2" rx="11" ry="11" style="stroke: #A80036; stroke-width: 1.0;"/><path d="M1788.0156,833.5156 Q1788.1719,833.2969 1788.3594,833.1875 Q1788.5469,833.0781 1788.7656,833.0781 Q1789.1406,833.0781 1789.375,833.3359 Q1789.6094,833.5938 1789.6094,834.2031 L1789.6094,835.6563 Q1789.6094,836.2656 1789.375,836.5313 Q1789.1406,836.7969 1788.7656,836.7969 Q1788.4219,836.7969 1788.2188,836.5938 Q1788.0156,836.4063 1787.9063,835.8906 Q1787.8594,835.5313 1787.6719,835.3438 Q1787.3438,834.9688 1786.7344,834.75 Q1786.125,834.5313 1785.5,834.5313 Q1784.7344,834.5313 1784.1016,834.8594 Q1783.4688,835.1875 1782.9766,835.9375 Q1782.4844,836.6875 1782.4844,837.7188 L1782.4844,838.8125 Q1782.4844,840.0469 1783.375,840.8672 Q1784.2656,841.6875 1785.8594,841.6875 Q1786.7969,841.6875 1787.4531,841.4375 Q1787.8438,841.2813 1788.2656,840.8438 Q1788.5313,840.5781 1788.6797,840.5 Q1788.8281,840.4219 1789.0313,840.4219 Q1789.3594,840.4219 1789.6172,840.6797 Q1789.875,840.9375 1789.875,841.2813 Q1789.875,841.625 1789.5313,842.0313 Q1789.0313,842.6094 1788.2344,842.9375 Q1787.1563,843.3906 1785.8594,843.3906 Q1784.3438,843.3906 1783.1406,842.7656 Q1782.1563,842.2656 1781.4688,841.1953 Q1780.7813,840.125 1780.7813,838.8438 L1780.7813,837.6875 Q1780.7813,836.3594 1781.3984,835.2109 Q1782.0156,834.0625 1783.1094,833.4453 Q1784.2031,832.8281 1785.4375,832.8281 Q1786.1719,832.8281 1786.8203,832.9922 Q1787.4688,833.1563 1788.0156,833.5156 Z "/><text fill="#CC0000" font-size="16" font-weight="bold" lengthAdjust="spacingAndGlyphs" textLength="42" x="1805.75" y="843.5781">Flock</text><line style="stroke: #A80036; stroke-width: 1.5;" x1="1563" x2="2058" y1="853.6406" y2="853.6406"/><line style="stroke: #A80036; stroke-width: 1.5;" x1="1563" x2="2058" y1="861.6406" y2="861.6406"/><rect fill="#F24D5C" height="6" style="stroke: #C82930; stroke-width: 1.0;" width="6" x="1570" y="873.5742"/><text fill="#000000" font-size="15" font-weight="bold" lengthAdjust="spacingAndGlyphs" textLength="439" x="1582" y="880.6406">ArrayList&lt;Quackable&gt; quackers =new ArrayList&lt;Quackable&gt;();</text><ellipse cx="1573" cy="895.4414" fill="#84BE84" rx="3" ry="3" style="stroke: #038048; stroke-width: 1.0;"/><text fill="#000000" font-size="15" font-weight="bold" lengthAdjust="spacingAndGlyphs" textLength="389" x="1582" y="899.5078">void add(Quackable quacker){ quackers.add(quacker) }</text><ellipse cx="1573" cy="914.3086" fill="#84BE84" rx="3" ry="3" style="stroke: #038048; stroke-width: 1.0;"/><text fill="#000000" font-size="15" font-weight="bold" lengthAdjust="spacingAndGlyphs" textLength="471" x="1582" y="918.375">void quack(){ for(Quackable quacker: quackers){quacker.quack()} }</text><ellipse cx="1573" cy="933.1758" fill="#84BE84" rx="3" ry="3" style="stroke: #038048; stroke-width: 1.0;"/><text fill="#000000" font-size="15" font-weight="bold" lengthAdjust="spacingAndGlyphs" textLength="160" x="1582" y="937.2422">void notifyObservers()</text><ellipse cx="1573" cy="952.043" fill="#84BE84" rx="3" ry="3" style="stroke: #038048; stroke-width: 1.0;"/><text fill="#000000" font-size="15" font-weight="bold" lengthAdjust="spacingAndGlyphs" textLength="306" x="1582" y="956.1094">void registerObserver(Observer observer)</text><rect fill="#FEFECE" height="142.3359" style="stroke: #A80036; stroke-width: 1.5;" width="631" x="1754" y="397.6406"/><ellipse cx="2013.25" cy="413.6406" fill="#ADD1B2" rx="11" ry="11" style="stroke: #A80036; stroke-width: 1.0;"/><path d="M2016.0156,409.5156 Q2016.1719,409.2969 2016.3594,409.1875 Q2016.5469,409.0781 2016.7656,409.0781 Q2017.1406,409.0781 2017.375,409.3359 Q2017.6094,409.5938 2017.6094,410.2031 L2017.6094,411.6563 Q2017.6094,412.2656 2017.375,412.5313 Q2017.1406,412.7969 2016.7656,412.7969 Q2016.4219,412.7969 2016.2188,412.5938 Q2016.0156,412.4063 2015.9063,411.8906 Q2015.8594,411.5313 2015.6719,411.3438 Q2015.3438,410.9688 2014.7344,410.75 Q2014.125,410.5313 2013.5,410.5313 Q2012.7344,410.5313 2012.1016,410.8594 Q2011.4688,411.1875 2010.9766,411.9375 Q2010.4844,412.6875 2010.4844,413.7188 L2010.4844,414.8125 Q2010.4844,416.0469 2011.375,416.8672 Q2012.2656,417.6875 2013.8594,417.6875 Q2014.7969,417.6875 2015.4531,417.4375 Q2015.8438,417.2813 2016.2656,416.8438 Q2016.5313,416.5781 2016.6797,416.5 Q2016.8281,416.4219 2017.0313,416.4219 Q2017.3594,416.4219 2017.6172,416.6797 Q2017.875,416.9375 2017.875,417.2813 Q2017.875,417.625 2017.5313,418.0313 Q2017.0313,418.6094 2016.2344,418.9375 Q2015.1563,419.3906 2013.8594,419.3906 Q2012.3438,419.3906 2011.1406,418.7656 Q2010.1563,418.2656 2009.4688,417.1953 Q2008.7813,416.125 2008.7813,414.8438 L2008.7813,413.6875 Q2008.7813,412.3594 2009.3984,411.2109 Q2010.0156,410.0625 2011.1094,409.4453 Q2012.2031,408.8281 2013.4375,408.8281 Q2014.1719,408.8281 2014.8203,408.9922 Q2015.4688,409.1563 2016.0156,409.5156 Z "/><text fill="#CC0000" font-size="16" font-weight="bold" lengthAdjust="spacingAndGlyphs" textLength="104" x="2033.75" y="419.5781">MallaredDuck</text><line style="stroke: #A80036; stroke-width: 1.5;" x1="1755" x2="2384" y1="429.6406" y2="429.6406"/><rect fill="none" height="6" style="stroke: #C82930; stroke-width: 1.0;" width="6" x="1762" y="441.5742"/><text fill="#000000" font-size="15" font-weight="bold" lengthAdjust="spacingAndGlyphs" textLength="171" x="1774" y="448.6406">Observable observable;</text><line style="stroke: #A80036; stroke-width: 1.5;" x1="1755" x2="2384" y1="456.5078" y2="456.5078"/><ellipse cx="1765" cy="471.4414" fill="#84BE84" rx="3" ry="3" style="stroke: #038048; stroke-width: 1.0;"/><text fill="#000000" font-size="15" font-weight="bold" lengthAdjust="spacingAndGlyphs" textLength="364" x="1774" y="475.5078">MallaredDuck(){observable =new Observable(this)}</text><ellipse cx="1765" cy="490.3086" fill="#84BE84" rx="3" ry="3" style="stroke: #038048; stroke-width: 1.0;"/><text fill="#000000" font-size="15" font-weight="bold" lengthAdjust="spacingAndGlyphs" textLength="338" x="1774" y="494.375">void quack(){print("Quack"); notifyObservers();}</text><ellipse cx="1765" cy="509.1758" fill="#84BE84" rx="3" ry="3" style="stroke: #038048; stroke-width: 1.0;"/><text fill="#000000" font-size="15" font-weight="bold" lengthAdjust="spacingAndGlyphs" textLength="605" x="1774" y="513.2422">void registerObserver(Observer observer){observable.registerObserver(observer) }</text><ellipse cx="1765" cy="528.043" fill="#84BE84" rx="3" ry="3" style="stroke: #038048; stroke-width: 1.0;"/><text fill="#000000" font-size="15" font-weight="bold" lengthAdjust="spacingAndGlyphs" textLength="381" x="1774" y="532.1094">void notifyObservers(){observable.notifyObservers()}</text><rect fill="#FEFECE" height="161.2031" style="stroke: #A80036; stroke-width: 1.5;" width="332" x="1386.25" y="388.1406"/><ellipse cx="1493.5" cy="404.1406" fill="#ADD1B2" rx="11" ry="11" style="stroke: #A80036; stroke-width: 1.0;"/><path d="M1496.2656,400.0156 Q1496.4219,399.7969 1496.6094,399.6875 Q1496.7969,399.5781 1497.0156,399.5781 Q1497.3906,399.5781 1497.625,399.8359 Q1497.8594,400.0938 1497.8594,400.7031 L1497.8594,402.1563 Q1497.8594,402.7656 1497.625,403.0313 Q1497.3906,403.2969 1497.0156,403.2969 Q1496.6719,403.2969 1496.4688,403.0938 Q1496.2656,402.9063 1496.1563,402.3906 Q1496.1094,402.0313 1495.9219,401.8438 Q1495.5938,401.4688 1494.9844,401.25 Q1494.375,401.0313 1493.75,401.0313 Q1492.9844,401.0313 1492.3516,401.3594 Q1491.7188,401.6875 1491.2266,402.4375 Q1490.7344,403.1875 1490.7344,404.2188 L1490.7344,405.3125 Q1490.7344,406.5469 1491.625,407.3672 Q1492.5156,408.1875 1494.1094,408.1875 Q1495.0469,408.1875 1495.7031,407.9375 Q1496.0938,407.7813 1496.5156,407.3438 Q1496.7813,407.0781 1496.9297,407 Q1497.0781,406.9219 1497.2813,406.9219 Q1497.6094,406.9219 1497.8672,407.1797 Q1498.125,407.4375 1498.125,407.7813 Q1498.125,408.125 1497.7813,408.5313 Q1497.2813,409.1094 1496.4844,409.4375 Q1495.4063,409.8906 1494.1094,409.8906 Q1492.5938,409.8906 1491.3906,409.2656 Q1490.4063,408.7656 1489.7188,407.6953 Q1489.0313,406.625 1489.0313,405.3438 L1489.0313,404.1875 Q1489.0313,402.8594 1489.6484,401.7109 Q1490.2656,400.5625 1491.3594,399.9453 Q1492.4531,399.3281 1493.6875,399.3281 Q1494.4219,399.3281 1495.0703,399.4922 Q1495.7188,399.6563 1496.2656,400.0156 Z "/><text fill="#CC0000" font-size="16" font-weight="bold" lengthAdjust="spacingAndGlyphs" textLength="109" x="1514" y="410.0781">RedheadDuck</text><line style="stroke: #A80036; stroke-width: 1.5;" x1="1387.25" x2="1717.25" y1="420.1406" y2="420.1406"/><polygon fill="none" points="1397.25,431.0742,1393.25,437.0742,1401.25,437.0742" style="stroke: #1963A0; stroke-width: 1.0;"/><text fill="#000000" font-size="15" font-weight="bold" lengthAdjust="spacingAndGlyphs" textLength="167" x="1406.25" y="439.1406">Observable observable</text><line style="stroke: #A80036; stroke-width: 1.5;" x1="1387.25" x2="1717.25" y1="447.0078" y2="447.0078"/><ellipse cx="1397.25" cy="461.9414" fill="#84BE84" rx="3" ry="3" style="stroke: #038048; stroke-width: 1.0;"/><text fill="#000000" font-size="15" font-weight="bold" lengthAdjust="spacingAndGlyphs" textLength="110" x="1406.25" y="466.0078">RedheadDuck()</text><ellipse cx="1397.25" cy="480.8086" fill="#84BE84" rx="3" ry="3" style="stroke: #038048; stroke-width: 1.0;"/><text fill="#000000" font-size="15" font-weight="bold" lengthAdjust="spacingAndGlyphs" textLength="201" x="1406.25" y="484.875">void quack(){print("Quack")}</text><ellipse cx="1397.25" cy="499.6758" fill="#84BE84" rx="3" ry="3" style="stroke: #038048; stroke-width: 1.0;"/><text fill="#000000" font-size="15" font-weight="bold" lengthAdjust="spacingAndGlyphs" textLength="160" x="1406.25" y="503.7422">void notifyObservers()</text><ellipse cx="1397.25" cy="518.543" fill="#84BE84" rx="3" ry="3" style="stroke: #038048; stroke-width: 1.0;"/><text fill="#000000" font-size="15" font-weight="bold" lengthAdjust="spacingAndGlyphs" textLength="306" x="1406.25" y="522.6094">void registerObserver(Observer observer)</text><ellipse cx="1397.25" cy="537.4102" fill="#84BE84" rx="3" ry="3" style="stroke: #038048; stroke-width: 1.0;"/><text fill="#000000" font-size="15" font-weight="bold" lengthAdjust="spacingAndGlyphs" textLength="114" x="1406.25" y="541.4766">String toString()</text><rect fill="#FEFECE" height="161.2031" style="stroke: #A80036; stroke-width: 1.5;" width="332" x="1019.25" y="388.1406"/><ellipse cx="1132.5" cy="404.1406" fill="#ADD1B2" rx="11" ry="11" style="stroke: #A80036; stroke-width: 1.0;"/><path d="M1135.2656,400.0156 Q1135.4219,399.7969 1135.6094,399.6875 Q1135.7969,399.5781 1136.0156,399.5781 Q1136.3906,399.5781 1136.625,399.8359 Q1136.8594,400.0938 1136.8594,400.7031 L1136.8594,402.1563 Q1136.8594,402.7656 1136.625,403.0313 Q1136.3906,403.2969 1136.0156,403.2969 Q1135.6719,403.2969 1135.4688,403.0938 Q1135.2656,402.9063 1135.1563,402.3906 Q1135.1094,402.0313 1134.9219,401.8438 Q1134.5938,401.4688 1133.9844,401.25 Q1133.375,401.0313 1132.75,401.0313 Q1131.9844,401.0313 1131.3516,401.3594 Q1130.7188,401.6875 1130.2266,402.4375 Q1129.7344,403.1875 1129.7344,404.2188 L1129.7344,405.3125 Q1129.7344,406.5469 1130.625,407.3672 Q1131.5156,408.1875 1133.1094,408.1875 Q1134.0469,408.1875 1134.7031,407.9375 Q1135.0938,407.7813 1135.5156,407.3438 Q1135.7813,407.0781 1135.9297,407 Q1136.0781,406.9219 1136.2813,406.9219 Q1136.6094,406.9219 1136.8672,407.1797 Q1137.125,407.4375 1137.125,407.7813 Q1137.125,408.125 1136.7813,408.5313 Q1136.2813,409.1094 1135.4844,409.4375 Q1134.4063,409.8906 1133.1094,409.8906 Q1131.5938,409.8906 1130.3906,409.2656 Q1129.4063,408.7656 1128.7188,407.6953 Q1128.0313,406.625 1128.0313,405.3438 L1128.0313,404.1875 Q1128.0313,402.8594 1128.6484,401.7109 Q1129.2656,400.5625 1130.3594,399.9453 Q1131.4531,399.3281 1132.6875,399.3281 Q1133.4219,399.3281 1134.0703,399.4922 Q1134.7188,399.6563 1135.2656,400.0156 Z "/><text fill="#CC0000" font-size="16" font-weight="bold" lengthAdjust="spacingAndGlyphs" textLength="97" x="1153" y="410.0781">RubberDuck</text><line style="stroke: #A80036; stroke-width: 1.5;" x1="1020.25" x2="1350.25" y1="420.1406" y2="420.1406"/><polygon fill="none" points="1030.25,431.0742,1026.25,437.0742,1034.25,437.0742" style="stroke: #1963A0; stroke-width: 1.0;"/><text fill="#000000" font-size="15" font-weight="bold" lengthAdjust="spacingAndGlyphs" textLength="167" x="1039.25" y="439.1406">Observable observable</text><line style="stroke: #A80036; stroke-width: 1.5;" x1="1020.25" x2="1350.25" y1="447.0078" y2="447.0078"/><ellipse cx="1030.25" cy="461.9414" fill="#84BE84" rx="3" ry="3" style="stroke: #038048; stroke-width: 1.0;"/><text fill="#000000" font-size="15" font-weight="bold" lengthAdjust="spacingAndGlyphs" textLength="99" x="1039.25" y="466.0078">RubberDuck()</text><ellipse cx="1030.25" cy="480.8086" fill="#84BE84" rx="3" ry="3" style="stroke: #038048; stroke-width: 1.0;"/><text fill="#000000" font-size="15" font-weight="bold" lengthAdjust="spacingAndGlyphs" textLength="208" x="1039.25" y="484.875">void quack(){print("Squack")}</text><ellipse cx="1030.25" cy="499.6758" fill="#84BE84" rx="3" ry="3" style="stroke: #038048; stroke-width: 1.0;"/><text fill="#000000" font-size="15" font-weight="bold" lengthAdjust="spacingAndGlyphs" textLength="160" x="1039.25" y="503.7422">void notifyObservers()</text><ellipse cx="1030.25" cy="518.543" fill="#84BE84" rx="3" ry="3" style="stroke: #038048; stroke-width: 1.0;"/><text fill="#000000" font-size="15" font-weight="bold" lengthAdjust="spacingAndGlyphs" textLength="306" x="1039.25" y="522.6094">void registerObserver(Observer observer)</text><ellipse cx="1030.25" cy="537.4102" fill="#84BE84" rx="3" ry="3" style="stroke: #038048; stroke-width: 1.0;"/><text fill="#000000" font-size="15" font-weight="bold" lengthAdjust="spacingAndGlyphs" textLength="114" x="1039.25" y="541.4766">String toString()</text><rect fill="#FEFECE" height="161.2031" style="stroke: #A80036; stroke-width: 1.5;" width="332" x="652.25" y="388.1406"/><ellipse cx="779.5" cy="404.1406" fill="#ADD1B2" rx="11" ry="11" style="stroke: #A80036; stroke-width: 1.0;"/><path d="M782.2656,400.0156 Q782.4219,399.7969 782.6094,399.6875 Q782.7969,399.5781 783.0156,399.5781 Q783.3906,399.5781 783.625,399.8359 Q783.8594,400.0938 783.8594,400.7031 L783.8594,402.1563 Q783.8594,402.7656 783.625,403.0313 Q783.3906,403.2969 783.0156,403.2969 Q782.6719,403.2969 782.4688,403.0938 Q782.2656,402.9063 782.1563,402.3906 Q782.1094,402.0313 781.9219,401.8438 Q781.5938,401.4688 780.9844,401.25 Q780.375,401.0313 779.75,401.0313 Q778.9844,401.0313 778.3516,401.3594 Q777.7188,401.6875 777.2266,402.4375 Q776.7344,403.1875 776.7344,404.2188 L776.7344,405.3125 Q776.7344,406.5469 777.625,407.3672 Q778.5156,408.1875 780.1094,408.1875 Q781.0469,408.1875 781.7031,407.9375 Q782.0938,407.7813 782.5156,407.3438 Q782.7813,407.0781 782.9297,407 Q783.0781,406.9219 783.2813,406.9219 Q783.6094,406.9219 783.8672,407.1797 Q784.125,407.4375 784.125,407.7813 Q784.125,408.125 783.7813,408.5313 Q783.2813,409.1094 782.4844,409.4375 Q781.4063,409.8906 780.1094,409.8906 Q778.5938,409.8906 777.3906,409.2656 Q776.4063,408.7656 775.7188,407.6953 Q775.0313,406.625 775.0313,405.3438 L775.0313,404.1875 Q775.0313,402.8594 775.6484,401.7109 Q776.2656,400.5625 777.3594,399.9453 Q778.4531,399.3281 779.6875,399.3281 Q780.4219,399.3281 781.0703,399.4922 Q781.7188,399.6563 782.2656,400.0156 Z "/><text fill="#CC0000" font-size="16" font-weight="bold" lengthAdjust="spacingAndGlyphs" textLength="69" x="800" y="410.0781">DuckCall</text><line style="stroke: #A80036; stroke-width: 1.5;" x1="653.25" x2="983.25" y1="420.1406" y2="420.1406"/><polygon fill="none" points="663.25,431.0742,659.25,437.0742,667.25,437.0742" style="stroke: #1963A0; stroke-width: 1.0;"/><text fill="#000000" font-size="15" font-weight="bold" lengthAdjust="spacingAndGlyphs" textLength="167" x="672.25" y="439.1406">Observable observable</text><line style="stroke: #A80036; stroke-width: 1.5;" x1="653.25" x2="983.25" y1="447.0078" y2="447.0078"/><ellipse cx="663.25" cy="461.9414" fill="#84BE84" rx="3" ry="3" style="stroke: #038048; stroke-width: 1.0;"/><text fill="#000000" font-size="15" font-weight="bold" lengthAdjust="spacingAndGlyphs" textLength="73" x="672.25" y="466.0078">DuckCall()</text><ellipse cx="663.25" cy="480.8086" fill="#84BE84" rx="3" ry="3" style="stroke: #038048; stroke-width: 1.0;"/><text fill="#000000" font-size="15" font-weight="bold" lengthAdjust="spacingAndGlyphs" textLength="191" x="672.25" y="484.875">void quack(){print("kwak")}</text><ellipse cx="663.25" cy="499.6758" fill="#84BE84" rx="3" ry="3" style="stroke: #038048; stroke-width: 1.0;"/><text fill="#000000" font-size="15" font-weight="bold" lengthAdjust="spacingAndGlyphs" textLength="160" x="672.25" y="503.7422">void notifyObservers()</text><ellipse cx="663.25" cy="518.543" fill="#84BE84" rx="3" ry="3" style="stroke: #038048; stroke-width: 1.0;"/><text fill="#000000" font-size="15" font-weight="bold" lengthAdjust="spacingAndGlyphs" textLength="306" x="672.25" y="522.6094">void registerObserver(Observer observer)</text><ellipse cx="663.25" cy="537.4102" fill="#84BE84" rx="3" ry="3" style="stroke: #038048; stroke-width: 1.0;"/><text fill="#000000" font-size="15" font-weight="bold" lengthAdjust="spacingAndGlyphs" textLength="114" x="672.25" y="541.4766">String toString()</text><rect fill="#FEFECE" height="180.0703" style="stroke: #A80036; stroke-width: 1.5;" width="376" x="2420.25" y="378.6406"/><ellipse cx="2549" cy="394.6406" fill="#ADD1B2" rx="11" ry="11" style="stroke: #A80036; stroke-width: 1.0;"/><path d="M2551.7656,390.5156 Q2551.9219,390.2969 2552.1094,390.1875 Q2552.2969,390.0781 2552.5156,390.0781 Q2552.8906,390.0781 2553.125,390.3359 Q2553.3594,390.5938 2553.3594,391.2031 L2553.3594,392.6563 Q2553.3594,393.2656 2553.125,393.5313 Q2552.8906,393.7969 2552.5156,393.7969 Q2552.1719,393.7969 2551.9688,393.5938 Q2551.7656,393.4063 2551.6563,392.8906 Q2551.6094,392.5313 2551.4219,392.3438 Q2551.0938,391.9688 2550.4844,391.75 Q2549.875,391.5313 2549.25,391.5313 Q2548.4844,391.5313 2547.8516,391.8594 Q2547.2188,392.1875 2546.7266,392.9375 Q2546.2344,393.6875 2546.2344,394.7188 L2546.2344,395.8125 Q2546.2344,397.0469 2547.125,397.8672 Q2548.0156,398.6875 2549.6094,398.6875 Q2550.5469,398.6875 2551.2031,398.4375 Q2551.5938,398.2813 2552.0156,397.8438 Q2552.2813,397.5781 2552.4297,397.5 Q2552.5781,397.4219 2552.7813,397.4219 Q2553.1094,397.4219 2553.3672,397.6797 Q2553.625,397.9375 2553.625,398.2813 Q2553.625,398.625 2553.2813,399.0313 Q2552.7813,399.6094 2551.9844,399.9375 Q2550.9063,400.3906 2549.6094,400.3906 Q2548.0938,400.3906 2546.8906,399.7656 Q2545.9063,399.2656 2545.2188,398.1953 Q2544.5313,397.125 2544.5313,395.8438 L2544.5313,394.6875 Q2544.5313,393.3594 2545.1484,392.2109 Q2545.7656,391.0625 2546.8594,390.4453 Q2547.9531,389.8281 2549.1875,389.8281 Q2549.9219,389.8281 2550.5703,389.9922 Q2551.2188,390.1563 2551.7656,390.5156 Z "/><text fill="#CC0000" font-size="16" font-weight="bold" lengthAdjust="spacingAndGlyphs" textLength="110" x="2569.5" y="400.5781">GooseAdapter</text><line style="stroke: #A80036; stroke-width: 1.5;" x1="2421.25" x2="2795.25" y1="410.6406" y2="410.6406"/><rect fill="none" height="6" style="stroke: #C82930; stroke-width: 1.0;" width="6" x="2428.25" y="422.5742"/><text fill="#000000" font-size="15" font-weight="bold" lengthAdjust="spacingAndGlyphs" textLength="99" x="2440.25" y="429.6406">Goose goose;</text><rect fill="none" height="6" style="stroke: #C82930; stroke-width: 1.0;" width="6" x="2428.25" y="441.4414"/><text fill="#000000" font-size="15" font-weight="bold" lengthAdjust="spacingAndGlyphs" textLength="167" x="2440.25" y="448.5078">Observable observable</text><line style="stroke: #A80036; stroke-width: 1.5;" x1="2421.25" x2="2795.25" y1="456.375" y2="456.375"/><ellipse cx="2431.25" cy="471.3086" fill="#84BE84" rx="3" ry="3" style="stroke: #038048; stroke-width: 1.0;"/><text fill="#000000" font-size="15" font-weight="bold" lengthAdjust="spacingAndGlyphs" textLength="350" x="2440.25" y="475.375">GooseAdapter(Goose goose){this.goose=goose;}</text><ellipse cx="2431.25" cy="490.1758" fill="#84BE84" rx="3" ry="3" style="stroke: #038048; stroke-width: 1.0;"/><text fill="#000000" font-size="15" font-weight="bold" lengthAdjust="spacingAndGlyphs" textLength="192" x="2440.25" y="494.2422">void quack(){goose.honk()}</text><ellipse cx="2431.25" cy="509.043" fill="#84BE84" rx="3" ry="3" style="stroke: #038048; stroke-width: 1.0;"/><text fill="#000000" font-size="15" font-weight="bold" lengthAdjust="spacingAndGlyphs" textLength="160" x="2440.25" y="513.1094">void notifyObservers()</text><ellipse cx="2431.25" cy="527.9102" fill="#84BE84" rx="3" ry="3" style="stroke: #038048; stroke-width: 1.0;"/><text fill="#000000" font-size="15" font-weight="bold" lengthAdjust="spacingAndGlyphs" textLength="306" x="2440.25" y="531.9766">void registerObserver(Observer observer)</text><ellipse cx="2431.25" cy="546.7773" fill="#84BE84" rx="3" ry="3" style="stroke: #038048; stroke-width: 1.0;"/><text fill="#000000" font-size="15" font-weight="bold" lengthAdjust="spacingAndGlyphs" textLength="114" x="2440.25" y="550.8438">String toString()</text><rect fill="#FEFECE" height="180.0703" style="stroke: #A80036; stroke-width: 1.5;" width="362" x="2094.25" y="802.6406"/><ellipse cx="2215.5" cy="818.6406" fill="#ADD1B2" rx="11" ry="11" style="stroke: #A80036; stroke-width: 1.0;"/><path d="M2218.2656,814.5156 Q2218.4219,814.2969 2218.6094,814.1875 Q2218.7969,814.0781 2219.0156,814.0781 Q2219.3906,814.0781 2219.625,814.3359 Q2219.8594,814.5938 2219.8594,815.2031 L2219.8594,816.6563 Q2219.8594,817.2656 2219.625,817.5313 Q2219.3906,817.7969 2219.0156,817.7969 Q2218.6719,817.7969 2218.4688,817.5938 Q2218.2656,817.4063 2218.1563,816.8906 Q2218.1094,816.5313 2217.9219,816.3438 Q2217.5938,815.9688 2216.9844,815.75 Q2216.375,815.5313 2215.75,815.5313 Q2214.9844,815.5313 2214.3516,815.8594 Q2213.7188,816.1875 2213.2266,816.9375 Q2212.7344,817.6875 2212.7344,818.7188 L2212.7344,819.8125 Q2212.7344,821.0469 2213.625,821.8672 Q2214.5156,822.6875 2216.1094,822.6875 Q2217.0469,822.6875 2217.7031,822.4375 Q2218.0938,822.2813 2218.5156,821.8438 Q2218.7813,821.5781 2218.9297,821.5 Q2219.0781,821.4219 2219.2813,821.4219 Q2219.6094,821.4219 2219.8672,821.6797 Q2220.125,821.9375 2220.125,822.2813 Q2220.125,822.625 2219.7813,823.0313 Q2219.2813,823.6094 2218.4844,823.9375 Q2217.4063,824.3906 2216.1094,824.3906 Q2214.5938,824.3906 2213.3906,823.7656 Q2212.4063,823.2656 2211.7188,822.1953 Q2211.0313,821.125 2211.0313,819.8438 L2211.0313,818.6875 Q2211.0313,817.3594 2211.6484,816.2109 Q2212.2656,815.0625 2213.3594,814.4453 Q2214.4531,813.8281 2215.6875,813.8281 Q2216.4219,813.8281 2217.0703,813.9922 Q2217.7188,814.1563 2218.2656,814.5156 Z "/><text fill="#CC0000" font-size="16" font-weight="bold" lengthAdjust="spacingAndGlyphs" textLength="111" x="2236" y="824.5781">QuackCounter</text><line style="stroke: #A80036; stroke-width: 1.5;" x1="2095.25" x2="2455.25" y1="834.6406" y2="834.6406"/><rect fill="none" height="6" style="stroke: #C82930; stroke-width: 1.0;" width="6" x="2102.25" y="846.5742"/><text fill="#000000" font-size="15" font-weight="bold" lengthAdjust="spacingAndGlyphs" textLength="117" x="2114.25" y="853.6406">Quackable duck;</text><rect fill="none" height="6" style="stroke: #C82930; stroke-width: 1.0;" width="6" x="2102.25" y="865.4414"/><text fill="#000000" font-size="15" font-weight="bold" lengthAdjust="spacingAndGlyphs" text-decoration="underline" textLength="154" x="2114.25" y="872.5078">int numberOFQuacks;</text><line style="stroke: #A80036; stroke-width: 1.5;" x1="2095.25" x2="2455.25" y1="880.375" y2="880.375"/><ellipse cx="2105.25" cy="895.3086" fill="#84BE84" rx="3" ry="3" style="stroke: #038048; stroke-width: 1.0;"/><text fill="#000000" font-size="15" font-weight="bold" lengthAdjust="spacingAndGlyphs" textLength="336" x="2114.25" y="899.375">QuackCouter(Quackable duck){this.duck=duck}</text><ellipse cx="2105.25" cy="914.1758" fill="#84BE84" rx="3" ry="3" style="stroke: #038048; stroke-width: 1.0;"/><text fill="#000000" font-size="15" font-weight="bold" lengthAdjust="spacingAndGlyphs" textLength="333" x="2114.25" y="918.2422">void quack(){duck.quack; numberOFQuacks++}</text><ellipse cx="2105.25" cy="933.043" fill="#84BE84" rx="3" ry="3" style="stroke: #038048; stroke-width: 1.0;"/><text fill="#000000" font-size="15" font-weight="bold" lengthAdjust="spacingAndGlyphs" text-decoration="underline" textLength="296" x="2114.25" y="937.1094">int getQuacks(){return numberOFQuacks}</text><ellipse cx="2105.25" cy="951.9102" fill="#84BE84" rx="3" ry="3" style="stroke: #038048; stroke-width: 1.0;"/><text fill="#000000" font-size="15" font-weight="bold" lengthAdjust="spacingAndGlyphs" textLength="160" x="2114.25" y="955.9766">void notifyObservers()</text><ellipse cx="2105.25" cy="970.7773" fill="#84BE84" rx="3" ry="3" style="stroke: #038048; stroke-width: 1.0;"/><text fill="#000000" font-size="15" font-weight="bold" lengthAdjust="spacingAndGlyphs" textLength="306" x="2114.25" y="974.8438">void registerObserver(Observer observer)</text><rect fill="#FEFECE" height="142.3359" style="stroke: #A80036; stroke-width: 1.5;" width="663" x="1479" y="176.6406"/><ellipse cx="1762.75" cy="192.6406" fill="#ADD1B2" rx="11" ry="11" style="stroke: #A80036; stroke-width: 1.0;"/><path d="M1765.5156,188.5156 Q1765.6719,188.2969 1765.8594,188.1875 Q1766.0469,188.0781 1766.2656,188.0781 Q1766.6406,188.0781 1766.875,188.3359 Q1767.1094,188.5938 1767.1094,189.2031 L1767.1094,190.6563 Q1767.1094,191.2656 1766.875,191.5313 Q1766.6406,191.7969 1766.2656,191.7969 Q1765.9219,191.7969 1765.7188,191.5938 Q1765.5156,191.4063 1765.4063,190.8906 Q1765.3594,190.5313 1765.1719,190.3438 Q1764.8438,189.9688 1764.2344,189.75 Q1763.625,189.5313 1763,189.5313 Q1762.2344,189.5313 1761.6016,189.8594 Q1760.9688,190.1875 1760.4766,190.9375 Q1759.9844,191.6875 1759.9844,192.7188 L1759.9844,193.8125 Q1759.9844,195.0469 1760.875,195.8672 Q1761.7656,196.6875 1763.3594,196.6875 Q1764.2969,196.6875 1764.9531,196.4375 Q1765.3438,196.2813 1765.7656,195.8438 Q1766.0313,195.5781 1766.1797,195.5 Q1766.3281,195.4219 1766.5313,195.4219 Q1766.8594,195.4219 1767.1172,195.6797 Q1767.375,195.9375 1767.375,196.2813 Q1767.375,196.625 1767.0313,197.0313 Q1766.5313,197.6094 1765.7344,197.9375 Q1764.6563,198.3906 1763.3594,198.3906 Q1761.8438,198.3906 1760.6406,197.7656 Q1759.6563,197.2656 1758.9688,196.1953 Q1758.2813,195.125 1758.2813,193.8438 L1758.2813,192.6875 Q1758.2813,191.3594 1758.8984,190.2109 Q1759.5156,189.0625 1760.6094,188.4453 Q1761.7031,187.8281 1762.9375,187.8281 Q1763.6719,187.8281 1764.3203,187.9922 Q1764.9688,188.1563 1765.5156,188.5156 Z "/><text fill="#CC0000" font-size="16" font-weight="bold" lengthAdjust="spacingAndGlyphs" textLength="87" x="1783.25" y="198.5781">Observable</text><line style="stroke: #A80036; stroke-width: 1.5;" x1="1480" x2="2141" y1="208.6406" y2="208.6406"/><rect fill="none" height="6" style="stroke: #C82930; stroke-width: 1.0;" width="6" x="1487" y="220.5742"/><text fill="#000000" font-size="15" font-weight="bold" lengthAdjust="spacingAndGlyphs" textLength="170" x="1499" y="227.6406">QuackObservable duck;</text><line style="stroke: #A80036; stroke-width: 1.5;" x1="1480" x2="2141" y1="235.5078" y2="235.5078"/><rect fill="#F24D5C" height="6" style="stroke: #C82930; stroke-width: 1.0;" width="6" x="1487" y="247.4414"/><text fill="#000000" font-size="15" font-weight="bold" lengthAdjust="spacingAndGlyphs" textLength="441" x="1499" y="254.5078">ArrayList &lt;Observer&gt; observers =new ArrayList &lt;Observer&gt;();</text><ellipse cx="1490" cy="269.3086" fill="#84BE84" rx="3" ry="3" style="stroke: #038048; stroke-width: 1.0;"/><text fill="#000000" font-size="15" font-weight="bold" lengthAdjust="spacingAndGlyphs" textLength="378" x="1499" y="273.375">Observable(QuackObservable duck){this.duck=duck}</text><ellipse cx="1490" cy="288.1758" fill="#84BE84" rx="3" ry="3" style="stroke: #038048; stroke-width: 1.0;"/><text fill="#000000" font-size="15" font-weight="bold" lengthAdjust="spacingAndGlyphs" textLength="496" x="1499" y="292.2422">void registerObserver(Observer observer){observers.add(observer)}</text><ellipse cx="1490" cy="307.043" fill="#84BE84" rx="3" ry="3" style="stroke: #038048; stroke-width: 1.0;"/><text fill="#000000" font-size="15" font-weight="bold" lengthAdjust="spacingAndGlyphs" textLength="637" x="1499" y="311.1094">void notifyObservers(for(QuackObservable observer: observers){observer.updat(duck)});</text><rect fill="#FEFECE" height="85.7344" style="stroke: #A80036; stroke-width: 1.5;" width="336" x="1642.25" y="30.6406"/><ellipse cx="1738.5" cy="46.6406" fill="#B4A7E5" rx="11" ry="11" style="stroke: #A80036; stroke-width: 1.0;"/><path d="M1739.4531,43.2813 L1739.4531,49.9375 L1741.1719,49.9375 Q1741.7813,49.9375 1742.0469,50.1719 Q1742.3125,50.4063 1742.3125,50.7969 Q1742.3125,51.1719 1742.0469,51.4063 Q1741.7813,51.6406 1741.1719,51.6406 L1736.0313,51.6406 Q1735.4219,51.6406 1735.1563,51.4063 Q1734.8906,51.1719 1734.8906,50.7813 Q1734.8906,50.4063 1735.1563,50.1719 Q1735.4219,49.9375 1736.0313,49.9375 L1737.75,49.9375 L1737.75,43.2813 L1736.0313,43.2813 Q1735.4219,43.2813 1735.1563,43.0469 Q1734.8906,42.8125 1734.8906,42.4219 Q1734.8906,42.0469 1735.1563,41.8125 Q1735.4219,41.5781 1736.0313,41.5781 L1741.1719,41.5781 Q1741.7813,41.5781 1742.0469,41.8125 Q1742.3125,42.0469 1742.3125,42.4219 Q1742.3125,42.8125 1742.0469,43.0469 Q1741.7813,43.2813 1741.1719,43.2813 L1739.4531,43.2813 Z "/><text fill="#CC0000" font-size="16" font-style="italic" font-weight="bold" lengthAdjust="spacingAndGlyphs" textLength="135" x="1759" y="52.5781">QuackObservable</text><line style="stroke: #A80036; stroke-width: 1.5;" x1="1643.25" x2="1977.25" y1="62.6406" y2="62.6406"/><line style="stroke: #A80036; stroke-width: 1.5;" x1="1643.25" x2="1977.25" y1="70.6406" y2="70.6406"/><ellipse cx="1653.25" cy="85.5742" fill="#84BE84" rx="3" ry="3" style="stroke: #038048; stroke-width: 1.0;"/><text fill="#000000" font-size="15" font-weight="bold" lengthAdjust="spacingAndGlyphs" textLength="310" x="1662.25" y="89.6406">void registerObserver(Observer observer);</text><ellipse cx="1653.25" cy="104.4414" fill="#84BE84" rx="3" ry="3" style="stroke: #038048; stroke-width: 1.0;"/><text fill="#000000" font-size="15" font-weight="bold" lengthAdjust="spacingAndGlyphs" textLength="164" x="1662.25" y="108.5078">void notifyObservers();</text><rect fill="#FEFECE" height="123.4688" style="stroke: #A80036; stroke-width: 1.5;" width="260" x="751.25" y="619.1406"/><ellipse cx="797" cy="635.1406" fill="#A9DCDF" rx="11" ry="11" style="stroke: #A80036; stroke-width: 1.0;"/><path d="M799.1875,636.9063 L795.0469,636.9063 L794.625,637.9375 L795.0469,637.9375 Q795.6563,637.9375 795.9219,638.1719 Q796.1875,638.4063 796.1875,638.7969 Q796.1875,639.1719 795.9219,639.4063 Q795.6563,639.6406 795.0469,639.6406 L792.75,639.6406 Q792.1406,639.6406 791.8828,639.4063 Q791.625,639.1719 791.625,638.7813 Q791.625,638.4063 791.8984,638.1641 Q792.1719,637.9219 792.7969,637.9375 L795.4688,631.2813 L794.3594,631.2813 Q793.75,631.2813 793.4844,631.0469 Q793.2188,630.8125 793.2188,630.4219 Q793.2188,630.0469 793.4844,629.8125 Q793.75,629.5781 794.3594,629.5781 L798.0313,629.5781 L801.4219,637.9375 Q802.0156,637.9375 802.2031,638.0781 Q802.5938,638.3438 802.5938,638.7969 Q802.5938,639.1719 802.3359,639.4063 Q802.0781,639.6406 801.4688,639.6406 L799.1719,639.6406 Q798.5625,639.6406 798.2969,639.4063 Q798.0313,639.1719 798.0313,638.7813 Q798.0313,638.4063 798.2969,638.1719 Q798.5625,637.9375 799.1719,637.9375 L799.5938,637.9375 L799.1875,636.9063 Z M798.4688,635.2031 L797.1094,631.8281 L795.7344,635.2031 L798.4688,635.2031 Z "/><text fill="#CC0000" font-size="16" font-style="italic" font-weight="bold" lengthAdjust="spacingAndGlyphs" textLength="160" x="817.5" y="641.0781">AbstractDuckFactory</text><line style="stroke: #A80036; stroke-width: 1.5;" x1="752.25" x2="1010.25" y1="651.1406" y2="651.1406"/><line style="stroke: #A80036; stroke-width: 1.5;" x1="752.25" x2="1010.25" y1="659.1406" y2="659.1406"/><ellipse cx="762.25" cy="674.0742" fill="#84BE84" rx="3" ry="3" style="stroke: #038048; stroke-width: 1.0;"/><text fill="#000000" font-size="15" font-style="italic" font-weight="bold" lengthAdjust="spacingAndGlyphs" textLength="232" x="771.25" y="678.1406">Quackable createMallaredDuck();</text><ellipse cx="762.25" cy="692.9414" fill="#84BE84" rx="3" ry="3" style="stroke: #038048; stroke-width: 1.0;"/><text fill="#000000" font-size="15" font-style="italic" font-weight="bold" lengthAdjust="spacingAndGlyphs" textLength="234" x="771.25" y="697.0078">Quackable createRedheadDuck();</text><ellipse cx="762.25" cy="711.8086" fill="#84BE84" rx="3" ry="3" style="stroke: #038048; stroke-width: 1.0;"/><text fill="#000000" font-size="15" font-style="italic" font-weight="bold" lengthAdjust="spacingAndGlyphs" textLength="199" x="771.25" y="715.875">Quackable createDuckCall();</text><ellipse cx="762.25" cy="730.6758" fill="#84BE84" rx="3" ry="3" style="stroke: #038048; stroke-width: 1.0;"/><text fill="#000000" font-size="15" font-style="italic" font-weight="bold" lengthAdjust="spacingAndGlyphs" textLength="224" x="771.25" y="734.7422">Quackable createRubberDuck();</text><rect fill="#FEFECE" height="123.4688" style="stroke: #A80036; stroke-width: 1.5;" width="613" x="6" y="831.1406"/><ellipse cx="223.75" cy="847.1406" fill="#ADD1B2" rx="11" ry="11" style="stroke: #A80036; stroke-width: 1.0;"/><path d="M226.5156,843.0156 Q226.6719,842.7969 226.8594,842.6875 Q227.0469,842.5781 227.2656,842.5781 Q227.6406,842.5781 227.875,842.8359 Q228.1094,843.0938 228.1094,843.7031 L228.1094,845.1563 Q228.1094,845.7656 227.875,846.0313 Q227.6406,846.2969 227.2656,846.2969 Q226.9219,846.2969 226.7188,846.0938 Q226.5156,845.9063 226.4063,845.3906 Q226.3594,845.0313 226.1719,844.8438 Q225.8438,844.4688 225.2344,844.25 Q224.625,844.0313 224,844.0313 Q223.2344,844.0313 222.6016,844.3594 Q221.9688,844.6875 221.4766,845.4375 Q220.9844,846.1875 220.9844,847.2188 L220.9844,848.3125 Q220.9844,849.5469 221.875,850.3672 Q222.7656,851.1875 224.3594,851.1875 Q225.2969,851.1875 225.9531,850.9375 Q226.3438,850.7813 226.7656,850.3438 Q227.0313,850.0781 227.1797,850 Q227.3281,849.9219 227.5313,849.9219 Q227.8594,849.9219 228.1172,850.1797 Q228.375,850.4375 228.375,850.7813 Q228.375,851.125 228.0313,851.5313 Q227.5313,852.1094 226.7344,852.4375 Q225.6563,852.8906 224.3594,852.8906 Q222.8438,852.8906 221.6406,852.2656 Q220.6563,851.7656 219.9688,850.6953 Q219.2813,849.625 219.2813,848.3438 L219.2813,847.1875 Q219.2813,845.8594 219.8984,844.7109 Q220.5156,843.5625 221.6094,842.9453 Q222.7031,842.3281 223.9375,842.3281 Q224.6719,842.3281 225.3203,842.4922 Q225.9688,842.6563 226.5156,843.0156 Z "/><text fill="#CC0000" font-size="16" font-weight="bold" lengthAdjust="spacingAndGlyphs" textLength="169" x="244.25" y="853.0781">CountingDuckFactory</text><line style="stroke: #A80036; stroke-width: 1.5;" x1="7" x2="618" y1="863.1406" y2="863.1406"/><line style="stroke: #A80036; stroke-width: 1.5;" x1="7" x2="618" y1="871.1406" y2="871.1406"/><ellipse cx="17" cy="886.0742" fill="#84BE84" rx="3" ry="3" style="stroke: #038048; stroke-width: 1.0;"/><text fill="#000000" font-size="15" font-weight="bold" lengthAdjust="spacingAndGlyphs" textLength="563" x="26" y="890.1406">Quackable createMallardDuck(){return new QuackCounter(new MallardDuck()) }</text><ellipse cx="17" cy="904.9414" fill="#84BE84" rx="3" ry="3" style="stroke: #038048; stroke-width: 1.0;"/><text fill="#000000" font-size="15" font-weight="bold" lengthAdjust="spacingAndGlyphs" textLength="587" x="26" y="909.0078">Quackable createRedheadDuck(){return new QuackCounter(new RedheadDuck()) }</text><ellipse cx="17" cy="923.8086" fill="#84BE84" rx="3" ry="3" style="stroke: #038048; stroke-width: 1.0;"/><text fill="#000000" font-size="15" font-weight="bold" lengthAdjust="spacingAndGlyphs" textLength="537" x="26" y="927.875">Quackable createDuckCall()   {return new QuackCounter(new    DuckCall()) }</text><ellipse cx="17" cy="942.6758" fill="#84BE84" rx="3" ry="3" style="stroke: #038048; stroke-width: 1.0;"/><text fill="#000000" font-size="15" font-weight="bold" lengthAdjust="spacingAndGlyphs" textLength="573" x="26" y="946.7422">Quackable createRubberDuck() {return new QuackCounter(new  RubberDuck()) }</text><rect fill="#FEFECE" height="123.4688" style="stroke: #A80036; stroke-width: 1.5;" width="455" x="654" y="831.1406"/><ellipse cx="828.25" cy="847.1406" fill="#ADD1B2" rx="11" ry="11" style="stroke: #A80036; stroke-width: 1.0;"/><path d="M831.0156,843.0156 Q831.1719,842.7969 831.3594,842.6875 Q831.5469,842.5781 831.7656,842.5781 Q832.1406,842.5781 832.375,842.8359 Q832.6094,843.0938 832.6094,843.7031 L832.6094,845.1563 Q832.6094,845.7656 832.375,846.0313 Q832.1406,846.2969 831.7656,846.2969 Q831.4219,846.2969 831.2188,846.0938 Q831.0156,845.9063 830.9063,845.3906 Q830.8594,845.0313 830.6719,844.8438 Q830.3438,844.4688 829.7344,844.25 Q829.125,844.0313 828.5,844.0313 Q827.7344,844.0313 827.1016,844.3594 Q826.4688,844.6875 825.9766,845.4375 Q825.4844,846.1875 825.4844,847.2188 L825.4844,848.3125 Q825.4844,849.5469 826.375,850.3672 Q827.2656,851.1875 828.8594,851.1875 Q829.7969,851.1875 830.4531,850.9375 Q830.8438,850.7813 831.2656,850.3438 Q831.5313,850.0781 831.6797,850 Q831.8281,849.9219 832.0313,849.9219 Q832.3594,849.9219 832.6172,850.1797 Q832.875,850.4375 832.875,850.7813 Q832.875,851.125 832.5313,851.5313 Q832.0313,852.1094 831.2344,852.4375 Q830.1563,852.8906 828.8594,852.8906 Q827.3438,852.8906 826.1406,852.2656 Q825.1563,851.7656 824.4688,850.6953 Q823.7813,849.625 823.7813,848.3438 L823.7813,847.1875 Q823.7813,845.8594 824.3984,844.7109 Q825.0156,843.5625 826.1094,842.9453 Q827.2031,842.3281 828.4375,842.3281 Q829.1719,842.3281 829.8203,842.4922 Q830.4688,842.6563 831.0156,843.0156 Z "/><text fill="#CC0000" font-size="16" font-weight="bold" lengthAdjust="spacingAndGlyphs" textLength="98" x="848.75" y="853.0781">DuckFactory</text><line style="stroke: #A80036; stroke-width: 1.5;" x1="655" x2="1108" y1="863.1406" y2="863.1406"/><line style="stroke: #A80036; stroke-width: 1.5;" x1="655" x2="1108" y1="871.1406" y2="871.1406"/><ellipse cx="665" cy="886.0742" fill="#84BE84" rx="3" ry="3" style="stroke: #038048; stroke-width: 1.0;"/><text fill="#000000" font-size="15" font-weight="bold" lengthAdjust="spacingAndGlyphs" textLength="423" x="674" y="890.1406">Quackable createMallaredDuck(return new MallaredDuck());</text><ellipse cx="665" cy="904.9414" fill="#84BE84" rx="3" ry="3" style="stroke: #038048; stroke-width: 1.0;"/><text fill="#000000" font-size="15" font-weight="bold" lengthAdjust="spacingAndGlyphs" textLength="429" x="674" y="909.0078">Quackable createRedheadDuck(return new RedheadDuck());</text><ellipse cx="665" cy="923.8086" fill="#84BE84" rx="3" ry="3" style="stroke: #038048; stroke-width: 1.0;"/><text fill="#000000" font-size="15" font-weight="bold" lengthAdjust="spacingAndGlyphs" textLength="350" x="674" y="927.875">Quackable createDuckCall(return new DuckCall();</text><ellipse cx="665" cy="942.6758" fill="#84BE84" rx="3" ry="3" style="stroke: #038048; stroke-width: 1.0;"/><text fill="#000000" font-size="15" font-weight="bold" lengthAdjust="spacingAndGlyphs" textLength="407" x="674" y="946.7422">Quackable createRubberDuck(return new RubberDuck());</text><rect fill="#FEFECE" height="66.8672" style="stroke: #A80036; stroke-width: 1.5;" width="290" x="1216.25" y="40.1406"/><ellipse cx="1322" cy="56.1406" fill="#B4A7E5" rx="11" ry="11" style="stroke: #A80036; stroke-width: 1.0;"/><path d="M1322.9531,52.7813 L1322.9531,59.4375 L1324.6719,59.4375 Q1325.2813,59.4375 1325.5469,59.6719 Q1325.8125,59.9063 1325.8125,60.2969 Q1325.8125,60.6719 1325.5469,60.9063 Q1325.2813,61.1406 1324.6719,61.1406 L1319.5313,61.1406 Q1318.9219,61.1406 1318.6563,60.9063 Q1318.3906,60.6719 1318.3906,60.2813 Q1318.3906,59.9063 1318.6563,59.6719 Q1318.9219,59.4375 1319.5313,59.4375 L1321.25,59.4375 L1321.25,52.7813 L1319.5313,52.7813 Q1318.9219,52.7813 1318.6563,52.5469 Q1318.3906,52.3125 1318.3906,51.9219 Q1318.3906,51.5469 1318.6563,51.3125 Q1318.9219,51.0781 1319.5313,51.0781 L1324.6719,51.0781 Q1325.2813,51.0781 1325.5469,51.3125 Q1325.8125,51.5469 1325.8125,51.9219 Q1325.8125,52.3125 1325.5469,52.5469 Q1325.2813,52.7813 1324.6719,52.7813 L1322.9531,52.7813 Z "/><text fill="#CC0000" font-size="16" font-style="italic" font-weight="bold" lengthAdjust="spacingAndGlyphs" textLength="70" x="1342.5" y="62.0781">Observer</text><line style="stroke: #A80036; stroke-width: 1.5;" x1="1217.25" x2="1505.25" y1="72.1406" y2="72.1406"/><line style="stroke: #A80036; stroke-width: 1.5;" x1="1217.25" x2="1505.25" y1="80.1406" y2="80.1406"/><ellipse cx="1227.25" cy="95.0742" fill="#84BE84" rx="3" ry="3" style="stroke: #038048; stroke-width: 1.0;"/><text fill="#000000" font-size="15" font-weight="bold" lengthAdjust="spacingAndGlyphs" textLength="264" x="1236.25" y="99.1406">void update(QuackObservable duck);</text><rect fill="#FEFECE" height="66.8672" style="stroke: #A80036; stroke-width: 1.5;" width="369" x="1075" y="214.1406"/><ellipse cx="1204.75" cy="230.1406" fill="#ADD1B2" rx="11" ry="11" style="stroke: #A80036; stroke-width: 1.0;"/><path d="M1207.5156,226.0156 Q1207.6719,225.7969 1207.8594,225.6875 Q1208.0469,225.5781 1208.2656,225.5781 Q1208.6406,225.5781 1208.875,225.8359 Q1209.1094,226.0938 1209.1094,226.7031 L1209.1094,228.1563 Q1209.1094,228.7656 1208.875,229.0313 Q1208.6406,229.2969 1208.2656,229.2969 Q1207.9219,229.2969 1207.7188,229.0938 Q1207.5156,228.9063 1207.4063,228.3906 Q1207.3594,228.0313 1207.1719,227.8438 Q1206.8438,227.4688 1206.2344,227.25 Q1205.625,227.0313 1205,227.0313 Q1204.2344,227.0313 1203.6016,227.3594 Q1202.9688,227.6875 1202.4766,228.4375 Q1201.9844,229.1875 1201.9844,230.2188 L1201.9844,231.3125 Q1201.9844,232.5469 1202.875,233.3672 Q1203.7656,234.1875 1205.3594,234.1875 Q1206.2969,234.1875 1206.9531,233.9375 Q1207.3438,233.7813 1207.7656,233.3438 Q1208.0313,233.0781 1208.1797,233 Q1208.3281,232.9219 1208.5313,232.9219 Q1208.8594,232.9219 1209.1172,233.1797 Q1209.375,233.4375 1209.375,233.7813 Q1209.375,234.125 1209.0313,234.5313 Q1208.5313,235.1094 1207.7344,235.4375 Q1206.6563,235.8906 1205.3594,235.8906 Q1203.8438,235.8906 1202.6406,235.2656 Q1201.6563,234.7656 1200.9688,233.6953 Q1200.2813,232.625 1200.2813,231.3438 L1200.2813,230.1875 Q1200.2813,228.8594 1200.8984,227.7109 Q1201.5156,226.5625 1202.6094,225.9453 Q1203.7031,225.3281 1204.9375,225.3281 Q1205.6719,225.3281 1206.3203,225.4922 Q1206.9688,225.6563 1207.5156,226.0156 Z "/><text fill="#CC0000" font-size="16" font-weight="bold" lengthAdjust="spacingAndGlyphs" textLength="101" x="1225.25" y="236.0781">Quackologist</text><line style="stroke: #A80036; stroke-width: 1.5;" x1="1076" x2="1443" y1="246.1406" y2="246.1406"/><line style="stroke: #A80036; stroke-width: 1.5;" x1="1076" x2="1443" y1="254.1406" y2="254.1406"/><ellipse cx="1086" cy="269.0742" fill="#84BE84" rx="3" ry="3" style="stroke: #038048; stroke-width: 1.0;"/><text fill="#000000" font-size="15" font-weight="bold" lengthAdjust="spacingAndGlyphs" textLength="343" x="1095" y="273.1406">void update(QuackObservable duck){print duck}</text><rect fill="#FEFECE" height="66.8672" style="stroke: #A80036; stroke-width: 1.5;" width="210" x="2503.25" y="214.1406"/><ellipse cx="2579" cy="230.1406" fill="#ADD1B2" rx="11" ry="11" style="stroke: #A80036; stroke-width: 1.0;"/><path d="M2581.7656,226.0156 Q2581.9219,225.7969 2582.1094,225.6875 Q2582.2969,225.5781 2582.5156,225.5781 Q2582.8906,225.5781 2583.125,225.8359 Q2583.3594,226.0938 2583.3594,226.7031 L2583.3594,228.1563 Q2583.3594,228.7656 2583.125,229.0313 Q2582.8906,229.2969 2582.5156,229.2969 Q2582.1719,229.2969 2581.9688,229.0938 Q2581.7656,228.9063 2581.6563,228.3906 Q2581.6094,228.0313 2581.4219,227.8438 Q2581.0938,227.4688 2580.4844,227.25 Q2579.875,227.0313 2579.25,227.0313 Q2578.4844,227.0313 2577.8516,227.3594 Q2577.2188,227.6875 2576.7266,228.4375 Q2576.2344,229.1875 2576.2344,230.2188 L2576.2344,231.3125 Q2576.2344,232.5469 2577.125,233.3672 Q2578.0156,234.1875 2579.6094,234.1875 Q2580.5469,234.1875 2581.2031,233.9375 Q2581.5938,233.7813 2582.0156,233.3438 Q2582.2813,233.0781 2582.4297,233 Q2582.5781,232.9219 2582.7813,232.9219 Q2583.1094,232.9219 2583.3672,233.1797 Q2583.625,233.4375 2583.625,233.7813 Q2583.625,234.125 2583.2813,234.5313 Q2582.7813,235.1094 2581.9844,235.4375 Q2580.9063,235.8906 2579.6094,235.8906 Q2578.0938,235.8906 2576.8906,235.2656 Q2575.9063,234.7656 2575.2188,233.6953 Q2574.5313,232.625 2574.5313,231.3438 L2574.5313,230.1875 Q2574.5313,228.8594 2575.1484,227.7109 Q2575.7656,226.5625 2576.8594,225.9453 Q2577.9531,225.3281 2579.1875,225.3281 Q2579.9219,225.3281 2580.5703,225.4922 Q2581.2188,225.6563 2581.7656,226.0156 Z "/><text fill="#CC0000" font-size="16" font-weight="bold" lengthAdjust="spacingAndGlyphs" textLength="50" x="2599.5" y="236.0781">Goose</text><line style="stroke: #A80036; stroke-width: 1.5;" x1="2504.25" x2="2712.25" y1="246.1406" y2="246.1406"/><line style="stroke: #A80036; stroke-width: 1.5;" x1="2504.25" x2="2712.25" y1="254.1406" y2="254.1406"/><ellipse cx="2514.25" cy="269.0742" fill="#84BE84" rx="3" ry="3" style="stroke: #038048; stroke-width: 1.0;"/><text fill="#000000" font-size="15" font-weight="bold" lengthAdjust="spacingAndGlyphs" textLength="184" x="2523.25" y="273.1406">void honk(){print("honk")}</text><path d="M1731.6,716.4136 C1655.47,750.0696 1539.14,801.5016 1452.17,839.9516 " fill="none" style="stroke: #0000FF; stroke-width: 1.0; stroke-dasharray: 7.0,7.0;"/><polygon fill="#0000FF" points="1736.55,714.2226,1726.7011,714.2158,1731.9795,716.2501,1729.9452,721.5285,1736.55,714.2226" style="stroke: #0000FF; stroke-width: 1.0;"/><path d="M1800.17,719.5996 C1797.52,747.8746 1796.84,787.2996 1798.14,821.2756 " fill="none" style="stroke: #0000FF; stroke-width: 1.0; stroke-dasharray: 7.0,7.0;"/><polygon fill="#0000FF" points="1800.69,714.4526,1795.807,723.0058,1800.1882,719.4274,1803.7666,723.8086,1800.69,714.4526" style="stroke: #0000FF; stroke-width: 1.0;"/><path d="M1822.15,734.5236 C1823.91,760.8116 1824.22,792.9386 1823.07,821.2756 " fill="none" style="stroke: #0000FF; stroke-width: 1.0; stroke-dasharray: 7.0,7.0;"/><polygon fill="none" points="1815.16,734.9916,1820.38,714.4526,1829.11,733.7596,1815.16,734.9916" style="stroke: #0000FF; stroke-width: 1.0;"/><path d="M1982.65,539.8596 C1944.23,571.0096 1900.13,606.7646 1866.15,634.3136 " fill="none" style="stroke: #0000FF; stroke-width: 1.0; stroke-dasharray: 7.0,7.0;"/><polygon fill="none" points="1870.3,639.9646,1850.35,647.1236,1861.48,629.0896,1870.3,639.9646" style="stroke: #0000FF; stroke-width: 1.0;"/><path d="M1650.16,549.3316 C1685.44,578.0516 1724.02,609.4566 1754.47,634.2396 " fill="none" style="stroke: #0000FF; stroke-width: 1.0; stroke-dasharray: 7.0,7.0;"/><polygon fill="none" points="1758.94,628.8516,1770.03,646.9056,1750.1,639.7086,1758.94,628.8516" style="stroke: #0000FF; stroke-width: 1.0;"/><path d="M1344.43,549.1876 C1352.43,552.5126 1360.4,555.6856 1368.25,558.6406 C1471.92,597.6526 1593.55,630.0186 1682.95,651.4296 " fill="none" style="stroke: #0000FF; stroke-width: 1.0; stroke-dasharray: 7.0,7.0;"/><polygon fill="none" points="1684.81,644.6766,1702.66,656.0976,1681.59,658.2996,1684.81,644.6766" style="stroke: #0000FF; stroke-width: 1.0;"/><path d="M973.957,549.1976 C983.085,552.6576 992.223,555.8426 1001.25,558.6406 C1235.24,631.1656 1521.21,660.8916 1682.87,672.5666 " fill="none" style="stroke: #0000FF; stroke-width: 1.0; stroke-dasharray: 7.0,7.0;"/><polygon fill="none" points="1683.45,665.5906,1702.91,673.9676,1682.47,679.5566,1683.45,665.5906" style="stroke: #0000FF; stroke-width: 1.0;"/><path d="M2420.17,552.4076 C2413.82,554.5936 2407.5,556.6796 2401.25,558.6406 C2244.75,607.7396 2058.55,642.0486 1937.56,661.2896 " fill="none" style="stroke: #0000FF; stroke-width: 1.0; stroke-dasharray: 7.0,7.0;"/><polygon fill="none" points="1938.44,668.2356,1917.6,664.4196,1936.27,654.4046,1938.44,668.2356" style="stroke: #0000FF; stroke-width: 1.0;"/><path d="M1911.19,722.2896 C1964.72,745.4966 2032.02,775.5296 2094.19,803.8466 " fill="none" style="stroke: #0000FF; stroke-width: 1.0; stroke-dasharray: 7.0,7.0;"/><polygon fill="none" points="1908.08,728.5736,1892.49,714.2226,1913.63,715.7196,1908.08,728.5736" style="stroke: #0000FF; stroke-width: 1.0;"/><path d="M1877.58,716.4616 C1934.33,743.3306 2018.02,781.5076 2094.04,815.3676 " fill="none" style="stroke: #0000FF; stroke-width: 1.0;"/><polygon fill="#0000FF" points="1872.86,714.2226,1879.2779,721.6932,1877.3777,716.3651,1882.7059,714.4649,1872.86,714.2226" style="stroke: #0000FF; stroke-width: 1.0;"/><path d="M2146.83,311.1166 C2230.77,329.8486 2319.99,352.4946 2401.25,378.6406 C2407.49,380.6476 2413.79,382.7726 2420.14,384.9926 " fill="none" style="stroke: #0000FF; stroke-width: 1.0;"/><polygon fill="#0000FF" points="2141.82,310.0016,2149.7365,315.8607,2146.7007,311.0875,2151.4739,308.0516,2141.82,310.0016" style="stroke: #0000FF; stroke-width: 1.0;"/><path d="M1897.12,322.0956 C1925.88,346.4136 1957.8,373.4006 1986.26,397.4656 " fill="none" style="stroke: #0000FF; stroke-width: 1.0;"/><polygon fill="#0000FF" points="1893.27,318.8376,1897.5585,327.7038,1897.0876,322.0666,1902.7248,321.5957,1893.27,318.8376" style="stroke: #0000FF; stroke-width: 1.0;"/><path d="M1723.58,322.2106 C1698.69,343.3366 1671.44,366.4696 1646.14,387.9476 " fill="none" style="stroke: #0000FF; stroke-width: 1.0;"/><polygon fill="#0000FF" points="1727.55,318.8376,1718.0972,321.6026,1723.7348,322.0694,1723.2681,327.707,1727.55,318.8376" style="stroke: #0000FF; stroke-width: 1.0;"/><path d="M1540.64,320.1596 C1483.14,337.5676 1423.21,357.3646 1368.25,378.6406 C1360.59,381.6056 1352.81,384.7666 1345,388.0636 " fill="none" style="stroke: #0000FF; stroke-width: 1.0;"/><polygon fill="#0000FF" points="1545.48,318.6976,1535.7086,317.465,1540.6927,320.1405,1538.0172,325.1247,1545.48,318.6976" style="stroke: #0000FF; stroke-width: 1.0;"/><path d="M1473.81,316.3726 C1469.26,317.1426 1464.74,317.8986 1460.25,318.6406 C1257.26,352.1666 1198.32,319.5496 1001.25,378.6406 C992.029,381.4056 982.697,384.5906 973.383,388.0746 " fill="none" style="stroke: #0000FF; stroke-width: 1.0;"/><polygon fill="#0000FF" points="1478.75,315.5316,1469.2046,313.1055,1473.8215,316.3742,1470.5528,320.9911,1478.75,315.5316" style="stroke: #0000FF; stroke-width: 1.0;"/><path d="M1998.53,85.3286 C2250.64,101.1816 2673.05,133.7316 2730.25,176.6406 C2869.31,280.9496 2929.58,428.5756 2814.25,558.6406 C2755.43,624.9786 2164.32,661.9636 1917.57,674.6156 " fill="none" style="stroke: #0000FF; stroke-width: 1.0;"/><polygon fill="none" points="1997.96,92.3066,1978.43,84.0776,1998.83,78.3346,1997.96,92.3066" style="stroke: #0000FF; stroke-width: 1.0;"/><path d="M1798.73,121.8676 C1797.58,138.7406 1797.24,158.1306 1797.7,176.5176 " fill="none" style="stroke: #0000FF; stroke-width: 1.0;"/><polygon fill="#0000FF" points="1799.11,116.7166,1794.4549,125.3959,1798.74,121.7029,1802.433,125.988,1799.11,116.7166" style="stroke: #0000FF; stroke-width: 1.0;"/><path d="M1823.28,136.7976 C1823.8,149.6916 1823.89,163.3616 1823.54,176.5176 " fill="none" style="stroke: #0000FF; stroke-width: 1.0; stroke-dasharray: 7.0,7.0;"/><polygon fill="none" points="1816.28,137.1086,1822.04,116.7166,1830.26,136.2496,1816.28,137.1086" style="stroke: #0000FF; stroke-width: 1.0;"/><path d="M1016.09,744.0106 C1082.21,774.5966 1160.91,810.9976 1223.61,839.9996 " fill="none" style="stroke: #0000FF; stroke-width: 1.0; stroke-dasharray: 7.0,7.0;"/><polygon fill="#0000FF" points="1011.35,741.8186,1017.8383,749.2282,1015.8878,743.9183,1021.1977,741.9677,1011.35,741.8186" style="stroke: #0000FF; stroke-width: 1.0;"/><path d="M732.015,736.7186 C653.44,765.7176 556.924,801.3396 476.259,831.1096 " fill="none" style="stroke: #0000FF; stroke-width: 1.0;"/><polygon fill="none" points="729.88,730.0446,751.067,729.6876,734.727,743.1786,729.88,730.0446" style="stroke: #0000FF; stroke-width: 1.0;"/><path d="M881.25,762.6786 C881.25,785.4066 881.25,809.7176 881.25,831.0366 " fill="none" style="stroke: #0000FF; stroke-width: 1.0;"/><polygon fill="none" points="874.25,762.3816,881.25,742.3816,888.25,762.3816,874.25,762.3816" style="stroke: #0000FF; stroke-width: 1.0;"/><path d="M1331.53,124.7506 C1314.47,153.5176 1293.54,188.8126 1278.6,214.0056 " fill="none" style="stroke: #0000FF; stroke-width: 1.0; stroke-dasharray: 7.0,7.0;"/><polygon fill="none" points="1325.6,121.0296,1341.82,107.3976,1337.64,128.1706,1325.6,121.0296" style="stroke: #0000FF; stroke-width: 1.0;"/><path d="M1451.07,109.0476 C1501.52,128.3746 1566.37,153.2166 1627.05,176.4626 " fill="none" style="stroke: #0000FF; stroke-width: 1.0; stroke-dasharray: 7.0,7.0;"/><polygon fill="#0000FF" points="1446.23,107.1946,1453.1885,114.1645,1450.8953,108.9933,1456.0664,106.7001,1446.23,107.1946" style="stroke: #0000FF; stroke-width: 1.0;"/><path d="M1506.39,73.6406 C1551.59,73.6406 1596.79,73.6406 1642,73.6406 " fill="none" style="stroke: #0000FF; stroke-width: 1.0; stroke-dasharray: 7.0,7.0;"/><path d="M2608.25,286.6836 C2608.25,311.9766 2608.25,346.2996 2608.25,378.2556 " fill="none" style="stroke: #0000FF; stroke-width: 1.0;"/><polygon fill="#0000FF" points="2608.25,281.4276,2604.25,290.4276,2608.25,286.4276,2612.25,290.4276,2608.25,281.4276" style="stroke: #0000FF; stroke-width: 1.0;"/></g></svg>