<?xml version="1.0" encoding="UTF-8" standalone="yes"?><svg xmlns="http://www.w3.org/2000/svg" xmlns:xlink="http://www.w3.org/1999/xlink" height="1151pt" style="width:1809px;height:1151px;" version="1.1" viewBox="0 0 1809 1151" width="1809pt"><defs/><g><text fill="#000000" font-size="18" lengthAdjust="spacingAndGlyphs" textLength="206" x="810" y="18">compound pattern objects</text><rect fill="#FEFECE" height="40.125" style="stroke: #A80036; stroke-width: 1.5;" width="201" x="367.75" y="36.6406"/><text fill="#DD0000" font-size="16" font-weight="bold" lengthAdjust="spacingAndGlyphs" textLength="187" x="374.75" y="54.6406">CountingDuckFactory20</text><line style="stroke: #A80036; stroke-width: 1.5;" x1="368.75" x2="567.75" y1="60.7656" y2="60.7656"/><rect fill="#FEFECE" height="50.9922" style="stroke: #A80036; stroke-width: 1.5;" width="183" x="395.75" y="338.1406"/><text fill="#DD0000" font-size="16" font-weight="bold" lengthAdjust="spacingAndGlyphs" textLength="129" x="422.75" y="356.1406">QuackCounter23</text><line style="stroke: #A80036; stroke-width: 1.5;" x1="396.75" x2="577.75" y1="362.2656" y2="362.2656"/><text fill="#000000" font-size="15" font-weight="bold" lengthAdjust="spacingAndGlyphs" textLength="171" x="401.75" y="381.2656">duck = RedheadDuck29;</text><rect fill="#FEFECE" height="50.9922" style="stroke: #A80036; stroke-width: 1.5;" width="208" x="330" y="487.1406"/><text fill="#DD0000" font-size="16" font-weight="bold" lengthAdjust="spacingAndGlyphs" textLength="127" x="370.5" y="505.1406">RedheadDuck29</text><line style="stroke: #A80036; stroke-width: 1.5;" x1="331" x2="537" y1="511.2656" y2="511.2656"/><text fill="#000000" font-size="15" font-weight="bold" lengthAdjust="spacingAndGlyphs" textLength="196" x="336" y="530.2656">observable = Observable31</text><rect fill="#FEFECE" height="69.8594" style="stroke: #A80036; stroke-width: 1.5;" width="180" x="344" y="626.6406"/><text fill="#DD0000" font-size="16" font-weight="bold" lengthAdjust="spacingAndGlyphs" textLength="105" x="381.5" y="644.6406">Observable31</text><line style="stroke: #A80036; stroke-width: 1.5;" x1="345" x2="523" y1="650.7656" y2="650.7656"/><text fill="#000000" font-size="15" font-weight="bold" lengthAdjust="spacingAndGlyphs" textLength="159" x="350" y="669.7656">duck=RedheadDuck29</text><text fill="#000000" font-size="15" font-weight="bold" lengthAdjust="spacingAndGlyphs" textLength="168" x="350" y="688.6328">observers = ArrayList33</text><rect fill="#FEFECE" height="50.9922" style="stroke: #A80036; stroke-width: 1.5;" width="121" x="435.75" y="878.1406"/><text fill="#DD0000" font-size="16" font-weight="bold" lengthAdjust="spacingAndGlyphs" textLength="87" x="452.75" y="896.1406">ArrayList33</text><line style="stroke: #A80036; stroke-width: 1.5;" x1="436.75" x2="555.75" y1="902.2656" y2="902.2656"/><text fill="#000000" font-size="15" font-weight="bold" lengthAdjust="spacingAndGlyphs" textLength="109" x="441.75" y="921.2656">Quackologist91</text><rect fill="#FEFECE" height="40.125" style="stroke: #A80036; stroke-width: 1.5;" width="133" x="784.75" y="1110.6406"/><text fill="#DD0000" font-size="16" font-weight="bold" lengthAdjust="spacingAndGlyphs" textLength="119" x="791.75" y="1128.6406">Quackologist91</text><line style="stroke: #A80036; stroke-width: 1.5;" x1="785.75" x2="916.75" y1="1134.7656" y2="1134.7656"/><rect fill="#FEFECE" height="50.9922" style="stroke: #A80036; stroke-width: 1.5;" width="143" x="217.75" y="338.1406"/><text fill="#DD0000" font-size="16" font-weight="bold" lengthAdjust="spacingAndGlyphs" textLength="129" x="224.75" y="356.1406">QuackCounter27</text><line style="stroke: #A80036; stroke-width: 1.5;" x1="218.75" x2="359.75" y1="362.2656" y2="362.2656"/><text fill="#000000" font-size="15" font-weight="bold" lengthAdjust="spacingAndGlyphs" textLength="130" x="223.75" y="381.2656">duck = DuckCall46</text><rect fill="#FEFECE" height="50.9922" style="stroke: #A80036; stroke-width: 1.5;" width="208" x="87" y="487.1406"/><text fill="#DD0000" font-size="16" font-weight="bold" lengthAdjust="spacingAndGlyphs" textLength="87" x="147.5" y="505.1406">DuckCall46</text><line style="stroke: #A80036; stroke-width: 1.5;" x1="88" x2="294" y1="511.2656" y2="511.2656"/><text fill="#000000" font-size="15" font-weight="bold" lengthAdjust="spacingAndGlyphs" textLength="196" x="93" y="530.2656">observable = Observable48</text><rect fill="#FEFECE" height="69.8594" style="stroke: #A80036; stroke-width: 1.5;" width="176" x="6" y="328.6406"/><text fill="#DD0000" font-size="16" font-weight="bold" lengthAdjust="spacingAndGlyphs" textLength="105" x="41.5" y="346.6406">Observable48</text><line style="stroke: #A80036; stroke-width: 1.5;" x1="7" x2="181" y1="352.7656" y2="352.7656"/><text fill="#000000" font-size="15" font-weight="bold" lengthAdjust="spacingAndGlyphs" textLength="130" x="12" y="371.7656">duck = DuckCall46</text><text fill="#000000" font-size="15" font-weight="bold" lengthAdjust="spacingAndGlyphs" textLength="164" x="12" y="390.6328">observers= ArrayList49</text><rect fill="#FEFECE" height="50.9922" style="stroke: #A80036; stroke-width: 1.5;" width="121" x="172.75" y="999.1406"/><text fill="#DD0000" font-size="16" font-weight="bold" lengthAdjust="spacingAndGlyphs" textLength="87" x="189.75" y="1017.1406">ArrayList49</text><line style="stroke: #A80036; stroke-width: 1.5;" x1="173.75" x2="292.75" y1="1023.2656" y2="1023.2656"/><text fill="#000000" font-size="15" font-weight="bold" lengthAdjust="spacingAndGlyphs" textLength="109" x="178.75" y="1042.2656">Quackologist91</text><rect fill="#FEFECE" height="50.9922" style="stroke: #A80036; stroke-width: 1.5;" width="160" x="614" y="338.1406"/><text fill="#DD0000" font-size="16" font-weight="bold" lengthAdjust="spacingAndGlyphs" textLength="129" x="629.5" y="356.1406">QuackCounter28</text><line style="stroke: #A80036; stroke-width: 1.5;" x1="615" x2="773" y1="362.2656" y2="362.2656"/><text fill="#000000" font-size="15" font-weight="bold" lengthAdjust="spacingAndGlyphs" textLength="148" x="620" y="381.2656">duck=RubberDuck51</text><rect fill="#FEFECE" height="50.9922" style="stroke: #A80036; stroke-width: 1.5;" width="216" x="573" y="487.1406"/><text fill="#DD0000" font-size="16" font-weight="bold" lengthAdjust="spacingAndGlyphs" textLength="115" x="623.5" y="505.1406">RubberDuck51</text><line style="stroke: #A80036; stroke-width: 1.5;" x1="574" x2="788" y1="511.2656" y2="511.2656"/><text fill="#000000" font-size="15" font-weight="bold" lengthAdjust="spacingAndGlyphs" textLength="204" x="579" y="530.2656">observable = Observable109</text><rect fill="#FEFECE" height="69.8594" style="stroke: #A80036; stroke-width: 1.5;" width="188" x="587" y="626.6406"/><text fill="#DD0000" font-size="16" font-weight="bold" lengthAdjust="spacingAndGlyphs" textLength="114" x="624" y="644.6406">Observable109</text><line style="stroke: #A80036; stroke-width: 1.5;" x1="588" x2="774" y1="650.7656" y2="650.7656"/><text fill="#000000" font-size="15" font-weight="bold" lengthAdjust="spacingAndGlyphs" textLength="156" x="593" y="669.7656">duck = RubberDuck51</text><text fill="#000000" font-size="15" font-weight="bold" lengthAdjust="spacingAndGlyphs" textLength="176" x="593" y="688.6328">observers = ArrayList112</text><rect fill="#FEFECE" height="50.9922" style="stroke: #A80036; stroke-width: 1.5;" width="121" x="534.75" y="757.1406"/><text fill="#DD0000" font-size="16" font-weight="bold" lengthAdjust="spacingAndGlyphs" textLength="96" x="547.25" y="775.1406">ArrayList112</text><line style="stroke: #A80036; stroke-width: 1.5;" x1="535.75" x2="654.75" y1="781.2656" y2="781.2656"/><text fill="#000000" font-size="15" font-weight="bold" lengthAdjust="spacingAndGlyphs" textLength="109" x="540.75" y="800.2656">Quackologist91</text><rect fill="#FEFECE" height="69.8594" style="stroke: #A80036; stroke-width: 1.5;" width="216" x="862" y="328.6406"/><text fill="#DD0000" font-size="16" font-weight="bold" lengthAdjust="spacingAndGlyphs" textLength="128" x="906" y="346.6406">GooseAdapter53</text><line style="stroke: #A80036; stroke-width: 1.5;" x1="863" x2="1077" y1="352.7656" y2="352.7656"/><text fill="#000000" font-size="15" font-weight="bold" lengthAdjust="spacingAndGlyphs" textLength="132" x="868" y="371.7656">goose = Goose121</text><text fill="#000000" font-size="15" font-weight="bold" lengthAdjust="spacingAndGlyphs" textLength="204" x="868" y="390.6328">observable = Observable123</text><rect fill="#FEFECE" height="40.125" style="stroke: #A80036; stroke-width: 1.5;" width="91" x="824.75" y="492.6406"/><text fill="#DD0000" font-size="16" font-weight="bold" lengthAdjust="spacingAndGlyphs" textLength="77" x="831.75" y="510.6406">Goose121</text><line style="stroke: #A80036; stroke-width: 1.5;" x1="825.75" x2="914.75" y1="516.7656" y2="516.7656"/><rect fill="#FEFECE" height="69.8594" style="stroke: #A80036; stroke-width: 1.5;" width="188" x="951" y="477.6406"/><text fill="#DD0000" font-size="16" font-weight="bold" lengthAdjust="spacingAndGlyphs" textLength="114" x="988" y="495.6406">Observable123</text><line style="stroke: #A80036; stroke-width: 1.5;" x1="952" x2="1138" y1="501.7656" y2="501.7656"/><text fill="#000000" font-size="15" font-weight="bold" lengthAdjust="spacingAndGlyphs" textLength="169" x="957" y="520.7656">duck = GooseAdapter53</text><text fill="#000000" font-size="15" font-weight="bold" lengthAdjust="spacingAndGlyphs" textLength="176" x="957" y="539.6328">observers = ArrayList124</text><rect fill="#FEFECE" height="50.9922" style="stroke: #A80036; stroke-width: 1.5;" width="121" x="690.75" y="757.1406"/><text fill="#DD0000" font-size="16" font-weight="bold" lengthAdjust="spacingAndGlyphs" textLength="96" x="703.25" y="775.1406">ArrayList124</text><line style="stroke: #A80036; stroke-width: 1.5;" x1="691.75" x2="810.75" y1="781.2656" y2="781.2656"/><text fill="#000000" font-size="15" font-weight="bold" lengthAdjust="spacingAndGlyphs" textLength="109" x="696.75" y="800.2656">Quackologist91</text><rect fill="#FEFECE" height="50.9922" style="stroke: #A80036; stroke-width: 1.5;" width="180" x="604" y="31.1406"/><text fill="#DD0000" font-size="16" font-weight="bold" lengthAdjust="spacingAndGlyphs" textLength="60" x="664" y="49.1406">Flock98</text><line style="stroke: #A80036; stroke-width: 1.5;" x1="605" x2="783" y1="55.2656" y2="55.2656"/><text fill="#000000" font-size="15" font-weight="bold" lengthAdjust="spacingAndGlyphs" textLength="168" x="610" y="74.2656">quackers = ArrayList130</text><rect fill="#FEFECE" height="126.4609" style="stroke: #A80036; stroke-width: 1.5;" width="131" x="628.75" y="142.6406"/><text fill="#DD0000" font-size="16" font-weight="bold" lengthAdjust="spacingAndGlyphs" textLength="96" x="646.25" y="160.6406">ArrayList130</text><line style="stroke: #A80036; stroke-width: 1.5;" x1="629.75" x2="758.75" y1="166.7656" y2="166.7656"/><text fill="#000000" font-size="15" font-weight="bold" lengthAdjust="spacingAndGlyphs" textLength="119" x="634.75" y="185.7656">QuackCounter23</text><text fill="#000000" font-size="15" font-weight="bold" lengthAdjust="spacingAndGlyphs" textLength="119" x="634.75" y="204.6328">QuackCounter27</text><text fill="#000000" font-size="15" font-weight="bold" lengthAdjust="spacingAndGlyphs" textLength="119" x="634.75" y="223.5">QuackCounter28</text><text fill="#000000" font-size="15" font-weight="bold" lengthAdjust="spacingAndGlyphs" textLength="118" x="634.75" y="242.3672">GooseAdapter53</text><text fill="#000000" font-size="15" font-weight="bold" lengthAdjust="spacingAndGlyphs" textLength="62" x="634.75" y="261.2344">Flock100</text><rect fill="#FEFECE" height="50.9922" style="stroke: #A80036; stroke-width: 1.5;" width="180" x="1140" y="338.1406"/><text fill="#DD0000" font-size="16" font-weight="bold" lengthAdjust="spacingAndGlyphs" textLength="69" x="1195.5" y="356.1406">Flock100</text><line style="stroke: #A80036; stroke-width: 1.5;" x1="1141" x2="1319" y1="362.2656" y2="362.2656"/><text fill="#000000" font-size="15" font-weight="bold" lengthAdjust="spacingAndGlyphs" textLength="168" x="1146" y="381.2656">quackers = ArrayList190</text><rect fill="#FEFECE" height="107.5938" style="stroke: #A80036; stroke-width: 1.5;" width="139" x="1174.75" y="458.6406"/><text fill="#DD0000" font-size="16" font-weight="bold" lengthAdjust="spacingAndGlyphs" textLength="96" x="1196.25" y="476.6406">ArrayList190</text><line style="stroke: #A80036; stroke-width: 1.5;" x1="1175.75" x2="1312.75" y1="482.7656" y2="482.7656"/><text fill="#000000" font-size="15" font-weight="bold" lengthAdjust="spacingAndGlyphs" textLength="127" x="1180.75" y="501.7656">QuackCounter101</text><text fill="#000000" font-size="15" font-weight="bold" lengthAdjust="spacingAndGlyphs" textLength="127" x="1180.75" y="520.6328">QuackCounter102</text><text fill="#000000" font-size="15" font-weight="bold" lengthAdjust="spacingAndGlyphs" textLength="127" x="1180.75" y="539.5">QuackCounter139</text><text fill="#000000" font-size="15" font-weight="bold" lengthAdjust="spacingAndGlyphs" textLength="127" x="1180.75" y="558.3672">QuackCounter141</text><rect fill="#FEFECE" height="50.9922" style="stroke: #A80036; stroke-width: 1.5;" width="175" x="922.75" y="636.1406"/><text fill="#DD0000" font-size="16" font-weight="bold" lengthAdjust="spacingAndGlyphs" textLength="138" x="941.25" y="654.1406">QuackCounter101</text><line style="stroke: #A80036; stroke-width: 1.5;" x1="923.75" x2="1096.75" y1="660.2656" y2="660.2656"/><text fill="#000000" font-size="15" font-weight="bold" lengthAdjust="spacingAndGlyphs" textLength="163" x="928.75" y="679.2656">duck = MallardDuck194</text><rect fill="#FEFECE" height="50.9922" style="stroke: #A80036; stroke-width: 1.5;" width="175" x="1135.75" y="636.1406"/><text fill="#DD0000" font-size="16" font-weight="bold" lengthAdjust="spacingAndGlyphs" textLength="138" x="1154.25" y="654.1406">QuackCounter102</text><line style="stroke: #A80036; stroke-width: 1.5;" x1="1136.75" x2="1309.75" y1="660.2656" y2="660.2656"/><text fill="#000000" font-size="15" font-weight="bold" lengthAdjust="spacingAndGlyphs" textLength="163" x="1141.75" y="679.2656">duck = MallardDuck211</text><rect fill="#FEFECE" height="50.9922" style="stroke: #A80036; stroke-width: 1.5;" width="175" x="1347.75" y="636.1406"/><text fill="#DD0000" font-size="16" font-weight="bold" lengthAdjust="spacingAndGlyphs" textLength="138" x="1366.25" y="654.1406">QuackCounter139</text><line style="stroke: #A80036; stroke-width: 1.5;" x1="1348.75" x2="1521.75" y1="660.2656" y2="660.2656"/><text fill="#000000" font-size="15" font-weight="bold" lengthAdjust="spacingAndGlyphs" textLength="163" x="1353.75" y="679.2656">duck = MallardDuck224</text><rect fill="#FEFECE" height="50.9922" style="stroke: #A80036; stroke-width: 1.5;" width="175" x="1577.75" y="636.1406"/><text fill="#DD0000" font-size="16" font-weight="bold" lengthAdjust="spacingAndGlyphs" textLength="138" x="1596.25" y="654.1406">QuackCounter141</text><line style="stroke: #A80036; stroke-width: 1.5;" x1="1578.75" x2="1751.75" y1="660.2656" y2="660.2656"/><text fill="#000000" font-size="15" font-weight="bold" lengthAdjust="spacingAndGlyphs" textLength="163" x="1583.75" y="679.2656">duck = MallardDuck234</text><rect fill="#FEFECE" height="50.9922" style="stroke: #A80036; stroke-width: 1.5;" width="216" x="847" y="757.1406"/><text fill="#DD0000" font-size="16" font-weight="bold" lengthAdjust="spacingAndGlyphs" textLength="122" x="894" y="775.1406">MallardDuck194</text><line style="stroke: #A80036; stroke-width: 1.5;" x1="848" x2="1062" y1="781.2656" y2="781.2656"/><text fill="#000000" font-size="15" font-weight="bold" lengthAdjust="spacingAndGlyphs" textLength="204" x="853" y="800.2656">observable = Observable198</text><rect fill="#FEFECE" height="69.8594" style="stroke: #A80036; stroke-width: 1.5;" width="188" x="861" y="868.6406"/><text fill="#DD0000" font-size="16" font-weight="bold" lengthAdjust="spacingAndGlyphs" textLength="114" x="898" y="886.6406">Observable198</text><line style="stroke: #A80036; stroke-width: 1.5;" x1="862" x2="1048" y1="892.7656" y2="892.7656"/><text fill="#000000" font-size="15" font-weight="bold" lengthAdjust="spacingAndGlyphs" textLength="163" x="867" y="911.7656">duck = MallardDuck194</text><text fill="#000000" font-size="15" font-weight="bold" lengthAdjust="spacingAndGlyphs" textLength="176" x="867" y="930.6328">observers = ArrayList200</text><rect fill="#FEFECE" height="50.9922" style="stroke: #A80036; stroke-width: 1.5;" width="208" x="1098" y="757.1406"/><text fill="#DD0000" font-size="16" font-weight="bold" lengthAdjust="spacingAndGlyphs" textLength="122" x="1141" y="775.1406">MallardDuck211</text><line style="stroke: #A80036; stroke-width: 1.5;" x1="1099" x2="1305" y1="781.2656" y2="781.2656"/><text fill="#000000" font-size="15" font-weight="bold" lengthAdjust="spacingAndGlyphs" textLength="196" x="1104" y="800.2656">observable=Observable214</text><rect fill="#FEFECE" height="69.8594" style="stroke: #A80036; stroke-width: 1.5;" width="194" x="1105" y="868.6406"/><text fill="#DD0000" font-size="16" font-weight="bold" lengthAdjust="spacingAndGlyphs" textLength="114" x="1145" y="886.6406">Observable214</text><line style="stroke: #A80036; stroke-width: 1.5;" x1="1106" x2="1298" y1="892.7656" y2="892.7656"/><text fill="#000000" font-size="15" font-weight="bold" lengthAdjust="spacingAndGlyphs" textLength="47" x="1111" y="911.7656">duck =</text><text fill="#000000" font-size="15" font-weight="bold" lengthAdjust="spacingAndGlyphs" textLength="112" x="1184" y="911.7656">MallardDuck211</text><text fill="#000000" font-size="15" font-weight="bold" lengthAdjust="spacingAndGlyphs" textLength="86" x="1111" y="930.6328">observers =</text><text fill="#000000" font-size="15" font-weight="bold" lengthAdjust="spacingAndGlyphs" textLength="86" x="1216" y="930.6328">ArrayList215</text><rect fill="#FEFECE" height="50.9922" style="stroke: #A80036; stroke-width: 1.5;" width="121" x="1080.75" y="999.1406"/><text fill="#DD0000" font-size="16" font-weight="bold" lengthAdjust="spacingAndGlyphs" textLength="96" x="1093.25" y="1017.1406">ArrayList215</text><line style="stroke: #A80036; stroke-width: 1.5;" x1="1081.75" x2="1200.75" y1="1023.2656" y2="1023.2656"/><text fill="#000000" font-size="15" font-weight="bold" lengthAdjust="spacingAndGlyphs" textLength="109" x="1086.75" y="1042.2656">Quackologist91</text><rect fill="#FEFECE" height="50.9922" style="stroke: #A80036; stroke-width: 1.5;" width="216" x="1341" y="757.1406"/><text fill="#DD0000" font-size="16" font-weight="bold" lengthAdjust="spacingAndGlyphs" textLength="122" x="1388" y="775.1406">MallardDuck224</text><line style="stroke: #A80036; stroke-width: 1.5;" x1="1342" x2="1556" y1="781.2656" y2="781.2656"/><text fill="#000000" font-size="15" font-weight="bold" lengthAdjust="spacingAndGlyphs" textLength="204" x="1347" y="800.2656">observable = Observable226</text><rect fill="#FEFECE" height="69.8594" style="stroke: #A80036; stroke-width: 1.5;" width="188" x="1355" y="868.6406"/><text fill="#DD0000" font-size="16" font-weight="bold" lengthAdjust="spacingAndGlyphs" textLength="114" x="1392" y="886.6406">Observable226</text><line style="stroke: #A80036; stroke-width: 1.5;" x1="1356" x2="1542" y1="892.7656" y2="892.7656"/><text fill="#000000" font-size="15" font-weight="bold" lengthAdjust="spacingAndGlyphs" textLength="163" x="1361" y="911.7656">duck = MallardDuck224</text><text fill="#000000" font-size="15" font-weight="bold" lengthAdjust="spacingAndGlyphs" textLength="176" x="1361" y="930.6328">observers = ArrayList227</text><rect fill="#FEFECE" height="50.9922" style="stroke: #A80036; stroke-width: 1.5;" width="121" x="1312.75" y="999.1406"/><text fill="#DD0000" font-size="16" font-weight="bold" lengthAdjust="spacingAndGlyphs" textLength="96" x="1325.25" y="1017.1406">ArrayList227</text><line style="stroke: #A80036; stroke-width: 1.5;" x1="1313.75" x2="1432.75" y1="1023.2656" y2="1023.2656"/><text fill="#000000" font-size="15" font-weight="bold" lengthAdjust="spacingAndGlyphs" textLength="109" x="1318.75" y="1042.2656">Quackologist91</text><rect fill="#FEFECE" height="50.9922" style="stroke: #A80036; stroke-width: 1.5;" width="216" x="1592" y="757.1406"/><text fill="#DD0000" font-size="16" font-weight="bold" lengthAdjust="spacingAndGlyphs" textLength="122" x="1639" y="775.1406">MallardDuck234</text><line style="stroke: #A80036; stroke-width: 1.5;" x1="1593" x2="1807" y1="781.2656" y2="781.2656"/><text fill="#000000" font-size="15" font-weight="bold" lengthAdjust="spacingAndGlyphs" textLength="204" x="1598" y="800.2656">observable = Observable237</text><rect fill="#FEFECE" height="69.8594" style="stroke: #A80036; stroke-width: 1.5;" width="188" x="1606" y="868.6406"/><text fill="#DD0000" font-size="16" font-weight="bold" lengthAdjust="spacingAndGlyphs" textLength="114" x="1643" y="886.6406">Observable237</text><line style="stroke: #A80036; stroke-width: 1.5;" x1="1607" x2="1793" y1="892.7656" y2="892.7656"/><text fill="#000000" font-size="15" font-weight="bold" lengthAdjust="spacingAndGlyphs" textLength="163" x="1612" y="911.7656">duck = MallardDuck234</text><text fill="#000000" font-size="15" font-weight="bold" lengthAdjust="spacingAndGlyphs" textLength="176" x="1612" y="930.6328">observers = ArrayList238</text><rect fill="#FEFECE" height="50.9922" style="stroke: #A80036; stroke-width: 1.5;" width="121" x="1553.75" y="999.1406"/><text fill="#DD0000" font-size="16" font-weight="bold" lengthAdjust="spacingAndGlyphs" textLength="96" x="1566.25" y="1017.1406">ArrayList238</text><line style="stroke: #A80036; stroke-width: 1.5;" x1="1554.75" x2="1673.75" y1="1023.2656" y2="1023.2656"/><text fill="#000000" font-size="15" font-weight="bold" lengthAdjust="spacingAndGlyphs" textLength="109" x="1559.75" y="1042.2656">Quackologist91</text><rect fill="#FEFECE" height="50.9922" style="stroke: #A80036; stroke-width: 1.5;" width="121" x="863.75" y="999.1406"/><text fill="#DD0000" font-size="16" font-weight="bold" lengthAdjust="spacingAndGlyphs" textLength="96" x="876.25" y="1017.1406">ArrayList200</text><line style="stroke: #A80036; stroke-width: 1.5;" x1="864.75" x2="983.75" y1="1023.2656" y2="1023.2656"/><text fill="#000000" font-size="15" font-weight="bold" lengthAdjust="spacingAndGlyphs" textLength="109" x="869.75" y="1042.2656">Quackologist91</text><path d="M478.129,389.2446 C468.919,414.7906 454.509,454.7576 444.68,482.0196 " fill="none" style="stroke: #0000FF; stroke-width: 1.0;"/><polygon fill="#0000FF" points="442.9,486.9556,449.7156,479.846,444.596,482.252,442.1899,477.1324,442.9,486.9556" style="stroke: #0000FF; stroke-width: 1.0;"/><path d="M424.193,538.2446 C420.916,560.9256 420.376,594.9756 422.571,621.4076 " fill="none" style="stroke: #0000FF; stroke-width: 1.0;"/><polygon fill="#0000FF" points="423.047,626.5866,426.2073,617.2586,422.5898,621.6076,418.2408,617.9901,423.047,626.5866" style="stroke: #0000FF; stroke-width: 1.0;"/><path d="M445.597,626.5866 C448.297,601.3606 448.124,567.3246 445.077,543.2296 " fill="none" style="stroke: #0000FF; stroke-width: 1.0;"/><polygon fill="#0000FF" points="444.384,538.2446,441.6645,547.7106,445.0741,543.1968,449.5879,546.6064,444.384,538.2446" style="stroke: #0000FF; stroke-width: 1.0;"/><path d="M442.817,696.7716 C455.018,743.9996 476.845,828.4906 488.377,873.1326 " fill="none" style="stroke: #0000FF; stroke-width: 1.0;"/><polygon fill="#0000FF" points="489.663,878.1116,491.2834,868.397,488.4117,873.2707,483.538,870.399,489.663,878.1116" style="stroke: #0000FF; stroke-width: 1.0;"/><path d="M514.642,929.3336 C539.903,961.2826 587.874,1016.8406 640,1050.6406 C682.82,1078.4066 736.8,1098.3905 779.442,1111.3126 " fill="none" style="stroke: #0000FF; stroke-width: 1.0;"/><polygon fill="#0000FF" points="784.321,1112.7752,776.8486,1106.3594,779.5316,1111.3395,774.5514,1114.0225,784.321,1112.7752" style="stroke: #0000FF; stroke-width: 1.0;"/><path d="M272.597,389.2446 C255.425,415.0026 228.479,455.4216 210.297,482.6956 " fill="none" style="stroke: #0000FF; stroke-width: 1.0;"/><polygon fill="#0000FF" points="207.457,486.9556,215.7783,481.6873,210.2312,482.7958,209.1226,477.2486,207.457,486.9556" style="stroke: #0000FF; stroke-width: 1.0;"/><path d="M185.085,486.9116 C173.432,463.9566 151.189,429.4326 131.273,402.9186 " fill="none" style="stroke: #0000FF; stroke-width: 1.0;"/><polygon fill="#0000FF" points="128.099,398.7346,130.35,408.3228,131.1202,402.7186,136.7244,403.4889,128.099,398.7346" style="stroke: #0000FF; stroke-width: 1.0;"/><path d="M105.5405,398.7346 C119.791,424.2306 142.739,458.7086 161.623,482.8326 " fill="none" style="stroke: #0000FF; stroke-width: 1.0;"/><polygon fill="#0000FF" points="164.858,486.9116,162.4005,477.3743,161.7514,482.9938,156.132,482.3448,164.858,486.9116" style="stroke: #0000FF; stroke-width: 1.0;"/><path d="M82.4314,398.8176 C64.9961,453.4576 34,564.1616 34,660.6406 C34,660.6406 34,660.6406 34,783.6406 C34,879.1226 128.491,956.9746 187.25,996.1556 " fill="none" style="stroke: #0000FF; stroke-width: 1.0;"/><polygon fill="#0000FF" points="191.767,999.1386,186.4624,990.8403,187.5951,996.3826,182.0528,997.5153,191.767,999.1386" style="stroke: #0000FF; stroke-width: 1.0;"/><path d="M293.382,1035.8016 C407.966,1055.0848 656.449,1096.9007 779.288,1117.5726 " fill="none" style="stroke: #0000FF; stroke-width: 1.0;"/><polygon fill="#0000FF" points="784.323,1118.4199,776.1119,1112.9814,779.3924,1117.5899,774.7839,1120.8705,784.323,1118.4199" style="stroke: #0000FF; stroke-width: 1.0;"/><path d="M691.824,389.2446 C689.574,414.6846 686.06,454.4256 683.65,481.6796 " fill="none" style="stroke: #0000FF; stroke-width: 1.0;"/><polygon fill="#0000FF" points="683.183,486.9556,687.9618,478.3438,683.6243,481.9751,679.993,477.6377,683.183,486.9556" style="stroke: #0000FF; stroke-width: 1.0;"/><path d="M671.193,538.2446 C667.916,560.9256 667.376,594.9756 669.571,621.4076 " fill="none" style="stroke: #0000FF; stroke-width: 1.0;"/><polygon fill="#0000FF" points="670.047,626.5866,673.2073,617.2586,669.5898,621.6076,665.2408,617.9901,670.047,626.5866" style="stroke: #0000FF; stroke-width: 1.0;"/><path d="M692.597,626.5866 C695.297,601.3606 695.124,567.3246 692.077,543.2296 " fill="none" style="stroke: #0000FF; stroke-width: 1.0;"/><polygon fill="#0000FF" points="691.384,538.2446,688.6645,547.7106,692.0741,543.1968,696.5879,546.6064,691.384,538.2446" style="stroke: #0000FF; stroke-width: 1.0;"/><path d="M656.356,696.7416 C643.544,714.4696 628.056,735.9006 615.846,752.7956 " fill="none" style="stroke: #0000FF; stroke-width: 1.0;"/><polygon fill="#0000FF" points="612.816,756.9886,621.3293,752.0366,615.7444,752.9359,614.8451,747.351,612.816,756.9886" style="stroke: #0000FF; stroke-width: 1.0;"/><path d="M613.206,808.2466 C660.615,872.3236 787.419,1043.7076 833.746,1106.3213 " fill="none" style="stroke: #0000FF; stroke-width: 1.0;"/><polygon fill="#0000FF" points="836.941,1110.6386,834.8042,1101.0244,833.9674,1106.619,828.3728,1105.7821,836.941,1110.6386" style="stroke: #0000FF; stroke-width: 1.0;"/><path d="M946.807,398.7346 C928.122,426.2016 902.346,464.0926 885.924,488.2316 " fill="none" style="stroke: #0000FF; stroke-width: 1.0;"/><polygon fill="#0000FF" points="882.971,492.5736,891.3396,487.3807,885.7826,488.439,884.7243,482.8821,882.971,492.5736" style="stroke: #0000FF; stroke-width: 1.0;"/><path d="M976.438,398.7346 C985.518,420.9196 1000.164,449.9036 1013.88,472.9506 " fill="none" style="stroke: #0000FF; stroke-width: 1.0;"/><polygon fill="#0000FF" points="1016.61,477.4766,1015.3783,467.7051,1014.0239,473.1974,1008.5315,471.8429,1016.61,477.4766" style="stroke: #0000FF; stroke-width: 1.0;"/><path d="M1039.18,477.4766 C1030.22,455.2786 1015.58,426.2926 1001.749,403.2586 " fill="none" style="stroke: #0000FF; stroke-width: 1.0;"/><polygon fill="#0000FF" points="998.997,398.7346,1000.2573,408.5025,1001.5957,403.0063,1007.0919,404.3446,998.997,398.7346" style="stroke: #0000FF; stroke-width: 1.0;"/><path d="M1000.148,547.8096 C972.157,569.6256 935.733,598.9226 905,626.6406 C858.306,668.7536 807.515,721.3156 777.509,753.1386 " fill="none" style="stroke: #0000FF; stroke-width: 1.0;"/><polygon fill="#0000FF" points="773.955,756.9146,783.0368,753.104,777.3825,753.2743,777.2122,747.62,773.955,756.9146" style="stroke: #0000FF; stroke-width: 1.0;"/><path d="M758.112,808.2466 C776.557,872.0676 825.768,1042.3376 844.042,1105.5648 " fill="none" style="stroke: #0000FF; stroke-width: 1.0;"/><polygon fill="#0000FF" points="845.508,1110.6386,846.8515,1100.8818,844.1196,1105.8353,839.1661,1103.1033,845.508,1110.6386" style="stroke: #0000FF; stroke-width: 1.0;"/><path d="M694,82.2406 C694,97.4006 694,117.6306 694,137.2806 " fill="none" style="stroke: #0000FF; stroke-width: 1.0;"/><polygon fill="#0000FF" points="694,142.5206,698,133.5206,694,137.5206,690,133.5206,694,142.5206" style="stroke: #0000FF; stroke-width: 1.0;"/><path d="M628.504,255.9996 C593.958,282.0346 552.853,313.0126 523.871,334.8536 " fill="none" style="stroke: #0000FF; stroke-width: 1.0;"/><polygon fill="#0000FF" points="519.686,338.0076,529.2806,335.784,523.6786,334.9978,524.4649,329.3959,519.686,338.0076" style="stroke: #0000FF; stroke-width: 1.0;"/><path d="M628.48,231.8776 C554.107,260.5256 433.328,307.0476 357.673,336.1886 " fill="none" style="stroke: #0000FF; stroke-width: 1.0;"/><polygon fill="#0000FF" points="352.756,338.0826,362.5923,338.5804,357.4218,336.2854,359.7168,331.115,352.756,338.0826" style="stroke: #0000FF; stroke-width: 1.0;"/><path d="M694,268.7446 C694,290.7666 694,314.5546 694,332.6776 " fill="none" style="stroke: #0000FF; stroke-width: 1.0;"/><polygon fill="#0000FF" points="694,338.1116,698,329.1116,694,333.1116,690,329.1116,694,338.1116" style="stroke: #0000FF; stroke-width: 1.0;"/><path d="M759.408,243.6106 C803.485,268.5236 861.374,301.2436 905.302,326.0716 " fill="none" style="stroke: #0000FF; stroke-width: 1.0;"/><polygon fill="#0000FF" points="909.777,328.6016,903.9097,320.6912,905.4241,326.1416,899.9737,327.6559,909.777,328.6016" style="stroke: #0000FF; stroke-width: 1.0;"/><path d="M759.456,225.6916 C854.986,253.4946 1032.9,305.2766 1140.48,336.5856 " fill="none" style="stroke: #0000FF; stroke-width: 1.0;"/><polygon fill="#0000FF" points="1145.55,338.0606,1138.03,331.7006,1140.75,336.6606,1135.79,339.3806,1145.55,338.0606" style="stroke: #0000FF; stroke-width: 1.0;"/><path d="M1232.34,389.2446 C1234.01,406.7976 1236.34,431.1596 1238.47,453.5306 " fill="none" style="stroke: #0000FF; stroke-width: 1.0;"/><polygon fill="#0000FF" points="1238.95,458.5676,1242.0772,449.2284,1238.4751,453.5902,1234.1133,449.9882,1238.95,458.5676" style="stroke: #0000FF; stroke-width: 1.0;"/><path d="M1174.74,557.1486 C1135.53,581.7796 1087.69,611.8356 1053.69,633.1976 " fill="none" style="stroke: #0000FF; stroke-width: 1.0;"/><polygon fill="#0000FF" points="1049.19,636.0206,1058.9361,634.6013,1053.4187,633.3527,1054.6674,627.8354,1049.19,636.0206" style="stroke: #0000FF; stroke-width: 1.0;"/><path d="M1236.42,566.7106 C1233.33,588.3606 1229.87,612.5786 1227.23,631.0006 " fill="none" style="stroke: #0000FF; stroke-width: 1.0;"/><polygon fill="#0000FF" points="1226.51,636.0366,1231.7443,627.6938,1227.2181,631.087,1223.8249,626.5609,1226.51,636.0366" style="stroke: #0000FF; stroke-width: 1.0;"/><path d="M1312.96,566.7106 C1342.05,589.1006 1374.71,614.2376 1398.92,632.8696 " fill="none" style="stroke: #0000FF; stroke-width: 1.0;"/><polygon fill="#0000FF" points="1403.03,636.0366,1398.3473,627.3722,1399.0711,632.9826,1393.4608,633.7064,1403.03,636.0366" style="stroke: #0000FF; stroke-width: 1.0;"/><path d="M1313.52,537.9146 C1389.62,564.4866 1511.22,606.9436 1589.58,634.3056 " fill="none" style="stroke: #0000FF; stroke-width: 1.0;"/><polygon fill="#0000FF" points="1594.67,636.0856,1587.4844,629.3501,1589.9477,634.4425,1584.8554,636.9058,1594.67,636.0856" style="stroke: #0000FF; stroke-width: 1.0;"/><path d="M944.436,808.2976 C942.161,824.2276 941.662,845.3026 942.937,863.4926 " fill="none" style="stroke: #0000FF; stroke-width: 1.0;"/><polygon fill="#0000FF" points="943.344,868.5396,946.6086,859.2476,942.9426,863.5558,938.6344,859.8898,943.344,868.5396" style="stroke: #0000FF; stroke-width: 1.0;"/><path d="M1191.44,808.2976 C1189.16,824.2276 1188.66,845.3026 1189.94,863.4926 " fill="none" style="stroke: #0000FF; stroke-width: 1.0;"/><polygon fill="#0000FF" points="1190.34,868.5396,1193.6048,859.2476,1189.9387,863.5558,1185.6306,859.8897,1190.34,868.5396" style="stroke: #0000FF; stroke-width: 1.0;"/><path d="M1214.34,868.5396 C1216.03,851.1136 1215.87,830.1096 1213.87,813.3526 " fill="none" style="stroke: #0000FF; stroke-width: 1.0;"/><polygon fill="#0000FF" points="1213.19,808.2976,1210.4288,817.7515,1213.8583,813.2528,1218.3571,816.6822,1213.19,808.2976" style="stroke: #0000FF; stroke-width: 1.0;"/><path d="M1184.52,938.7416 C1175.51,956.3186 1164.63,977.5376 1156.01,994.3656 " fill="none" style="stroke: #0000FF; stroke-width: 1.0;"/><polygon fill="#0000FF" points="1153.64,998.9886,1161.2998,992.7978,1155.9171,994.5372,1154.1776,989.1545,1153.64,998.9886" style="stroke: #0000FF; stroke-width: 1.0;"/><path d="M1438.44,808.2976 C1436.16,824.2276 1435.66,845.3026 1436.94,863.4926 " fill="none" style="stroke: #0000FF; stroke-width: 1.0;"/><polygon fill="#0000FF" points="1437.34,868.5396,1440.6048,859.2476,1436.9387,863.5558,1432.6306,859.8897,1437.34,868.5396" style="stroke: #0000FF; stroke-width: 1.0;"/><path d="M1461.34,868.5396 C1463.03,851.1136 1462.87,830.1096 1460.87,813.3526 " fill="none" style="stroke: #0000FF; stroke-width: 1.0;"/><polygon fill="#0000FF" points="1460.19,808.2976,1457.4288,817.7515,1460.8583,813.2528,1465.3571,816.6822,1460.19,808.2976" style="stroke: #0000FF; stroke-width: 1.0;"/><path d="M1427.22,938.7416 C1416,956.3186 1402.44,977.5376 1391.7,994.3656 " fill="none" style="stroke: #0000FF; stroke-width: 1.0;"/><polygon fill="#0000FF" points="1388.74,998.9886,1396.9553,993.5565,1391.4312,994.7747,1390.213,989.2505,1388.74,998.9886" style="stroke: #0000FF; stroke-width: 1.0;"/><path d="M1689.44,808.2976 C1687.16,824.2276 1686.66,845.3026 1687.94,863.4926 " fill="none" style="stroke: #0000FF; stroke-width: 1.0;"/><polygon fill="#0000FF" points="1688.34,868.5396,1691.6048,859.2476,1687.9387,863.5558,1683.6306,859.8897,1688.34,868.5396" style="stroke: #0000FF; stroke-width: 1.0;"/><path d="M1712.34,868.5396 C1714.03,851.1136 1713.87,830.1096 1711.87,813.3526 " fill="none" style="stroke: #0000FF; stroke-width: 1.0;"/><polygon fill="#0000FF" points="1711.19,808.2976,1708.4288,817.7515,1711.8583,813.2528,1716.3571,816.6822,1711.19,808.2976" style="stroke: #0000FF; stroke-width: 1.0;"/><path d="M1675.36,938.7416 C1662.54,956.4696 1647.06,977.9006 1634.85,994.7956 " fill="none" style="stroke: #0000FF; stroke-width: 1.0;"/><polygon fill="#0000FF" points="1631.82,998.9886,1640.3391,994.0465,1634.7532,994.9394,1633.8604,989.3534,1631.82,998.9886" style="stroke: #0000FF; stroke-width: 1.0;"/><path d="M1553.68,1035.1326 C1522.71,1039.9316 1484.36,1045.7566 1450,1050.6406 C1259.86,1077.6689 1035.3,1106.4459 922.81,1120.6445 " fill="none" style="stroke: #0000FF; stroke-width: 1.0;"/><polygon fill="#0000FF" points="917.539,1121.3096,926.9688,1124.1519,922.4997,1120.6839,925.9677,1116.2148,917.539,1121.3096" style="stroke: #0000FF; stroke-width: 1.0;"/><path d="M998.604,687.2976 C989.865,706.2046 977.777,732.3606 968.544,752.3366 " fill="none" style="stroke: #0000FF; stroke-width: 1.0;"/><polygon fill="#0000FF" points="966.381,757.0156,973.7872,750.5235,968.4783,752.4767,966.525,747.1678,966.381,757.0156" style="stroke: #0000FF; stroke-width: 1.0;"/><path d="M967.341,868.5396 C969.031,851.1136 968.873,830.1096 966.867,813.3526 " fill="none" style="stroke: #0000FF; stroke-width: 1.0;"/><polygon fill="#0000FF" points="966.185,808.2976,963.4242,817.7516,966.8535,813.2527,971.3524,816.682,966.185,808.2976" style="stroke: #0000FF; stroke-width: 1.0;"/><path d="M946.117,938.7416 C941.577,956.1686 936.104,977.1756 931.739,993.9326 " fill="none" style="stroke: #0000FF; stroke-width: 1.0;"/><polygon fill="#0000FF" points="930.422,998.9886,936.5609,991.2871,931.682,994.15,928.8191,989.2711,930.422,998.9886" style="stroke: #0000FF; stroke-width: 1.0;"/><path d="M906.7,1050.2876 C894.806,1067.2316 879.11,1089.5932 867.412,1106.2589 " fill="none" style="stroke: #0000FF; stroke-width: 1.0;"/><polygon fill="#0000FF" points="864.529,1110.3664,872.9735,1105.2979,867.4015,1106.2739,866.4254,1100.7019,864.529,1110.3664" style="stroke: #0000FF; stroke-width: 1.0;"/><path d="M1218.65,687.2976 C1215.33,706.1256 1210.74,732.1396 1207.22,752.0836 " fill="none" style="stroke: #0000FF; stroke-width: 1.0;"/><polygon fill="#0000FF" points="1206.35,757.0156,1211.8513,748.8464,1207.2178,752.0915,1203.9727,747.458,1206.35,757.0156" style="stroke: #0000FF; stroke-width: 1.0;"/><path d="M1080.56,1047.3156 C1030.07,1065.4241 958.541,1091.0741 908.799,1108.9127 " fill="none" style="stroke: #0000FF; stroke-width: 1.0;"/><polygon fill="#0000FF" points="904.055,1110.6141,913.8771,1111.3398,908.7613,1108.9256,911.1755,1103.8098,904.055,1110.6141" style="stroke: #0000FF; stroke-width: 1.0;"/><path d="M1437.9,687.2976 C1440.11,706.0456 1443.15,731.9196 1445.49,751.8296 " fill="none" style="stroke: #0000FF; stroke-width: 1.0;"/><polygon fill="#0000FF" points="1446.1,757.0156,1449.0221,747.6102,1445.5164,752.0498,1441.0768,748.544,1446.1,757.0156" style="stroke: #0000FF; stroke-width: 1.0;"/><path d="M1312.61,1037.6726 C1215.75,1056.9696 1026.08,1094.7589 922.568,1115.3818 " fill="none" style="stroke: #0000FF; stroke-width: 1.0;"/><polygon fill="#0000FF" points="917.4,1116.4114,927.0082,1118.5754,922.3036,1115.4343,925.4447,1110.7297,917.4,1116.4114" style="stroke: #0000FF; stroke-width: 1.0;"/><path d="M1672.25,687.2976 C1677.79,706.1256 1685.44,732.1396 1691.31,752.0836 " fill="none" style="stroke: #0000FF; stroke-width: 1.0;"/><polygon fill="#0000FF" points="1692.76,757.0156,1694.0586,747.2528,1691.3495,752.2187,1686.3835,749.5096,1692.76,757.0156" style="stroke: #0000FF; stroke-width: 1.0;"/></g></svg>