<?xml version="1.0" encoding="UTF-8" standalone="no"?><svg xmlns="http://www.w3.org/2000/svg" xmlns:xlink="http://www.w3.org/1999/xlink" contentScriptType="application/ecmascript" contentStyleType="text/css" height="402px" preserveAspectRatio="none" style="width:899px;height:402px;background:#87CEFA;" version="1.1" viewBox="0 0 899 402" width="899px" zoomAndPan="magnify"><defs/><g><text fill="#000000" font-family="sans-serif" font-size="18" lengthAdjust="spacingAndGlyphs" textLength="131" x="390" y="16.708">Design pattern</text><!--cluster composite--><polygon fill="#87CEFA" points="22,44.9531,110,44.9531,117,67.25,877,67.25,877,390.9531,22,390.9531,22,44.9531" style="stroke: #000000; stroke-width: 1.5;"/><line style="stroke: #000000; stroke-width: 1.5;" x1="22" x2="117" y1="67.25" y2="67.25"/><text fill="#000000" font-family="sans-serif" font-size="14" font-weight="bold" lengthAdjust="spacingAndGlyphs" textLength="82" x="26" y="59.9482">composite</text><!--class Root--><rect fill="#FEFECE" height="135.3047" id="Root" style="stroke: #A80036; stroke-width: 1.5;" width="399" x="40.5" y="79.9531"/><ellipse cx="215.75" cy="95.9531" fill="#A9DCDF" rx="11" ry="11" style="stroke: #A80036; stroke-width: 1.0;"/><path d="M215.8594,91.2969 L214.7031,96.375 L217.0313,96.375 L215.8594,91.2969 Z M214.375,89.0625 L217.3594,89.0625 L220.7188,101.4531 L218.2656,101.4531 L217.5,98.3906 L214.2188,98.3906 L213.4688,101.4531 L211.0313,101.4531 L214.375,89.0625 Z "/><text fill="#FF0000" font-family="sans-serif" font-size="16" font-style="italic" font-weight="bold" lengthAdjust="spacingAndGlyphs" textLength="40" x="236.25" y="101.4922">Root</text><line style="stroke: #A80036; stroke-width: 1.5;" x1="41.5" x2="438.5" y1="111.9531" y2="111.9531"/><line style="stroke: #A80036; stroke-width: 1.5;" x1="41.5" x2="438.5" y1="119.9531" y2="119.9531"/><text fill="#000000" font-family="sans-serif" font-size="15" font-weight="bold" lengthAdjust="spacingAndGlyphs" textLength="241" x="46.5" y="137.8765">public abstract void display();</text><text fill="#000000" font-family="sans-serif" font-size="15" font-weight="bold" lengthAdjust="spacingAndGlyphs" textLength="233" x="46.5" y="155.3374">public void add(Root root){}</text><text fill="#000000" font-family="sans-serif" font-size="15" font-weight="bold" lengthAdjust="spacingAndGlyphs" textLength="265" x="46.5" y="172.7983">public void remove(Root root){}</text><text fill="#000000" font-family="sans-serif" font-size="15" font-weight="bold" lengthAdjust="spacingAndGlyphs" textLength="387" x="46.5" y="190.2593">public Root getChild(String name){return null;}</text><text fill="#000000" font-family="sans-serif" font-size="15" font-weight="bold" lengthAdjust="spacingAndGlyphs" textLength="307" x="46.5" y="207.7202">public String getName(){return null;}</text><!--class Branch--><rect fill="#FEFECE" height="100.3828" id="Branch" style="stroke: #A80036; stroke-width: 1.5;" width="404" x="38" y="274.9531"/><ellipse cx="204.75" cy="290.9531" fill="#ADD1B2" rx="11" ry="11" style="stroke: #A80036; stroke-width: 1.0;"/><path d="M207.7188,296.5938 Q207.1406,296.8906 206.5,297.0313 Q205.8594,297.1875 205.1563,297.1875 Q202.6563,297.1875 201.3281,295.5469 Q200.0156,293.8906 200.0156,290.7656 Q200.0156,287.6406 201.3281,285.9844 Q202.6563,284.3281 205.1563,284.3281 Q205.8594,284.3281 206.5,284.4844 Q207.1563,284.6406 207.7188,284.9375 L207.7188,287.6563 Q207.0938,287.0781 206.5,286.8125 Q205.9063,286.5313 205.2813,286.5313 Q203.9375,286.5313 203.25,287.6094 Q202.5625,288.6719 202.5625,290.7656 Q202.5625,292.8594 203.25,293.9375 Q203.9375,295 205.2813,295 Q205.9063,295 206.5,294.7344 Q207.0938,294.4531 207.7188,293.875 L207.7188,296.5938 Z "/><text fill="#FF0000" font-family="sans-serif" font-size="16" font-weight="bold" lengthAdjust="spacingAndGlyphs" textLength="62" x="225.25" y="296.4922">Branch</text><line style="stroke: #A80036; stroke-width: 1.5;" x1="39" x2="441" y1="306.9531" y2="306.9531"/><text fill="#000000" font-family="sans-serif" font-size="15" font-weight="bold" lengthAdjust="spacingAndGlyphs" textLength="168" x="44" y="324.8765">private String name;</text><text fill="#000000" font-family="sans-serif" font-size="15" font-weight="bold" lengthAdjust="spacingAndGlyphs" textLength="281" x="44" y="342.3374">private ArrayList&lt;Root&gt;  children;</text><line style="stroke: #A80036; stroke-width: 1.5;" x1="39" x2="441" y1="349.875" y2="349.875"/><text fill="#000000" font-family="sans-serif" font-size="15" font-weight="bold" lengthAdjust="spacingAndGlyphs" textLength="392" x="44" y="367.7983">public Branch(String name){this.name=name;}</text><!--class Leaf--><rect fill="#FEFECE" height="82.9219" id="Leaf" style="stroke: #A80036; stroke-width: 1.5;" width="384" x="477" y="283.4531"/><ellipse cx="645.75" cy="299.4531" fill="#ADD1B2" rx="11" ry="11" style="stroke: #A80036; stroke-width: 1.0;"/><path d="M648.7188,305.0938 Q648.1406,305.3906 647.5,305.5313 Q646.8594,305.6875 646.1563,305.6875 Q643.6563,305.6875 642.3281,304.0469 Q641.0156,302.3906 641.0156,299.2656 Q641.0156,296.1406 642.3281,294.4844 Q643.6563,292.8281 646.1563,292.8281 Q646.8594,292.8281 647.5,292.9844 Q648.1563,293.1406 648.7188,293.4375 L648.7188,296.1563 Q648.0938,295.5781 647.5,295.3125 Q646.9063,295.0313 646.2813,295.0313 Q644.9375,295.0313 644.25,296.1094 Q643.5625,297.1719 643.5625,299.2656 Q643.5625,301.3594 644.25,302.4375 Q644.9375,303.5 646.2813,303.5 Q646.9063,303.5 647.5,303.2344 Q648.0938,302.9531 648.7188,302.375 L648.7188,305.0938 Z "/><text fill="#FF0000" font-family="sans-serif" font-size="16" font-weight="bold" lengthAdjust="spacingAndGlyphs" textLength="38" x="666.25" y="304.9922">Leaf</text><line style="stroke: #A80036; stroke-width: 1.5;" x1="478" x2="860" y1="315.4531" y2="315.4531"/><text fill="#000000" font-family="sans-serif" font-size="15" font-weight="bold" lengthAdjust="spacingAndGlyphs" textLength="168" x="483" y="333.3765">private String name;</text><line style="stroke: #A80036; stroke-width: 1.5;" x1="478" x2="860" y1="340.9141" y2="340.9141"/><text fill="#000000" font-family="sans-serif" font-size="15" font-weight="bold" lengthAdjust="spacingAndGlyphs" textLength="372" x="483" y="358.8374">public Leaf(String name){this.name=name;}</text><!--link Root to Branch--><path d="M227.25,235.4431 C227.24,248.9931 227.63,262.5731 228.42,274.8831 " fill="none" id="Root-Branch" style="stroke: #0000FF; stroke-width: 1.0;"/><polygon fill="none" points="220.26,234.9331,227.59,215.0531,234.26,235.1631,220.26,234.9331" style="stroke: #0000FF; stroke-width: 1.0;"/><!--link Root to Branch--><path d="M253.3,220.2131 C253.77,238.5931 253.42,257.9431 252.26,274.8831 " fill="none" id="Root-Branch" style="stroke: #0000FF; stroke-width: 1.0;"/><polygon fill="#0000FF" points="253.15,215.0531,249.4347,224.1743,253.3071,220.0507,257.4307,223.923,253.15,215.0531" style="stroke: #0000FF; stroke-width: 1.0;"/><!--link Root to Leaf--><path d="M421.39,222.6531 C472.22,243.4531 525.6,265.2931 569.73,283.3431 " fill="none" id="Root-Leaf" style="stroke: #0000FF; stroke-width: 1.0;"/><polygon fill="none" points="418.66,229.1031,402.8,215.0531,423.96,216.1431,418.66,229.1031" style="stroke: #0000FF; stroke-width: 1.0;"/><!--
@startuml

title Design pattern

skinparam BackgroundColor LightSkyBlue
skinparam classFontColor red
skinparam classFontStyle bold
skinparam classFontSize 16
skinparam classAttributeFontSize 15
skinparam classAttributeFontStyle bold
skinparam classArrowColor blue
skinparam shadowing false


package composite{

abstract class Root {
public abstract void display();
public void add(Root root){}
public void remove(Root root){}
public Root getChild(String name){return null;}
public String getName(){return null;}
} 

class  Branch {
private String name;
private ArrayList<Root>  children;
public Branch(String name){this.name=name;}
} 

class  Leaf {
private String name;
public Leaf(String name){this.name=name;}
} 

Root <|- - Branch
Root <|- - Leaf
Root <- - Branch

}

@enduml

PlantUML version 1.2018.10(Sat Aug 25 13:02:59 EDT 2018)
(GPL source distribution)
Java Runtime: OpenJDK Runtime Environment
JVM: OpenJDK 64-Bit Server VM
Java Version: 11.0.8+10-post-Debian-1
Operating System: Linux
OS Version: 5.6.0-kali2-amd64
Default Encoding: UTF-8
Language: en
Country: US
--></g></svg>