<?xml version="1.0" encoding="UTF-8" standalone="no"?><svg xmlns="http://www.w3.org/2000/svg" xmlns:xlink="http://www.w3.org/1999/xlink" contentScriptType="application/ecmascript" contentStyleType="text/css" height="408px" preserveAspectRatio="none" style="width:297px;height:408px;" version="1.1" viewBox="0 0 297 408" width="297px" zoomAndPan="magnify"><defs><filter height="300%" id="fn4tqg88hi6xe" width="300%" x="-1" y="-1"><feGaussianBlur result="blurOut" stdDeviation="2.0"/><feColorMatrix in="blurOut" result="blurOut2" type="matrix" values="0 0 0 0 0 0 0 0 0 0 0 0 0 0 0 0 0 0 .4 0"/><feOffset dx="4.0" dy="4.0" in="blurOut2" result="blurOut3"/><feBlend in="SourceGraphic" in2="blurOut3" mode="normal"/></filter></defs><g><ellipse cx="143.5" cy="18" fill="#000000" filter="url(#fn4tqg88hi6xe)" rx="10" ry="10" style="stroke: none; stroke-width: 1.0;"/><rect fill="#FEFECE" filter="url(#fn4tqg88hi6xe)" height="33.9688" rx="12.5" ry="12.5" style="stroke: #A80036; stroke-width: 1.5;" width="53" x="117" y="68"/><text fill="#000000" font-family="sans-serif" font-size="12" lengthAdjust="spacingAndGlyphs" textLength="33" x="127" y="89.1387">trunk</text><rect fill="#FEFECE" filter="url(#fn4tqg88hi6xe)" height="33.9688" rx="12.5" ry="12.5" style="stroke: #A80036; stroke-width: 1.5;" width="72" x="61.5" y="142"/><text fill="#000000" font-family="sans-serif" font-size="12" lengthAdjust="spacingAndGlyphs" textLength="52" x="71.5" y="163.1387">branch1</text><rect fill="#FEFECE" filter="url(#fn4tqg88hi6xe)" height="33.9688" rx="12.5" ry="12.5" style="stroke: #A80036; stroke-width: 1.5;" width="72" x="153.5" y="142"/><text fill="#000000" font-family="sans-serif" font-size="12" lengthAdjust="spacingAndGlyphs" textLength="52" x="163.5" y="163.1387">branch2</text><rect fill="#FEFECE" filter="url(#fn4tqg88hi6xe)" height="33.9688" rx="12.5" ry="12.5" style="stroke: #A80036; stroke-width: 1.5;" width="72" x="153.5" y="216"/><text fill="#000000" font-family="sans-serif" font-size="12" lengthAdjust="spacingAndGlyphs" textLength="52" x="163.5" y="237.1387">branch4</text><rect fill="#FEFECE" filter="url(#fn4tqg88hi6xe)" height="33.9688" rx="12.5" ry="12.5" style="stroke: #A80036; stroke-width: 1.5;" width="72" x="153.5" y="290"/><text fill="#000000" font-family="sans-serif" font-size="12" lengthAdjust="spacingAndGlyphs" textLength="52" x="163.5" y="311.1387">branch3</text><rect fill="#FEFECE" filter="url(#fn4tqg88hi6xe)" height="33.9688" rx="12.5" ry="12.5" style="stroke: #A80036; stroke-width: 1.5;" width="51" x="6" y="216"/><text fill="#000000" font-family="sans-serif" font-size="12" lengthAdjust="spacingAndGlyphs" textLength="31" x="16" y="237.1387">leaf1</text><rect fill="#FEFECE" filter="url(#fn4tqg88hi6xe)" height="33.9688" rx="12.5" ry="12.5" style="stroke: #A80036; stroke-width: 1.5;" width="51" x="77" y="216"/><text fill="#000000" font-family="sans-serif" font-size="12" lengthAdjust="spacingAndGlyphs" textLength="31" x="87" y="237.1387">leaf2</text><rect fill="#FEFECE" filter="url(#fn4tqg88hi6xe)" height="33.9688" rx="12.5" ry="12.5" style="stroke: #A80036; stroke-width: 1.5;" width="51" x="93" y="364"/><text fill="#000000" font-family="sans-serif" font-size="12" lengthAdjust="spacingAndGlyphs" textLength="31" x="103" y="385.1387">leaf4</text><rect fill="#FEFECE" filter="url(#fn4tqg88hi6xe)" height="33.9688" rx="12.5" ry="12.5" style="stroke: #A80036; stroke-width: 1.5;" width="51" x="164" y="364"/><text fill="#000000" font-family="sans-serif" font-size="12" lengthAdjust="spacingAndGlyphs" textLength="31" x="174" y="385.1387">leaf5</text><rect fill="#FEFECE" filter="url(#fn4tqg88hi6xe)" height="33.9688" rx="12.5" ry="12.5" style="stroke: #A80036; stroke-width: 1.5;" width="51" x="235" y="364"/><text fill="#000000" font-family="sans-serif" font-size="12" lengthAdjust="spacingAndGlyphs" textLength="31" x="245" y="385.1387">leaf6</text><!--link start to trunk--><path d="M143.5,28.04 C143.5,36.93 143.5,50.84 143.5,62.57 " fill="none" id="start-trunk" style="stroke: #A80036; stroke-width: 1.0;"/><polygon fill="#A80036" points="143.5,67.78,147.5,58.78,143.5,62.78,139.5,58.78,143.5,67.78" style="stroke: #A80036; stroke-width: 1.0;"/><!--link trunk to branch1--><path d="M133.06,102.34 C126.42,112.74 117.75,126.3 110.64,137.43 " fill="none" id="trunk-branch1" style="stroke: #A80036; stroke-width: 1.0;"/><polygon fill="#A80036" points="107.9,141.73,116.1232,136.3097,110.5973,137.5199,109.3871,131.9941,107.9,141.73" style="stroke: #A80036; stroke-width: 1.0;"/><!--link trunk to branch2--><path d="M153.94,102.34 C160.58,112.74 169.25,126.3 176.36,137.43 " fill="none" id="trunk-branch2" style="stroke: #A80036; stroke-width: 1.0;"/><polygon fill="#A80036" points="179.1,141.73,177.6129,131.9941,176.4027,137.5199,170.8768,136.3097,179.1,141.73" style="stroke: #A80036; stroke-width: 1.0;"/><!--link branch2 to branch4--><path d="M189.5,176.34 C189.5,186.46 189.5,199.58 189.5,210.54 " fill="none" id="branch2-branch4" style="stroke: #A80036; stroke-width: 1.0;"/><polygon fill="#A80036" points="189.5,215.73,193.5,206.73,189.5,210.73,185.5,206.73,189.5,215.73" style="stroke: #A80036; stroke-width: 1.0;"/><!--link branch4 to branch3--><path d="M189.5,250.34 C189.5,260.46 189.5,273.58 189.5,284.54 " fill="none" id="branch4-branch3" style="stroke: #A80036; stroke-width: 1.0;"/><polygon fill="#A80036" points="189.5,289.73,193.5,280.73,189.5,284.73,185.5,280.73,189.5,289.73" style="stroke: #A80036; stroke-width: 1.0;"/><!--link branch1 to leaf1--><path d="M82.52,176.34 C72.82,186.92 60.12,200.78 49.81,212.02 " fill="none" id="branch1-leaf1" style="stroke: #A80036; stroke-width: 1.0;"/><polygon fill="#A80036" points="46.42,215.73,55.446,211.789,49.7947,212.0407,49.5431,206.3894,46.42,215.73" style="stroke: #A80036; stroke-width: 1.0;"/><!--link branch1 to leaf2--><path d="M98.63,176.34 C99.34,186.46 100.25,199.58 101.01,210.54 " fill="none" id="branch1-leaf2" style="stroke: #A80036; stroke-width: 1.0;"/><polygon fill="#A80036" points="101.37,215.73,104.7431,206.4768,101.027,210.7418,96.762,207.0256,101.37,215.73" style="stroke: #A80036; stroke-width: 1.0;"/><!--link branch3 to leaf4--><path d="M173.39,324.34 C162.95,334.92 149.28,348.78 138.2,360.02 " fill="none" id="branch3-leaf4" style="stroke: #A80036; stroke-width: 1.0;"/><polygon fill="#A80036" points="134.55,363.73,143.7208,360.1388,138.064,360.1731,138.0298,354.5164,134.55,363.73" style="stroke: #A80036; stroke-width: 1.0;"/><!--link branch3 to leaf5--><path d="M189.5,324.34 C189.5,334.46 189.5,347.58 189.5,358.54 " fill="none" id="branch3-leaf5" style="stroke: #A80036; stroke-width: 1.0;"/><polygon fill="#A80036" points="189.5,363.73,193.5,354.73,189.5,358.73,185.5,354.73,189.5,363.73" style="stroke: #A80036; stroke-width: 1.0;"/><!--link branch3 to leaf6--><path d="M205.61,324.34 C216.05,334.92 229.72,348.78 240.8,360.02 " fill="none" id="branch3-leaf6" style="stroke: #A80036; stroke-width: 1.0;"/><polygon fill="#A80036" points="244.45,363.73,240.9702,354.5164,240.936,360.1731,235.2792,360.1388,244.45,363.73" style="stroke: #A80036; stroke-width: 1.0;"/><!--
@startuml
         (*)- -> trunk
        trunk- ->branch1
	 	trunk- ->branch2
	 	branch2 - -> branch4
	 	branch4- -> branch3
      	branch1 - -> leaf1
	 	branch1 - -> leaf2
	 	branch3- -> leaf4
	 	branch3- -> leaf5
	 	branch3- -> leaf6

@enduml

PlantUML version 1.2018.10(Sat Aug 25 13:02:59 EDT 2018)
(GPL source distribution)
Java Runtime: OpenJDK Runtime Environment
JVM: OpenJDK 64-Bit Server VM
Java Version: 11.0.8+10-post-Debian-1
Operating System: Linux
OS Version: 5.6.0-kali2-amd64
Default Encoding: UTF-8
Language: en
Country: US
--></g></svg>