<?xml version="1.0" encoding="UTF-8" standalone="no"?><svg xmlns="http://www.w3.org/2000/svg" xmlns:xlink="http://www.w3.org/1999/xlink" contentScriptType="application/ecmascript" contentStyleType="text/css" height="188px" preserveAspectRatio="none" style="width:364px;height:188px;" version="1.1" viewBox="0 0 364 188" width="364px" zoomAndPan="magnify"><defs><filter height="300%" id="f1sormj25nw99e" width="300%" x="-1" y="-1"><feGaussianBlur result="blurOut" stdDeviation="2.0"/><feColorMatrix in="blurOut" result="blurOut2" type="matrix" values="0 0 0 0 0 0 0 0 0 0 0 0 0 0 0 0 0 0 .4 0"/><feOffset dx="4.0" dy="4.0" in="blurOut2" result="blurOut3"/><feBlend in="SourceGraphic" in2="blurOut3" mode="normal"/></filter></defs><g><text fill="#000000" font-family="sans-serif" font-size="18" lengthAdjust="spacingAndGlyphs" textLength="83" x="144" y="16.708">Singleton</text><!--class Singleton--><rect fill="#FEFECE" filter="url(#f1sormj25nw99e)" height="148.2266" id="Singleton" style="stroke: #A80036; stroke-width: 1.5;" width="347" x="6" y="28.9531"/><ellipse cx="116.25" cy="48.5039" fill="#ADD1B2" rx="11" ry="11" style="stroke: #A80036; stroke-width: 1.0;"/><path d="M119.2188,54.1445 Q118.6406,54.4414 118,54.582 Q117.3594,54.7383 116.6563,54.7383 Q114.1563,54.7383 112.8281,53.0977 Q111.5156,51.4414 111.5156,48.3164 Q111.5156,45.1914 112.8281,43.5352 Q114.1563,41.8789 116.6563,41.8789 Q117.3594,41.8789 118,42.0352 Q118.6563,42.1914 119.2188,42.4883 L119.2188,45.207 Q118.5938,44.6289 118,44.3633 Q117.4063,44.082 116.7813,44.082 Q115.4375,44.082 114.75,45.1602 Q114.0625,46.2227 114.0625,48.3164 Q114.0625,50.4102 114.75,51.4883 Q115.4375,52.5508 116.7813,52.5508 Q117.4063,52.5508 118,52.2852 Q118.5938,52.0039 119.2188,51.4258 L119.2188,54.1445 Z "/><text fill="#FF0000" font-family="sans-serif" font-size="25" lengthAdjust="spacingAndGlyphs" textLength="118" x="136.75" y="57.1587">Singleton</text><line style="stroke: #A80036; stroke-width: 1.5;" x1="7" x2="352" y1="68.0547" y2="68.0547"/><rect fill="none" height="6" style="stroke: #C82930; stroke-width: 1.0;" width="6" x="14" y="79.8672"/><text fill="#000000" font-family="sans-serif" font-size="16" font-weight="bold" lengthAdjust="spacingAndGlyphs" textLength="169" x="26" y="86.9063">Singleton singleton</text><rect fill="none" height="6" style="stroke: #C82930; stroke-width: 1.0;" width="6" x="14" y="98.4922"/><text fill="#000000" font-family="sans-serif" font-size="16" font-weight="bold" lengthAdjust="spacingAndGlyphs" textLength="107" x="26" y="105.5313">String name</text><line style="stroke: #A80036; stroke-width: 1.5;" x1="7" x2="352" y1="113.3047" y2="113.3047"/><rect fill="#F24D5C" height="6" style="stroke: #C82930; stroke-width: 1.0;" width="6" x="14" y="125.1172"/><text fill="#000000" font-family="sans-serif" font-size="16" font-weight="bold" lengthAdjust="spacingAndGlyphs" textLength="203" x="26" y="132.1563">Singleton(String name)</text><ellipse cx="17" cy="146.7422" fill="#84BE84" rx="3" ry="3" style="stroke: #038048; stroke-width: 1.0;"/><text fill="#000000" font-family="sans-serif" font-size="16" font-weight="bold" lengthAdjust="spacingAndGlyphs" textLength="321" x="26" y="150.7813">Singleton getSingleton(String name)</text><ellipse cx="17" cy="165.3672" fill="#84BE84" rx="3" ry="3" style="stroke: #038048; stroke-width: 1.0;"/><text fill="#000000" font-family="sans-serif" font-size="16" font-weight="bold" lengthAdjust="spacingAndGlyphs" textLength="145" x="26" y="169.4063">String toString()</text><!--
@startuml

title Singleton

skinparam classFontColor red
skinparam classFontSize 25
left to right direction
skinparam classAttributeFontSize 16
skinparam classAttributeFontStyle bold

class Singleton {
	-Singleton singleton
	-String name
	-Singleton(String name)
	+Singleton getSingleton(String name)
	+String toString()
}


@enduml

PlantUML version 1.2018.10(Sat Aug 25 13:02:59 EDT 2018)
(GPL source distribution)
Java Runtime: OpenJDK Runtime Environment
JVM: OpenJDK 64-Bit Server VM
Java Version: 11.0.8+10-post-Debian-1
Operating System: Linux
OS Version: 5.6.0-kali2-amd64
Default Encoding: UTF-8
Language: en
Country: US
--></g></svg>